<svg viewBox="-440 -201 200 200" fill="none" stroke="black" stroke-width="4"><polyline class="right-outline"  points="-266,-85 -265,-110 -270,-85 -269,-111 -273,-85 -272,-111 -277,-86 -275,-112 -280,-86 -279,-113 -283,-86 -282,-113 -285,-86 -286,-114 -288,-86 -289,-115 -291,-86 -293,-115 -295,-87 -296,-116 -298,-87 -299,-117 -301,-87 -303,-117 -304,-87 -305,-103 -306,-118 -306,-118 -312,-119 -314,-117 -320,-121 -317,-120 -317,-116 -313,-119 -313,-112 -312,-119 -311,-110 -311,-110 -312,-119 -306,-118 -307,-103 -307,-103 -308,-87 -310,-114 -311,-87 -313,-110 -314,-88 -317,-110 -318,-88 -320,-110 -321,-88 -323,-110 -324,-88 -327,-110 -328,-88 -330,-110 -331,-88 -333,-110 -334,-89 -337,-111 -338,-89 -340,-111 -341,-88 -343,-111 -345,-87 -346,-111 -348,-85 -349,-111 -352,-84 -352,-111 -355,-83 -355,-111 -358,-83 -357,-111 -362,-82 -360,-111 -365,-82 -363,-112 -369,-83 -365,-112 -372,-85 -367,-113 -375,-87 -370,-113 -378,-89 -372,-114 -381,-91 -375,-114 -384,-93 -378,-114 -387,-96 -381,-115 -390,-98 -384,-116 -393,-100 -388,-116 -396,-102 -391,-117 -399,-104 -395,-117 -401,-106 -398,-118 -404,-107 -402,-112 -414,-118 -414,-118 -416,-116 -410,-120 -413,-114 -407,-119 -410,-112 -405,-119 -407,-110 -402,-118 -404,-107 -403,-110 -404,-107" /></svg>