<svg viewBox="-426 -122 100 100" fill="none" stroke="black" stroke-width="4"><polyline class="left-outline"  points="-330,-66 -344,-59 -358,-52 -371,-53 -390,-63 -406,-77 -422,-91 -422,-91 -421,-86 -424,-97 -420,-85 -419,-95 -418,-84 -415,-94 -417,-82 -411,-93 -415,-81 -407,-92 -412,-78 -403,-90 -409,-75 -399,-89 -406,-71 -395,-88 -403,-68 -392,-87 -399,-65 -388,-86 -396,-62 -385,-85 -392,-59 -382,-84 -389,-56 -379,-83 -385,-54 -377,-82 -381,-53 -374,-83 -377,-51 -372,-84 -372,-49 -369,-85 -368,-48 -367,-86 -364,-48 -365,-86 -359,-47 -363,-87 -355,-48 -361,-88 -351,-50 -359,-89 -347,-52 -357,-90 -343,-54 -355,-91 -339,-56 -352,-92 -335,-58 -349,-93 -331,-60 -345,-95 -328,-63" /></svg>