<svg viewBox="-420 -155 100 100" fill="none" stroke="black" stroke-width="4"><polyline class="right-outline"  points="-336,-93 -336,-96 -336,-93 -336,-98 -349,-98 -362,-95 -362,-90 -379,-98 -381,-103 -401,-103 -399,-100 -402,-106 -398,-100 -397,-107 -394,-100 -393,-109 -390,-99 -389,-110 -385,-99 -386,-111 -381,-99 -381,-99 -384,-111 -381,-115 -405,-125 -399,-126 -401,-122 -397,-125 -398,-120 -393,-124 -394,-118 -389,-124 -391,-115 -384,-123 -387,-113 -380,-122 -384,-111 -375,-121 -383,-108 -370,-119 -382,-106 -365,-118 -381,-105 -362,-114 -381,-104 -362,-109 -381,-104 -362,-105 -381,-103 -362,-100 -380,-103 -362,-96 -380,-101 -380,-101 -363,-91 -369,-89 -398,-85 -394,-88 -391,-86 -391,-90 -387,-86 -387,-93 -382,-87 -384,-95 -377,-88 -381,-97 -372,-88 -380,-98 -367,-89 -379,-99 -363,-91 -361,-112 -362,-90 -360,-117 -358,-91 -356,-117 -354,-92 -351,-116 -350,-93 -347,-115 -345,-93 -343,-114 -341,-93 -338,-114 -337,-93" /></svg>