<svg viewBox="-428 -111 100 100" fill="none" stroke="black" stroke-width="4"><polyline points="-380,-59 -381,-41 -382,-22 -382,-22 -379,-20 -385,-24 -378,-23 -387,-28 -377,-28 -388,-30 -377,-32 -389,-33 -376,-37 -391,-37 -375,-41 -394,-41 -375,-46 -396,-45 -375,-50 -397,-49 -375,-54 -398,-54 -375,-57 -398,-58 -375,-60 -398,-63 -375,-63 -399,-67 -375,-66 -399,-72 -375,-68 -400,-76 -375,-70 -400,-81 -375,-72 -400,-86 -375,-74 -401,-91 -374,-76 -398,-95 -373,-77 -393,-97 -373,-79 -389,-99 -371,-81 -384,-101 -369,-82 -380,-102 -367,-82 -375,-102 -365,-82 -370,-103 -363,-83 -366,-103 -360,-83 -361,-103 -358,-83 -357,-104 -355,-83" /></svg>