<svg viewBox="-400 -55 800 110" fill="none" stroke="black" stroke-width="4"><polyline   points="-118,27 -121,27 -118,27 -137,27 -157,28 -176,27 -196,26 -215,25 -234,22 -253,20 -272,16 -291,12 -310,7 -328,0 -346,-8 -363,-17 -379,-28 -363,-17 -379,-28 -363,-17 -346,-8 -363,-17 -346,-8 -328,0 -346,-8 -328,0 -310,7 -328,0 -310,7 -291,12 -310,7 -291,12 -272,16 -291,12 -272,16 -253,20 -272,16 -253,20 -234,22 -253,20 -234,22 -215,25 -234,22 -215,25 -196,26 -215,25 -196,26 -176,27 -196,26 -176,27 -157,28 -176,27 -157,28 -137,27 -157,28 -137,27 -118,27 -137,27 -118,27 -121,27 -118,27" /><polyline   points="118,27 121,27 118,27 137,27 157,28 176,27 196,26 215,25 234,22 253,20 272,16 291,12 310,7 328,0 346,-8 363,-17 379,-28 363,-17 379,-28 363,-17 346,-8 363,-17 346,-8 328,0 346,-8 328,0 310,7 328,0 310,7 291,12 310,7 291,12 272,16 291,12 272,16 253,20 272,16 253,20 234,22 253,20 234,22 215,25 234,22 215,25 196,26 215,25 196,26 176,27 196,26 176,27 157,28 176,27 157,28 137,27 157,28 137,27 118,27 137,27 118,27 121,27 118,27" /></svg>