<svg viewBox="-400 -55 800 110" fill="none" stroke="black" stroke-width="4"><polyline   points="-125,-34 -127,-32 -125,-34 -139,-20 -125,-34 -139,-20 -154,-8 -139,-20 -154,-8 -171,2 -154,-8 -171,2 -189,10 -171,2 -189,10 -207,16 -189,10 -207,16 -226,21 -207,16 -226,21 -245,25 -226,21 -245,25 -265,28 -245,25 -265,28 -284,30 -265,28 -284,30 -304,32 -284,30 -304,32 -323,33 -304,32 -323,33 -343,34 -323,33 -343,34 -362,33 -343,34 -362,33 -382,33 -362,33 -382,33 -379,33 -382,33" /><polyline   points="125,-34 127,-32 125,-34 139,-20 125,-34 139,-20 154,-8 139,-20 154,-8 171,2 154,-8 171,2 189,10 171,2 189,10 207,16 189,10 207,16 226,21 207,16 226,21 245,25 226,21 245,25 265,28 245,25 265,28 284,30 265,28 284,30 304,32 284,30 304,32 323,33 304,32 323,33 343,34 323,33 343,34 362,33 343,34 362,33 382,33 362,33 382,33 379,33 382,33" /></svg>