<svg viewBox="-400 -55 800 110" fill="none" stroke="black" stroke-width="4"><polyline   points="-118,-3 -121,-3 -118,-3 -137,-3 -156,-2 -175,-2 -194,-1 -213,-1 -232,0 -251,0 -270,1 -290,1 -309,2 -328,2 -347,3 -366,3 -385,4 -366,3 -385,4 -366,3 -347,3 -366,3 -347,3 -328,2 -347,3 -328,2 -309,2 -328,2 -309,2 -290,1 -309,2 -290,1 -270,1 -290,1 -270,1 -251,0 -270,1 -251,0 -232,0 -251,0 -232,0 -213,-1 -232,0 -213,-1 -194,-1 -213,-1 -194,-1 -175,-2 -194,-1 -175,-2 -156,-2 -175,-2 -156,-2 -137,-3 -156,-2 -137,-3 -118,-3 -137,-3 -118,-3 -121,-3 -118,-3" /><polyline   points="118,-4 121,-4 118,-4 137,-3 156,-3 175,-3 194,-2 213,-2 232,-2 251,-1 270,-1 289,-1 309,0 328,0 347,0 366,0 385,1 366,0 385,1 366,0 347,0 366,0 347,0 328,0 347,0 328,0 309,0 328,0 309,0 289,-1 309,0 289,-1 270,-1 289,-1 270,-1 251,-1 270,-1 251,-1 232,-2 251,-1 232,-2 213,-2 232,-2 213,-2 194,-2 213,-2 194,-2 175,-3 194,-2 175,-3 156,-3 175,-3 156,-3 137,-3 156,-3 137,-3 118,-4 137,-3 118,-4 121,-4 118,-4" /></svg>