<svg viewBox="-400 -55 800 110" fill="none" stroke="black" stroke-width="4"><polyline   points="-106,40 -108,38 -106,40 -117,24 -129,10 -144,-3 -159,-14 -176,-23 -194,-31 -212,-36 -231,-39 -250,-40 -269,-40 -288,-39 -307,-35 -325,-29 -343,-21 -359,-12 -374,0 -389,12 -374,0 -389,12 -374,0 -359,-12 -374,0 -359,-12 -343,-21 -359,-12 -343,-21 -325,-29 -343,-21 -325,-29 -307,-35 -325,-29 -307,-35 -288,-39 -307,-35 -288,-39 -269,-40 -288,-39 -269,-40 -250,-40 -269,-40 -250,-40 -231,-39 -250,-40 -231,-39 -212,-36 -231,-39 -212,-36 -194,-31 -212,-36 -194,-31 -176,-23 -194,-31 -176,-23 -159,-14 -176,-23 -159,-14 -144,-3 -159,-14 -144,-3 -129,10 -144,-3 -129,10 -117,24 -129,10 -117,24 -106,40 -117,24 -106,40 -108,38 -106,40" /><polyline   points="107,40 109,38 107,40 118,24 130,10 145,-3 160,-14 177,-23 195,-31 213,-36 232,-39 251,-40 270,-40 289,-39 308,-35 326,-29 344,-21 360,-12 375,0 390,12 375,0 390,12 375,0 360,-12 375,0 360,-12 344,-21 360,-12 344,-21 326,-29 344,-21 326,-29 308,-35 326,-29 308,-35 289,-39 308,-35 289,-39 270,-40 289,-39 270,-40 251,-40 270,-40 251,-40 232,-39 251,-40 232,-39 213,-36 232,-39 213,-36 195,-31 213,-36 195,-31 177,-23 195,-31 177,-23 160,-14 177,-23 160,-14 145,-3 160,-14 145,-3 130,10 145,-3 130,10 118,24 130,10 118,24 107,40 118,24 107,40 109,38 107,40" /></svg>