<svg viewBox="-400 -55 800 110" fill="none" stroke="black" stroke-width="4"><polyline   points="-124,-39 -127,-38 -124,-39 -142,-33 -160,-28 -179,-22 -197,-17 -215,-11 -233,-6 -251,0 -270,6 -288,11 -306,17 -324,22 -342,28 -361,33 -379,39 -361,33 -379,39 -361,33 -342,28 -361,33 -342,28 -324,22 -342,28 -324,22 -306,17 -324,22 -306,17 -288,11 -306,17 -288,11 -270,6 -288,11 -270,6 -251,0 -270,6 -251,0 -233,-6 -251,0 -233,-6 -215,-11 -233,-6 -215,-11 -197,-17 -215,-11 -197,-17 -179,-22 -197,-17 -179,-22 -160,-28 -179,-22 -160,-28 -142,-33 -160,-28 -142,-33 -124,-39 -142,-33 -124,-39 -127,-38 -124,-39" /><polyline   points="123,-37 126,-36 123,-37 141,-32 159,-27 178,-22 196,-17 214,-12 233,-6 251,-1 270,4 288,9 306,14 325,19 343,24 361,30 380,35 361,30 380,35 361,30 343,24 361,30 343,24 325,19 343,24 325,19 306,14 325,19 306,14 288,9 306,14 288,9 270,4 288,9 270,4 251,-1 270,4 251,-1 233,-6 251,-1 233,-6 214,-12 233,-6 214,-12 196,-17 214,-12 196,-17 178,-22 196,-17 178,-22 159,-27 178,-22 159,-27 141,-32 159,-27 141,-32 123,-37 141,-32 123,-37 126,-36 123,-37" /></svg>