<svg viewBox="-400 -55 800 110" fill="none" stroke="black" stroke-width="4"><polyline   points="-119,1 -122,1 -119,1 -138,1 -156,1 -175,1 -194,1 -212,1 -231,1 -249,1 -268,0 -287,0 -305,0 -324,0 -343,0 -361,0 -380,0 -361,0 -380,0 -361,0 -343,0 -361,0 -343,0 -324,0 -343,0 -324,0 -305,0 -324,0 -305,0 -287,0 -305,0 -287,0 -268,0 -287,0 -268,0 -249,1 -268,0 -249,1 -231,1 -249,1 -231,1 -212,1 -231,1 -212,1 -194,1 -212,1 -194,1 -175,1 -194,1 -175,1 -156,1 -175,1 -156,1 -138,1 -156,1 -138,1 -119,1 -138,1 -119,1 -122,1 -119,1" /><polyline   points="123,0 126,0 123,0 143,0 163,0 183,0 202,0 222,0 242,0 262,0 282,0 302,0 321,0 341,0 361,0 381,0 361,0 381,0 361,0 341,0 361,0 341,0 321,0 341,0 321,0 302,0 321,0 302,0 282,0 302,0 282,0 262,0 282,0 262,0 242,0 262,0 242,0 222,0 242,0 222,0 202,0 222,0 202,0 183,0 202,0 183,0 163,0 183,0 163,0 143,0 163,0 143,0 123,0 143,0 123,0 126,0 123,0" /></svg>