<svg viewBox="-400 -55 800 110" fill="none" stroke="black" stroke-width="4"><polyline   points="-97,50 -99,48 -97,50 -110,35 -123,22 -138,9 -153,-3 -169,-14 -186,-23 -203,-31 -221,-38 -240,-44 -258,-48 -277,-50 -297,-50 -316,-47 -334,-42 -352,-34 -369,-25 -384,-13 -369,-25 -384,-13 -369,-25 -352,-34 -369,-25 -352,-34 -334,-42 -352,-34 -334,-42 -316,-47 -334,-42 -316,-47 -297,-50 -316,-47 -297,-50 -277,-50 -297,-50 -277,-50 -258,-48 -277,-50 -258,-48 -240,-44 -258,-48 -240,-44 -221,-38 -240,-44 -221,-38 -203,-31 -221,-38 -203,-31 -186,-23 -203,-31 -186,-23 -169,-14 -186,-23 -169,-14 -153,-3 -169,-14 -153,-3 -138,9 -153,-3 -138,9 -123,22 -138,9 -123,22 -110,35 -123,22 -110,35 -97,50 -110,35 -97,50 -99,48 -97,50" /><polyline   points="97,50 99,48 97,50 110,35 123,22 138,9 153,-3 169,-14 186,-23 203,-31 221,-38 240,-44 258,-48 277,-50 297,-50 316,-47 334,-42 352,-34 369,-25 384,-13 369,-25 384,-13 369,-25 352,-34 369,-25 352,-34 334,-42 352,-34 334,-42 316,-47 334,-42 316,-47 297,-50 316,-47 297,-50 277,-50 297,-50 277,-50 258,-48 277,-50 258,-48 240,-44 258,-48 240,-44 221,-38 240,-44 221,-38 203,-31 221,-38 203,-31 186,-23 203,-31 186,-23 169,-14 186,-23 169,-14 153,-3 169,-14 153,-3 138,9 153,-3 138,9 123,22 138,9 123,22 110,35 123,22 110,35 97,50 110,35 97,50 99,48 97,50" /></svg>