<svg viewBox="-400 -55 800 110" fill="none" stroke="black" stroke-width="4"><polyline   points="-104,-14 -107,-15 -104,-14 -123,-18 -142,-23 -161,-25 -180,-27 -200,-27 -219,-27 -239,-25 -258,-23 -277,-19 -296,-14 -315,-8 -333,-1 -351,7 -367,17 -384,27 -367,17 -384,27 -367,17 -351,7 -367,17 -351,7 -333,-1 -351,7 -333,-1 -315,-8 -333,-1 -315,-8 -296,-14 -315,-8 -296,-14 -277,-19 -296,-14 -277,-19 -258,-23 -277,-19 -258,-23 -239,-25 -258,-23 -239,-25 -219,-27 -239,-25 -219,-27 -200,-27 -219,-27 -200,-27 -180,-27 -200,-27 -180,-27 -161,-25 -180,-27 -161,-25 -142,-23 -161,-25 -142,-23 -123,-18 -142,-23 -123,-18 -104,-14 -123,-18 -104,-14 -107,-15 -104,-14" /><polyline   points="102,-7 105,-8 102,-7 121,-12 139,-17 159,-21 178,-24 197,-25 217,-26 236,-25 256,-24 275,-21 294,-17 313,-12 332,-6 350,2 367,11 384,20 367,11 384,20 367,11 350,2 367,11 350,2 332,-6 350,2 332,-6 313,-12 332,-6 313,-12 294,-17 313,-12 294,-17 275,-21 294,-17 275,-21 256,-24 275,-21 256,-24 236,-25 256,-24 236,-25 217,-26 236,-25 217,-26 197,-25 217,-26 197,-25 178,-24 197,-25 178,-24 159,-21 178,-24 159,-21 139,-17 159,-21 139,-17 121,-12 139,-17 121,-12 102,-7 121,-12 102,-7 105,-8 102,-7" /></svg>