<svg viewBox="-400 -55 800 110" fill="none" stroke="black" stroke-width="4"><polyline   points="-108,40 -111,39 -108,40 -126,32 -144,25 -162,18 -180,11 -199,4 -217,-2 -236,-8 -254,-14 -273,-19 -292,-24 -311,-28 -330,-32 -349,-35 -369,-37 -388,-39 -369,-37 -388,-39 -369,-37 -349,-35 -369,-37 -349,-35 -330,-32 -349,-35 -330,-32 -311,-28 -330,-32 -311,-28 -292,-24 -311,-28 -292,-24 -273,-19 -292,-24 -273,-19 -254,-14 -273,-19 -254,-14 -236,-8 -254,-14 -236,-8 -217,-2 -236,-8 -217,-2 -199,4 -217,-2 -199,4 -180,11 -199,4 -180,11 -162,18 -180,11 -162,18 -144,25 -162,18 -144,25 -126,32 -144,25 -126,32 -108,40 -126,32 -108,40 -111,39 -108,40" /><polyline   points="108,40 111,39 108,40 126,32 144,25 162,18 180,11 199,4 217,-2 236,-8 254,-14 273,-19 292,-24 311,-28 330,-32 349,-35 369,-37 388,-39 369,-37 388,-39 369,-37 349,-35 369,-37 349,-35 330,-32 349,-35 330,-32 311,-28 330,-32 311,-28 292,-24 311,-28 292,-24 273,-19 292,-24 273,-19 254,-14 273,-19 254,-14 236,-8 254,-14 236,-8 217,-2 236,-8 217,-2 199,4 217,-2 199,4 180,11 199,4 180,11 162,18 180,11 162,18 144,25 162,18 144,25 126,32 144,25 126,32 108,40 126,32 108,40 111,39 108,40" /></svg>