<svg viewBox="-400 -55 800 110" fill="none" stroke="black" stroke-width="4"><polyline   points="-374,-33 -371,-33 -374,-33 -355,-32 -374,-33 -355,-32 -336,-32 -355,-32 -336,-32 -317,-31 -336,-32 -317,-31 -299,-30 -317,-31 -299,-30 -280,-29 -299,-30 -280,-29 -261,-28 -280,-29 -261,-28 -242,-27 -261,-28 -242,-27 -223,-25 -242,-27 -223,-25 -205,-22 -223,-25 -205,-22 -186,-18 -205,-22 -186,-18 -169,-11 -186,-18 -169,-11 -152,-2 -169,-11 -152,-2 -136,8 -152,-2 -136,8 -122,20 -136,8 -122,20 -109,34 -122,20 -109,34 -111,32 -109,34" /><polyline   points="110,34 112,32 110,34 123,20 110,34 123,20 137,8 123,20 137,8 153,-2 137,8 153,-2 170,-11 153,-2 170,-11 187,-18 170,-11 187,-18 205,-22 187,-18 205,-22 224,-25 205,-22 224,-25 243,-27 224,-25 243,-27 262,-28 243,-27 262,-28 281,-30 262,-28 281,-30 300,-30 281,-30 300,-30 318,-31 300,-30 318,-31 337,-32 318,-31 337,-32 356,-32 337,-32 356,-32 375,-33 356,-32 375,-33 372,-33 375,-33" /></svg>