<svg viewBox="-400 -35 800 70" fill="none" stroke="black" stroke-width="4"><polyline points="-108,28 -110,26 -108,28 -124,17 -141,7 -158,-1 -176,-10 -194,-15 -213,-21 -232,-24 -251,-27 -270,-27 -290,-26 -309,-23 -328,-18 -346,-12 -364,-4 -381,4 -364,-4 -381,4 -364,-4 -346,-12 -364,-4 -346,-12 -328,-18 -346,-12 -328,-18 -309,-23 -328,-18 -309,-23 -290,-26 -309,-23 -290,-26 -270,-27 -290,-26 -270,-27 -251,-27 -270,-27 -251,-27 -232,-24 -251,-27 -232,-24 -213,-21 -232,-24 -213,-21 -194,-15 -213,-21 -194,-15 -176,-10 -194,-15 -176,-10 -158,-1 -176,-10 -158,-1 -141,7 -158,-1 -141,7 -124,17 -141,7 -124,17 -108,28 -124,17 -108,28 -110,26 -108,28" /><polyline points="109,28 111,26 109,28 125,17 142,7 159,-1 177,-10 195,-15 214,-21 233,-24 252,-27 271,-27 291,-26 310,-23 329,-18 347,-12 365,-4 382,4 365,-4 382,4 365,-4 347,-12 365,-4 347,-12 329,-18 347,-12 329,-18 310,-23 329,-18 310,-23 291,-26 310,-23 291,-26 271,-27 291,-26 271,-27 252,-27 271,-27 252,-27 233,-24 252,-27 233,-24 214,-21 233,-24 214,-21 195,-15 214,-21 195,-15 177,-10 195,-15 177,-10 159,-1 177,-10 159,-1 142,7 159,-1 142,7 125,17 142,7 125,17 109,28 125,17 109,28 111,26 109,28" /></svg>