<svg viewBox="-400 -55 800 110" fill="none" stroke="black" stroke-width="4"><polyline   points="110,29 113,28 110,29 129,25 148,21 167,17 186,12 205,8 224,4 243,0 262,-4 281,-8 300,-12 319,-17 338,-21 357,-25 376,-29 357,-25 376,-29 357,-25 338,-21 357,-25 338,-21 319,-17 338,-21 319,-17 300,-12 319,-17 300,-12 281,-8 300,-12 281,-8 262,-4 281,-8 262,-4 243,0 262,-4 243,0 224,4 243,0 224,4 205,8 224,4 205,8 186,12 205,8 186,12 167,17 186,12 167,17 148,21 167,17 148,21 129,25 148,21 129,25 110,29 129,25 110,29 113,28 110,29" /><polyline   points="-116,28 -119,27 -116,28 -135,24 -153,20 -172,16 -190,13 -209,9 -227,5 -246,1 -265,-3 -283,-7 -302,-11 -320,-14 -339,-18 -357,-22 -376,-26 -357,-22 -376,-26 -357,-22 -339,-18 -357,-22 -339,-18 -320,-14 -339,-18 -320,-14 -302,-11 -320,-14 -302,-11 -283,-7 -302,-11 -283,-7 -265,-3 -283,-7 -265,-3 -246,1 -265,-3 -246,1 -227,5 -246,1 -227,5 -209,9 -227,5 -209,9 -190,13 -209,9 -190,13 -172,16 -190,13 -172,16 -153,20 -172,16 -153,20 -135,24 -153,20 -135,24 -116,28 -135,24 -116,28 -119,27 -116,28" /></svg>