<svg viewBox="-400 -35 800 70" fill="none" stroke="black" stroke-width="4"><polyline points="-111,26 -114,25 -111,26 -129,19 -147,12 -166,6 -184,0 -203,-5 -222,-10 -241,-14 -260,-17 -279,-20 -298,-22 -318,-24 -337,-25 -357,-26 -376,-26 -357,-26 -376,-26 -357,-26 -337,-25 -357,-26 -337,-25 -318,-24 -337,-25 -318,-24 -298,-22 -318,-24 -298,-22 -279,-20 -298,-22 -279,-20 -260,-17 -279,-20 -260,-17 -241,-14 -260,-17 -241,-14 -222,-10 -241,-14 -222,-10 -203,-5 -222,-10 -203,-5 -184,0 -203,-5 -184,0 -166,6 -184,0 -166,6 -147,12 -166,6 -147,12 -129,19 -147,12 -129,19 -111,26 -129,19 -111,26 -114,25 -111,26" /><polyline points="111,26 114,25 111,26 129,19 147,12 166,6 184,0 203,-5 222,-10 241,-14 260,-17 279,-20 298,-22 318,-24 337,-25 357,-26 376,-26 357,-26 376,-26 357,-26 337,-25 357,-26 337,-25 318,-24 337,-25 318,-24 298,-22 318,-24 298,-22 279,-20 298,-22 279,-20 260,-17 279,-20 260,-17 241,-14 260,-17 241,-14 222,-10 241,-14 222,-10 203,-5 222,-10 203,-5 184,0 203,-5 184,0 166,6 184,0 166,6 147,12 166,6 147,12 129,19 147,12 129,19 111,26 129,19 111,26 114,25 111,26" /></svg>