<svg viewBox="-150 -50 300 100" fill="none" stroke="black" stroke-width="4"><polyline points="80,-19 82,-16 80,-19 87,-8 79,4 66,12 53,18 38,17 25,11 12,4 -2,3 -16,8 -29,15 -43,19 -58,16 -71,10 -83,3 -87,-11 -76,-18 -87,-11 -76,-18 -87,-11 -83,3 -87,-11 -83,3 -71,10 -83,3 -71,10 -58,16 -71,10 -58,16 -43,19 -58,16 -43,19 -29,15 -43,19 -29,15 -16,8 -29,15 -16,8 -2,3 -16,8 -2,3 12,4 -2,3 12,4 25,11 12,4 25,11 38,17 25,11 38,17 53,18 38,17 53,18 66,12 53,18 66,12 79,4 66,12 79,4 87,-8 79,4 87,-8 80,-19 87,-8 80,-19 82,-16 80,-19" /></svg>