<svg viewBox="-150 -50 300 100" fill="none" stroke="black" stroke-width="4"><polyline stroke="white" points="-136,-26 -133,-25 -136,-26 -119,-19 -102,-13 -85,-6 -67,1 -50,7 -33,14 -16,20 1,27 -15,23 -31,20 -46,16 -62,13 -78,9 -44,9 -4,9 36,9 75,9 104,-5 87,-5 69,-5 52,-5 35,-5 17,-5 0,-5 20,-6 39,-6 59,-7 79,-8 98,-13 117,-18 136,-23 109,-8 104,-8 64,-8 50,-8 50,-8 64,-8 104,-8 109,-8 104,-5 86,-5 68,-5 50,-5 31,-5 13,-5 -5,-5 -48,-8 -56,-8 -96,-8 -112,-8 -96,-8 -56,-8 -48,-8 -65,-12 -83,-15 -101,-19 -118,-22 -136,-26 -118,-21 -100,-15 -82,-10 -64,-4 -46,1 -29,7 -20,9 -10,8 8,4 26,0 44,-4 63,-7 81,-11 99,-15 118,-19 136,-23 132,-22 132,-20 127,-21 127,-17 123,-21 123,-14 118,-20 118,-11 114,-19 114,-8 109,-18 109,-5 105,-18 105,-2 100,-17 100,0 96,-16 96,2 91,-15 91,4 87,-14 87,6 82,-14 82,8 78,-13 78,11 74,-12 74,13 69,-12 69,14 65,-11 65,16 60,-11 60,17 56,-10 56,19 51,-9 51,20 47,-9 47,21 42,-8 42,22 38,-8 38,23 33,-7 33,24 29,-7 29,25 25,-7 25,25 20,-6 20,26 16,-6 16,26 11,-6 11,27 7,-5 7,27 2,-5 2,27 -2,-5 -2,27 -7,-5 -7,27 -11,-6 -11,26 -16,-6 -16,26 -20,-6 -20,26 -25,-6 -25,25 -29,-7 -29,24 -33,-7 -33,23 -38,-8 -38,23 -42,-8 -42,22 -47,-9 -47,21 -51,-10 -51,20 -56,-10 -56,18 -60,-11 -60,17 -65,-12 -65,16 -69,-12 -69,14 -74,-13 -74,13 -78,-14 -78,11 -82,-15 -82,9 -87,-16 -87,8 -91,-17 -91,6 -96,-18 -96,4 -100,-19 -100,1 -105,-20 -105,-1 -109,-20 -109,-4 -114,-21 -114,-6 -118,-22 -118,-10 -123,-23 -123,-13 -127,-24 -127,-16 -132,-25 -132,-21 -134,-26 -136,-26 -134,-26 -136,-26" /><polyline points="-101,-1 -98,-2 -101,-1 -90,-6 -101,-1 -90,-6 -80,-12 -90,-6 -80,-12 -73,0 -80,-12 -73,0 -66,11 -73,0 -66,11 -55,2 -66,11 -55,2 -44,-7 -55,2 -44,-7 -34,10 -44,-7 -34,10 -24,26 -34,10 -24,26 -12,11 -24,26 -12,11 0,-5 -12,11 0,-5 11,11 0,-5 11,11 22,26 11,11 22,26 32,10 22,26 32,10 42,-7 32,10 42,-7 53,2 42,-7 53,2 64,11 53,2 64,11 71,0 64,11 71,0 78,-12 71,0 78,-12 89,-6 78,-12 89,-6 99,-1 89,-6 99,-1 99,0 102,-1 99,0 102,-1 99,0 81,9 99,0 81,9 63,16 81,9 63,16 45,22 63,16 45,22 26,25 45,22 26,25 6,27 26,25 6,27 -13,26 6,27 -13,26 -33,24 -13,26 -33,24 -52,19 -33,24 -52,19 -70,14 -52,19 -70,14 -88,7 -70,14 -88,7 -106,-2 -88,7 -106,-2 -122,-12 -106,-2 -122,-12 -136,-26 -122,-12 -136,-26 -117,-22 -136,-26 -117,-22 -97,-18 -117,-22 -97,-18 -78,-14 -97,-18 -78,-14 -59,-11 -78,-14 -59,-11 -39,-8 -59,-11 -39,-8 -20,-6 -39,-8 -20,-6 0,-5 -20,-6 0,-5 19,-6 0,-5 19,-6 39,-8 19,-6 39,-8 58,-10 39,-8 58,-10 78,-13 58,-10 78,-13 97,-16 78,-13 97,-16 117,-20 97,-16 117,-20 136,-23 117,-20 136,-23 125,-15 136,-23 125,-15 113,-8 125,-15 113,-8 102,-1 113,-8 102,-1 105,-3 102,-1" /></svg>