<svg viewBox="-150 -50 300 100" fill="none" stroke="black" stroke-width="4"><polyline stroke="red" points="-14,-5 -11,-5 -14,-5 0,-3 13,-5 13,13 6,28 -2,31 -10,28 -16,21 -15,13 -14,-5 -15,8 -16,20 -16,20 -16,20 -14,-5 -7,4 0,14 7,4 13,-5 13,1 13,18 13,18 13,1 13,-5 -14,-5 -23,-16 -18,-2 -12,13 -7,27 -2,41 9,39 -12,39 14,34 -19,34 17,30 -23,30 20,26 -25,26 23,21 -26,21 23,17 -26,17 23,13 -25,13 23,8 -25,8 23,4 -25,4 23,-1 -24,-1 23,-5 -24,-5 23,-9 -24,-9 -23,-12 23,-12 23,-13 12,-13 0,-13 12,-14 23,-16 23,-14 6,-14 0,-13 -6,-14 -23,-14 -6,-14 -23,-16 -20,-16 -23,-16" /><polyline points="-58,-40 -56,-38 -58,-40 -47,-28 -58,-40 -47,-28 -33,-20 -47,-28 -33,-20 -18,-16 -33,-20 -18,-16 -2,-15 -18,-16 -2,-15 -1,0 -2,-15 -1,0 -1,14 -1,0 -1,14 0,0 -1,14 0,0 1,-15 0,0 1,-15 17,-17 1,-15 17,-17 33,-20 17,-17 33,-20 47,-29 33,-20 47,-29 59,-40 47,-29 59,-40 57,-38 59,-40" /></svg>