<svg viewBox="-150 -50 300 100" fill="none" stroke="black" stroke-width="4"><polyline stroke="white" points="-43,-20 -43,-16 -38,-20 -38,-7 -34,-20 -34,-3 -29,-20 -29,-10 -25,-20 -25,-17 -20,-20 -20,-12 -16,-20 -16,-5 -11,-20 -11,-3 -7,-20 -7,-10 -2,-20 -2,-16 2,-21 2,-15 7,-21 7,-8 11,-21 11,0 16,-21 16,-7 20,-21 20,-15 25,-21 25,-14 29,-21 29,-7 34,-21 34,-2 38,-21 38,-8 43,-21 43,-15 45,-21 47,-21 45,-21 47,-21" /><polyline stroke="salmon" points="-46,-21 -46,-18 -46,-21 -45,-2 -39,-2 -39,-2 -34,-2 -34,-2 -45,-2 -17,-1 -17,-1 -12,-1 -12,-1 -8,11 -5,22 0,22 16,15 32,7 13,7 -27,5 -33,5 -40,-2 -26,-1 -12,-1 5,-1 22,0 38,0 44,-10 38,0 39,0 35,0 34,0 23,-9 25,-9 25,-9 23,-9 17,-1 17,-1 12,-1 12,-1 -1,-9 2,-9 7,-1 18,-1 29,0 -2,-1 -6,-2 -6,-2 -2,-1 29,0 38,0 35,0 -2,-1 -6,-1 -7,-1 -7,-1 -17,-1 -17,-1 -40,-2 -40,-2 -34,-2 -24,-9 -23,-9 -23,-9 -24,-9 -29,-2 -29,-2 -39,-2 -39,-2 -45,-11 -46,-21 -47,-10 -50,-11 -48,-7 -48,-14 -46,-21 -40,-4 -33,2 -24,4 -6,4 13,2 30,3 42,-6 49,-20 47,-18 46,-8 42,-11 41,2 37,-4 37,8 33,-3 32,12 28,-12 28,15 24,-17 23,18 20,-13 18,19 15,-3 14,21 10,-3 9,22 6,-11 5,22 2,-17 0,23 -3,-14 -4,22 -8,-6 -9,22 -12,-1 -13,21 -17,-6 -18,20 -21,-14 -22,18 -25,-16 -26,15 -30,-8 -31,13 -35,-3 -35,9 -39,-9 -39,4 -43,-16 -44,-1 -46,-4 -45,-20 -46,-21 -45,-20 -46,-21" /><polyline points="47,-21 46,-18 47,-21 41,-10 34,1 28,-9 23,-20 17,-9 12,1 6,-9 1,-20 -6,-9 -12,1 -18,-9 -23,-20 -29,-9 -34,1 -40,-9 -45,-20 -40,-9 -34,1 -29,-9 -23,-20 -18,-9 -12,1 -6,-9 1,-20 6,-9 12,1 17,-9 23,-20 28,-9 34,1 41,-10 47,-21 53,-23 58,-28 47,-18 58,-22 47,-17 57,-17 50,-16 57,-13 47,-15 55,-9 46,-12 54,-4 44,-9 51,0 43,-5 49,3 41,-2 46,7 39,1 43,10 36,3 40,13 34,6 37,16 31,8 33,19 28,10 29,21 24,12 25,23 21,14 21,25 17,15 16,26 14,16 12,27 10,17 8,28 7,18 3,28 3,18 -1,28 -1,18 -6,28 -5,18 -10,27 -8,17 -15,26 -12,16 -19,25 -16,15 -23,23 -19,14 -27,21 -23,12 -31,19 -26,11 -35,17 -29,8 -39,14 -32,6 -42,11 -35,4 -45,8 -37,1 -48,4 -39,-2 -50,0 -41,-5 -52,-4 -43,-8 -54,-8 -44,-11 -55,-12 -46,-14 -56,-17 -46,-15 -57,-22 -46,-16 -57,-28 -46,-18 -51,-28 -40,-18 -45,-28 -36,-18 -39,-28 -31,-18 -33,-28 -26,-18 -28,-28 -22,-18 -23,-28 -18,-18 -18,-28 -14,-18 -13,-28 -11,-18 -9,-28 -7,-18 -4,-28 -3,-18 0,-28 0,-18 5,-28 4,-18 9,-28 8,-18 14,-28 11,-18 19,-28 15,-18 24,-28 19,-18 29,-28 23,-18 34,-28 27,-18 40,-28 32,-18 45,-28 37,-18 52,-28 42,-18 58,-28 47,-18 58,-28 56,-26 58,-28" /></svg>