<svg viewBox="-425 -150 850 300" fill="none" stroke="black" stroke-width="4"><polyline class="left-eye" stroke="red" points="-337,-22 -339,-24 -337,-22 -339,-24 -323,-17 -306,-16 -289,-22 -276,-32 -269,-48 -269,-65 -275,-81 -287,-94 -268,-97 -248,-99 -228,-100 -209,-99 -189,-97 -169,-94 -150,-88 -131,-83 -112,-78 -114,-58 -118,-39 -120,-19 -123,0 -126,20 -132,39 -139,57 -147,75 -159,91 -174,103 -192,112 -211,118 -230,120 -250,117 -269,111 -286,102 -301,89 -312,73 -320,55 -327,36 -333,17 -335,-2 -337,-22 -331,-5 -324,12 -318,29 -312,46 -306,63 -299,80 -293,97 -280,103 -267,110 -254,116 -263,107 -291,79 -320,50 -324,46 -328,32 -333,18 -318,32 -290,60 -262,89 -234,117 -231,120 -212,118 -232,99 -260,70 -289,42 -317,14 -336,-5 -337,-22 -321,-14 -305,-5 -289,3 -273,11 -257,20 -241,28 -225,37 -221,18 -217,-1 -212,-20 -196,-30 -179,-39 -162,-49 -145,-59 -129,-68 -112,-78 -112,-78 -125,-81 -139,-85 -128,-74 -114,-60 -117,-43 -129,-55 -157,-84 -166,-93 -178,-95 -191,-97 -187,-94 -159,-65 -130,-37 -119,-26 -122,-9 -132,-19 -160,-47 -188,-75 -213,-99 -223,-100 -233,-100 -218,-85 -190,-57 -162,-29 -133,0 -124,8 -127,26 -135,18 -163,-10 -191,-39 -219,-67 -248,-95 -251,-99 -269,-96 -249,-77 -221,-48 -193,-20 -164,8 -136,36 -133,40 -138,54 -166,27 -194,-2 -222,-30 -251,-58 -279,-87 -285,-93 -272,-77 -268,-56 -252,-40 -224,-12 -195,17 -167,45 -144,68 -151,81 -169,63 -197,35 -225,7 -253,-22 -271,-39 -279,-28 -255,-3 -226,25 -198,53 -170,82 -160,92 -170,101 -200,72 -228,43 -256,15 -284,-13 -292,-20 -307,-15 -286,5 -258,34 -229,62 -201,90 -183,108 -197,114 -202,108 -231,80 -259,52 -287,24 -316,-5 -331,-20 -339,-24 -337,-22 -344,-35 -343,-35 -344,-33 -339,-33 -345,-28 -335,-32 -345,-22 -332,-31 -342,-20 -346,-17 -332,-27 -328,-29 -345,-12 -341,-13 -325,-27 -331,-21 -345,-7 -321,-26 -340,-7 -345,-2 -330,-14 -317,-25 -321,-21 -344,2 -339,0 -312,-24 -329,-7 -343,7 -320,-14 -307,-24 -310,-22 -338,7 -343,11 -328,0 -301,-25 -319,-8 -342,16 -337,13 -309,-15 -294,-27 -299,-22 -327,6 -342,20 -341,22 -317,-1 -289,-29 -284,-33 -273,-46 -271,-63 -276,-79 -288,-91 -304,-94 -296,-97 -301,-91 -288,-100 -299,-89 -289,-97 -281,-102 -296,-87 -274,-103 -288,-90 -292,-85 -278,-97 -268,-105 -290,-82 -262,-106 -277,-90 -287,-80 -267,-98 -256,-106 -285,-77 -276,-84 -250,-107 -266,-91 -282,-75 -256,-98 -244,-108 -246,-105 -275,-77 -281,-71 -265,-84 -239,-108 -255,-91 -279,-68 -274,-70 -245,-99 -234,-108 -264,-78 -278,-64 -254,-85 -228,-108 -244,-92 -273,-64 -277,-59 -263,-71 -235,-99 -223,-108 -253,-78 -277,-55 -272,-57 -243,-85 -218,-108 -234,-93 -262,-64 -277,-49 -252,-71 -224,-100 -213,-108 -242,-79 -271,-50 -278,-43 -281,-38 -261,-58 -233,-86 -208,-108 -223,-93 -251,-65 -279,-37 -308,-8 -336,20 -340,25 -326,13 -298,-15 -270,-44 -241,-72 -213,-100 -203,-107 -232,-79 -260,-51 -288,-23 -316,6 -339,29 -335,27 -307,-2 -278,-30 -250,-58 -222,-86 -198,-107 -212,-94 -240,-65 -269,-37 -297,-9 -325,20 -338,33 -315,12 -287,-16 -259,-44 -231,-73 -202,-101 -194,-107 -221,-80 -249,-51 -277,-23 -306,5 -334,33 -337,37 -324,26 -296,-2 -268,-30 -239,-59 -211,-87 -189,-106 -201,-94 -230,-66 -258,-38 -286,-9 -314,19 -336,41 -333,40 -305,12 -276,-16 -248,-45 -220,-73 -192,-101 -185,-106 -210,-80 -238,-52 -267,-24 -295,5 -323,33 -335,45 -313,26 -285,-3 -257,-31 -229,-59 -200,-87 -180,-105 -191,-95 -219,-66 -247,-38 -275,-10 -304,18 -334,48 -322,40 -294,11 -266,-17 -237,-45 -209,-74 -181,-102 -176,-104 -199,-81 -228,-53 -256,-24 -284,4 -312,32 -332,52 -303,25 -274,-3 -246,-31 -218,-60 -190,-88 -171,-104 -180,-95 -208,-67 -236,-39 -265,-10 -293,18 -321,46 -331,56 -311,39 -283,11 -255,-18 -227,-46 -198,-74 -167,-103 -188,-81 -217,-53 -245,-25 -273,4 -302,32 -329,59 -320,53 -292,25 -264,-4 -235,-32 -207,-60 -179,-89 -163,-102 -169,-96 -197,-67 -226,-39 -254,-11 -282,17 -310,46 -328,63 -301,38 -272,10 -244,-18 -216,-46 -187,-75 -159,-101 -178,-82 -206,-54 -234,-25 -263,3 -291,31 -319,60 -326,67 -309,52 -281,24 -253,-4 -225,-32 -196,-61 -168,-89 -155,-100 -158,-96 -186,-68 -215,-40 -243,-11 -271,17 -300,45 -325,70 -318,66 -290,38 -262,10 -233,-19 -205,-47 -177,-75 -151,-99 -167,-82 -195,-54 -223,-26 -252,2 -280,31 -308,59 -323,74 -299,52 -270,24 -242,-5 -214,-33 -185,-61 -157,-90 -147,-97 -149,-95 -176,-69 -204,-40 -232,-12 -261,16 -289,45 -317,73 -321,77 -307,66 -279,37 -251,9 -222,-19 -194,-47 -166,-76 -143,-96 -156,-83 -184,-55 -213,-26 -241,2 -269,30 -298,58 -319,80 -316,79 -288,51 -260,23 -231,-5 -203,-34 -175,-62 -146,-90 -139,-95 -165,-69 -193,-41 -221,-12 -250,16 -278,44 -306,72 -317,83 -297,65 -268,37 -240,9 -212,-20 -183,-48 -155,-76 -135,-94 -145,-83 -174,-55 -202,-27 -230,1 -259,30 -287,58 -315,86 -305,79 -277,51 -249,22 -220,-6 -192,-34 -164,-62 -136,-91 -131,-93 -154,-70 -182,-41 -211,-13 -239,15 -267,44 -296,72 -313,89 -286,65 -257,36 -229,8 -201,-20 -173,-48 -144,-77 -127,-91 -135,-84 -163,-56 -191,-27 -219,1 -248,29 -276,57 -304,86 -311,92 -295,79 -266,50 -238,22 -210,-6 -181,-35 -153,-63 -123,-90 -143,-70 -172,-42 -200,-14 -228,15 -256,43 -285,71 -308,95 -303,92 -275,64 -247,36 -218,8 -190,-21 -162,-49 -134,-77 -119,-89 -124,-85 -152,-56 -180,-28 -209,0 -237,29 -265,57 -294,85 -306,97 -284,78 -255,50 -227,21 -199,-7 -171,-35 -142,-63 -115,-88 -133,-71 -161,-42 -189,-14 -217,14 -246,43 -274,71 -303,100 -292,92 -264,64 -236,35 -208,7 -179,-21 -151,-50 -123,-78 -111,-87 -141,-57 -170,-28 -198,0 -226,28 -254,56 -283,85 -301,103 -273,77 -245,49 -216,21 -188,-7 -160,-36 -132,-64 -107,-86 -122,-71 -150,-43 -178,-15 -207,14 -235,42 -263,70 -291,99 -298,105 -282,91 -253,63 -225,35 -197,6 -169,-22 -140,-50 -112,-78 -103,-85 -131,-57 -159,-29 -187,-1 -215,28 -244,56 -272,84 -295,107 -290,105 -262,77 -234,49 -206,20 -177,-8 -149,-36 -121,-64 -102,-80 -111,-72 -139,-43 -168,-15 -196,13 -224,41 -252,70 -281,98 -292,109 -271,91 -243,63 -214,34 -186,6 -158,-22 -129,-51 -103,-74 -120,-58 -148,-30 -176,-1 -205,27 -233,55 -261,84 -289,112 -280,105 -251,76 -223,48 -195,20 -167,-8 -138,-37 -110,-65 -104,-68 -128,-44 -157,-16 -185,13 -213,41 -242,69 -270,97 -286,114 -260,90 -232,62 -204,34 -175,5 -147,-23 -119,-51 -105,-63 -109,-58 -137,-30 -166,-2 -194,27 -222,55 -250,83 -279,111 -283,116 -269,104 -241,76 -212,48 -184,19 -156,-9 -127,-37 -105,-57 -118,-44 -146,-16 -174,12 -203,40 -231,69 -259,97 -280,117 -249,90 -221,61 -193,33 -165,5 -136,-23 -108,-52 -106,-51 -126,-31 -155,-2 -183,26 -211,54 -240,83 -268,111 -276,119 -258,104 -230,75 -202,47 -173,19 -145,-10 -117,-38 -107,-45 -135,-17 -163,12 -192,40 -220,68 -248,96 -273,121 -267,117 -239,89 -210,61 -182,33 -154,4 -125,-24 -108,-39 -116,-31 -144,-3 -172,25 -201,54 -229,82 -257,110 -269,122 -247,103 -219,75 -191,47 -162,18 -134,-10 -109,-32 -124,-17 -153,11 -181,39 -209,68 -238,96 -265,124 -256,117 -228,89 -200,60 -171,32 -143,4 -115,-24 -110,-26 -133,-3 -161,25 -190,53 -218,81 -246,110 -261,125 -237,103 -208,74 -180,46 -152,18 -123,-11 -111,-20 -114,-18 -142,11 -170,39 -198,67 -227,95 -255,124 -257,126 -245,116 -217,88 -189,60 -160,32 -132,3 -112,-14 -122,-4 -151,24 -179,53 -207,81 -236,109 -253,127 -226,102 -197,74 -169,45 -141,17 -113,-8 -131,10 -159,38 -188,67 -216,95 -244,123 -249,128 -235,116 -206,88 -178,59 -150,31 -121,3 -114,-2 -140,24 -168,52 -196,80 -225,109 -245,129 -215,101 -187,73 -158,45 -130,17 -114,4 -120,9 -149,38 -177,66 -205,94 -233,123 -240,129 -224,115 -195,87 -167,59 -139,31 -115,9 -129,23 -157,52 -186,80 -214,108 -235,129 -204,101 -176,73 -148,44 -119,16 -116,15 -138,37 -166,65 -194,94 -223,122 -230,129 -213,115 -185,87 -156,58 -128,30 -117,21 -147,51 -175,79 -203,108 -225,130 -193,100 -165,72 -137,44 -118,28 -127,37 -155,65 -184,93 -212,122 -219,129 -202,114 -174,86 -146,58 -121,35 -136,51 -164,79 -192,107 -213,128 -183,100 -154,72 -126,43 -123,43 -145,64 -173,93 -201,121 -207,127 -191,114 -163,85 -135,57 -125,48 -128,53 -153,78 -182,107 -199,124 -172,99 -144,71 -130,57 -132,62 -162,92 -191,121 -181,113 -152,85 -134,67 -137,72 -143,78 -171,106 -183,118 -177,115 -161,99 -139,77 -142,83 -151,92 -170,111 -158,101 -149,92 -151,94 -158,101 -156,99 -158,101" /><polyline class="right-eye" stroke="red" points="124,-22 121,-24 124,-22 119,-25 136,-18 154,-13 172,-17 187,-28 193,-45 193,-64 187,-81 177,-97 195,-96 214,-96 233,-97 252,-96 271,-95 290,-93 308,-89 327,-84 343,-74 342,-55 340,-35 338,-16 334,3 332,22 328,41 321,58 311,75 297,88 282,100 266,111 248,117 228,119 209,116 191,109 175,99 162,85 151,69 142,52 134,35 129,16 125,-3 124,-22 132,-4 139,13 147,31 154,48 162,66 169,83 177,101 177,101 166,90 163,87 166,90 177,101 195,109 213,117 196,100 168,72 140,44 136,40 132,26 128,12 141,25 169,53 198,82 226,110 235,119 252,116 228,91 199,63 171,35 143,7 124,-12 124,-22 119,-25 124,-22 139,-13 155,-5 170,4 186,13 201,21 216,30 232,39 239,22 246,5 253,-12 266,-24 282,-34 297,-44 312,-54 328,-64 343,-74 342,-55 333,-64 308,-89 296,-91 283,-94 303,-74 331,-46 340,-36 338,-19 329,-27 301,-56 273,-84 261,-96 250,-97 240,-97 243,-94 271,-65 300,-37 328,-9 335,-2 333,16 326,10 298,-19 270,-47 241,-75 220,-97 201,-96 212,-85 240,-57 268,-28 297,0 325,28 330,33 325,48 323,46 295,18 267,-10 238,-38 210,-66 182,-94 177,-97 193,-64 209,-48 237,-20 265,9 293,37 319,62 312,75 292,55 264,27 235,-1 207,-29 193,-43 188,-29 205,-11 234,17 262,46 290,74 301,85 290,94 261,64 232,36 204,8 177,-19 162,-14 174,-2 202,26 231,54 259,83 279,102 267,110 257,101 229,73 201,45 173,16 144,-12 140,-17 122,-24 124,-22 114,-39 115,-39 114,-38 118,-37 113,-32 122,-36 113,-27 126,-35 113,-21 123,-30 129,-33 113,-17 133,-31 124,-23 113,-12 136,-30 114,-7 126,-16 140,-28 135,-23 114,-3 144,-27 127,-10 115,2 136,-17 148,-26 116,6 128,-3 152,-25 137,-10 117,11 147,-17 157,-24 129,4 118,15 138,-3 162,-24 148,-11 118,19 130,11 158,-18 169,-26 139,3 119,23 120,25 149,-4 172,-27 180,-33 189,-47 188,-63 184,-78 175,-92 161,-98 165,-99 162,-96 172,-102 164,-93 180,-104 166,-90 178,-100 186,-105 169,-88 192,-106 179,-93 171,-85 189,-100 198,-107 173,-82 180,-86 203,-107 190,-93 175,-79 200,-101 209,-107 181,-79 177,-75 191,-87 214,-107 201,-94 178,-72 182,-73 210,-101 219,-107 192,-80 180,-68 202,-87 224,-107 211,-94 181,-64 193,-73 221,-102 230,-108 203,-80 182,-60 212,-88 235,-108 222,-95 194,-67 183,-56 204,-74 232,-102 240,-108 213,-81 184,-51 195,-60 223,-88 245,-107 233,-95 205,-67 183,-46 186,-46 214,-74 243,-103 250,-107 224,-82 196,-53 182,-40 180,-35 206,-60 234,-89 255,-107 244,-96 216,-68 187,-39 159,-11 131,17 121,27 140,10 169,-18 197,-47 225,-75 254,-103 260,-107 235,-82 207,-54 179,-25 150,3 122,31 132,24 160,-4 188,-33 217,-61 245,-89 265,-107 255,-96 226,-68 198,-40 170,-12 141,17 123,35 151,10 180,-19 208,-47 236,-75 264,-104 270,-107 246,-83 218,-54 189,-26 161,2 133,31 124,39 143,23 171,-5 199,-33 227,-61 256,-90 274,-106 265,-97 237,-69 209,-40 181,-12 152,16 126,43 134,37 162,9 190,-19 219,-48 247,-76 279,-105 257,-83 228,-55 200,-26 172,2 144,30 127,47 153,23 182,-5 210,-34 238,-62 266,-90 284,-105 276,-97 248,-69 220,-41 191,-13 163,16 135,44 128,50 145,37 173,8 201,-20 229,-48 258,-76 288,-104 267,-84 239,-55 211,-27 183,1 154,30 130,54 136,51 164,22 192,-6 221,-34 249,-62 277,-91 293,-104 287,-98 259,-70 230,-41 202,-13 174,15 146,43 132,57 155,36 184,8 212,-20 240,-49 269,-77 297,-103 278,-84 250,-56 222,-28 193,1 165,29 137,57 133,61 147,50 175,22 203,-6 231,-35 260,-63 288,-91 301,-102 298,-98 270,-70 241,-42 213,-14 185,15 156,43 135,64 166,36 194,7 223,-21 251,-49 279,-77 306,-101 289,-85 261,-56 233,-28 204,0 176,29 148,57 137,68 157,50 186,21 214,-7 242,-35 271,-64 299,-92 310,-100 280,-71 252,-42 224,-14 195,14 167,42 138,71 149,64 177,35 205,7 234,-21 262,-50 290,-78 314,-99 300,-85 272,-57 243,-29 215,0 187,28 158,56 140,75 168,49 197,21 225,-7 253,-36 281,-64 310,-92 318,-98 291,-71 263,-43 235,-15 206,14 178,42 150,70 142,78 159,63 188,35 216,6 244,-22 273,-50 301,-78 322,-97 311,-86 282,-57 254,-29 226,-1 198,28 169,56 144,81 151,77 179,49 207,20 236,-8 264,-36 292,-65 320,-93 326,-96 302,-72 274,-43 245,-15 217,13 189,41 161,70 146,84 170,62 199,34 227,6 255,-22 283,-51 312,-79 330,-94 321,-86 293,-58 265,-30 237,-1 208,27 180,55 152,84 149,87 162,76 190,48 218,20 246,-8 275,-37 303,-65 333,-93 313,-72 284,-44 256,-16 228,13 200,41 171,69 151,90 181,62 209,34 238,5 266,-23 294,-51 323,-79 337,-91 332,-87 304,-58 276,-30 247,-2 219,27 191,55 163,83 153,93 172,76 201,48 229,19 257,-9 285,-37 314,-66 341,-90 324,-73 295,-44 267,-16 239,12 210,40 182,69 155,96 164,90 192,61 220,33 248,5 277,-23 305,-52 333,-80 344,-88 342,-86 315,-59 287,-31 258,-2 230,26 202,54 173,83 158,98 183,75 211,47 240,19 268,-9 296,-38 325,-66 347,-86 334,-73 306,-45 278,-17 249,12 221,40 193,68 165,96 160,101 174,89 203,61 231,33 259,4 288,-24 316,-52 344,-80 350,-84 326,-59 297,-31 269,-3 241,25 212,54 184,82 163,103 194,75 222,47 251,18 279,-10 307,-38 335,-67 353,-82 345,-74 317,-45 289,-17 260,11 232,39 204,68 175,96 166,106 185,89 213,60 242,32 270,4 298,-24 327,-53 355,-78 336,-60 308,-32 280,-3 252,25 223,53 195,82 168,108 176,103 205,74 233,46 261,18 290,-11 318,-39 346,-67 354,-73 328,-46 299,-18 271,11 243,39 215,67 186,95 171,111 196,88 224,60 253,32 281,3 309,-25 337,-53 354,-67 347,-60 319,-32 291,-4 262,24 234,53 206,81 178,109 174,113 187,102 216,74 244,46 272,17 300,-11 329,-39 354,-62 338,-47 310,-18 282,10 254,38 225,67 197,95 177,115 207,88 235,59 263,31 292,3 320,-25 348,-54 353,-56 330,-33 301,-4 273,24 245,52 217,81 188,109 180,117 198,102 226,73 255,45 283,17 311,-12 339,-40 353,-50 349,-47 321,-19 293,10 264,38 236,66 208,94 183,119 189,115 218,87 246,59 274,31 302,2 331,-26 352,-45 341,-33 312,-5 284,23 256,52 227,80 199,108 187,121 209,101 237,73 265,45 294,16 322,-12 352,-39 332,-19 303,9 275,37 247,66 219,94 190,122 200,115 228,87 257,58 285,30 313,2 342,-26 351,-33 323,-5 295,23 266,51 238,79 210,108 194,124 220,101 248,72 276,44 305,16 333,-13 351,-28 343,-20 314,9 286,37 258,65 229,93 201,122 198,125 211,114 239,86 268,58 296,30 324,1 350,-22 334,-6 306,22 277,51 249,79 221,107 202,126 230,100 259,72 287,43 315,15 344,-13 349,-16 325,8 297,36 269,65 240,93 212,121 206,128 222,114 250,86 278,57 307,29 335,1 348,-9 345,-6 316,22 288,50 260,78 232,107 210,129 241,100 270,71 298,43 326,15 347,-3 336,7 308,36 279,64 251,92 223,121 214,129 233,113 261,85 289,57 317,29 345,3 327,21 299,50 271,78 242,106 219,130 224,127 252,99 280,71 309,42 337,14 345,9 318,35 290,64 262,92 234,120 223,131 243,113 272,85 300,56 328,28 344,14 338,21 310,49 281,77 253,106 228,131 235,127 263,99 291,70 319,42 344,20 329,35 301,63 273,91 244,120 233,131 254,112 282,84 311,56 339,28 343,26 320,49 292,77 264,105 239,130 245,126 274,98 302,70 330,41 342,33 312,63 283,91 255,119 245,129 265,112 293,84 322,55 340,39 331,48 303,76 275,105 251,128 284,97 313,69 338,47 323,62 294,90 266,119 260,124 276,111 304,83 332,55 334,56 314,76 286,104 270,120 277,115 295,97 324,69 332,60 329,66 305,90 285,110 294,103 303,96 311,89 308,92 308,92 306,94 320,80 325,73 315,83 293,105 294,103 293,105 294,103" /><polyline  stroke="white" points="-332,-54 -331,-57 -332,-54 -323,-71 -307,-80 -290,-74 -280,-58 -288,-40 -295,-34 -304,-32 -321,-39 -332,-54 -315,-55 -297,-56 -280,-57 -287,-46 -293,-35 -293,-76 -306,-80 -306,-65 -306,-31 -319,-37 -319,-53 -319,-74 -325,-64 -332,-54 -338,-44 -325,-59 -313,-74 -300,-90 -300,-90 -297,-90 -311,-90 -318,-88 -296,-88 -286,-86 -322,-86 -312,-84 -281,-82 -300,-82 -328,-82 -288,-80 -277,-78 -316,-78 -332,-78 -304,-76 -274,-74 -292,-74 -332,-74 -336,-74 -320,-72 -280,-72 -271,-70 -308,-70 -339,-70 -336,-68 -296,-68 -270,-66 -284,-66 -324,-66 -340,-66 -312,-64 -272,-64 -268,-62 -300,-62 -341,-62 -328,-60 -288,-60 -268,-58 -276,-58 -316,-58 -342,-58 -304,-55 -267,-53 -292,-53 -332,-53 -342,-53 -320,-51 -280,-51 -268,-49 -308,-49 -342,-49 -336,-47 -296,-47 -270,-45 -284,-45 -324,-45 -341,-45 -312,-43 -272,-41 -300,-41 -339,-41 -328,-39 -288,-39 -274,-37 -316,-37 -336,-37 -304,-35 -277,-33 -292,-33 -333,-33 -320,-31 -281,-29 -308,-29 -329,-29 -296,-27 -287,-25 -323,-25 -318,-23 -312,-23 -290,-23 -301,-21 -302,-21 -301,-21 -302,-21 -301,-21" /><polyline  stroke="white" points="130,-54 131,-57 130,-54 137,-71 152,-80 161,-80 169,-75 178,-60 172,-43 158,-34 149,-35 141,-40 130,-54 146,-55 163,-57 179,-58 179,-58 171,-69 163,-80 163,-65 163,-35 146,-36 146,-53 146,-77 138,-66 130,-54 122,-53 134,-65 147,-77 160,-90 160,-90 163,-90 149,-90 142,-88 145,-88 174,-86 156,-86 138,-86 168,-84 179,-82 140,-82 133,-82 152,-80 183,-78 164,-78 128,-78 136,-76 176,-76 186,-74 148,-74 125,-74 160,-72 188,-70 172,-70 132,-70 122,-70 144,-68 184,-68 190,-66 156,-66 121,-66 128,-64 168,-64 191,-62 180,-62 140,-62 119,-62 152,-60 191,-58 164,-58 124,-58 119,-58 136,-55 176,-55 192,-53 188,-53 148,-53 119,-53 160,-51 190,-49 172,-49 132,-49 119,-49 144,-47 184,-47 188,-45 156,-45 120,-45 128,-43 168,-43 187,-41 180,-41 140,-41 123,-41 152,-39 185,-37 164,-37 125,-37 136,-35 176,-35 181,-33 148,-33 129,-33 160,-31 177,-29 172,-29 134,-29 144,-27 170,-25 156,-25 142,-25 155,-23 158,-23 155,-23" /><polyline class="left-outline"  points="-308,-102 -308,-102 -307,-97 -328,-91 -343,-77 -357,-76 -349,-59 -341,-41 -332,-24 -352,-33 -350,-15 -348,4 -343,22 -338,39 -333,57 -324,74 -316,90 -295,109 -276,120 -257,131 -233,136 -211,135 -193,127 -175,118 -160,107 -145,96 -137,82 -128,68 -123,53 -118,37 -112,21 -109,2 -107,-16 -104,-34 -101,-53 -99,-72 -112,-74 -112,-74 -116,-78 -94,-76 -116,-75 -94,-71 -117,-71 -95,-67 -117,-67 -95,-62 -118,-63 -95,-58 -118,-58 -96,-54 -119,-54 -96,-49 -119,-50 -97,-45 -120,-45 -98,-40 -120,-41 -98,-36 -121,-37 -99,-32 -121,-32 -100,-27 -122,-28 -100,-23 -122,-24 -101,-18 -123,-19 -102,-14 -123,-15 -102,-10 -124,-11 -103,-5 -124,-7 -104,-1 -125,-2 -104,4 -125,2 -105,8 -126,6 -106,12 -127,10 -107,17 -129,14 -107,21 -130,18 -108,25 -131,21 -110,30 -132,25 -111,34 -134,30 -113,38 -135,34 -114,42 -136,38 -115,47 -137,41 -117,51 -138,45 -118,55 -140,49 -120,59 -141,53 -121,63 -142,57 -122,68 -143,60 -124,72 -145,64 -127,75 -147,67 -129,79 -149,70 -132,83 -151,73 -134,87 -152,76 -136,90 -154,79 -139,94 -156,82 -141,98 -159,84 -144,101 -162,87 -148,104 -165,89 -151,107 -168,91 -155,109 -171,93 -158,112 -174,95 -162,115 -177,97 -166,117 -180,100 -169,120 -183,102 -173,123 -186,104 -177,125 -190,107 -181,126 -193,108 -185,128 -196,110 -189,130 -199,111 -193,132 -203,113 -197,134 -206,114 -201,136 -209,116 -205,138 -212,117 -209,139 -216,117 -214,140 -219,117 -218,140 -223,117 -223,140 -226,117 -227,140 -229,117 -232,141 -232,117 -236,140 -235,117 -240,139 -239,117 -245,139 -242,117 -249,138 -245,116 -253,137 -249,114 -258,136 -252,113 -262,134 -255,111 -266,132 -258,109 -270,130 -261,108 -273,128 -265,106 -277,125 -268,104 -281,123 -271,103 -285,121 -275,101 -289,119 -278,99 -293,116 -282,97 -297,114 -285,95 -300,111 -287,92 -303,108 -290,90 -307,105 -292,87 -310,102 -295,85 -313,99 -297,82 -316,96 -300,80 -319,93 -302,77 -322,89 -305,75 -324,85 -307,71 -326,81 -308,68 -328,77 -310,65 -330,73 -311,61 -332,69 -313,58 -334,66 -314,54 -336,62 -316,51 -338,58 -317,47 -339,53 -319,44 -341,49 -320,40 -342,45 -322,36 -343,40 -323,32 -344,36 -324,28 -345,32 -325,24 -346,27 -325,20 -348,23 -326,16 -349,19 -327,12 -350,15 -328,8 -351,10 -329,4 -352,6 -330,0 -353,2 -331,-4 -353,-3 -332,-7 -354,-7 -332,-11 -354,-12 -333,-14 -355,-16 -334,-19 -355,-21 -333,-23 -356,-25 -331,-27 -356,-29 -330,-31 -357,-34 -328,-35 -357,-38 -326,-39 -358,-43 -325,-43 -358,-47 -326,-46 -359,-52 -326,-49 -360,-57 -327,-52 -360,-61 -328,-56 -361,-66 -328,-59 -361,-71 -329,-61 -361,-76 -328,-63 -358,-79 -328,-65 -351,-79 -327,-66 -346,-81 -325,-68 -342,-84 -324,-70 -339,-88 -323,-72 -336,-91 -322,-74 -333,-94 -320,-75 -329,-96 -317,-76 -325,-98 -315,-77 -320,-99 -313,-78 -316,-100 -311,-79 -312,-102 -308,-79 -308,-79 -308,-102 -307,-97 -284,-91 -268,-72 -266,-54 -272,-35 -289,-19 -307,-15 -316,-17 -332,-24 -334,-19 -325,-42 -332,-18 -321,-40 -327,-17 -318,-38 -323,-15 -316,-36 -319,-13 -313,-34 -315,-12 -311,-34 -311,-11 -308,-34 -306,-11 -306,-34 -302,-11 -303,-35 -297,-12 -301,-35 -293,-13 -299,-35 -289,-14 -297,-36 -285,-16 -295,-37 -281,-19 -293,-39 -278,-22 -292,-40 -275,-25 -290,-42 -271,-28 -288,-43 -268,-31 -287,-44 -267,-35 -286,-47 -265,-39 -286,-49 -264,-44 -285,-51 -263,-48 -285,-53 -261,-52 -284,-55 -261,-57 -284,-57 -262,-61 -284,-60 -263,-66 -285,-62 -263,-70 -286,-64 -265,-74 -287,-66 -267,-78 -287,-68 -270,-81 -288,-70 -273,-85 -290,-72 -276,-88 -292,-73 -278,-92 -294,-74 -282,-95 -296,-75 -286,-96 -298,-76 -290,-98 -300,-77 -295,-99 -302,-78 -299,-100 -304,-79 -303,-101 -306,-79 -308,-102 -307,-109 -307,-109 -306,-104 -330,-98 -347,-91 -364,-84 -381,-78 -396,-69 -391,-41 -376,-20 -365,-13 -368,-10 -366,-17 -372,-13 -367,-19 -377,-15 -368,-24 -380,-18 -369,-28 -383,-22 -370,-31 -386,-25 -371,-35 -389,-29 -372,-38 -391,-33 -373,-42 -394,-37 -374,-45 -396,-41 -374,-48 -397,-45 -375,-50 -397,-49 -374,-52 -398,-54 -374,-54 -399,-58 -374,-55 -399,-63 -374,-57 -400,-68 -374,-58 -398,-72 -373,-59 -394,-75 -373,-61 -391,-78 -372,-62 -387,-80 -370,-63 -383,-82 -367,-63 -379,-84 -365,-64 -374,-86 -362,-65 -370,-87 -359,-66 -366,-89 -355,-67 -362,-90 -351,-68 -358,-92 -347,-71 -354,-94 -343,-73 -350,-95 -339,-75 -346,-97 -336,-78 -341,-99 -332,-79 -337,-100 -328,-80 -333,-102 -324,-81 -329,-103 -321,-82 -325,-104 -317,-83 -320,-105 -313,-84 -316,-106 -308,-85 -312,-107 -304,-86 -307,-109 -300,-87 -303,-110 -296,-88 -299,-110 -291,-89 -294,-111 -287,-90 -290,-112 -283,-91 -286,-113 -279,-92 -281,-114 -275,-93 -277,-115 -271,-94 -273,-116 -267,-95 -268,-117 -263,-96 -264,-117 -259,-96 -259,-118 -255,-96 -255,-118 -251,-96 -251,-118 -247,-96 -246,-118 -243,-96 -242,-119 -239,-96 -237,-119 -234,-97 -233,-119 -230,-97 -228,-119 -226,-97 -224,-120 -222,-97 -219,-119 -218,-97 -215,-119 -214,-97 -211,-118 -210,-97 -206,-118 -206,-96 -202,-117 -202,-96 -197,-116 -198,-95 -193,-116 -194,-94 -189,-115 -190,-93 -184,-115 -186,-93 -180,-114 -181,-92 -175,-113 -177,-91 -171,-113 -173,-90 -167,-112 -169,-90 -162,-111 -165,-89 -158,-110 -161,-88 -154,-109 -157,-87 -149,-108 -153,-87 -145,-106 -149,-86 -141,-105 -145,-85 -137,-104 -141,-83 -132,-102 -137,-81 -128,-101 -133,-80 -124,-100 -129,-78 -120,-99 -126,-77 -115,-97 -122,-75 -111,-96 -118,-73 -107,-95 -114,-72 -103,-93 -110,-70 -99,-91 -106,-67 -95,-89 -103,-65 -91,-87 -99,-64 -87,-85 -94,-63 -83,-83 -90,-62 -79,-81 -85,-62 -85,-62 -76,-79 -77,-74 -61,-62 -61,-62 -62,-65 -61,-58 -63,-67 -67,-59 -66,-69 -72,-60 -69,-72 -76,-60 -72,-75 -81,-61 -76,-79 -77,-76 -76,-79" /><polyline class="right-outline"  points="147,-102 147,-102 147,-97 130,-91 116,-77 107,-76 114,-59 120,-41 126,-24 107,-33 109,-14 111,4 116,22 121,39 126,57 139,83 151,96 164,109 183,120 202,131 226,136 247,135 266,127 284,118 299,107 314,96 322,82 331,68 336,53 341,37 347,21 350,2 352,-16 355,-34 358,-53 360,-72 347,-74 347,-74 343,-78 365,-76 343,-75 365,-71 342,-71 364,-67 342,-67 364,-62 341,-63 364,-58 341,-58 363,-54 340,-54 363,-49 340,-50 362,-45 339,-45 361,-40 339,-41 361,-36 338,-37 360,-32 338,-32 359,-27 337,-28 359,-23 337,-24 358,-18 336,-19 357,-14 336,-15 357,-10 335,-11 356,-5 335,-7 355,-1 334,-2 355,4 334,2 354,8 333,6 353,12 332,10 352,17 330,14 352,21 329,18 351,25 328,21 349,30 327,25 348,34 325,29 346,38 324,34 345,42 323,38 344,47 322,41 342,51 321,45 341,55 319,49 339,59 318,53 338,63 317,57 337,68 316,60 335,72 314,64 332,75 312,67 330,79 310,70 327,83 308,73 325,87 306,76 323,90 305,79 320,94 303,82 318,98 300,84 315,101 297,87 311,104 294,89 308,107 291,91 304,109 288,93 301,112 285,95 297,115 282,97 293,117 279,99 290,120 276,102 286,123 273,104 282,125 269,106 278,126 266,108 274,128 262,110 270,130 259,111 266,132 256,112 262,134 253,114 258,136 250,115 254,138 246,116 250,139 243,118 245,140 240,118 241,140 236,118 236,140 233,117 232,140 230,117 227,141 227,117 223,140 224,117 219,139 220,117 214,139 217,117 210,138 214,116 206,137 210,115 201,136 207,113 197,134 204,111 193,132 201,110 189,130 198,108 186,128 194,106 182,125 191,105 178,123 188,103 174,121 184,101 170,119 181,99 166,116 178,97 162,114 174,95 159,111 172,92 156,108 169,89 153,105 167,87 150,102 164,85 146,99 162,82 143,95 159,80 140,92 157,77 137,89 154,74 134,85 152,71 132,81 151,68 130,77 149,64 128,74 148,61 126,70 146,58 124,66 145,55 122,62 143,51 121,57 142,47 120,53 140,44 118,49 139,40 117,45 137,36 116,40 136,32 115,36 135,28 114,32 134,24 113,27 133,20 111,23 133,16 110,19 132,12 109,15 131,8 108,10 130,4 107,6 129,0 106,2 128,-4 106,-3 127,-7 105,-7 127,-11 105,-12 126,-15 104,-16 125,-19 104,-21 126,-23 103,-25 126,-27 103,-29 127,-31 102,-34 128,-34 102,-38 129,-38 101,-43 129,-42 100,-48 130,-46 100,-52 130,-50 99,-57 130,-53 99,-61 130,-56 98,-66 130,-59 98,-71 130,-61 98,-76 130,-63 102,-79 130,-65 108,-80 131,-67 113,-82 133,-68 116,-85 134,-70 120,-88 136,-71 123,-91 138,-73 126,-94 139,-75 130,-96 141,-77 134,-98 143,-78 138,-99 146,-79 143,-101 148,-79 148,-79 147,-102 147,-97 173,-91 183,-84 189,-73 192,-60 187,-35 171,-20 160,-17 143,-17 126,-24 126,-24 125,-19 130,-47 126,-19 134,-43 128,-18 137,-40 131,-16 140,-37 135,-15 143,-35 139,-13 145,-35 144,-12 148,-35 148,-12 150,-35 152,-12 153,-35 157,-12 155,-35 161,-12 157,-35 165,-13 160,-35 169,-14 161,-36 173,-16 163,-37 177,-19 165,-39 180,-22 166,-40 183,-25 168,-41 187,-28 170,-43 190,-31 171,-45 192,-35 171,-47 193,-39 172,-49 194,-44 172,-52 195,-48 172,-54 196,-53 173,-56 197,-57 173,-58 197,-61 174,-60 196,-66 174,-62 195,-70 173,-64 194,-74 172,-66 192,-78 170,-68 189,-82 169,-70 187,-86 168,-72 184,-89 167,-73 181,-92 165,-75 177,-94 163,-76 173,-96 161,-76 169,-98 159,-77 164,-99 157,-78 160,-100 155,-78 156,-101 153,-79 151,-102 151,-80 147,-102 148,-99 147,-102 308,-109 307,-106 308,-109 307,-104 324,-99 342,-93 362,-86 382,-78 397,-69 392,-41 380,-25 380,-25 368,-9 366,-15 371,-12 367,-18 376,-14 368,-21 380,-17 369,-26 383,-20 370,-30 386,-24 371,-33 388,-27 372,-37 391,-31 373,-40 394,-35 374,-43 396,-38 375,-46 397,-43 375,-49 398,-47 375,-51 399,-52 375,-53 399,-56 375,-55 400,-61 375,-56 401,-66 375,-57 401,-71 375,-59 397,-74 374,-60 393,-76 373,-62 390,-79 372,-63 386,-81 370,-63 382,-83 367,-64 378,-85 365,-64 373,-86 362,-65 369,-88 358,-66 365,-90 354,-68 361,-91 350,-70 357,-93 346,-72 353,-94 342,-74 349,-96 338,-77 345,-98 335,-78 340,-99 331,-79 336,-101 327,-80 332,-103 323,-81 328,-104 320,-82 324,-105 316,-83 319,-106 312,-84 315,-107 307,-85 311,-108 303,-86 306,-109 299,-87 302,-110 295,-89 297,-111 290,-90 293,-112 286,-91 289,-113 282,-92 284,-114 278,-93 280,-114 274,-94 276,-115 270,-95 271,-116 266,-96 267,-117 262,-96 263,-117 258,-96 258,-118 254,-96 254,-118 250,-96 249,-118 246,-96 245,-118 242,-96 240,-119 238,-97 236,-119 233,-97 232,-119 229,-97 227,-120 225,-97 223,-120 221,-97 218,-119 217,-97 214,-119 213,-97 209,-118 209,-97 205,-117 205,-96 201,-117 201,-95 196,-116 197,-94 192,-116 193,-94 187,-115 189,-93 183,-114 184,-92 179,-114 180,-91 174,-113 176,-91 170,-113 172,-90 165,-112 168,-89 161,-111 164,-88 157,-109 160,-88 153,-108 156,-87 148,-107 152,-86 144,-106 148,-85 140,-104 144,-84 135,-103 140,-82 131,-102 136,-81 127,-101 132,-79 123,-99 129,-77 118,-98 125,-76 114,-97 121,-74 110,-96 117,-73 106,-94 113,-71 102,-92 109,-68 98,-90 105,-66 94,-88 102,-64 90,-86 97,-63 86,-84 93,-63 82,-82 88,-62 78,-80 80,-75 62,-62 62,-62 62,-58 63,-65 65,-59 65,-68 71,-60 68,-71 75,-60 71,-74 79,-61 75,-77 84,-61 84,-61 78,-80 79,-77 78,-80" /><polyline   points="-181,-141 -178,-141 -181,-141 -161,-140 -142,-136 -124,-130 -106,-121 -124,-130 -106,-121 -124,-130 -142,-136 -124,-130 -142,-136 -161,-140 -142,-136 -161,-140 -181,-141 -161,-140 -181,-141 -178,-141 -181,-141" /><polyline   points="109,-119 112,-120 109,-119 127,-128 145,-134 164,-138 184,-139 164,-138 184,-139 164,-138 145,-134 164,-138 145,-134 127,-128 145,-134 127,-128 109,-119 127,-128 109,-119 112,-120 109,-119" /></svg>