<svg viewBox="-425 -150 850 300" fill="none" stroke="black" stroke-width="4"><polyline class="left-eye" stroke="red" points="-281,-90 -278,-90 -281,-90 -261,-90 -242,-89 -222,-89 -203,-89 -183,-89 -164,-88 -144,-88 -125,-88 -123,-69 -123,-49 -125,-30 -127,-11 -132,8 -136,27 -142,45 -152,63 -163,78 -179,90 -195,100 -214,106 -233,108 -252,106 -271,101 -288,93 -303,80 -315,65 -325,48 -333,31 -337,12 -339,-8 -341,-27 -324,-19 -305,-14 -290,-24 -277,-38 -272,-55 -274,-74 -282,-91 -281,-90 -272,-74 -264,-58 -255,-43 -246,-27 -238,-11 -229,5 -220,21 -235,29 -250,37 -264,47 -276,60 -287,72 -299,85 -299,85 -308,68 -318,52 -327,35 -336,19 -314,41 -286,69 -258,97 -249,106 -234,107 -219,107 -223,103 -252,75 -280,46 -308,18 -337,-10 -339,-13 -341,-27 -313,-16 -302,-5 -274,23 -246,52 -217,80 -197,101 -188,95 -179,90 -183,85 -211,57 -240,29 -268,0 -291,-23 -284,-30 -277,-38 -262,-23 -234,6 -205,34 -177,62 -162,77 -156,69 -150,60 -171,39 -199,11 -228,-17 -256,-46 -272,-62 -274,-77 -282,-91 -281,-90 -265,-84 -248,-79 -232,-73 -215,-67 -199,-62 -182,-56 -166,-51 -152,-63 -139,-76 -125,-88 -124,-72 -122,-56 -141,-75 -154,-88 -169,-89 -184,-89 -176,-81 -147,-52 -125,-30 -127,-17 -129,-5 -153,-30 -182,-58 -210,-86 -213,-89 -228,-89 -242,-90 -216,-63 -188,-35 -159,-7 -134,19 -137,30 -140,41 -165,16 -194,-12 -222,-40 -250,-68 -271,-90 -281,-90 -301,-100 -298,-100 -301,-97 -292,-100 -298,-94 -285,-100 -295,-90 -279,-100 -292,-87 -285,-91 -273,-100 -289,-84 -267,-100 -283,-84 -287,-79 -273,-90 -261,-100 -263,-97 -285,-75 -281,-76 -254,-100 -271,-83 -283,-70 -261,-90 -248,-99 -251,-97 -279,-68 -282,-65 -269,-75 -242,-99 -259,-82 -282,-60 -277,-61 -249,-89 -236,-99 -239,-96 -267,-68 -282,-53 -257,-75 -229,-99 -247,-82 -275,-53 -285,-43 -290,-36 -301,-26 -312,-16 -324,-5 -335,-16 -345,-30 -354,-44 -350,-42 -353,-38 -345,-40 -352,-33 -341,-38 -352,-27 -341,-35 -337,-36 -351,-22 -333,-33 -339,-27 -350,-16 -330,-30 -349,-11 -338,-19 -326,-28 -328,-26 -349,-5 -346,-5 -321,-27 -336,-12 -348,0 -326,-19 -315,-26 -344,3 -347,6 -334,-4 -309,-26 -324,-11 -347,12 -342,10 -314,-18 -300,-28 -304,-25 -332,3 -346,17 -346,20 -322,-4 -294,-32 -265,-60 -237,-89 -226,-99 -227,-95 -255,-67 -284,-39 -312,-11 -340,18 -345,26 -330,11 -302,-18 -273,-46 -245,-74 -220,-99 -235,-81 -263,-53 -292,-24 -320,4 -344,31 -338,25 -310,-3 -282,-31 -253,-60 -225,-88 -214,-99 -215,-95 -243,-67 -272,-38 -300,-10 -328,18 -342,35 -318,11 -290,-17 -262,-45 -233,-73 -208,-99 -223,-80 -251,-52 -280,-24 -308,4 -336,33 -340,40 -326,26 -298,-2 -270,-31 -241,-59 -213,-87 -201,-99 -203,-94 -231,-66 -260,-38 -288,-9 -316,19 -338,44 -334,40 -306,12 -278,-16 -250,-45 -221,-73 -195,-99 -211,-80 -240,-51 -268,-23 -296,5 -324,33 -336,48 -314,26 -286,-2 -258,-30 -229,-58 -201,-87 -189,-99 -191,-94 -219,-65 -248,-37 -276,-9 -304,20 -333,48 -334,52 -322,41 -294,13 -266,-16 -238,-44 -209,-72 -183,-99 -199,-79 -228,-51 -256,-23 -284,6 -312,34 -332,56 -302,27 -274,-1 -246,-29 -218,-58 -189,-86 -177,-99 -179,-93 -207,-65 -236,-36 -264,-8 -292,20 -321,48 -329,60 -311,42 -282,13 -254,-15 -226,-43 -197,-72 -170,-99 -187,-79 -216,-50 -244,-22 -272,6 -300,35 -327,64 -319,56 -290,28 -262,-1 -234,-29 -206,-57 -177,-85 -164,-99 -167,-92 -196,-64 -224,-36 -252,-7 -280,21 -309,49 -325,68 -299,42 -270,14 -242,-14 -214,-43 -185,-71 -158,-98 -175,-78 -204,-50 -232,-21 -260,7 -289,35 -317,64 -322,72 -307,57 -278,28 -250,0 -222,-28 -194,-57 -165,-85 -152,-98 -155,-92 -184,-63 -212,-35 -240,-7 -268,21 -297,50 -320,76 -315,71 -287,43 -258,15 -230,-14 -202,-42 -174,-70 -146,-98 -163,-77 -192,-49 -220,-21 -248,8 -277,36 -305,64 -317,79 -295,57 -267,29 -238,1 -210,-28 -182,-56 -153,-84 -139,-98 -143,-91 -172,-63 -200,-35 -228,-6 -256,22 -285,50 -313,79 -314,83 -303,72 -275,43 -246,15 -218,-13 -190,-41 -162,-70 -133,-98 -152,-77 -180,-48 -208,-20 -236,8 -265,37 -293,65 -311,86 -283,58 -255,30 -226,1 -198,-27 -170,-55 -141,-84 -127,-98 -131,-90 -160,-62 -188,-34 -216,-6 -245,23 -273,51 -301,79 -308,89 -291,72 -263,44 -234,16 -206,-13 -178,-41 -150,-69 -121,-98 -140,-76 -168,-48 -196,-19 -224,9 -253,37 -281,65 -305,93 -299,87 -271,59 -243,30 -214,2 -186,-26 -158,-55 -130,-83 -114,-98 -115,-97 -113,-98 -115,-97 -115,-95 -119,-90 -148,-62 -176,-33 -204,-5 -233,23 -261,52 -289,80 -303,94 -279,73 -251,45 -223,16 -194,-12 -166,-40 -138,-68 -114,-89 -128,-75 -156,-47 -184,-19 -212,9 -241,38 -269,66 -297,94 -300,97 -287,87 -259,59 -231,31 -202,3 -174,-26 -146,-54 -118,-82 -114,-83 -136,-61 -164,-33 -192,-4 -221,24 -249,52 -277,81 -296,99 -267,74 -239,45 -211,17 -182,-11 -154,-40 -126,-68 -113,-77 -116,-75 -144,-46 -172,-18 -201,10 -229,38 -257,67 -285,95 -293,102 -275,88 -247,60 -219,31 -190,3 -162,-25 -134,-53 -113,-71 -124,-60 -152,-32 -180,-4 -209,25 -237,53 -265,81 -289,105 -284,103 -255,74 -227,46 -199,18 -170,-11 -142,-39 -112,-65 -132,-46 -160,-18 -189,11 -217,39 -245,67 -273,96 -285,107 -263,89 -235,60 -207,32 -179,4 -150,-24 -122,-53 -112,-59 -140,-31 -168,-3 -197,25 -225,53 -253,82 -280,109 -272,103 -243,75 -215,47 -187,18 -158,-10 -130,-38 -112,-53 -120,-45 -148,-17 -177,11 -205,40 -233,68 -262,96 -276,110 -251,89 -223,61 -195,33 -167,4 -138,-24 -113,-46 -128,-31 -157,-2 -185,26 -213,54 -241,82 -271,112 -260,104 -231,75 -203,47 -175,19 -146,-9 -118,-38 -113,-40 -136,-16 -165,12 -193,40 -221,69 -250,97 -266,113 -240,90 -211,62 -183,33 -155,5 -126,-23 -114,-33 -116,-30 -145,-2 -173,26 -201,55 -229,83 -258,111 -261,114 -248,104 -219,76 -191,48 -163,20 -135,-9 -115,-25 -124,-16 -153,13 -181,41 -209,69 -238,97 -255,115 -228,91 -199,62 -171,34 -143,6 -116,-18 -133,-1 -161,27 -189,55 -218,84 -246,112 -250,116 -236,105 -207,77 -179,48 -151,20 -123,-8 -117,-11 -141,13 -169,42 -197,70 -226,98 -245,117 -216,91 -187,63 -159,35 -131,6 -118,-3 -121,-1 -149,28 -177,56 -206,84 -234,113 -239,118 -224,106 -196,77 -167,49 -139,21 -120,5 -129,14 -157,42 -185,70 -214,99 -233,118 -204,92 -175,64 -147,35 -121,13 -137,28 -165,57 -194,85 -222,113 -227,118 -212,106 -184,78 -155,50 -127,21 -123,21 -145,43 -174,71 -202,99 -220,118 -192,92 -163,64 -135,36 -126,30 -153,57 -182,86 -210,114 -213,117 -200,107 -172,79 -143,50 -129,39 -133,43 -162,72 -190,100 -204,114 -200,113 -180,93 -152,65 -130,44 -133,50 -141,58 -170,86 -195,111 -188,108 -160,79 -136,56 -139,62 -150,72 -178,101 -182,105 -172,98 -168,94 -143,69 -149,77 -156,85 -154,83 -156,85" /><polyline class="right-eye" stroke="red" points="132,-17 130,-19 132,-17 123,-24 141,-18 161,-18 179,-25 193,-37 198,-45 197,-55 194,-75 188,-93 195,-89 204,-89 223,-89 241,-89 259,-89 278,-89 296,-89 314,-89 333,-89 351,-89 349,-69 348,-49 346,-29 344,-10 341,10 336,29 328,47 319,65 306,80 291,93 273,101 254,105 234,107 214,106 195,99 178,89 164,76 153,59 144,41 138,22 134,3 132,-17 138,1 144,19 149,37 155,55 161,73 170,82 173,85 170,82 161,73 153,55 145,38 138,20 148,31 177,59 205,88 224,106 238,106 252,105 239,93 211,64 183,36 154,8 132,-14 132,-17 123,-24 132,-17 149,-12 166,-7 183,-1 200,4 217,9 234,14 252,20 264,6 276,-8 289,-21 301,-35 314,-48 326,-62 339,-75 351,-89 350,-75 349,-62 322,-89 307,-89 292,-89 317,-64 347,-35 345,-21 344,-8 339,-13 311,-41 283,-69 263,-89 248,-89 234,-89 248,-75 276,-46 305,-18 333,10 339,17 336,28 332,39 327,33 299,5 270,-23 242,-51 214,-80 204,-89 191,-89 188,-93 189,-91 196,-68 207,-57 236,-28 264,0 292,28 323,59 316,67 310,76 286,51 258,23 230,-5 201,-33 195,-39 187,-33 180,-26 195,-10 223,18 252,46 280,75 296,90 286,95 276,100 274,98 246,69 217,41 189,13 161,-15 158,-18 142,-18 127,-22 132,-17 118,-36 118,-40 120,-39 118,-37 123,-37 119,-32 127,-34 121,-28 131,-32 121,-22 135,-30 122,-16 133,-24 140,-28 123,-11 145,-27 135,-17 123,-5 145,-23 151,-26 127,-2 124,1 137,-9 158,-27 147,-16 125,6 129,5 157,-23 162,-28 168,-30 139,-1 125,12 126,15 149,-8 173,-33 180,-38 191,-50 202,-62 213,-74 200,-84 186,-92 171,-100 170,-99 176,-99 173,-96 183,-99 176,-92 189,-99 179,-89 195,-99 180,-84 188,-88 201,-99 198,-95 182,-80 208,-99 189,-81 184,-75 200,-88 214,-99 210,-95 185,-70 191,-73 220,-99 201,-80 186,-65 212,-87 227,-99 222,-94 193,-66 187,-59 203,-73 233,-99 213,-79 187,-53 195,-58 223,-86 239,-99 234,-93 205,-65 186,-46 174,-33 162,-21 150,-8 138,5 126,17 130,13 159,-15 187,-44 215,-72 246,-99 225,-79 197,-50 169,-22 141,6 127,20 151,-1 179,-29 207,-57 235,-86 252,-99 245,-93 217,-64 189,-36 161,-8 132,21 128,24 142,14 171,-15 199,-43 227,-71 258,-99 237,-78 209,-50 181,-22 152,7 130,29 134,28 163,0 191,-28 219,-57 247,-85 264,-99 257,-92 229,-64 201,-35 173,-7 144,21 131,34 154,14 183,-14 211,-42 239,-71 271,-99 249,-77 221,-49 193,-21 164,7 136,36 133,39 146,29 174,0 203,-28 231,-56 259,-84 277,-99 269,-91 241,-63 213,-35 185,-6 156,22 135,44 138,43 166,15 195,-13 223,-42 251,-70 283,-99 261,-77 233,-49 205,-20 176,8 148,36 136,48 158,29 186,1 215,-27 243,-55 271,-84 290,-99 281,-91 253,-62 225,-34 197,-6 168,22 138,52 150,44 178,16 207,-13 235,-41 263,-69 296,-99 273,-76 245,-48 217,-20 188,9 160,37 140,57 170,30 198,2 227,-27 255,-55 283,-83 302,-99 293,-90 265,-62 237,-33 208,-5 180,23 152,51 142,61 162,45 190,16 219,-12 247,-40 275,-69 309,-99 285,-76 257,-47 229,-19 200,9 172,38 144,65 154,59 182,31 210,2 239,-26 267,-54 295,-82 315,-99 305,-89 277,-61 249,-33 220,-5 192,24 164,52 147,69 174,45 202,17 230,-11 259,-40 287,-68 315,-96 321,-99 297,-75 269,-47 241,-18 212,10 184,38 156,67 149,73 166,60 194,31 222,3 251,-25 279,-54 307,-82 328,-99 317,-89 289,-60 261,-32 232,-4 204,24 176,53 152,77 158,74 186,46 214,18 242,-11 271,-39 299,-67 327,-96 334,-99 309,-74 281,-46 252,-18 224,11 196,39 168,67 155,80 178,60 206,32 234,4 263,-25 291,-53 319,-81 340,-99 329,-88 301,-60 273,-32 244,-3 216,25 188,53 158,83 170,75 198,46 226,18 254,-10 283,-38 311,-67 339,-95 346,-99 321,-74 293,-45 264,-17 236,11 208,40 180,68 161,87 190,61 218,33 246,4 275,-24 303,-52 331,-81 353,-99 341,-87 313,-59 285,-31 256,-3 228,26 200,54 171,82 164,90 181,75 210,47 238,19 266,-9 295,-38 323,-66 351,-94 359,-99 333,-73 305,-45 276,-16 248,12 220,40 192,68 167,93 173,90 202,62 230,33 258,5 286,-23 315,-52 343,-80 362,-96 353,-87 325,-59 297,-30 268,-2 240,26 212,55 183,83 171,96 193,76 222,48 250,19 278,-9 307,-37 335,-65 361,-89 345,-72 317,-44 288,-16 260,13 232,41 204,69 174,98 185,90 214,62 242,34 270,6 298,-23 327,-51 355,-79 361,-82 337,-58 308,-30 280,-1 252,27 224,55 195,84 178,101 205,77 234,48 262,20 290,-8 319,-36 347,-65 360,-75 357,-72 329,-43 300,-15 272,13 244,41 215,70 187,98 181,104 197,91 226,63 254,35 282,6 310,-22 339,-50 360,-69 349,-57 320,-29 292,-1 264,28 236,56 207,84 186,106 217,77 246,49 274,21 302,-8 331,-36 360,-62 341,-43 312,-14 284,14 256,42 227,70 199,99 190,108 209,92 237,63 266,35 294,7 322,-21 351,-50 359,-55 332,-28 304,0 276,28 248,57 219,85 194,110 201,106 229,78 258,50 286,21 314,-7 342,-35 359,-48 353,-42 324,-14 296,14 268,43 239,71 211,99 198,112 221,92 249,64 278,36 306,8 334,-21 358,-41 344,-28 316,1 288,29 260,57 231,85 203,113 213,107 241,79 270,50 298,22 326,-6 354,-35 357,-34 336,-13 308,15 280,43 251,72 223,100 208,115 233,93 261,65 290,36 318,8 346,-20 356,-27 328,1 300,30 271,58 243,86 213,116 225,108 253,79 282,51 310,23 338,-6 356,-20 348,-13 320,16 292,44 263,72 235,101 219,116 245,94 273,65 302,37 330,9 355,-13 340,2 312,30 283,58 255,87 225,117 237,108 265,80 293,52 322,23 350,-5 354,-6 332,16 304,45 275,73 247,101 231,117 257,94 285,66 314,38 342,9 353,2 324,31 295,59 267,87 238,117 249,109 277,81 305,52 334,24 352,9 344,17 316,45 287,74 259,102 245,116 269,95 297,67 326,38 350,17 336,31 307,60 279,88 252,115 261,109 289,81 317,53 346,25 347,26 327,46 299,74 271,103 259,115 281,96 309,67 338,39 345,35 319,60 291,89 266,114 273,110 301,82 329,54 343,40 341,45 311,75 283,103 274,112 293,96 321,68 339,50 336,57 331,61 303,89 283,109 289,107 313,82 331,64 325,73 323,76 295,103 311,91 312,90 311,90 311,91" /><polyline  stroke="white" points="-303,-90 -302,-87 -303,-90 -295,-72 -292,-63 -294,-53 -306,-39 -316,-37 -325,-39 -339,-53 -337,-72 -322,-84 -303,-90 -316,-79 -328,-67 -341,-56 -341,-56 -337,-72 -324,-83 -324,-57 -324,-39 -308,-38 -308,-69 -308,-89 -303,-90 -297,-74 -291,-59 -291,-59 -291,-59 -303,-90 -319,-93 -311,-93 -311,-93 -308,-93 -321,-93 -329,-91 -297,-89 -324,-89 -332,-89 -312,-87 -292,-85 -300,-85 -338,-85 -328,-83 -288,-81 -316,-81 -343,-81 -304,-79 -285,-77 -292,-77 -332,-77 -346,-77 -320,-75 -283,-73 -308,-73 -349,-73 -336,-71 -296,-71 -281,-69 -284,-69 -324,-69 -350,-69 -312,-67 -280,-65 -300,-65 -340,-65 -351,-65 -328,-63 -288,-63 -279,-61 -316,-61 -352,-61 -344,-59 -304,-59 -279,-57 -292,-57 -332,-57 -352,-57 -320,-55 -280,-53 -308,-53 -348,-53 -351,-53 -336,-51 -296,-51 -282,-49 -324,-49 -351,-49 -312,-47 -284,-45 -300,-45 -340,-45 -348,-45 -328,-43 -286,-41 -316,-41 -345,-41 -304,-39 -290,-37 -332,-37 -341,-37 -320,-35 -294,-33 -308,-33 -336,-33 -301,-29 -324,-29 -328,-29 -316,-27 -313,-27 -312,-27 -316,-27" /><polyline  stroke="white" points="162,-88 164,-86 162,-88 173,-74 180,-58 172,-42 156,-35 147,-35 140,-40 128,-54 132,-71 145,-83 162,-88 151,-77 139,-65 128,-54 128,-54 135,-67 141,-80 141,-57 141,-39 154,-35 154,-69 154,-86 162,-88 171,-73 180,-58 173,-48 167,-39 167,-82 162,-88 153,-93 159,-93 159,-93 162,-93 149,-93 162,-93 169,-91 141,-91 156,-89 176,-87 168,-87 134,-87 140,-85 181,-83 152,-83 129,-83 164,-81 184,-79 176,-79 136,-79 125,-79 148,-77 187,-75 160,-75 122,-75 132,-73 172,-73 189,-71 184,-71 144,-71 120,-71 156,-69 191,-67 168,-67 128,-67 119,-67 140,-65 180,-65 192,-63 152,-63 117,-63 124,-61 164,-61 192,-59 176,-59 136,-59 117,-59 148,-57 188,-57 192,-55 160,-55 120,-55 117,-55 132,-53 172,-53 190,-51 184,-51 144,-51 118,-51 156,-49 188,-47 168,-47 128,-47 119,-47 140,-45 180,-45 186,-43 152,-43 122,-43 164,-41 185,-39 176,-39 136,-39 124,-39 148,-37 181,-35 160,-35 128,-35 172,-33 176,-31 144,-31 134,-31 156,-29 169,-27 166,-27 142,-27 157,-25 158,-25 160,-25 155,-25 157,-25 155,-25 157,-25" /><polyline class="left-outline"  points="-318,-97 -318,-95 -318,-97 -318,-100 -318,-95 -293,-94 -283,-87 -275,-69 -277,-47 -285,-34 -303,-22 -324,-22 -346,-27 -342,2 -336,23 -330,43 -318,63 -305,82 -290,92 -274,102 -258,106 -242,110 -226,109 -209,108 -195,102 -180,96 -168,84 -155,72 -145,53 -135,34 -131,15 -126,-4 -122,-23 -121,-42 -119,-60 -118,-79 -117,-97 -122,-97 -103,-94 -122,-95 -102,-90 -122,-93 -102,-85 -122,-89 -102,-82 -123,-84 -103,-78 -123,-80 -103,-74 -123,-75 -103,-70 -124,-71 -103,-66 -124,-67 -103,-62 -124,-62 -103,-58 -125,-58 -104,-54 -125,-53 -104,-50 -125,-49 -104,-45 -126,-45 -104,-41 -126,-41 -104,-37 -126,-36 -104,-32 -126,-32 -105,-28 -127,-28 -105,-23 -127,-24 -105,-19 -128,-20 -107,-14 -129,-16 -108,-10 -130,-12 -109,-6 -131,-8 -110,-1 -132,-4 -111,3 -133,0 -112,7 -133,5 -113,12 -134,9 -114,16 -135,13 -115,20 -136,17 -116,25 -137,21 -117,29 -138,25 -118,33 -139,29 -119,38 -140,32 -120,42 -142,36 -121,46 -143,40 -123,50 -145,43 -125,54 -147,46 -127,58 -149,50 -129,62 -150,53 -131,66 -152,56 -134,70 -154,59 -136,74 -156,63 -138,77 -157,66 -140,81 -159,69 -143,85 -162,72 -146,88 -165,74 -149,91 -167,77 -152,94 -170,79 -156,98 -172,81 -159,101 -175,84 -162,103 -177,86 -166,105 -180,89 -170,108 -183,91 -174,110 -187,93 -178,112 -190,94 -182,114 -193,96 -186,116 -196,97 -190,118 -200,99 -194,121 -203,100 -198,122 -206,101 -202,123 -210,103 -206,124 -213,103 -211,125 -217,104 -215,126 -220,104 -219,127 -224,104 -224,128 -227,104 -228,128 -231,104 -233,127 -234,105 -237,127 -238,105 -242,127 -242,105 -246,126 -246,104 -250,126 -249,103 -255,126 -253,102 -259,125 -256,102 -264,124 -260,101 -268,123 -263,100 -272,121 -267,99 -276,120 -270,98 -280,118 -274,97 -285,117 -277,95 -289,115 -280,93 -292,113 -283,91 -296,110 -286,89 -300,108 -288,88 -304,105 -291,86 -307,103 -294,84 -311,100 -297,82 -314,97 -300,80 -317,94 -303,77 -320,90 -305,74 -322,87 -307,71 -325,83 -309,68 -328,80 -311,65 -331,76 -313,62 -334,73 -315,59 -336,69 -317,55 -339,65 -319,52 -340,61 -321,49 -342,57 -323,45 -344,53 -325,42 -346,49 -327,39 -348,45 -328,35 -349,41 -329,31 -351,37 -330,27 -353,33 -331,24 -354,29 -332,20 -355,24 -333,16 -356,20 -334,12 -356,15 -335,8 -357,11 -337,4 -358,7 -338,0 -359,2 -338,-4 -360,-2 -339,-7 -360,-6 -340,-11 -361,-11 -340,-14 -362,-15 -341,-16 -363,-20 -341,-19 -364,-25 -341,-20 -365,-30 -341,-21 -365,-35 -341,-22 -363,-39 -341,-23 -358,-41 -338,-22 -354,-42 -335,-21 -349,-43 -334,-20 -345,-45 -333,-20 -341,-46 -332,-20 -336,-47 -331,-19 -332,-46 -330,-19 -328,-42 -329,-19 -324,-40 -325,-17 -321,-39 -321,-17 -318,-39 -316,-17 -315,-38 -312,-17 -313,-39 -307,-17 -310,-39 -303,-17 -308,-40 -299,-19 -306,-41 -295,-22 -304,-42 -291,-24 -302,-43 -287,-26 -301,-45 -284,-29 -300,-46 -280,-32 -298,-48 -278,-36 -296,-50 -276,-39 -295,-51 -273,-43 -294,-53 -272,-47 -294,-55 -272,-52 -294,-58 -271,-56 -293,-60 -271,-61 -293,-62 -271,-65 -293,-64 -271,-70 -293,-66 -272,-74 -294,-68 -274,-78 -295,-70 -276,-82 -296,-72 -278,-86 -297,-73 -280,-91 -298,-75 -283,-94 -300,-77 -286,-97 -301,-79 -290,-99 -303,-80 -295,-99 -305,-81 -300,-99 -307,-82 -304,-99 -310,-83 -309,-99 -313,-84 -313,-100 -316,-85 -318,-100 -318,-95 -340,-94 -362,-94 -361,-76 -361,-58 -360,-40 -360,-40 -334,-48 -365,-39 -334,-49 -365,-43 -336,-51 -365,-48 -337,-53 -365,-52 -337,-55 -365,-57 -337,-58 -365,-61 -337,-60 -365,-65 -337,-62 -365,-70 -337,-64 -365,-74 -337,-66 -365,-79 -337,-68 -365,-84 -337,-70 -365,-88 -336,-71 -365,-94 -336,-73 -363,-97 -335,-74 -356,-97 -333,-75 -351,-98 -332,-76 -345,-98 -331,-77 -340,-99 -329,-79 -336,-99 -327,-80 -331,-99 -325,-82 -326,-99 -322,-84 -322,-100 -319,-84 -319,-84 -318,-100 -318,-97 -318,-100 -318,-89 -318,-92 -318,-89 -318,-94 -335,-94 -351,-94 -364,-89 -381,-107 -383,-103 -403,-96 -383,-91 -390,-80 -384,-76 -393,-76 -384,-76 -390,-80 -383,-76 -388,-84 -380,-78 -385,-88 -375,-79 -390,-101 -395,-96 -400,-95 -393,-93 -394,-99 -389,-92 -389,-92 -394,-99 -390,-101 -371,-81 -386,-102 -367,-83 -367,-83 -383,-103 -381,-108 -364,-89 -351,-94 -332,-94 -313,-94 -293,-94 -274,-94 -255,-94 -235,-94 -216,-94 -197,-94 -178,-94 -158,-94 -139,-94 -120,-94 -103,-88 -87,-94 -85,-98 -85,-98 -80,-98 -84,-91 -84,-102 -88,-89 -87,-107 -93,-87 -91,-109 -97,-85 -96,-110 -101,-84 -100,-111 -105,-84 -105,-111 -109,-85 -109,-111 -113,-87 -114,-111 -117,-88 -118,-111 -121,-89 -122,-111 -125,-89 -127,-111 -130,-89 -131,-111 -134,-89 -135,-111 -138,-89 -140,-111 -142,-89 -144,-111 -147,-89 -149,-111 -151,-89 -153,-111 -155,-89 -158,-111 -160,-89 -162,-111 -164,-89 -167,-111 -169,-89 -171,-111 -173,-89 -175,-111 -178,-89 -180,-111 -182,-89 -184,-111 -187,-89 -189,-111 -191,-89 -193,-111 -195,-89 -198,-111 -200,-89 -202,-111 -204,-89 -207,-111 -209,-89 -211,-111 -213,-89 -215,-111 -218,-89 -220,-111 -222,-89 -224,-111 -227,-89 -229,-111 -231,-89 -233,-111 -235,-89 -238,-111 -240,-89 -242,-111 -244,-89 -247,-111 -249,-89 -251,-111 -253,-89 -255,-111 -258,-89 -260,-111 -262,-89 -264,-111 -267,-89 -269,-111 -271,-89 -273,-111 -275,-89 -278,-111 -280,-89 -282,-111 -284,-89 -287,-111 -289,-89 -291,-111 -293,-89 -295,-111 -298,-89 -300,-111 -302,-89 -304,-111 -307,-89 -309,-111 -311,-89 -313,-111 -315,-89 -318,-111 -318,-111 -320,-89 -320,-94 -335,-94 -351,-94 -364,-89 -381,-107 -395,-115 -389,-115 -390,-110 -385,-115 -387,-107 -381,-114 -384,-104 -377,-113 -381,-101 -373,-112 -378,-98 -370,-112 -375,-94 -367,-111 -371,-91 -363,-111 -368,-87 -360,-111 -364,-85 -357,-111 -359,-86 -355,-111 -354,-88 -352,-111 -350,-89 -348,-111 -345,-89 -344,-111 -341,-89 -340,-111 -337,-89 -335,-111 -333,-89 -331,-111 -329,-89 -327,-111 -324,-89 -322,-111 -320,-89 -320,-92 -320,-89" /><polyline class="right-outline"  points="151,-98 151,-96 151,-98 151,-101 151,-96 176,-94 191,-78 195,-59 189,-40 173,-25 157,-21 127,-23 131,1 136,26 143,41 151,56 159,72 172,84 185,96 201,103 216,109 234,111 252,108 269,106 283,99 298,92 316,74 326,58 335,41 340,20 345,-2 350,-23 351,-43 353,-62 354,-82 357,-97 357,-97 352,-97 371,-93 351,-93 370,-89 350,-89 370,-85 349,-84 370,-81 349,-80 370,-76 349,-75 370,-72 348,-71 370,-67 348,-67 369,-63 348,-62 369,-59 347,-58 369,-54 347,-53 369,-50 347,-49 369,-45 347,-45 369,-41 346,-40 369,-37 346,-36 368,-32 346,-32 368,-28 346,-28 368,-23 345,-24 368,-19 345,-20 367,-15 344,-16 365,-10 343,-12 364,-6 342,-8 363,-2 342,-4 362,3 341,0 361,7 340,4 360,11 339,9 359,16 338,13 358,20 337,17 357,24 336,21 356,29 335,25 355,33 334,29 354,37 333,32 353,42 332,36 352,46 331,40 350,50 329,43 348,54 327,47 346,58 325,50 344,62 323,53 342,66 321,56 339,70 319,59 337,73 317,62 335,77 315,66 333,81 313,69 330,85 311,72 327,88 308,75 324,91 306,77 320,94 303,79 317,97 301,82 314,100 299,84 310,103 296,87 307,106 293,89 304,109 289,90 300,111 286,92 296,113 283,94 292,115 280,95 287,116 277,97 283,118 274,98 279,119 271,100 275,121 267,101 271,123 263,102 267,124 260,102 262,125 256,103 258,125 252,103 253,126 249,104 249,126 245,104 245,126 241,105 240,126 238,105 236,126 234,106 231,126 230,106 227,126 227,105 222,126 223,105 218,126 220,104 213,126 216,104 209,124 213,102 205,123 209,101 201,121 206,99 197,119 203,98 193,118 200,97 188,116 197,96 184,114 193,94 180,113 190,93 176,110 186,91 173,108 184,88 169,105 181,86 166,102 179,83 162,99 176,81 159,96 174,79 155,94 171,76 152,91 168,74 149,87 166,71 147,83 163,69 145,80 161,65 142,76 159,62 140,72 158,58 137,68 156,55 135,65 154,52 133,61 152,48 130,57 151,45 128,53 149,41 126,49 147,38 125,45 145,34 123,41 144,31 122,37 142,27 121,32 140,24 119,28 140,20 118,24 139,16 117,20 138,12 116,15 137,8 115,11 136,4 114,6 136,0 114,2 135,-4 113,-2 134,-7 112,-7 134,-10 111,-11 133,-13 111,-16 133,-15 110,-20 132,-16 109,-25 132,-18 108,-31 132,-20 110,-35 133,-20 114,-37 135,-20 118,-39 137,-19 123,-40 138,-19 127,-42 139,-19 131,-43 140,-19 135,-44 141,-18 140,-43 142,-18 144,-41 146,-17 149,-39 150,-16 152,-39 155,-15 155,-38 159,-16 157,-39 164,-18 160,-40 168,-19 162,-40 172,-20 164,-41 176,-22 166,-42 180,-25 167,-44 183,-28 169,-46 186,-31 170,-47 189,-34 172,-49 193,-37 173,-50 194,-41 175,-52 196,-45 175,-54 197,-50 175,-57 198,-54 176,-59 199,-58 176,-61 199,-63 176,-63 198,-67 176,-65 197,-71 176,-67 197,-76 175,-69 196,-80 174,-71 193,-84 173,-72 190,-87 171,-74 187,-91 170,-76 184,-94 169,-78 182,-98 167,-79 177,-99 165,-81 172,-99 163,-81 168,-99 161,-82 163,-100 158,-83 159,-99 155,-84 154,-100 154,-95 136,-96 111,-94 112,-75 112,-56 113,-37 113,-37 137,-45 108,-35 136,-46 108,-40 135,-48 108,-44 134,-50 108,-48 132,-53 108,-53 132,-56 108,-57 132,-59 108,-62 132,-62 108,-66 132,-64 108,-70 132,-66 108,-75 132,-68 108,-79 132,-70 108,-84 133,-72 108,-89 134,-73 108,-94 135,-74 111,-97 136,-75 116,-98 137,-76 122,-99 139,-77 127,-99 140,-79 131,-100 141,-80 136,-100 143,-82 141,-100 146,-83 145,-100 149,-84 150,-101 152,-85 152,-85 154,-100 154,-97 154,-100 319,-89 319,-92 319,-89 319,-94 336,-94 352,-94 365,-89 366,-84 371,-86 389,-77 394,-76 385,-76 392,-80 384,-76 389,-83 381,-77 386,-87 386,-87 377,-79 391,-100 396,-99 403,-96 398,-98 398,-98 395,-94 396,-99 391,-93 391,-93 396,-99 391,-100 373,-81 388,-102 368,-83 384,-103 366,-84 362,-90 371,-96 382,-107 394,-116 390,-115 391,-110 386,-115 388,-107 381,-114 385,-104 377,-113 382,-100 374,-112 378,-97 370,-111 375,-93 367,-111 371,-90 363,-111 368,-86 360,-111 363,-85 357,-111 359,-87 355,-111 354,-88 352,-111 350,-89 348,-111 345,-89 344,-111 341,-89 340,-111 337,-89 335,-111 333,-89 331,-111 329,-89 326,-111 324,-89 322,-111 320,-89 320,-94 300,-94 280,-94 260,-94 240,-94 220,-94 200,-94 180,-94 161,-94 141,-94 121,-94 104,-88 82,-95 83,-92 81,-98 85,-91 84,-102 89,-89 88,-106 93,-87 92,-109 97,-86 96,-110 101,-84 100,-111 105,-84 105,-111 109,-85 109,-111 113,-86 113,-111 117,-88 118,-111 121,-89 122,-111 125,-89 126,-111 130,-89 131,-111 134,-89 135,-111 138,-89 140,-111 142,-89 144,-111 146,-89 149,-111 151,-89 153,-111 155,-89 158,-111 160,-89 162,-111 164,-89 166,-111 169,-89 171,-111 173,-89 175,-111 178,-89 180,-111 182,-89 184,-111 186,-89 189,-111 191,-89 193,-111 195,-89 198,-111 200,-89 202,-111 204,-89 206,-111 209,-89 211,-111 213,-89 215,-111 218,-89 220,-111 222,-89 224,-111 226,-89 229,-111 231,-89 233,-111 235,-89 238,-111 240,-89 242,-111 244,-89 246,-111 249,-89 251,-111 253,-89 255,-111 258,-89 260,-111 262,-89 264,-111 266,-89 269,-111 271,-89 273,-111 275,-89 278,-111 280,-89 282,-111 284,-89 286,-111 289,-89 291,-111 293,-89 295,-111 298,-89 300,-111 302,-89 304,-111 306,-89 309,-111 311,-89 313,-111 315,-89 318,-111 320,-89 320,-92 320,-89" /><polyline   points="-195,-127 -192,-127 -195,-127 -177,-127 -158,-127 -140,-127 -122,-127 -140,-127 -122,-127 -140,-127 -158,-127 -140,-127 -158,-127 -177,-127 -158,-127 -177,-127 -195,-127 -177,-127 -195,-127 -192,-127 -195,-127" /><polyline   points="193,-127 190,-127 193,-127 175,-127 157,-127 138,-127 120,-127 138,-127 120,-127 138,-127 157,-127 138,-127 157,-127 175,-127 157,-127 175,-127 193,-127 175,-127 193,-127 190,-127 193,-127" /></svg>