<svg viewBox="-425 -150 850 300" fill="none" stroke="black" stroke-width="4"><polyline class="left-eye" stroke="red" points="-339,-30 -336,-29 -339,-30 -321,-23 -302,-24 -284,-31 -272,-47 -269,-66 -274,-84 -287,-99 -269,-94 -250,-92 -231,-91 -211,-90 -192,-88 -173,-86 -154,-84 -135,-82 -116,-80 -117,-61 -117,-42 -119,-23 -122,-4 -124,15 -127,34 -133,52 -143,69 -156,83 -169,96 -186,106 -203,114 -222,117 -241,115 -260,110 -277,103 -293,91 -306,78 -317,62 -326,45 -333,27 -337,8 -339,-11 -339,-30 -333,-12 -328,6 -322,24 -317,42 -311,60 -306,78 -282,98 -255,111 -263,103 -290,73 -318,44 -332,29 -335,15 -337,2 -315,26 -288,55 -261,84 -233,113 -231,116 -212,115 -231,95 -258,65 -286,36 -313,7 -339,-21 -339,-30 -323,-18 -308,-6 -292,6 -276,18 -261,30 -245,42 -231,28 -217,14 -202,1 -188,-13 -173,-26 -159,-40 -145,-53 -130,-67 -116,-80 -116,-70 -117,-59 -138,-82 -149,-84 -160,-85 -147,-71 -120,-42 -117,-39 -119,-20 -122,-23 -150,-52 -177,-82 -182,-87 -193,-88 -204,-89 -179,-63 -152,-34 -125,-4 -122,-1 -124,18 -127,14 -155,-15 -182,-44 -209,-73 -225,-91 -236,-91 -246,-92 -239,-84 -212,-55 -184,-25 -157,4 -130,33 -127,36 -133,51 -159,22 -187,-7 -214,-36 -241,-65 -267,-93 -286,-98 -276,-88 -287,-99 -276,-88 -271,-76 -244,-47 -216,-17 -189,12 -162,41 -140,64 -149,76 -164,60 -192,31 -219,1 -246,-28 -270,-54 -277,-39 -249,-9 -221,20 -194,49 -167,78 -159,87 -170,97 -196,68 -224,39 -251,9 -278,-20 -287,-30 -302,-24 -281,-1 -253,28 -226,57 -199,87 -182,105 -196,111 -201,105 -229,76 -256,47 -283,17 -310,-12 -321,-23 -339,-30 -344,-39 -343,-39 -344,-38 -341,-38 -345,-35 -337,-37 -345,-29 -333,-35 -339,-31 -346,-24 -330,-34 -346,-19 -338,-24 -326,-32 -346,-14 -322,-31 -337,-17 -346,-9 -327,-24 -318,-30 -345,-5 -336,-10 -313,-29 -326,-17 -345,0 -316,-24 -308,-29 -335,-4 -344,5 -325,-11 -302,-30 -315,-17 -344,9 -335,3 -305,-24 -295,-32 -325,-4 -343,14 -343,16 -315,-11 -289,-34 -283,-38 -274,-51 -264,-65 -255,-78 -269,-88 -286,-94 -303,-101 -300,-101 -302,-100 -295,-101 -299,-98 -289,-101 -296,-95 -284,-101 -293,-93 -279,-101 -282,-99 -290,-91 -274,-101 -288,-88 -281,-92 -269,-101 -285,-85 -264,-100 -280,-85 -283,-83 -270,-92 -259,-100 -281,-79 -254,-99 -269,-85 -279,-76 -259,-92 -249,-99 -278,-72 -268,-79 -244,-99 -258,-85 -277,-68 -248,-92 -239,-98 -268,-72 -276,-64 -258,-79 -234,-98 -248,-85 -276,-59 -267,-65 -238,-92 -229,-98 -257,-72 -277,-53 -247,-79 -224,-97 -237,-86 -266,-58 -279,-47 -282,-41 -256,-65 -227,-92 -220,-97 -246,-72 -275,-45 -305,-17 -334,10 -343,18 -324,3 -295,-24 -265,-52 -236,-79 -215,-96 -226,-86 -255,-58 -285,-31 -314,-4 -341,22 -333,16 -304,-11 -275,-38 -245,-65 -216,-93 -210,-96 -235,-72 -264,-45 -294,-18 -323,10 -340,26 -313,3 -284,-24 -254,-52 -225,-79 -205,-96 -215,-86 -244,-59 -274,-31 -303,-4 -332,23 -339,30 -322,16 -293,-11 -264,-38 -234,-65 -205,-93 -200,-95 -224,-72 -254,-45 -283,-18 -312,10 -338,34 -331,30 -302,3 -273,-25 -244,-52 -214,-79 -195,-95 -204,-86 -234,-59 -263,-31 -292,-4 -321,23 -337,38 -311,16 -282,-11 -253,-38 -224,-66 -190,-94 -214,-72 -243,-45 -272,-18 -301,9 -331,37 -336,42 -321,30 -291,3 -262,-25 -233,-52 -204,-79 -185,-94 -194,-86 -223,-59 -252,-32 -281,-4 -311,23 -334,45 -330,43 -301,16 -271,-11 -242,-38 -213,-66 -180,-94 -203,-73 -232,-45 -261,-18 -291,9 -320,37 -333,49 -310,30 -281,2 -251,-25 -222,-52 -193,-79 -176,-93 -183,-86 -212,-59 -241,-32 -271,-4 -300,23 -331,52 -319,43 -290,16 -261,-11 -231,-39 -202,-66 -171,-93 -192,-73 -221,-45 -251,-18 -280,9 -309,36 -329,55 -299,30 -270,2 -240,-25 -211,-52 -182,-80 -166,-92 -172,-86 -201,-59 -230,-32 -260,-5 -289,23 -318,50 -328,59 -308,43 -279,16 -250,-11 -220,-39 -191,-66 -161,-92 -181,-73 -210,-46 -240,-18 -269,9 -298,36 -326,62 -317,57 -288,29 -259,2 -230,-25 -200,-52 -171,-80 -156,-91 -161,-87 -190,-59 -220,-32 -249,-5 -278,23 -307,50 -325,66 -297,43 -268,16 -239,-12 -210,-39 -180,-66 -151,-91 -170,-73 -200,-46 -229,-18 -258,9 -287,36 -317,63 -323,69 -307,57 -277,29 -248,2 -219,-25 -190,-53 -160,-80 -146,-90 -150,-87 -180,-59 -209,-32 -238,-5 -267,22 -297,50 -320,72 -316,70 -287,43 -257,16 -228,-12 -199,-39 -170,-66 -142,-90 -160,-73 -189,-46 -218,-19 -247,9 -277,36 -306,63 -318,75 -296,56 -267,29 -237,2 -208,-25 -179,-53 -150,-80 -137,-90 -140,-87 -169,-60 -198,-32 -227,-5 -257,22 -286,50 -316,78 -305,70 -276,43 -247,15 -217,-12 -188,-39 -159,-66 -132,-89 -149,-73 -178,-46 -207,-19 -237,9 -266,36 -295,63 -314,81 -285,56 -256,29 -227,2 -197,-26 -168,-53 -139,-80 -127,-89 -158,-60 -187,-32 -216,-5 -246,22 -275,49 -304,77 -312,84 -294,70 -265,43 -236,15 -206,-12 -177,-39 -148,-67 -122,-88 -138,-73 -167,-46 -196,-19 -226,8 -255,36 -284,63 -309,86 -303,83 -274,56 -245,29 -216,2 -186,-26 -157,-53 -128,-80 -117,-88 -147,-60 -176,-33 -206,-5 -235,22 -264,49 -293,77 -307,89 -283,70 -254,42 -225,15 -196,-12 -166,-39 -137,-67 -112,-87 -127,-74 -156,-46 -186,-19 -215,8 -244,36 -273,63 -304,91 -293,83 -263,56 -234,29 -205,1 -176,-26 -146,-53 -117,-80 -109,-86 -136,-60 -166,-33 -195,-5 -224,22 -253,49 -283,76 -302,94 -273,70 -243,42 -214,15 -185,-12 -156,-40 -126,-67 -109,-81 -116,-74 -146,-46 -175,-19 -204,8 -233,35 -263,63 -292,90 -299,97 -282,83 -253,56 -223,29 -194,1 -165,-26 -136,-53 -109,-75 -126,-60 -155,-33 -184,-6 -213,22 -243,49 -272,76 -296,99 -291,97 -262,69 -233,42 -203,15 -174,-12 -145,-40 -116,-67 -109,-70 -135,-47 -164,-19 -193,8 -223,35 -252,63 -281,90 -293,101 -271,83 -242,56 -213,28 -183,1 -154,-26 -125,-53 -109,-65 -115,-60 -144,-33 -173,-6 -202,22 -232,49 -261,76 -290,103 -280,97 -251,69 -222,42 -192,15 -163,-13 -134,-40 -110,-60 -124,-47 -153,-19 -182,8 -212,35 -241,62 -270,90 -287,105 -260,83 -231,56 -202,28 -172,1 -143,-26 -114,-54 -110,-55 -133,-33 -162,-6 -192,21 -221,49 -250,76 -279,103 -284,108 -269,96 -240,69 -211,42 -182,15 -152,-13 -123,-40 -110,-50 -113,-47 -142,-20 -172,8 -201,35 -230,62 -259,90 -281,110 -277,108 -249,83 -220,55 -191,28 -162,1 -132,-26 -110,-45 -122,-33 -152,-6 -181,21 -210,49 -239,76 -269,103 -277,111 -259,96 -229,69 -200,42 -171,14 -142,-13 -112,-40 -110,-40 -132,-20 -161,8 -190,35 -219,62 -249,89 -274,113 -268,110 -239,83 -209,55 -180,28 -151,1 -122,-27 -111,-34 -113,-32 -141,-6 -170,21 -199,48 -229,76 -258,103 -270,115 -248,96 -219,69 -189,42 -160,14 -131,-13 -111,-29 -121,-20 -150,7 -179,35 -209,62 -238,89 -267,116 -257,110 -228,82 -199,55 -169,28 -140,1 -112,-24 -130,-6 -159,21 -189,48 -218,76 -247,103 -263,118 -237,96 -208,69 -178,41 -149,14 -120,-13 -112,-18 -139,7 -168,35 -198,62 -227,89 -256,116 -259,119 -246,110 -217,82 -188,55 -158,28 -129,0 -113,-12 -119,-6 -148,21 -178,48 -207,75 -236,103 -255,120 -226,96 -197,69 -168,41 -138,14 -114,-7 -128,7 -158,34 -187,62 -216,89 -245,116 -251,121 -235,109 -206,82 -177,55 -148,28 -118,0 -114,-1 -138,21 -167,48 -196,75 -225,103 -247,122 -215,96 -186,68 -157,41 -128,14 -115,4 -118,7 -147,34 -176,62 -205,89 -235,116 -242,123 -225,109 -195,82 -166,55 -137,27 -115,10 -127,21 -156,48 -185,75 -215,102 -237,123 -205,96 -175,68 -146,41 -116,15 -136,34 -165,61 -195,89 -224,116 -232,124 -214,109 -185,82 -155,55 -126,27 -116,21 -145,48 -175,75 -204,102 -227,124 -194,95 -165,68 -135,41 -118,27 -125,34 -154,61 -184,89 -213,116 -221,124 -203,109 -174,82 -144,54 -119,34 -134,48 -164,75 -193,102 -215,123 -183,95 -154,68 -124,41 -121,40 -144,61 -173,88 -202,116 -209,122 -192,109 -163,82 -134,54 -124,48 -153,75 -182,102 -201,120 -172,95 -143,68 -128,56 -133,61 -162,88 -193,117 -181,109 -152,81 -131,62 -135,68 -142,75 -171,102 -183,113 -176,109 -161,95 -138,74 -141,77 -151,86 -160,97 -161,97 -161,97 -160,97 -141,77 -143,79 -141,77" /><polyline class="right-eye" stroke="red" points="130,-10 133,-9 130,-10 147,-5 155,-3 163,-6 179,-14 192,-25 198,-41 197,-59 189,-74 177,-87 193,-79 212,-81 231,-83 249,-85 268,-87 287,-88 306,-90 324,-91 343,-92 342,-72 341,-52 337,-32 335,-13 334,7 331,27 325,46 316,64 304,80 290,94 273,104 254,109 234,111 214,109 195,102 178,94 162,81 150,66 140,48 133,30 131,10 130,-10 135,7 141,25 146,42 152,60 157,77 174,87 190,97 206,107 202,102 173,74 145,45 134,34 132,23 131,11 146,27 175,55 203,83 230,111 249,110 233,93 204,65 176,37 148,9 130,-9 130,-10 143,0 157,11 170,21 184,31 197,41 211,52 229,43 240,28 250,11 261,-6 274,-20 288,-35 302,-49 316,-63 329,-78 343,-92 343,-92 324,-91 337,-79 342,-73 341,-55 335,-60 306,-90 288,-88 306,-70 334,-42 338,-38 336,-20 333,-24 304,-52 276,-80 269,-87 251,-85 275,-62 303,-33 331,-5 335,-1 333,17 330,13 302,-15 273,-43 245,-72 233,-83 215,-81 244,-53 272,-25 300,3 330,33 325,47 299,22 270,-7 242,-35 214,-63 197,-80 187,-81 177,-87 188,-76 196,-62 213,-45 241,-17 269,12 297,40 318,61 310,73 296,58 268,30 239,2 211,-27 198,-40 192,-26 210,-8 238,20 266,48 295,77 301,83 291,93 265,67 237,38 208,10 182,-16 169,-9 179,0 207,28 235,57 264,85 280,101 265,107 262,103 234,75 206,47 177,18 156,-3 130,-10 120,-27 121,-27 120,-25 125,-25 119,-19 129,-24 118,-13 132,-22 118,-8 128,-16 136,-21 118,-3 120,-2 139,-19 129,-9 118,2 143,-18 121,5 118,7 130,-3 147,-17 140,-10 119,12 122,11 152,-17 131,4 119,16 141,-3 158,-17 151,-10 123,18 119,21 133,11 165,-19 142,4 120,26 124,25 152,-4 173,-22 162,-11 134,17 121,30 122,32 143,10 172,-18 182,-28 183,-29 193,-43 202,-57 212,-71 195,-77 178,-82 160,-86 166,-87 163,-83 172,-88 165,-81 179,-89 168,-78 185,-90 173,-79 170,-76 183,-86 190,-91 173,-73 176,-74 196,-91 184,-79 175,-70 194,-86 202,-92 178,-68 185,-73 207,-92 195,-80 180,-65 205,-87 213,-93 186,-66 182,-62 196,-73 219,-93 206,-80 184,-59 187,-59 215,-87 224,-94 197,-66 185,-55 207,-74 230,-95 216,-81 186,-51 198,-60 226,-88 236,-95 208,-67 188,-47 217,-74 241,-96 227,-81 199,-53 187,-41 209,-60 237,-89 247,-96 245,-94 218,-67 190,-39 186,-35 182,-29 200,-46 228,-75 253,-97 238,-82 210,-54 181,-25 153,3 125,31 122,34 135,24 163,-4 191,-32 219,-61 248,-89 258,-97 229,-68 201,-40 173,-11 144,17 123,38 154,10 182,-19 211,-47 239,-75 264,-98 249,-82 220,-54 192,-26 164,2 136,31 124,42 145,24 174,-5 202,-33 230,-61 258,-90 270,-98 240,-68 212,-40 183,-12 155,16 126,46 137,37 165,9 193,-19 221,-47 250,-76 275,-99 259,-83 231,-55 203,-26 175,2 146,30 127,49 156,23 184,-5 213,-34 241,-62 269,-90 281,-99 251,-69 222,-41 194,-12 166,16 138,44 129,53 147,37 176,9 204,-20 232,-48 260,-76 287,-100 270,-83 242,-55 214,-27 185,1 157,30 130,56 139,51 167,23 195,-6 223,-34 252,-62 280,-91 292,-100 290,-98 262,-70 233,-41 205,-13 177,15 148,44 132,60 158,36 186,8 215,-20 243,-48 271,-77 298,-101 281,-84 253,-56 224,-27 196,1 168,29 140,57 134,63 149,50 178,22 206,-6 234,-35 263,-63 291,-91 304,-101 301,-98 272,-70 244,-42 216,-14 187,15 159,43 135,67 141,64 169,36 197,8 225,-21 254,-49 282,-77 309,-102 292,-84 264,-56 235,-28 207,0 179,29 150,57 137,70 160,50 188,21 217,-7 245,-35 273,-63 302,-92 315,-102 311,-99 283,-71 255,-42 227,-14 198,14 170,43 142,71 139,73 151,64 180,35 208,7 236,-21 265,-50 293,-78 321,-103 303,-85 274,-57 246,-28 218,0 189,28 161,56 141,76 145,76 171,49 199,21 228,-7 256,-36 284,-64 312,-92 326,-103 322,-99 294,-71 266,-43 237,-15 209,14 181,42 152,70 144,79 162,63 190,35 219,7 247,-22 275,-50 304,-78 331,-104 313,-86 285,-57 257,-29 229,-1 200,28 172,56 146,82 153,77 182,49 210,20 238,-8 267,-36 295,-64 323,-93 337,-104 333,-100 305,-72 276,-43 248,-15 220,13 192,41 163,70 148,85 173,63 201,34 230,6 258,-22 286,-51 314,-79 342,-104 324,-86 296,-58 268,-30 239,-1 211,27 183,55 154,84 150,88 164,76 193,48 221,20 249,-8 277,-37 306,-65 334,-93 348,-105 344,-100 315,-72 287,-44 259,-16 231,13 202,41 174,69 153,90 156,89 184,62 212,34 240,5 269,-23 297,-51 325,-79 353,-105 335,-87 307,-58 278,-30 250,-2 222,27 194,55 165,83 156,93 175,76 203,48 232,19 260,-9 288,-37 316,-66 345,-94 355,-101 326,-73 298,-44 270,-16 241,12 213,40 185,69 158,95 166,90 195,61 223,33 251,5 279,-23 308,-52 336,-80 355,-96 346,-87 317,-59 289,-31 261,-2 233,26 204,54 176,83 161,98 186,75 214,47 242,19 271,-9 299,-38 327,-66 355,-91 337,-73 309,-45 280,-17 252,12 224,40 196,68 167,96 164,100 177,89 205,61 234,33 262,4 290,-24 318,-52 347,-80 354,-86 328,-59 300,-31 272,-3 243,25 215,54 187,82 167,102 197,75 225,47 253,18 281,-10 310,-38 338,-67 354,-80 348,-74 320,-46 291,-17 263,11 235,39 206,68 178,96 170,104 188,89 216,60 244,32 273,4 301,-24 329,-53 354,-75 339,-60 311,-32 282,-3 254,25 226,53 198,82 173,106 179,103 207,74 236,46 264,18 292,-11 321,-39 349,-67 354,-70 330,-46 302,-18 274,11 245,39 217,67 189,95 176,108 199,88 227,60 255,32 283,3 312,-25 340,-53 354,-64 350,-60 322,-32 293,-4 265,24 237,53 208,81 179,110 190,102 218,74 246,45 275,17 303,-11 331,-39 354,-59 341,-47 313,-18 285,10 256,38 228,67 200,95 183,112 209,88 238,59 266,31 294,3 323,-25 351,-54 353,-54 332,-33 304,-4 276,24 247,52 219,80 191,109 186,113 201,102 229,73 257,45 286,17 314,-12 342,-40 353,-48 351,-46 324,-19 295,9 267,38 239,66 210,94 190,115 220,87 248,59 277,31 305,2 333,-26 352,-42 343,-33 315,-5 287,23 258,52 230,80 202,108 193,116 211,101 240,73 268,44 296,16 325,-12 350,-35 334,-19 306,9 278,37 250,66 221,94 197,118 203,115 231,87 259,58 288,30 316,2 344,-27 349,-29 326,-5 297,23 269,51 241,79 212,108 201,119 222,100 251,72 279,44 307,16 335,-13 349,-23 345,-20 317,8 289,37 260,65 232,93 205,120 213,114 242,86 270,58 298,30 327,1 348,-18 336,-6 308,22 280,51 252,79 223,107 209,121 233,100 261,72 290,43 318,15 348,-12 328,8 299,36 271,64 243,93 214,122 224,114 253,86 281,57 309,29 337,1 348,-7 319,22 291,50 262,78 234,107 218,123 244,99 272,71 300,43 329,15 347,-1 338,7 310,36 282,64 254,92 225,121 222,123 235,113 263,85 292,57 320,28 347,4 330,21 301,50 273,78 245,106 227,124 255,99 283,71 311,42 339,14 346,10 321,35 293,63 264,92 236,120 232,124 246,113 274,84 302,56 331,28 346,15 340,21 312,49 284,77 256,106 237,124 265,98 294,70 322,42 345,21 332,35 303,63 275,91 247,119 243,124 257,112 285,84 313,56 341,27 344,28 323,48 295,77 266,105 249,123 276,98 304,70 333,41 342,34 314,62 286,91 258,119 255,122 267,112 296,83 324,55 340,42 334,48 305,76 277,105 261,121 287,97 315,69 336,50 325,62 297,90 269,118 278,111 306,83 335,55 332,60 316,76 288,104 277,115 298,97 327,67 323,74 308,90 288,110 295,103 304,96 303,96 295,103 297,101 295,103" /><polyline  stroke="white" points="-290,-84 -290,-81 -290,-84 -288,-66 -292,-50 -307,-41 -315,-42 -322,-48 -330,-62 -328,-71 -323,-77 -316,-84 -308,-84 -290,-84 -304,-75 -317,-67 -331,-58 -331,-58 -324,-71 -316,-84 -316,-48 -316,-43 -302,-43 -302,-60 -302,-84 -290,-84 -288,-72 -287,-61 -287,-61 -287,-61 -290,-84 -307,-93 -304,-93 -304,-93 -301,-93 -314,-93 -301,-93 -294,-91 -321,-91 -322,-89 -288,-87 -310,-87 -328,-87 -298,-85 -283,-83 -326,-83 -333,-83 -314,-81 -280,-79 -302,-79 -337,-79 -330,-77 -290,-77 -278,-75 -318,-75 -340,-75 -306,-73 -276,-71 -294,-71 -334,-71 -341,-71 -322,-69 -282,-69 -275,-67 -310,-67 -342,-67 -338,-65 -298,-65 -274,-63 -286,-63 -326,-63 -343,-63 -314,-61 -274,-59 -302,-59 -343,-59 -330,-57 -290,-57 -276,-55 -318,-55 -342,-55 -306,-53 -277,-51 -294,-51 -334,-51 -341,-51 -322,-49 -282,-49 -279,-47 -310,-47 -339,-47 -298,-45 -282,-43 -286,-43 -326,-43 -336,-43 -314,-41 -286,-39 -302,-39 -332,-39 -291,-35 -318,-35 -326,-35 -321,-33 -306,-33 -295,-33 -305,-31 -306,-31 -305,-31 -306,-31 -305,-31" /><polyline  stroke="white" points="164,-74 165,-71 164,-74 171,-58 174,-50 173,-42 161,-29 144,-29 133,-41 134,-58 147,-69 164,-74 153,-65 142,-55 131,-46 131,-46 138,-57 146,-69 146,-48 146,-29 160,-29 160,-60 160,-73 164,-74 170,-60 175,-47 175,-47 175,-47 164,-74 152,-78 157,-78 157,-78 160,-78 148,-78 160,-78 167,-76 146,-76 141,-76 158,-74 174,-72 170,-72 134,-72 142,-70 178,-68 154,-68 129,-68 166,-66 181,-64 178,-64 138,-64 126,-64 150,-62 184,-60 162,-60 123,-60 134,-58 174,-58 185,-56 146,-56 122,-56 158,-54 187,-52 170,-52 130,-52 120,-52 142,-50 182,-50 187,-48 154,-48 120,-48 126,-46 166,-46 187,-44 178,-44 138,-44 120,-44 150,-42 185,-40 162,-40 121,-40 134,-38 174,-38 183,-36 146,-36 122,-36 158,-34 181,-32 170,-32 130,-32 125,-32 142,-30 178,-28 154,-28 129,-28 166,-26 174,-24 138,-24 133,-24 150,-22 167,-20 162,-20 141,-20 154,-18 156,-18 154,-18" /><polyline class="left-outline"  points="-116,-84 -115,-82 -117,-61 -119,-41 -120,-21 -122,0 -124,20 -132,42 -140,63 -154,83 -172,99 -188,107 -205,114 -230,118 -258,112 -275,103 -292,93 -305,78 -317,63 -324,43 -331,23 -335,-1 -339,-25 -336,-38 -329,-47 -335,-53 -335,-71 -329,-80 -321,-88 -312,-91 -292,-85 -282,-67 -284,-52 -298,-37 -314,-36 -329,-47 -329,-47 -334,-25 -329,-52 -332,-24 -325,-49 -330,-23 -321,-46 -327,-22 -319,-43 -323,-20 -316,-41 -318,-18 -314,-41 -314,-18 -311,-41 -310,-18 -309,-41 -305,-19 -306,-41 -301,-19 -304,-41 -296,-20 -301,-41 -292,-21 -300,-42 -288,-22 -298,-44 -285,-25 -296,-45 -281,-28 -295,-47 -277,-30 -293,-48 -274,-33 -292,-50 -271,-37 -290,-51 -269,-41 -289,-53 -267,-45 -288,-55 -266,-49 -288,-57 -266,-54 -287,-59 -265,-58 -286,-62 -265,-63 -286,-64 -265,-67 -287,-66 -265,-71 -288,-67 -266,-76 -288,-69 -268,-80 -289,-71 -270,-84 -290,-72 -271,-88 -291,-74 -274,-92 -292,-76 -277,-95 -293,-78 -281,-97 -294,-80 -286,-98 -297,-81 -291,-98 -299,-82 -295,-98 -302,-83 -300,-99 -305,-84 -304,-99 -308,-85 -309,-99 -311,-86 -313,-99 -314,-85 -318,-100 -318,-84 -322,-100 -320,-83 -327,-100 -322,-80 -332,-100 -324,-79 -336,-100 -325,-77 -341,-100 -326,-76 -347,-100 -327,-75 -352,-100 -328,-74 -357,-98 -329,-73 -359,-94 -330,-72 -360,-90 -330,-71 -360,-85 -330,-69 -360,-79 -330,-67 -359,-74 -330,-66 -359,-70 -330,-64 -358,-65 -330,-61 -358,-61 -330,-58 -357,-56 -330,-54 -357,-52 -329,-49 -356,-47 -330,-45 -356,-43 -331,-41 -355,-38 -332,-36 -355,-34 -332,-32 -354,-29 -333,-27 -354,-25 -333,-23 -354,-21 -333,-19 -353,-16 -332,-15 -353,-12 -332,-11 -352,-7 -331,-7 -352,-3 -330,-3 -351,2 -330,1 -351,6 -329,5 -350,10 -329,9 -350,15 -328,13 -349,19 -328,17 -349,24 -327,21 -348,28 -326,25 -347,32 -324,28 -345,36 -323,32 -344,41 -322,36 -342,45 -320,40 -341,49 -319,43 -339,53 -318,46 -338,57 -317,50 -336,62 -315,54 -335,66 -314,58 -333,70 -313,61 -330,73 -310,64 -328,77 -308,67 -325,81 -305,70 -323,85 -303,73 -320,88 -301,75 -318,92 -299,78 -315,96 -296,80 -312,99 -294,83 -309,102 -292,86 -305,104 -289,89 -301,107 -286,91 -298,109 -283,93 -294,112 -280,94 -290,115 -277,96 -287,117 -274,98 -283,119 -270,99 -279,121 -267,101 -274,122 -264,103 -270,124 -260,105 -266,126 -257,106 -262,127 -254,108 -258,129 -250,108 -254,130 -246,109 -250,132 -243,110 -245,133 -240,111 -241,133 -236,111 -236,133 -233,112 -232,133 -229,113 -227,133 -226,112 -223,133 -222,112 -218,132 -219,111 -214,132 -215,111 -210,132 -212,110 -205,131 -208,110 -201,130 -204,109 -197,128 -201,107 -192,127 -197,106 -188,126 -194,104 -184,124 -191,103 -180,123 -188,101 -176,121 -184,100 -172,120 -181,98 -168,117 -178,97 -164,114 -174,95 -161,112 -172,93 -157,109 -169,90 -154,106 -167,88 -150,104 -164,86 -147,101 -161,83 -144,97 -159,81 -141,94 -156,78 -139,90 -154,75 -136,87 -152,72 -133,83 -150,69 -131,79 -148,66 -128,76 -145,63 -126,72 -144,60 -123,68 -142,56 -122,64 -141,52 -120,60 -140,49 -118,56 -139,45 -116,52 -137,42 -114,48 -136,38 -113,44 -135,35 -112,39 -133,31 -111,35 -132,27 -110,31 -131,23 -109,26 -129,19 -109,22 -129,15 -108,17 -128,11 -107,13 -128,7 -106,9 -128,3 -105,4 -127,-1 -104,0 -127,-5 -104,-4 -126,-9 -103,-9 -126,-14 -102,-13 -126,-18 -102,-18 -125,-22 -102,-22 -125,-26 -101,-27 -124,-31 -101,-31 -124,-35 -101,-35 -124,-39 -101,-40 -123,-43 -100,-44 -123,-47 -100,-49 -123,-51 -100,-53 -122,-55 -100,-58 -122,-59 -99,-62 -121,-63 -100,-66 -121,-67 -102,-71 -121,-71 -104,-75 -120,-75 -107,-79 -120,-79 -110,-83 -110,-83 -119,-84 -116,-84 -119,-84 -336,-93 -336,-96 -336,-93 -336,-98 -349,-98 -362,-95 -362,-90 -379,-98 -381,-103 -401,-103 -399,-100 -402,-106 -398,-100 -397,-107 -394,-100 -393,-109 -390,-99 -389,-110 -385,-99 -386,-111 -381,-99 -381,-99 -384,-111 -381,-115 -405,-125 -399,-126 -401,-122 -397,-125 -398,-120 -393,-124 -394,-118 -389,-124 -391,-115 -384,-123 -387,-113 -380,-122 -384,-111 -375,-121 -383,-108 -370,-119 -382,-106 -365,-118 -381,-105 -362,-114 -381,-104 -362,-109 -381,-104 -362,-105 -381,-103 -362,-100 -380,-103 -362,-96 -380,-101 -380,-101 -363,-91 -369,-89 -398,-85 -394,-88 -391,-86 -391,-90 -387,-86 -387,-93 -382,-87 -384,-95 -377,-88 -381,-97 -372,-88 -380,-98 -367,-89 -379,-99 -363,-91 -361,-112 -362,-90 -360,-117 -358,-91 -356,-117 -354,-92 -351,-116 -350,-93 -347,-115 -345,-93 -343,-114 -341,-93 -338,-114 -337,-93 -334,-108 -316,-107 -297,-106 -279,-105 -260,-104 -241,-102 -221,-100 -202,-98 -183,-96 -163,-94 -144,-92 -124,-90 -105,-88 -85,-87 -85,-87 -66,-85 -71,-81 -72,-87 -74,-80 -76,-89 -78,-79 -80,-90 -83,-78 -85,-91 -87,-77 -89,-92 -91,-75 -93,-92 -96,-74 -98,-93 -100,-73 -102,-93 -104,-73 -106,-94 -109,-74 -110,-94 -113,-74 -114,-94 -117,-75 -118,-95 -122,-75 -122,-95 -126,-75 -126,-96 -130,-76 -131,-96 -135,-76 -135,-97 -139,-76 -139,-97 -143,-77 -144,-97 -148,-77 -148,-98 -152,-77 -153,-98 -157,-78 -157,-99 -161,-78 -161,-99 -166,-79 -166,-100 -170,-79 -170,-100 -174,-79 -175,-101 -179,-80 -179,-101 -183,-80 -184,-101 -188,-80 -188,-102 -192,-81 -192,-102 -197,-81 -197,-103 -201,-82 -201,-103 -205,-82 -206,-104 -210,-82 -210,-104 -214,-83 -214,-104 -219,-83 -219,-105 -223,-83 -223,-105 -228,-84 -228,-106 -232,-84 -232,-106 -236,-84 -237,-107 -241,-85 -241,-107 -245,-85 -245,-108 -250,-86 -250,-108 -254,-86 -254,-108 -258,-86 -259,-109 -263,-87 -263,-109 -267,-87 -268,-109 -272,-87 -272,-110 -276,-88 -276,-110 -280,-88 -281,-110 -285,-89 -285,-111 -289,-89 -290,-111 -294,-89 -294,-111 -298,-90 -298,-111 -302,-90 -303,-112 -307,-91 -307,-112 -311,-92 -312,-112 -315,-92 -316,-112 -320,-93 -320,-113 -324,-94 -325,-113 -328,-94 -329,-113 -333,-94 -334,-113 -334,-113 -337,-93 -337,-96 -337,-93" /><polyline class="right-outline"  points="124,-84 122,-82 124,-84 124,-84 107,-71 104,-66 105,-48 106,-30 107,-11 111,7 114,26 118,44 129,66 140,87 153,100 166,113 188,125 207,130 226,134 242,132 258,131 274,124 290,118 304,108 318,99 328,83 339,68 344,52 350,35 356,19 357,0 359,-20 360,-39 362,-59 364,-78 365,-98 348,-96 348,-96 343,-100 356,-100 343,-96 363,-97 342,-91 365,-93 342,-87 365,-88 342,-84 364,-84 342,-80 364,-79 341,-77 364,-75 341,-73 363,-71 341,-69 363,-66 340,-65 362,-62 340,-61 362,-57 340,-57 362,-53 340,-52 361,-48 339,-48 361,-44 339,-43 361,-40 339,-39 360,-35 338,-35 360,-31 338,-30 359,-26 338,-26 359,-22 337,-21 359,-17 337,-17 358,-13 337,-13 358,-9 336,-9 357,-4 336,-5 357,0 336,-1 357,5 335,4 356,9 334,7 356,14 333,11 355,18 332,15 354,22 331,19 353,27 330,23 351,31 329,27 350,35 328,31 349,39 327,34 347,43 326,38 346,48 325,42 344,52 324,46 343,56 323,50 341,60 321,53 340,65 319,57 338,69 317,60 336,72 315,63 333,76 313,66 331,80 311,69 328,83 310,72 326,87 308,75 323,91 305,78 321,95 302,80 318,98 300,83 315,101 297,85 311,104 294,87 307,106 292,89 304,109 289,91 300,111 286,94 297,114 283,96 293,116 280,97 289,119 276,99 285,120 273,100 281,122 269,102 277,123 266,103 272,125 263,105 268,127 259,106 264,128 256,108 260,130 252,109 256,131 249,111 251,131 245,111 247,132 242,111 242,132 238,111 238,133 235,111 234,133 232,111 229,134 228,112 225,134 224,112 220,133 221,111 216,132 217,110 212,131 214,109 207,130 210,109 203,129 207,108 199,128 203,107 194,127 200,106 190,126 196,104 186,124 193,103 182,122 190,101 178,120 187,99 174,118 184,98 170,116 181,96 166,113 178,94 163,110 175,91 160,107 173,89 157,104 170,86 153,101 167,84 150,98 165,82 147,95 162,79 144,91 160,76 141,88 158,73 138,85 155,70 136,81 153,67 134,77 151,64 132,73 149,61 130,69 148,57 128,65 146,54 126,61 145,50 124,57 144,46 122,53 143,43 120,49 141,39 118,45 140,35 117,41 139,32 116,36 137,28 115,32 136,24 115,27 135,20 114,23 134,16 113,19 133,12 112,14 133,8 111,10 132,5 110,6 132,2 110,1 131,-2 109,-3 131,-6 108,-8 130,-11 107,-12 132,-15 107,-17 133,-19 107,-21 135,-24 106,-25 136,-28 106,-30 138,-32 106,-34 136,-36 106,-39 134,-40 105,-43 132,-44 105,-48 132,-47 105,-52 132,-49 105,-57 132,-52 104,-62 133,-54 105,-66 133,-55 107,-70 133,-57 110,-73 133,-59 114,-76 135,-60 117,-79 136,-62 121,-82 137,-63 137,-63 124,-84 127,-80 145,-80 162,-80 179,-80 190,-68 195,-44 192,-34 182,-19 170,-11 147,-9 132,-15 130,-10 138,-32 132,-9 140,-31 136,-8 143,-30 140,-6 146,-29 144,-5 148,-27 149,-4 151,-26 153,-4 153,-27 157,-5 156,-27 162,-5 158,-28 166,-6 161,-28 170,-6 163,-29 174,-8 165,-29 178,-10 167,-30 182,-13 168,-32 185,-15 170,-34 188,-19 171,-35 191,-22 172,-37 193,-26 174,-38 195,-30 175,-40 197,-34 175,-42 198,-38 176,-44 199,-42 176,-46 199,-47 176,-49 198,-51 176,-51 197,-56 176,-53 196,-60 176,-55 196,-64 174,-56 195,-69 173,-58 193,-73 172,-60 190,-76 171,-61 187,-79 170,-63 184,-83 168,-65 180,-84 167,-67 175,-85 165,-69 170,-85 162,-70 165,-85 159,-70 160,-85 157,-71 156,-85 153,-72 151,-86 150,-72 147,-86 147,-71 142,-86 144,-70 138,-86 142,-68 133,-86 140,-66 129,-85 139,-64 124,-84 126,-82 124,-84 337,-93 337,-96 337,-93 337,-98 350,-98 363,-95 363,-90 369,-89 372,-92 372,-92 399,-85 395,-86 394,-89 390,-86 390,-91 386,-87 387,-94 382,-87 383,-96 378,-88 381,-97 373,-88 380,-98 369,-89 380,-98 381,-108 385,-111 382,-114 402,-126 406,-125 400,-126 400,-121 396,-125 397,-119 392,-124 393,-116 388,-123 389,-114 383,-122 387,-112 379,-121 386,-112 374,-120 374,-120 385,-111 385,-106 402,-103 402,-103 403,-106 399,-100 399,-107 395,-100 395,-108 392,-100 391,-109 388,-99 386,-111 384,-99 382,-113 379,-98 377,-116 375,-96 373,-119 371,-94 368,-119 367,-92 364,-118 363,-91 360,-117 359,-91 355,-116 356,-92 351,-115 351,-93 348,-115 347,-93 344,-114 342,-93 340,-114 340,-114 338,-93 338,-98 325,-99 305,-95 284,-93 264,-92 243,-90 223,-88 203,-87 182,-85 162,-83 142,-81 121,-80 101,-78 85,-82 85,-82 68,-82 72,-86 74,-80 76,-88 78,-79 80,-90 83,-78 85,-91 87,-77 89,-92 92,-76 93,-92 96,-74 98,-93 100,-74 102,-93 105,-73 106,-94 109,-74 111,-94 114,-74 115,-94 118,-75 119,-95 123,-75 123,-95 127,-75 127,-96 131,-76 132,-96 136,-76 136,-97 140,-76 141,-97 145,-77 145,-97 149,-77 150,-98 154,-77 154,-98 158,-78 158,-99 162,-78 163,-99 167,-79 167,-100 171,-79 172,-100 176,-79 176,-101 180,-80 180,-101 185,-80 185,-101 189,-80 189,-102 193,-81 194,-102 198,-81 198,-103 202,-82 203,-103 207,-82 207,-104 211,-82 211,-104 216,-83 216,-105 220,-83 220,-105 224,-83 225,-105 229,-84 229,-106 233,-84 234,-106 238,-85 238,-107 242,-85 242,-107 247,-85 247,-108 251,-86 251,-108 255,-86 256,-108 260,-86 260,-109 264,-87 265,-109 268,-87 269,-109 273,-87 273,-110 277,-88 278,-110 282,-88 282,-110 286,-89 287,-111 291,-89 291,-111 295,-89 295,-111 299,-90 300,-111 304,-90 304,-112 308,-91 308,-112 312,-92 313,-112 317,-92 317,-112 321,-93 322,-113 325,-94 326,-113 330,-94 331,-113 334,-93 335,-113 338,-93 338,-96 338,-93" /><polyline   points="114,-126 117,-126 114,-126 131,-128 149,-130 166,-132 183,-134 166,-132 183,-134 166,-132 149,-130 166,-132 149,-130 131,-128 149,-130 131,-128 114,-126 131,-128 114,-126 117,-126 114,-126" /><polyline   points="-112,-126 -115,-126 -112,-126 -129,-128 -145,-130 -162,-132 -179,-134 -162,-132 -179,-134 -162,-132 -145,-130 -162,-132 -145,-130 -129,-128 -145,-130 -129,-128 -112,-126 -129,-128 -112,-126 -115,-126 -112,-126" /></svg>