<svg viewBox="-425 -150 850 300" fill="none" stroke="black" stroke-width="4"><polyline class="left-eye" stroke="red" points="-279,-90 -276,-90 -279,-90 -259,-90 -240,-89 -220,-89 -201,-89 -181,-89 -162,-88 -142,-88 -123,-88 -121,-69 -121,-49 -123,-30 -125,-11 -130,8 -134,27 -140,45 -150,63 -161,78 -177,90 -193,100 -212,106 -231,108 -250,106 -269,101 -286,93 -301,80 -313,65 -323,48 -331,31 -335,12 -337,-8 -339,-27 -322,-19 -303,-14 -288,-24 -275,-38 -270,-55 -272,-74 -280,-91 -279,-90 -270,-74 -262,-58 -253,-43 -244,-27 -236,-11 -227,5 -218,21 -233,29 -248,37 -262,47 -274,60 -285,72 -297,85 -297,85 -306,68 -316,52 -325,35 -334,19 -312,41 -284,69 -256,97 -247,106 -232,107 -217,107 -221,103 -250,75 -278,46 -306,18 -335,-10 -337,-13 -339,-27 -311,-16 -300,-5 -272,23 -244,52 -215,80 -195,101 -186,95 -177,90 -181,85 -209,57 -238,29 -266,0 -289,-23 -282,-30 -275,-38 -260,-23 -232,6 -203,34 -175,62 -160,77 -154,69 -148,60 -169,39 -197,11 -226,-17 -254,-46 -270,-62 -272,-77 -280,-91 -279,-90 -263,-84 -246,-79 -230,-73 -213,-67 -197,-62 -180,-56 -164,-51 -150,-63 -137,-76 -123,-88 -122,-72 -120,-56 -139,-75 -152,-88 -167,-89 -182,-89 -174,-81 -145,-52 -123,-30 -125,-17 -127,-5 -151,-30 -180,-58 -208,-86 -211,-89 -226,-89 -240,-90 -214,-63 -186,-35 -157,-7 -132,19 -135,30 -138,41 -163,16 -192,-12 -220,-40 -248,-68 -269,-90 -279,-90 -299,-100 -296,-100 -299,-97 -290,-100 -296,-94 -283,-100 -293,-90 -277,-100 -290,-87 -283,-91 -271,-100 -287,-84 -265,-100 -281,-84 -285,-79 -271,-90 -259,-100 -261,-97 -283,-75 -279,-76 -252,-100 -269,-83 -281,-70 -259,-90 -246,-99 -249,-97 -277,-68 -280,-65 -267,-75 -240,-99 -257,-82 -280,-60 -275,-61 -247,-89 -234,-99 -237,-96 -265,-68 -280,-53 -255,-75 -227,-99 -245,-82 -273,-53 -283,-43 -288,-36 -299,-26 -310,-16 -322,-5 -333,-16 -343,-30 -352,-44 -348,-42 -351,-38 -343,-40 -350,-33 -339,-38 -350,-27 -339,-35 -335,-36 -349,-22 -331,-33 -337,-27 -348,-16 -328,-30 -347,-11 -336,-19 -324,-28 -326,-26 -347,-5 -344,-5 -319,-27 -334,-12 -346,0 -324,-19 -313,-26 -342,3 -345,6 -332,-4 -307,-26 -322,-11 -345,12 -340,10 -312,-18 -298,-28 -302,-25 -330,3 -344,17 -344,20 -320,-4 -292,-32 -263,-60 -235,-89 -224,-99 -225,-95 -253,-67 -282,-39 -310,-11 -338,18 -343,26 -328,11 -300,-18 -271,-46 -243,-74 -218,-99 -233,-81 -261,-53 -290,-24 -318,4 -342,31 -336,25 -308,-3 -280,-31 -251,-60 -223,-88 -212,-99 -213,-95 -241,-67 -270,-38 -298,-10 -326,18 -340,35 -316,11 -288,-17 -260,-45 -231,-73 -206,-99 -221,-80 -249,-52 -278,-24 -306,4 -334,33 -338,40 -324,26 -296,-2 -268,-31 -239,-59 -211,-87 -199,-99 -201,-94 -229,-66 -258,-38 -286,-9 -314,19 -336,44 -332,40 -304,12 -276,-16 -248,-45 -219,-73 -193,-99 -209,-80 -238,-51 -266,-23 -294,5 -322,33 -334,48 -312,26 -284,-2 -256,-30 -227,-58 -199,-87 -187,-99 -189,-94 -217,-65 -246,-37 -274,-9 -302,20 -331,48 -332,52 -320,41 -292,13 -264,-16 -236,-44 -207,-72 -181,-99 -197,-79 -226,-51 -254,-23 -282,6 -310,34 -330,56 -300,27 -272,-1 -244,-29 -216,-58 -187,-86 -175,-99 -177,-93 -205,-65 -234,-36 -262,-8 -290,20 -319,48 -327,60 -309,42 -280,13 -252,-15 -224,-43 -195,-72 -168,-99 -185,-79 -214,-50 -242,-22 -270,6 -298,35 -325,64 -317,56 -288,28 -260,-1 -232,-29 -204,-57 -175,-85 -162,-99 -165,-92 -194,-64 -222,-36 -250,-7 -278,21 -307,49 -323,68 -297,42 -268,14 -240,-14 -212,-43 -183,-71 -156,-98 -173,-78 -202,-50 -230,-21 -258,7 -287,35 -315,64 -320,72 -305,57 -276,28 -248,0 -220,-28 -192,-57 -163,-85 -150,-98 -153,-92 -182,-63 -210,-35 -238,-7 -266,21 -295,50 -318,76 -313,71 -285,43 -256,15 -228,-14 -200,-42 -172,-70 -144,-98 -161,-77 -190,-49 -218,-21 -246,8 -275,36 -303,64 -315,79 -293,57 -265,29 -236,1 -208,-28 -180,-56 -151,-84 -137,-98 -141,-91 -170,-63 -198,-35 -226,-6 -254,22 -283,50 -311,79 -312,83 -301,72 -273,43 -244,15 -216,-13 -188,-41 -160,-70 -131,-98 -150,-77 -178,-48 -206,-20 -234,8 -263,37 -291,65 -309,86 -281,58 -253,30 -224,1 -196,-27 -168,-55 -139,-84 -125,-98 -129,-90 -158,-62 -186,-34 -214,-6 -243,23 -271,51 -299,79 -306,89 -289,72 -261,44 -232,16 -204,-13 -176,-41 -148,-69 -119,-98 -138,-76 -166,-48 -194,-19 -222,9 -251,37 -279,65 -303,93 -297,87 -269,59 -241,30 -212,2 -184,-26 -156,-55 -128,-83 -112,-98 -113,-97 -111,-98 -113,-97 -113,-95 -117,-90 -146,-62 -174,-33 -202,-5 -231,23 -259,52 -287,80 -301,94 -277,73 -249,45 -221,16 -192,-12 -164,-40 -136,-68 -112,-89 -126,-75 -154,-47 -182,-19 -210,9 -239,38 -267,66 -295,94 -298,97 -285,87 -257,59 -229,31 -200,3 -172,-26 -144,-54 -116,-82 -112,-83 -134,-61 -162,-33 -190,-4 -219,24 -247,52 -275,81 -294,99 -265,74 -237,45 -209,17 -180,-11 -152,-40 -124,-68 -111,-77 -114,-75 -142,-46 -170,-18 -199,10 -227,38 -255,67 -283,95 -291,102 -273,88 -245,60 -217,31 -188,3 -160,-25 -132,-53 -111,-71 -122,-60 -150,-32 -178,-4 -207,25 -235,53 -263,81 -287,105 -282,103 -253,74 -225,46 -197,18 -168,-11 -140,-39 -110,-65 -130,-46 -158,-18 -187,11 -215,39 -243,67 -271,96 -283,107 -261,89 -233,60 -205,32 -177,4 -148,-24 -120,-53 -110,-59 -138,-31 -166,-3 -195,25 -223,53 -251,82 -278,109 -270,103 -241,75 -213,47 -185,18 -156,-10 -128,-38 -110,-53 -118,-45 -146,-17 -175,11 -203,40 -231,68 -260,96 -274,110 -249,89 -221,61 -193,33 -165,4 -136,-24 -111,-46 -126,-31 -155,-2 -183,26 -211,54 -239,82 -269,112 -258,104 -229,75 -201,47 -173,19 -144,-9 -116,-38 -111,-40 -134,-16 -163,12 -191,40 -219,69 -248,97 -264,113 -238,90 -209,62 -181,33 -153,5 -124,-23 -112,-33 -114,-30 -143,-2 -171,26 -199,55 -227,83 -256,111 -259,114 -246,104 -217,76 -189,48 -161,20 -133,-9 -113,-25 -122,-16 -151,13 -179,41 -207,69 -236,97 -253,115 -226,91 -197,62 -169,34 -141,6 -114,-18 -131,-1 -159,27 -187,55 -216,84 -244,112 -248,116 -234,105 -205,77 -177,48 -149,20 -121,-8 -115,-11 -139,13 -167,42 -195,70 -224,98 -243,117 -214,91 -185,63 -157,35 -129,6 -116,-3 -119,-1 -147,28 -175,56 -204,84 -232,113 -237,118 -222,106 -194,77 -165,49 -137,21 -118,5 -127,14 -155,42 -183,70 -212,99 -231,118 -202,92 -173,64 -145,35 -119,13 -135,28 -163,57 -192,85 -220,113 -225,118 -210,106 -182,78 -153,50 -125,21 -121,21 -143,43 -172,71 -200,99 -218,118 -190,92 -161,64 -133,36 -124,30 -151,57 -180,86 -208,114 -211,117 -198,107 -170,79 -141,50 -127,39 -131,43 -160,72 -188,100 -202,114 -198,113 -178,93 -150,65 -128,44 -131,50 -139,58 -168,86 -193,111 -186,108 -158,79 -134,56 -137,62 -148,72 -176,101 -180,105 -170,98 -166,94 -141,69 -147,77 -154,85 -152,83 -154,85" /><polyline class="right-eye" stroke="red" points="134,-17 132,-19 134,-17 125,-24 143,-18 163,-18 181,-25 195,-37 200,-45 199,-55 196,-75 190,-93 197,-89 206,-89 225,-89 243,-89 261,-89 280,-89 298,-89 316,-89 335,-89 353,-89 351,-69 350,-49 348,-29 346,-10 343,10 338,29 330,47 321,65 308,80 293,93 275,101 256,105 236,107 216,106 197,99 180,89 166,76 155,59 146,41 140,22 136,3 134,-17 140,1 146,19 151,37 157,55 163,73 172,82 175,85 172,82 163,73 155,55 147,38 140,20 150,31 179,59 207,88 226,106 240,106 254,105 241,93 213,64 185,36 156,8 134,-14 134,-17 125,-24 134,-17 151,-12 168,-7 185,-1 202,4 219,9 236,14 254,20 266,6 278,-8 291,-21 303,-35 316,-48 328,-62 341,-75 353,-89 352,-75 351,-62 324,-89 309,-89 294,-89 319,-64 349,-35 347,-21 346,-8 341,-13 313,-41 285,-69 265,-89 250,-89 236,-89 250,-75 278,-46 307,-18 335,10 341,17 338,28 334,39 329,33 301,5 272,-23 244,-51 216,-80 206,-89 193,-89 190,-93 191,-91 198,-68 209,-57 238,-28 266,0 294,28 325,59 318,67 312,76 288,51 260,23 232,-5 203,-33 197,-39 189,-33 182,-26 197,-10 225,18 254,46 282,75 298,90 288,95 278,100 276,98 248,69 219,41 191,13 163,-15 160,-18 144,-18 129,-22 134,-17 120,-36 120,-40 122,-39 120,-37 125,-37 121,-32 129,-34 123,-28 133,-32 123,-22 137,-30 124,-16 135,-24 142,-28 125,-11 147,-27 137,-17 125,-5 147,-23 153,-26 129,-2 126,1 139,-9 160,-27 149,-16 127,6 131,5 159,-23 164,-28 170,-30 141,-1 127,12 128,15 151,-8 175,-33 182,-38 193,-50 204,-62 215,-74 202,-84 188,-92 173,-100 172,-99 178,-99 175,-96 185,-99 178,-92 191,-99 181,-89 197,-99 182,-84 190,-88 203,-99 200,-95 184,-80 210,-99 191,-81 186,-75 202,-88 216,-99 212,-95 187,-70 193,-73 222,-99 203,-80 188,-65 214,-87 229,-99 224,-94 195,-66 189,-59 205,-73 235,-99 215,-79 189,-53 197,-58 225,-86 241,-99 236,-93 207,-65 188,-46 176,-33 164,-21 152,-8 140,5 128,17 132,13 161,-15 189,-44 217,-72 248,-99 227,-79 199,-50 171,-22 143,6 129,20 153,-1 181,-29 209,-57 237,-86 254,-99 247,-93 219,-64 191,-36 163,-8 134,21 130,24 144,14 173,-15 201,-43 229,-71 260,-99 239,-78 211,-50 183,-22 154,7 132,29 136,28 165,0 193,-28 221,-57 249,-85 266,-99 259,-92 231,-64 203,-35 175,-7 146,21 133,34 156,14 185,-14 213,-42 241,-71 273,-99 251,-77 223,-49 195,-21 166,7 138,36 135,39 148,29 176,0 205,-28 233,-56 261,-84 279,-99 271,-91 243,-63 215,-35 187,-6 158,22 137,44 140,43 168,15 197,-13 225,-42 253,-70 285,-99 263,-77 235,-49 207,-20 178,8 150,36 138,48 160,29 188,1 217,-27 245,-55 273,-84 292,-99 283,-91 255,-62 227,-34 199,-6 170,22 140,52 152,44 180,16 209,-13 237,-41 265,-69 298,-99 275,-76 247,-48 219,-20 190,9 162,37 142,57 172,30 200,2 229,-27 257,-55 285,-83 304,-99 295,-90 267,-62 239,-33 210,-5 182,23 154,51 144,61 164,45 192,16 221,-12 249,-40 277,-69 311,-99 287,-76 259,-47 231,-19 202,9 174,38 146,65 156,59 184,31 212,2 241,-26 269,-54 297,-82 317,-99 307,-89 279,-61 251,-33 222,-5 194,24 166,52 149,69 176,45 204,17 232,-11 261,-40 289,-68 317,-96 323,-99 299,-75 271,-47 243,-18 214,10 186,38 158,67 151,73 168,60 196,31 224,3 253,-25 281,-54 309,-82 330,-99 319,-89 291,-60 263,-32 234,-4 206,24 178,53 154,77 160,74 188,46 216,18 244,-11 273,-39 301,-67 329,-96 336,-99 311,-74 283,-46 254,-18 226,11 198,39 170,67 157,80 180,60 208,32 236,4 265,-25 293,-53 321,-81 342,-99 331,-88 303,-60 275,-32 246,-3 218,25 190,53 160,83 172,75 200,46 228,18 256,-10 285,-38 313,-67 341,-95 348,-99 323,-74 295,-45 266,-17 238,11 210,40 182,68 163,87 192,61 220,33 248,4 277,-24 305,-52 333,-81 355,-99 343,-87 315,-59 287,-31 258,-3 230,26 202,54 173,82 166,90 183,75 212,47 240,19 268,-9 297,-38 325,-66 353,-94 361,-99 335,-73 307,-45 278,-16 250,12 222,40 194,68 169,93 175,90 204,62 232,33 260,5 288,-23 317,-52 345,-80 364,-96 355,-87 327,-59 299,-30 270,-2 242,26 214,55 185,83 173,96 195,76 224,48 252,19 280,-9 309,-37 337,-65 363,-89 347,-72 319,-44 290,-16 262,13 234,41 206,69 176,98 187,90 216,62 244,34 272,6 300,-23 329,-51 357,-79 363,-82 339,-58 310,-30 282,-1 254,27 226,55 197,84 180,101 207,77 236,48 264,20 292,-8 321,-36 349,-65 362,-75 359,-72 331,-43 302,-15 274,13 246,41 217,70 189,98 183,104 199,91 228,63 256,35 284,6 312,-22 341,-50 362,-69 351,-57 322,-29 294,-1 266,28 238,56 209,84 188,106 219,77 248,49 276,21 304,-8 333,-36 362,-62 343,-43 314,-14 286,14 258,42 229,70 201,99 192,108 211,92 239,63 268,35 296,7 324,-21 353,-50 361,-55 334,-28 306,0 278,28 250,57 221,85 196,110 203,106 231,78 260,50 288,21 316,-7 344,-35 361,-48 355,-42 326,-14 298,14 270,43 241,71 213,99 200,112 223,92 251,64 280,36 308,8 336,-21 360,-41 346,-28 318,1 290,29 262,57 233,85 205,113 215,107 243,79 272,50 300,22 328,-6 356,-35 359,-34 338,-13 310,15 282,43 253,72 225,100 210,115 235,93 263,65 292,36 320,8 348,-20 358,-27 330,1 302,30 273,58 245,86 215,116 227,108 255,79 284,51 312,23 340,-6 358,-20 350,-13 322,16 294,44 265,72 237,101 221,116 247,94 275,65 304,37 332,9 357,-13 342,2 314,30 285,58 257,87 227,117 239,108 267,80 295,52 324,23 352,-5 356,-6 334,16 306,45 277,73 249,101 233,117 259,94 287,66 316,38 344,9 355,2 326,31 297,59 269,87 240,117 251,109 279,81 307,52 336,24 354,9 346,17 318,45 289,74 261,102 247,116 271,95 299,67 328,38 352,17 338,31 309,60 281,88 254,115 263,109 291,81 319,53 348,25 349,26 329,46 301,74 273,103 261,115 283,96 311,67 340,39 347,35 321,60 293,89 268,114 275,110 303,82 331,54 345,40 343,45 313,75 285,103 276,112 295,96 323,68 341,50 338,57 333,61 305,89 285,109 291,107 315,82 333,64 327,73 325,76 297,103 313,91 314,90 313,90 313,91" /><polyline  stroke="white" points="-301,-90 -300,-87 -301,-90 -293,-72 -290,-63 -292,-53 -304,-39 -314,-37 -323,-39 -337,-53 -335,-72 -320,-84 -301,-90 -314,-79 -326,-67 -339,-56 -339,-56 -335,-72 -322,-83 -322,-57 -322,-39 -306,-38 -306,-69 -306,-89 -301,-90 -295,-74 -289,-59 -289,-59 -289,-59 -301,-90 -317,-93 -309,-93 -309,-93 -306,-93 -319,-93 -327,-91 -295,-89 -322,-89 -330,-89 -310,-87 -290,-85 -298,-85 -336,-85 -326,-83 -286,-81 -314,-81 -341,-81 -302,-79 -283,-77 -290,-77 -330,-77 -344,-77 -318,-75 -281,-73 -306,-73 -347,-73 -334,-71 -294,-71 -279,-69 -282,-69 -322,-69 -348,-69 -310,-67 -278,-65 -298,-65 -338,-65 -349,-65 -326,-63 -286,-63 -277,-61 -314,-61 -350,-61 -342,-59 -302,-59 -277,-57 -290,-57 -330,-57 -350,-57 -318,-55 -278,-53 -306,-53 -346,-53 -349,-53 -334,-51 -294,-51 -280,-49 -322,-49 -349,-49 -310,-47 -282,-45 -298,-45 -338,-45 -346,-45 -326,-43 -284,-41 -314,-41 -343,-41 -302,-39 -288,-37 -330,-37 -339,-37 -318,-35 -292,-33 -306,-33 -334,-33 -299,-29 -322,-29 -326,-29 -314,-27 -311,-27 -310,-27 -314,-27" /><polyline  stroke="white" points="164,-88 166,-86 164,-88 175,-74 182,-58 174,-42 158,-35 149,-35 142,-40 130,-54 134,-71 147,-83 164,-88 153,-77 141,-65 130,-54 130,-54 137,-67 143,-80 143,-57 143,-39 156,-35 156,-69 156,-86 164,-88 173,-73 182,-58 175,-48 169,-39 169,-82 164,-88 155,-93 161,-93 161,-93 164,-93 151,-93 164,-93 171,-91 143,-91 158,-89 178,-87 170,-87 136,-87 142,-85 183,-83 154,-83 131,-83 166,-81 186,-79 178,-79 138,-79 127,-79 150,-77 189,-75 162,-75 124,-75 134,-73 174,-73 191,-71 186,-71 146,-71 122,-71 158,-69 193,-67 170,-67 130,-67 121,-67 142,-65 182,-65 194,-63 154,-63 119,-63 126,-61 166,-61 194,-59 178,-59 138,-59 119,-59 150,-57 190,-57 194,-55 162,-55 122,-55 119,-55 134,-53 174,-53 192,-51 186,-51 146,-51 120,-51 158,-49 190,-47 170,-47 130,-47 121,-47 142,-45 182,-45 188,-43 154,-43 124,-43 166,-41 187,-39 178,-39 138,-39 126,-39 150,-37 183,-35 162,-35 130,-35 174,-33 178,-31 146,-31 136,-31 158,-29 171,-27 168,-27 144,-27 159,-25 160,-25 162,-25 157,-25 159,-25 157,-25 159,-25" /><polyline class="left-outline"  points="-316,-97 -316,-95 -316,-97 -316,-100 -316,-95 -291,-94 -281,-87 -273,-69 -275,-47 -283,-34 -301,-22 -322,-22 -344,-27 -340,2 -334,23 -328,43 -316,63 -303,82 -288,92 -272,102 -256,106 -240,110 -224,109 -207,108 -193,102 -178,96 -166,84 -153,72 -143,53 -133,34 -129,15 -124,-4 -120,-23 -119,-42 -117,-60 -116,-79 -115,-97 -120,-97 -101,-94 -120,-95 -100,-90 -120,-93 -100,-85 -120,-89 -100,-82 -121,-84 -101,-78 -121,-80 -101,-74 -121,-75 -101,-70 -122,-71 -101,-66 -122,-67 -101,-62 -122,-62 -101,-58 -123,-58 -102,-54 -123,-53 -102,-50 -123,-49 -102,-45 -124,-45 -102,-41 -124,-41 -102,-37 -124,-36 -102,-32 -124,-32 -103,-28 -125,-28 -103,-23 -125,-24 -103,-19 -126,-20 -105,-14 -127,-16 -106,-10 -128,-12 -107,-6 -129,-8 -108,-1 -130,-4 -109,3 -131,0 -110,7 -131,5 -111,12 -132,9 -112,16 -133,13 -113,20 -134,17 -114,25 -135,21 -115,29 -136,25 -116,33 -137,29 -117,38 -138,32 -118,42 -140,36 -119,46 -141,40 -121,50 -143,43 -123,54 -145,46 -125,58 -147,50 -127,62 -148,53 -129,66 -150,56 -132,70 -152,59 -134,74 -154,63 -136,77 -155,66 -138,81 -157,69 -141,85 -160,72 -144,88 -163,74 -147,91 -165,77 -150,94 -168,79 -154,98 -170,81 -157,101 -173,84 -160,103 -175,86 -164,105 -178,89 -168,108 -181,91 -172,110 -185,93 -176,112 -188,94 -180,114 -191,96 -184,116 -194,97 -188,118 -198,99 -192,121 -201,100 -196,122 -204,101 -200,123 -208,103 -204,124 -211,103 -209,125 -215,104 -213,126 -218,104 -217,127 -222,104 -222,128 -225,104 -226,128 -229,104 -231,127 -232,105 -235,127 -236,105 -240,127 -240,105 -244,126 -244,104 -248,126 -247,103 -253,126 -251,102 -257,125 -254,102 -262,124 -258,101 -266,123 -261,100 -270,121 -265,99 -274,120 -268,98 -278,118 -272,97 -283,117 -275,95 -287,115 -278,93 -290,113 -281,91 -294,110 -284,89 -298,108 -286,88 -302,105 -289,86 -305,103 -292,84 -309,100 -295,82 -312,97 -298,80 -315,94 -301,77 -318,90 -303,74 -320,87 -305,71 -323,83 -307,68 -326,80 -309,65 -329,76 -311,62 -332,73 -313,59 -334,69 -315,55 -337,65 -317,52 -338,61 -319,49 -340,57 -321,45 -342,53 -323,42 -344,49 -325,39 -346,45 -326,35 -347,41 -327,31 -349,37 -328,27 -351,33 -329,24 -352,29 -330,20 -353,24 -331,16 -354,20 -332,12 -354,15 -333,8 -355,11 -335,4 -356,7 -336,0 -357,2 -336,-4 -358,-2 -337,-7 -358,-6 -338,-11 -359,-11 -338,-14 -360,-15 -339,-16 -361,-20 -339,-19 -362,-25 -339,-20 -363,-30 -339,-21 -363,-35 -339,-22 -361,-39 -339,-23 -356,-41 -336,-22 -352,-42 -333,-21 -347,-43 -332,-20 -343,-45 -331,-20 -339,-46 -330,-20 -334,-47 -329,-19 -330,-46 -328,-19 -326,-42 -327,-19 -322,-40 -323,-17 -319,-39 -319,-17 -316,-39 -314,-17 -313,-38 -310,-17 -311,-39 -305,-17 -308,-39 -301,-17 -306,-40 -297,-19 -304,-41 -293,-22 -302,-42 -289,-24 -300,-43 -285,-26 -299,-45 -282,-29 -298,-46 -278,-32 -296,-48 -276,-36 -294,-50 -274,-39 -293,-51 -271,-43 -292,-53 -270,-47 -292,-55 -270,-52 -292,-58 -269,-56 -291,-60 -269,-61 -291,-62 -269,-65 -291,-64 -269,-70 -291,-66 -270,-74 -292,-68 -272,-78 -293,-70 -274,-82 -294,-72 -276,-86 -295,-73 -278,-91 -296,-75 -281,-94 -298,-77 -284,-97 -299,-79 -288,-99 -301,-80 -293,-99 -303,-81 -298,-99 -305,-82 -302,-99 -308,-83 -307,-99 -311,-84 -311,-100 -314,-85 -316,-100 -316,-95 -338,-94 -360,-94 -359,-76 -359,-58 -358,-40 -358,-40 -332,-48 -363,-39 -332,-49 -363,-43 -334,-51 -363,-48 -335,-53 -363,-52 -335,-55 -363,-57 -335,-58 -363,-61 -335,-60 -363,-65 -335,-62 -363,-70 -335,-64 -363,-74 -335,-66 -363,-79 -335,-68 -363,-84 -335,-70 -363,-88 -334,-71 -363,-94 -334,-73 -361,-97 -333,-74 -354,-97 -331,-75 -349,-98 -330,-76 -343,-98 -329,-77 -338,-99 -327,-79 -334,-99 -325,-80 -329,-99 -323,-82 -324,-99 -320,-84 -320,-100 -317,-84 -317,-84 -316,-100 -316,-97 -316,-100 -318,-89 -318,-89 -318,-94 -298,-94 -278,-94 -258,-94 -238,-94 -218,-94 -198,-94 -178,-94 -158,-94 -138,-94 -118,-94 -101,-88 -88,-93 -83,-98 -78,-98 -82,-91 -82,-102 -86,-89 -86,-107 -90,-88 -90,-109 -94,-86 -94,-111 -98,-84 -99,-111 -102,-84 -103,-111 -107,-85 -108,-111 -111,-87 -112,-111 -115,-88 -117,-111 -120,-89 -121,-111 -124,-89 -125,-111 -128,-89 -130,-111 -133,-89 -134,-111 -137,-89 -139,-111 -141,-89 -143,-111 -146,-89 -148,-111 -150,-89 -152,-111 -154,-89 -157,-111 -159,-89 -161,-111 -163,-89 -165,-111 -168,-89 -170,-111 -172,-89 -174,-111 -177,-89 -179,-111 -181,-89 -183,-111 -185,-89 -188,-111 -190,-89 -192,-111 -194,-89 -197,-111 -199,-89 -201,-111 -203,-89 -205,-111 -208,-89 -210,-111 -212,-89 -214,-111 -217,-89 -219,-111 -221,-89 -223,-111 -225,-89 -228,-111 -230,-89 -232,-111 -234,-89 -237,-111 -239,-89 -241,-111 -243,-89 -245,-111 -248,-89 -250,-111 -252,-89 -254,-111 -257,-89 -259,-111 -261,-89 -263,-111 -265,-89 -268,-111 -270,-89 -272,-111 -274,-89 -277,-111 -279,-89 -281,-111 -283,-89 -285,-111 -288,-89 -290,-111 -292,-89 -294,-111 -296,-89 -299,-111 -301,-89 -303,-111 -305,-89 -308,-111 -309,-89 -312,-111 -314,-89 -317,-111 -317,-111 -318,-89 -318,-94 -343,-91 -352,-78 -361,-65 -382,-75 -402,-86 -402,-86 -401,-81 -404,-90 -398,-80 -399,-93 -394,-78 -395,-95 -391,-76 -391,-97 -387,-74 -388,-99 -382,-72 -384,-101 -377,-69 -381,-103 -372,-66 -377,-105 -367,-64 -374,-107 -362,-61 -370,-109 -358,-63 -366,-110 -354,-68 -361,-111 -351,-73 -357,-111 -348,-78 -352,-111 -344,-83 -348,-111 -340,-86 -343,-111 -337,-87 -339,-111 -333,-87 -334,-111 -329,-88 -330,-111 -325,-88 -325,-111 -322,-88 -321,-111 -318,-89 -318,-92 -318,-89" /><polyline class="right-outline"  points="153,-98 153,-96 153,-98 153,-101 153,-96 178,-94 193,-78 197,-59 191,-40 175,-25 159,-21 129,-23 133,1 138,26 145,41 153,56 161,72 174,84 187,96 203,103 218,109 236,111 254,108 271,106 285,99 300,92 318,74 328,58 337,41 342,20 347,-2 352,-23 353,-43 355,-62 356,-82 359,-97 359,-97 354,-97 373,-93 353,-93 372,-89 352,-89 372,-85 351,-84 372,-81 351,-80 372,-76 351,-75 372,-72 350,-71 372,-67 350,-67 371,-63 350,-62 371,-59 349,-58 371,-54 349,-53 371,-50 349,-49 371,-45 349,-45 371,-41 348,-40 371,-37 348,-36 370,-32 348,-32 370,-28 348,-28 370,-23 347,-24 370,-19 347,-20 369,-15 346,-16 367,-10 345,-12 366,-6 344,-8 365,-2 344,-4 364,3 343,0 363,7 342,4 362,11 341,9 361,16 340,13 360,20 339,17 359,24 338,21 358,29 337,25 357,33 336,29 356,37 335,32 355,42 334,36 354,46 333,40 352,50 331,43 350,54 329,47 348,58 327,50 346,62 325,53 344,66 323,56 341,70 321,59 339,73 319,62 337,77 317,66 335,81 315,69 332,85 313,72 329,88 310,75 326,91 308,77 322,94 305,79 319,97 303,82 316,100 301,84 312,103 298,87 309,106 295,89 306,109 291,90 302,111 288,92 298,113 285,94 294,115 282,95 289,116 279,97 285,118 276,98 281,119 273,100 277,121 269,101 273,123 265,102 269,124 262,102 264,125 258,103 260,125 254,103 255,126 251,104 251,126 247,104 247,126 243,105 242,126 240,105 238,126 236,106 233,126 232,106 229,126 229,105 224,126 225,105 220,126 222,104 215,126 218,104 211,124 215,102 207,123 211,101 203,121 208,99 199,119 205,98 195,118 202,97 190,116 199,96 186,114 195,94 182,113 192,93 178,110 188,91 175,108 186,88 171,105 183,86 168,102 181,83 164,99 178,81 161,96 176,79 157,94 173,76 154,91 170,74 151,87 168,71 149,83 165,69 147,80 163,65 144,76 161,62 142,72 160,58 139,68 158,55 137,65 156,52 135,61 154,48 132,57 153,45 130,53 151,41 128,49 149,38 127,45 147,34 125,41 146,31 124,37 144,27 123,32 142,24 121,28 142,20 120,24 141,16 119,20 140,12 118,15 139,8 117,11 138,4 116,6 138,0 116,2 137,-4 115,-2 136,-7 114,-7 136,-10 113,-11 135,-13 113,-16 135,-15 112,-20 134,-16 111,-25 134,-18 110,-31 134,-20 112,-35 135,-20 116,-37 137,-20 120,-39 139,-19 125,-40 140,-19 129,-42 141,-19 133,-43 142,-19 137,-44 143,-18 142,-43 144,-18 146,-41 148,-17 151,-39 152,-16 154,-39 157,-15 157,-38 161,-16 159,-39 166,-18 162,-40 170,-19 164,-40 174,-20 166,-41 178,-22 168,-42 182,-25 169,-44 185,-28 171,-46 188,-31 172,-47 191,-34 174,-49 195,-37 175,-50 196,-41 177,-52 198,-45 177,-54 199,-50 177,-57 200,-54 178,-59 201,-58 178,-61 201,-63 178,-63 200,-67 178,-65 199,-71 178,-67 199,-76 177,-69 198,-80 176,-71 195,-84 175,-72 192,-87 173,-74 189,-91 172,-76 186,-94 171,-78 184,-98 169,-79 179,-99 167,-81 174,-99 165,-81 170,-99 163,-82 165,-100 160,-83 161,-99 157,-84 156,-100 156,-95 138,-96 113,-94 114,-75 114,-56 115,-37 115,-37 139,-45 110,-35 138,-46 110,-40 137,-48 110,-44 136,-50 110,-48 134,-53 110,-53 134,-56 110,-57 134,-59 110,-62 134,-62 110,-66 134,-64 110,-70 134,-66 110,-75 134,-68 110,-79 134,-70 110,-84 135,-72 110,-89 136,-73 110,-94 137,-74 113,-97 138,-75 118,-98 139,-76 124,-99 141,-77 129,-99 142,-79 133,-100 143,-80 138,-100 145,-82 143,-100 148,-83 147,-100 151,-84 152,-101 154,-85 154,-85 156,-100 156,-97 156,-100 316,-89 316,-92 316,-89 316,-94 296,-94 276,-94 257,-94 237,-94 217,-94 197,-94 177,-94 157,-94 138,-94 118,-94 101,-88 79,-95 80,-92 78,-98 83,-90 83,-104 88,-88 87,-108 92,-87 91,-110 96,-85 95,-111 100,-84 100,-111 104,-84 104,-111 109,-86 109,-111 113,-87 113,-111 117,-89 118,-111 121,-89 122,-111 125,-89 127,-111 130,-89 131,-111 134,-89 136,-111 138,-89 140,-111 142,-89 144,-111 147,-89 149,-111 151,-89 153,-111 156,-89 158,-111 160,-89 162,-111 164,-89 167,-111 169,-89 171,-111 173,-89 176,-111 178,-89 180,-111 182,-89 184,-111 187,-89 189,-111 191,-89 193,-111 196,-89 198,-111 200,-89 202,-111 204,-89 207,-111 209,-89 211,-111 213,-89 216,-111 218,-89 220,-111 222,-89 224,-111 227,-89 229,-111 231,-89 233,-111 236,-89 238,-111 240,-89 242,-111 244,-89 247,-111 249,-89 251,-111 253,-89 256,-111 258,-89 260,-111 262,-89 264,-111 267,-89 269,-111 271,-89 273,-111 275,-89 278,-111 280,-89 282,-111 284,-89 287,-111 289,-89 291,-111 293,-89 296,-111 297,-89 300,-111 302,-89 304,-111 306,-89 309,-111 311,-89 313,-111 315,-89 317,-106 340,-106 363,-106 384,-98 384,-98 405,-91 402,-85 400,-93 398,-83 396,-95 393,-80 392,-97 389,-77 389,-99 384,-74 386,-101 379,-71 382,-103 374,-68 378,-105 369,-65 374,-107 364,-62 370,-108 359,-63 366,-110 356,-70 362,-111 353,-78 358,-111 350,-84 354,-111 346,-86 349,-111 342,-87 344,-111 338,-87 340,-111 335,-87 336,-111 332,-87 331,-111 328,-88 327,-111 324,-88 322,-111 319,-88 318,-111 318,-111 315,-89 315,-92 315,-89" /><polyline   points="-193,-127 -190,-127 -193,-127 -175,-127 -156,-127 -138,-127 -120,-127 -138,-127 -120,-127 -138,-127 -156,-127 -138,-127 -156,-127 -175,-127 -156,-127 -175,-127 -193,-127 -175,-127 -193,-127 -190,-127 -193,-127" /><polyline   points="195,-127 192,-127 195,-127 177,-127 159,-127 140,-127 122,-127 140,-127 122,-127 140,-127 159,-127 140,-127 159,-127 177,-127 159,-127 177,-127 195,-127 177,-127 195,-127 192,-127 195,-127" /></svg>