<svg viewBox="-425 -150 850 300" fill="none" stroke="black" stroke-width="4"><polyline class="left-eye" stroke="red" points="-340,-30 -337,-29 -340,-30 -322,-23 -303,-24 -285,-31 -273,-47 -270,-66 -275,-84 -288,-99 -270,-94 -251,-92 -232,-91 -212,-90 -193,-88 -174,-86 -155,-84 -136,-82 -117,-80 -118,-61 -118,-42 -120,-23 -123,-4 -125,15 -128,34 -134,52 -144,69 -157,83 -170,96 -187,106 -204,114 -223,117 -242,115 -261,110 -278,103 -294,91 -307,78 -318,62 -327,45 -334,27 -338,8 -340,-11 -340,-30 -334,-12 -329,6 -323,24 -318,42 -312,60 -307,78 -283,98 -256,111 -264,103 -291,73 -319,44 -333,29 -336,15 -338,2 -316,26 -289,55 -262,84 -234,113 -232,116 -213,115 -232,95 -259,65 -287,36 -314,7 -340,-21 -340,-30 -324,-18 -309,-6 -293,6 -277,18 -262,30 -246,42 -232,28 -218,14 -203,1 -189,-13 -174,-26 -160,-40 -146,-53 -131,-67 -117,-80 -117,-70 -118,-59 -139,-82 -150,-84 -161,-85 -148,-71 -121,-42 -118,-39 -120,-20 -123,-23 -151,-52 -178,-82 -183,-87 -194,-88 -205,-89 -180,-63 -153,-34 -126,-4 -123,-1 -125,18 -128,14 -156,-15 -183,-44 -210,-73 -226,-91 -237,-91 -247,-92 -240,-84 -213,-55 -185,-25 -158,4 -131,33 -128,36 -134,51 -160,22 -188,-7 -215,-36 -242,-65 -268,-93 -287,-98 -277,-88 -288,-99 -277,-88 -272,-76 -245,-47 -217,-17 -190,12 -163,41 -141,64 -150,76 -165,60 -193,31 -220,1 -247,-28 -271,-54 -278,-39 -250,-9 -222,20 -195,49 -168,78 -160,87 -171,97 -197,68 -225,39 -252,9 -279,-20 -288,-30 -303,-24 -282,-1 -254,28 -227,57 -200,87 -183,105 -197,111 -202,105 -230,76 -257,47 -284,17 -311,-12 -322,-23 -340,-30 -345,-39 -344,-39 -345,-38 -342,-38 -346,-35 -338,-37 -346,-29 -334,-35 -340,-31 -347,-24 -331,-34 -347,-19 -339,-24 -327,-32 -347,-14 -323,-31 -338,-17 -347,-9 -328,-24 -319,-30 -346,-5 -337,-10 -314,-29 -327,-17 -346,0 -317,-24 -309,-29 -336,-4 -345,5 -326,-11 -303,-30 -316,-17 -345,9 -336,3 -306,-24 -296,-32 -326,-4 -344,14 -344,16 -316,-11 -290,-34 -284,-38 -275,-51 -265,-65 -256,-78 -270,-88 -287,-94 -304,-101 -301,-101 -303,-100 -296,-101 -300,-98 -290,-101 -297,-95 -285,-101 -294,-93 -280,-101 -283,-99 -291,-91 -275,-101 -289,-88 -282,-92 -270,-101 -286,-85 -265,-100 -281,-85 -284,-83 -271,-92 -260,-100 -282,-79 -255,-99 -270,-85 -280,-76 -260,-92 -250,-99 -279,-72 -269,-79 -245,-99 -259,-85 -278,-68 -249,-92 -240,-98 -269,-72 -277,-64 -259,-79 -235,-98 -249,-85 -277,-59 -268,-65 -239,-92 -230,-98 -258,-72 -278,-53 -248,-79 -225,-97 -238,-86 -267,-58 -280,-47 -283,-41 -257,-65 -228,-92 -221,-97 -247,-72 -276,-45 -306,-17 -335,10 -344,18 -325,3 -296,-24 -266,-52 -237,-79 -216,-96 -227,-86 -256,-58 -286,-31 -315,-4 -342,22 -334,16 -305,-11 -276,-38 -246,-65 -217,-93 -211,-96 -236,-72 -265,-45 -295,-18 -324,10 -341,26 -314,3 -285,-24 -255,-52 -226,-79 -206,-96 -216,-86 -245,-59 -275,-31 -304,-4 -333,23 -340,30 -323,16 -294,-11 -265,-38 -235,-65 -206,-93 -201,-95 -225,-72 -255,-45 -284,-18 -313,10 -339,34 -332,30 -303,3 -274,-25 -245,-52 -215,-79 -196,-95 -205,-86 -235,-59 -264,-31 -293,-4 -322,23 -338,38 -312,16 -283,-11 -254,-38 -225,-66 -191,-94 -215,-72 -244,-45 -273,-18 -302,9 -332,37 -337,42 -322,30 -292,3 -263,-25 -234,-52 -205,-79 -186,-94 -195,-86 -224,-59 -253,-32 -282,-4 -312,23 -335,45 -331,43 -302,16 -272,-11 -243,-38 -214,-66 -181,-94 -204,-73 -233,-45 -262,-18 -292,9 -321,37 -334,49 -311,30 -282,2 -252,-25 -223,-52 -194,-79 -177,-93 -184,-86 -213,-59 -242,-32 -272,-4 -301,23 -332,52 -320,43 -291,16 -262,-11 -232,-39 -203,-66 -172,-93 -193,-73 -222,-45 -252,-18 -281,9 -310,36 -330,55 -300,30 -271,2 -241,-25 -212,-52 -183,-80 -167,-92 -173,-86 -202,-59 -231,-32 -261,-5 -290,23 -319,50 -329,59 -309,43 -280,16 -251,-11 -221,-39 -192,-66 -162,-92 -182,-73 -211,-46 -241,-18 -270,9 -299,36 -327,62 -318,57 -289,29 -260,2 -231,-25 -201,-52 -172,-80 -157,-91 -162,-87 -191,-59 -221,-32 -250,-5 -279,23 -308,50 -326,66 -298,43 -269,16 -240,-12 -211,-39 -181,-66 -152,-91 -171,-73 -201,-46 -230,-18 -259,9 -288,36 -318,63 -324,69 -308,57 -278,29 -249,2 -220,-25 -191,-53 -161,-80 -147,-90 -151,-87 -181,-59 -210,-32 -239,-5 -268,22 -298,50 -321,72 -317,70 -288,43 -258,16 -229,-12 -200,-39 -171,-66 -143,-90 -161,-73 -190,-46 -219,-19 -248,9 -278,36 -307,63 -319,75 -297,56 -268,29 -238,2 -209,-25 -180,-53 -151,-80 -138,-90 -141,-87 -170,-60 -199,-32 -228,-5 -258,22 -287,50 -317,78 -306,70 -277,43 -248,15 -218,-12 -189,-39 -160,-66 -133,-89 -150,-73 -179,-46 -208,-19 -238,9 -267,36 -296,63 -315,81 -286,56 -257,29 -228,2 -198,-26 -169,-53 -140,-80 -128,-89 -159,-60 -188,-32 -217,-5 -247,22 -276,49 -305,77 -313,84 -295,70 -266,43 -237,15 -207,-12 -178,-39 -149,-67 -123,-88 -139,-73 -168,-46 -197,-19 -227,8 -256,36 -285,63 -310,86 -304,83 -275,56 -246,29 -217,2 -187,-26 -158,-53 -129,-80 -118,-88 -148,-60 -177,-33 -207,-5 -236,22 -265,49 -294,77 -308,89 -284,70 -255,42 -226,15 -197,-12 -167,-39 -138,-67 -113,-87 -128,-74 -157,-46 -187,-19 -216,8 -245,36 -274,63 -305,91 -294,83 -264,56 -235,29 -206,1 -177,-26 -147,-53 -118,-80 -110,-86 -137,-60 -167,-33 -196,-5 -225,22 -254,49 -284,76 -303,94 -274,70 -244,42 -215,15 -186,-12 -157,-40 -127,-67 -110,-81 -117,-74 -147,-46 -176,-19 -205,8 -234,35 -264,63 -293,90 -300,97 -283,83 -254,56 -224,29 -195,1 -166,-26 -137,-53 -110,-75 -127,-60 -156,-33 -185,-6 -214,22 -244,49 -273,76 -297,99 -292,97 -263,69 -234,42 -204,15 -175,-12 -146,-40 -117,-67 -110,-70 -136,-47 -165,-19 -194,8 -224,35 -253,63 -282,90 -294,101 -272,83 -243,56 -214,28 -184,1 -155,-26 -126,-53 -110,-65 -116,-60 -145,-33 -174,-6 -203,22 -233,49 -262,76 -291,103 -281,97 -252,69 -223,42 -193,15 -164,-13 -135,-40 -111,-60 -125,-47 -154,-19 -183,8 -213,35 -242,62 -271,90 -288,105 -261,83 -232,56 -203,28 -173,1 -144,-26 -115,-54 -111,-55 -134,-33 -163,-6 -193,21 -222,49 -251,76 -280,103 -285,108 -270,96 -241,69 -212,42 -183,15 -153,-13 -124,-40 -111,-50 -114,-47 -143,-20 -173,8 -202,35 -231,62 -260,90 -282,110 -278,108 -250,83 -221,55 -192,28 -163,1 -133,-26 -111,-45 -123,-33 -153,-6 -182,21 -211,49 -240,76 -270,103 -278,111 -260,96 -230,69 -201,42 -172,14 -143,-13 -113,-40 -111,-40 -133,-20 -162,8 -191,35 -220,62 -250,89 -275,113 -269,110 -240,83 -210,55 -181,28 -152,1 -123,-27 -112,-34 -114,-32 -142,-6 -171,21 -200,48 -230,76 -259,103 -271,115 -249,96 -220,69 -190,42 -161,14 -132,-13 -112,-29 -122,-20 -151,7 -180,35 -210,62 -239,89 -268,116 -258,110 -229,82 -200,55 -170,28 -141,1 -113,-24 -131,-6 -160,21 -190,48 -219,76 -248,103 -264,118 -238,96 -209,69 -179,41 -150,14 -121,-13 -113,-18 -140,7 -169,35 -199,62 -228,89 -257,116 -260,119 -247,110 -218,82 -189,55 -159,28 -130,0 -114,-12 -120,-6 -149,21 -179,48 -208,75 -237,103 -256,120 -227,96 -198,69 -169,41 -139,14 -115,-7 -129,7 -159,34 -188,62 -217,89 -246,116 -252,121 -236,109 -207,82 -178,55 -149,28 -119,0 -115,-1 -139,21 -168,48 -197,75 -226,103 -248,122 -216,96 -187,68 -158,41 -129,14 -116,4 -119,7 -148,34 -177,62 -206,89 -236,116 -243,123 -226,109 -196,82 -167,55 -138,27 -116,10 -128,21 -157,48 -186,75 -216,102 -238,123 -206,96 -176,68 -147,41 -117,15 -137,34 -166,61 -196,89 -225,116 -233,124 -215,109 -186,82 -156,55 -127,27 -117,21 -146,48 -176,75 -205,102 -228,124 -195,95 -166,68 -136,41 -119,27 -126,34 -155,61 -185,89 -214,116 -222,124 -204,109 -175,82 -145,54 -120,34 -135,48 -165,75 -194,102 -216,123 -184,95 -155,68 -125,41 -122,40 -145,61 -174,88 -203,116 -210,122 -193,109 -164,82 -135,54 -125,48 -154,75 -183,102 -202,120 -173,95 -144,68 -129,56 -134,61 -163,88 -194,117 -182,109 -153,81 -132,62 -136,68 -143,75 -172,102 -184,113 -177,109 -162,95 -139,74 -142,77 -152,86 -161,97 -162,97 -162,97 -161,97 -142,77 -144,79 -142,77" /><polyline class="right-eye" stroke="red" points="129,-10 132,-9 129,-10 146,-5 154,-3 162,-6 178,-14 191,-25 197,-41 196,-59 188,-74 176,-87 192,-79 211,-81 230,-83 248,-85 267,-87 286,-88 305,-90 323,-91 342,-92 341,-72 340,-52 336,-32 334,-13 333,7 330,27 324,46 315,64 303,80 289,94 272,104 253,109 233,111 213,109 194,102 177,94 161,81 149,66 139,48 132,30 130,10 129,-10 134,7 140,25 145,42 151,60 156,77 173,87 189,97 205,107 201,102 172,74 144,45 133,34 131,23 130,11 145,27 174,55 202,83 229,111 248,110 232,93 203,65 175,37 147,9 129,-9 129,-10 142,0 156,11 169,21 183,31 196,41 210,52 228,43 239,28 249,11 260,-6 273,-20 287,-35 301,-49 315,-63 328,-78 342,-92 342,-92 323,-91 336,-79 341,-73 340,-55 334,-60 305,-90 287,-88 305,-70 333,-42 337,-38 335,-20 332,-24 303,-52 275,-80 268,-87 250,-85 274,-62 302,-33 330,-5 334,-1 332,17 329,13 301,-15 272,-43 244,-72 232,-83 214,-81 243,-53 271,-25 299,3 329,33 324,47 298,22 269,-7 241,-35 213,-63 196,-80 186,-81 176,-87 187,-76 195,-62 212,-45 240,-17 268,12 296,40 317,61 309,73 295,58 267,30 238,2 210,-27 197,-40 191,-26 209,-8 237,20 265,48 294,77 300,83 290,93 264,67 236,38 207,10 181,-16 168,-9 178,0 206,28 234,57 263,85 279,101 264,107 261,103 233,75 205,47 176,18 155,-3 129,-10 119,-27 120,-27 119,-25 124,-25 118,-19 128,-24 117,-13 131,-22 117,-8 127,-16 135,-21 117,-3 119,-2 138,-19 128,-9 117,2 142,-18 120,5 117,7 129,-3 146,-17 139,-10 118,12 121,11 151,-17 130,4 118,16 140,-3 157,-17 150,-10 122,18 118,21 132,11 164,-19 141,4 119,26 123,25 151,-4 172,-22 161,-11 133,17 120,30 121,32 142,10 171,-18 181,-28 182,-29 192,-43 201,-57 211,-71 194,-77 177,-82 159,-86 165,-87 162,-83 171,-88 164,-81 178,-89 167,-78 184,-90 172,-79 169,-76 182,-86 189,-91 172,-73 175,-74 195,-91 183,-79 174,-70 193,-86 201,-92 177,-68 184,-73 206,-92 194,-80 179,-65 204,-87 212,-93 185,-66 181,-62 195,-73 218,-93 205,-80 183,-59 186,-59 214,-87 223,-94 196,-66 184,-55 206,-74 229,-95 215,-81 185,-51 197,-60 225,-88 235,-95 207,-67 187,-47 216,-74 240,-96 226,-81 198,-53 186,-41 208,-60 236,-89 246,-96 244,-94 217,-67 189,-39 185,-35 181,-29 199,-46 227,-75 252,-97 237,-82 209,-54 180,-25 152,3 124,31 121,34 134,24 162,-4 190,-32 218,-61 247,-89 257,-97 228,-68 200,-40 172,-11 143,17 122,38 153,10 181,-19 210,-47 238,-75 263,-98 248,-82 219,-54 191,-26 163,2 135,31 123,42 144,24 173,-5 201,-33 229,-61 257,-90 269,-98 239,-68 211,-40 182,-12 154,16 125,46 136,37 164,9 192,-19 220,-47 249,-76 274,-99 258,-83 230,-55 202,-26 174,2 145,30 126,49 155,23 183,-5 212,-34 240,-62 268,-90 280,-99 250,-69 221,-41 193,-12 165,16 137,44 128,53 146,37 175,9 203,-20 231,-48 259,-76 286,-100 269,-83 241,-55 213,-27 184,1 156,30 129,56 138,51 166,23 194,-6 222,-34 251,-62 279,-91 291,-100 289,-98 261,-70 232,-41 204,-13 176,15 147,44 131,60 157,36 185,8 214,-20 242,-48 270,-77 297,-101 280,-84 252,-56 223,-27 195,1 167,29 139,57 133,63 148,50 177,22 205,-6 233,-35 262,-63 290,-91 303,-101 300,-98 271,-70 243,-42 215,-14 186,15 158,43 134,67 140,64 168,36 196,8 224,-21 253,-49 281,-77 308,-102 291,-84 263,-56 234,-28 206,0 178,29 149,57 136,70 159,50 187,21 216,-7 244,-35 272,-63 301,-92 314,-102 310,-99 282,-71 254,-42 226,-14 197,14 169,43 141,71 138,73 150,64 179,35 207,7 235,-21 264,-50 292,-78 320,-103 302,-85 273,-57 245,-28 217,0 188,28 160,56 140,76 144,76 170,49 198,21 227,-7 255,-36 283,-64 311,-92 325,-103 321,-99 293,-71 265,-43 236,-15 208,14 180,42 151,70 143,79 161,63 189,35 218,7 246,-22 274,-50 303,-78 330,-104 312,-86 284,-57 256,-29 228,-1 199,28 171,56 145,82 152,77 181,49 209,20 237,-8 266,-36 294,-64 322,-93 336,-104 332,-100 304,-72 275,-43 247,-15 219,13 191,41 162,70 147,85 172,63 200,34 229,6 257,-22 285,-51 313,-79 341,-104 323,-86 295,-58 267,-30 238,-1 210,27 182,55 153,84 149,88 163,76 192,48 220,20 248,-8 276,-37 305,-65 333,-93 347,-105 343,-100 314,-72 286,-44 258,-16 230,13 201,41 173,69 152,90 155,89 183,62 211,34 239,5 268,-23 296,-51 324,-79 352,-105 334,-87 306,-58 277,-30 249,-2 221,27 193,55 164,83 155,93 174,76 202,48 231,19 259,-9 287,-37 315,-66 344,-94 354,-101 325,-73 297,-44 269,-16 240,12 212,40 184,69 157,95 165,90 194,61 222,33 250,5 278,-23 307,-52 335,-80 354,-96 345,-87 316,-59 288,-31 260,-2 232,26 203,54 175,83 160,98 185,75 213,47 241,19 270,-9 298,-38 326,-66 354,-91 336,-73 308,-45 279,-17 251,12 223,40 195,68 166,96 163,100 176,89 204,61 233,33 261,4 289,-24 317,-52 346,-80 353,-86 327,-59 299,-31 271,-3 242,25 214,54 186,82 166,102 196,75 224,47 252,18 280,-10 309,-38 337,-67 353,-80 347,-74 319,-46 290,-17 262,11 234,39 205,68 177,96 169,104 187,89 215,60 243,32 272,4 300,-24 328,-53 353,-75 338,-60 310,-32 281,-3 253,25 225,53 197,82 172,106 178,103 206,74 235,46 263,18 291,-11 320,-39 348,-67 353,-70 329,-46 301,-18 273,11 244,39 216,67 188,95 175,108 198,88 226,60 254,32 282,3 311,-25 339,-53 353,-64 349,-60 321,-32 292,-4 264,24 236,53 207,81 178,110 189,102 217,74 245,45 274,17 302,-11 330,-39 353,-59 340,-47 312,-18 284,10 255,38 227,67 199,95 182,112 208,88 237,59 265,31 293,3 322,-25 350,-54 352,-54 331,-33 303,-4 275,24 246,52 218,80 190,109 185,113 200,102 228,73 256,45 285,17 313,-12 341,-40 352,-48 350,-46 323,-19 294,9 266,38 238,66 209,94 189,115 219,87 247,59 276,31 304,2 332,-26 351,-42 342,-33 314,-5 286,23 257,52 229,80 201,108 192,116 210,101 239,73 267,44 295,16 324,-12 349,-35 333,-19 305,9 277,37 249,66 220,94 196,118 202,115 230,87 258,58 287,30 315,2 343,-27 348,-29 325,-5 296,23 268,51 240,79 211,108 200,119 221,100 250,72 278,44 306,16 334,-13 348,-23 344,-20 316,8 288,37 259,65 231,93 204,120 212,114 241,86 269,58 297,30 326,1 347,-18 335,-6 307,22 279,51 251,79 222,107 208,121 232,100 260,72 289,43 317,15 347,-12 327,8 298,36 270,64 242,93 213,122 223,114 252,86 280,57 308,29 336,1 347,-7 318,22 290,50 261,78 233,107 217,123 243,99 271,71 299,43 328,15 346,-1 337,7 309,36 281,64 253,92 224,121 221,123 234,113 262,85 291,57 319,28 346,4 329,21 300,50 272,78 244,106 226,124 254,99 282,71 310,42 338,14 345,10 320,35 292,63 263,92 235,120 231,124 245,113 273,84 301,56 330,28 345,15 339,21 311,49 283,77 255,106 236,124 264,98 293,70 321,42 344,21 331,35 302,63 274,91 246,119 242,124 256,112 284,84 312,56 340,27 343,28 322,48 294,77 265,105 248,123 275,98 303,70 332,41 341,34 313,62 285,91 257,119 254,122 266,112 295,83 323,55 339,42 333,48 304,76 276,105 260,121 286,97 314,69 335,50 324,62 296,90 268,118 277,111 305,83 334,55 331,60 315,76 287,104 276,115 297,97 326,67 322,74 307,90 287,110 294,103 303,96 302,96 294,103 296,101 294,103" /><polyline  stroke="white" points="-291,-84 -291,-81 -291,-84 -289,-66 -293,-50 -308,-41 -316,-42 -323,-48 -331,-62 -329,-71 -324,-77 -317,-84 -309,-84 -291,-84 -305,-75 -318,-67 -332,-58 -332,-58 -325,-71 -317,-84 -317,-48 -317,-43 -303,-43 -303,-60 -303,-84 -291,-84 -289,-72 -288,-61 -288,-61 -288,-61 -291,-84 -308,-93 -305,-93 -305,-93 -302,-93 -315,-93 -302,-93 -295,-91 -322,-91 -323,-89 -289,-87 -311,-87 -329,-87 -299,-85 -284,-83 -327,-83 -334,-83 -315,-81 -281,-79 -303,-79 -338,-79 -331,-77 -291,-77 -279,-75 -319,-75 -341,-75 -307,-73 -277,-71 -295,-71 -335,-71 -342,-71 -323,-69 -283,-69 -276,-67 -311,-67 -343,-67 -339,-65 -299,-65 -275,-63 -287,-63 -327,-63 -344,-63 -315,-61 -275,-59 -303,-59 -344,-59 -331,-57 -291,-57 -277,-55 -319,-55 -343,-55 -307,-53 -278,-51 -295,-51 -335,-51 -342,-51 -323,-49 -283,-49 -280,-47 -311,-47 -340,-47 -299,-45 -283,-43 -287,-43 -327,-43 -337,-43 -315,-41 -287,-39 -303,-39 -333,-39 -292,-35 -319,-35 -327,-35 -322,-33 -307,-33 -296,-33 -306,-31 -307,-31 -306,-31 -307,-31 -306,-31" /><polyline  stroke="white" points="163,-74 164,-71 163,-74 170,-58 173,-50 172,-42 160,-29 143,-29 132,-41 133,-58 146,-69 163,-74 152,-65 141,-55 130,-46 130,-46 137,-57 145,-69 145,-48 145,-29 159,-29 159,-60 159,-73 163,-74 169,-60 174,-47 174,-47 174,-47 163,-74 151,-78 156,-78 156,-78 159,-78 147,-78 159,-78 166,-76 145,-76 140,-76 157,-74 173,-72 169,-72 133,-72 141,-70 177,-68 153,-68 128,-68 165,-66 180,-64 177,-64 137,-64 125,-64 149,-62 183,-60 161,-60 122,-60 133,-58 173,-58 184,-56 145,-56 121,-56 157,-54 186,-52 169,-52 129,-52 119,-52 141,-50 181,-50 186,-48 153,-48 119,-48 125,-46 165,-46 186,-44 177,-44 137,-44 119,-44 149,-42 184,-40 161,-40 120,-40 133,-38 173,-38 182,-36 145,-36 121,-36 157,-34 180,-32 169,-32 129,-32 124,-32 141,-30 177,-28 153,-28 128,-28 165,-26 173,-24 137,-24 132,-24 149,-22 166,-20 161,-20 140,-20 153,-18 155,-18 153,-18" /><polyline class="left-outline"  points="-117,-84 -116,-82 -118,-61 -120,-41 -121,-21 -123,0 -125,20 -133,42 -141,63 -155,83 -173,99 -189,107 -206,114 -231,118 -259,112 -276,103 -293,93 -306,78 -318,63 -325,43 -332,23 -336,-1 -340,-25 -337,-38 -330,-47 -336,-53 -336,-71 -330,-80 -322,-88 -313,-91 -293,-85 -283,-67 -285,-52 -299,-37 -315,-36 -330,-47 -330,-47 -335,-25 -330,-52 -333,-24 -326,-49 -331,-23 -322,-46 -328,-22 -320,-43 -324,-20 -317,-41 -319,-18 -315,-41 -315,-18 -312,-41 -311,-18 -310,-41 -306,-19 -307,-41 -302,-19 -305,-41 -297,-20 -302,-41 -293,-21 -301,-42 -289,-22 -299,-44 -286,-25 -297,-45 -282,-28 -296,-47 -278,-30 -294,-48 -275,-33 -293,-50 -272,-37 -291,-51 -270,-41 -290,-53 -268,-45 -289,-55 -267,-49 -289,-57 -267,-54 -288,-59 -266,-58 -287,-62 -266,-63 -287,-64 -266,-67 -288,-66 -266,-71 -289,-67 -267,-76 -289,-69 -269,-80 -290,-71 -271,-84 -291,-72 -272,-88 -292,-74 -275,-92 -293,-76 -278,-95 -294,-78 -282,-97 -295,-80 -287,-98 -298,-81 -292,-98 -300,-82 -296,-98 -303,-83 -301,-99 -306,-84 -305,-99 -309,-85 -310,-99 -312,-86 -314,-99 -315,-85 -319,-100 -319,-84 -323,-100 -321,-83 -328,-100 -323,-80 -333,-100 -325,-79 -337,-100 -326,-77 -342,-100 -327,-76 -348,-100 -328,-75 -353,-100 -329,-74 -358,-98 -330,-73 -360,-94 -331,-72 -361,-90 -331,-71 -361,-85 -331,-69 -361,-79 -331,-67 -360,-74 -331,-66 -360,-70 -331,-64 -359,-65 -331,-61 -359,-61 -331,-58 -358,-56 -331,-54 -358,-52 -330,-49 -357,-47 -331,-45 -357,-43 -332,-41 -356,-38 -333,-36 -356,-34 -333,-32 -355,-29 -334,-27 -355,-25 -334,-23 -355,-21 -334,-19 -354,-16 -333,-15 -354,-12 -333,-11 -353,-7 -332,-7 -353,-3 -331,-3 -352,2 -331,1 -352,6 -330,5 -351,10 -330,9 -351,15 -329,13 -350,19 -329,17 -350,24 -328,21 -349,28 -327,25 -348,32 -325,28 -346,36 -324,32 -345,41 -323,36 -343,45 -321,40 -342,49 -320,43 -340,53 -319,46 -339,57 -318,50 -337,62 -316,54 -336,66 -315,58 -334,70 -314,61 -331,73 -311,64 -329,77 -309,67 -326,81 -306,70 -324,85 -304,73 -321,88 -302,75 -319,92 -300,78 -316,96 -297,80 -313,99 -295,83 -310,102 -293,86 -306,104 -290,89 -302,107 -287,91 -299,109 -284,93 -295,112 -281,94 -291,115 -278,96 -288,117 -275,98 -284,119 -271,99 -280,121 -268,101 -275,122 -265,103 -271,124 -261,105 -267,126 -258,106 -263,127 -255,108 -259,129 -251,108 -255,130 -247,109 -251,132 -244,110 -246,133 -241,111 -242,133 -237,111 -237,133 -234,112 -233,133 -230,113 -228,133 -227,112 -224,133 -223,112 -219,132 -220,111 -215,132 -216,111 -211,132 -213,110 -206,131 -209,110 -202,130 -205,109 -198,128 -202,107 -193,127 -198,106 -189,126 -195,104 -185,124 -192,103 -181,123 -189,101 -177,121 -185,100 -173,120 -182,98 -169,117 -179,97 -165,114 -175,95 -162,112 -173,93 -158,109 -170,90 -155,106 -168,88 -151,104 -165,86 -148,101 -162,83 -145,97 -160,81 -142,94 -157,78 -140,90 -155,75 -137,87 -153,72 -134,83 -151,69 -132,79 -149,66 -129,76 -146,63 -127,72 -145,60 -124,68 -143,56 -123,64 -142,52 -121,60 -141,49 -119,56 -140,45 -117,52 -138,42 -115,48 -137,38 -114,44 -136,35 -113,39 -134,31 -112,35 -133,27 -111,31 -132,23 -110,26 -130,19 -110,22 -130,15 -109,17 -129,11 -108,13 -129,7 -107,9 -129,3 -106,4 -128,-1 -105,0 -128,-5 -105,-4 -127,-9 -104,-9 -127,-14 -103,-13 -127,-18 -103,-18 -126,-22 -103,-22 -126,-26 -102,-27 -125,-31 -102,-31 -125,-35 -102,-35 -125,-39 -102,-40 -124,-43 -101,-44 -124,-47 -101,-49 -124,-51 -101,-53 -123,-55 -101,-58 -123,-59 -100,-62 -122,-63 -101,-66 -122,-67 -103,-71 -122,-71 -105,-75 -121,-75 -108,-79 -121,-79 -111,-83 -111,-83 -120,-84 -117,-84 -120,-84 -337,-93 -340,-93 -337,-93 -351,-93 -365,-94 -378,-94 -379,-94 -379,-94 -378,-94 -378,-99 -360,-99 -343,-99 -325,-99 -304,-95 -284,-93 -264,-92 -243,-90 -223,-88 -203,-87 -182,-85 -162,-83 -142,-81 -121,-80 -101,-78 -85,-83 -85,-83 -67,-85 -72,-81 -74,-87 -76,-80 -78,-89 -80,-79 -83,-91 -85,-78 -87,-92 -89,-76 -91,-92 -94,-75 -96,-93 -98,-74 -100,-93 -102,-73 -104,-93 -107,-74 -108,-94 -111,-74 -112,-94 -116,-74 -116,-95 -120,-75 -121,-95 -125,-75 -125,-95 -129,-75 -129,-96 -133,-76 -134,-96 -138,-76 -138,-97 -142,-77 -143,-97 -147,-77 -147,-98 -151,-77 -151,-98 -156,-78 -156,-99 -160,-78 -160,-99 -164,-78 -165,-99 -169,-79 -169,-100 -173,-79 -174,-100 -178,-80 -178,-101 -182,-80 -182,-101 -187,-80 -187,-102 -191,-81 -191,-102 -195,-81 -196,-103 -200,-81 -200,-103 -204,-82 -205,-103 -209,-82 -209,-104 -213,-82 -213,-104 -218,-83 -218,-105 -222,-83 -222,-105 -226,-84 -227,-106 -231,-84 -231,-106 -235,-84 -236,-106 -240,-85 -240,-107 -244,-85 -244,-107 -249,-85 -249,-108 -253,-86 -253,-108 -257,-86 -258,-109 -262,-87 -262,-109 -266,-87 -267,-109 -271,-87 -271,-110 -275,-88 -275,-110 -279,-88 -280,-110 -284,-88 -284,-111 -288,-89 -289,-111 -293,-89 -293,-111 -297,-89 -297,-112 -302,-90 -301,-112 -306,-90 -306,-112 -310,-91 -310,-113 -315,-92 -315,-113 -319,-93 -319,-113 -323,-94 -324,-114 -327,-94 -328,-114 -332,-94 -332,-114 -336,-93 -337,-115 -337,-115 -340,-93 -340,-98 -359,-99 -378,-99 -378,-94 -377,-118 -375,-94 -372,-117 -371,-94 -368,-117 -367,-94 -363,-117 -362,-94 -359,-116 -358,-94 -355,-116 -353,-94 -350,-116 -349,-94 -346,-115 -344,-94 -341,-115 -340,-93 -340,-96 -340,-93" /><polyline class="right-outline"  points="123,-84 121,-82 123,-84 123,-84 106,-71 103,-66 104,-48 105,-30 106,-11 110,7 113,26 117,44 128,66 139,87 152,100 165,113 187,125 206,130 225,134 241,132 257,131 273,124 289,118 303,108 317,99 327,83 338,68 343,52 349,35 355,19 356,0 358,-20 359,-39 361,-59 363,-78 364,-98 347,-96 347,-96 342,-100 355,-100 342,-96 362,-97 341,-91 364,-93 341,-87 364,-88 341,-84 363,-84 341,-80 363,-79 340,-77 363,-75 340,-73 362,-71 340,-69 362,-66 339,-65 361,-62 339,-61 361,-57 339,-57 361,-53 339,-52 360,-48 338,-48 360,-44 338,-43 360,-40 338,-39 359,-35 337,-35 359,-31 337,-30 358,-26 337,-26 358,-22 336,-21 358,-17 336,-17 357,-13 336,-13 357,-9 335,-9 356,-4 335,-5 356,0 335,-1 356,5 334,4 355,9 333,7 355,14 332,11 354,18 331,15 353,22 330,19 352,27 329,23 350,31 328,27 349,35 327,31 348,39 326,34 346,43 325,38 345,48 324,42 343,52 323,46 342,56 322,50 340,60 320,53 339,65 318,57 337,69 316,60 335,72 314,63 332,76 312,66 330,80 310,69 327,83 309,72 325,87 307,75 322,91 304,78 320,95 301,80 317,98 299,83 314,101 296,85 310,104 293,87 306,106 291,89 303,109 288,91 299,111 285,94 296,114 282,96 292,116 279,97 288,119 275,99 284,120 272,100 280,122 268,102 276,123 265,103 271,125 262,105 267,127 258,106 263,128 255,108 259,130 251,109 255,131 248,111 250,131 244,111 246,132 241,111 241,132 237,111 237,133 234,111 233,133 231,111 228,134 227,112 224,134 223,112 219,133 220,111 215,132 216,110 211,131 213,109 206,130 209,109 202,129 206,108 198,128 202,107 193,127 199,106 189,126 195,104 185,124 192,103 181,122 189,101 177,120 186,99 173,118 183,98 169,116 180,96 165,113 177,94 162,110 174,91 159,107 172,89 156,104 169,86 152,101 166,84 149,98 164,82 146,95 161,79 143,91 159,76 140,88 157,73 137,85 154,70 135,81 152,67 133,77 150,64 131,73 148,61 129,69 147,57 127,65 145,54 125,61 144,50 123,57 143,46 121,53 142,43 119,49 140,39 117,45 139,35 116,41 138,32 115,36 136,28 114,32 135,24 114,27 134,20 113,23 133,16 112,19 132,12 111,14 132,8 110,10 131,5 109,6 131,2 109,1 130,-2 108,-3 130,-6 107,-8 129,-11 106,-12 131,-15 106,-17 132,-19 106,-21 134,-24 105,-25 135,-28 105,-30 137,-32 105,-34 135,-36 105,-39 133,-40 104,-43 131,-44 104,-48 131,-47 104,-52 131,-49 104,-57 131,-52 103,-62 132,-54 104,-66 132,-55 106,-70 132,-57 109,-73 132,-59 113,-76 134,-60 116,-79 135,-62 120,-82 136,-63 136,-63 123,-84 126,-80 144,-80 161,-80 178,-80 189,-68 194,-44 191,-34 181,-19 169,-11 146,-9 131,-15 129,-10 137,-32 131,-9 139,-31 135,-8 142,-30 139,-6 145,-29 143,-5 147,-27 148,-4 150,-26 152,-4 152,-27 156,-5 155,-27 161,-5 157,-28 165,-6 160,-28 169,-6 162,-29 173,-8 164,-29 177,-10 166,-30 181,-13 167,-32 184,-15 169,-34 187,-19 170,-35 190,-22 171,-37 192,-26 173,-38 194,-30 174,-40 196,-34 174,-42 197,-38 175,-44 198,-42 175,-46 198,-47 175,-49 197,-51 175,-51 196,-56 175,-53 195,-60 175,-55 195,-64 173,-56 194,-69 172,-58 192,-73 171,-60 189,-76 170,-61 186,-79 169,-63 183,-83 167,-65 179,-84 166,-67 174,-85 164,-69 169,-85 161,-70 164,-85 158,-70 159,-85 156,-71 155,-85 152,-72 150,-86 149,-72 146,-86 146,-71 141,-86 143,-70 137,-86 141,-68 132,-86 139,-66 128,-85 138,-64 123,-84 125,-82 123,-84 337,-93 340,-93 337,-93 351,-93 365,-94 378,-94 379,-94 379,-94 378,-94 378,-99 360,-99 343,-99 325,-99 304,-95 284,-93 264,-92 243,-90 223,-88 203,-87 182,-85 162,-83 142,-81 121,-80 101,-78 85,-83 85,-83 68,-82 72,-86 74,-80 76,-88 78,-79 80,-90 83,-78 85,-91 87,-77 89,-92 91,-76 94,-92 96,-75 98,-93 100,-74 102,-93 105,-73 106,-94 109,-74 110,-94 114,-74 114,-94 118,-75 118,-95 122,-75 123,-95 127,-75 127,-96 131,-76 132,-96 136,-76 136,-97 140,-76 141,-97 145,-77 145,-97 149,-77 149,-98 153,-77 154,-98 158,-78 158,-99 162,-78 163,-99 167,-79 167,-100 171,-79 171,-100 176,-79 176,-101 180,-80 180,-101 184,-80 185,-101 189,-80 189,-102 193,-81 194,-102 198,-81 198,-103 202,-82 202,-103 207,-82 207,-104 211,-82 211,-104 215,-83 216,-104 220,-83 220,-105 224,-83 225,-105 229,-84 229,-106 233,-84 233,-106 238,-85 238,-107 242,-85 242,-107 246,-85 247,-108 251,-86 251,-108 255,-86 256,-108 260,-86 260,-109 264,-87 264,-109 268,-87 269,-110 273,-87 273,-110 277,-88 278,-110 282,-88 282,-111 286,-89 286,-111 290,-89 291,-111 295,-89 295,-112 299,-90 299,-112 304,-90 304,-112 308,-91 308,-112 312,-92 312,-113 317,-92 317,-113 321,-93 321,-113 325,-94 326,-114 329,-94 330,-114 334,-94 335,-114 338,-93 339,-110 359,-111 379,-113 379,-118 377,-94 375,-117 373,-94 370,-117 369,-94 366,-117 364,-94 361,-116 360,-94 357,-116 355,-94 352,-116 351,-94 348,-115 347,-94 344,-115 342,-94 339,-115 339,-115 338,-93 338,-96 338,-93" /><polyline   points="113,-126 116,-126 113,-126 130,-128 148,-130 165,-132 182,-134 165,-132 182,-134 165,-132 148,-130 165,-132 148,-130 130,-128 148,-130 130,-128 113,-126 130,-128 113,-126 116,-126 113,-126" /><polyline   points="-113,-126 -116,-126 -113,-126 -130,-128 -146,-130 -163,-132 -180,-134 -163,-132 -180,-134 -163,-132 -146,-130 -163,-132 -146,-130 -130,-128 -146,-130 -130,-128 -113,-126 -130,-128 -113,-126 -116,-126 -113,-126" /></svg>