<svg viewBox="-425 -150 850 300" fill="none" stroke="black" stroke-width="4"><polyline class="left-eye" stroke="red" points="-286,-84 -283,-85 -286,-84 -269,-89 -251,-90 -234,-91 -216,-92 -198,-92 -180,-92 -162,-92 -145,-90 -127,-89 -126,-69 -124,-49 -126,-30 -128,-10 -132,10 -136,29 -141,48 -150,66 -161,82 -176,96 -193,106 -211,114 -231,117 -250,115 -270,111 -288,104 -303,91 -316,76 -326,59 -335,41 -339,22 -341,2 -343,-18 -325,-10 -307,-5 -291,-16 -278,-30 -274,-48 -276,-68 -286,-84 -272,-71 -257,-57 -243,-44 -229,-31 -215,-17 -211,-8 -211,1 -217,20 -229,34 -248,41 -266,47 -278,62 -290,78 -301,94 -284,101 -267,108 -250,115 -253,113 -282,85 -311,58 -337,34 -339,19 -341,4 -336,8 -307,36 -277,63 -248,90 -220,116 -210,113 -199,110 -214,95 -244,68 -273,41 -302,13 -329,-11 -313,-7 -305,-5 -299,-10 -268,18 -239,45 -210,73 -181,99 -166,87 -176,78 -205,50 -235,23 -264,-4 -284,-23 -275,-41 -259,-27 -230,1 -201,28 -172,55 -154,72 -149,63 -144,54 -167,33 -196,6 -226,-22 -255,-49 -277,-69 -286,-84 -266,-85 -246,-85 -226,-86 -206,-86 -187,-87 -167,-88 -147,-88 -127,-89 -126,-75 -125,-61 -145,-79 -158,-92 -173,-92 -187,-92 -179,-84 -149,-57 -125,-34 -127,-22 -128,-10 -154,-34 -183,-62 -212,-89 -216,-92 -229,-91 -243,-91 -217,-66 -188,-39 -158,-12 -132,12 -135,23 -138,34 -163,10 -192,-17 -221,-44 -251,-71 -269,-89 -286,-84 -303,-91 -301,-91 -303,-88 -294,-92 -300,-85 -285,-94 -290,-90 -297,-82 -276,-98 -294,-78 -287,-82 -269,-99 -278,-90 -291,-75 -263,-99 -285,-75 -289,-71 -276,-82 -256,-100 -266,-90 -287,-67 -283,-68 -256,-97 -250,-100 -273,-75 -286,-62 -264,-82 -243,-101 -254,-89 -281,-60 -284,-56 -271,-67 -244,-97 -237,-101 -261,-75 -284,-51 -279,-53 -252,-82 -231,-101 -242,-89 -269,-60 -284,-44 -259,-67 -232,-96 -224,-101 -249,-74 -277,-45 -288,-33 -292,-27 -303,-16 -314,-6 -325,5 -337,-6 -347,-21 -356,-35 -354,-34 -356,-32 -350,-32 -355,-27 -345,-30 -354,-21 -341,-28 -353,-15 -342,-24 -337,-26 -352,-10 -350,-9 -334,-23 -340,-17 -351,-4 -331,-20 -348,-2 -351,2 -338,-9 -326,-18 -350,7 -345,6 -321,-18 -336,-2 -350,13 -326,-9 -315,-17 -343,13 -349,19 -333,6 -309,-17 -324,-1 -348,25 -341,21 -314,-9 -305,-19 -299,-21 -304,-16 -331,13 -347,31 -322,6 -294,-23 -267,-52 -240,-82 -218,-102 -230,-89 -257,-60 -284,-30 -312,-1 -339,28 -347,36 -329,21 -302,-8 -275,-38 -247,-67 -220,-96 -212,-102 -238,-74 -265,-45 -292,-16 -319,14 -345,41 -337,36 -310,6 -282,-23 -255,-52 -228,-82 -206,-102 -218,-89 -245,-60 -272,-30 -300,-1 -327,28 -343,46 -317,21 -290,-8 -263,-38 -235,-67 -208,-96 -200,-102 -226,-74 -253,-45 -280,-16 -307,14 -335,43 -342,50 -325,36 -298,6 -270,-23 -243,-52 -216,-81 -193,-102 -206,-89 -233,-59 -261,-30 -288,-1 -315,28 -339,55 -333,50 -305,21 -278,-8 -251,-37 -223,-67 -196,-96 -187,-102 -214,-74 -241,-45 -268,-15 -296,14 -323,43 -337,59 -313,36 -286,7 -258,-23 -231,-52 -204,-81 -181,-102 -194,-88 -221,-59 -249,-30 -276,-1 -303,29 -330,58 -335,63 -321,51 -293,21 -266,-8 -239,-37 -212,-66 -184,-96 -175,-102 -202,-74 -229,-44 -256,-15 -284,14 -311,43 -333,67 -328,65 -301,36 -274,7 -246,-22 -219,-52 -192,-81 -169,-102 -182,-88 -209,-59 -237,-30 -264,0 -291,29 -319,58 -330,71 -309,51 -281,22 -254,-8 -227,-37 -200,-66 -172,-95 -163,-102 -190,-73 -217,-44 -244,-15 -272,14 -299,44 -328,75 -316,66 -289,36 -262,7 -235,-22 -207,-51 -180,-81 -158,-102 -170,-88 -197,-59 -225,-29 -252,0 -279,29 -307,58 -326,79 -297,51 -269,22 -242,-7 -215,-37 -188,-66 -160,-95 -152,-101 -178,-73 -205,-44 -232,-15 -260,15 -287,44 -314,73 -323,83 -304,66 -277,36 -250,7 -223,-22 -195,-51 -168,-81 -146,-101 -158,-88 -186,-59 -213,-29 -240,0 -267,29 -295,58 -320,86 -312,80 -285,51 -258,22 -230,-7 -203,-37 -176,-66 -148,-95 -141,-100 -166,-73 -193,-44 -220,-15 -248,15 -275,44 -302,73 -318,90 -292,66 -265,37 -238,7 -211,-22 -183,-51 -156,-80 -135,-100 -146,-88 -174,-58 -201,-29 -228,0 -255,29 -283,59 -310,88 -315,93 -300,81 -273,51 -246,22 -218,-7 -191,-36 -164,-66 -136,-95 -129,-99 -154,-73 -181,-44 -209,-14 -236,15 -263,44 -290,73 -312,97 -308,95 -281,66 -253,37 -226,8 -199,-22 -171,-51 -144,-80 -124,-99 -134,-87 -162,-58 -189,-29 -216,0 -243,30 -271,59 -298,88 -309,100 -288,81 -261,52 -234,22 -206,-7 -179,-36 -152,-65 -125,-95 -118,-98 -142,-73 -169,-43 -197,-14 -224,15 -251,44 -278,74 -306,103 -296,96 -269,66 -241,37 -214,8 -187,-21 -159,-51 -132,-80 -116,-94 -122,-87 -150,-58 -177,-29 -204,1 -232,30 -259,59 -286,88 -302,106 -276,81 -249,52 -222,23 -194,-7 -167,-36 -140,-65 -117,-87 -130,-72 -157,-43 -185,-14 -212,15 -239,45 -266,74 -294,103 -299,108 -284,96 -257,67 -229,37 -202,8 -175,-21 -148,-50 -120,-80 -116,-81 -138,-58 -165,-28 -192,1 -220,30 -247,59 -274,89 -295,111 -264,81 -237,52 -210,23 -183,-7 -155,-36 -128,-65 -116,-75 -118,-72 -145,-43 -173,-14 -200,15 -227,45 -255,74 -282,103 -292,114 -272,96 -245,67 -217,37 -190,8 -163,-21 -136,-50 -115,-69 -126,-58 -153,-28 -180,1 -208,30 -235,59 -262,89 -287,116 -280,111 -252,81 -225,52 -198,23 -171,-6 -143,-36 -115,-63 -133,-43 -161,-14 -188,16 -215,45 -243,74 -270,103 -283,117 -260,96 -233,67 -206,38 -178,8 -151,-21 -124,-50 -114,-57 -141,-28 -168,1 -196,30 -223,60 -250,89 -278,119 -268,111 -240,82 -213,52 -186,23 -159,-6 -131,-35 -114,-51 -122,-43 -149,-13 -176,16 -203,45 -231,74 -258,104 -274,121 -248,96 -221,67 -194,38 -166,9 -139,-21 -114,-44 -129,-28 -156,1 -184,31 -211,60 -238,89 -266,118 -269,122 -256,111 -229,82 -201,53 -174,23 -147,-6 -119,-35 -115,-37 -137,-13 -164,16 -191,45 -219,75 -246,104 -264,123 -236,97 -209,67 -182,38 -154,9 -127,-20 -115,-30 -117,-28 -145,2 -172,31 -199,60 -226,89 -254,119 -259,124 -244,111 -217,82 -189,53 -162,24 -135,-6 -116,-23 -125,-13 -152,16 -179,46 -207,75 -234,104 -254,125 -224,97 -197,68 -170,38 -142,9 -117,-15 -133,2 -160,31 -187,60 -214,90 -242,119 -248,126 -232,111 -205,82 -177,53 -150,24 -123,-6 -118,-7 -140,16 -168,46 -195,75 -222,104 -243,127 -212,97 -185,68 -158,38 -130,9 -119,0 -148,31 -175,60 -203,90 -230,119 -237,127 -220,112 -193,82 -165,53 -138,24 -121,9 -128,17 -156,46 -183,75 -210,104 -231,127 -200,97 -173,68 -146,39 -122,17 -136,31 -163,61 -191,90 -218,119 -225,127 -208,112 -181,83 -153,53 -126,24 -124,25 -144,46 -171,75 -198,105 -218,126 -188,97 -161,68 -134,39 -125,30 -127,34 -151,61 -179,90 -206,119 -211,125 -196,112 -169,83 -142,54 -128,39 -130,44 -132,46 -159,76 -186,105 -202,122 -176,98 -149,68 -131,49 -133,54 -139,61 -167,90 -193,118 -187,115 -184,112 -157,83 -136,61 -139,68 -147,76 -174,105 -180,111 -171,105 -165,98 -143,74 -150,84 -157,93 -158,94 -157,93 -158,94" /><polyline class="right-eye" stroke="red" points="129,-21 132,-20 129,-21 145,-13 162,-9 178,-17 191,-28 197,-44 198,-62 191,-78 181,-92 200,-92 218,-92 237,-91 256,-90 275,-89 293,-86 312,-83 331,-82 349,-78 347,-59 346,-39 344,-20 342,0 339,19 334,38 327,56 318,73 305,88 291,101 273,110 254,114 235,116 215,115 197,110 180,100 165,88 153,72 144,55 138,37 133,18 131,-2 129,-21 135,-5 141,12 147,28 153,45 159,61 165,78 171,94 171,94 162,79 154,65 146,51 137,36 142,41 172,67 202,94 226,116 240,115 254,114 236,98 207,71 177,44 147,17 131,3 129,-21 145,-10 161,2 177,13 193,25 209,36 225,47 240,36 247,30 249,21 253,3 258,-15 262,-23 270,-28 286,-38 301,-48 317,-58 333,-68 349,-78 349,-78 331,-81 312,-83 340,-59 347,-52 346,-39 345,-26 335,-36 305,-62 276,-89 259,-90 243,-91 270,-66 300,-39 330,-12 342,-1 340,11 338,23 325,11 295,-16 266,-42 236,-69 210,-92 181,-92 187,-87 181,-92 187,-87 188,-84 201,-73 231,-46 261,-19 290,8 320,34 332,45 320,34 290,8 261,-19 231,-46 201,-73 188,-84 196,-67 199,-58 198,-48 226,-23 256,4 286,31 315,58 322,64 317,73 311,81 281,54 251,28 221,1 190,-27 182,-21 173,-15 187,-3 216,24 246,51 276,78 297,96 288,102 279,108 271,101 241,74 212,47 182,21 152,-6 144,-14 129,-21 116,-27 116,-31 117,-31 116,-29 119,-29 116,-26 127,-31 118,-21 132,-30 119,-16 124,-18 136,-28 120,-10 140,-26 127,-11 120,-4 136,-18 144,-24 121,2 129,-3 148,-22 139,-11 122,8 148,-18 153,-20 131,4 122,14 141,-3 158,-19 151,-11 123,20 134,12 162,-20 167,-22 143,4 124,25 125,28 127,26 153,-3 171,-24 178,-29 191,-43 204,-58 211,-65 212,-74 198,-86 180,-94 161,-99 168,-100 164,-96 175,-101 167,-92 181,-102 173,-93 170,-89 188,-102 173,-86 194,-102 185,-93 176,-83 200,-102 179,-80 188,-85 205,-102 197,-93 182,-75 211,-102 190,-78 184,-71 200,-85 217,-101 209,-93 186,-67 192,-70 223,-101 202,-78 187,-62 212,-85 229,-101 221,-93 194,-63 189,-57 204,-70 235,-101 214,-78 188,-49 197,-55 223,-85 240,-101 233,-93 206,-63 185,-39 173,-26 161,-12 150,2 138,16 126,30 136,19 163,-11 189,-40 216,-70 246,-100 226,-78 199,-48 172,-18 145,12 126,33 155,4 182,-26 209,-55 235,-85 252,-100 245,-92 218,-63 192,-33 165,-3 138,26 128,38 148,19 175,-11 201,-40 228,-70 257,-99 238,-78 211,-48 184,-18 157,12 129,43 140,34 167,4 194,-26 221,-55 247,-85 263,-99 257,-92 230,-63 204,-33 177,-3 150,26 131,48 160,19 187,-11 213,-40 240,-70 269,-99 250,-78 223,-48 196,-18 169,12 143,41 133,53 152,34 179,4 206,-26 233,-55 259,-85 275,-98 269,-92 242,-63 216,-33 189,-3 162,26 135,57 145,49 172,19 199,-11 225,-40 252,-70 280,-98 262,-78 235,-48 208,-18 181,12 155,41 136,62 139,62 164,34 191,4 218,-26 245,-55 271,-85 286,-97 281,-92 254,-63 228,-33 201,-3 174,26 147,56 138,66 157,49 184,19 210,-11 237,-40 264,-70 291,-96 274,-78 247,-48 220,-18 193,12 167,41 140,71 150,64 176,34 203,4 230,-26 257,-55 283,-85 296,-95 293,-92 266,-63 240,-33 213,-3 186,26 159,56 143,75 169,49 196,19 222,-11 249,-40 276,-70 301,-94 286,-78 259,-48 232,-18 205,12 179,41 152,71 145,78 162,64 188,34 215,4 242,-26 269,-55 295,-85 306,-93 278,-63 252,-33 225,-3 198,27 171,56 148,82 154,79 181,49 208,19 234,-11 261,-40 288,-70 312,-93 298,-78 271,-48 244,-18 217,12 191,41 164,71 150,86 174,64 200,34 227,4 254,-25 281,-55 307,-85 317,-93 290,-63 264,-33 237,-3 210,27 183,56 156,86 153,90 166,79 193,49 220,19 246,-11 273,-40 300,-70 323,-92 310,-77 283,-48 256,-18 229,12 203,41 176,71 156,93 186,64 212,34 239,4 266,-25 293,-55 319,-85 329,-92 302,-63 275,-33 249,-3 222,27 195,56 168,86 159,96 178,79 205,49 232,19 258,-11 285,-40 312,-70 334,-91 322,-77 295,-48 268,-18 241,12 215,41 188,71 162,99 171,93 197,64 224,34 251,4 278,-25 305,-55 331,-85 340,-91 314,-63 287,-33 261,-3 234,27 207,56 180,86 166,102 190,79 217,49 244,19 270,-11 297,-40 324,-70 345,-90 334,-77 307,-48 280,-18 253,12 227,41 200,71 173,101 169,105 183,93 209,64 236,34 263,4 290,-25 317,-55 343,-85 349,-88 326,-63 299,-33 273,-3 246,27 219,56 192,86 173,108 202,79 229,49 256,19 282,-11 309,-40 336,-70 354,-86 346,-77 319,-48 292,-18 265,12 239,41 212,71 185,101 176,111 195,94 221,64 248,34 275,4 302,-25 329,-55 358,-84 338,-63 311,-33 285,-3 258,27 231,56 204,86 180,113 187,108 214,79 241,49 268,19 294,-11 321,-40 348,-70 359,-79 357,-76 331,-48 304,-18 277,12 251,42 224,71 197,101 184,115 207,94 233,64 260,34 287,4 314,-25 340,-55 358,-71 350,-63 323,-33 297,-3 270,27 243,56 216,86 188,117 199,108 226,79 253,49 280,19 306,-11 333,-40 358,-64 343,-48 316,-18 289,12 262,42 236,71 209,101 192,119 219,94 245,64 272,34 299,4 326,-25 352,-55 357,-57 335,-33 309,-3 282,27 255,56 228,86 202,116 197,121 211,108 238,79 265,49 292,19 318,-10 345,-40 357,-50 355,-48 328,-18 301,12 274,42 248,71 221,101 202,122 231,94 257,64 284,34 311,4 338,-25 356,-43 347,-33 321,-3 294,27 267,56 240,86 214,116 207,124 223,108 250,79 277,49 304,19 330,-10 356,-36 340,-18 313,12 286,42 260,71 233,101 211,125 243,94 269,64 296,34 323,4 350,-25 355,-28 333,-3 306,27 279,56 252,86 226,116 217,125 235,108 262,79 289,49 316,19 342,-10 354,-21 352,-18 325,12 298,42 272,71 245,101 223,126 228,123 255,94 281,64 308,34 335,4 354,-13 345,-3 318,27 291,56 264,86 238,116 229,126 247,108 274,79 301,49 327,19 353,-6 337,12 310,42 284,71 257,101 235,126 240,123 267,94 293,64 320,34 347,4 352,2 330,27 303,56 276,86 249,116 241,125 259,109 286,79 313,49 339,19 351,10 349,12 322,42 296,71 269,101 248,125 253,122 279,94 305,64 332,34 350,18 342,27 315,57 288,86 261,116 254,124 271,109 298,79 325,49 348,27 334,42 308,71 281,101 261,123 291,94 317,64 344,34 346,32 345,37 327,57 300,86 273,116 268,122 283,109 310,79 337,49 343,42 341,47 320,71 293,101 276,120 303,94 329,64 339,53 337,59 312,86 285,117 290,114 295,109 322,79 333,66 328,75 305,101 297,110 309,100 310,99 309,99 309,100" /><polyline  stroke="white" points="-306,-83 -305,-80 -306,-83 -298,-65 -295,-56 -297,-46 -309,-32 -319,-30 -328,-32 -342,-46 -340,-65 -325,-77 -306,-83 -319,-72 -331,-60 -344,-49 -344,-49 -340,-65 -327,-76 -327,-48 -327,-32 -311,-31 -311,-60 -311,-82 -306,-83 -300,-67 -294,-52 -294,-52 -294,-52 -306,-83 -322,-86 -314,-86 -314,-86 -311,-86 -324,-86 -332,-84 -300,-82 -326,-82 -335,-82 -314,-80 -295,-78 -302,-78 -341,-78 -330,-76 -291,-74 -318,-74 -346,-74 -306,-72 -288,-70 -294,-70 -334,-70 -349,-70 -322,-68 -286,-66 -310,-66 -352,-66 -338,-64 -298,-64 -284,-62 -326,-62 -353,-62 -314,-60 -283,-58 -302,-58 -342,-58 -354,-58 -330,-56 -290,-56 -282,-54 -318,-54 -355,-54 -346,-52 -306,-52 -282,-50 -294,-50 -334,-50 -355,-50 -322,-48 -283,-46 -310,-46 -350,-46 -354,-46 -338,-44 -298,-44 -285,-42 -326,-42 -354,-42 -314,-40 -287,-38 -302,-38 -342,-38 -351,-38 -330,-36 -289,-34 -318,-34 -348,-34 -343,-32 -306,-32 -293,-30 -334,-30 -344,-30 -322,-28 -297,-26 -310,-26 -339,-26 -304,-22 -326,-22 -331,-22 -319,-20 -316,-20 -315,-20 -319,-20" /><polyline  stroke="white" points="163,-85 165,-83 163,-85 174,-71 181,-55 173,-39 157,-32 148,-32 141,-37 129,-51 133,-68 146,-80 163,-85 152,-74 140,-62 129,-51 129,-51 136,-64 142,-77 142,-48 142,-36 155,-32 155,-60 155,-83 163,-85 172,-70 181,-55 174,-45 168,-36 168,-72 168,-79 163,-85 154,-90 160,-90 160,-90 163,-90 150,-90 163,-90 170,-88 142,-88 154,-86 177,-84 166,-84 135,-84 138,-82 182,-80 150,-80 130,-80 162,-78 185,-76 174,-76 134,-76 126,-76 146,-74 188,-72 158,-72 123,-72 130,-70 170,-70 190,-68 182,-68 142,-68 121,-68 154,-66 192,-64 166,-64 126,-64 120,-64 138,-62 178,-62 193,-60 150,-60 118,-60 122,-58 162,-58 193,-56 174,-56 134,-56 118,-56 146,-54 186,-54 193,-52 158,-52 118,-52 130,-50 170,-50 191,-48 182,-48 142,-48 119,-48 154,-46 189,-44 166,-44 126,-44 120,-44 138,-42 178,-42 187,-40 150,-40 123,-40 162,-38 186,-36 174,-36 134,-36 125,-36 146,-34 182,-32 158,-32 129,-32 170,-30 177,-28 142,-28 135,-28 154,-26 170,-24 166,-24 143,-24 158,-22 159,-22 161,-22 156,-22 158,-22 156,-22 158,-22" /><polyline class="left-outline"  points="-354,-85 -354,-85 -351,-81 -366,-83 -364,-65 -363,-47 -353,-33 -343,-19 -362,-29 -359,-10 -357,8 -354,27 -347,43 -341,58 -334,74 -322,89 -310,104 -290,118 -274,123 -258,128 -237,128 -215,128 -200,123 -184,118 -162,102 -150,87 -139,71 -131,55 -124,38 -119,17 -114,-4 -112,-26 -110,-48 -108,-70 -107,-92 -119,-93 -123,-96 -101,-97 -124,-93 -102,-92 -124,-91 -102,-88 -124,-88 -102,-83 -125,-83 -103,-79 -125,-79 -103,-75 -125,-74 -103,-70 -126,-70 -104,-66 -126,-65 -104,-61 -127,-61 -105,-57 -127,-57 -105,-52 -127,-52 -105,-48 -128,-48 -106,-44 -128,-43 -106,-39 -129,-39 -106,-35 -129,-34 -107,-30 -129,-30 -107,-26 -130,-26 -108,-21 -130,-22 -108,-17 -130,-17 -108,-13 -131,-13 -109,-8 -131,-9 -109,-4 -132,-5 -110,1 -132,-1 -111,5 -132,3 -112,9 -133,7 -113,14 -135,11 -114,18 -136,15 -115,22 -137,19 -116,27 -138,23 -117,31 -139,26 -118,35 -140,30 -119,40 -141,34 -121,44 -142,38 -123,48 -143,42 -124,52 -145,46 -126,56 -147,49 -128,60 -149,52 -130,64 -150,56 -132,68 -152,59 -134,72 -154,62 -136,76 -156,66 -139,80 -158,69 -141,83 -160,72 -144,87 -163,75 -147,90 -165,78 -149,94 -167,81 -152,97 -170,84 -155,101 -172,87 -158,104 -174,90 -161,107 -177,92 -164,110 -180,94 -168,113 -183,95 -172,115 -186,97 -175,118 -189,99 -179,120 -192,101 -183,123 -195,103 -187,124 -198,105 -191,126 -201,107 -195,127 -204,107 -200,128 -208,108 -204,130 -211,109 -208,131 -215,109 -212,132 -218,110 -217,133 -222,110 -221,133 -226,111 -226,133 -229,111 -230,133 -233,112 -234,133 -237,113 -239,133 -241,113 -243,133 -244,112 -248,133 -248,112 -252,133 -252,111 -257,133 -255,110 -261,133 -259,110 -265,131 -262,109 -270,130 -266,109 -274,129 -269,108 -278,127 -273,106 -282,126 -276,104 -287,124 -279,103 -291,123 -282,101 -295,121 -285,100 -298,118 -288,98 -302,116 -291,97 -306,113 -294,95 -309,111 -296,92 -313,108 -299,89 -316,105 -301,86 -319,101 -304,84 -321,98 -306,81 -324,94 -308,78 -327,91 -311,76 -330,87 -313,73 -333,84 -316,70 -335,80 -318,67 -338,77 -320,63 -340,73 -322,60 -342,69 -324,57 -343,64 -325,53 -345,60 -327,50 -347,56 -329,46 -349,52 -330,43 -350,48 -331,39 -352,44 -332,35 -354,40 -333,31 -355,36 -334,27 -357,32 -335,23 -359,27 -336,19 -360,23 -337,15 -360,19 -338,11 -361,14 -339,7 -362,10 -340,4 -362,5 -341,0 -363,1 -341,-3 -364,-3 -342,-7 -365,-8 -343,-11 -365,-12 -344,-15 -366,-17 -343,-19 -366,-21 -341,-23 -367,-25 -340,-27 -367,-30 -339,-31 -367,-34 -338,-35 -367,-39 -337,-39 -368,-43 -339,-43 -368,-48 -341,-47 -368,-52 -341,-50 -368,-57 -341,-53 -369,-62 -341,-55 -369,-66 -341,-57 -369,-71 -341,-59 -369,-77 -340,-60 -370,-82 -339,-61 -367,-85 -338,-62 -360,-85 -337,-64 -337,-64 -354,-85 -351,-81 -329,-82 -308,-83 -297,-86 -287,-79 -278,-64 -278,-49 -287,-25 -300,-14 -317,-10 -343,-19 -344,-14 -337,-41 -342,-13 -333,-37 -338,-12 -330,-33 -335,-11 -328,-31 -330,-10 -325,-30 -326,-8 -322,-30 -322,-7 -319,-30 -318,-6 -317,-29 -313,-6 -315,-29 -309,-7 -313,-30 -305,-8 -311,-31 -301,-9 -309,-32 -296,-11 -307,-33 -293,-14 -305,-34 -289,-16 -303,-35 -286,-19 -301,-36 -283,-22 -300,-38 -281,-27 -299,-40 -279,-31 -298,-42 -277,-35 -297,-44 -276,-39 -296,-46 -274,-43 -295,-48 -273,-47 -295,-51 -273,-52 -295,-53 -273,-56 -296,-55 -273,-61 -296,-57 -274,-65 -297,-59 -276,-69 -297,-61 -278,-73 -297,-63 -280,-77 -298,-65 -282,-81 -300,-66 -285,-84 -301,-67 -289,-86 -303,-69 -293,-89 -305,-70 -297,-90 -307,-72 -303,-89 -309,-74 -308,-88 -312,-74 -312,-87 -315,-75 -317,-87 -319,-75 -321,-87 -322,-75 -326,-87 -326,-74 -330,-86 -329,-73 -335,-86 -331,-71 -339,-86 -333,-69 -344,-86 -335,-67 -349,-85 -336,-65 -354,-85 -353,-84 -346,-77 -347,-82 -374,-69 -372,-64 -394,-70 -396,-74 -417,-67 -418,-70 -415,-67 -414,-73 -410,-68 -410,-75 -405,-69 -406,-78 -401,-69 -403,-80 -396,-70 -396,-70 -400,-82 -398,-87 -413,-88 -413,-88 -409,-86 -415,-91 -409,-85 -410,-92 -409,-85 -406,-92 -405,-84 -401,-93 -402,-83 -396,-94 -399,-81 -391,-94 -398,-78 -385,-95 -397,-77 -381,-93 -397,-76 -380,-88 -396,-75 -378,-84 -396,-74 -377,-79 -396,-74 -376,-75 -395,-73 -374,-70 -395,-72 -395,-72 -373,-66 -378,-67 -391,-59 -404,-50 -400,-50 -408,-51 -399,-50 -404,-56 -396,-52 -402,-59 -393,-53 -399,-63 -389,-55 -397,-65 -385,-57 -396,-67 -380,-60 -395,-69 -376,-62 -394,-70 -373,-66 -378,-91 -372,-64 -380,-96 -368,-66 -375,-96 -365,-68 -371,-97 -361,-69 -366,-97 -357,-71 -362,-98 -354,-73 -357,-98 -350,-75 -353,-99 -346,-77 -348,-99 -342,-78 -344,-100 -338,-78 -340,-100 -334,-79 -335,-101 -330,-79 -331,-101 -326,-80 -326,-102 -321,-80 -322,-103 -317,-81 -317,-103 -313,-81 -313,-104 -308,-82 -309,-104 -304,-82 -304,-105 -299,-83 -300,-105 -295,-84 -295,-106 -290,-84 -291,-106 -286,-85 -287,-107 -282,-85 -282,-107 -277,-86 -278,-108 -273,-86 -273,-108 -269,-87 -269,-109 -265,-87 -265,-110 -261,-88 -260,-110 -256,-88 -256,-111 -252,-89 -251,-111 -248,-89 -247,-111 -244,-89 -242,-111 -240,-89 -238,-111 -235,-89 -233,-111 -231,-89 -229,-111 -227,-89 -225,-111 -222,-89 -220,-111 -218,-89 -216,-111 -214,-89 -211,-111 -209,-89 -207,-111 -205,-89 -202,-111 -200,-88 -198,-111 -196,-88 -193,-111 -191,-88 -189,-111 -187,-88 -185,-111 -183,-88 -180,-111 -179,-88 -176,-111 -174,-88 -171,-111 -170,-88 -167,-110 -166,-88 -162,-110 -161,-88 -158,-109 -157,-88 -154,-109 -153,-88 -149,-108 -148,-88 -145,-108 -144,-87 -140,-107 -140,-87 -136,-107 -135,-87 -131,-106 -131,-86 -127,-106 -127,-86 -123,-105 -122,-86 -118,-105 -118,-86 -114,-104 -114,-85 -109,-104 -109,-85 -105,-103 -105,-85 -101,-103 -101,-84 -96,-102 -97,-84 -92,-102 -92,-84 -88,-100 -88,-84 -83,-98 -84,-85 -79,-96 -79,-85 -76,-94 -75,-85 -73,-92 -70,-86 -71,-89 -70,-86" /><polyline class="right-outline"  points="106,-96 106,-96 110,-93 107,-87 108,-71 110,-55 120,-39 130,-23 111,-33 113,-4 119,16 124,36 129,56 142,76 154,96 173,113 190,120 208,128 228,129 248,130 263,127 278,123 298,113 312,100 325,86 335,69 345,51 349,33 354,15 359,-3 361,-26 363,-49 364,-73 353,-75 348,-79 370,-77 348,-76 369,-72 347,-72 369,-68 347,-68 369,-63 346,-63 368,-59 346,-59 368,-55 346,-54 368,-50 345,-50 367,-46 345,-45 367,-41 344,-41 367,-37 344,-37 366,-32 344,-32 366,-28 343,-28 366,-24 343,-24 365,-19 342,-19 365,-15 342,-15 364,-10 342,-11 364,-6 341,-7 363,-1 341,-3 362,3 341,1 361,7 340,5 360,11 339,9 359,16 337,13 358,20 336,17 357,24 335,21 356,29 334,24 354,33 332,28 353,37 331,32 352,42 330,36 351,46 329,40 350,50 327,44 348,54 326,47 346,58 325,51 344,62 323,55 342,66 321,58 340,70 320,61 338,74 318,64 335,78 316,67 333,82 314,71 331,86 312,74 329,89 309,77 326,93 306,80 323,96 304,83 320,99 301,85 316,102 299,88 313,105 297,90 310,109 294,93 307,112 292,95 304,115 289,98 300,118 286,99 296,120 283,101 292,122 280,102 288,124 276,103 284,126 273,104 280,128 270,106 276,129 267,107 272,130 264,108 267,131 260,109 263,132 257,111 259,133 253,112 254,133 249,112 250,134 246,112 246,135 242,112 241,134 238,112 237,134 235,112 232,134 231,112 228,134 228,112 223,133 224,112 219,133 220,112 214,133 216,111 210,133 213,110 206,132 209,109 201,130 206,108 197,128 202,107 193,127 199,106 189,125 196,105 185,123 192,104 181,122 189,102 177,120 187,100 173,118 184,98 169,116 181,96 166,113 179,94 162,110 176,91 159,107 173,89 156,104 171,86 153,101 169,84 150,97 167,80 147,94 165,77 145,90 162,74 142,86 160,71 140,82 158,68 138,79 156,65 135,75 153,62 133,71 151,59 131,67 149,55 128,63 148,52 126,60 146,48 124,56 145,44 123,51 143,41 122,47 142,37 121,43 140,34 119,38 139,30 118,34 137,26 117,30 136,22 116,25 135,18 115,21 134,14 114,17 133,10 112,13 133,6 111,8 132,2 110,4 131,-2 109,0 131,-5 108,-5 130,-8 108,-9 129,-12 108,-14 129,-16 107,-18 129,-20 107,-22 131,-25 107,-27 132,-29 106,-31 134,-34 106,-36 136,-38 106,-40 137,-42 105,-45 135,-46 105,-49 133,-50 105,-54 132,-54 104,-58 132,-57 104,-63 133,-59 104,-67 133,-61 103,-72 133,-63 103,-77 133,-65 103,-82 133,-66 103,-88 134,-67 104,-92 135,-68 135,-68 106,-96 110,-93 127,-88 132,-91 155,-91 178,-91 193,-74 197,-57 192,-40 179,-24 157,-16 131,-23 128,-19 138,-42 130,-18 140,-40 135,-17 142,-39 139,-16 145,-37 143,-15 148,-35 147,-13 151,-34 152,-12 153,-35 156,-11 156,-35 161,-12 158,-35 165,-13 161,-36 169,-15 163,-36 173,-16 166,-36 177,-18 167,-38 181,-20 169,-39 185,-23 170,-41 188,-26 172,-43 190,-30 174,-44 193,-33 175,-46 196,-37 177,-48 197,-41 177,-50 198,-45 177,-52 200,-49 177,-54 201,-54 177,-57 201,-58 177,-59 200,-63 177,-61 200,-67 178,-63 199,-71 177,-65 197,-75 176,-66 195,-79 175,-68 192,-83 174,-70 189,-86 173,-72 186,-89 171,-74 183,-93 169,-75 179,-95 167,-76 174,-95 165,-78 169,-95 163,-79 165,-95 160,-79 160,-95 157,-80 156,-95 154,-80 151,-95 151,-80 147,-95 147,-79 142,-95 144,-78 138,-95 142,-76 133,-96 140,-74 129,-95 139,-73 123,-96 138,-71 116,-98 137,-70 111,-98 136,-69 106,-96 108,-94 106,-96 108,-83 107,-86 108,-83 107,-88 130,-91 153,-93 173,-93 193,-93 212,-94 232,-94 252,-94 271,-92 290,-89 309,-87 328,-84 347,-82 373,-69 372,-64 377,-61 382,-63 403,-51 403,-51 408,-51 400,-50 407,-53 398,-51 404,-56 396,-52 401,-60 393,-53 399,-63 389,-55 396,-67 385,-57 395,-69 381,-59 394,-69 377,-61 394,-70 397,-79 400,-82 398,-86 411,-88 411,-88 417,-91 409,-86 414,-91 407,-85 409,-92 406,-84 404,-92 404,-83 400,-93 401,-82 396,-94 400,-82 391,-94 391,-94 400,-82 399,-77 418,-70 415,-67 414,-73 410,-68 410,-75 406,-69 407,-78 402,-69 403,-80 397,-70 399,-83 393,-69 395,-87 388,-68 392,-91 383,-67 388,-94 379,-66 384,-95 374,-64 379,-96 370,-65 375,-96 366,-67 370,-97 363,-68 366,-97 359,-70 362,-98 355,-72 359,-98 351,-74 354,-99 347,-76 350,-99 343,-77 346,-100 339,-78 341,-100 335,-78 337,-101 331,-79 332,-101 327,-79 328,-102 323,-80 323,-102 319,-81 319,-103 314,-81 315,-103 310,-82 310,-104 305,-82 306,-105 301,-83 301,-105 296,-83 297,-106 292,-84 293,-106 288,-84 288,-107 283,-85 284,-107 279,-86 279,-108 275,-86 275,-108 270,-87 271,-109 266,-87 266,-109 262,-88 262,-110 258,-88 257,-110 254,-89 253,-111 249,-89 248,-111 245,-89 244,-111 241,-89 240,-111 237,-89 235,-111 233,-89 231,-111 228,-89 226,-111 224,-89 222,-111 220,-89 217,-111 215,-89 213,-111 211,-89 208,-111 206,-89 204,-111 202,-88 200,-111 197,-88 195,-111 193,-88 191,-111 189,-88 186,-111 184,-88 182,-111 180,-88 177,-111 176,-88 173,-111 171,-88 168,-111 167,-88 164,-110 163,-88 160,-110 159,-88 155,-109 154,-88 151,-109 150,-88 146,-108 146,-87 142,-108 141,-87 137,-107 137,-87 133,-107 133,-86 129,-106 128,-86 124,-106 124,-86 120,-105 119,-85 115,-105 115,-85 111,-104 111,-84 107,-104 107,-83 102,-103 102,-84 98,-103 98,-84 93,-102 94,-84 89,-101 90,-84 85,-99 85,-85 81,-96 81,-85 77,-94 76,-85 75,-93 72,-85 72,-91 72,-91 70,-86 71,-89 70,-86" /><polyline   points="-226,-132 -223,-132 -226,-132 -206,-134 -187,-135 -167,-134 -147,-133 -128,-132 -108,-131 -128,-132 -108,-131 -128,-132 -147,-133 -128,-132 -147,-133 -167,-134 -147,-133 -167,-134 -187,-135 -167,-134 -187,-135 -206,-134 -187,-135 -206,-134 -226,-132 -206,-134 -226,-132 -223,-132 -226,-132" /><polyline   points="231,-132 228,-132 231,-132 211,-134 192,-135 172,-134 152,-133 133,-132 113,-131 133,-132 113,-131 133,-132 152,-133 133,-132 152,-133 172,-134 152,-133 172,-134 192,-135 172,-134 192,-135 211,-134 192,-135 211,-134 231,-132 211,-134 231,-132 228,-132 231,-132" /></svg>