<svg viewBox="-425 -150 850 300" fill="none" stroke="black" stroke-width="4"><polyline class="left-eye" stroke="red" points="-281,-82 -278,-82 -281,-82 -261,-83 -242,-83 -222,-84 -202,-85 -183,-86 -163,-88 -144,-88 -124,-88 -124,-89 -123,-69 -121,-49 -123,-30 -125,-10 -129,10 -133,29 -138,48 -147,66 -158,82 -173,96 -190,106 -208,114 -228,117 -247,115 -267,111 -285,104 -300,91 -313,76 -323,59 -332,41 -336,22 -338,2 -340,-18 -323,-10 -304,-5 -289,-15 -276,-29 -271,-46 -273,-65 -281,-82 -271,-67 -262,-52 -252,-38 -242,-23 -233,-8 -223,7 -213,22 -227,36 -246,41 -266,46 -274,50 -279,59 -288,77 -298,94 -281,101 -265,108 -248,115 -254,110 -282,82 -311,54 -334,32 -336,17 -338,2 -335,4 -306,32 -278,60 -249,88 -219,116 -208,113 -197,110 -215,93 -244,65 -273,37 -301,10 -321,-9 -307,-6 -300,-6 -295,-11 -268,15 -239,43 -210,71 -180,100 -164,89 -177,76 -205,48 -234,21 -263,-7 -280,-24 -273,-32 -271,-42 -258,-29 -229,-2 -201,26 -172,54 -152,73 -147,64 -142,56 -167,32 -196,4 -224,-24 -253,-52 -277,-74 -281,-82 -264,-77 -246,-71 -229,-66 -212,-61 -195,-56 -177,-50 -169,-48 -161,-50 -148,-62 -135,-75 -124,-89 -123,-75 -122,-60 -143,-80 -151,-88 -164,-87 -178,-87 -147,-58 -122,-33 -124,-21 -125,-9 -152,-35 -181,-63 -204,-85 -217,-85 -231,-84 -215,-69 -186,-41 -157,-13 -130,13 -132,24 -135,35 -162,9 -191,-19 -220,-46 -248,-74 -257,-83 -281,-82 -300,-91 -297,-91 -300,-88 -291,-91 -297,-85 -284,-91 -294,-81 -290,-82 -278,-92 -280,-89 -291,-78 -272,-92 -288,-75 -278,-82 -265,-92 -268,-89 -286,-70 -259,-92 -276,-74 -284,-66 -266,-82 -253,-92 -256,-89 -282,-61 -274,-67 -246,-92 -264,-74 -281,-56 -254,-81 -240,-93 -244,-88 -272,-59 -281,-50 -262,-67 -233,-93 -252,-74 -281,-43 -270,-52 -242,-81 -227,-94 -232,-88 -260,-59 -285,-33 -289,-27 -300,-16 -311,-6 -322,4 -334,-7 -344,-21 -353,-35 -352,-34 -353,-33 -347,-32 -352,-28 -343,-30 -351,-22 -339,-28 -350,-17 -335,-26 -343,-17 -349,-11 -332,-23 -349,-5 -341,-10 -328,-20 -331,-17 -348,0 -324,-19 -339,-2 -347,6 -329,-9 -318,-18 -347,12 -337,5 -313,-17 -327,-2 -346,17 -318,-9 -306,-17 -335,13 -346,23 -325,6 -302,-18 -297,-21 -316,-1 -345,29 -344,30 -344,31 -333,20 -306,-9 -278,-37 -250,-66 -223,-94 -240,-73 -268,-44 -296,-16 -323,13 -343,37 -314,6 -286,-23 -258,-52 -230,-80 -217,-94 -220,-87 -248,-59 -276,-30 -304,-1 -331,28 -342,42 -321,21 -294,-8 -266,-37 -238,-66 -210,-95 -228,-73 -256,-44 -284,-15 -312,14 -340,46 -329,35 -302,6 -274,-22 -246,-51 -218,-80 -204,-95 -208,-87 -236,-58 -264,-29 -292,-1 -319,28 -338,51 -310,21 -282,-8 -254,-37 -226,-65 -197,-95 -216,-72 -244,-44 -272,-15 -300,14 -327,43 -336,55 -317,36 -290,7 -262,-22 -234,-51 -206,-79 -191,-96 -196,-87 -224,-58 -252,-29 -280,0 -308,29 -334,59 -325,50 -298,21 -270,-7 -242,-36 -214,-65 -186,-94 -184,-96 -204,-72 -232,-43 -260,-14 -288,14 -315,43 -332,63 -306,36 -278,7 -250,-22 -222,-50 -194,-79 -178,-96 -184,-86 -212,-57 -240,-29 -268,0 -296,29 -323,58 -329,67 -313,51 -286,22 -258,-7 -230,-36 -202,-64 -175,-93 -171,-97 -192,-72 -220,-43 -248,-14 -276,15 -304,44 -327,71 -321,65 -294,36 -266,8 -238,-21 -210,-50 -182,-79 -165,-97 -173,-86 -200,-57 -228,-28 -256,1 -284,29 -311,58 -325,75 -302,51 -274,22 -246,-7 -218,-35 -190,-64 -163,-93 -158,-97 -180,-71 -208,-42 -236,-14 -264,15 -292,44 -319,73 -323,79 -309,66 -282,37 -254,8 -226,-21 -198,-49 -170,-78 -152,-97 -161,-85 -188,-57 -216,-28 -244,1 -272,30 -299,59 -320,83 -317,80 -290,51 -262,23 -234,-6 -206,-35 -178,-64 -151,-92 -146,-97 -168,-71 -196,-42 -224,-13 -252,16 -280,44 -307,73 -317,86 -297,66 -270,37 -242,8 -214,-20 -186,-49 -159,-78 -140,-98 -149,-85 -176,-56 -204,-27 -232,1 -260,30 -288,59 -315,90 -305,81 -278,52 -250,23 -222,-6 -194,-35 -166,-63 -139,-92 -133,-98 -157,-70 -184,-42 -212,-13 -240,16 -268,45 -295,73 -312,93 -286,66 -258,38 -230,9 -202,-20 -174,-49 -147,-77 -127,-98 -137,-85 -164,-56 -192,-27 -220,2 -248,31 -276,59 -303,88 -309,97 -293,81 -266,52 -238,23 -210,-5 -182,-34 -155,-63 -127,-92 -121,-98 -145,-70 -172,-41 -200,-12 -228,16 -256,45 -284,74 -306,100 -301,96 -274,67 -246,38 -218,9 -190,-20 -162,-48 -135,-77 -114,-98 -125,-84 -153,-55 -180,-27 -208,2 -236,31 -264,60 -291,88 -302,103 -282,81 -254,53 -226,24 -198,-5 -170,-34 -143,-62 -113,-93 -133,-70 -160,-41 -188,-12 -216,17 -244,46 -272,74 -299,106 -289,96 -262,67 -234,38 -206,10 -178,-19 -151,-48 -123,-77 -114,-86 -141,-55 -168,-26 -196,3 -224,31 -252,60 -280,89 -295,108 -270,82 -242,53 -214,24 -186,-5 -158,-33 -131,-62 -113,-80 -121,-69 -149,-40 -176,-12 -204,17 -232,46 -260,75 -287,103 -292,111 -278,96 -250,68 -222,39 -194,10 -166,-19 -139,-47 -113,-74 -129,-55 -156,-26 -184,3 -212,32 -240,61 -268,89 -288,114 -285,111 -258,82 -230,53 -202,25 -174,-4 -147,-33 -119,-62 -112,-68 -137,-40 -164,-11 -192,18 -220,46 -248,75 -276,104 -284,116 -266,97 -238,68 -210,39 -182,10 -154,-18 -127,-47 -112,-62 -117,-54 -145,-25 -172,3 -200,32 -228,61 -256,90 -279,117 -274,111 -246,83 -218,54 -190,25 -162,-4 -135,-32 -111,-56 -125,-40 -152,-11 -180,18 -208,47 -236,76 -264,104 -275,119 -254,97 -226,68 -198,40 -170,11 -143,-18 -115,-47 -111,-50 -133,-25 -160,4 -188,33 -216,61 -244,90 -270,121 -262,112 -234,83 -206,54 -178,25 -150,-3 -123,-32 -111,-44 -141,-10 -168,18 -196,47 -224,76 -252,105 -266,122 -242,98 -214,69 -186,40 -158,11 -131,-17 -112,-37 -121,-25 -148,4 -176,33 -204,62 -232,91 -260,119 -260,123 -250,112 -222,83 -194,55 -166,26 -139,-3 -112,-30 -129,-10 -156,19 -184,48 -212,76 -240,105 -255,124 -230,98 -202,69 -174,40 -146,12 -119,-17 -113,-23 -136,5 -164,33 -192,62 -220,91 -248,120 -250,125 -238,113 -210,84 -182,55 -154,26 -127,-2 -114,-16 -117,-10 -144,19 -172,48 -200,77 -228,106 -245,126 -218,98 -190,70 -162,41 -134,12 -115,-8 -125,5 -152,34 -180,63 -208,91 -236,120 -239,127 -226,113 -198,84 -170,55 -142,27 -116,-1 -132,20 -160,48 -188,77 -216,106 -233,127 -206,99 -178,70 -150,41 -123,13 -118,7 -140,34 -168,63 -196,92 -224,121 -227,127 -214,113 -186,85 -158,56 -130,27 -119,15 -148,49 -176,78 -204,106 -221,127 -194,99 -166,70 -138,42 -121,23 -128,35 -156,63 -184,92 -212,121 -214,126 -202,114 -174,85 -146,56 -123,32 -136,49 -164,78 -192,107 -206,124 -182,100 -154,71 -126,41 -144,64 -172,93 -197,121 -190,114 -162,85 -134,57 -129,51 -131,57 -152,78 -180,107 -192,119 -185,116 -170,100 -142,71 -134,63 -137,69 -160,93 -179,113 -170,106 -150,86 -141,76 -148,85 -155,94 -153,92 -155,94" /><polyline class="right-eye" stroke="red" points="133,-8 131,-10 133,-8 124,-15 140,-9 158,-8 174,-13 189,-23 195,-29 198,-37 201,-54 198,-71 190,-87 207,-85 225,-84 243,-83 262,-83 280,-82 298,-82 316,-81 334,-81 352,-80 350,-60 349,-40 347,-20 345,-1 342,19 337,38 329,56 320,74 307,89 292,102 274,110 255,114 235,116 215,115 196,108 179,98 165,85 154,68 145,50 139,31 135,12 133,-8 140,9 147,26 154,43 160,60 167,77 174,94 174,94 171,91 162,82 154,64 146,47 139,29 149,40 178,68 206,97 225,115 239,115 253,114 240,102 212,73 184,45 155,17 133,-5 133,-8 124,-15 133,-8 151,-5 170,-1 188,2 207,6 225,9 243,13 261,14 274,1 287,-13 300,-26 313,-40 326,-53 339,-67 352,-80 351,-66 350,-53 324,-78 322,-81 307,-81 291,-82 318,-55 348,-26 346,-12 345,1 340,-4 312,-32 284,-60 261,-83 246,-83 231,-84 249,-66 277,-37 306,-9 334,19 340,26 337,37 333,48 328,42 300,14 271,-14 243,-42 215,-71 201,-85 190,-87 202,-54 208,-48 237,-19 265,9 293,37 324,68 317,76 311,85 287,60 259,32 231,4 202,-24 196,-31 188,-24 181,-17 196,-1 224,27 253,55 281,84 297,99 287,104 277,109 275,107 247,78 218,50 190,22 162,-6 159,-9 143,-9 128,-13 133,-8 119,-27 119,-31 121,-30 119,-28 124,-27 120,-23 128,-25 122,-18 132,-22 122,-13 131,-18 136,-21 123,-7 141,-19 133,-11 124,-1 147,-18 124,4 135,-3 152,-17 145,-10 125,10 160,-18 137,5 126,15 147,-2 163,-19 169,-22 157,-9 126,21 127,24 138,12 167,-16 175,-24 181,-29 194,-41 206,-54 215,-68 203,-80 187,-88 171,-96 177,-96 171,-90 183,-96 174,-87 189,-95 184,-90 178,-84 195,-95 181,-81 186,-82 201,-95 196,-89 184,-77 207,-95 186,-73 198,-82 213,-94 208,-89 188,-69 219,-94 199,-74 190,-64 209,-81 225,-94 220,-88 191,-60 201,-67 232,-94 211,-73 192,-54 221,-80 238,-93 232,-87 203,-59 191,-47 213,-66 244,-93 223,-73 195,-45 187,-37 175,-24 163,-11 151,1 139,14 127,26 149,5 177,-23 205,-51 233,-80 250,-93 243,-87 215,-58 187,-30 159,-2 130,27 128,29 140,20 169,-9 197,-37 225,-65 256,-93 235,-72 207,-44 179,-16 150,13 130,34 160,6 189,-22 217,-51 245,-79 262,-92 255,-86 227,-58 199,-29 171,-1 142,27 131,38 152,20 181,-8 209,-36 237,-65 268,-92 247,-72 219,-43 191,-15 162,13 132,43 144,35 172,6 201,-22 229,-50 257,-78 274,-92 267,-85 239,-57 211,-29 183,0 154,28 134,48 137,48 164,21 193,-7 221,-36 249,-64 280,-92 259,-71 231,-43 203,-14 174,14 146,42 136,53 156,35 184,7 213,-21 241,-50 269,-78 286,-91 279,-85 251,-56 223,-28 194,0 166,28 138,57 148,50 176,22 205,-7 233,-35 261,-63 292,-91 271,-70 243,-42 215,-14 186,15 158,43 139,61 168,36 196,8 225,-21 253,-49 281,-77 298,-91 291,-84 263,-56 235,-27 206,1 178,29 150,57 141,66 160,50 188,22 216,-6 245,-34 273,-63 304,-91 283,-70 255,-41 227,-13 198,15 170,44 143,70 152,65 180,37 208,8 237,-20 265,-48 293,-77 311,-91 303,-83 275,-55 247,-27 218,1 190,30 162,58 146,74 172,51 200,23 228,-5 257,-34 285,-62 317,-91 295,-69 267,-41 238,-12 210,16 182,44 154,72 148,78 164,66 192,37 220,9 249,-19 277,-48 305,-76 323,-91 315,-83 287,-55 259,-26 230,2 202,30 174,59 151,82 156,80 184,52 212,23 240,-5 269,-33 297,-61 329,-91 307,-68 279,-40 250,-12 222,17 194,45 166,73 153,86 176,66 204,38 232,10 260,-19 289,-47 317,-75 335,-90 327,-82 299,-54 271,-26 242,3 214,31 186,59 156,89 167,81 196,52 224,24 252,-4 281,-32 309,-61 342,-90 319,-68 291,-39 262,-11 234,17 206,45 178,74 159,92 188,67 216,39 244,10 272,-18 301,-46 329,-75 348,-90 339,-82 311,-53 283,-25 254,3 226,32 198,60 169,88 162,96 179,81 208,53 236,25 264,-4 293,-32 321,-60 354,-90 331,-67 303,-39 274,-10 246,18 218,46 189,74 165,99 171,96 200,67 228,39 256,11 284,-17 313,-46 341,-74 360,-90 351,-81 323,-53 294,-24 266,4 238,32 210,61 181,89 168,102 191,82 220,54 248,25 276,-3 305,-31 333,-59 363,-86 343,-66 315,-38 286,-10 258,18 230,47 201,75 172,105 183,96 211,68 240,40 268,12 296,-17 325,-45 353,-73 362,-80 335,-52 306,-24 278,5 250,33 222,61 193,89 175,107 203,83 232,54 260,26 288,-2 316,-31 345,-59 362,-73 355,-66 327,-37 298,-9 270,19 242,47 213,76 185,104 179,110 195,97 223,69 252,40 280,12 308,-16 337,-44 361,-66 347,-51 318,-23 290,5 262,34 234,62 205,90 182,113 187,111 215,83 244,55 272,27 300,-2 328,-30 357,-58 361,-59 338,-37 310,-9 282,20 254,48 225,76 197,105 187,115 207,98 235,69 264,41 292,13 320,-15 349,-44 361,-53 330,-22 302,6 274,34 245,62 217,91 191,117 199,112 227,84 256,56 284,27 312,-1 340,-29 360,-46 350,-36 322,-8 294,20 266,49 237,77 209,105 195,119 219,98 247,70 276,42 304,13 332,-15 360,-39 342,-22 314,7 286,35 257,63 229,91 199,121 211,113 239,84 267,56 296,28 324,0 352,-29 359,-32 334,-7 306,21 278,49 249,78 221,106 204,122 231,99 259,71 288,42 316,14 344,-14 358,-25 354,-21 326,7 298,35 269,64 241,92 213,120 209,124 223,113 251,85 279,57 308,29 336,0 357,-18 346,-7 318,22 289,50 261,78 233,106 215,125 243,100 271,71 300,43 328,15 357,-11 338,8 310,36 281,64 253,93 225,121 220,125 235,114 263,86 291,57 320,29 348,1 356,-4 330,22 301,51 273,79 245,107 226,126 255,100 283,72 311,44 340,15 355,3 350,8 322,37 293,65 265,93 237,122 232,126 247,115 275,86 303,58 332,30 354,11 342,23 313,51 285,79 257,108 239,126 267,101 295,73 323,44 353,18 333,37 305,66 277,94 249,122 246,125 259,115 287,87 315,59 344,30 351,26 325,52 297,80 269,108 253,124 279,101 307,73 335,45 348,35 345,38 317,66 289,95 260,124 271,116 299,88 327,59 346,44 337,52 309,81 281,109 267,123 291,102 319,74 344,49 342,54 329,67 301,95 275,121 283,117 311,88 340,59 336,66 321,81 293,110 284,118 290,116 303,103 332,73 326,82 313,96 296,112 312,100 313,99 312,99 312,100" /><polyline  stroke="white" points="-303,-83 -302,-80 -303,-83 -295,-65 -292,-56 -294,-46 -306,-32 -316,-30 -325,-32 -339,-46 -337,-65 -322,-77 -303,-83 -316,-72 -328,-60 -341,-49 -341,-49 -337,-65 -324,-76 -324,-48 -324,-32 -308,-31 -308,-60 -308,-82 -303,-83 -297,-67 -291,-52 -291,-52 -291,-52 -303,-83 -319,-86 -311,-86 -311,-86 -308,-86 -321,-86 -329,-84 -297,-82 -323,-82 -332,-82 -311,-80 -292,-78 -299,-78 -338,-78 -327,-76 -288,-74 -315,-74 -343,-74 -303,-72 -285,-70 -291,-70 -331,-70 -346,-70 -319,-68 -283,-66 -307,-66 -349,-66 -335,-64 -295,-64 -281,-62 -323,-62 -350,-62 -311,-60 -280,-58 -299,-58 -339,-58 -351,-58 -327,-56 -287,-56 -279,-54 -315,-54 -352,-54 -343,-52 -303,-52 -279,-50 -291,-50 -331,-50 -352,-50 -319,-48 -280,-46 -307,-46 -347,-46 -351,-46 -335,-44 -295,-44 -282,-42 -323,-42 -351,-42 -311,-40 -284,-38 -299,-38 -339,-38 -348,-38 -327,-36 -286,-34 -315,-34 -345,-34 -340,-32 -303,-32 -290,-30 -331,-30 -341,-30 -319,-28 -294,-26 -307,-26 -336,-26 -301,-22 -323,-22 -328,-22 -316,-20 -313,-20 -312,-20 -316,-20" /><polyline  stroke="white" points="166,-85 168,-83 166,-85 177,-71 184,-55 176,-39 160,-32 151,-32 144,-37 132,-51 136,-68 149,-80 166,-85 155,-74 143,-62 132,-51 132,-51 139,-64 145,-77 145,-48 145,-36 158,-32 158,-60 158,-83 166,-85 175,-70 184,-55 177,-45 171,-36 171,-72 171,-79 166,-85 157,-90 163,-90 163,-90 166,-90 153,-90 166,-90 173,-88 145,-88 157,-86 180,-84 169,-84 138,-84 141,-82 185,-80 153,-80 133,-80 165,-78 188,-76 177,-76 137,-76 129,-76 149,-74 191,-72 161,-72 126,-72 133,-70 173,-70 193,-68 185,-68 145,-68 124,-68 157,-66 195,-64 169,-64 129,-64 123,-64 141,-62 181,-62 196,-60 153,-60 121,-60 125,-58 165,-58 196,-56 177,-56 137,-56 121,-56 149,-54 189,-54 196,-52 161,-52 121,-52 133,-50 173,-50 194,-48 185,-48 145,-48 122,-48 157,-46 192,-44 169,-44 129,-44 123,-44 141,-42 181,-42 190,-40 153,-40 126,-40 165,-38 189,-36 177,-36 137,-36 128,-36 149,-34 185,-32 161,-32 132,-32 173,-30 180,-28 145,-28 138,-28 157,-26 173,-24 169,-24 146,-24 161,-22 162,-22 164,-22 159,-22 161,-22 159,-22 161,-22" /><polyline class="left-outline"  points="-351,-85 -351,-85 -348,-81 -363,-83 -361,-65 -360,-47 -350,-33 -340,-19 -359,-29 -356,-10 -354,8 -351,27 -344,43 -338,58 -331,74 -319,89 -307,104 -287,118 -271,123 -255,128 -234,128 -212,128 -197,123 -181,118 -159,102 -147,87 -136,71 -128,55 -121,38 -116,17 -111,-4 -109,-26 -107,-48 -105,-70 -104,-92 -116,-93 -120,-96 -98,-97 -121,-93 -99,-92 -121,-91 -99,-88 -121,-88 -99,-83 -122,-83 -100,-79 -122,-79 -100,-75 -122,-74 -100,-70 -123,-70 -101,-66 -123,-65 -101,-61 -124,-61 -102,-57 -124,-57 -102,-52 -124,-52 -102,-48 -125,-48 -103,-44 -125,-43 -103,-39 -126,-39 -103,-35 -126,-34 -104,-30 -126,-30 -104,-26 -127,-26 -105,-21 -127,-22 -105,-17 -127,-17 -105,-13 -128,-13 -106,-8 -128,-9 -106,-4 -129,-5 -107,1 -129,-1 -108,5 -129,3 -109,9 -130,7 -110,14 -132,11 -111,18 -133,15 -112,22 -134,19 -113,27 -135,23 -114,31 -136,26 -115,35 -137,30 -116,40 -138,34 -118,44 -139,38 -120,48 -140,42 -121,52 -142,46 -123,56 -144,49 -125,60 -146,52 -127,64 -147,56 -129,68 -149,59 -131,72 -151,62 -133,76 -153,66 -136,80 -155,69 -138,83 -157,72 -141,87 -160,75 -144,90 -162,78 -146,94 -164,81 -149,97 -167,84 -152,101 -169,87 -155,104 -171,90 -158,107 -174,92 -161,110 -177,94 -165,113 -180,95 -169,115 -183,97 -172,118 -186,99 -176,120 -189,101 -180,123 -192,103 -184,124 -195,105 -188,126 -198,107 -192,127 -201,107 -197,128 -205,108 -201,130 -208,109 -205,131 -212,109 -209,132 -215,110 -214,133 -219,110 -218,133 -223,111 -223,133 -226,111 -227,133 -230,112 -231,133 -234,113 -236,133 -238,113 -240,133 -241,112 -245,133 -245,112 -249,133 -249,111 -254,133 -252,110 -258,133 -256,110 -262,131 -259,109 -267,130 -263,109 -271,129 -266,108 -275,127 -270,106 -279,126 -273,104 -284,124 -276,103 -288,123 -279,101 -292,121 -282,100 -295,118 -285,98 -299,116 -288,97 -303,113 -291,95 -306,111 -293,92 -310,108 -296,89 -313,105 -298,86 -316,101 -301,84 -318,98 -303,81 -321,94 -305,78 -324,91 -308,76 -327,87 -310,73 -330,84 -313,70 -332,80 -315,67 -335,77 -317,63 -337,73 -319,60 -339,69 -321,57 -340,64 -322,53 -342,60 -324,50 -344,56 -326,46 -346,52 -327,43 -347,48 -328,39 -349,44 -329,35 -351,40 -330,31 -352,36 -331,27 -354,32 -332,23 -356,27 -333,19 -357,23 -334,15 -357,19 -335,11 -358,14 -336,7 -359,10 -337,4 -359,5 -338,0 -360,1 -338,-3 -361,-3 -339,-7 -362,-8 -340,-11 -362,-12 -341,-15 -363,-17 -340,-19 -363,-21 -338,-23 -364,-25 -337,-27 -364,-30 -336,-31 -364,-34 -335,-35 -364,-39 -334,-39 -365,-43 -336,-43 -365,-48 -338,-47 -365,-52 -338,-50 -365,-57 -338,-53 -366,-62 -338,-55 -366,-66 -338,-57 -366,-71 -338,-59 -366,-77 -337,-60 -367,-82 -336,-61 -364,-85 -335,-62 -357,-85 -334,-64 -334,-64 -351,-85 -348,-81 -326,-82 -305,-83 -294,-86 -284,-79 -275,-64 -275,-49 -284,-25 -297,-14 -314,-10 -340,-19 -341,-14 -334,-41 -339,-13 -330,-37 -335,-12 -327,-33 -332,-11 -325,-31 -327,-10 -322,-30 -323,-8 -319,-30 -319,-7 -316,-30 -315,-6 -314,-29 -310,-6 -312,-29 -306,-7 -310,-30 -302,-8 -308,-31 -298,-9 -306,-32 -293,-11 -304,-33 -290,-14 -302,-34 -286,-16 -300,-35 -283,-19 -298,-36 -280,-22 -297,-38 -278,-27 -296,-40 -276,-31 -295,-42 -274,-35 -294,-44 -273,-39 -293,-46 -271,-43 -292,-48 -270,-47 -292,-51 -270,-52 -292,-53 -270,-56 -293,-55 -270,-61 -293,-57 -271,-65 -294,-59 -273,-69 -294,-61 -275,-73 -294,-63 -277,-77 -295,-65 -279,-81 -297,-66 -282,-84 -298,-67 -286,-86 -300,-69 -290,-89 -302,-70 -294,-90 -304,-72 -300,-89 -306,-74 -305,-88 -309,-74 -309,-87 -312,-75 -314,-87 -316,-75 -318,-87 -319,-75 -323,-87 -323,-74 -327,-86 -326,-73 -332,-86 -328,-71 -336,-86 -330,-69 -341,-86 -332,-67 -346,-85 -333,-65 -351,-85 -349,-83 -351,-85 -344,-75 -347,-75 -350,-74 -346,-75 -341,-75 -366,-73 -365,-68 -370,-69 -388,-54 -393,-56 -386,-55 -391,-61 -383,-57 -388,-65 -379,-59 -386,-69 -375,-62 -385,-72 -371,-64 -384,-72 -367,-67 -367,-67 -384,-73 -386,-86 -382,-89 -399,-103 -404,-102 -394,-103 -401,-100 -394,-103 -397,-96 -392,-103 -394,-93 -387,-102 -390,-90 -382,-101 -388,-88 -378,-100 -387,-87 -373,-99 -386,-86 -386,-86 -368,-98 -369,-92 -385,-81 -385,-81 -404,-78 -401,-82 -400,-77 -397,-83 -395,-76 -393,-84 -391,-75 -389,-85 -386,-74 -385,-87 -382,-72 -381,-89 -377,-71 -377,-92 -372,-70 -373,-94 -368,-69 -369,-97 -363,-69 -365,-98 -359,-70 -361,-98 -355,-71 -357,-98 -350,-72 -352,-98 -346,-73 -348,-99 -343,-75 -343,-94 -324,-94 -305,-95 -285,-96 -266,-97 -247,-98 -227,-98 -208,-99 -189,-100 -170,-101 -150,-101 -131,-102 -112,-103 -95,-102 -77,-101 -79,-104 -76,-98 -81,-104 -80,-96 -84,-105 -84,-94 -88,-105 -88,-92 -92,-106 -92,-90 -96,-106 -96,-87 -101,-107 -101,-86 -105,-107 -105,-86 -109,-108 -110,-86 -113,-108 -114,-86 -117,-108 -118,-85 -121,-107 -123,-85 -126,-107 -127,-85 -130,-107 -132,-85 -135,-107 -136,-85 -139,-107 -140,-85 -143,-107 -145,-84 -148,-106 -149,-84 -152,-106 -154,-84 -157,-106 -158,-84 -161,-106 -163,-84 -166,-106 -167,-83 -170,-106 -171,-83 -175,-105 -176,-83 -179,-105 -180,-83 -183,-105 -185,-83 -188,-105 -189,-83 -192,-105 -194,-82 -197,-105 -198,-82 -201,-104 -203,-82 -206,-104 -207,-82 -210,-104 -211,-82 -215,-104 -216,-82 -219,-104 -220,-81 -223,-103 -225,-81 -228,-103 -229,-81 -232,-103 -234,-81 -237,-103 -238,-81 -241,-103 -243,-81 -246,-103 -247,-80 -250,-102 -251,-80 -255,-102 -256,-80 -259,-102 -260,-80 -263,-102 -265,-80 -268,-102 -269,-80 -272,-102 -274,-79 -277,-101 -278,-79 -281,-101 -283,-79 -286,-101 -287,-79 -290,-101 -291,-79 -294,-101 -296,-78 -299,-100 -300,-78 -303,-100 -305,-78 -308,-100 -309,-78 -312,-100 -313,-78 -317,-100 -318,-78 -321,-100 -322,-77 -326,-99 -326,-77 -330,-99 -330,-77 -334,-99 -334,-76 -339,-99 -339,-76 -343,-99 -343,-99 -343,-75 -343,-78 -343,-75" /><polyline class="right-outline"  points="358,-81 361,-81 358,-81 358,-81 373,-79 368,-79 366,-60 365,-41 363,-22 362,-3 357,15 352,33 348,51 338,68 328,86 315,99 302,113 281,123 266,127 251,130 231,129 211,128 193,120 176,113 157,96 145,76 132,56 127,36 122,16 116,-4 114,-33 133,-23 123,-39 113,-55 111,-70 109,-85 114,-94 130,-88 135,-91 158,-91 181,-91 196,-74 200,-57 195,-40 182,-24 160,-16 134,-23 134,-23 131,-19 141,-42 133,-18 143,-40 138,-17 145,-39 142,-16 148,-37 146,-15 151,-35 150,-13 154,-34 155,-12 156,-35 159,-11 159,-35 164,-12 161,-35 168,-13 164,-36 172,-15 166,-36 176,-16 169,-36 180,-18 170,-38 184,-20 172,-39 188,-23 173,-41 191,-26 175,-43 193,-30 177,-44 196,-33 178,-46 199,-37 180,-48 200,-41 180,-50 201,-45 180,-52 203,-49 180,-54 204,-54 180,-57 204,-58 180,-59 203,-63 180,-61 203,-67 181,-63 202,-71 180,-65 200,-75 179,-66 198,-79 178,-68 195,-83 177,-70 192,-86 176,-72 189,-89 174,-74 186,-93 172,-75 182,-95 170,-76 177,-95 168,-78 172,-95 166,-79 168,-95 163,-79 163,-95 160,-80 159,-95 157,-80 154,-95 154,-80 150,-95 150,-79 145,-95 147,-78 141,-95 145,-76 136,-96 143,-74 132,-95 142,-73 126,-96 141,-71 119,-98 140,-70 114,-98 139,-69 109,-96 138,-68 107,-92 137,-68 106,-88 136,-66 106,-82 136,-65 106,-77 136,-63 106,-72 136,-61 107,-67 136,-59 107,-63 135,-57 107,-58 135,-55 108,-54 136,-50 108,-49 138,-46 108,-45 140,-42 109,-40 139,-38 109,-36 137,-34 109,-31 135,-29 110,-27 134,-25 110,-22 132,-20 110,-18 132,-16 111,-14 132,-12 111,-9 133,-8 111,-5 134,-5 112,0 134,-2 113,4 135,2 114,8 136,6 115,13 136,10 117,17 137,14 118,21 138,18 119,25 139,22 120,30 140,26 121,34 142,30 122,38 143,34 124,43 145,37 125,47 146,41 126,51 148,44 127,56 149,48 129,60 151,52 131,63 152,55 134,67 154,59 136,71 156,62 138,75 159,65 141,79 161,68 143,82 163,71 145,86 165,74 148,90 168,77 150,94 170,80 153,97 172,84 156,101 174,86 159,104 176,89 162,107 179,91 165,110 182,94 169,113 184,96 172,116 187,98 176,118 190,100 180,120 192,102 184,122 195,104 188,123 199,105 192,125 202,106 196,127 205,107 200,128 209,108 204,130 212,109 209,132 216,110 213,133 219,111 217,133 223,112 222,133 227,112 226,133 231,112 231,134 234,112 235,134 238,112 240,134 241,112 244,134 245,112 249,135 249,112 253,134 252,112 257,133 256,112 262,133 260,111 266,132 263,109 270,131 267,108 275,130 270,107 279,129 273,106 283,128 276,104 287,126 279,103 291,124 283,102 295,122 286,101 299,120 289,99 303,118 292,98 307,115 295,95 310,112 297,93 313,109 300,90 316,105 302,88 319,102 304,85 323,99 307,83 326,96 309,80 329,93 312,77 332,89 315,74 334,86 317,71 336,82 319,67 338,78 321,64 341,74 323,61 343,70 324,58 345,66 326,55 347,62 328,51 349,58 329,47 351,54 330,44 353,50 332,40 354,46 333,36 355,42 334,32 356,37 335,28 357,33 337,24 359,29 338,21 360,24 339,17 361,20 340,13 362,16 342,9 363,11 343,5 364,7 344,1 365,3 344,-3 366,-1 344,-7 367,-6 345,-11 367,-10 345,-15 368,-15 345,-19 368,-19 346,-24 369,-24 346,-28 369,-28 347,-32 369,-32 347,-37 370,-37 347,-41 370,-41 348,-45 370,-46 348,-50 371,-50 349,-54 371,-55 349,-59 371,-59 349,-63 372,-63 350,-68 372,-68 350,-72 372,-72 351,-76 373,-77 373,-79 373,-79 358,-81 361,-81 358,-81 342,-75 342,-78 342,-75 342,-80 366,-73 366,-68 389,-74 389,-79 401,-80 401,-80 404,-81 405,-78 402,-82 401,-77 399,-83 397,-76 395,-84 393,-75 392,-85 389,-74 388,-86 388,-86 385,-73 380,-71 394,-56 387,-55 392,-60 384,-57 390,-64 381,-59 388,-67 376,-62 386,-70 372,-64 385,-73 368,-67 385,-75 366,-71 386,-77 367,-76 386,-78 367,-80 386,-80 368,-85 386,-81 368,-89 386,-83 368,-94 387,-84 387,-84 371,-98 371,-98 395,-103 405,-102 395,-103 399,-98 393,-103 396,-95 390,-102 393,-92 385,-101 391,-90 380,-100 389,-88 375,-99 387,-86 371,-98 365,-74 369,-98 364,-69 365,-98 360,-70 362,-98 355,-71 357,-98 351,-72 353,-98 347,-73 348,-99 348,-99 343,-75 344,-80 332,-82 313,-83 294,-84 274,-84 255,-85 236,-86 216,-87 197,-87 178,-88 158,-89 139,-90 120,-90 100,-91 78,-101 77,-98 80,-104 80,-97 85,-105 84,-94 88,-105 88,-92 92,-105 93,-90 97,-106 97,-88 101,-106 101,-86 105,-107 106,-86 109,-107 110,-86 114,-108 114,-86 118,-108 119,-85 122,-108 123,-85 126,-107 128,-85 131,-107 132,-85 135,-107 136,-85 139,-107 141,-85 144,-107 145,-84 148,-106 150,-84 153,-106 154,-84 157,-106 159,-84 162,-106 163,-84 166,-106 167,-84 170,-106 172,-83 175,-105 176,-83 179,-105 181,-83 184,-105 185,-83 188,-105 190,-83 193,-105 194,-82 197,-105 198,-82 202,-104 203,-82 206,-104 207,-82 210,-104 212,-82 215,-104 216,-82 219,-104 221,-81 224,-103 225,-81 228,-103 230,-81 233,-103 234,-81 237,-103 238,-81 242,-103 243,-81 246,-103 247,-80 250,-102 252,-80 255,-102 256,-80 259,-102 261,-80 264,-102 265,-80 268,-102 270,-80 273,-102 274,-79 277,-101 278,-79 282,-101 283,-79 286,-101 287,-79 290,-101 292,-79 295,-101 296,-79 299,-100 301,-78 304,-100 305,-78 308,-100 309,-78 313,-100 314,-78 317,-100 318,-78 321,-100 322,-78 326,-99 326,-77 330,-99 331,-77 335,-99 335,-77 339,-99 339,-76 344,-99 343,-75 343,-78 343,-75" /><polyline   points="-191,-129 -188,-129 -191,-129 -173,-130 -156,-131 -138,-133 -121,-134 -138,-133 -121,-134 -138,-133 -156,-131 -138,-133 -156,-131 -173,-130 -156,-131 -173,-130 -191,-129 -173,-130 -191,-129 -188,-129 -191,-129" /><polyline   points="191,-129 188,-129 191,-129 174,-130 156,-131 139,-133 121,-134 139,-133 121,-134 139,-133 156,-131 139,-133 156,-131 174,-130 156,-131 174,-130 191,-129 174,-130 191,-129 188,-129 191,-129" /></svg>