<svg viewBox="-425 -150 850 300" fill="none" stroke="black" stroke-width="4"><polyline class="left-eye" stroke="red" points="-282,-84 -279,-85 -282,-84 -265,-89 -247,-90 -230,-91 -212,-92 -194,-92 -176,-92 -158,-92 -141,-90 -123,-89 -122,-69 -120,-49 -122,-30 -124,-10 -128,10 -132,29 -137,48 -146,66 -157,82 -172,96 -189,106 -207,114 -227,117 -246,115 -266,111 -284,104 -299,91 -312,76 -322,59 -331,41 -335,22 -337,2 -339,-18 -321,-10 -303,-5 -287,-16 -274,-30 -270,-48 -272,-68 -282,-84 -268,-71 -253,-57 -239,-44 -225,-31 -211,-17 -207,-8 -207,1 -213,20 -225,34 -244,41 -262,47 -274,62 -286,78 -297,94 -280,101 -263,108 -246,115 -249,113 -278,85 -307,58 -333,34 -335,19 -337,4 -332,8 -303,36 -273,63 -244,90 -216,116 -206,113 -195,110 -210,95 -240,68 -269,41 -298,13 -325,-11 -309,-7 -301,-5 -295,-10 -264,18 -235,45 -206,73 -177,99 -162,87 -172,78 -201,50 -231,23 -260,-4 -280,-23 -271,-41 -255,-27 -226,1 -197,28 -168,55 -150,72 -145,63 -140,54 -163,33 -192,6 -222,-22 -251,-49 -273,-69 -282,-84 -262,-85 -242,-85 -222,-86 -202,-86 -183,-87 -163,-88 -143,-88 -123,-89 -122,-75 -121,-61 -141,-79 -154,-92 -169,-92 -183,-92 -175,-84 -145,-57 -121,-34 -123,-22 -124,-10 -150,-34 -179,-62 -208,-89 -212,-92 -225,-91 -239,-91 -213,-66 -184,-39 -154,-12 -128,12 -131,23 -134,34 -159,10 -188,-17 -217,-44 -247,-71 -265,-89 -282,-84 -299,-91 -297,-91 -299,-88 -290,-92 -296,-85 -281,-94 -286,-90 -293,-82 -272,-98 -290,-78 -283,-82 -265,-99 -274,-90 -287,-75 -259,-99 -281,-75 -285,-71 -272,-82 -252,-100 -262,-90 -283,-67 -279,-68 -252,-97 -246,-100 -269,-75 -282,-62 -260,-82 -239,-101 -250,-89 -277,-60 -280,-56 -267,-67 -240,-97 -233,-101 -257,-75 -280,-51 -275,-53 -248,-82 -227,-101 -238,-89 -265,-60 -280,-44 -255,-67 -228,-96 -220,-101 -245,-74 -273,-45 -284,-33 -288,-27 -299,-16 -310,-6 -321,5 -333,-6 -343,-21 -352,-35 -350,-34 -352,-32 -346,-32 -351,-27 -341,-30 -350,-21 -337,-28 -349,-15 -338,-24 -333,-26 -348,-10 -346,-9 -330,-23 -336,-17 -347,-4 -327,-20 -344,-2 -347,2 -334,-9 -322,-18 -346,7 -341,6 -317,-18 -332,-2 -346,13 -322,-9 -311,-17 -339,13 -345,19 -329,6 -305,-17 -320,-1 -344,25 -337,21 -310,-9 -301,-19 -295,-21 -300,-16 -327,13 -343,31 -318,6 -290,-23 -263,-52 -236,-82 -214,-102 -226,-89 -253,-60 -280,-30 -308,-1 -335,28 -343,36 -325,21 -298,-8 -271,-38 -243,-67 -216,-96 -208,-102 -234,-74 -261,-45 -288,-16 -315,14 -341,41 -333,36 -306,6 -278,-23 -251,-52 -224,-82 -202,-102 -214,-89 -241,-60 -268,-30 -296,-1 -323,28 -339,46 -313,21 -286,-8 -259,-38 -231,-67 -204,-96 -196,-102 -222,-74 -249,-45 -276,-16 -303,14 -331,43 -338,50 -321,36 -294,6 -266,-23 -239,-52 -212,-81 -189,-102 -202,-89 -229,-59 -257,-30 -284,-1 -311,28 -335,55 -329,50 -301,21 -274,-8 -247,-37 -219,-67 -192,-96 -183,-102 -210,-74 -237,-45 -264,-15 -292,14 -319,43 -333,59 -309,36 -282,7 -254,-23 -227,-52 -200,-81 -177,-102 -190,-88 -217,-59 -245,-30 -272,-1 -299,29 -326,58 -331,63 -317,51 -289,21 -262,-8 -235,-37 -208,-66 -180,-96 -171,-102 -198,-74 -225,-44 -252,-15 -280,14 -307,43 -329,67 -324,65 -297,36 -270,7 -242,-22 -215,-52 -188,-81 -165,-102 -178,-88 -205,-59 -233,-30 -260,0 -287,29 -315,58 -326,71 -305,51 -277,22 -250,-8 -223,-37 -196,-66 -168,-95 -159,-102 -186,-73 -213,-44 -240,-15 -268,14 -295,44 -324,75 -312,66 -285,36 -258,7 -231,-22 -203,-51 -176,-81 -154,-102 -166,-88 -193,-59 -221,-29 -248,0 -275,29 -303,58 -322,79 -293,51 -265,22 -238,-7 -211,-37 -184,-66 -156,-95 -148,-101 -174,-73 -201,-44 -228,-15 -256,15 -283,44 -310,73 -319,83 -300,66 -273,36 -246,7 -219,-22 -191,-51 -164,-81 -142,-101 -154,-88 -182,-59 -209,-29 -236,0 -263,29 -291,58 -316,86 -308,80 -281,51 -254,22 -226,-7 -199,-37 -172,-66 -144,-95 -137,-100 -162,-73 -189,-44 -216,-15 -244,15 -271,44 -298,73 -314,90 -288,66 -261,37 -234,7 -207,-22 -179,-51 -152,-80 -131,-100 -142,-88 -170,-58 -197,-29 -224,0 -251,29 -279,59 -306,88 -311,93 -296,81 -269,51 -242,22 -214,-7 -187,-36 -160,-66 -132,-95 -125,-99 -150,-73 -177,-44 -205,-14 -232,15 -259,44 -286,73 -308,97 -304,95 -277,66 -249,37 -222,8 -195,-22 -167,-51 -140,-80 -120,-99 -130,-87 -158,-58 -185,-29 -212,0 -239,30 -267,59 -294,88 -305,100 -284,81 -257,52 -230,22 -202,-7 -175,-36 -148,-65 -121,-95 -114,-98 -138,-73 -165,-43 -193,-14 -220,15 -247,44 -274,74 -302,103 -292,96 -265,66 -237,37 -210,8 -183,-21 -155,-51 -128,-80 -112,-94 -118,-87 -146,-58 -173,-29 -200,1 -228,30 -255,59 -282,88 -298,106 -272,81 -245,52 -218,23 -190,-7 -163,-36 -136,-65 -113,-87 -126,-72 -153,-43 -181,-14 -208,15 -235,45 -262,74 -290,103 -295,108 -280,96 -253,67 -225,37 -198,8 -171,-21 -144,-50 -116,-80 -112,-81 -134,-58 -161,-28 -188,1 -216,30 -243,59 -270,89 -291,111 -260,81 -233,52 -206,23 -179,-7 -151,-36 -124,-65 -112,-75 -114,-72 -141,-43 -169,-14 -196,15 -223,45 -251,74 -278,103 -288,114 -268,96 -241,67 -213,37 -186,8 -159,-21 -132,-50 -111,-69 -122,-58 -149,-28 -176,1 -204,30 -231,59 -258,89 -283,116 -276,111 -248,81 -221,52 -194,23 -167,-6 -139,-36 -111,-63 -129,-43 -157,-14 -184,16 -211,45 -239,74 -266,103 -279,117 -256,96 -229,67 -202,38 -174,8 -147,-21 -120,-50 -110,-57 -137,-28 -164,1 -192,30 -219,60 -246,89 -274,119 -264,111 -236,82 -209,52 -182,23 -155,-6 -127,-35 -110,-51 -118,-43 -145,-13 -172,16 -199,45 -227,74 -254,104 -270,121 -244,96 -217,67 -190,38 -162,9 -135,-21 -110,-44 -125,-28 -152,1 -180,31 -207,60 -234,89 -262,118 -265,122 -252,111 -225,82 -197,53 -170,23 -143,-6 -115,-35 -111,-37 -133,-13 -160,16 -187,45 -215,75 -242,104 -260,123 -232,97 -205,67 -178,38 -150,9 -123,-20 -111,-30 -113,-28 -141,2 -168,31 -195,60 -222,89 -250,119 -255,124 -240,111 -213,82 -185,53 -158,24 -131,-6 -112,-23 -121,-13 -148,16 -175,46 -203,75 -230,104 -250,125 -220,97 -193,68 -166,38 -138,9 -113,-15 -129,2 -156,31 -183,60 -210,90 -238,119 -244,126 -228,111 -201,82 -173,53 -146,24 -119,-6 -114,-7 -136,16 -164,46 -191,75 -218,104 -239,127 -208,97 -181,68 -154,38 -126,9 -115,0 -144,31 -171,60 -199,90 -226,119 -233,127 -216,112 -189,82 -161,53 -134,24 -117,9 -124,17 -152,46 -179,75 -206,104 -227,127 -196,97 -169,68 -142,39 -118,17 -132,31 -159,61 -187,90 -214,119 -221,127 -204,112 -177,83 -149,53 -122,24 -120,25 -140,46 -167,75 -194,105 -214,126 -184,97 -157,68 -130,39 -121,30 -123,34 -147,61 -175,90 -202,119 -207,125 -192,112 -165,83 -138,54 -124,39 -126,44 -128,46 -155,76 -182,105 -198,122 -172,98 -145,68 -127,49 -129,54 -135,61 -163,90 -189,118 -183,115 -180,112 -153,83 -132,61 -135,68 -143,76 -170,105 -176,111 -167,105 -161,98 -139,74 -146,84 -153,93 -154,94 -153,93 -154,94" /><polyline class="right-eye" stroke="red" points="133,-21 136,-20 133,-21 149,-13 166,-9 182,-17 195,-28 201,-44 202,-62 195,-78 185,-92 204,-92 222,-92 241,-91 260,-90 279,-89 297,-86 316,-83 335,-82 353,-78 351,-59 350,-39 348,-20 346,0 343,19 338,38 331,56 322,73 309,88 295,101 277,110 258,114 239,116 219,115 201,110 184,100 169,88 157,72 148,55 142,37 137,18 135,-2 133,-21 139,-5 145,12 151,28 157,45 163,61 169,78 175,94 175,94 166,79 158,65 150,51 141,36 146,41 176,67 206,94 230,116 244,115 258,114 240,98 211,71 181,44 151,17 135,3 133,-21 149,-10 165,2 181,13 197,25 213,36 229,47 244,36 251,30 253,21 257,3 262,-15 266,-23 274,-28 290,-38 305,-48 321,-58 337,-68 353,-78 353,-78 335,-81 316,-83 344,-59 351,-52 350,-39 349,-26 339,-36 309,-62 280,-89 263,-90 247,-91 274,-66 304,-39 334,-12 346,-1 344,11 342,23 329,11 299,-16 270,-42 240,-69 214,-92 185,-92 191,-87 185,-92 191,-87 192,-84 205,-73 235,-46 265,-19 294,8 324,34 336,45 324,34 294,8 265,-19 235,-46 205,-73 192,-84 200,-67 203,-58 202,-48 230,-23 260,4 290,31 319,58 326,64 321,73 315,81 285,54 255,28 225,1 194,-27 186,-21 177,-15 191,-3 220,24 250,51 280,78 301,96 292,102 283,108 275,101 245,74 216,47 186,21 156,-6 148,-14 133,-21 120,-27 120,-31 121,-31 120,-29 123,-29 120,-26 131,-31 122,-21 136,-30 123,-16 128,-18 140,-28 124,-10 144,-26 131,-11 124,-4 140,-18 148,-24 125,2 133,-3 152,-22 143,-11 126,8 152,-18 157,-20 135,4 126,14 145,-3 162,-19 155,-11 127,20 138,12 166,-20 171,-22 147,4 128,25 129,28 131,26 157,-3 175,-24 182,-29 195,-43 208,-58 215,-65 216,-74 202,-86 184,-94 165,-99 172,-100 168,-96 179,-101 171,-92 185,-102 177,-93 174,-89 192,-102 177,-86 198,-102 189,-93 180,-83 204,-102 183,-80 192,-85 209,-102 201,-93 186,-75 215,-102 194,-78 188,-71 204,-85 221,-101 213,-93 190,-67 196,-70 227,-101 206,-78 191,-62 216,-85 233,-101 225,-93 198,-63 193,-57 208,-70 239,-101 218,-78 192,-49 201,-55 227,-85 244,-101 237,-93 210,-63 189,-39 177,-26 165,-12 154,2 142,16 130,30 140,19 167,-11 193,-40 220,-70 250,-100 230,-78 203,-48 176,-18 149,12 130,33 159,4 186,-26 213,-55 239,-85 256,-100 249,-92 222,-63 196,-33 169,-3 142,26 132,38 152,19 179,-11 205,-40 232,-70 261,-99 242,-78 215,-48 188,-18 161,12 133,43 144,34 171,4 198,-26 225,-55 251,-85 267,-99 261,-92 234,-63 208,-33 181,-3 154,26 135,48 164,19 191,-11 217,-40 244,-70 273,-99 254,-78 227,-48 200,-18 173,12 147,41 137,53 156,34 183,4 210,-26 237,-55 263,-85 279,-98 273,-92 246,-63 220,-33 193,-3 166,26 139,57 149,49 176,19 203,-11 229,-40 256,-70 284,-98 266,-78 239,-48 212,-18 185,12 159,41 140,62 143,62 168,34 195,4 222,-26 249,-55 275,-85 290,-97 285,-92 258,-63 232,-33 205,-3 178,26 151,56 142,66 161,49 188,19 214,-11 241,-40 268,-70 295,-96 278,-78 251,-48 224,-18 197,12 171,41 144,71 154,64 180,34 207,4 234,-26 261,-55 287,-85 300,-95 297,-92 270,-63 244,-33 217,-3 190,26 163,56 147,75 173,49 200,19 226,-11 253,-40 280,-70 305,-94 290,-78 263,-48 236,-18 209,12 183,41 156,71 149,78 166,64 192,34 219,4 246,-26 273,-55 299,-85 310,-93 282,-63 256,-33 229,-3 202,27 175,56 152,82 158,79 185,49 212,19 238,-11 265,-40 292,-70 316,-93 302,-78 275,-48 248,-18 221,12 195,41 168,71 154,86 178,64 204,34 231,4 258,-25 285,-55 311,-85 321,-93 294,-63 268,-33 241,-3 214,27 187,56 160,86 157,90 170,79 197,49 224,19 250,-11 277,-40 304,-70 327,-92 314,-77 287,-48 260,-18 233,12 207,41 180,71 160,93 190,64 216,34 243,4 270,-25 297,-55 323,-85 333,-92 306,-63 279,-33 253,-3 226,27 199,56 172,86 163,96 182,79 209,49 236,19 262,-11 289,-40 316,-70 338,-91 326,-77 299,-48 272,-18 245,12 219,41 192,71 166,99 175,93 201,64 228,34 255,4 282,-25 309,-55 335,-85 344,-91 318,-63 291,-33 265,-3 238,27 211,56 184,86 170,102 194,79 221,49 248,19 274,-11 301,-40 328,-70 349,-90 338,-77 311,-48 284,-18 257,12 231,41 204,71 177,101 173,105 187,93 213,64 240,34 267,4 294,-25 321,-55 347,-85 353,-88 330,-63 303,-33 277,-3 250,27 223,56 196,86 177,108 206,79 233,49 260,19 286,-11 313,-40 340,-70 358,-86 350,-77 323,-48 296,-18 269,12 243,41 216,71 189,101 180,111 199,94 225,64 252,34 279,4 306,-25 333,-55 362,-84 342,-63 315,-33 289,-3 262,27 235,56 208,86 184,113 191,108 218,79 245,49 272,19 298,-11 325,-40 352,-70 363,-79 361,-76 335,-48 308,-18 281,12 255,42 228,71 201,101 188,115 211,94 237,64 264,34 291,4 318,-25 344,-55 362,-71 354,-63 327,-33 301,-3 274,27 247,56 220,86 192,117 203,108 230,79 257,49 284,19 310,-11 337,-40 362,-64 347,-48 320,-18 293,12 266,42 240,71 213,101 196,119 223,94 249,64 276,34 303,4 330,-25 356,-55 361,-57 339,-33 313,-3 286,27 259,56 232,86 206,116 201,121 215,108 242,79 269,49 296,19 322,-10 349,-40 361,-50 359,-48 332,-18 305,12 278,42 252,71 225,101 206,122 235,94 261,64 288,34 315,4 342,-25 360,-43 351,-33 325,-3 298,27 271,56 244,86 218,116 211,124 227,108 254,79 281,49 308,19 334,-10 360,-36 344,-18 317,12 290,42 264,71 237,101 215,125 247,94 273,64 300,34 327,4 354,-25 359,-28 337,-3 310,27 283,56 256,86 230,116 221,125 239,108 266,79 293,49 320,19 346,-10 358,-21 356,-18 329,12 302,42 276,71 249,101 227,126 232,123 259,94 285,64 312,34 339,4 358,-13 349,-3 322,27 295,56 268,86 242,116 233,126 251,108 278,79 305,49 331,19 357,-6 341,12 314,42 288,71 261,101 239,126 244,123 271,94 297,64 324,34 351,4 356,2 334,27 307,56 280,86 253,116 245,125 263,109 290,79 317,49 343,19 355,10 353,12 326,42 300,71 273,101 252,125 257,122 283,94 309,64 336,34 354,18 346,27 319,57 292,86 265,116 258,124 275,109 302,79 329,49 352,27 338,42 312,71 285,101 265,123 295,94 321,64 348,34 350,32 349,37 331,57 304,86 277,116 272,122 287,109 314,79 341,49 347,42 345,47 324,71 297,101 280,120 307,94 333,64 343,53 341,59 316,86 289,117 294,114 299,109 326,79 337,66 332,75 309,101 301,110 313,100 314,99 313,99 313,100" /><polyline  stroke="white" points="-302,-83 -301,-80 -302,-83 -294,-65 -291,-56 -293,-46 -305,-32 -315,-30 -324,-32 -338,-46 -336,-65 -321,-77 -302,-83 -315,-72 -327,-60 -340,-49 -340,-49 -336,-65 -323,-76 -323,-48 -323,-32 -307,-31 -307,-60 -307,-82 -302,-83 -296,-67 -290,-52 -290,-52 -290,-52 -302,-83 -318,-86 -310,-86 -310,-86 -307,-86 -320,-86 -328,-84 -296,-82 -322,-82 -331,-82 -310,-80 -291,-78 -298,-78 -337,-78 -326,-76 -287,-74 -314,-74 -342,-74 -302,-72 -284,-70 -290,-70 -330,-70 -345,-70 -318,-68 -282,-66 -306,-66 -348,-66 -334,-64 -294,-64 -280,-62 -322,-62 -349,-62 -310,-60 -279,-58 -298,-58 -338,-58 -350,-58 -326,-56 -286,-56 -278,-54 -314,-54 -351,-54 -342,-52 -302,-52 -278,-50 -290,-50 -330,-50 -351,-50 -318,-48 -279,-46 -306,-46 -346,-46 -350,-46 -334,-44 -294,-44 -281,-42 -322,-42 -350,-42 -310,-40 -283,-38 -298,-38 -338,-38 -347,-38 -326,-36 -285,-34 -314,-34 -344,-34 -339,-32 -302,-32 -289,-30 -330,-30 -340,-30 -318,-28 -293,-26 -306,-26 -335,-26 -300,-22 -322,-22 -327,-22 -315,-20 -312,-20 -311,-20 -315,-20" /><polyline  stroke="white" points="167,-85 169,-83 167,-85 178,-71 185,-55 177,-39 161,-32 152,-32 145,-37 133,-51 137,-68 150,-80 167,-85 156,-74 144,-62 133,-51 133,-51 140,-64 146,-77 146,-48 146,-36 159,-32 159,-60 159,-83 167,-85 176,-70 185,-55 178,-45 172,-36 172,-72 172,-79 167,-85 158,-90 164,-90 164,-90 167,-90 154,-90 167,-90 174,-88 146,-88 158,-86 181,-84 170,-84 139,-84 142,-82 186,-80 154,-80 134,-80 166,-78 189,-76 178,-76 138,-76 130,-76 150,-74 192,-72 162,-72 127,-72 134,-70 174,-70 194,-68 186,-68 146,-68 125,-68 158,-66 196,-64 170,-64 130,-64 124,-64 142,-62 182,-62 197,-60 154,-60 122,-60 126,-58 166,-58 197,-56 178,-56 138,-56 122,-56 150,-54 190,-54 197,-52 162,-52 122,-52 134,-50 174,-50 195,-48 186,-48 146,-48 123,-48 158,-46 193,-44 170,-44 130,-44 124,-44 142,-42 182,-42 191,-40 154,-40 127,-40 166,-38 190,-36 178,-36 138,-36 129,-36 150,-34 186,-32 162,-32 133,-32 174,-30 181,-28 146,-28 139,-28 158,-26 174,-24 170,-24 147,-24 162,-22 163,-22 165,-22 160,-22 162,-22 160,-22 162,-22" /><polyline class="left-outline"  points="-350,-85 -350,-85 -347,-81 -362,-83 -360,-65 -359,-47 -349,-33 -339,-19 -358,-29 -355,-10 -353,8 -350,27 -343,43 -337,58 -330,74 -318,89 -306,104 -286,118 -270,123 -254,128 -233,128 -211,128 -196,123 -180,118 -158,102 -146,87 -135,71 -127,55 -120,38 -115,17 -110,-4 -108,-26 -106,-48 -104,-70 -103,-92 -115,-93 -119,-96 -97,-97 -120,-93 -98,-92 -120,-91 -98,-88 -120,-88 -98,-83 -121,-83 -99,-79 -121,-79 -99,-75 -121,-74 -99,-70 -122,-70 -100,-66 -122,-65 -100,-61 -123,-61 -101,-57 -123,-57 -101,-52 -123,-52 -101,-48 -124,-48 -102,-44 -124,-43 -102,-39 -125,-39 -102,-35 -125,-34 -103,-30 -125,-30 -103,-26 -126,-26 -104,-21 -126,-22 -104,-17 -126,-17 -104,-13 -127,-13 -105,-8 -127,-9 -105,-4 -128,-5 -106,1 -128,-1 -107,5 -128,3 -108,9 -129,7 -109,14 -131,11 -110,18 -132,15 -111,22 -133,19 -112,27 -134,23 -113,31 -135,26 -114,35 -136,30 -115,40 -137,34 -117,44 -138,38 -119,48 -139,42 -120,52 -141,46 -122,56 -143,49 -124,60 -145,52 -126,64 -146,56 -128,68 -148,59 -130,72 -150,62 -132,76 -152,66 -135,80 -154,69 -137,83 -156,72 -140,87 -159,75 -143,90 -161,78 -145,94 -163,81 -148,97 -166,84 -151,101 -168,87 -154,104 -170,90 -157,107 -173,92 -160,110 -176,94 -164,113 -179,95 -168,115 -182,97 -171,118 -185,99 -175,120 -188,101 -179,123 -191,103 -183,124 -194,105 -187,126 -197,107 -191,127 -200,107 -196,128 -204,108 -200,130 -207,109 -204,131 -211,109 -208,132 -214,110 -213,133 -218,110 -217,133 -222,111 -222,133 -225,111 -226,133 -229,112 -230,133 -233,113 -235,133 -237,113 -239,133 -240,112 -244,133 -244,112 -248,133 -248,111 -253,133 -251,110 -257,133 -255,110 -261,131 -258,109 -266,130 -262,109 -270,129 -265,108 -274,127 -269,106 -278,126 -272,104 -283,124 -275,103 -287,123 -278,101 -291,121 -281,100 -294,118 -284,98 -298,116 -287,97 -302,113 -290,95 -305,111 -292,92 -309,108 -295,89 -312,105 -297,86 -315,101 -300,84 -317,98 -302,81 -320,94 -304,78 -323,91 -307,76 -326,87 -309,73 -329,84 -312,70 -331,80 -314,67 -334,77 -316,63 -336,73 -318,60 -338,69 -320,57 -339,64 -321,53 -341,60 -323,50 -343,56 -325,46 -345,52 -326,43 -346,48 -327,39 -348,44 -328,35 -350,40 -329,31 -351,36 -330,27 -353,32 -331,23 -355,27 -332,19 -356,23 -333,15 -356,19 -334,11 -357,14 -335,7 -358,10 -336,4 -358,5 -337,0 -359,1 -337,-3 -360,-3 -338,-7 -361,-8 -339,-11 -361,-12 -340,-15 -362,-17 -339,-19 -362,-21 -337,-23 -363,-25 -336,-27 -363,-30 -335,-31 -363,-34 -334,-35 -363,-39 -333,-39 -364,-43 -335,-43 -364,-48 -337,-47 -364,-52 -337,-50 -364,-57 -337,-53 -365,-62 -337,-55 -365,-66 -337,-57 -365,-71 -337,-59 -365,-77 -336,-60 -366,-82 -335,-61 -363,-85 -334,-62 -356,-85 -333,-64 -333,-64 -350,-85 -347,-81 -325,-82 -304,-83 -293,-86 -283,-79 -274,-64 -274,-49 -283,-25 -296,-14 -313,-10 -339,-19 -340,-14 -333,-41 -338,-13 -329,-37 -334,-12 -326,-33 -331,-11 -324,-31 -326,-10 -321,-30 -322,-8 -318,-30 -318,-7 -315,-30 -314,-6 -313,-29 -309,-6 -311,-29 -305,-7 -309,-30 -301,-8 -307,-31 -297,-9 -305,-32 -292,-11 -303,-33 -289,-14 -301,-34 -285,-16 -299,-35 -282,-19 -297,-36 -279,-22 -296,-38 -277,-27 -295,-40 -275,-31 -294,-42 -273,-35 -293,-44 -272,-39 -292,-46 -270,-43 -291,-48 -269,-47 -291,-51 -269,-52 -291,-53 -269,-56 -292,-55 -269,-61 -292,-57 -270,-65 -293,-59 -272,-69 -293,-61 -274,-73 -293,-63 -276,-77 -294,-65 -278,-81 -296,-66 -281,-84 -297,-67 -285,-86 -299,-69 -289,-89 -301,-70 -293,-90 -303,-72 -299,-89 -305,-74 -304,-88 -308,-74 -308,-87 -311,-75 -313,-87 -315,-75 -317,-87 -318,-75 -322,-87 -322,-74 -326,-86 -325,-73 -331,-86 -327,-71 -335,-86 -329,-69 -340,-86 -331,-67 -345,-85 -332,-65 -350,-85 -349,-84 -342,-77 -343,-82 -363,-74 -379,-74 -394,-74 -405,-77 -414,-75 -413,-78 -412,-74 -410,-81 -408,-73 -407,-83 -404,-72 -403,-84 -399,-71 -399,-85 -395,-70 -394,-87 -391,-69 -390,-88 -386,-69 -386,-89 -382,-69 -382,-90 -377,-69 -378,-91 -373,-69 -375,-92 -368,-69 -371,-93 -364,-69 -367,-94 -360,-70 -363,-95 -355,-71 -359,-96 -351,-72 -355,-98 -347,-74 -351,-99 -343,-76 -346,-100 -339,-77 -342,-100 -335,-78 -338,-101 -331,-79 -333,-101 -327,-80 -329,-102 -323,-81 -324,-102 -319,-81 -320,-103 -315,-81 -315,-103 -311,-82 -311,-104 -307,-82 -307,-104 -302,-82 -302,-105 -298,-83 -298,-105 -293,-83 -293,-106 -289,-84 -289,-106 -284,-84 -285,-107 -280,-84 -280,-107 -276,-85 -276,-108 -271,-85 -271,-108 -267,-85 -267,-109 -263,-86 -262,-109 -258,-86 -258,-110 -254,-87 -254,-110 -250,-87 -249,-111 -245,-87 -245,-111 -241,-88 -240,-111 -237,-88 -236,-111 -233,-88 -231,-111 -229,-89 -227,-111 -224,-89 -223,-111 -220,-89 -218,-111 -216,-89 -214,-111 -211,-89 -209,-111 -207,-89 -205,-111 -203,-89 -200,-111 -198,-89 -196,-111 -194,-89 -191,-111 -189,-89 -187,-111 -185,-88 -183,-111 -181,-88 -178,-111 -176,-88 -174,-111 -172,-88 -169,-111 -168,-88 -165,-111 -164,-88 -160,-110 -159,-88 -156,-110 -155,-88 -151,-109 -151,-88 -147,-109 -146,-88 -143,-108 -142,-87 -138,-108 -138,-87 -134,-107 -133,-87 -129,-107 -129,-87 -125,-106 -125,-86 -121,-106 -120,-86 -116,-105 -116,-86 -112,-105 -111,-85 -107,-104 -107,-85 -103,-104 -103,-85 -98,-103 -99,-84 -94,-103 -94,-84 -90,-102 -90,-84 -85,-101 -86,-84 -81,-99 -82,-85 -77,-96 -77,-85 -73,-94 -73,-85 -70,-93 -68,-85 -69,-88 -68,-85" /><polyline class="right-outline"  points="134,-96 135,-93 134,-96 136,-91 159,-91 182,-91 197,-74 201,-57 196,-40 183,-24 161,-16 135,-23 132,-19 142,-42 134,-18 144,-40 139,-17 146,-39 143,-16 149,-37 147,-15 152,-35 151,-13 155,-34 156,-12 157,-35 160,-11 160,-35 165,-12 162,-35 169,-13 165,-36 173,-15 167,-36 177,-16 170,-36 181,-18 171,-38 185,-20 173,-39 189,-23 174,-41 192,-26 176,-43 194,-30 178,-44 197,-33 179,-46 200,-37 181,-48 201,-41 181,-50 202,-45 181,-52 204,-49 181,-54 205,-54 181,-57 205,-58 181,-59 204,-63 181,-61 204,-67 182,-63 203,-71 181,-65 201,-75 180,-66 199,-79 179,-68 196,-83 178,-70 193,-86 177,-72 190,-89 175,-74 187,-93 173,-75 183,-95 171,-76 178,-95 169,-78 173,-95 167,-79 169,-95 164,-79 164,-95 161,-80 160,-95 158,-80 155,-95 155,-80 151,-95 151,-79 146,-95 148,-78 142,-95 146,-76 137,-96 144,-74 133,-95 143,-73 127,-96 142,-71 120,-98 141,-70 115,-98 140,-69 110,-96 139,-68 108,-92 138,-68 107,-88 137,-66 107,-82 137,-65 107,-77 137,-63 107,-72 137,-61 108,-67 137,-59 108,-63 136,-57 108,-58 136,-54 109,-54 137,-50 109,-49 139,-46 109,-45 141,-42 110,-40 140,-38 110,-36 138,-34 110,-31 136,-29 111,-27 135,-25 111,-22 133,-20 111,-18 133,-16 112,-14 133,-12 112,-9 134,-8 112,-5 135,-5 113,0 135,-2 114,4 136,2 115,8 137,6 116,13 137,10 118,17 138,14 119,21 139,18 120,25 140,22 121,30 141,26 122,34 143,30 123,38 144,34 125,43 146,37 126,47 147,41 127,51 149,44 128,56 150,48 130,60 152,52 132,63 153,55 135,67 155,59 137,71 157,62 139,75 160,65 142,79 162,68 144,82 164,71 146,86 166,74 149,90 169,77 151,94 171,80 154,97 173,84 157,101 175,86 160,104 177,89 163,107 180,91 166,110 183,94 170,113 185,96 173,116 188,98 177,118 191,100 181,120 193,102 185,122 196,104 189,123 200,105 193,125 203,106 197,127 206,107 201,128 210,108 205,130 213,109 210,132 217,110 214,133 220,111 218,133 224,112 223,133 228,112 227,133 232,112 232,134 235,112 236,134 239,112 241,134 242,112 245,134 246,112 250,135 250,112 254,134 253,112 258,133 257,112 263,133 261,111 267,132 264,109 271,131 268,108 276,130 271,107 280,129 274,106 284,128 277,104 288,126 280,103 292,124 284,102 296,122 287,101 300,120 290,99 304,118 293,98 308,115 296,95 311,112 298,93 314,109 301,90 317,105 303,88 320,102 305,85 324,99 308,83 327,96 310,80 330,93 313,77 333,89 316,74 335,86 318,71 337,82 320,67 339,78 322,64 342,74 324,61 344,70 325,58 346,66 327,55 348,62 329,51 350,58 330,47 352,54 331,44 354,50 333,40 355,46 334,36 356,42 335,32 357,37 336,28 358,33 338,24 360,29 339,21 361,24 340,17 362,20 341,13 363,16 343,9 364,11 344,5 365,7 345,1 366,3 345,-3 367,-1 345,-7 368,-6 346,-11 368,-10 346,-15 369,-15 346,-19 369,-19 347,-24 370,-24 347,-28 370,-28 348,-32 370,-32 348,-37 371,-37 348,-41 371,-41 349,-45 371,-46 349,-50 372,-50 350,-54 372,-55 350,-59 372,-59 350,-63 373,-63 351,-68 373,-68 351,-72 373,-72 352,-76 374,-77 374,-79 374,-79 359,-81 362,-81 359,-81 343,-77 344,-80 343,-77 343,-77 344,-82 364,-74 380,-74 395,-74 414,-78 413,-74 410,-81 409,-73 408,-83 404,-72 403,-84 400,-71 399,-86 395,-70 395,-87 391,-69 391,-88 386,-69 386,-89 382,-69 382,-90 377,-69 379,-91 373,-69 375,-92 368,-69 371,-93 364,-69 367,-95 360,-70 363,-96 355,-72 359,-97 351,-73 355,-98 347,-75 351,-99 343,-77 346,-100 339,-77 342,-100 335,-78 337,-101 331,-79 333,-101 327,-80 329,-102 323,-81 324,-102 319,-81 320,-103 315,-81 315,-104 311,-82 311,-104 307,-82 307,-105 302,-83 302,-105 298,-83 298,-106 293,-83 293,-106 289,-84 289,-107 284,-84 284,-107 280,-84 280,-108 276,-85 276,-108 271,-85 271,-109 267,-86 267,-109 262,-86 262,-110 258,-86 258,-110 254,-87 254,-111 250,-87 249,-111 245,-87 245,-111 241,-88 240,-111 237,-88 236,-111 233,-89 231,-111 229,-89 227,-111 224,-89 222,-111 220,-89 218,-111 216,-89 214,-111 211,-89 209,-111 207,-89 205,-111 203,-89 200,-111 198,-89 196,-111 194,-89 191,-111 189,-89 187,-111 185,-88 182,-111 181,-88 178,-111 176,-88 174,-111 172,-88 169,-111 168,-88 165,-111 163,-88 160,-110 159,-88 156,-110 155,-88 151,-109 151,-88 147,-109 146,-88 143,-108 142,-87 138,-108 138,-87 134,-107 133,-87 129,-107 129,-86 125,-106 124,-86 120,-106 120,-86 116,-105 116,-86 112,-105 111,-85 107,-104 107,-85 103,-104 103,-85 99,-103 99,-84 94,-103 95,-84 90,-102 91,-84 86,-101 86,-84 82,-98 82,-84 78,-96 78,-85 74,-94 73,-85 71,-93 69,-85 69,-91 69,-91 67,-86 68,-89 67,-86" /><polyline   points="-222,-132 -219,-132 -222,-132 -202,-134 -183,-135 -163,-134 -143,-133 -124,-132 -104,-131 -124,-132 -104,-131 -124,-132 -143,-133 -124,-132 -143,-133 -163,-134 -143,-133 -163,-134 -183,-135 -163,-134 -183,-135 -202,-134 -183,-135 -202,-134 -222,-132 -202,-134 -222,-132 -219,-132 -222,-132" /><polyline   points="235,-132 232,-132 235,-132 215,-134 196,-135 176,-134 156,-133 137,-132 117,-131 137,-132 117,-131 137,-132 156,-133 137,-132 156,-133 176,-134 156,-133 176,-134 196,-135 176,-134 196,-135 215,-134 196,-135 215,-134 235,-132 215,-134 235,-132 232,-132 235,-132" /></svg>