<svg viewBox="-425 -150 850 300" fill="none" stroke="black" stroke-width="4"><polyline class="left-eye" stroke="red" points="-341,-30 -338,-29 -341,-30 -323,-23 -304,-24 -286,-31 -274,-47 -271,-66 -276,-84 -289,-99 -271,-94 -252,-92 -233,-91 -213,-90 -194,-88 -175,-86 -156,-84 -137,-82 -118,-80 -119,-61 -119,-42 -121,-23 -124,-4 -126,15 -129,34 -135,52 -145,69 -158,83 -171,96 -188,106 -205,114 -224,117 -243,115 -262,110 -279,103 -295,91 -308,78 -319,62 -328,45 -335,27 -339,8 -341,-11 -341,-30 -335,-12 -330,6 -324,24 -319,42 -313,60 -308,78 -284,98 -257,111 -265,103 -292,73 -320,44 -334,29 -337,15 -339,2 -317,26 -290,55 -263,84 -235,113 -233,116 -214,115 -233,95 -260,65 -288,36 -315,7 -341,-21 -341,-30 -325,-18 -310,-6 -294,6 -278,18 -263,30 -247,42 -233,28 -219,14 -204,1 -190,-13 -175,-26 -161,-40 -147,-53 -132,-67 -118,-80 -118,-70 -119,-59 -140,-82 -151,-84 -162,-85 -149,-71 -122,-42 -119,-39 -121,-20 -124,-23 -152,-52 -179,-82 -184,-87 -195,-88 -206,-89 -181,-63 -154,-34 -127,-4 -124,-1 -126,18 -129,14 -157,-15 -184,-44 -211,-73 -227,-91 -238,-91 -248,-92 -241,-84 -214,-55 -186,-25 -159,4 -132,33 -129,36 -135,51 -161,22 -189,-7 -216,-36 -243,-65 -269,-93 -288,-98 -278,-88 -289,-99 -278,-88 -273,-76 -246,-47 -218,-17 -191,12 -164,41 -142,64 -151,76 -166,60 -194,31 -221,1 -248,-28 -272,-54 -279,-39 -251,-9 -223,20 -196,49 -169,78 -161,87 -172,97 -198,68 -226,39 -253,9 -280,-20 -289,-30 -304,-24 -283,-1 -255,28 -228,57 -201,87 -184,105 -198,111 -203,105 -231,76 -258,47 -285,17 -312,-12 -323,-23 -341,-30 -346,-39 -345,-39 -346,-38 -343,-38 -347,-35 -339,-37 -347,-29 -335,-35 -341,-31 -348,-24 -332,-34 -348,-19 -340,-24 -328,-32 -348,-14 -324,-31 -339,-17 -348,-9 -329,-24 -320,-30 -347,-5 -338,-10 -315,-29 -328,-17 -347,0 -318,-24 -310,-29 -337,-4 -346,5 -327,-11 -304,-30 -317,-17 -346,9 -337,3 -307,-24 -297,-32 -327,-4 -345,14 -345,16 -317,-11 -291,-34 -285,-38 -276,-51 -266,-65 -257,-78 -271,-88 -288,-94 -305,-101 -302,-101 -304,-100 -297,-101 -301,-98 -291,-101 -298,-95 -286,-101 -295,-93 -281,-101 -284,-99 -292,-91 -276,-101 -290,-88 -283,-92 -271,-101 -287,-85 -266,-100 -282,-85 -285,-83 -272,-92 -261,-100 -283,-79 -256,-99 -271,-85 -281,-76 -261,-92 -251,-99 -280,-72 -270,-79 -246,-99 -260,-85 -279,-68 -250,-92 -241,-98 -270,-72 -278,-64 -260,-79 -236,-98 -250,-85 -278,-59 -269,-65 -240,-92 -231,-98 -259,-72 -279,-53 -249,-79 -226,-97 -239,-86 -268,-58 -281,-47 -284,-41 -258,-65 -229,-92 -222,-97 -248,-72 -277,-45 -307,-17 -336,10 -345,18 -326,3 -297,-24 -267,-52 -238,-79 -217,-96 -228,-86 -257,-58 -287,-31 -316,-4 -343,22 -335,16 -306,-11 -277,-38 -247,-65 -218,-93 -212,-96 -237,-72 -266,-45 -296,-18 -325,10 -342,26 -315,3 -286,-24 -256,-52 -227,-79 -207,-96 -217,-86 -246,-59 -276,-31 -305,-4 -334,23 -341,30 -324,16 -295,-11 -266,-38 -236,-65 -207,-93 -202,-95 -226,-72 -256,-45 -285,-18 -314,10 -340,34 -333,30 -304,3 -275,-25 -246,-52 -216,-79 -197,-95 -206,-86 -236,-59 -265,-31 -294,-4 -323,23 -339,38 -313,16 -284,-11 -255,-38 -226,-66 -192,-94 -216,-72 -245,-45 -274,-18 -303,9 -333,37 -338,42 -323,30 -293,3 -264,-25 -235,-52 -206,-79 -187,-94 -196,-86 -225,-59 -254,-32 -283,-4 -313,23 -336,45 -332,43 -303,16 -273,-11 -244,-38 -215,-66 -182,-94 -205,-73 -234,-45 -263,-18 -293,9 -322,37 -335,49 -312,30 -283,2 -253,-25 -224,-52 -195,-79 -178,-93 -185,-86 -214,-59 -243,-32 -273,-4 -302,23 -333,52 -321,43 -292,16 -263,-11 -233,-39 -204,-66 -173,-93 -194,-73 -223,-45 -253,-18 -282,9 -311,36 -331,55 -301,30 -272,2 -242,-25 -213,-52 -184,-80 -168,-92 -174,-86 -203,-59 -232,-32 -262,-5 -291,23 -320,50 -330,59 -310,43 -281,16 -252,-11 -222,-39 -193,-66 -163,-92 -183,-73 -212,-46 -242,-18 -271,9 -300,36 -328,62 -319,57 -290,29 -261,2 -232,-25 -202,-52 -173,-80 -158,-91 -163,-87 -192,-59 -222,-32 -251,-5 -280,23 -309,50 -327,66 -299,43 -270,16 -241,-12 -212,-39 -182,-66 -153,-91 -172,-73 -202,-46 -231,-18 -260,9 -289,36 -319,63 -325,69 -309,57 -279,29 -250,2 -221,-25 -192,-53 -162,-80 -148,-90 -152,-87 -182,-59 -211,-32 -240,-5 -269,22 -299,50 -322,72 -318,70 -289,43 -259,16 -230,-12 -201,-39 -172,-66 -144,-90 -162,-73 -191,-46 -220,-19 -249,9 -279,36 -308,63 -320,75 -298,56 -269,29 -239,2 -210,-25 -181,-53 -152,-80 -139,-90 -142,-87 -171,-60 -200,-32 -229,-5 -259,22 -288,50 -318,78 -307,70 -278,43 -249,15 -219,-12 -190,-39 -161,-66 -134,-89 -151,-73 -180,-46 -209,-19 -239,9 -268,36 -297,63 -316,81 -287,56 -258,29 -229,2 -199,-26 -170,-53 -141,-80 -129,-89 -160,-60 -189,-32 -218,-5 -248,22 -277,49 -306,77 -314,84 -296,70 -267,43 -238,15 -208,-12 -179,-39 -150,-67 -124,-88 -140,-73 -169,-46 -198,-19 -228,8 -257,36 -286,63 -311,86 -305,83 -276,56 -247,29 -218,2 -188,-26 -159,-53 -130,-80 -119,-88 -149,-60 -178,-33 -208,-5 -237,22 -266,49 -295,77 -309,89 -285,70 -256,42 -227,15 -198,-12 -168,-39 -139,-67 -114,-87 -129,-74 -158,-46 -188,-19 -217,8 -246,36 -275,63 -306,91 -295,83 -265,56 -236,29 -207,1 -178,-26 -148,-53 -119,-80 -111,-86 -138,-60 -168,-33 -197,-5 -226,22 -255,49 -285,76 -304,94 -275,70 -245,42 -216,15 -187,-12 -158,-40 -128,-67 -111,-81 -118,-74 -148,-46 -177,-19 -206,8 -235,35 -265,63 -294,90 -301,97 -284,83 -255,56 -225,29 -196,1 -167,-26 -138,-53 -111,-75 -128,-60 -157,-33 -186,-6 -215,22 -245,49 -274,76 -298,99 -293,97 -264,69 -235,42 -205,15 -176,-12 -147,-40 -118,-67 -111,-70 -137,-47 -166,-19 -195,8 -225,35 -254,63 -283,90 -295,101 -273,83 -244,56 -215,28 -185,1 -156,-26 -127,-53 -111,-65 -117,-60 -146,-33 -175,-6 -204,22 -234,49 -263,76 -292,103 -282,97 -253,69 -224,42 -194,15 -165,-13 -136,-40 -112,-60 -126,-47 -155,-19 -184,8 -214,35 -243,62 -272,90 -289,105 -262,83 -233,56 -204,28 -174,1 -145,-26 -116,-54 -112,-55 -135,-33 -164,-6 -194,21 -223,49 -252,76 -281,103 -286,108 -271,96 -242,69 -213,42 -184,15 -154,-13 -125,-40 -112,-50 -115,-47 -144,-20 -174,8 -203,35 -232,62 -261,90 -283,110 -279,108 -251,83 -222,55 -193,28 -164,1 -134,-26 -112,-45 -124,-33 -154,-6 -183,21 -212,49 -241,76 -271,103 -279,111 -261,96 -231,69 -202,42 -173,14 -144,-13 -114,-40 -112,-40 -134,-20 -163,8 -192,35 -221,62 -251,89 -276,113 -270,110 -241,83 -211,55 -182,28 -153,1 -124,-27 -113,-34 -115,-32 -143,-6 -172,21 -201,48 -231,76 -260,103 -272,115 -250,96 -221,69 -191,42 -162,14 -133,-13 -113,-29 -123,-20 -152,7 -181,35 -211,62 -240,89 -269,116 -259,110 -230,82 -201,55 -171,28 -142,1 -114,-24 -132,-6 -161,21 -191,48 -220,76 -249,103 -265,118 -239,96 -210,69 -180,41 -151,14 -122,-13 -114,-18 -141,7 -170,35 -200,62 -229,89 -258,116 -261,119 -248,110 -219,82 -190,55 -160,28 -131,0 -115,-12 -121,-6 -150,21 -180,48 -209,75 -238,103 -257,120 -228,96 -199,69 -170,41 -140,14 -116,-7 -130,7 -160,34 -189,62 -218,89 -247,116 -253,121 -237,109 -208,82 -179,55 -150,28 -120,0 -116,-1 -140,21 -169,48 -198,75 -227,103 -249,122 -217,96 -188,68 -159,41 -130,14 -117,4 -120,7 -149,34 -178,62 -207,89 -237,116 -244,123 -227,109 -197,82 -168,55 -139,27 -117,10 -129,21 -158,48 -187,75 -217,102 -239,123 -207,96 -177,68 -148,41 -118,15 -138,34 -167,61 -197,89 -226,116 -234,124 -216,109 -187,82 -157,55 -128,27 -118,21 -147,48 -177,75 -206,102 -229,124 -196,95 -167,68 -137,41 -120,27 -127,34 -156,61 -186,89 -215,116 -223,124 -205,109 -176,82 -146,54 -121,34 -136,48 -166,75 -195,102 -217,123 -185,95 -156,68 -126,41 -123,40 -146,61 -175,88 -204,116 -211,122 -194,109 -165,82 -136,54 -126,48 -155,75 -184,102 -203,120 -174,95 -145,68 -130,56 -135,61 -164,88 -195,117 -183,109 -154,81 -133,62 -137,68 -144,75 -173,102 -185,113 -178,109 -163,95 -140,74 -143,77 -153,86 -162,97 -163,97 -163,97 -162,97 -143,77 -145,79 -143,77" /><polyline class="right-eye" stroke="red" points="128,-10 131,-9 128,-10 145,-5 153,-3 161,-6 177,-14 190,-25 196,-41 195,-59 187,-74 175,-87 191,-79 210,-81 229,-83 247,-85 266,-87 285,-88 304,-90 322,-91 341,-92 340,-72 339,-52 335,-32 333,-13 332,7 329,27 323,46 314,64 302,80 288,94 271,104 252,109 232,111 212,109 193,102 176,94 160,81 148,66 138,48 131,30 129,10 128,-10 133,7 139,25 144,42 150,60 155,77 172,87 188,97 204,107 200,102 171,74 143,45 132,34 130,23 129,11 144,27 173,55 201,83 228,111 247,110 231,93 202,65 174,37 146,9 128,-9 128,-10 141,0 155,11 168,21 182,31 195,41 209,52 227,43 238,28 248,11 259,-6 272,-20 286,-35 300,-49 314,-63 327,-78 341,-92 341,-92 322,-91 335,-79 340,-73 339,-55 333,-60 304,-90 286,-88 304,-70 332,-42 336,-38 334,-20 331,-24 302,-52 274,-80 267,-87 249,-85 273,-62 301,-33 329,-5 333,-1 331,17 328,13 300,-15 271,-43 243,-72 231,-83 213,-81 242,-53 270,-25 298,3 328,33 323,47 297,22 268,-7 240,-35 212,-63 195,-80 185,-81 175,-87 186,-76 194,-62 211,-45 239,-17 267,12 295,40 316,61 308,73 294,58 266,30 237,2 209,-27 196,-40 190,-26 208,-8 236,20 264,48 293,77 299,83 289,93 263,67 235,38 206,10 180,-16 167,-9 177,0 205,28 233,57 262,85 278,101 263,107 260,103 232,75 204,47 175,18 154,-3 128,-10 118,-27 119,-27 118,-25 123,-25 117,-19 127,-24 116,-13 130,-22 116,-8 126,-16 134,-21 116,-3 118,-2 137,-19 127,-9 116,2 141,-18 119,5 116,7 128,-3 145,-17 138,-10 117,12 120,11 150,-17 129,4 117,16 139,-3 156,-17 149,-10 121,18 117,21 131,11 163,-19 140,4 118,26 122,25 150,-4 171,-22 160,-11 132,17 119,30 120,32 141,10 170,-18 180,-28 181,-29 191,-43 200,-57 210,-71 193,-77 176,-82 158,-86 164,-87 161,-83 170,-88 163,-81 177,-89 166,-78 183,-90 171,-79 168,-76 181,-86 188,-91 171,-73 174,-74 194,-91 182,-79 173,-70 192,-86 200,-92 176,-68 183,-73 205,-92 193,-80 178,-65 203,-87 211,-93 184,-66 180,-62 194,-73 217,-93 204,-80 182,-59 185,-59 213,-87 222,-94 195,-66 183,-55 205,-74 228,-95 214,-81 184,-51 196,-60 224,-88 234,-95 206,-67 186,-47 215,-74 239,-96 225,-81 197,-53 185,-41 207,-60 235,-89 245,-96 243,-94 216,-67 188,-39 184,-35 180,-29 198,-46 226,-75 251,-97 236,-82 208,-54 179,-25 151,3 123,31 120,34 133,24 161,-4 189,-32 217,-61 246,-89 256,-97 227,-68 199,-40 171,-11 142,17 121,38 152,10 180,-19 209,-47 237,-75 262,-98 247,-82 218,-54 190,-26 162,2 134,31 122,42 143,24 172,-5 200,-33 228,-61 256,-90 268,-98 238,-68 210,-40 181,-12 153,16 124,46 135,37 163,9 191,-19 219,-47 248,-76 273,-99 257,-83 229,-55 201,-26 173,2 144,30 125,49 154,23 182,-5 211,-34 239,-62 267,-90 279,-99 249,-69 220,-41 192,-12 164,16 136,44 127,53 145,37 174,9 202,-20 230,-48 258,-76 285,-100 268,-83 240,-55 212,-27 183,1 155,30 128,56 137,51 165,23 193,-6 221,-34 250,-62 278,-91 290,-100 288,-98 260,-70 231,-41 203,-13 175,15 146,44 130,60 156,36 184,8 213,-20 241,-48 269,-77 296,-101 279,-84 251,-56 222,-27 194,1 166,29 138,57 132,63 147,50 176,22 204,-6 232,-35 261,-63 289,-91 302,-101 299,-98 270,-70 242,-42 214,-14 185,15 157,43 133,67 139,64 167,36 195,8 223,-21 252,-49 280,-77 307,-102 290,-84 262,-56 233,-28 205,0 177,29 148,57 135,70 158,50 186,21 215,-7 243,-35 271,-63 300,-92 313,-102 309,-99 281,-71 253,-42 225,-14 196,14 168,43 140,71 137,73 149,64 178,35 206,7 234,-21 263,-50 291,-78 319,-103 301,-85 272,-57 244,-28 216,0 187,28 159,56 139,76 143,76 169,49 197,21 226,-7 254,-36 282,-64 310,-92 324,-103 320,-99 292,-71 264,-43 235,-15 207,14 179,42 150,70 142,79 160,63 188,35 217,7 245,-22 273,-50 302,-78 329,-104 311,-86 283,-57 255,-29 227,-1 198,28 170,56 144,82 151,77 180,49 208,20 236,-8 265,-36 293,-64 321,-93 335,-104 331,-100 303,-72 274,-43 246,-15 218,13 190,41 161,70 146,85 171,63 199,34 228,6 256,-22 284,-51 312,-79 340,-104 322,-86 294,-58 266,-30 237,-1 209,27 181,55 152,84 148,88 162,76 191,48 219,20 247,-8 275,-37 304,-65 332,-93 346,-105 342,-100 313,-72 285,-44 257,-16 229,13 200,41 172,69 151,90 154,89 182,62 210,34 238,5 267,-23 295,-51 323,-79 351,-105 333,-87 305,-58 276,-30 248,-2 220,27 192,55 163,83 154,93 173,76 201,48 230,19 258,-9 286,-37 314,-66 343,-94 353,-101 324,-73 296,-44 268,-16 239,12 211,40 183,69 156,95 164,90 193,61 221,33 249,5 277,-23 306,-52 334,-80 353,-96 344,-87 315,-59 287,-31 259,-2 231,26 202,54 174,83 159,98 184,75 212,47 240,19 269,-9 297,-38 325,-66 353,-91 335,-73 307,-45 278,-17 250,12 222,40 194,68 165,96 162,100 175,89 203,61 232,33 260,4 288,-24 316,-52 345,-80 352,-86 326,-59 298,-31 270,-3 241,25 213,54 185,82 165,102 195,75 223,47 251,18 279,-10 308,-38 336,-67 352,-80 346,-74 318,-46 289,-17 261,11 233,39 204,68 176,96 168,104 186,89 214,60 242,32 271,4 299,-24 327,-53 352,-75 337,-60 309,-32 280,-3 252,25 224,53 196,82 171,106 177,103 205,74 234,46 262,18 290,-11 319,-39 347,-67 352,-70 328,-46 300,-18 272,11 243,39 215,67 187,95 174,108 197,88 225,60 253,32 281,3 310,-25 338,-53 352,-64 348,-60 320,-32 291,-4 263,24 235,53 206,81 177,110 188,102 216,74 244,45 273,17 301,-11 329,-39 352,-59 339,-47 311,-18 283,10 254,38 226,67 198,95 181,112 207,88 236,59 264,31 292,3 321,-25 349,-54 351,-54 330,-33 302,-4 274,24 245,52 217,80 189,109 184,113 199,102 227,73 255,45 284,17 312,-12 340,-40 351,-48 349,-46 322,-19 293,9 265,38 237,66 208,94 188,115 218,87 246,59 275,31 303,2 331,-26 350,-42 341,-33 313,-5 285,23 256,52 228,80 200,108 191,116 209,101 238,73 266,44 294,16 323,-12 348,-35 332,-19 304,9 276,37 248,66 219,94 195,118 201,115 229,87 257,58 286,30 314,2 342,-27 347,-29 324,-5 295,23 267,51 239,79 210,108 199,119 220,100 249,72 277,44 305,16 333,-13 347,-23 343,-20 315,8 287,37 258,65 230,93 203,120 211,114 240,86 268,58 296,30 325,1 346,-18 334,-6 306,22 278,51 250,79 221,107 207,121 231,100 259,72 288,43 316,15 346,-12 326,8 297,36 269,64 241,93 212,122 222,114 251,86 279,57 307,29 335,1 346,-7 317,22 289,50 260,78 232,107 216,123 242,99 270,71 298,43 327,15 345,-1 336,7 308,36 280,64 252,92 223,121 220,123 233,113 261,85 290,57 318,28 345,4 328,21 299,50 271,78 243,106 225,124 253,99 281,71 309,42 337,14 344,10 319,35 291,63 262,92 234,120 230,124 244,113 272,84 300,56 329,28 344,15 338,21 310,49 282,77 254,106 235,124 263,98 292,70 320,42 343,21 330,35 301,63 273,91 245,119 241,124 255,112 283,84 311,56 339,27 342,28 321,48 293,77 264,105 247,123 274,98 302,70 331,41 340,34 312,62 284,91 256,119 253,122 265,112 294,83 322,55 338,42 332,48 303,76 275,105 259,121 285,97 313,69 334,50 323,62 295,90 267,118 276,111 304,83 333,55 330,60 314,76 286,104 275,115 296,97 325,67 321,74 306,90 286,110 293,103 302,96 301,96 293,103 295,101 293,103" /><polyline  stroke="white" points="-292,-84 -292,-81 -292,-84 -290,-66 -294,-50 -309,-41 -317,-42 -324,-48 -332,-62 -330,-71 -325,-77 -318,-84 -310,-84 -292,-84 -306,-75 -319,-67 -333,-58 -333,-58 -326,-71 -318,-84 -318,-48 -318,-43 -304,-43 -304,-60 -304,-84 -292,-84 -290,-72 -289,-61 -289,-61 -289,-61 -292,-84 -309,-93 -306,-93 -306,-93 -303,-93 -316,-93 -303,-93 -296,-91 -323,-91 -324,-89 -290,-87 -312,-87 -330,-87 -300,-85 -285,-83 -328,-83 -335,-83 -316,-81 -282,-79 -304,-79 -339,-79 -332,-77 -292,-77 -280,-75 -320,-75 -342,-75 -308,-73 -278,-71 -296,-71 -336,-71 -343,-71 -324,-69 -284,-69 -277,-67 -312,-67 -344,-67 -340,-65 -300,-65 -276,-63 -288,-63 -328,-63 -345,-63 -316,-61 -276,-59 -304,-59 -345,-59 -332,-57 -292,-57 -278,-55 -320,-55 -344,-55 -308,-53 -279,-51 -296,-51 -336,-51 -343,-51 -324,-49 -284,-49 -281,-47 -312,-47 -341,-47 -300,-45 -284,-43 -288,-43 -328,-43 -338,-43 -316,-41 -288,-39 -304,-39 -334,-39 -293,-35 -320,-35 -328,-35 -323,-33 -308,-33 -297,-33 -307,-31 -308,-31 -307,-31 -308,-31 -307,-31" /><polyline  stroke="white" points="162,-74 163,-71 162,-74 169,-58 172,-50 171,-42 159,-29 142,-29 131,-41 132,-58 145,-69 162,-74 151,-65 140,-55 129,-46 129,-46 136,-57 144,-69 144,-48 144,-29 158,-29 158,-60 158,-73 162,-74 168,-60 173,-47 173,-47 173,-47 162,-74 150,-78 155,-78 155,-78 158,-78 146,-78 158,-78 165,-76 144,-76 139,-76 156,-74 172,-72 168,-72 132,-72 140,-70 176,-68 152,-68 127,-68 164,-66 179,-64 176,-64 136,-64 124,-64 148,-62 182,-60 160,-60 121,-60 132,-58 172,-58 183,-56 144,-56 120,-56 156,-54 185,-52 168,-52 128,-52 118,-52 140,-50 180,-50 185,-48 152,-48 118,-48 124,-46 164,-46 185,-44 176,-44 136,-44 118,-44 148,-42 183,-40 160,-40 119,-40 132,-38 172,-38 181,-36 144,-36 120,-36 156,-34 179,-32 168,-32 128,-32 123,-32 140,-30 176,-28 152,-28 127,-28 164,-26 172,-24 136,-24 131,-24 148,-22 165,-20 160,-20 139,-20 152,-18 154,-18 152,-18" /><polyline class="left-outline"  points="-118,-84 -117,-82 -119,-61 -121,-41 -122,-21 -124,0 -126,20 -134,42 -142,63 -156,83 -174,99 -190,107 -207,114 -232,118 -260,112 -277,103 -294,93 -307,78 -319,63 -326,43 -333,23 -337,-1 -341,-25 -338,-38 -331,-47 -337,-53 -337,-71 -331,-80 -323,-88 -314,-91 -294,-85 -284,-67 -286,-52 -300,-37 -316,-36 -331,-47 -331,-47 -336,-25 -331,-52 -334,-24 -327,-49 -332,-23 -323,-46 -329,-22 -321,-43 -325,-20 -318,-41 -320,-18 -316,-41 -316,-18 -313,-41 -312,-18 -311,-41 -307,-19 -308,-41 -303,-19 -306,-41 -298,-20 -303,-41 -294,-21 -302,-42 -290,-22 -300,-44 -287,-25 -298,-45 -283,-28 -297,-47 -279,-30 -295,-48 -276,-33 -294,-50 -273,-37 -292,-51 -271,-41 -291,-53 -269,-45 -290,-55 -268,-49 -290,-57 -268,-54 -289,-59 -267,-58 -288,-62 -267,-63 -288,-64 -267,-67 -289,-66 -267,-71 -290,-67 -268,-76 -290,-69 -270,-80 -291,-71 -272,-84 -292,-72 -273,-88 -293,-74 -276,-92 -294,-76 -279,-95 -295,-78 -283,-97 -296,-80 -288,-98 -299,-81 -293,-98 -301,-82 -297,-98 -304,-83 -302,-99 -307,-84 -306,-99 -310,-85 -311,-99 -313,-86 -315,-99 -316,-85 -320,-100 -320,-84 -324,-100 -322,-83 -329,-100 -324,-80 -334,-100 -326,-79 -338,-100 -327,-77 -343,-100 -328,-76 -349,-100 -329,-75 -354,-100 -330,-74 -359,-98 -331,-73 -361,-94 -332,-72 -362,-90 -332,-71 -362,-85 -332,-69 -362,-79 -332,-67 -361,-74 -332,-66 -361,-70 -332,-64 -360,-65 -332,-61 -360,-61 -332,-58 -359,-56 -332,-54 -359,-52 -331,-49 -358,-47 -332,-45 -358,-43 -333,-41 -357,-38 -334,-36 -357,-34 -334,-32 -356,-29 -335,-27 -356,-25 -335,-23 -356,-21 -335,-19 -355,-16 -334,-15 -355,-12 -334,-11 -354,-7 -333,-7 -354,-3 -332,-3 -353,2 -332,1 -353,6 -331,5 -352,10 -331,9 -352,15 -330,13 -351,19 -330,17 -351,24 -329,21 -350,28 -328,25 -349,32 -326,28 -347,36 -325,32 -346,41 -324,36 -344,45 -322,40 -343,49 -321,43 -341,53 -320,46 -340,57 -319,50 -338,62 -317,54 -337,66 -316,58 -335,70 -315,61 -332,73 -312,64 -330,77 -310,67 -327,81 -307,70 -325,85 -305,73 -322,88 -303,75 -320,92 -301,78 -317,96 -298,80 -314,99 -296,83 -311,102 -294,86 -307,104 -291,89 -303,107 -288,91 -300,109 -285,93 -296,112 -282,94 -292,115 -279,96 -289,117 -276,98 -285,119 -272,99 -281,121 -269,101 -276,122 -266,103 -272,124 -262,105 -268,126 -259,106 -264,127 -256,108 -260,129 -252,108 -256,130 -248,109 -252,132 -245,110 -247,133 -242,111 -243,133 -238,111 -238,133 -235,112 -234,133 -231,113 -229,133 -228,112 -225,133 -224,112 -220,132 -221,111 -216,132 -217,111 -212,132 -214,110 -207,131 -210,110 -203,130 -206,109 -199,128 -203,107 -194,127 -199,106 -190,126 -196,104 -186,124 -193,103 -182,123 -190,101 -178,121 -186,100 -174,120 -183,98 -170,117 -180,97 -166,114 -176,95 -163,112 -174,93 -159,109 -171,90 -156,106 -169,88 -152,104 -166,86 -149,101 -163,83 -146,97 -161,81 -143,94 -158,78 -141,90 -156,75 -138,87 -154,72 -135,83 -152,69 -133,79 -150,66 -130,76 -147,63 -128,72 -146,60 -125,68 -144,56 -124,64 -143,52 -122,60 -142,49 -120,56 -141,45 -118,52 -139,42 -116,48 -138,38 -115,44 -137,35 -114,39 -135,31 -113,35 -134,27 -112,31 -133,23 -111,26 -131,19 -111,22 -131,15 -110,17 -130,11 -109,13 -130,7 -108,9 -130,3 -107,4 -129,-1 -106,0 -129,-5 -106,-4 -128,-9 -105,-9 -128,-14 -104,-13 -128,-18 -104,-18 -127,-22 -104,-22 -127,-26 -103,-27 -126,-31 -103,-31 -126,-35 -103,-35 -126,-39 -103,-40 -125,-43 -102,-44 -125,-47 -102,-49 -125,-51 -102,-53 -124,-55 -102,-58 -124,-59 -101,-62 -123,-63 -102,-66 -123,-67 -104,-71 -123,-71 -106,-75 -122,-75 -109,-79 -122,-79 -112,-83 -112,-83 -121,-84 -118,-84 -121,-84 -338,-93 -338,-96 -338,-93 -338,-98 -326,-99 -310,-97 -295,-94 -276,-93 -257,-91 -237,-89 -218,-88 -199,-86 -179,-85 -160,-83 -141,-81 -121,-80 -102,-78 -86,-82 -68,-85 -73,-81 -74,-87 -77,-80 -79,-89 -81,-79 -83,-90 -85,-78 -88,-92 -90,-76 -92,-92 -94,-75 -96,-92 -99,-74 -101,-93 -103,-73 -105,-93 -108,-74 -109,-94 -112,-74 -113,-94 -117,-74 -118,-95 -121,-75 -122,-95 -125,-75 -126,-95 -130,-75 -130,-96 -134,-76 -135,-96 -139,-76 -139,-97 -143,-77 -144,-97 -148,-77 -148,-98 -152,-77 -152,-98 -156,-78 -157,-99 -161,-78 -161,-99 -165,-78 -166,-99 -170,-79 -170,-100 -174,-79 -174,-100 -179,-79 -179,-101 -183,-80 -183,-101 -187,-80 -188,-102 -192,-81 -192,-102 -196,-81 -197,-102 -201,-81 -201,-103 -205,-82 -205,-103 -210,-82 -210,-104 -214,-82 -214,-104 -218,-83 -219,-105 -223,-83 -223,-105 -227,-84 -228,-106 -232,-84 -232,-106 -236,-84 -236,-106 -241,-85 -241,-107 -245,-85 -245,-107 -249,-85 -250,-108 -254,-86 -254,-108 -258,-86 -259,-109 -262,-86 -263,-109 -267,-87 -267,-109 -271,-87 -272,-109 -275,-88 -276,-109 -280,-88 -281,-109 -284,-88 -285,-109 -289,-89 -289,-109 -293,-89 -293,-109 -297,-89 -298,-109 -302,-90 -302,-110 -306,-90 -306,-111 -311,-91 -311,-111 -315,-92 -315,-112 -319,-93 -319,-112 -323,-93 -324,-113 -327,-94 -328,-113 -332,-94 -333,-114 -336,-94 -337,-114 -337,-114 -340,-93 -340,-98 -358,-98 -376,-97 -379,-92 -377,-75 -376,-58 -376,-58 -374,-41 -378,-46 -374,-46 -379,-48 -374,-50 -380,-51 -374,-54 -382,-55 -374,-59 -384,-59 -374,-64 -386,-63 -374,-68 -388,-67 -374,-73 -390,-71 -374,-77 -392,-76 -374,-81 -394,-80 -374,-84 -396,-84 -374,-86 -398,-89 -374,-87 -400,-94 -374,-89 -401,-99 -374,-90 -401,-104 -374,-91 -402,-110 -374,-92 -402,-116 -374,-93 -400,-119 -373,-93 -394,-119 -372,-93 -388,-118 -371,-93 -383,-118 -370,-93 -378,-117 -368,-93 -373,-116 -367,-93 -368,-116 -365,-93 -364,-115 -361,-93 -359,-115 -357,-93 -355,-114 -353,-93 -351,-114 -349,-93 -346,-113 -344,-93 -342,-114 -340,-93 -340,-96 -340,-93" /><polyline class="right-outline"  points="122,-84 120,-82 122,-84 122,-84 105,-71 102,-66 103,-48 104,-30 105,-11 109,7 112,26 116,44 127,66 138,87 151,100 164,113 186,125 205,130 224,134 240,132 256,131 272,124 288,118 302,108 316,99 326,83 337,68 342,52 348,35 354,19 355,0 357,-20 358,-39 360,-59 362,-78 363,-98 346,-96 346,-96 341,-100 354,-100 341,-96 361,-97 340,-91 363,-93 340,-87 363,-88 340,-84 362,-84 340,-80 362,-79 339,-77 362,-75 339,-73 361,-71 339,-69 361,-66 338,-65 360,-62 338,-61 360,-57 338,-57 360,-53 338,-52 359,-48 337,-48 359,-44 337,-43 359,-40 337,-39 358,-35 336,-35 358,-31 336,-30 357,-26 336,-26 357,-22 335,-21 357,-17 335,-17 356,-13 335,-13 356,-9 334,-9 355,-4 334,-5 355,0 334,-1 355,5 333,4 354,9 332,7 354,14 331,11 353,18 330,15 352,22 329,19 351,27 328,23 349,31 327,27 348,35 326,31 347,39 325,34 345,43 324,38 344,48 323,42 342,52 322,46 341,56 321,50 339,60 319,53 338,65 317,57 336,69 315,60 334,72 313,63 331,76 311,66 329,80 309,69 326,83 308,72 324,87 306,75 321,91 303,78 319,95 300,80 316,98 298,83 313,101 295,85 309,104 292,87 305,106 290,89 302,109 287,91 298,111 284,94 295,114 281,96 291,116 278,97 287,119 274,99 283,120 271,100 279,122 267,102 275,123 264,103 270,125 261,105 266,127 257,106 262,128 254,108 258,130 250,109 254,131 247,111 249,131 243,111 245,132 240,111 240,132 236,111 236,133 233,111 232,133 230,111 227,134 226,112 223,134 222,112 218,133 219,111 214,132 215,110 210,131 212,109 205,130 208,109 201,129 205,108 197,128 201,107 192,127 198,106 188,126 194,104 184,124 191,103 180,122 188,101 176,120 185,99 172,118 182,98 168,116 179,96 164,113 176,94 161,110 173,91 158,107 171,89 155,104 168,86 151,101 165,84 148,98 163,82 145,95 160,79 142,91 158,76 139,88 156,73 136,85 153,70 134,81 151,67 132,77 149,64 130,73 147,61 128,69 146,57 126,65 144,54 124,61 143,50 122,57 142,46 120,53 141,43 118,49 139,39 116,45 138,35 115,41 137,32 114,36 135,28 113,32 134,24 113,27 133,20 112,23 132,16 111,19 131,12 110,14 131,8 109,10 130,5 108,6 130,2 108,1 129,-2 107,-3 129,-6 106,-8 128,-11 105,-12 130,-15 105,-17 131,-19 105,-21 133,-24 104,-25 134,-28 104,-30 136,-32 104,-34 134,-36 104,-39 132,-40 103,-43 130,-44 103,-48 130,-47 103,-52 130,-49 103,-57 130,-52 102,-62 131,-54 103,-66 131,-55 105,-70 131,-57 108,-73 131,-59 112,-76 133,-60 115,-79 134,-62 119,-82 135,-63 135,-63 122,-84 125,-80 143,-80 160,-80 177,-80 188,-68 193,-44 190,-34 180,-19 168,-11 145,-9 130,-15 128,-10 136,-32 130,-9 138,-31 134,-8 141,-30 138,-6 144,-29 142,-5 146,-27 147,-4 149,-26 151,-4 151,-27 155,-5 154,-27 160,-5 156,-28 164,-6 159,-28 168,-6 161,-29 172,-8 163,-29 176,-10 165,-30 180,-13 166,-32 183,-15 168,-34 186,-19 169,-35 189,-22 170,-37 191,-26 172,-38 193,-30 173,-40 195,-34 173,-42 196,-38 174,-44 197,-42 174,-46 197,-47 174,-49 196,-51 174,-51 195,-56 174,-53 194,-60 174,-55 194,-64 172,-56 193,-69 171,-58 191,-73 170,-60 188,-76 169,-61 185,-79 168,-63 182,-83 166,-65 178,-84 165,-67 173,-85 163,-69 168,-85 160,-70 163,-85 157,-70 158,-85 155,-71 154,-85 151,-72 149,-86 148,-72 145,-86 145,-71 140,-86 142,-70 136,-86 140,-68 131,-86 138,-66 127,-85 137,-64 122,-84 124,-82 122,-84 338,-93 338,-96 338,-93 338,-98 326,-99 310,-97 295,-94 276,-93 257,-91 237,-89 218,-88 199,-86 179,-85 160,-83 141,-81 121,-80 102,-78 86,-82 69,-82 70,-85 73,-81 74,-87 77,-80 79,-89 81,-79 83,-90 85,-78 87,-92 90,-76 92,-92 94,-75 96,-92 99,-74 101,-93 103,-73 105,-93 108,-74 109,-94 112,-74 113,-94 117,-74 117,-95 121,-75 122,-95 125,-75 126,-95 130,-75 130,-96 134,-76 135,-96 139,-76 139,-97 143,-77 143,-97 148,-77 148,-98 152,-77 152,-98 156,-78 157,-99 161,-78 161,-99 165,-78 166,-99 170,-79 170,-100 174,-79 174,-100 179,-79 179,-101 183,-80 183,-101 187,-80 188,-102 192,-81 192,-102 196,-81 197,-102 201,-81 201,-103 205,-82 205,-103 210,-82 210,-104 214,-82 214,-104 218,-83 219,-105 223,-83 223,-105 227,-84 227,-106 232,-84 232,-106 236,-84 236,-106 241,-85 241,-107 245,-85 245,-107 249,-85 250,-108 254,-86 254,-108 258,-86 258,-109 262,-86 263,-109 266,-87 267,-109 271,-87 272,-109 275,-88 276,-109 280,-88 281,-109 284,-88 285,-109 289,-89 289,-109 293,-89 293,-109 297,-89 298,-109 302,-90 302,-110 306,-90 306,-111 311,-91 311,-111 315,-92 315,-112 319,-93 319,-112 323,-93 324,-113 327,-94 328,-113 332,-94 333,-114 336,-93 336,-98 356,-98 376,-97 379,-92 378,-68 377,-44 374,-41 378,-46 374,-46 379,-49 374,-51 381,-52 374,-55 383,-56 374,-60 384,-60 374,-64 386,-64 374,-69 388,-68 374,-73 390,-72 374,-77 392,-76 374,-81 394,-80 374,-84 396,-84 374,-86 398,-89 374,-87 399,-93 374,-89 400,-98 374,-90 401,-103 374,-91 402,-108 374,-91 402,-114 374,-93 401,-118 373,-93 396,-119 372,-93 389,-118 371,-93 383,-118 370,-93 378,-117 368,-93 373,-116 367,-93 368,-116 365,-93 364,-115 361,-93 359,-115 357,-93 355,-114 353,-93 350,-114 349,-94 346,-113 344,-94 342,-114 340,-93 337,-114 337,-114 336,-93 336,-96 336,-93" /><polyline   points="112,-126 115,-126 112,-126 129,-128 147,-130 164,-132 181,-134 164,-132 181,-134 164,-132 147,-130 164,-132 147,-130 129,-128 147,-130 129,-128 112,-126 129,-128 112,-126 115,-126 112,-126" /><polyline   points="-114,-126 -117,-126 -114,-126 -131,-128 -147,-130 -164,-132 -181,-134 -164,-132 -181,-134 -164,-132 -147,-130 -164,-132 -147,-130 -131,-128 -147,-130 -131,-128 -114,-126 -131,-128 -114,-126 -117,-126 -114,-126" /></svg>