<svg viewBox="-425 -150 850 300" fill="none" stroke="black" stroke-width="4"><polyline class="left-eye" stroke="red" points="-282,-82 -279,-82 -282,-82 -262,-83 -243,-83 -223,-84 -203,-85 -184,-86 -164,-88 -145,-88 -125,-88 -125,-89 -124,-69 -122,-49 -124,-30 -126,-10 -130,10 -134,29 -139,48 -148,66 -159,82 -174,96 -191,106 -209,114 -229,117 -248,115 -268,111 -286,104 -301,91 -314,76 -324,59 -333,41 -337,22 -339,2 -341,-18 -324,-10 -305,-5 -290,-15 -277,-29 -272,-46 -274,-65 -282,-82 -272,-67 -263,-52 -253,-38 -243,-23 -234,-8 -224,7 -214,22 -228,36 -247,41 -267,46 -275,50 -280,59 -289,77 -299,94 -282,101 -266,108 -249,115 -255,110 -283,82 -312,54 -335,32 -337,17 -339,2 -336,4 -307,32 -279,60 -250,88 -220,116 -209,113 -198,110 -216,93 -245,65 -274,37 -302,10 -322,-9 -308,-6 -301,-6 -296,-11 -269,15 -240,43 -211,71 -181,100 -165,89 -178,76 -206,48 -235,21 -264,-7 -281,-24 -274,-32 -272,-42 -259,-29 -230,-2 -202,26 -173,54 -153,73 -148,64 -143,56 -168,32 -197,4 -225,-24 -254,-52 -278,-74 -282,-82 -265,-77 -247,-71 -230,-66 -213,-61 -196,-56 -178,-50 -170,-48 -162,-50 -149,-62 -136,-75 -125,-89 -124,-75 -123,-60 -144,-80 -152,-88 -165,-87 -179,-87 -148,-58 -123,-33 -125,-21 -126,-9 -153,-35 -182,-63 -205,-85 -218,-85 -232,-84 -216,-69 -187,-41 -158,-13 -131,13 -133,24 -136,35 -163,9 -192,-19 -221,-46 -249,-74 -258,-83 -282,-82 -301,-91 -298,-91 -301,-88 -292,-91 -298,-85 -285,-91 -295,-81 -291,-82 -279,-92 -281,-89 -292,-78 -273,-92 -289,-75 -279,-82 -266,-92 -269,-89 -287,-70 -260,-92 -277,-74 -285,-66 -267,-82 -254,-92 -257,-89 -283,-61 -275,-67 -247,-92 -265,-74 -282,-56 -255,-81 -241,-93 -245,-88 -273,-59 -282,-50 -263,-67 -234,-93 -253,-74 -282,-43 -271,-52 -243,-81 -228,-94 -233,-88 -261,-59 -286,-33 -290,-27 -301,-16 -312,-6 -323,4 -335,-7 -345,-21 -354,-35 -353,-34 -354,-33 -348,-32 -353,-28 -344,-30 -352,-22 -340,-28 -351,-17 -336,-26 -344,-17 -350,-11 -333,-23 -350,-5 -342,-10 -329,-20 -332,-17 -349,0 -325,-19 -340,-2 -348,6 -330,-9 -319,-18 -348,12 -338,5 -314,-17 -328,-2 -347,17 -319,-9 -307,-17 -336,13 -347,23 -326,6 -303,-18 -298,-21 -317,-1 -346,29 -345,30 -345,31 -334,20 -307,-9 -279,-37 -251,-66 -224,-94 -241,-73 -269,-44 -297,-16 -324,13 -344,37 -315,6 -287,-23 -259,-52 -231,-80 -218,-94 -221,-87 -249,-59 -277,-30 -305,-1 -332,28 -343,42 -322,21 -295,-8 -267,-37 -239,-66 -211,-95 -229,-73 -257,-44 -285,-15 -313,14 -341,46 -330,35 -303,6 -275,-22 -247,-51 -219,-80 -205,-95 -209,-87 -237,-58 -265,-29 -293,-1 -320,28 -339,51 -311,21 -283,-8 -255,-37 -227,-65 -198,-95 -217,-72 -245,-44 -273,-15 -301,14 -328,43 -337,55 -318,36 -291,7 -263,-22 -235,-51 -207,-79 -192,-96 -197,-87 -225,-58 -253,-29 -281,0 -309,29 -335,59 -326,50 -299,21 -271,-7 -243,-36 -215,-65 -187,-94 -185,-96 -205,-72 -233,-43 -261,-14 -289,14 -316,43 -333,63 -307,36 -279,7 -251,-22 -223,-50 -195,-79 -179,-96 -185,-86 -213,-57 -241,-29 -269,0 -297,29 -324,58 -330,67 -314,51 -287,22 -259,-7 -231,-36 -203,-64 -176,-93 -172,-97 -193,-72 -221,-43 -249,-14 -277,15 -305,44 -328,71 -322,65 -295,36 -267,8 -239,-21 -211,-50 -183,-79 -166,-97 -174,-86 -201,-57 -229,-28 -257,1 -285,29 -312,58 -326,75 -303,51 -275,22 -247,-7 -219,-35 -191,-64 -164,-93 -159,-97 -181,-71 -209,-42 -237,-14 -265,15 -293,44 -320,73 -324,79 -310,66 -283,37 -255,8 -227,-21 -199,-49 -171,-78 -153,-97 -162,-85 -189,-57 -217,-28 -245,1 -273,30 -300,59 -321,83 -318,80 -291,51 -263,23 -235,-6 -207,-35 -179,-64 -152,-92 -147,-97 -169,-71 -197,-42 -225,-13 -253,16 -281,44 -308,73 -318,86 -298,66 -271,37 -243,8 -215,-20 -187,-49 -160,-78 -141,-98 -150,-85 -177,-56 -205,-27 -233,1 -261,30 -289,59 -316,90 -306,81 -279,52 -251,23 -223,-6 -195,-35 -167,-63 -140,-92 -134,-98 -158,-70 -185,-42 -213,-13 -241,16 -269,45 -296,73 -313,93 -287,66 -259,38 -231,9 -203,-20 -175,-49 -148,-77 -128,-98 -138,-85 -165,-56 -193,-27 -221,2 -249,31 -277,59 -304,88 -310,97 -294,81 -267,52 -239,23 -211,-5 -183,-34 -156,-63 -128,-92 -122,-98 -146,-70 -173,-41 -201,-12 -229,16 -257,45 -285,74 -307,100 -302,96 -275,67 -247,38 -219,9 -191,-20 -163,-48 -136,-77 -115,-98 -126,-84 -154,-55 -181,-27 -209,2 -237,31 -265,60 -292,88 -303,103 -283,81 -255,53 -227,24 -199,-5 -171,-34 -144,-62 -114,-93 -134,-70 -161,-41 -189,-12 -217,17 -245,46 -273,74 -300,106 -290,96 -263,67 -235,38 -207,10 -179,-19 -152,-48 -124,-77 -115,-86 -142,-55 -169,-26 -197,3 -225,31 -253,60 -281,89 -296,108 -271,82 -243,53 -215,24 -187,-5 -159,-33 -132,-62 -114,-80 -122,-69 -150,-40 -177,-12 -205,17 -233,46 -261,75 -288,103 -293,111 -279,96 -251,68 -223,39 -195,10 -167,-19 -140,-47 -114,-74 -130,-55 -157,-26 -185,3 -213,32 -241,61 -269,89 -289,114 -286,111 -259,82 -231,53 -203,25 -175,-4 -148,-33 -120,-62 -113,-68 -138,-40 -165,-11 -193,18 -221,46 -249,75 -277,104 -285,116 -267,97 -239,68 -211,39 -183,10 -155,-18 -128,-47 -113,-62 -118,-54 -146,-25 -173,3 -201,32 -229,61 -257,90 -280,117 -275,111 -247,83 -219,54 -191,25 -163,-4 -136,-32 -112,-56 -126,-40 -153,-11 -181,18 -209,47 -237,76 -265,104 -276,119 -255,97 -227,68 -199,40 -171,11 -144,-18 -116,-47 -112,-50 -134,-25 -161,4 -189,33 -217,61 -245,90 -271,121 -263,112 -235,83 -207,54 -179,25 -151,-3 -124,-32 -112,-44 -142,-10 -169,18 -197,47 -225,76 -253,105 -267,122 -243,98 -215,69 -187,40 -159,11 -132,-17 -113,-37 -122,-25 -149,4 -177,33 -205,62 -233,91 -261,119 -261,123 -251,112 -223,83 -195,55 -167,26 -140,-3 -113,-30 -130,-10 -157,19 -185,48 -213,76 -241,105 -256,124 -231,98 -203,69 -175,40 -147,12 -120,-17 -114,-23 -137,5 -165,33 -193,62 -221,91 -249,120 -251,125 -239,113 -211,84 -183,55 -155,26 -128,-2 -115,-16 -118,-10 -145,19 -173,48 -201,77 -229,106 -246,126 -219,98 -191,70 -163,41 -135,12 -116,-8 -126,5 -153,34 -181,63 -209,91 -237,120 -240,127 -227,113 -199,84 -171,55 -143,27 -117,-1 -133,20 -161,48 -189,77 -217,106 -234,127 -207,99 -179,70 -151,41 -124,13 -119,7 -141,34 -169,63 -197,92 -225,121 -228,127 -215,113 -187,85 -159,56 -131,27 -120,15 -149,49 -177,78 -205,106 -222,127 -195,99 -167,70 -139,42 -122,23 -129,35 -157,63 -185,92 -213,121 -215,126 -203,114 -175,85 -147,56 -124,32 -137,49 -165,78 -193,107 -207,124 -183,100 -155,71 -127,41 -145,64 -173,93 -198,121 -191,114 -163,85 -135,57 -130,51 -132,57 -153,78 -181,107 -193,119 -186,116 -171,100 -143,71 -135,63 -138,69 -161,93 -180,113 -171,106 -151,86 -142,76 -149,85 -156,94 -154,92 -156,94" /><polyline class="right-eye" stroke="red" points="132,-8 130,-10 132,-8 123,-15 139,-9 157,-8 173,-13 188,-23 194,-29 197,-37 200,-54 197,-71 189,-87 206,-85 224,-84 242,-83 261,-83 279,-82 297,-82 315,-81 333,-81 351,-80 349,-60 348,-40 346,-20 344,-1 341,19 336,38 328,56 319,74 306,89 291,102 273,110 254,114 234,116 214,115 195,108 178,98 164,85 153,68 144,50 138,31 134,12 132,-8 139,9 146,26 153,43 159,60 166,77 173,94 173,94 170,91 161,82 153,64 145,47 138,29 148,40 177,68 205,97 224,115 238,115 252,114 239,102 211,73 183,45 154,17 132,-5 132,-8 123,-15 132,-8 150,-5 169,-1 187,2 206,6 224,9 242,13 260,14 273,1 286,-13 299,-26 312,-40 325,-53 338,-67 351,-80 350,-66 349,-53 323,-78 321,-81 306,-81 290,-82 317,-55 347,-26 345,-12 344,1 339,-4 311,-32 283,-60 260,-83 245,-83 230,-84 248,-66 276,-37 305,-9 333,19 339,26 336,37 332,48 327,42 299,14 270,-14 242,-42 214,-71 200,-85 189,-87 201,-54 207,-48 236,-19 264,9 292,37 323,68 316,76 310,85 286,60 258,32 230,4 201,-24 195,-31 187,-24 180,-17 195,-1 223,27 252,55 280,84 296,99 286,104 276,109 274,107 246,78 217,50 189,22 161,-6 158,-9 142,-9 127,-13 132,-8 118,-27 118,-31 120,-30 118,-28 123,-27 119,-23 127,-25 121,-18 131,-22 121,-13 130,-18 135,-21 122,-7 140,-19 132,-11 123,-1 146,-18 123,4 134,-3 151,-17 144,-10 124,10 159,-18 136,5 125,15 146,-2 162,-19 168,-22 156,-9 125,21 126,24 137,12 166,-16 174,-24 180,-29 193,-41 205,-54 214,-68 202,-80 186,-88 170,-96 176,-96 170,-90 182,-96 173,-87 188,-95 183,-90 177,-84 194,-95 180,-81 185,-82 200,-95 195,-89 183,-77 206,-95 185,-73 197,-82 212,-94 207,-89 187,-69 218,-94 198,-74 189,-64 208,-81 224,-94 219,-88 190,-60 200,-67 231,-94 210,-73 191,-54 220,-80 237,-93 231,-87 202,-59 190,-47 212,-66 243,-93 222,-73 194,-45 186,-37 174,-24 162,-11 150,1 138,14 126,26 148,5 176,-23 204,-51 232,-80 249,-93 242,-87 214,-58 186,-30 158,-2 129,27 127,29 139,20 168,-9 196,-37 224,-65 255,-93 234,-72 206,-44 178,-16 149,13 129,34 159,6 188,-22 216,-51 244,-79 261,-92 254,-86 226,-58 198,-29 170,-1 141,27 130,38 151,20 180,-8 208,-36 236,-65 267,-92 246,-72 218,-43 190,-15 161,13 131,43 143,35 171,6 200,-22 228,-50 256,-78 273,-92 266,-85 238,-57 210,-29 182,0 153,28 133,48 136,48 163,21 192,-7 220,-36 248,-64 279,-92 258,-71 230,-43 202,-14 173,14 145,42 135,53 155,35 183,7 212,-21 240,-50 268,-78 285,-91 278,-85 250,-56 222,-28 193,0 165,28 137,57 147,50 175,22 204,-7 232,-35 260,-63 291,-91 270,-70 242,-42 214,-14 185,15 157,43 138,61 167,36 195,8 224,-21 252,-49 280,-77 297,-91 290,-84 262,-56 234,-27 205,1 177,29 149,57 140,66 159,50 187,22 215,-6 244,-34 272,-63 303,-91 282,-70 254,-41 226,-13 197,15 169,44 142,70 151,65 179,37 207,8 236,-20 264,-48 292,-77 310,-91 302,-83 274,-55 246,-27 217,1 189,30 161,58 145,74 171,51 199,23 227,-5 256,-34 284,-62 316,-91 294,-69 266,-41 237,-12 209,16 181,44 153,72 147,78 163,66 191,37 219,9 248,-19 276,-48 304,-76 322,-91 314,-83 286,-55 258,-26 229,2 201,30 173,59 150,82 155,80 183,52 211,23 239,-5 268,-33 296,-61 328,-91 306,-68 278,-40 249,-12 221,17 193,45 165,73 152,86 175,66 203,38 231,10 259,-19 288,-47 316,-75 334,-90 326,-82 298,-54 270,-26 241,3 213,31 185,59 155,89 166,81 195,52 223,24 251,-4 280,-32 308,-61 341,-90 318,-68 290,-39 261,-11 233,17 205,45 177,74 158,92 187,67 215,39 243,10 271,-18 300,-46 328,-75 347,-90 338,-82 310,-53 282,-25 253,3 225,32 197,60 168,88 161,96 178,81 207,53 235,25 263,-4 292,-32 320,-60 353,-90 330,-67 302,-39 273,-10 245,18 217,46 188,74 164,99 170,96 199,67 227,39 255,11 283,-17 312,-46 340,-74 359,-90 350,-81 322,-53 293,-24 265,4 237,32 209,61 180,89 167,102 190,82 219,54 247,25 275,-3 304,-31 332,-59 362,-86 342,-66 314,-38 285,-10 257,18 229,47 200,75 171,105 182,96 210,68 239,40 267,12 295,-17 324,-45 352,-73 361,-80 334,-52 305,-24 277,5 249,33 221,61 192,89 174,107 202,83 231,54 259,26 287,-2 315,-31 344,-59 361,-73 354,-66 326,-37 297,-9 269,19 241,47 212,76 184,104 178,110 194,97 222,69 251,40 279,12 307,-16 336,-44 360,-66 346,-51 317,-23 289,5 261,34 233,62 204,90 181,113 186,111 214,83 243,55 271,27 299,-2 327,-30 356,-58 360,-59 337,-37 309,-9 281,20 253,48 224,76 196,105 186,115 206,98 234,69 263,41 291,13 319,-15 348,-44 360,-53 329,-22 301,6 273,34 244,62 216,91 190,117 198,112 226,84 255,56 283,27 311,-1 339,-29 359,-46 349,-36 321,-8 293,20 265,49 236,77 208,105 194,119 218,98 246,70 275,42 303,13 331,-15 359,-39 341,-22 313,7 285,35 256,63 228,91 198,121 210,113 238,84 266,56 295,28 323,0 351,-29 358,-32 333,-7 305,21 277,49 248,78 220,106 203,122 230,99 258,71 287,42 315,14 343,-14 357,-25 353,-21 325,7 297,35 268,64 240,92 212,120 208,124 222,113 250,85 278,57 307,29 335,0 356,-18 345,-7 317,22 288,50 260,78 232,106 214,125 242,100 270,71 299,43 327,15 356,-11 337,8 309,36 280,64 252,93 224,121 219,125 234,114 262,86 290,57 319,29 347,1 355,-4 329,22 300,51 272,79 244,107 225,126 254,100 282,72 310,44 339,15 354,3 349,8 321,37 292,65 264,93 236,122 231,126 246,115 274,86 302,58 331,30 353,11 341,23 312,51 284,79 256,108 238,126 266,101 294,73 322,44 352,18 332,37 304,66 276,94 248,122 245,125 258,115 286,87 314,59 343,30 350,26 324,52 296,80 268,108 252,124 278,101 306,73 334,45 347,35 344,38 316,66 288,95 259,124 270,116 298,88 326,59 345,44 336,52 308,81 280,109 266,123 290,102 318,74 343,49 341,54 328,67 300,95 274,121 282,117 310,88 339,59 335,66 320,81 292,110 283,118 289,116 302,103 331,73 325,82 312,96 295,112 311,100 312,99 311,99 311,100" /><polyline  stroke="white" points="-304,-83 -303,-80 -304,-83 -296,-65 -293,-56 -295,-46 -307,-32 -317,-30 -326,-32 -340,-46 -338,-65 -323,-77 -304,-83 -317,-72 -329,-60 -342,-49 -342,-49 -338,-65 -325,-76 -325,-48 -325,-32 -309,-31 -309,-60 -309,-82 -304,-83 -298,-67 -292,-52 -292,-52 -292,-52 -304,-83 -320,-86 -312,-86 -312,-86 -309,-86 -322,-86 -330,-84 -298,-82 -324,-82 -333,-82 -312,-80 -293,-78 -300,-78 -339,-78 -328,-76 -289,-74 -316,-74 -344,-74 -304,-72 -286,-70 -292,-70 -332,-70 -347,-70 -320,-68 -284,-66 -308,-66 -350,-66 -336,-64 -296,-64 -282,-62 -324,-62 -351,-62 -312,-60 -281,-58 -300,-58 -340,-58 -352,-58 -328,-56 -288,-56 -280,-54 -316,-54 -353,-54 -344,-52 -304,-52 -280,-50 -292,-50 -332,-50 -353,-50 -320,-48 -281,-46 -308,-46 -348,-46 -352,-46 -336,-44 -296,-44 -283,-42 -324,-42 -352,-42 -312,-40 -285,-38 -300,-38 -340,-38 -349,-38 -328,-36 -287,-34 -316,-34 -346,-34 -341,-32 -304,-32 -291,-30 -332,-30 -342,-30 -320,-28 -295,-26 -308,-26 -337,-26 -302,-22 -324,-22 -329,-22 -317,-20 -314,-20 -313,-20 -317,-20" /><polyline  stroke="white" points="165,-85 167,-83 165,-85 176,-71 183,-55 175,-39 159,-32 150,-32 143,-37 131,-51 135,-68 148,-80 165,-85 154,-74 142,-62 131,-51 131,-51 138,-64 144,-77 144,-48 144,-36 157,-32 157,-60 157,-83 165,-85 174,-70 183,-55 176,-45 170,-36 170,-72 170,-79 165,-85 156,-90 162,-90 162,-90 165,-90 152,-90 165,-90 172,-88 144,-88 156,-86 179,-84 168,-84 137,-84 140,-82 184,-80 152,-80 132,-80 164,-78 187,-76 176,-76 136,-76 128,-76 148,-74 190,-72 160,-72 125,-72 132,-70 172,-70 192,-68 184,-68 144,-68 123,-68 156,-66 194,-64 168,-64 128,-64 122,-64 140,-62 180,-62 195,-60 152,-60 120,-60 124,-58 164,-58 195,-56 176,-56 136,-56 120,-56 148,-54 188,-54 195,-52 160,-52 120,-52 132,-50 172,-50 193,-48 184,-48 144,-48 121,-48 156,-46 191,-44 168,-44 128,-44 122,-44 140,-42 180,-42 189,-40 152,-40 125,-40 164,-38 188,-36 176,-36 136,-36 127,-36 148,-34 184,-32 160,-32 131,-32 172,-30 179,-28 144,-28 137,-28 156,-26 172,-24 168,-24 145,-24 160,-22 161,-22 163,-22 158,-22 160,-22 158,-22 160,-22" /><polyline class="left-outline"  points="-352,-85 -352,-85 -349,-81 -364,-83 -362,-65 -361,-47 -351,-33 -341,-19 -360,-29 -357,-10 -355,8 -352,27 -345,43 -339,58 -332,74 -320,89 -308,104 -288,118 -272,123 -256,128 -235,128 -213,128 -198,123 -182,118 -160,102 -148,87 -137,71 -129,55 -122,38 -117,17 -112,-4 -110,-26 -108,-48 -106,-70 -105,-92 -117,-93 -121,-96 -99,-97 -122,-93 -100,-92 -122,-91 -100,-88 -122,-88 -100,-83 -123,-83 -101,-79 -123,-79 -101,-75 -123,-74 -101,-70 -124,-70 -102,-66 -124,-65 -102,-61 -125,-61 -103,-57 -125,-57 -103,-52 -125,-52 -103,-48 -126,-48 -104,-44 -126,-43 -104,-39 -127,-39 -104,-35 -127,-34 -105,-30 -127,-30 -105,-26 -128,-26 -106,-21 -128,-22 -106,-17 -128,-17 -106,-13 -129,-13 -107,-8 -129,-9 -107,-4 -130,-5 -108,1 -130,-1 -109,5 -130,3 -110,9 -131,7 -111,14 -133,11 -112,18 -134,15 -113,22 -135,19 -114,27 -136,23 -115,31 -137,26 -116,35 -138,30 -117,40 -139,34 -119,44 -140,38 -121,48 -141,42 -122,52 -143,46 -124,56 -145,49 -126,60 -147,52 -128,64 -148,56 -130,68 -150,59 -132,72 -152,62 -134,76 -154,66 -137,80 -156,69 -139,83 -158,72 -142,87 -161,75 -145,90 -163,78 -147,94 -165,81 -150,97 -168,84 -153,101 -170,87 -156,104 -172,90 -159,107 -175,92 -162,110 -178,94 -166,113 -181,95 -170,115 -184,97 -173,118 -187,99 -177,120 -190,101 -181,123 -193,103 -185,124 -196,105 -189,126 -199,107 -193,127 -202,107 -198,128 -206,108 -202,130 -209,109 -206,131 -213,109 -210,132 -216,110 -215,133 -220,110 -219,133 -224,111 -224,133 -227,111 -228,133 -231,112 -232,133 -235,113 -237,133 -239,113 -241,133 -242,112 -246,133 -246,112 -250,133 -250,111 -255,133 -253,110 -259,133 -257,110 -263,131 -260,109 -268,130 -264,109 -272,129 -267,108 -276,127 -271,106 -280,126 -274,104 -285,124 -277,103 -289,123 -280,101 -293,121 -283,100 -296,118 -286,98 -300,116 -289,97 -304,113 -292,95 -307,111 -294,92 -311,108 -297,89 -314,105 -299,86 -317,101 -302,84 -319,98 -304,81 -322,94 -306,78 -325,91 -309,76 -328,87 -311,73 -331,84 -314,70 -333,80 -316,67 -336,77 -318,63 -338,73 -320,60 -340,69 -322,57 -341,64 -323,53 -343,60 -325,50 -345,56 -327,46 -347,52 -328,43 -348,48 -329,39 -350,44 -330,35 -352,40 -331,31 -353,36 -332,27 -355,32 -333,23 -357,27 -334,19 -358,23 -335,15 -358,19 -336,11 -359,14 -337,7 -360,10 -338,4 -360,5 -339,0 -361,1 -339,-3 -362,-3 -340,-7 -363,-8 -341,-11 -363,-12 -342,-15 -364,-17 -341,-19 -364,-21 -339,-23 -365,-25 -338,-27 -365,-30 -337,-31 -365,-34 -336,-35 -365,-39 -335,-39 -366,-43 -337,-43 -366,-48 -339,-47 -366,-52 -339,-50 -366,-57 -339,-53 -367,-62 -339,-55 -367,-66 -339,-57 -367,-71 -339,-59 -367,-77 -338,-60 -368,-82 -337,-61 -365,-85 -336,-62 -358,-85 -335,-64 -335,-64 -352,-85 -349,-81 -327,-82 -306,-83 -295,-86 -285,-79 -276,-64 -276,-49 -285,-25 -298,-14 -315,-10 -341,-19 -342,-14 -335,-41 -340,-13 -331,-37 -336,-12 -328,-33 -333,-11 -326,-31 -328,-10 -323,-30 -324,-8 -320,-30 -320,-7 -317,-30 -316,-6 -315,-29 -311,-6 -313,-29 -307,-7 -311,-30 -303,-8 -309,-31 -299,-9 -307,-32 -294,-11 -305,-33 -291,-14 -303,-34 -287,-16 -301,-35 -284,-19 -299,-36 -281,-22 -298,-38 -279,-27 -297,-40 -277,-31 -296,-42 -275,-35 -295,-44 -274,-39 -294,-46 -272,-43 -293,-48 -271,-47 -293,-51 -271,-52 -293,-53 -271,-56 -294,-55 -271,-61 -294,-57 -272,-65 -295,-59 -274,-69 -295,-61 -276,-73 -295,-63 -278,-77 -296,-65 -280,-81 -298,-66 -283,-84 -299,-67 -287,-86 -301,-69 -291,-89 -303,-70 -295,-90 -305,-72 -301,-89 -307,-74 -306,-88 -310,-74 -310,-87 -313,-75 -315,-87 -317,-75 -319,-87 -320,-75 -324,-87 -324,-74 -328,-86 -327,-73 -333,-86 -329,-71 -337,-86 -331,-69 -342,-86 -333,-67 -347,-85 -334,-65 -352,-85 -350,-83 -352,-85 -343,-76 -343,-76 -343,-81 -323,-82 -303,-83 -283,-84 -262,-84 -242,-85 -222,-86 -202,-87 -181,-88 -161,-89 -141,-89 -121,-90 -100,-91 -85,-100 -80,-104 -79,-97 -83,-104 -83,-95 -87,-105 -87,-93 -91,-105 -91,-91 -95,-106 -95,-89 -100,-106 -100,-87 -104,-107 -104,-86 -108,-107 -109,-86 -112,-108 -113,-86 -116,-108 -117,-86 -120,-108 -122,-85 -125,-107 -126,-85 -129,-107 -130,-85 -133,-107 -135,-85 -138,-107 -139,-85 -142,-107 -144,-85 -147,-106 -148,-84 -151,-106 -153,-84 -156,-106 -157,-84 -160,-106 -161,-84 -165,-106 -166,-84 -169,-106 -170,-84 -173,-105 -175,-83 -178,-105 -179,-83 -182,-105 -184,-83 -187,-105 -188,-83 -191,-105 -193,-83 -196,-104 -197,-83 -200,-104 -201,-83 -204,-104 -206,-82 -209,-104 -210,-82 -213,-104 -215,-82 -218,-103 -219,-82 -222,-103 -224,-82 -227,-103 -228,-82 -231,-103 -232,-81 -236,-103 -237,-81 -240,-103 -241,-81 -244,-102 -246,-81 -249,-102 -250,-81 -253,-102 -254,-80 -258,-102 -259,-80 -262,-102 -263,-80 -267,-101 -268,-80 -271,-101 -272,-79 -276,-101 -277,-79 -280,-101 -281,-79 -284,-101 -285,-78 -289,-100 -290,-78 -293,-100 -294,-78 -298,-100 -299,-78 -302,-100 -303,-77 -307,-100 -308,-77 -311,-100 -312,-77 -315,-99 -317,-77 -320,-99 -321,-76 -324,-99 -325,-76 -329,-99 -330,-76 -333,-99 -334,-76 -338,-98 -339,-76 -342,-98 -342,-98 -343,-76 -343,-81 -363,-79 -382,-77 -387,-90 -387,-90 -387,-85 -387,-96 -386,-80 -381,-97 -383,-74 -377,-97 -379,-72 -374,-97 -374,-73 -370,-97 -370,-73 -366,-97 -365,-73 -363,-97 -361,-73 -359,-98 -356,-74 -355,-98 -352,-75 -351,-98 -348,-76 -347,-98 -343,-76 -344,-79 -343,-76" /><polyline class="right-outline"  points="357,-81 360,-81 357,-81 357,-81 372,-79 367,-79 365,-60 364,-41 362,-22 361,-3 356,15 351,33 347,51 337,68 327,86 314,99 301,113 280,123 265,127 250,130 230,129 210,128 192,120 175,113 156,96 144,76 131,56 126,36 121,16 115,-4 113,-33 132,-23 122,-39 112,-55 110,-70 108,-85 113,-94 129,-88 134,-91 157,-91 180,-91 195,-74 199,-57 194,-40 181,-24 159,-16 133,-23 133,-23 130,-19 140,-42 132,-18 142,-40 137,-17 144,-39 141,-16 147,-37 145,-15 150,-35 149,-13 153,-34 154,-12 155,-35 158,-11 158,-35 163,-12 160,-35 167,-13 163,-36 171,-15 165,-36 175,-16 168,-36 179,-18 169,-38 183,-20 171,-39 187,-23 172,-41 190,-26 174,-43 192,-30 176,-44 195,-33 177,-46 198,-37 179,-48 199,-41 179,-50 200,-45 179,-52 202,-49 179,-54 203,-54 179,-57 203,-58 179,-59 202,-63 179,-61 202,-67 180,-63 201,-71 179,-65 199,-75 178,-66 197,-79 177,-68 194,-83 176,-70 191,-86 175,-72 188,-89 173,-74 185,-93 171,-75 181,-95 169,-76 176,-95 167,-78 171,-95 165,-79 167,-95 162,-79 162,-95 159,-80 158,-95 156,-80 153,-95 153,-80 149,-95 149,-79 144,-95 146,-78 140,-95 144,-76 135,-96 142,-74 131,-95 141,-73 125,-96 140,-71 118,-98 139,-70 113,-98 138,-69 108,-96 137,-68 106,-92 136,-68 105,-88 135,-66 105,-82 135,-65 105,-77 135,-63 105,-72 135,-61 106,-67 135,-59 106,-63 134,-57 106,-58 134,-55 107,-54 135,-50 107,-49 137,-46 107,-45 139,-42 108,-40 138,-38 108,-36 136,-34 108,-31 134,-29 109,-27 133,-25 109,-22 131,-20 109,-18 131,-16 110,-14 131,-12 110,-9 132,-8 110,-5 133,-5 111,0 133,-2 112,4 134,2 113,8 135,6 114,13 135,10 116,17 136,14 117,21 137,18 118,25 138,22 119,30 139,26 120,34 141,30 121,38 142,34 123,43 144,37 124,47 145,41 125,51 147,44 126,56 148,48 128,60 150,52 130,63 151,55 133,67 153,59 135,71 155,62 137,75 158,65 140,79 160,68 142,82 162,71 144,86 164,74 147,90 167,77 149,94 169,80 152,97 171,84 155,101 173,86 158,104 175,89 161,107 178,91 164,110 181,94 168,113 183,96 171,116 186,98 175,118 189,100 179,120 191,102 183,122 194,104 187,123 198,105 191,125 201,106 195,127 204,107 199,128 208,108 203,130 211,109 208,132 215,110 212,133 218,111 216,133 222,112 221,133 226,112 225,133 230,112 230,134 233,112 234,134 237,112 239,134 240,112 243,134 244,112 248,135 248,112 252,134 251,112 256,133 255,112 261,133 259,111 265,132 262,109 269,131 266,108 274,130 269,107 278,129 272,106 282,128 275,104 286,126 278,103 290,124 282,102 294,122 285,101 298,120 288,99 302,118 291,98 306,115 294,95 309,112 296,93 312,109 299,90 315,105 301,88 318,102 303,85 322,99 306,83 325,96 308,80 328,93 311,77 331,89 314,74 333,86 316,71 335,82 318,67 337,78 320,64 340,74 322,61 342,70 323,58 344,66 325,55 346,62 327,51 348,58 328,47 350,54 329,44 352,50 331,40 353,46 332,36 354,42 333,32 355,37 334,28 356,33 336,24 358,29 337,21 359,24 338,17 360,20 339,13 361,16 341,9 362,11 342,5 363,7 343,1 364,3 343,-3 365,-1 343,-7 366,-6 344,-11 366,-10 344,-15 367,-15 344,-19 367,-19 345,-24 368,-24 345,-28 368,-28 346,-32 368,-32 346,-37 369,-37 346,-41 369,-41 347,-45 369,-46 347,-50 370,-50 348,-54 370,-55 348,-59 370,-59 348,-63 371,-63 349,-68 371,-68 349,-72 371,-72 350,-76 372,-77 372,-79 372,-79 357,-81 360,-81 357,-81 342,-76 343,-79 342,-76 343,-81 323,-82 303,-83 282,-84 262,-85 242,-85 222,-86 202,-87 182,-88 162,-89 142,-89 122,-90 101,-91 79,-101 79,-101 78,-98 81,-104 80,-97 84,-104 84,-95 88,-105 88,-93 92,-105 92,-91 96,-106 96,-89 100,-106 100,-87 104,-107 104,-86 108,-107 109,-86 112,-108 113,-86 116,-108 117,-86 120,-108 121,-85 124,-107 126,-85 128,-107 130,-85 133,-107 134,-85 137,-107 139,-85 142,-107 143,-85 146,-107 147,-84 150,-106 152,-84 155,-106 156,-84 159,-106 160,-84 163,-106 165,-84 168,-106 169,-84 172,-105 174,-84 177,-105 178,-83 181,-105 182,-83 185,-105 187,-83 190,-105 191,-83 194,-104 196,-83 199,-104 200,-83 203,-104 205,-82 208,-104 209,-82 212,-104 214,-82 217,-104 218,-82 221,-103 222,-82 225,-103 227,-82 230,-103 231,-82 234,-103 236,-81 239,-103 240,-81 243,-102 244,-81 248,-102 249,-81 252,-102 253,-80 257,-102 258,-80 261,-102 262,-80 265,-101 266,-80 270,-101 271,-79 274,-101 275,-79 279,-101 280,-79 283,-101 284,-78 288,-101 289,-78 292,-100 293,-78 296,-100 298,-78 301,-100 302,-77 305,-100 306,-77 310,-100 311,-77 314,-99 315,-76 319,-99 320,-76 323,-99 324,-76 328,-99 329,-76 332,-99 333,-75 336,-99 337,-75 341,-98 342,-75 345,-93 366,-92 388,-91 388,-96 387,-81 384,-97 385,-75 379,-97 382,-72 376,-97 377,-73 373,-97 373,-73 369,-97 369,-73 365,-97 364,-74 362,-97 360,-74 358,-98 355,-74 354,-98 351,-75 350,-98 346,-75 345,-98 345,-98 342,-75 342,-78 342,-75" /><polyline   points="-192,-129 -189,-129 -192,-129 -174,-130 -157,-131 -139,-133 -122,-134 -139,-133 -122,-134 -139,-133 -157,-131 -139,-133 -157,-131 -174,-130 -157,-131 -174,-130 -192,-129 -174,-130 -192,-129 -189,-129 -192,-129" /><polyline   points="190,-129 187,-129 190,-129 173,-130 155,-131 138,-133 120,-134 138,-133 120,-134 138,-133 155,-131 138,-133 155,-131 173,-130 155,-131 173,-130 190,-129 173,-130 190,-129 187,-129 190,-129" /></svg>