<svg viewBox="-425 -150 850 300" fill="none" stroke="black" stroke-width="4"><polyline class="left-eye" stroke="red" points="-280,-90 -277,-90 -280,-90 -260,-90 -241,-89 -221,-89 -202,-89 -182,-89 -163,-88 -143,-88 -124,-88 -122,-69 -122,-49 -124,-30 -126,-11 -131,8 -135,27 -141,45 -151,63 -162,78 -178,90 -194,100 -213,106 -232,108 -251,106 -270,101 -287,93 -302,80 -314,65 -324,48 -332,31 -336,12 -338,-8 -340,-27 -323,-19 -304,-14 -289,-24 -276,-38 -271,-55 -273,-74 -281,-91 -280,-90 -271,-74 -263,-58 -254,-43 -245,-27 -237,-11 -228,5 -219,21 -234,29 -249,37 -263,47 -275,60 -286,72 -298,85 -298,85 -307,68 -317,52 -326,35 -335,19 -313,41 -285,69 -257,97 -248,106 -233,107 -218,107 -222,103 -251,75 -279,46 -307,18 -336,-10 -338,-13 -340,-27 -312,-16 -301,-5 -273,23 -245,52 -216,80 -196,101 -187,95 -178,90 -182,85 -210,57 -239,29 -267,0 -290,-23 -283,-30 -276,-38 -261,-23 -233,6 -204,34 -176,62 -161,77 -155,69 -149,60 -170,39 -198,11 -227,-17 -255,-46 -271,-62 -273,-77 -281,-91 -280,-90 -264,-84 -247,-79 -231,-73 -214,-67 -198,-62 -181,-56 -165,-51 -151,-63 -138,-76 -124,-88 -123,-72 -121,-56 -140,-75 -153,-88 -168,-89 -183,-89 -175,-81 -146,-52 -124,-30 -126,-17 -128,-5 -152,-30 -181,-58 -209,-86 -212,-89 -227,-89 -241,-90 -215,-63 -187,-35 -158,-7 -133,19 -136,30 -139,41 -164,16 -193,-12 -221,-40 -249,-68 -270,-90 -280,-90 -300,-100 -297,-100 -300,-97 -291,-100 -297,-94 -284,-100 -294,-90 -278,-100 -291,-87 -284,-91 -272,-100 -288,-84 -266,-100 -282,-84 -286,-79 -272,-90 -260,-100 -262,-97 -284,-75 -280,-76 -253,-100 -270,-83 -282,-70 -260,-90 -247,-99 -250,-97 -278,-68 -281,-65 -268,-75 -241,-99 -258,-82 -281,-60 -276,-61 -248,-89 -235,-99 -238,-96 -266,-68 -281,-53 -256,-75 -228,-99 -246,-82 -274,-53 -284,-43 -289,-36 -300,-26 -311,-16 -323,-5 -334,-16 -344,-30 -353,-44 -349,-42 -352,-38 -344,-40 -351,-33 -340,-38 -351,-27 -340,-35 -336,-36 -350,-22 -332,-33 -338,-27 -349,-16 -329,-30 -348,-11 -337,-19 -325,-28 -327,-26 -348,-5 -345,-5 -320,-27 -335,-12 -347,0 -325,-19 -314,-26 -343,3 -346,6 -333,-4 -308,-26 -323,-11 -346,12 -341,10 -313,-18 -299,-28 -303,-25 -331,3 -345,17 -345,20 -321,-4 -293,-32 -264,-60 -236,-89 -225,-99 -226,-95 -254,-67 -283,-39 -311,-11 -339,18 -344,26 -329,11 -301,-18 -272,-46 -244,-74 -219,-99 -234,-81 -262,-53 -291,-24 -319,4 -343,31 -337,25 -309,-3 -281,-31 -252,-60 -224,-88 -213,-99 -214,-95 -242,-67 -271,-38 -299,-10 -327,18 -341,35 -317,11 -289,-17 -261,-45 -232,-73 -207,-99 -222,-80 -250,-52 -279,-24 -307,4 -335,33 -339,40 -325,26 -297,-2 -269,-31 -240,-59 -212,-87 -200,-99 -202,-94 -230,-66 -259,-38 -287,-9 -315,19 -337,44 -333,40 -305,12 -277,-16 -249,-45 -220,-73 -194,-99 -210,-80 -239,-51 -267,-23 -295,5 -323,33 -335,48 -313,26 -285,-2 -257,-30 -228,-58 -200,-87 -188,-99 -190,-94 -218,-65 -247,-37 -275,-9 -303,20 -332,48 -333,52 -321,41 -293,13 -265,-16 -237,-44 -208,-72 -182,-99 -198,-79 -227,-51 -255,-23 -283,6 -311,34 -331,56 -301,27 -273,-1 -245,-29 -217,-58 -188,-86 -176,-99 -178,-93 -206,-65 -235,-36 -263,-8 -291,20 -320,48 -328,60 -310,42 -281,13 -253,-15 -225,-43 -196,-72 -169,-99 -186,-79 -215,-50 -243,-22 -271,6 -299,35 -326,64 -318,56 -289,28 -261,-1 -233,-29 -205,-57 -176,-85 -163,-99 -166,-92 -195,-64 -223,-36 -251,-7 -279,21 -308,49 -324,68 -298,42 -269,14 -241,-14 -213,-43 -184,-71 -157,-98 -174,-78 -203,-50 -231,-21 -259,7 -288,35 -316,64 -321,72 -306,57 -277,28 -249,0 -221,-28 -193,-57 -164,-85 -151,-98 -154,-92 -183,-63 -211,-35 -239,-7 -267,21 -296,50 -319,76 -314,71 -286,43 -257,15 -229,-14 -201,-42 -173,-70 -145,-98 -162,-77 -191,-49 -219,-21 -247,8 -276,36 -304,64 -316,79 -294,57 -266,29 -237,1 -209,-28 -181,-56 -152,-84 -138,-98 -142,-91 -171,-63 -199,-35 -227,-6 -255,22 -284,50 -312,79 -313,83 -302,72 -274,43 -245,15 -217,-13 -189,-41 -161,-70 -132,-98 -151,-77 -179,-48 -207,-20 -235,8 -264,37 -292,65 -310,86 -282,58 -254,30 -225,1 -197,-27 -169,-55 -140,-84 -126,-98 -130,-90 -159,-62 -187,-34 -215,-6 -244,23 -272,51 -300,79 -307,89 -290,72 -262,44 -233,16 -205,-13 -177,-41 -149,-69 -120,-98 -139,-76 -167,-48 -195,-19 -223,9 -252,37 -280,65 -304,93 -298,87 -270,59 -242,30 -213,2 -185,-26 -157,-55 -129,-83 -113,-98 -114,-97 -112,-98 -114,-97 -114,-95 -118,-90 -147,-62 -175,-33 -203,-5 -232,23 -260,52 -288,80 -302,94 -278,73 -250,45 -222,16 -193,-12 -165,-40 -137,-68 -113,-89 -127,-75 -155,-47 -183,-19 -211,9 -240,38 -268,66 -296,94 -299,97 -286,87 -258,59 -230,31 -201,3 -173,-26 -145,-54 -117,-82 -113,-83 -135,-61 -163,-33 -191,-4 -220,24 -248,52 -276,81 -295,99 -266,74 -238,45 -210,17 -181,-11 -153,-40 -125,-68 -112,-77 -115,-75 -143,-46 -171,-18 -200,10 -228,38 -256,67 -284,95 -292,102 -274,88 -246,60 -218,31 -189,3 -161,-25 -133,-53 -112,-71 -123,-60 -151,-32 -179,-4 -208,25 -236,53 -264,81 -288,105 -283,103 -254,74 -226,46 -198,18 -169,-11 -141,-39 -111,-65 -131,-46 -159,-18 -188,11 -216,39 -244,67 -272,96 -284,107 -262,89 -234,60 -206,32 -178,4 -149,-24 -121,-53 -111,-59 -139,-31 -167,-3 -196,25 -224,53 -252,82 -279,109 -271,103 -242,75 -214,47 -186,18 -157,-10 -129,-38 -111,-53 -119,-45 -147,-17 -176,11 -204,40 -232,68 -261,96 -275,110 -250,89 -222,61 -194,33 -166,4 -137,-24 -112,-46 -127,-31 -156,-2 -184,26 -212,54 -240,82 -270,112 -259,104 -230,75 -202,47 -174,19 -145,-9 -117,-38 -112,-40 -135,-16 -164,12 -192,40 -220,69 -249,97 -265,113 -239,90 -210,62 -182,33 -154,5 -125,-23 -113,-33 -115,-30 -144,-2 -172,26 -200,55 -228,83 -257,111 -260,114 -247,104 -218,76 -190,48 -162,20 -134,-9 -114,-25 -123,-16 -152,13 -180,41 -208,69 -237,97 -254,115 -227,91 -198,62 -170,34 -142,6 -115,-18 -132,-1 -160,27 -188,55 -217,84 -245,112 -249,116 -235,105 -206,77 -178,48 -150,20 -122,-8 -116,-11 -140,13 -168,42 -196,70 -225,98 -244,117 -215,91 -186,63 -158,35 -130,6 -117,-3 -120,-1 -148,28 -176,56 -205,84 -233,113 -238,118 -223,106 -195,77 -166,49 -138,21 -119,5 -128,14 -156,42 -184,70 -213,99 -232,118 -203,92 -174,64 -146,35 -120,13 -136,28 -164,57 -193,85 -221,113 -226,118 -211,106 -183,78 -154,50 -126,21 -122,21 -144,43 -173,71 -201,99 -219,118 -191,92 -162,64 -134,36 -125,30 -152,57 -181,86 -209,114 -212,117 -199,107 -171,79 -142,50 -128,39 -132,43 -161,72 -189,100 -203,114 -199,113 -179,93 -151,65 -129,44 -132,50 -140,58 -169,86 -194,111 -187,108 -159,79 -135,56 -138,62 -149,72 -177,101 -181,105 -171,98 -167,94 -142,69 -148,77 -155,85 -153,83 -155,85" /><polyline class="right-eye" stroke="red" points="133,-17 131,-19 133,-17 124,-24 142,-18 162,-18 180,-25 194,-37 199,-45 198,-55 195,-75 189,-93 196,-89 205,-89 224,-89 242,-89 260,-89 279,-89 297,-89 315,-89 334,-89 352,-89 350,-69 349,-49 347,-29 345,-10 342,10 337,29 329,47 320,65 307,80 292,93 274,101 255,105 235,107 215,106 196,99 179,89 165,76 154,59 145,41 139,22 135,3 133,-17 139,1 145,19 150,37 156,55 162,73 171,82 174,85 171,82 162,73 154,55 146,38 139,20 149,31 178,59 206,88 225,106 239,106 253,105 240,93 212,64 184,36 155,8 133,-14 133,-17 124,-24 133,-17 150,-12 167,-7 184,-1 201,4 218,9 235,14 253,20 265,6 277,-8 290,-21 302,-35 315,-48 327,-62 340,-75 352,-89 351,-75 350,-62 323,-89 308,-89 293,-89 318,-64 348,-35 346,-21 345,-8 340,-13 312,-41 284,-69 264,-89 249,-89 235,-89 249,-75 277,-46 306,-18 334,10 340,17 337,28 333,39 328,33 300,5 271,-23 243,-51 215,-80 205,-89 192,-89 189,-93 190,-91 197,-68 208,-57 237,-28 265,0 293,28 324,59 317,67 311,76 287,51 259,23 231,-5 202,-33 196,-39 188,-33 181,-26 196,-10 224,18 253,46 281,75 297,90 287,95 277,100 275,98 247,69 218,41 190,13 162,-15 159,-18 143,-18 128,-22 133,-17 119,-36 119,-40 121,-39 119,-37 124,-37 120,-32 128,-34 122,-28 132,-32 122,-22 136,-30 123,-16 134,-24 141,-28 124,-11 146,-27 136,-17 124,-5 146,-23 152,-26 128,-2 125,1 138,-9 159,-27 148,-16 126,6 130,5 158,-23 163,-28 169,-30 140,-1 126,12 127,15 150,-8 174,-33 181,-38 192,-50 203,-62 214,-74 201,-84 187,-92 172,-100 171,-99 177,-99 174,-96 184,-99 177,-92 190,-99 180,-89 196,-99 181,-84 189,-88 202,-99 199,-95 183,-80 209,-99 190,-81 185,-75 201,-88 215,-99 211,-95 186,-70 192,-73 221,-99 202,-80 187,-65 213,-87 228,-99 223,-94 194,-66 188,-59 204,-73 234,-99 214,-79 188,-53 196,-58 224,-86 240,-99 235,-93 206,-65 187,-46 175,-33 163,-21 151,-8 139,5 127,17 131,13 160,-15 188,-44 216,-72 247,-99 226,-79 198,-50 170,-22 142,6 128,20 152,-1 180,-29 208,-57 236,-86 253,-99 246,-93 218,-64 190,-36 162,-8 133,21 129,24 143,14 172,-15 200,-43 228,-71 259,-99 238,-78 210,-50 182,-22 153,7 131,29 135,28 164,0 192,-28 220,-57 248,-85 265,-99 258,-92 230,-64 202,-35 174,-7 145,21 132,34 155,14 184,-14 212,-42 240,-71 272,-99 250,-77 222,-49 194,-21 165,7 137,36 134,39 147,29 175,0 204,-28 232,-56 260,-84 278,-99 270,-91 242,-63 214,-35 186,-6 157,22 136,44 139,43 167,15 196,-13 224,-42 252,-70 284,-99 262,-77 234,-49 206,-20 177,8 149,36 137,48 159,29 187,1 216,-27 244,-55 272,-84 291,-99 282,-91 254,-62 226,-34 198,-6 169,22 139,52 151,44 179,16 208,-13 236,-41 264,-69 297,-99 274,-76 246,-48 218,-20 189,9 161,37 141,57 171,30 199,2 228,-27 256,-55 284,-83 303,-99 294,-90 266,-62 238,-33 209,-5 181,23 153,51 143,61 163,45 191,16 220,-12 248,-40 276,-69 310,-99 286,-76 258,-47 230,-19 201,9 173,38 145,65 155,59 183,31 211,2 240,-26 268,-54 296,-82 316,-99 306,-89 278,-61 250,-33 221,-5 193,24 165,52 148,69 175,45 203,17 231,-11 260,-40 288,-68 316,-96 322,-99 298,-75 270,-47 242,-18 213,10 185,38 157,67 150,73 167,60 195,31 223,3 252,-25 280,-54 308,-82 329,-99 318,-89 290,-60 262,-32 233,-4 205,24 177,53 153,77 159,74 187,46 215,18 243,-11 272,-39 300,-67 328,-96 335,-99 310,-74 282,-46 253,-18 225,11 197,39 169,67 156,80 179,60 207,32 235,4 264,-25 292,-53 320,-81 341,-99 330,-88 302,-60 274,-32 245,-3 217,25 189,53 159,83 171,75 199,46 227,18 255,-10 284,-38 312,-67 340,-95 347,-99 322,-74 294,-45 265,-17 237,11 209,40 181,68 162,87 191,61 219,33 247,4 276,-24 304,-52 332,-81 354,-99 342,-87 314,-59 286,-31 257,-3 229,26 201,54 172,82 165,90 182,75 211,47 239,19 267,-9 296,-38 324,-66 352,-94 360,-99 334,-73 306,-45 277,-16 249,12 221,40 193,68 168,93 174,90 203,62 231,33 259,5 287,-23 316,-52 344,-80 363,-96 354,-87 326,-59 298,-30 269,-2 241,26 213,55 184,83 172,96 194,76 223,48 251,19 279,-9 308,-37 336,-65 362,-89 346,-72 318,-44 289,-16 261,13 233,41 205,69 175,98 186,90 215,62 243,34 271,6 299,-23 328,-51 356,-79 362,-82 338,-58 309,-30 281,-1 253,27 225,55 196,84 179,101 206,77 235,48 263,20 291,-8 320,-36 348,-65 361,-75 358,-72 330,-43 301,-15 273,13 245,41 216,70 188,98 182,104 198,91 227,63 255,35 283,6 311,-22 340,-50 361,-69 350,-57 321,-29 293,-1 265,28 237,56 208,84 187,106 218,77 247,49 275,21 303,-8 332,-36 361,-62 342,-43 313,-14 285,14 257,42 228,70 200,99 191,108 210,92 238,63 267,35 295,7 323,-21 352,-50 360,-55 333,-28 305,0 277,28 249,57 220,85 195,110 202,106 230,78 259,50 287,21 315,-7 343,-35 360,-48 354,-42 325,-14 297,14 269,43 240,71 212,99 199,112 222,92 250,64 279,36 307,8 335,-21 359,-41 345,-28 317,1 289,29 261,57 232,85 204,113 214,107 242,79 271,50 299,22 327,-6 355,-35 358,-34 337,-13 309,15 281,43 252,72 224,100 209,115 234,93 262,65 291,36 319,8 347,-20 357,-27 329,1 301,30 272,58 244,86 214,116 226,108 254,79 283,51 311,23 339,-6 357,-20 349,-13 321,16 293,44 264,72 236,101 220,116 246,94 274,65 303,37 331,9 356,-13 341,2 313,30 284,58 256,87 226,117 238,108 266,80 294,52 323,23 351,-5 355,-6 333,16 305,45 276,73 248,101 232,117 258,94 286,66 315,38 343,9 354,2 325,31 296,59 268,87 239,117 250,109 278,81 306,52 335,24 353,9 345,17 317,45 288,74 260,102 246,116 270,95 298,67 327,38 351,17 337,31 308,60 280,88 253,115 262,109 290,81 318,53 347,25 348,26 328,46 300,74 272,103 260,115 282,96 310,67 339,39 346,35 320,60 292,89 267,114 274,110 302,82 330,54 344,40 342,45 312,75 284,103 275,112 294,96 322,68 340,50 337,57 332,61 304,89 284,109 290,107 314,82 332,64 326,73 324,76 296,103 312,91 313,90 312,90 312,91" /><polyline  stroke="white" points="-302,-90 -301,-87 -302,-90 -294,-72 -291,-63 -293,-53 -305,-39 -315,-37 -324,-39 -338,-53 -336,-72 -321,-84 -302,-90 -315,-79 -327,-67 -340,-56 -340,-56 -336,-72 -323,-83 -323,-57 -323,-39 -307,-38 -307,-69 -307,-89 -302,-90 -296,-74 -290,-59 -290,-59 -290,-59 -302,-90 -318,-93 -310,-93 -310,-93 -307,-93 -320,-93 -328,-91 -296,-89 -323,-89 -331,-89 -311,-87 -291,-85 -299,-85 -337,-85 -327,-83 -287,-81 -315,-81 -342,-81 -303,-79 -284,-77 -291,-77 -331,-77 -345,-77 -319,-75 -282,-73 -307,-73 -348,-73 -335,-71 -295,-71 -280,-69 -283,-69 -323,-69 -349,-69 -311,-67 -279,-65 -299,-65 -339,-65 -350,-65 -327,-63 -287,-63 -278,-61 -315,-61 -351,-61 -343,-59 -303,-59 -278,-57 -291,-57 -331,-57 -351,-57 -319,-55 -279,-53 -307,-53 -347,-53 -350,-53 -335,-51 -295,-51 -281,-49 -323,-49 -350,-49 -311,-47 -283,-45 -299,-45 -339,-45 -347,-45 -327,-43 -285,-41 -315,-41 -344,-41 -303,-39 -289,-37 -331,-37 -340,-37 -319,-35 -293,-33 -307,-33 -335,-33 -300,-29 -323,-29 -327,-29 -315,-27 -312,-27 -311,-27 -315,-27" /><polyline  stroke="white" points="163,-88 165,-86 163,-88 174,-74 181,-58 173,-42 157,-35 148,-35 141,-40 129,-54 133,-71 146,-83 163,-88 152,-77 140,-65 129,-54 129,-54 136,-67 142,-80 142,-57 142,-39 155,-35 155,-69 155,-86 163,-88 172,-73 181,-58 174,-48 168,-39 168,-82 163,-88 154,-93 160,-93 160,-93 163,-93 150,-93 163,-93 170,-91 142,-91 157,-89 177,-87 169,-87 135,-87 141,-85 182,-83 153,-83 130,-83 165,-81 185,-79 177,-79 137,-79 126,-79 149,-77 188,-75 161,-75 123,-75 133,-73 173,-73 190,-71 185,-71 145,-71 121,-71 157,-69 192,-67 169,-67 129,-67 120,-67 141,-65 181,-65 193,-63 153,-63 118,-63 125,-61 165,-61 193,-59 177,-59 137,-59 118,-59 149,-57 189,-57 193,-55 161,-55 121,-55 118,-55 133,-53 173,-53 191,-51 185,-51 145,-51 119,-51 157,-49 189,-47 169,-47 129,-47 120,-47 141,-45 181,-45 187,-43 153,-43 123,-43 165,-41 186,-39 177,-39 137,-39 125,-39 149,-37 182,-35 161,-35 129,-35 173,-33 177,-31 145,-31 135,-31 157,-29 170,-27 167,-27 143,-27 158,-25 159,-25 161,-25 156,-25 158,-25 156,-25 158,-25" /><polyline class="left-outline"  points="-317,-97 -317,-95 -317,-97 -317,-100 -317,-95 -292,-94 -282,-87 -274,-69 -276,-47 -284,-34 -302,-22 -323,-22 -345,-27 -341,2 -335,23 -329,43 -317,63 -304,82 -289,92 -273,102 -257,106 -241,110 -225,109 -208,108 -194,102 -179,96 -167,84 -154,72 -144,53 -134,34 -130,15 -125,-4 -121,-23 -120,-42 -118,-60 -117,-79 -116,-97 -121,-97 -102,-94 -121,-95 -101,-90 -121,-93 -101,-85 -121,-89 -101,-82 -122,-84 -102,-78 -122,-80 -102,-74 -122,-75 -102,-70 -123,-71 -102,-66 -123,-67 -102,-62 -123,-62 -102,-58 -124,-58 -103,-54 -124,-53 -103,-50 -124,-49 -103,-45 -125,-45 -103,-41 -125,-41 -103,-37 -125,-36 -103,-32 -125,-32 -104,-28 -126,-28 -104,-23 -126,-24 -104,-19 -127,-20 -106,-14 -128,-16 -107,-10 -129,-12 -108,-6 -130,-8 -109,-1 -131,-4 -110,3 -132,0 -111,7 -132,5 -112,12 -133,9 -113,16 -134,13 -114,20 -135,17 -115,25 -136,21 -116,29 -137,25 -117,33 -138,29 -118,38 -139,32 -119,42 -141,36 -120,46 -142,40 -122,50 -144,43 -124,54 -146,46 -126,58 -148,50 -128,62 -149,53 -130,66 -151,56 -133,70 -153,59 -135,74 -155,63 -137,77 -156,66 -139,81 -158,69 -142,85 -161,72 -145,88 -164,74 -148,91 -166,77 -151,94 -169,79 -155,98 -171,81 -158,101 -174,84 -161,103 -176,86 -165,105 -179,89 -169,108 -182,91 -173,110 -186,93 -177,112 -189,94 -181,114 -192,96 -185,116 -195,97 -189,118 -199,99 -193,121 -202,100 -197,122 -205,101 -201,123 -209,103 -205,124 -212,103 -210,125 -216,104 -214,126 -219,104 -218,127 -223,104 -223,128 -226,104 -227,128 -230,104 -232,127 -233,105 -236,127 -237,105 -241,127 -241,105 -245,126 -245,104 -249,126 -248,103 -254,126 -252,102 -258,125 -255,102 -263,124 -259,101 -267,123 -262,100 -271,121 -266,99 -275,120 -269,98 -279,118 -273,97 -284,117 -276,95 -288,115 -279,93 -291,113 -282,91 -295,110 -285,89 -299,108 -287,88 -303,105 -290,86 -306,103 -293,84 -310,100 -296,82 -313,97 -299,80 -316,94 -302,77 -319,90 -304,74 -321,87 -306,71 -324,83 -308,68 -327,80 -310,65 -330,76 -312,62 -333,73 -314,59 -335,69 -316,55 -338,65 -318,52 -339,61 -320,49 -341,57 -322,45 -343,53 -324,42 -345,49 -326,39 -347,45 -327,35 -348,41 -328,31 -350,37 -329,27 -352,33 -330,24 -353,29 -331,20 -354,24 -332,16 -355,20 -333,12 -355,15 -334,8 -356,11 -336,4 -357,7 -337,0 -358,2 -337,-4 -359,-2 -338,-7 -359,-6 -339,-11 -360,-11 -339,-14 -361,-15 -340,-16 -362,-20 -340,-19 -363,-25 -340,-20 -364,-30 -340,-21 -364,-35 -340,-22 -362,-39 -340,-23 -357,-41 -337,-22 -353,-42 -334,-21 -348,-43 -333,-20 -344,-45 -332,-20 -340,-46 -331,-20 -335,-47 -330,-19 -331,-46 -329,-19 -327,-42 -328,-19 -323,-40 -324,-17 -320,-39 -320,-17 -317,-39 -315,-17 -314,-38 -311,-17 -312,-39 -306,-17 -309,-39 -302,-17 -307,-40 -298,-19 -305,-41 -294,-22 -303,-42 -290,-24 -301,-43 -286,-26 -300,-45 -283,-29 -299,-46 -279,-32 -297,-48 -277,-36 -295,-50 -275,-39 -294,-51 -272,-43 -293,-53 -271,-47 -293,-55 -271,-52 -293,-58 -270,-56 -292,-60 -270,-61 -292,-62 -270,-65 -292,-64 -270,-70 -292,-66 -271,-74 -293,-68 -273,-78 -294,-70 -275,-82 -295,-72 -277,-86 -296,-73 -279,-91 -297,-75 -282,-94 -299,-77 -285,-97 -300,-79 -289,-99 -302,-80 -294,-99 -304,-81 -299,-99 -306,-82 -303,-99 -309,-83 -308,-99 -312,-84 -312,-100 -315,-85 -317,-100 -317,-95 -339,-94 -361,-94 -360,-76 -360,-58 -359,-40 -359,-40 -333,-48 -364,-39 -333,-49 -364,-43 -335,-51 -364,-48 -336,-53 -364,-52 -336,-55 -364,-57 -336,-58 -364,-61 -336,-60 -364,-65 -336,-62 -364,-70 -336,-64 -364,-74 -336,-66 -364,-79 -336,-68 -364,-84 -336,-70 -364,-88 -335,-71 -364,-94 -335,-73 -362,-97 -334,-74 -355,-97 -332,-75 -350,-98 -331,-76 -344,-98 -330,-77 -339,-99 -328,-79 -335,-99 -326,-80 -330,-99 -324,-82 -325,-99 -321,-84 -321,-100 -318,-84 -318,-84 -317,-100 -317,-97 -317,-100 -318,-89 -318,-89 -318,-94 -298,-94 -278,-94 -258,-94 -238,-94 -219,-94 -199,-94 -179,-94 -159,-94 -139,-94 -119,-94 -102,-88 -86,-94 -84,-98 -79,-98 -83,-91 -83,-102 -87,-89 -86,-107 -92,-87 -90,-109 -96,-85 -95,-110 -100,-84 -99,-111 -104,-84 -104,-111 -108,-85 -108,-111 -112,-87 -113,-111 -116,-88 -117,-111 -120,-89 -121,-111 -124,-89 -126,-111 -129,-89 -130,-111 -133,-89 -134,-111 -137,-89 -139,-111 -141,-89 -143,-111 -146,-89 -148,-111 -150,-89 -152,-111 -155,-89 -157,-111 -159,-89 -161,-111 -163,-89 -166,-111 -168,-89 -170,-111 -172,-89 -174,-111 -177,-89 -179,-111 -181,-89 -183,-111 -186,-89 -188,-111 -190,-89 -192,-111 -195,-89 -197,-111 -199,-89 -201,-111 -203,-89 -206,-111 -208,-89 -210,-111 -212,-89 -214,-111 -217,-89 -219,-111 -221,-89 -223,-111 -226,-89 -228,-111 -230,-89 -232,-111 -235,-89 -237,-111 -239,-89 -241,-111 -243,-89 -246,-111 -248,-89 -250,-111 -252,-89 -254,-111 -257,-89 -259,-111 -261,-89 -263,-112 -266,-89 -268,-112 -270,-89 -272,-112 -275,-89 -277,-112 -279,-89 -281,-112 -283,-89 -286,-112 -288,-89 -290,-112 -292,-89 -294,-112 -297,-89 -299,-112 -301,-89 -303,-112 -305,-89 -308,-112 -310,-89 -312,-112 -314,-89 -317,-112 -317,-112 -318,-89 -318,-94 -340,-91 -361,-88 -383,-95 -403,-109 -411,-120 -408,-123 -411,-117 -405,-121 -409,-113 -401,-119 -407,-108 -398,-117 -405,-104 -395,-115 -401,-102 -391,-114 -398,-99 -388,-114 -394,-97 -384,-113 -390,-94 -381,-113 -387,-92 -378,-112 -383,-90 -375,-112 -379,-88 -372,-112 -375,-87 -368,-112 -370,-86 -365,-112 -366,-85 -362,-112 -362,-84 -358,-112 -357,-84 -355,-112 -353,-84 -351,-112 -348,-85 -347,-112 -344,-85 -343,-112 -340,-86 -339,-112 -335,-87 -335,-112 -331,-87 -330,-112 -327,-88 -326,-112 -322,-88 -321,-112 -318,-89 -318,-92 -318,-89" /><polyline class="right-outline"  points="152,-98 152,-96 152,-98 152,-101 152,-96 177,-94 192,-78 196,-59 190,-40 174,-25 158,-21 128,-23 132,1 137,26 144,41 152,56 160,72 173,84 186,96 202,103 217,109 235,111 253,108 270,106 284,99 299,92 317,74 327,58 336,41 341,20 346,-2 351,-23 352,-43 354,-62 355,-82 358,-97 358,-97 353,-97 372,-93 352,-93 371,-89 351,-89 371,-85 350,-84 371,-81 350,-80 371,-76 350,-75 371,-72 349,-71 371,-67 349,-67 370,-63 349,-62 370,-59 348,-58 370,-54 348,-53 370,-50 348,-49 370,-45 348,-45 370,-41 347,-40 370,-37 347,-36 369,-32 347,-32 369,-28 347,-28 369,-23 346,-24 369,-19 346,-20 368,-15 345,-16 366,-10 344,-12 365,-6 343,-8 364,-2 343,-4 363,3 342,0 362,7 341,4 361,11 340,9 360,16 339,13 359,20 338,17 358,24 337,21 357,29 336,25 356,33 335,29 355,37 334,32 354,42 333,36 353,46 332,40 351,50 330,43 349,54 328,47 347,58 326,50 345,62 324,53 343,66 322,56 340,70 320,59 338,73 318,62 336,77 316,66 334,81 314,69 331,85 312,72 328,88 309,75 325,91 307,77 321,94 304,79 318,97 302,82 315,100 300,84 311,103 297,87 308,106 294,89 305,109 290,90 301,111 287,92 297,113 284,94 293,115 281,95 288,116 278,97 284,118 275,98 280,119 272,100 276,121 268,101 272,123 264,102 268,124 261,102 263,125 257,103 259,125 253,103 254,126 250,104 250,126 246,104 246,126 242,105 241,126 239,105 237,126 235,106 232,126 231,106 228,126 228,105 223,126 224,105 219,126 221,104 214,126 217,104 210,124 214,102 206,123 210,101 202,121 207,99 198,119 204,98 194,118 201,97 189,116 198,96 185,114 194,94 181,113 191,93 177,110 187,91 174,108 185,88 170,105 182,86 167,102 180,83 163,99 177,81 160,96 175,79 156,94 172,76 153,91 169,74 150,87 167,71 148,83 164,69 146,80 162,65 143,76 160,62 141,72 159,58 138,68 157,55 136,65 155,52 134,61 153,48 131,57 152,45 129,53 150,41 127,49 148,38 126,45 146,34 124,41 145,31 123,37 143,27 122,32 141,24 120,28 141,20 119,24 140,16 118,20 139,12 117,15 138,8 116,11 137,4 115,6 137,0 115,2 136,-4 114,-2 135,-7 113,-7 135,-10 112,-11 134,-13 112,-16 134,-15 111,-20 133,-16 110,-25 133,-18 109,-31 133,-20 111,-35 134,-20 115,-37 136,-20 119,-39 138,-19 124,-40 139,-19 128,-42 140,-19 132,-43 141,-19 136,-44 142,-18 141,-43 143,-18 145,-41 147,-17 150,-39 151,-16 153,-39 156,-15 156,-38 160,-16 158,-39 165,-18 161,-40 169,-19 163,-40 173,-20 165,-41 177,-22 167,-42 181,-25 168,-44 184,-28 170,-46 187,-31 171,-47 190,-34 173,-49 194,-37 174,-50 195,-41 176,-52 197,-45 176,-54 198,-50 176,-57 199,-54 177,-59 200,-58 177,-61 200,-63 177,-63 199,-67 177,-65 198,-71 177,-67 198,-76 176,-69 197,-80 175,-71 194,-84 174,-72 191,-87 172,-74 188,-91 171,-76 185,-94 170,-78 183,-98 168,-79 178,-99 166,-81 173,-99 164,-81 169,-99 162,-82 164,-100 159,-83 160,-99 156,-84 155,-100 155,-95 137,-96 112,-94 113,-75 113,-56 114,-37 114,-37 138,-45 109,-35 137,-46 109,-40 136,-48 109,-44 135,-50 109,-48 133,-53 109,-53 133,-56 109,-57 133,-59 109,-62 133,-62 109,-66 133,-64 109,-70 133,-66 109,-75 133,-68 109,-79 133,-70 109,-84 134,-72 109,-89 135,-73 109,-94 136,-74 112,-97 137,-75 117,-98 138,-76 123,-99 140,-77 128,-99 141,-79 132,-100 142,-80 137,-100 144,-82 142,-100 147,-83 146,-100 150,-84 151,-101 153,-85 153,-85 155,-100 155,-97 155,-100 317,-89 317,-92 317,-89 317,-94 297,-94 277,-94 258,-94 238,-94 218,-94 198,-94 178,-94 158,-94 139,-94 119,-94 102,-88 80,-95 81,-92 79,-98 83,-91 82,-102 87,-89 86,-106 91,-87 90,-109 95,-86 94,-110 99,-84 98,-111 103,-84 103,-111 107,-85 107,-111 111,-86 111,-111 115,-88 116,-111 119,-89 120,-111 123,-89 124,-111 127,-89 129,-111 131,-89 133,-111 135,-89 137,-111 140,-89 142,-111 144,-89 146,-111 149,-89 151,-111 153,-89 155,-111 157,-89 160,-111 162,-89 164,-111 166,-89 168,-111 171,-89 173,-111 175,-89 177,-111 180,-89 182,-111 184,-89 186,-111 189,-89 191,-111 193,-89 195,-111 197,-89 200,-111 202,-89 204,-111 206,-89 208,-111 211,-89 213,-111 215,-89 217,-111 220,-89 222,-111 224,-89 226,-111 229,-89 231,-111 233,-89 235,-111 237,-89 240,-111 242,-89 244,-111 246,-89 248,-111 251,-89 253,-111 255,-89 257,-111 260,-89 262,-112 264,-89 266,-112 269,-89 271,-112 273,-89 275,-112 277,-89 280,-112 282,-89 284,-112 286,-89 288,-112 291,-89 293,-112 295,-89 297,-112 300,-89 302,-112 304,-89 306,-112 308,-89 311,-112 312,-89 315,-112 317,-89 319,-107 339,-107 359,-107 379,-107 398,-111 401,-113 401,-113 408,-123 411,-117 404,-121 409,-113 401,-118 407,-108 397,-116 404,-104 394,-115 401,-102 391,-114 397,-99 387,-114 393,-96 384,-113 390,-94 380,-112 386,-91 377,-112 382,-89 374,-112 378,-88 371,-112 373,-87 367,-112 369,-85 364,-112 365,-84 360,-112 360,-83 357,-112 356,-84 353,-112 351,-84 349,-112 347,-85 346,-112 342,-86 342,-112 338,-86 337,-112 334,-87 333,-112 329,-87 328,-112 325,-88 324,-112 321,-89 320,-112 320,-112 317,-89 317,-92 317,-89" /><polyline   points="-194,-127 -191,-127 -194,-127 -176,-127 -157,-127 -139,-127 -121,-127 -139,-127 -121,-127 -139,-127 -157,-127 -139,-127 -157,-127 -176,-127 -157,-127 -176,-127 -194,-127 -176,-127 -194,-127 -191,-127 -194,-127" /><polyline   points="194,-127 191,-127 194,-127 176,-127 158,-127 139,-127 121,-127 139,-127 121,-127 139,-127 158,-127 139,-127 158,-127 176,-127 158,-127 176,-127 194,-127 176,-127 194,-127 191,-127 194,-127" /></svg>