<svg viewBox="-425 -150 850 300" fill="none" stroke="black" stroke-width="4"><polyline class="left-eye" stroke="red" points="-338,-22 -340,-24 -338,-22 -340,-24 -324,-17 -307,-16 -290,-22 -277,-32 -270,-48 -270,-65 -276,-81 -288,-94 -269,-97 -249,-99 -229,-100 -210,-99 -190,-97 -170,-94 -151,-88 -132,-83 -113,-78 -115,-58 -119,-39 -121,-19 -124,0 -127,20 -133,39 -140,57 -148,75 -160,91 -175,103 -193,112 -212,118 -231,120 -251,117 -270,111 -287,102 -302,89 -313,73 -321,55 -328,36 -334,17 -336,-2 -338,-22 -332,-5 -325,12 -319,29 -313,46 -307,63 -300,80 -294,97 -281,103 -268,110 -255,116 -264,107 -292,79 -321,50 -325,46 -329,32 -334,18 -319,32 -291,60 -263,89 -235,117 -232,120 -213,118 -233,99 -261,70 -290,42 -318,14 -337,-5 -338,-22 -322,-14 -306,-5 -290,3 -274,11 -258,20 -242,28 -226,37 -222,18 -218,-1 -213,-20 -197,-30 -180,-39 -163,-49 -146,-59 -130,-68 -113,-78 -113,-78 -126,-81 -140,-85 -129,-74 -115,-60 -118,-43 -130,-55 -158,-84 -167,-93 -179,-95 -192,-97 -188,-94 -160,-65 -131,-37 -120,-26 -123,-9 -133,-19 -161,-47 -189,-75 -214,-99 -224,-100 -234,-100 -219,-85 -191,-57 -163,-29 -134,0 -125,8 -128,26 -136,18 -164,-10 -192,-39 -220,-67 -249,-95 -252,-99 -270,-96 -250,-77 -222,-48 -194,-20 -165,8 -137,36 -134,40 -139,54 -167,27 -195,-2 -223,-30 -252,-58 -280,-87 -286,-93 -273,-77 -269,-56 -253,-40 -225,-12 -196,17 -168,45 -145,68 -152,81 -170,63 -198,35 -226,7 -254,-22 -272,-39 -280,-28 -256,-3 -227,25 -199,53 -171,82 -161,92 -171,101 -201,72 -229,43 -257,15 -285,-13 -293,-20 -308,-15 -287,5 -259,34 -230,62 -202,90 -184,108 -198,114 -203,108 -232,80 -260,52 -288,24 -317,-5 -332,-20 -340,-24 -338,-22 -345,-35 -344,-35 -345,-33 -340,-33 -346,-28 -336,-32 -346,-22 -333,-31 -343,-20 -347,-17 -333,-27 -329,-29 -346,-12 -342,-13 -326,-27 -332,-21 -346,-7 -322,-26 -341,-7 -346,-2 -331,-14 -318,-25 -322,-21 -345,2 -340,0 -313,-24 -330,-7 -344,7 -321,-14 -308,-24 -311,-22 -339,7 -344,11 -329,0 -302,-25 -320,-8 -343,16 -338,13 -310,-15 -295,-27 -300,-22 -328,6 -343,20 -342,22 -318,-1 -290,-29 -285,-33 -274,-46 -272,-63 -277,-79 -289,-91 -305,-94 -297,-97 -302,-91 -289,-100 -300,-89 -290,-97 -282,-102 -297,-87 -275,-103 -289,-90 -293,-85 -279,-97 -269,-105 -291,-82 -263,-106 -278,-90 -288,-80 -268,-98 -257,-106 -286,-77 -277,-84 -251,-107 -267,-91 -283,-75 -257,-98 -245,-108 -247,-105 -276,-77 -282,-71 -266,-84 -240,-108 -256,-91 -280,-68 -275,-70 -246,-99 -235,-108 -265,-78 -279,-64 -255,-85 -229,-108 -245,-92 -274,-64 -278,-59 -264,-71 -236,-99 -224,-108 -254,-78 -278,-55 -273,-57 -244,-85 -219,-108 -235,-93 -263,-64 -278,-49 -253,-71 -225,-100 -214,-108 -243,-79 -272,-50 -279,-43 -282,-38 -262,-58 -234,-86 -209,-108 -224,-93 -252,-65 -280,-37 -309,-8 -337,20 -341,25 -327,13 -299,-15 -271,-44 -242,-72 -214,-100 -204,-107 -233,-79 -261,-51 -289,-23 -317,6 -340,29 -336,27 -308,-2 -279,-30 -251,-58 -223,-86 -199,-107 -213,-94 -241,-65 -270,-37 -298,-9 -326,20 -339,33 -316,12 -288,-16 -260,-44 -232,-73 -203,-101 -195,-107 -222,-80 -250,-51 -278,-23 -307,5 -335,33 -338,37 -325,26 -297,-2 -269,-30 -240,-59 -212,-87 -190,-106 -202,-94 -231,-66 -259,-38 -287,-9 -315,19 -337,41 -334,40 -306,12 -277,-16 -249,-45 -221,-73 -193,-101 -186,-106 -211,-80 -239,-52 -268,-24 -296,5 -324,33 -336,45 -314,26 -286,-3 -258,-31 -230,-59 -201,-87 -181,-105 -192,-95 -220,-66 -248,-38 -276,-10 -305,18 -335,48 -323,40 -295,11 -267,-17 -238,-45 -210,-74 -182,-102 -177,-104 -200,-81 -229,-53 -257,-24 -285,4 -313,32 -333,52 -304,25 -275,-3 -247,-31 -219,-60 -191,-88 -172,-104 -181,-95 -209,-67 -237,-39 -266,-10 -294,18 -322,46 -332,56 -312,39 -284,11 -256,-18 -228,-46 -199,-74 -168,-103 -189,-81 -218,-53 -246,-25 -274,4 -303,32 -330,59 -321,53 -293,25 -265,-4 -236,-32 -208,-60 -180,-89 -164,-102 -170,-96 -198,-67 -227,-39 -255,-11 -283,17 -311,46 -329,63 -302,38 -273,10 -245,-18 -217,-46 -188,-75 -160,-101 -179,-82 -207,-54 -235,-25 -264,3 -292,31 -320,60 -327,67 -310,52 -282,24 -254,-4 -226,-32 -197,-61 -169,-89 -156,-100 -159,-96 -187,-68 -216,-40 -244,-11 -272,17 -301,45 -326,70 -319,66 -291,38 -263,10 -234,-19 -206,-47 -178,-75 -152,-99 -168,-82 -196,-54 -224,-26 -253,2 -281,31 -309,59 -324,74 -300,52 -271,24 -243,-5 -215,-33 -186,-61 -158,-90 -148,-97 -150,-95 -177,-69 -205,-40 -233,-12 -262,16 -290,45 -318,73 -322,77 -308,66 -280,37 -252,9 -223,-19 -195,-47 -167,-76 -144,-96 -157,-83 -185,-55 -214,-26 -242,2 -270,30 -299,58 -320,80 -317,79 -289,51 -261,23 -232,-5 -204,-34 -176,-62 -147,-90 -140,-95 -166,-69 -194,-41 -222,-12 -251,16 -279,44 -307,72 -318,83 -298,65 -269,37 -241,9 -213,-20 -184,-48 -156,-76 -136,-94 -146,-83 -175,-55 -203,-27 -231,1 -260,30 -288,58 -316,86 -306,79 -278,51 -250,22 -221,-6 -193,-34 -165,-62 -137,-91 -132,-93 -155,-70 -183,-41 -212,-13 -240,15 -268,44 -297,72 -314,89 -287,65 -258,36 -230,8 -202,-20 -174,-48 -145,-77 -128,-91 -136,-84 -164,-56 -192,-27 -220,1 -249,29 -277,57 -305,86 -312,92 -296,79 -267,50 -239,22 -211,-6 -182,-35 -154,-63 -124,-90 -144,-70 -173,-42 -201,-14 -229,15 -257,43 -286,71 -309,95 -304,92 -276,64 -248,36 -219,8 -191,-21 -163,-49 -135,-77 -120,-89 -125,-85 -153,-56 -181,-28 -210,0 -238,29 -266,57 -295,85 -307,97 -285,78 -256,50 -228,21 -200,-7 -172,-35 -143,-63 -116,-88 -134,-71 -162,-42 -190,-14 -218,14 -247,43 -275,71 -304,100 -293,92 -265,64 -237,35 -209,7 -180,-21 -152,-50 -124,-78 -112,-87 -142,-57 -171,-28 -199,0 -227,28 -255,56 -284,85 -302,103 -274,77 -246,49 -217,21 -189,-7 -161,-36 -133,-64 -108,-86 -123,-71 -151,-43 -179,-15 -208,14 -236,42 -264,70 -292,99 -299,105 -283,91 -254,63 -226,35 -198,6 -170,-22 -141,-50 -113,-78 -104,-85 -132,-57 -160,-29 -188,-1 -216,28 -245,56 -273,84 -296,107 -291,105 -263,77 -235,49 -207,20 -178,-8 -150,-36 -122,-64 -103,-80 -112,-72 -140,-43 -169,-15 -197,13 -225,41 -253,70 -282,98 -293,109 -272,91 -244,63 -215,34 -187,6 -159,-22 -130,-51 -104,-74 -121,-58 -149,-30 -177,-1 -206,27 -234,55 -262,84 -290,112 -281,105 -252,76 -224,48 -196,20 -168,-8 -139,-37 -111,-65 -105,-68 -129,-44 -158,-16 -186,13 -214,41 -243,69 -271,97 -287,114 -261,90 -233,62 -205,34 -176,5 -148,-23 -120,-51 -106,-63 -110,-58 -138,-30 -167,-2 -195,27 -223,55 -251,83 -280,111 -284,116 -270,104 -242,76 -213,48 -185,19 -157,-9 -128,-37 -106,-57 -119,-44 -147,-16 -175,12 -204,40 -232,69 -260,97 -281,117 -250,90 -222,61 -194,33 -166,5 -137,-23 -109,-52 -107,-51 -127,-31 -156,-2 -184,26 -212,54 -241,83 -269,111 -277,119 -259,104 -231,75 -203,47 -174,19 -146,-10 -118,-38 -108,-45 -136,-17 -164,12 -193,40 -221,68 -249,96 -274,121 -268,117 -240,89 -211,61 -183,33 -155,4 -126,-24 -109,-39 -117,-31 -145,-3 -173,25 -202,54 -230,82 -258,110 -270,122 -248,103 -220,75 -192,47 -163,18 -135,-10 -110,-32 -125,-17 -154,11 -182,39 -210,68 -239,96 -266,124 -257,117 -229,89 -201,60 -172,32 -144,4 -116,-24 -111,-26 -134,-3 -162,25 -191,53 -219,81 -247,110 -262,125 -238,103 -209,74 -181,46 -153,18 -124,-11 -112,-20 -115,-18 -143,11 -171,39 -199,67 -228,95 -256,124 -258,126 -246,116 -218,88 -190,60 -161,32 -133,3 -113,-14 -123,-4 -152,24 -180,53 -208,81 -237,109 -254,127 -227,102 -198,74 -170,45 -142,17 -114,-8 -132,10 -160,38 -189,67 -217,95 -245,123 -250,128 -236,116 -207,88 -179,59 -151,31 -122,3 -115,-2 -141,24 -169,52 -197,80 -226,109 -246,129 -216,101 -188,73 -159,45 -131,17 -115,4 -121,9 -150,38 -178,66 -206,94 -234,123 -241,129 -225,115 -196,87 -168,59 -140,31 -116,9 -130,23 -158,52 -187,80 -215,108 -236,129 -205,101 -177,73 -149,44 -120,16 -117,15 -139,37 -167,65 -195,94 -224,122 -231,129 -214,115 -186,87 -157,58 -129,30 -118,21 -148,51 -176,79 -204,108 -226,130 -194,100 -166,72 -138,44 -119,28 -128,37 -156,65 -185,93 -213,122 -220,129 -203,114 -175,86 -147,58 -122,35 -137,51 -165,79 -193,107 -214,128 -184,100 -155,72 -127,43 -124,43 -146,64 -174,93 -202,121 -208,127 -192,114 -164,85 -136,57 -126,48 -129,53 -154,78 -183,107 -200,124 -173,99 -145,71 -131,57 -133,62 -163,92 -192,121 -182,113 -153,85 -135,67 -138,72 -144,78 -172,106 -184,118 -178,115 -162,99 -140,77 -143,83 -152,92 -171,111 -159,101 -150,92 -152,94 -159,101 -157,99 -159,101" /><polyline class="right-eye" stroke="red" points="123,-22 120,-24 123,-22 118,-25 135,-18 153,-13 171,-17 186,-28 192,-45 192,-64 186,-81 176,-97 194,-96 213,-96 232,-97 251,-96 270,-95 289,-93 307,-89 326,-84 342,-74 341,-55 339,-35 337,-16 333,3 331,22 327,41 320,58 310,75 296,88 281,100 265,111 247,117 227,119 208,116 190,109 174,99 161,85 150,69 141,52 133,35 128,16 124,-3 123,-22 131,-4 138,13 146,31 153,48 161,66 168,83 176,101 176,101 165,90 162,87 165,90 176,101 194,109 212,117 195,100 167,72 139,44 135,40 131,26 127,12 140,25 168,53 197,82 225,110 234,119 251,116 227,91 198,63 170,35 142,7 123,-12 123,-22 118,-25 123,-22 138,-13 154,-5 169,4 185,13 200,21 215,30 231,39 238,22 245,5 252,-12 265,-24 281,-34 296,-44 311,-54 327,-64 342,-74 341,-55 332,-64 307,-89 295,-91 282,-94 302,-74 330,-46 339,-36 337,-19 328,-27 300,-56 272,-84 260,-96 249,-97 239,-97 242,-94 270,-65 299,-37 327,-9 334,-2 332,16 325,10 297,-19 269,-47 240,-75 219,-97 200,-96 211,-85 239,-57 267,-28 296,0 324,28 329,33 324,48 322,46 294,18 266,-10 237,-38 209,-66 181,-94 176,-97 192,-64 208,-48 236,-20 264,9 292,37 318,62 311,75 291,55 263,27 234,-1 206,-29 192,-43 187,-29 204,-11 233,17 261,46 289,74 300,85 289,94 260,64 231,36 203,8 176,-19 161,-14 173,-2 201,26 230,54 258,83 278,102 266,110 256,101 228,73 200,45 172,16 143,-12 139,-17 121,-24 123,-22 113,-39 114,-39 113,-38 117,-37 112,-32 121,-36 112,-27 125,-35 112,-21 122,-30 128,-33 112,-17 132,-31 123,-23 112,-12 135,-30 113,-7 125,-16 139,-28 134,-23 113,-3 143,-27 126,-10 114,2 135,-17 147,-26 115,6 127,-3 151,-25 136,-10 116,11 146,-17 156,-24 128,4 117,15 137,-3 161,-24 147,-11 117,19 129,11 157,-18 168,-26 138,3 118,23 119,25 148,-4 171,-27 179,-33 188,-47 187,-63 183,-78 174,-92 160,-98 164,-99 161,-96 171,-102 163,-93 179,-104 165,-90 177,-100 185,-105 168,-88 191,-106 178,-93 170,-85 188,-100 197,-107 172,-82 179,-86 202,-107 189,-93 174,-79 199,-101 208,-107 180,-79 176,-75 190,-87 213,-107 200,-94 177,-72 181,-73 209,-101 218,-107 191,-80 179,-68 201,-87 223,-107 210,-94 180,-64 192,-73 220,-102 229,-108 202,-80 181,-60 211,-88 234,-108 221,-95 193,-67 182,-56 203,-74 231,-102 239,-108 212,-81 183,-51 194,-60 222,-88 244,-107 232,-95 204,-67 182,-46 185,-46 213,-74 242,-103 249,-107 223,-82 195,-53 181,-40 179,-35 205,-60 233,-89 254,-107 243,-96 215,-68 186,-39 158,-11 130,17 120,27 139,10 168,-18 196,-47 224,-75 253,-103 259,-107 234,-82 206,-54 178,-25 149,3 121,31 131,24 159,-4 187,-33 216,-61 244,-89 264,-107 254,-96 225,-68 197,-40 169,-12 140,17 122,35 150,10 179,-19 207,-47 235,-75 263,-104 269,-107 245,-83 217,-54 188,-26 160,2 132,31 123,39 142,23 170,-5 198,-33 226,-61 255,-90 273,-106 264,-97 236,-69 208,-40 180,-12 151,16 125,43 133,37 161,9 189,-19 218,-48 246,-76 278,-105 256,-83 227,-55 199,-26 171,2 143,30 126,47 152,23 181,-5 209,-34 237,-62 265,-90 283,-105 275,-97 247,-69 219,-41 190,-13 162,16 134,44 127,50 144,37 172,8 200,-20 228,-48 257,-76 287,-104 266,-84 238,-55 210,-27 182,1 153,30 129,54 135,51 163,22 191,-6 220,-34 248,-62 276,-91 292,-104 286,-98 258,-70 229,-41 201,-13 173,15 145,43 131,57 154,36 183,8 211,-20 239,-49 268,-77 296,-103 277,-84 249,-56 221,-28 192,1 164,29 136,57 132,61 146,50 174,22 202,-6 230,-35 259,-63 287,-91 300,-102 297,-98 269,-70 240,-42 212,-14 184,15 155,43 134,64 165,36 193,7 222,-21 250,-49 278,-77 305,-101 288,-85 260,-56 232,-28 203,0 175,29 147,57 136,68 156,50 185,21 213,-7 241,-35 270,-64 298,-92 309,-100 279,-71 251,-42 223,-14 194,14 166,42 137,71 148,64 176,35 204,7 233,-21 261,-50 289,-78 313,-99 299,-85 271,-57 242,-29 214,0 186,28 157,56 139,75 167,49 196,21 224,-7 252,-36 280,-64 309,-92 317,-98 290,-71 262,-43 234,-15 205,14 177,42 149,70 141,78 158,63 187,35 215,6 243,-22 272,-50 300,-78 321,-97 310,-86 281,-57 253,-29 225,-1 197,28 168,56 143,81 150,77 178,49 206,20 235,-8 263,-36 291,-65 319,-93 325,-96 301,-72 273,-43 244,-15 216,13 188,41 160,70 145,84 169,62 198,34 226,6 254,-22 282,-51 311,-79 329,-94 320,-86 292,-58 264,-30 236,-1 207,27 179,55 151,84 148,87 161,76 189,48 217,20 245,-8 274,-37 302,-65 332,-93 312,-72 283,-44 255,-16 227,13 199,41 170,69 150,90 180,62 208,34 237,5 265,-23 293,-51 322,-79 336,-91 331,-87 303,-58 275,-30 246,-2 218,27 190,55 162,83 152,93 171,76 200,48 228,19 256,-9 284,-37 313,-66 340,-90 323,-73 294,-44 266,-16 238,12 209,40 181,69 154,96 163,90 191,61 219,33 247,5 276,-23 304,-52 332,-80 343,-88 341,-86 314,-59 286,-31 257,-2 229,26 201,54 172,83 157,98 182,75 210,47 239,19 267,-9 295,-38 324,-66 346,-86 333,-73 305,-45 277,-17 248,12 220,40 192,68 164,96 159,101 173,89 202,61 230,33 258,4 287,-24 315,-52 343,-80 349,-84 325,-59 296,-31 268,-3 240,25 211,54 183,82 162,103 193,75 221,47 250,18 278,-10 306,-38 334,-67 352,-82 344,-74 316,-45 288,-17 259,11 231,39 203,68 174,96 165,106 184,89 212,60 241,32 269,4 297,-24 326,-53 354,-78 335,-60 307,-32 279,-3 251,25 222,53 194,82 167,108 175,103 204,74 232,46 260,18 289,-11 317,-39 345,-67 353,-73 327,-46 298,-18 270,11 242,39 214,67 185,95 170,111 195,88 223,60 252,32 280,3 308,-25 336,-53 353,-67 346,-60 318,-32 290,-4 261,24 233,53 205,81 177,109 173,113 186,102 215,74 243,46 271,17 299,-11 328,-39 353,-62 337,-47 309,-18 281,10 253,38 224,67 196,95 176,115 206,88 234,59 262,31 291,3 319,-25 347,-54 352,-56 329,-33 300,-4 272,24 244,52 216,81 187,109 179,117 197,102 225,73 254,45 282,17 310,-12 338,-40 352,-50 348,-47 320,-19 292,10 263,38 235,66 207,94 182,119 188,115 217,87 245,59 273,31 301,2 330,-26 351,-45 340,-33 311,-5 283,23 255,52 226,80 198,108 186,121 208,101 236,73 264,45 293,16 321,-12 351,-39 331,-19 302,9 274,37 246,66 218,94 189,122 199,115 227,87 256,58 284,30 312,2 341,-26 350,-33 322,-5 294,23 265,51 237,79 209,108 193,124 219,101 247,72 275,44 304,16 332,-13 350,-28 342,-20 313,9 285,37 257,65 228,93 200,122 197,125 210,114 238,86 267,58 295,30 323,1 349,-22 333,-6 305,22 276,51 248,79 220,107 201,126 229,100 258,72 286,43 314,15 343,-13 348,-16 324,8 296,36 268,65 239,93 211,121 205,128 221,114 249,86 277,57 306,29 334,1 347,-9 344,-6 315,22 287,50 259,78 231,107 209,129 240,100 269,71 297,43 325,15 346,-3 335,7 307,36 278,64 250,92 222,121 213,129 232,113 260,85 288,57 316,29 344,3 326,21 298,50 270,78 241,106 218,130 223,127 251,99 279,71 308,42 336,14 344,9 317,35 289,64 261,92 233,120 222,131 242,113 271,85 299,56 327,28 343,14 337,21 309,49 280,77 252,106 227,131 234,127 262,99 290,70 318,42 343,20 328,35 300,63 272,91 243,120 232,131 253,112 281,84 310,56 338,28 342,26 319,49 291,77 263,105 238,130 244,126 273,98 301,70 329,41 341,33 311,63 282,91 254,119 244,129 264,112 292,84 321,55 339,39 330,48 302,76 274,105 250,128 283,97 312,69 337,47 322,62 293,90 265,119 259,124 275,111 303,83 331,55 333,56 313,76 285,104 269,120 276,115 294,97 323,69 331,60 328,66 304,90 284,110 293,103 302,96 310,89 307,92 307,92 305,94 319,80 324,73 314,83 292,105 293,103 292,105 293,103" /><polyline  stroke="white" points="-333,-54 -332,-57 -333,-54 -324,-71 -308,-80 -291,-74 -281,-58 -289,-40 -296,-34 -305,-32 -322,-39 -333,-54 -316,-55 -298,-56 -281,-57 -288,-46 -294,-35 -294,-76 -307,-80 -307,-65 -307,-31 -320,-37 -320,-53 -320,-74 -326,-64 -333,-54 -339,-44 -326,-59 -314,-74 -301,-90 -301,-90 -298,-90 -312,-90 -319,-88 -297,-88 -287,-86 -323,-86 -313,-84 -282,-82 -301,-82 -329,-82 -289,-80 -278,-78 -317,-78 -333,-78 -305,-76 -275,-74 -293,-74 -333,-74 -337,-74 -321,-72 -281,-72 -272,-70 -309,-70 -340,-70 -337,-68 -297,-68 -271,-66 -285,-66 -325,-66 -341,-66 -313,-64 -273,-64 -269,-62 -301,-62 -342,-62 -329,-60 -289,-60 -269,-58 -277,-58 -317,-58 -343,-58 -305,-55 -268,-53 -293,-53 -333,-53 -343,-53 -321,-51 -281,-51 -269,-49 -309,-49 -343,-49 -337,-47 -297,-47 -271,-45 -285,-45 -325,-45 -342,-45 -313,-43 -273,-41 -301,-41 -340,-41 -329,-39 -289,-39 -275,-37 -317,-37 -337,-37 -305,-35 -278,-33 -293,-33 -334,-33 -321,-31 -282,-29 -309,-29 -330,-29 -297,-27 -288,-25 -324,-25 -319,-23 -313,-23 -291,-23 -302,-21 -303,-21 -302,-21 -303,-21 -302,-21" /><polyline  stroke="white" points="129,-54 130,-57 129,-54 136,-71 151,-80 160,-80 168,-75 177,-60 171,-43 157,-34 148,-35 140,-40 129,-54 145,-55 162,-57 178,-58 178,-58 170,-69 162,-80 162,-65 162,-35 145,-36 145,-53 145,-77 137,-66 129,-54 121,-53 133,-65 146,-77 159,-90 159,-90 162,-90 148,-90 141,-88 144,-88 173,-86 155,-86 137,-86 167,-84 178,-82 139,-82 132,-82 151,-80 182,-78 163,-78 127,-78 135,-76 175,-76 185,-74 147,-74 124,-74 159,-72 187,-70 171,-70 131,-70 121,-70 143,-68 183,-68 189,-66 155,-66 120,-66 127,-64 167,-64 190,-62 179,-62 139,-62 118,-62 151,-60 190,-58 163,-58 123,-58 118,-58 135,-55 175,-55 191,-53 187,-53 147,-53 118,-53 159,-51 189,-49 171,-49 131,-49 118,-49 143,-47 183,-47 187,-45 155,-45 119,-45 127,-43 167,-43 186,-41 179,-41 139,-41 122,-41 151,-39 184,-37 163,-37 124,-37 135,-35 175,-35 180,-33 147,-33 128,-33 159,-31 176,-29 171,-29 133,-29 143,-27 169,-25 155,-25 141,-25 154,-23 157,-23 154,-23" /><polyline class="left-outline"  points="-309,-102 -309,-102 -308,-97 -329,-91 -344,-77 -358,-76 -350,-59 -342,-41 -333,-24 -353,-33 -351,-15 -349,4 -344,22 -339,39 -334,57 -325,74 -317,90 -296,109 -277,120 -258,131 -234,136 -212,135 -194,127 -176,118 -161,107 -146,96 -138,82 -129,68 -124,53 -119,37 -113,21 -110,2 -108,-16 -105,-34 -102,-53 -100,-72 -113,-74 -113,-74 -117,-78 -95,-76 -117,-75 -95,-71 -118,-71 -96,-67 -118,-67 -96,-62 -119,-63 -96,-58 -119,-58 -97,-54 -120,-54 -97,-49 -120,-50 -98,-45 -121,-45 -99,-40 -121,-41 -99,-36 -122,-37 -100,-32 -122,-32 -101,-27 -123,-28 -101,-23 -123,-24 -102,-18 -124,-19 -103,-14 -124,-15 -103,-10 -125,-11 -104,-5 -125,-7 -105,-1 -126,-2 -105,4 -126,2 -106,8 -127,6 -107,12 -128,10 -108,17 -130,14 -108,21 -131,18 -109,25 -132,21 -111,30 -133,25 -112,34 -135,30 -114,38 -136,34 -115,42 -137,38 -116,47 -138,41 -118,51 -139,45 -119,55 -141,49 -121,59 -142,53 -122,63 -143,57 -123,68 -144,60 -125,72 -146,64 -128,75 -148,67 -130,79 -150,70 -133,83 -152,73 -135,87 -153,76 -137,90 -155,79 -140,94 -157,82 -142,98 -160,84 -145,101 -163,87 -149,104 -166,89 -152,107 -169,91 -156,109 -172,93 -159,112 -175,95 -163,115 -178,97 -167,117 -181,100 -170,120 -184,102 -174,123 -187,104 -178,125 -191,107 -182,126 -194,108 -186,128 -197,110 -190,130 -200,111 -194,132 -204,113 -198,134 -207,114 -202,136 -210,116 -206,138 -213,117 -210,139 -217,117 -215,140 -220,117 -219,140 -224,117 -224,140 -227,117 -228,140 -230,117 -233,141 -233,117 -237,140 -236,117 -241,139 -240,117 -246,139 -243,117 -250,138 -246,116 -254,137 -250,114 -259,136 -253,113 -263,134 -256,111 -267,132 -259,109 -271,130 -262,108 -274,128 -266,106 -278,125 -269,104 -282,123 -272,103 -286,121 -276,101 -290,119 -279,99 -294,116 -283,97 -298,114 -286,95 -301,111 -288,92 -304,108 -291,90 -308,105 -293,87 -311,102 -296,85 -314,99 -298,82 -317,96 -301,80 -320,93 -303,77 -323,89 -306,75 -325,85 -308,71 -327,81 -309,68 -329,77 -311,65 -331,73 -312,61 -333,69 -314,58 -335,66 -315,54 -337,62 -317,51 -339,58 -318,47 -340,53 -320,44 -342,49 -321,40 -343,45 -323,36 -344,40 -324,32 -345,36 -325,28 -346,32 -326,24 -347,27 -326,20 -349,23 -327,16 -350,19 -328,12 -351,15 -329,8 -352,10 -330,4 -353,6 -331,0 -354,2 -332,-4 -354,-3 -333,-7 -355,-7 -333,-11 -355,-12 -334,-14 -356,-16 -335,-19 -356,-21 -334,-23 -357,-25 -332,-27 -357,-29 -331,-31 -358,-34 -329,-35 -358,-38 -327,-39 -359,-43 -326,-43 -359,-47 -327,-46 -360,-52 -327,-49 -361,-57 -328,-52 -361,-61 -329,-56 -362,-66 -329,-59 -362,-71 -330,-61 -362,-76 -329,-63 -359,-79 -329,-65 -352,-79 -328,-66 -347,-81 -326,-68 -343,-84 -325,-70 -340,-88 -324,-72 -337,-91 -323,-74 -334,-94 -321,-75 -330,-96 -318,-76 -326,-98 -316,-77 -321,-99 -314,-78 -317,-100 -312,-79 -313,-102 -309,-79 -309,-79 -309,-102 -308,-97 -285,-91 -269,-72 -267,-54 -273,-35 -290,-19 -308,-15 -317,-17 -333,-24 -335,-19 -326,-42 -333,-18 -322,-40 -328,-17 -319,-38 -324,-15 -317,-36 -320,-13 -314,-34 -316,-12 -312,-34 -312,-11 -309,-34 -307,-11 -307,-34 -303,-11 -304,-35 -298,-12 -302,-35 -294,-13 -300,-35 -290,-14 -298,-36 -286,-16 -296,-37 -282,-19 -294,-39 -279,-22 -293,-40 -276,-25 -291,-42 -272,-28 -289,-43 -269,-31 -288,-44 -268,-35 -287,-47 -266,-39 -287,-49 -265,-44 -286,-51 -264,-48 -286,-53 -262,-52 -285,-55 -262,-57 -285,-57 -263,-61 -285,-60 -264,-66 -286,-62 -264,-70 -287,-64 -266,-74 -288,-66 -268,-78 -288,-68 -271,-81 -289,-70 -274,-85 -291,-72 -277,-88 -293,-73 -279,-92 -295,-74 -283,-95 -297,-75 -287,-96 -299,-76 -291,-98 -301,-77 -296,-99 -303,-78 -300,-100 -305,-79 -304,-101 -307,-79 -309,-102 -308,-109 -309,-109 -309,-109 -308,-104 -330,-98 -353,-93 -375,-87 -376,-82 -376,-77 -360,-68 -379,-74 -378,-69 -392,-62 -395,-59 -395,-62 -393,-60 -392,-64 -389,-61 -390,-66 -385,-62 -386,-69 -381,-63 -383,-72 -377,-64 -379,-74 -374,-65 -374,-65 -376,-77 -375,-73 -370,-71 -368,-62 -376,-49 -376,-49 -376,-43 -379,-50 -374,-45 -378,-53 -371,-49 -377,-55 -368,-52 -375,-59 -365,-55 -373,-63 -362,-59 -373,-69 -359,-62 -375,-73 -356,-65 -356,-65 -376,-77 -377,-82 -355,-72 -338,-83 -320,-87 -302,-92 -284,-96 -267,-101 -248,-101 -230,-102 -212,-102 -190,-98 -169,-94 -148,-91 -130,-84 -113,-77 -100,-69 -84,-66 -68,-64 -68,-64 -63,-65 -64,-59 -65,-68 -69,-59 -67,-69 -73,-60 -70,-72 -78,-61 -73,-76 -82,-61 -77,-79 -84,-66 -100,-69 -112,-76 -130,-83 -148,-91 -169,-94 -190,-98 -212,-102 -230,-102 -248,-101 -266,-101 -284,-96 -302,-92 -320,-87 -338,-83 -355,-72 -376,-82 -398,-82 -398,-86 -395,-81 -392,-88 -390,-80 -387,-89 -386,-79 -383,-90 -382,-78 -379,-91 -377,-77 -375,-92 -373,-76 -371,-93 -368,-74 -367,-94 -364,-72 -364,-95 -359,-69 -360,-96 -355,-68 -356,-97 -350,-69 -353,-97 -346,-72 -350,-98 -342,-74 -347,-99 -338,-77 -344,-100 -334,-78 -339,-101 -330,-79 -335,-102 -326,-80 -331,-103 -322,-81 -326,-104 -318,-82 -322,-105 -314,-84 -318,-106 -310,-85 -313,-108 -306,-86 -309,-109 -302,-87 -305,-109 -297,-88 -300,-110 -293,-89 -296,-111 -289,-90 -292,-112 -285,-91 -287,-113 -281,-92 -283,-114 -277,-93 -279,-115 -273,-94 -274,-116 -269,-95 -270,-117 -265,-96 -265,-117 -261,-96 -261,-118 -257,-96 -257,-118 -253,-96 -252,-118 -249,-96 -248,-118 -244,-96 -243,-119 -240,-96 -239,-119 -236,-97 -234,-119 -232,-97 -230,-119 -228,-97 -225,-120 -224,-97 -221,-120 -220,-97 -217,-119 -216,-97 -212,-118 -212,-97 -208,-118 -208,-96 -203,-117 -204,-96 -199,-117 -200,-95 -195,-116 -196,-94 -190,-115 -191,-93 -186,-115 -187,-93 -181,-114 -183,-92 -177,-114 -179,-91 -173,-113 -175,-90 -168,-112 -170,-90 -164,-112 -166,-89 -160,-110 -162,-88 -155,-109 -158,-88 -151,-108 -154,-87 -147,-106 -150,-86 -142,-105 -146,-85 -138,-104 -142,-83 -134,-103 -138,-82 -130,-101 -135,-80 -125,-100 -131,-78 -121,-99 -127,-77 -117,-98 -123,-75 -113,-96 -120,-74 -108,-95 -115,-72 -104,-94 -111,-70 -100,-91 -108,-67 -96,-89 -104,-65 -92,-87 -100,-64 -88,-85 -96,-63 -84,-83 -91,-62 -80,-81 -87,-62 -87,-62 -77,-79 -79,-76 -77,-79" /><polyline class="right-outline"  points="146,-102 146,-102 146,-97 129,-91 115,-77 106,-76 113,-59 119,-41 125,-24 106,-33 108,-14 110,4 115,22 120,39 125,57 138,83 150,96 163,109 182,120 201,131 225,136 246,135 265,127 283,118 298,107 313,96 321,82 330,68 335,53 340,37 346,21 349,2 351,-16 354,-34 357,-53 359,-72 346,-74 346,-74 342,-78 364,-76 342,-75 364,-71 341,-71 363,-67 341,-67 363,-62 340,-63 363,-58 340,-58 362,-54 339,-54 362,-49 339,-50 361,-45 338,-45 360,-40 338,-41 360,-36 337,-37 359,-32 337,-32 358,-27 336,-28 358,-23 336,-24 357,-18 335,-19 356,-14 335,-15 356,-10 334,-11 355,-5 334,-7 354,-1 333,-2 354,4 333,2 353,8 332,6 352,12 331,10 351,17 329,14 351,21 328,18 350,25 327,21 348,30 326,25 347,34 324,29 345,38 323,34 344,42 322,38 343,47 321,41 341,51 320,45 340,55 318,49 338,59 317,53 337,63 316,57 336,68 315,60 334,72 313,64 331,75 311,67 329,79 309,70 326,83 307,73 324,87 305,76 322,90 304,79 319,94 302,82 317,98 299,84 314,101 296,87 310,104 293,89 307,107 290,91 303,109 287,93 300,112 284,95 296,115 281,97 292,117 278,99 289,120 275,102 285,123 272,104 281,125 268,106 277,126 265,108 273,128 261,110 269,130 258,111 265,132 255,112 261,134 252,114 257,136 249,115 253,138 245,116 249,139 242,118 244,140 239,118 240,140 235,118 235,140 232,117 231,140 229,117 226,141 226,117 222,140 223,117 218,139 219,117 213,139 216,117 209,138 213,116 205,137 209,115 200,136 206,113 196,134 203,111 192,132 200,110 188,130 197,108 185,128 193,106 181,125 190,105 177,123 187,103 173,121 183,101 169,119 180,99 165,116 177,97 161,114 173,95 158,111 171,92 155,108 168,89 152,105 166,87 149,102 163,85 145,99 161,82 142,95 158,80 139,92 156,77 136,89 153,74 133,85 151,71 131,81 150,68 129,77 148,64 127,74 147,61 125,70 145,58 123,66 144,55 121,62 142,51 120,57 141,47 119,53 139,44 117,49 138,40 116,45 136,36 115,40 135,32 114,36 134,28 113,32 133,24 112,27 132,20 110,23 132,16 109,19 131,12 108,15 130,8 107,10 129,4 106,6 128,0 105,2 127,-4 105,-3 126,-7 104,-7 126,-11 104,-12 125,-15 103,-16 124,-19 103,-21 125,-23 102,-25 125,-27 102,-29 126,-31 101,-34 127,-34 101,-38 128,-38 100,-43 128,-42 99,-48 129,-46 99,-52 129,-50 98,-57 129,-53 98,-61 129,-56 97,-66 129,-59 97,-71 129,-61 97,-76 129,-63 101,-79 129,-65 107,-80 130,-67 112,-82 132,-68 115,-85 133,-70 119,-88 135,-71 122,-91 137,-73 125,-94 138,-75 129,-96 140,-77 133,-98 142,-78 137,-99 145,-79 142,-101 147,-79 147,-79 146,-102 146,-97 172,-91 182,-84 188,-73 191,-60 186,-35 170,-20 159,-17 142,-17 125,-24 125,-24 124,-19 129,-47 125,-19 133,-43 127,-18 136,-40 130,-16 139,-37 134,-15 142,-35 138,-13 144,-35 143,-12 147,-35 147,-12 149,-35 151,-12 152,-35 156,-12 154,-35 160,-12 156,-35 164,-13 159,-35 168,-14 160,-36 172,-16 162,-37 176,-19 164,-39 179,-22 165,-40 182,-25 167,-41 186,-28 169,-43 189,-31 170,-45 191,-35 170,-47 192,-39 171,-49 193,-44 171,-52 194,-48 171,-54 195,-53 172,-56 196,-57 172,-58 196,-61 173,-60 195,-66 173,-62 194,-70 172,-64 193,-74 171,-66 191,-78 169,-68 188,-82 168,-70 186,-86 167,-72 183,-89 166,-73 180,-92 164,-75 176,-94 162,-76 172,-96 160,-76 168,-98 158,-77 163,-99 156,-78 159,-100 154,-78 155,-101 152,-79 150,-102 150,-80 146,-102 147,-99 146,-102 312,-108 312,-108 310,-103 331,-98 352,-93 373,-88 372,-79 377,-77 358,-70 377,-77 375,-72 375,-72 396,-62 396,-59 395,-63 392,-60 392,-65 388,-61 389,-68 384,-62 386,-70 380,-63 382,-73 376,-64 379,-76 379,-76 373,-65 369,-62 379,-47 379,-47 380,-50 377,-43 380,-51 373,-47 378,-54 370,-50 377,-57 367,-54 375,-61 364,-57 374,-66 361,-60 375,-71 358,-64 376,-75 376,-75 355,-67 358,-73 377,-82 377,-82 399,-86 397,-82 395,-87 392,-81 390,-88 388,-80 386,-89 384,-79 381,-90 380,-78 377,-92 375,-76 373,-93 371,-74 370,-93 366,-72 366,-94 362,-70 362,-95 357,-68 359,-96 353,-68 355,-97 349,-71 352,-98 345,-73 349,-99 341,-76 346,-99 337,-78 342,-100 333,-79 337,-102 329,-80 333,-103 325,-81 329,-104 321,-82 325,-105 317,-83 320,-106 313,-84 316,-107 308,-85 312,-108 304,-86 307,-109 300,-87 303,-110 295,-89 298,-111 291,-90 294,-112 287,-91 290,-113 283,-92 285,-114 279,-93 281,-115 275,-94 277,-115 271,-95 272,-116 267,-96 268,-117 263,-96 264,-117 259,-96 259,-118 255,-96 255,-118 251,-96 250,-118 247,-96 246,-118 243,-96 241,-119 239,-97 237,-119 234,-97 233,-119 230,-97 228,-120 226,-97 224,-120 222,-97 219,-119 218,-97 215,-119 214,-97 210,-118 210,-97 206,-117 206,-96 202,-117 202,-95 197,-116 198,-94 193,-116 194,-94 188,-115 190,-93 184,-114 185,-92 180,-114 181,-91 175,-113 177,-91 171,-113 173,-90 166,-112 169,-89 162,-111 165,-88 158,-109 161,-88 154,-108 157,-87 149,-107 153,-86 145,-106 149,-85 141,-104 145,-84 136,-103 141,-82 132,-102 137,-80 128,-101 133,-79 124,-99 130,-77 119,-98 126,-76 115,-97 122,-74 111,-96 118,-73 107,-94 114,-71 103,-92 110,-68 99,-90 106,-66 95,-88 103,-64 91,-86 98,-63 87,-84 94,-63 83,-82 89,-62 79,-80 83,-66 63,-62 63,-62 63,-58 64,-65 66,-59 67,-68 71,-60 69,-70 76,-60 72,-74 80,-61 76,-77 85,-61 85,-61 79,-80 80,-77 79,-80" /><polyline   points="-182,-141 -179,-141 -182,-141 -162,-140 -143,-136 -125,-130 -107,-121 -125,-130 -107,-121 -125,-130 -143,-136 -125,-130 -143,-136 -162,-140 -143,-136 -162,-140 -182,-141 -162,-140 -182,-141 -179,-141 -182,-141" /><polyline   points="108,-119 111,-120 108,-119 126,-128 144,-134 163,-138 183,-139 163,-138 183,-139 163,-138 144,-134 163,-138 144,-134 126,-128 144,-134 126,-128 108,-119 126,-128 108,-119 111,-120 108,-119" /></svg>