<svg viewBox="-425 -150 850 300" fill="none" stroke="black" stroke-width="4"><polyline class="left-eye" stroke="red" points="-335,-26 -332,-25 -335,-26 -318,-20 -300,-22 -284,-30 -272,-45 -268,-62 -272,-80 -283,-95 -264,-90 -244,-89 -224,-89 -204,-89 -184,-87 -165,-84 -145,-81 -125,-78 -125,-58 -126,-39 -127,-19 -125,1 -127,20 -131,40 -138,58 -149,74 -162,89 -177,102 -195,111 -214,116 -233,117 -253,114 -271,107 -288,97 -302,84 -315,68 -325,52 -331,33 -334,13 -335,-6 -335,-26 -330,-8 -326,9 -321,27 -316,44 -312,62 -307,79 -283,101 -254,113 -261,106 -289,77 -317,49 -331,34 -333,22 -334,10 -315,30 -287,59 -259,88 -231,117 -212,116 -230,98 -258,69 -285,41 -313,12 -335,-11 -335,-26 -318,-15 -301,-4 -285,6 -268,17 -251,28 -234,39 -224,24 -214,9 -203,-5 -190,-17 -177,-29 -164,-41 -151,-54 -138,-66 -125,-78 -125,-68 -125,-58 -148,-82 -160,-83 -171,-85 -152,-66 -126,-38 -127,-19 -154,-47 -182,-76 -194,-88 -204,-89 -214,-89 -212,-86 -184,-58 -156,-29 -128,0 -125,3 -127,22 -130,18 -158,-10 -186,-39 -213,-68 -234,-89 -244,-89 -254,-90 -243,-78 -215,-49 -187,-21 -160,8 -131,38 -136,53 -161,27 -189,-2 -217,-31 -245,-60 -273,-89 -275,-92 -283,-95 -268,-64 -247,-41 -219,-13 -191,16 -163,45 -143,66 -152,77 -165,63 -193,35 -221,6 -248,-23 -272,-47 -279,-34 -250,-4 -222,24 -195,53 -167,82 -161,88 -171,98 -196,72 -224,43 -252,14 -280,-15 -290,-26 -305,-20 -282,4 -254,32 -226,61 -198,90 -183,105 -197,111 -200,108 -228,80 -256,51 -283,22 -311,-7 -326,-22 -335,-26 -340,-37 -341,-37 -337,-35 -341,-31 -333,-34 -342,-26 -329,-32 -342,-20 -326,-31 -340,-17 -343,-14 -330,-24 -322,-29 -343,-9 -339,-10 -318,-28 -330,-17 -343,-4 -320,-24 -314,-27 -339,-3 -343,1 -329,-10 -309,-27 -319,-17 -343,6 -338,3 -309,-24 -302,-28 -328,-4 -342,10 -318,-11 -295,-30 -308,-18 -337,10 -342,15 -342,18 -327,3 -298,-25 -290,-33 -285,-35 -274,-49 -263,-62 -253,-75 -267,-84 -283,-90 -300,-96 -294,-96 -297,-94 -289,-97 -294,-91 -283,-97 -291,-89 -277,-98 -288,-87 -272,-98 -286,-84 -275,-93 -267,-98 -284,-82 -262,-98 -274,-86 -281,-79 -264,-93 -257,-97 -279,-76 -273,-79 -252,-97 -263,-86 -278,-72 -253,-93 -246,-97 -272,-73 -276,-68 -262,-80 -241,-97 -252,-87 -275,-64 -271,-66 -242,-94 -236,-97 -261,-73 -275,-59 -251,-80 -231,-97 -241,-87 -270,-59 -275,-54 -260,-66 -232,-94 -226,-97 -250,-73 -278,-47 -269,-53 -241,-80 -221,-97 -231,-87 -259,-60 -288,-32 -317,-4 -342,20 -336,17 -307,-11 -278,-39 -250,-67 -221,-94 -216,-97 -240,-74 -268,-46 -297,-18 -326,10 -341,24 -316,3 -287,-25 -258,-53 -230,-81 -210,-97 -220,-88 -249,-60 -277,-32 -306,-4 -335,23 -340,28 -325,16 -296,-11 -267,-39 -239,-67 -205,-97 -229,-74 -258,-46 -286,-18 -315,9 -339,33 -334,30 -305,2 -276,-25 -248,-53 -219,-81 -200,-97 -209,-88 -238,-60 -267,-33 -295,-5 -324,23 -339,37 -314,16 -285,-12 -257,-40 -228,-67 -195,-96 -218,-74 -247,-47 -276,-19 -304,9 -333,37 -338,41 -323,30 -294,2 -266,-26 -237,-54 -208,-81 -191,-96 -198,-88 -227,-61 -256,-33 -285,-5 -313,23 -337,45 -332,43 -303,16 -275,-12 -246,-40 -217,-68 -186,-95 -207,-75 -236,-47 -265,-19 -294,9 -322,36 -335,49 -312,29 -284,2 -255,-26 -226,-54 -197,-82 -181,-95 -187,-89 -216,-61 -245,-33 -274,-5 -303,22 -331,50 -334,53 -321,43 -293,15 -264,-12 -235,-40 -206,-68 -177,-94 -196,-75 -225,-47 -254,-19 -283,8 -312,36 -332,56 -302,29 -273,1 -244,-27 -215,-54 -187,-82 -172,-94 -177,-89 -205,-61 -234,-34 -263,-6 -292,22 -321,50 -331,60 -311,43 -282,15 -253,-13 -224,-41 -196,-68 -167,-93 -186,-75 -214,-48 -243,-20 -272,8 -301,36 -329,63 -320,57 -291,29 -262,1 -233,-27 -205,-55 -176,-82 -163,-92 -166,-89 -195,-62 -223,-34 -252,-6 -281,22 -310,49 -327,66 -300,42 -271,15 -242,-13 -214,-41 -185,-69 -158,-92 -175,-76 -204,-48 -232,-20 -261,8 -290,35 -319,63 -325,70 -309,56 -280,28 -251,1 -223,-27 -194,-55 -165,-83 -154,-91 -184,-62 -213,-34 -241,-6 -270,21 -299,49 -323,73 -318,70 -289,42 -260,14 -232,-13 -203,-41 -174,-69 -149,-90 -164,-76 -193,-48 -222,-21 -250,7 -279,35 -308,63 -321,76 -298,56 -269,28 -241,0 -212,-28 -183,-55 -154,-83 -145,-89 -173,-62 -202,-35 -231,-7 -259,21 -288,49 -319,79 -307,70 -278,42 -250,14 -221,-14 -192,-42 -163,-69 -140,-89 -153,-76 -182,-49 -211,-21 -240,7 -268,35 -297,63 -317,82 -287,55 -258,28 -230,0 -201,-28 -172,-56 -143,-83 -136,-88 -162,-63 -191,-35 -220,-7 -249,21 -277,48 -306,76 -315,85 -296,69 -267,41 -239,14 -210,-14 -181,-42 -152,-70 -132,-87 -143,-77 -171,-49 -200,-21 -229,7 -258,34 -286,62 -312,87 -305,83 -276,55 -248,27 -219,0 -190,-28 -161,-56 -133,-84 -127,-87 -151,-63 -180,-35 -209,-7 -238,20 -267,48 -295,76 -310,90 -285,69 -257,41 -228,13 -199,-15 -170,-42 -142,-70 -123,-86 -132,-77 -160,-49 -189,-22 -218,6 -247,34 -276,62 -304,90 -307,92 -294,83 -266,55 -237,27 -208,-1 -179,-29 -151,-56 -118,-85 -141,-63 -169,-36 -198,-8 -227,20 -256,48 -285,76 -305,95 -275,69 -246,41 -217,13 -188,-15 -160,-43 -131,-70 -117,-81 -121,-77 -150,-50 -178,-22 -207,6 -236,34 -265,61 -294,89 -302,98 -284,82 -255,54 -226,27 -197,-1 -169,-29 -140,-57 -117,-76 -130,-64 -159,-36 -187,-8 -216,20 -245,47 -274,75 -300,100 -293,96 -264,68 -235,40 -206,13 -178,-15 -149,-43 -120,-71 -117,-71 -139,-50 -168,-22 -196,6 -225,33 -254,61 -283,89 -297,102 -273,82 -244,54 -215,26 -187,-1 -158,-29 -129,-57 -117,-66 -119,-64 -148,-36 -177,-8 -205,19 -234,47 -263,75 -294,104 -282,96 -253,68 -224,40 -196,12 -167,-16 -138,-43 -117,-61 -128,-50 -157,-23 -186,5 -214,33 -243,61 -272,89 -291,106 -262,82 -233,54 -205,26 -176,-2 -147,-30 -117,-56 -137,-37 -166,-9 -195,19 -223,47 -252,75 -281,102 -287,109 -271,95 -242,67 -214,40 -185,12 -156,-16 -127,-44 -116,-52 -146,-23 -175,5 -204,33 -232,60 -261,88 -284,111 -280,109 -251,81 -223,53 -194,26 -165,-2 -136,-30 -117,-46 -126,-37 -155,-9 -184,19 -213,46 -241,74 -270,102 -281,113 -260,95 -232,67 -203,39 -174,12 -145,-16 -117,-41 -135,-23 -164,5 -193,32 -222,60 -250,88 -278,114 -269,109 -241,81 -212,53 -183,25 -154,-2 -125,-30 -118,-35 -144,-10 -173,18 -202,46 -231,74 -259,102 -274,116 -250,95 -221,67 -192,39 -163,11 -134,-17 -118,-30 -125,-24 -153,4 -182,32 -211,60 -240,88 -268,115 -271,118 -258,108 -230,81 -201,53 -172,25 -143,-3 -118,-25 -134,-10 -162,18 -191,46 -220,73 -249,101 -267,119 -239,94 -210,66 -181,39 -152,11 -124,-17 -118,-20 -143,4 -171,32 -200,59 -229,87 -258,115 -263,121 -248,108 -219,80 -190,52 -161,25 -133,-3 -118,-15 -123,-10 -151,18 -180,45 -209,73 -238,101 -259,122 -228,94 -199,66 -170,38 -142,11 -117,-10 -132,4 -160,31 -189,59 -218,87 -247,115 -255,123 -237,108 -208,80 -179,52 -151,24 -122,-4 -117,-6 -141,17 -169,45 -198,73 -227,101 -251,124 -246,121 -217,94 -188,66 -160,38 -131,10 -117,-1 -121,3 -150,31 -178,59 -207,87 -236,114 -247,125 -226,107 -197,79 -169,52 -140,24 -117,4 -130,17 -159,45 -187,72 -216,100 -242,125 -235,121 -206,93 -178,65 -149,38 -120,10 -117,10 -139,31 -168,58 -196,86 -225,114 -237,126 -215,107 -187,79 -158,51 -129,24 -118,15 -148,44 -177,72 -205,100 -232,126 -224,121 -196,93 -167,65 -138,37 -118,20 -128,30 -157,58 -186,86 -214,114 -227,126 -205,107 -176,79 -147,51 -119,27 -137,44 -166,72 -195,100 -221,125 -214,120 -185,93 -156,65 -127,37 -121,33 -146,58 -175,86 -204,113 -215,125 -194,106 -165,78 -136,51 -122,40 -126,44 -155,71 -184,99 -209,124 -203,120 -174,92 -145,64 -126,48 -135,57 -164,85 -193,113 -202,121 -183,106 -154,78 -129,56 -144,71 -173,99 -193,118 -163,92 -134,64 -131,61 -135,67 -153,85 -184,114 -177,110 -172,106 -143,78 -139,74 -143,79 -153,89 -162,99 -162,98 -163,99 -163,99 -162,98 -143,79 -145,81 -143,79" /><polyline class="right-eye" stroke="red" points="129,-25 132,-24 129,-25 147,-18 166,-19 183,-27 194,-42 195,-60 188,-78 174,-91 191,-85 209,-87 227,-88 245,-88 263,-89 282,-89 300,-87 318,-86 336,-85 336,-65 336,-45 336,-25 335,-6 334,14 330,34 324,52 314,70 301,84 288,99 270,108 251,113 232,115 212,112 193,107 176,97 160,85 147,70 137,53 131,34 128,15 128,-5 129,-25 133,-8 137,10 142,27 146,44 150,62 154,79 167,87 180,95 193,103 207,111 199,104 171,76 143,47 131,36 130,24 128,12 144,29 173,57 201,85 230,115 250,113 231,95 203,67 174,38 146,10 128,-8 129,-25 144,-16 158,-7 173,2 188,11 202,20 217,29 231,38 239,22 246,5 254,-12 268,-24 281,-36 295,-48 309,-61 322,-73 336,-85 336,-75 336,-65 314,-86 303,-87 292,-88 308,-72 336,-44 336,-34 336,-24 306,-54 278,-82 270,-90 251,-88 276,-63 305,-35 333,-7 335,-4 334,14 331,12 303,-16 275,-45 246,-73 232,-88 212,-87 216,-83 245,-54 273,-26 301,2 331,32 326,47 299,21 271,-7 243,-36 215,-64 193,-86 176,-90 186,-80 174,-91 186,-80 195,-64 213,-45 241,-17 269,11 298,40 319,61 311,74 296,58 268,30 239,2 211,-27 194,-43 187,-30 210,-8 238,20 266,49 294,77 302,84 292,95 264,67 236,39 208,11 180,-18 175,-22 159,-18 178,1 206,29 234,58 263,86 281,104 266,110 261,105 233,76 204,48 176,20 148,-9 135,-22 129,-25 121,-39 121,-38 123,-38 121,-36 127,-36 120,-30 130,-35 120,-24 122,-24 134,-33 119,-19 137,-32 123,-17 119,-13 133,-25 141,-30 118,-7 124,-11 145,-29 134,-18 118,-2 144,-25 149,-28 125,-4 118,3 135,-11 154,-27 145,-18 119,8 126,3 158,-27 136,-4 119,13 146,-12 165,-28 155,-19 127,9 119,18 137,2 165,-26 172,-30 147,-5 119,22 120,25 128,16 157,-12 178,-34 180,-34 190,-48 200,-61 209,-74 193,-83 175,-86 157,-90 163,-91 160,-88 169,-92 163,-86 176,-93 166,-83 182,-94 169,-81 178,-87 187,-94 172,-79 193,-95 179,-81 174,-76 188,-88 199,-95 177,-74 204,-96 189,-81 179,-71 199,-88 210,-96 181,-68 190,-74 215,-97 200,-82 183,-65 210,-89 221,-97 191,-68 185,-61 201,-75 226,-97 211,-82 185,-57 193,-61 221,-89 231,-97 202,-68 186,-52 212,-75 237,-98 222,-83 194,-54 185,-46 203,-62 232,-90 242,-98 213,-69 185,-40 181,-37 169,-24 157,-12 145,1 132,14 120,27 138,9 166,-19 195,-48 223,-76 248,-98 233,-83 204,-55 176,-27 148,2 120,29 129,23 158,-5 186,-34 214,-62 242,-90 253,-98 224,-69 196,-41 167,-13 139,16 121,34 149,8 177,-20 205,-48 234,-76 258,-99 243,-84 215,-55 187,-27 159,1 130,30 122,38 140,22 168,-6 197,-34 225,-63 253,-91 264,-99 235,-70 206,-41 178,-13 150,15 123,42 131,36 160,8 188,-20 216,-49 244,-77 269,-99 254,-84 226,-56 198,-28 169,1 141,29 124,46 151,22 179,-6 207,-35 236,-63 264,-91 274,-99 272,-97 246,-70 217,-42 189,-14 161,15 132,43 125,50 142,36 170,7 199,-21 227,-49 255,-77 280,-99 265,-85 237,-56 209,-28 180,0 152,29 126,54 133,50 162,21 190,-7 218,-35 247,-64 275,-92 285,-99 283,-97 256,-71 228,-42 200,-14 171,14 143,42 128,58 153,35 181,7 210,-21 238,-50 266,-78 290,-99 276,-85 248,-57 219,-29 191,0 163,28 134,56 129,61 144,49 173,21 201,-7 229,-36 257,-64 286,-92 295,-99 267,-71 239,-43 211,-15 182,14 154,42 131,65 136,63 164,35 192,6 220,-22 249,-50 277,-78 299,-98 287,-86 258,-57 230,-29 202,-1 174,28 145,56 133,68 155,49 183,20 212,-8 240,-36 268,-65 296,-93 304,-97 278,-72 250,-43 221,-15 193,13 165,41 135,71 146,63 175,34 203,6 231,-22 259,-51 288,-79 308,-97 298,-86 269,-58 241,-30 213,-1 184,27 156,55 137,74 166,48 194,20 222,-8 251,-37 279,-65 307,-93 313,-97 289,-72 261,-44 232,-16 204,13 176,41 147,69 139,77 157,62 185,34 214,5 242,-23 270,-51 299,-79 318,-96 308,-87 280,-58 252,-30 223,-2 195,27 167,55 141,80 148,76 177,48 205,19 233,-9 262,-37 290,-66 318,-94 323,-96 300,-73 271,-44 243,-16 215,12 186,40 158,69 144,83 168,62 196,33 225,5 253,-23 281,-52 309,-80 328,-96 319,-87 291,-59 263,-31 234,-2 206,26 178,54 149,83 146,86 159,75 188,47 216,19 244,-9 272,-38 301,-66 333,-96 310,-73 282,-45 254,-17 226,12 197,40 169,68 148,89 179,61 207,33 235,4 264,-24 292,-52 320,-80 338,-95 330,-88 302,-59 273,-31 245,-3 217,26 189,54 160,82 151,91 170,75 198,47 227,18 255,-10 283,-38 311,-67 343,-95 321,-74 293,-45 265,-17 236,11 208,39 180,68 154,94 161,89 190,61 218,32 246,4 274,-24 303,-53 331,-81 346,-93 341,-88 312,-60 284,-32 256,-3 228,25 199,53 171,82 156,96 181,74 209,46 237,18 266,-10 294,-39 322,-67 346,-88 332,-74 304,-46 275,-18 247,11 219,39 191,67 162,95 159,99 172,88 200,60 229,32 257,3 285,-25 314,-53 342,-81 346,-83 323,-60 295,-32 267,-4 238,25 210,53 182,81 162,101 192,74 220,46 248,17 277,-11 305,-39 333,-68 346,-78 343,-75 315,-46 286,-18 258,10 230,38 201,67 173,95 165,103 183,88 211,60 239,31 268,3 296,-25 324,-54 346,-73 334,-61 306,-33 278,-4 249,24 221,52 193,81 168,105 174,102 202,73 231,45 259,17 287,-11 316,-40 344,-68 346,-68 325,-47 297,-19 269,10 241,38 212,66 184,94 171,107 194,87 222,59 250,31 279,2 307,-26 335,-54 346,-63 317,-33 288,-5 260,24 232,52 204,80 174,109 185,101 213,73 242,45 270,16 298,-12 326,-40 346,-57 336,-47 308,-19 280,9 251,37 223,66 195,94 177,111 205,87 233,59 261,30 289,2 318,-26 346,-52 327,-34 299,-5 271,23 243,51 214,80 186,108 181,113 196,101 224,72 252,44 281,16 309,-12 337,-41 346,-47 319,-20 290,9 262,37 234,65 206,93 184,115 215,86 244,58 272,30 300,1 329,-27 346,-42 338,-34 310,-6 282,23 253,51 225,79 197,107 188,116 207,100 235,72 263,44 291,15 320,-13 347,-37 330,-20 301,8 273,36 245,65 216,93 192,118 198,114 226,86 254,58 283,29 311,1 339,-27 347,-32 321,-6 293,22 264,50 236,79 208,107 195,119 217,100 246,71 274,43 302,15 331,-13 347,-27 340,-21 312,8 284,36 256,64 227,92 199,121 209,114 237,85 265,57 294,29 322,0 347,-22 332,-7 303,22 275,50 247,78 218,106 203,122 228,99 257,71 285,43 313,14 341,-14 346,-16 323,7 295,35 266,64 238,92 210,120 207,123 220,113 248,85 276,57 304,28 333,0 346,-11 342,-7 314,21 286,49 258,78 229,106 212,124 239,99 267,70 296,42 324,14 346,-5 334,7 305,35 277,63 249,91 221,120 216,125 230,113 259,84 287,56 315,28 345,0 325,21 297,49 268,77 240,105 220,125 250,98 278,70 306,42 335,13 345,6 316,34 288,63 260,91 231,119 225,125 241,112 269,84 298,56 326,27 344,11 336,20 307,48 279,77 251,105 230,126 261,98 289,69 317,41 344,17 327,34 299,62 270,90 242,119 235,126 252,112 280,83 309,55 337,27 343,23 318,48 290,76 262,104 240,126 272,97 300,69 328,41 342,30 338,33 310,62 281,90 253,118 247,125 263,111 291,83 319,55 340,36 329,47 301,76 273,104 253,124 282,97 311,68 338,44 320,61 292,89 264,118 259,123 274,111 302,82 330,54 334,52 312,75 283,103 267,120 293,96 321,68 333,57 330,62 303,89 275,117 284,110 313,82 325,69 321,76 294,103 285,112 293,105 302,98 301,98 293,105 295,103 293,105" /><polyline  stroke="white" points="-287,-80 -287,-77 -287,-80 -285,-62 -289,-46 -304,-37 -312,-38 -319,-44 -327,-58 -325,-67 -320,-73 -313,-80 -305,-80 -287,-80 -301,-71 -314,-63 -328,-54 -328,-54 -321,-67 -313,-80 -313,-46 -313,-39 -299,-39 -299,-58 -299,-80 -287,-80 -285,-68 -284,-57 -284,-57 -284,-57 -287,-80 -304,-89 -301,-89 -301,-89 -298,-89 -311,-89 -298,-89 -291,-87 -296,-87 -318,-87 -285,-83 -312,-83 -325,-83 -300,-81 -280,-79 -288,-79 -330,-79 -316,-77 -277,-75 -304,-75 -334,-75 -332,-73 -292,-73 -275,-71 -280,-71 -320,-71 -337,-71 -308,-69 -273,-67 -296,-67 -338,-67 -324,-65 -284,-65 -272,-63 -312,-63 -339,-63 -300,-61 -271,-59 -288,-59 -328,-59 -340,-59 -316,-57 -276,-57 -271,-55 -304,-55 -340,-55 -332,-53 -292,-53 -273,-51 -280,-51 -320,-51 -339,-51 -308,-49 -274,-47 -296,-47 -338,-47 -324,-45 -284,-45 -276,-43 -312,-43 -336,-43 -300,-41 -279,-39 -288,-39 -328,-39 -333,-39 -316,-37 -283,-35 -304,-35 -329,-35 -292,-33 -288,-31 -323,-31 -318,-29 -308,-29 -292,-29 -302,-27 -303,-27 -302,-27 -303,-27 -302,-27" /><polyline  stroke="white" points="167,-81 168,-78 167,-81 174,-65 177,-57 176,-49 164,-36 147,-36 136,-48 137,-65 150,-76 167,-81 156,-72 145,-62 134,-53 134,-53 141,-64 149,-76 149,-46 149,-36 163,-36 163,-58 163,-80 167,-81 173,-67 178,-54 178,-54 178,-54 167,-81 155,-85 160,-85 160,-85 163,-85 151,-85 163,-85 170,-83 144,-83 156,-81 177,-79 168,-79 137,-79 140,-77 181,-75 152,-75 132,-75 164,-73 184,-71 176,-71 136,-71 129,-71 148,-69 187,-67 160,-67 126,-67 132,-65 172,-65 188,-63 184,-63 144,-63 125,-63 156,-61 190,-59 168,-59 128,-59 123,-59 140,-57 180,-57 190,-55 152,-55 123,-55 164,-53 190,-51 176,-51 136,-51 123,-51 148,-49 188,-47 160,-47 124,-47 132,-45 172,-45 186,-43 144,-43 125,-43 156,-41 184,-39 168,-39 128,-39 140,-37 180,-37 181,-35 152,-35 132,-35 164,-33 177,-31 136,-31 148,-29 170,-27 160,-27 144,-27 157,-25 159,-25 157,-25" /><polyline class="left-outline"  points="-111,-124 -114,-125 -111,-124 -128,-129 -146,-133 -165,-135 -183,-135 -165,-135 -183,-135 -165,-135 -146,-133 -165,-135 -146,-133 -128,-129 -146,-133 -128,-129 -111,-124 -128,-129 -111,-124 -114,-125 -111,-124" /><polyline class="right-outline"  points="181,-135 178,-135 181,-135 163,-135 144,-133 126,-129 109,-124 126,-129 109,-124 126,-129 144,-133 126,-129 144,-133 163,-135 144,-133 163,-135 181,-135 163,-135 181,-135 178,-135 181,-135" /><polyline   points="-371,-82 -373,-84 -371,-82 -375,-86 -352,-88 -336,-83 -321,-77 -312,-83 -297,-81 -297,-76 -276,-80 -276,-80 -297,-76 -271,-81 -295,-73 -269,-77 -293,-71 -267,-73 -291,-68 -266,-69 -289,-66 -266,-64 -288,-63 -265,-60 -289,-60 -265,-55 -289,-58 -266,-51 -289,-55 -267,-46 -289,-53 -268,-42 -290,-50 -270,-38 -291,-49 -273,-35 -293,-48 -275,-31 -294,-46 -278,-28 -296,-45 -282,-25 -297,-44 -286,-23 -299,-43 -290,-21 -300,-42 -294,-19 -302,-40 -298,-18 -304,-40 -302,-17 -307,-40 -307,-17 -309,-40 -311,-18 -312,-40 -316,-19 -315,-42 -320,-20 -317,-43 -324,-22 -319,-44 -329,-23 -321,-47 -321,-47 -331,-24 -335,-26 -326,-48 -331,-58 -326,-72 -347,-79 -352,-83 -321,-72 -352,-81 -322,-71 -352,-76 -322,-69 -352,-72 -323,-68 -352,-68 -324,-64 -352,-64 -326,-59 -352,-60 -325,-55 -352,-56 -323,-50 -352,-51 -322,-46 -352,-47 -323,-42 -352,-42 -325,-38 -352,-38 -327,-34 -352,-33 -329,-30 -352,-29 -330,-26 -352,-25 -331,-21 -352,-20 -331,-17 -352,-16 -331,-13 -352,-12 -330,-9 -352,-7 -330,-6 -352,-3 -330,-2 -352,2 -330,2 -351,6 -330,6 -350,10 -329,10 -350,15 -329,14 -349,19 -329,18 -349,24 -328,22 -348,28 -327,26 -347,32 -326,30 -347,37 -325,33 -346,41 -324,37 -346,46 -323,40 -344,50 -322,44 -342,54 -321,48 -340,58 -320,51 -338,62 -318,54 -336,66 -316,57 -334,70 -314,60 -332,74 -312,63 -330,78 -310,66 -328,81 -308,69 -325,85 -305,72 -321,88 -303,75 -318,91 -301,78 -315,94 -298,80 -312,97 -295,83 -309,100 -292,85 -305,103 -289,87 -302,107 -286,89 -299,109 -283,92 -295,112 -280,94 -292,114 -277,96 -288,117 -274,98 -284,119 -271,101 -280,122 -268,103 -277,124 -265,105 -273,126 -261,106 -269,128 -258,107 -264,129 -255,108 -260,130 -252,109 -256,131 -249,111 -251,132 -245,112 -247,134 -242,112 -243,135 -238,112 -238,135 -235,112 -234,135 -231,112 -229,135 -227,112 -225,134 -224,112 -221,134 -220,112 -216,134 -217,112 -212,133 -213,111 -207,133 -210,110 -203,132 -206,109 -198,132 -202,108 -194,130 -199,107 -190,128 -195,106 -186,127 -192,105 -182,125 -188,104 -178,123 -185,103 -174,121 -181,102 -170,119 -178,99 -166,117 -176,97 -162,116 -173,95 -158,113 -170,93 -154,110 -168,91 -151,107 -165,89 -148,104 -162,87 -145,101 -160,85 -141,98 -157,82 -138,95 -155,79 -136,91 -153,76 -134,87 -151,73 -132,83 -150,69 -130,79 -148,66 -128,75 -146,63 -126,71 -144,60 -124,67 -142,56 -122,63 -140,53 -120,59 -138,49 -118,55 -137,45 -116,51 -136,42 -114,47 -135,38 -112,43 -134,35 -111,39 -133,31 -110,35 -131,28 -110,30 -130,24 -109,26 -130,20 -108,21 -130,16 -107,17 -130,13 -107,13 -130,9 -106,8 -130,5 -106,4 -130,1 -106,-1 -130,-3 -107,-5 -130,-8 -107,-10 -130,-12 -107,-14 -130,-16 -107,-18 -130,-20 -107,-23 -130,-25 -107,-27 -130,-29 -107,-32 -130,-34 -107,-36 -130,-38 -107,-41 -130,-43 -107,-45 -130,-47 -108,-50 -130,-52 -108,-54 -130,-56 -108,-58 -130,-60 -108,-62 -130,-65 -108,-65 -130,-69 -108,-67 -108,-67 -130,-74 -129,-79 -150,-80 -170,-82 -191,-83 -211,-84 -231,-86 -252,-87 -272,-88 -297,-81 -312,-83 -321,-77 -336,-83 -352,-88 -373,-86 -379,-78 -380,-59 -381,-41 -382,-22 -382,-22 -379,-20 -385,-24 -378,-23 -387,-28 -377,-28 -388,-30 -377,-32 -389,-33 -376,-37 -391,-37 -375,-41 -394,-41 -375,-46 -396,-45 -375,-50 -397,-49 -375,-54 -398,-54 -375,-57 -398,-58 -375,-60 -398,-63 -375,-63 -399,-67 -375,-66 -399,-72 -375,-68 -400,-76 -375,-70 -400,-81 -375,-72 -400,-86 -375,-74 -401,-91 -374,-76 -398,-95 -373,-77 -393,-97 -373,-79 -389,-99 -371,-81 -384,-101 -369,-82 -380,-102 -367,-82 -375,-102 -365,-82 -370,-103 -363,-83 -366,-103 -360,-83 -361,-103 -358,-83 -357,-104 -355,-83 -352,-104 -351,-83 -348,-105 -346,-81 -344,-105 -342,-80 -339,-106 -338,-78 -335,-106 -334,-77 -330,-106 -330,-75 -326,-106 -326,-74 -322,-105 -321,-73 -318,-105 -317,-75 -314,-105 -312,-77 -310,-105 -308,-77 -307,-105 -304,-77 -304,-105 -299,-76 -300,-105 -295,-76 -295,-105 -291,-77 -291,-104 -288,-78 -286,-104 -283,-80 -282,-104 -279,-81 -277,-104 -275,-83 -273,-104 -270,-83 -269,-104 -266,-83 -264,-103 -261,-83 -260,-103 -257,-82 -255,-103 -253,-82 -251,-103 -249,-82 -247,-103 -245,-82 -242,-103 -241,-81 -238,-103 -237,-81 -233,-102 -232,-81 -229,-102 -228,-80 -224,-102 -223,-80 -220,-102 -219,-80 -215,-102 -214,-80 -211,-102 -210,-79 -207,-101 -205,-79 -202,-101 -201,-79 -198,-101 -197,-78 -193,-101 -192,-78 -189,-101 -188,-78 -184,-101 -184,-77 -180,-101 -179,-77 -175,-100 -175,-77 -171,-100 -171,-77 -167,-100 -166,-76 -162,-99 -162,-76 -158,-99 -158,-76 -153,-98 -154,-75 -149,-97 -150,-75 -145,-97 -146,-75 -140,-96 -141,-75 -136,-95 -137,-74 -132,-95 -132,-74 -127,-94 -128,-73 -123,-94 -124,-72 -119,-93 -119,-71 -115,-92 -115,-70 -110,-92 -111,-69 -106,-91 -107,-68 -102,-91 -102,-69 -97,-90 -97,-70 -93,-89 -93,-71 -89,-89 -88,-71 -85,-87 -84,-72 -80,-84 -80,-73 -76,-81 -75,-74 -73,-74 -73,-74 -72,-76" /><polyline   points="109,-70 108,-73 109,-70 109,-68 108,-73 137,-69 149,-79 165,-77 165,-72 186,-77 186,-77 165,-72 191,-78 167,-69 193,-74 169,-66 194,-69 171,-64 196,-65 173,-61 196,-61 173,-58 197,-56 173,-56 197,-52 173,-54 196,-47 173,-51 195,-43 173,-49 194,-39 173,-47 192,-35 171,-45 190,-31 170,-44 188,-28 168,-43 185,-25 167,-42 181,-22 165,-40 178,-19 164,-39 174,-18 163,-38 170,-16 161,-37 165,-15 159,-36 161,-14 156,-36 157,-13 154,-36 153,-13 151,-36 148,-15 149,-37 144,-16 146,-38 140,-17 144,-40 136,-19 141,-42 132,-20 139,-45 139,-45 130,-21 131,-24 126,-25 134,-46 132,-49 133,-62 114,-65 114,-65 109,-68 138,-64 109,-66 138,-61 109,-62 137,-58 109,-58 137,-54 109,-54 137,-50 109,-50 139,-45 109,-46 137,-41 109,-41 136,-37 109,-37 134,-33 109,-32 133,-28 109,-28 131,-24 108,-24 130,-20 108,-20 130,-15 108,-15 130,-11 108,-11 130,-7 108,-6 130,-3 108,-2 130,0 108,2 130,4 108,7 130,8 108,11 130,12 108,16 130,16 108,20 130,20 109,25 130,24 110,29 131,27 111,33 132,31 112,38 134,34 113,42 135,38 114,46 136,41 115,51 137,45 116,55 138,48 118,59 139,52 120,63 141,55 122,67 143,58 124,71 145,61 126,75 147,64 129,79 149,67 131,83 151,70 133,86 153,73 136,89 156,76 140,93 158,79 143,96 160,83 146,99 162,85 149,102 165,87 152,105 168,90 156,108 171,92 159,111 174,94 162,114 177,97 166,117 180,99 170,118 183,100 174,120 186,102 178,122 189,103 182,124 193,105 186,126 196,106 190,127 199,108 194,129 203,109 198,131 207,109 203,132 210,110 207,133 214,111 211,134 217,112 216,134 220,113 220,135 224,113 225,135 227,113 229,136 231,113 234,136 234,113 238,135 238,113 242,134 241,113 247,133 245,112 251,133 248,111 256,132 251,110 260,131 255,109 264,129 258,107 268,127 261,106 272,125 265,105 276,123 268,103 280,121 271,101 284,119 274,99 288,117 277,96 292,115 280,94 296,113 283,92 299,110 286,89 302,107 289,87 306,104 292,85 309,101 295,82 312,98 298,80 316,95 301,78 319,92 304,76 322,89 306,73 325,86 309,70 328,82 310,67 330,78 312,64 332,74 314,61 334,71 316,58 337,67 317,55 339,63 319,52 341,59 321,49 343,55 323,45 344,51 324,41 345,46 325,38 346,42 326,34 347,38 326,30 347,33 327,27 348,29 328,23 349,24 329,19 350,20 330,15 351,16 331,11 352,11 331,7 353,7 331,3 353,3 331,-1 353,-2 331,-5 353,-6 331,-9 353,-11 331,-13 353,-15 331,-18 353,-20 331,-22 353,-24 330,-26 353,-29 330,-31 353,-33 330,-35 353,-37 330,-40 353,-42 330,-44 353,-46 330,-48 353,-51 330,-53 353,-55 330,-57 353,-60 330,-62 353,-64 330,-66 353,-69 330,-71 353,-73 330,-75 353,-77 330,-80 353,-81 353,-81 330,-84 328,-89 350,-88 371,-87 383,-74 384,-51 385,-27 385,-27 387,-20 381,-23 390,-24 380,-28 393,-28 380,-33 396,-32 379,-37 396,-36 379,-41 397,-41 379,-45 398,-45 379,-49 398,-50 379,-53 399,-54 379,-56 400,-58 379,-60 400,-63 379,-62 401,-68 379,-65 401,-72 379,-68 401,-77 379,-71 401,-82 378,-73 401,-87 377,-74 400,-91 376,-76 396,-94 374,-77 392,-96 373,-78 388,-98 372,-80 384,-100 370,-81 380,-103 368,-82 376,-103 366,-83 371,-103 364,-83 366,-103 360,-83 362,-104 357,-83 358,-104 353,-83 353,-104 350,-83 349,-104 346,-83 344,-104 341,-84 340,-104 337,-84 335,-104 333,-84 331,-105 328,-84 326,-105 324,-84 322,-105 319,-84 318,-105 315,-84 314,-105 311,-83 309,-105 307,-83 305,-105 303,-83 300,-105 299,-83 296,-106 294,-83 292,-106 290,-83 287,-106 285,-83 283,-105 281,-83 278,-105 277,-82 274,-105 272,-82 269,-105 268,-82 265,-104 264,-82 260,-104 259,-82 256,-104 255,-82 252,-104 250,-82 247,-104 246,-81 243,-103 241,-81 238,-103 237,-81 234,-103 233,-81 229,-103 228,-81 225,-102 224,-81 220,-102 219,-81 216,-102 215,-81 212,-102 211,-80 207,-101 207,-80 203,-101 203,-80 198,-101 199,-80 194,-101 195,-80 190,-100 190,-79 186,-100 186,-78 182,-100 182,-77 177,-100 177,-76 173,-99 173,-74 168,-99 169,-73 164,-99 166,-72 159,-99 162,-72 155,-99 157,-73 151,-98 153,-74 147,-98 148,-72 143,-97 144,-69 139,-96 140,-66 134,-96 136,-65 130,-95 131,-65 125,-94 127,-66 121,-93 123,-66 117,-93 118,-67 113,-92 113,-67 109,-91 109,-68 104,-91 104,-68 100,-90 100,-68 96,-89 96,-68 92,-87 93,-69 88,-85 89,-69 84,-82 85,-69 80,-80 81,-69 76,-77 78,-69 71,-74 73,-72 71,-74" /></svg>