<svg viewBox="-425 -150 850 300" fill="none" stroke="black" stroke-width="4"><polyline class="left-eye" stroke="red" points="-338,-30 -335,-29 -338,-30 -320,-23 -301,-24 -283,-31 -271,-47 -268,-66 -273,-84 -286,-99 -268,-94 -249,-92 -230,-91 -210,-90 -191,-88 -172,-86 -153,-84 -134,-82 -115,-80 -116,-61 -116,-42 -118,-23 -121,-4 -123,15 -126,34 -132,52 -142,69 -155,83 -168,96 -185,106 -202,114 -221,117 -240,115 -259,110 -276,103 -292,91 -305,78 -316,62 -325,45 -332,27 -336,8 -338,-11 -338,-30 -332,-12 -327,6 -321,24 -316,42 -310,60 -305,78 -281,98 -254,111 -262,103 -289,73 -317,44 -331,29 -334,15 -336,2 -314,26 -287,55 -260,84 -232,113 -230,116 -211,115 -230,95 -257,65 -285,36 -312,7 -338,-21 -338,-30 -322,-18 -307,-6 -291,6 -275,18 -260,30 -244,42 -230,28 -216,14 -201,1 -187,-13 -172,-26 -158,-40 -144,-53 -129,-67 -115,-80 -115,-70 -116,-59 -137,-82 -148,-84 -159,-85 -146,-71 -119,-42 -116,-39 -118,-20 -121,-23 -149,-52 -176,-82 -181,-87 -192,-88 -203,-89 -178,-63 -151,-34 -124,-4 -121,-1 -123,18 -126,14 -154,-15 -181,-44 -208,-73 -224,-91 -235,-91 -245,-92 -238,-84 -211,-55 -183,-25 -156,4 -129,33 -126,36 -132,51 -158,22 -186,-7 -213,-36 -240,-65 -266,-93 -285,-98 -275,-88 -286,-99 -275,-88 -270,-76 -243,-47 -215,-17 -188,12 -161,41 -139,64 -148,76 -163,60 -191,31 -218,1 -245,-28 -269,-54 -276,-39 -248,-9 -220,20 -193,49 -166,78 -158,87 -169,97 -195,68 -223,39 -250,9 -277,-20 -286,-30 -301,-24 -280,-1 -252,28 -225,57 -198,87 -181,105 -195,111 -200,105 -228,76 -255,47 -282,17 -309,-12 -320,-23 -338,-30 -343,-39 -342,-39 -343,-38 -340,-38 -344,-35 -336,-37 -344,-29 -332,-35 -338,-31 -345,-24 -329,-34 -345,-19 -337,-24 -325,-32 -345,-14 -321,-31 -336,-17 -345,-9 -326,-24 -317,-30 -344,-5 -335,-10 -312,-29 -325,-17 -344,0 -315,-24 -307,-29 -334,-4 -343,5 -324,-11 -301,-30 -314,-17 -343,9 -334,3 -304,-24 -294,-32 -324,-4 -342,14 -342,16 -314,-11 -288,-34 -282,-38 -273,-51 -263,-65 -254,-78 -268,-88 -285,-94 -302,-101 -299,-101 -301,-100 -294,-101 -298,-98 -288,-101 -295,-95 -283,-101 -292,-93 -278,-101 -281,-99 -289,-91 -273,-101 -287,-88 -280,-92 -268,-101 -284,-85 -263,-100 -279,-85 -282,-83 -269,-92 -258,-100 -280,-79 -253,-99 -268,-85 -278,-76 -258,-92 -248,-99 -277,-72 -267,-79 -243,-99 -257,-85 -276,-68 -247,-92 -238,-98 -267,-72 -275,-64 -257,-79 -233,-98 -247,-85 -275,-59 -266,-65 -237,-92 -228,-98 -256,-72 -276,-53 -246,-79 -223,-97 -236,-86 -265,-58 -278,-47 -281,-41 -255,-65 -226,-92 -219,-97 -245,-72 -274,-45 -304,-17 -333,10 -342,18 -323,3 -294,-24 -264,-52 -235,-79 -214,-96 -225,-86 -254,-58 -284,-31 -313,-4 -340,22 -332,16 -303,-11 -274,-38 -244,-65 -215,-93 -209,-96 -234,-72 -263,-45 -293,-18 -322,10 -339,26 -312,3 -283,-24 -253,-52 -224,-79 -204,-96 -214,-86 -243,-59 -273,-31 -302,-4 -331,23 -338,30 -321,16 -292,-11 -263,-38 -233,-65 -204,-93 -199,-95 -223,-72 -253,-45 -282,-18 -311,10 -337,34 -330,30 -301,3 -272,-25 -243,-52 -213,-79 -194,-95 -203,-86 -233,-59 -262,-31 -291,-4 -320,23 -336,38 -310,16 -281,-11 -252,-38 -223,-66 -189,-94 -213,-72 -242,-45 -271,-18 -300,9 -330,37 -335,42 -320,30 -290,3 -261,-25 -232,-52 -203,-79 -184,-94 -193,-86 -222,-59 -251,-32 -280,-4 -310,23 -333,45 -329,43 -300,16 -270,-11 -241,-38 -212,-66 -179,-94 -202,-73 -231,-45 -260,-18 -290,9 -319,37 -332,49 -309,30 -280,2 -250,-25 -221,-52 -192,-79 -175,-93 -182,-86 -211,-59 -240,-32 -270,-4 -299,23 -330,52 -318,43 -289,16 -260,-11 -230,-39 -201,-66 -170,-93 -191,-73 -220,-45 -250,-18 -279,9 -308,36 -328,55 -298,30 -269,2 -239,-25 -210,-52 -181,-80 -165,-92 -171,-86 -200,-59 -229,-32 -259,-5 -288,23 -317,50 -327,59 -307,43 -278,16 -249,-11 -219,-39 -190,-66 -160,-92 -180,-73 -209,-46 -239,-18 -268,9 -297,36 -325,62 -316,57 -287,29 -258,2 -229,-25 -199,-52 -170,-80 -155,-91 -160,-87 -189,-59 -219,-32 -248,-5 -277,23 -306,50 -324,66 -296,43 -267,16 -238,-12 -209,-39 -179,-66 -150,-91 -169,-73 -199,-46 -228,-18 -257,9 -286,36 -316,63 -322,69 -306,57 -276,29 -247,2 -218,-25 -189,-53 -159,-80 -145,-90 -149,-87 -179,-59 -208,-32 -237,-5 -266,22 -296,50 -319,72 -315,70 -286,43 -256,16 -227,-12 -198,-39 -169,-66 -141,-90 -159,-73 -188,-46 -217,-19 -246,9 -276,36 -305,63 -317,75 -295,56 -266,29 -236,2 -207,-25 -178,-53 -149,-80 -136,-90 -139,-87 -168,-60 -197,-32 -226,-5 -256,22 -285,50 -315,78 -304,70 -275,43 -246,15 -216,-12 -187,-39 -158,-66 -131,-89 -148,-73 -177,-46 -206,-19 -236,9 -265,36 -294,63 -313,81 -284,56 -255,29 -226,2 -196,-26 -167,-53 -138,-80 -126,-89 -157,-60 -186,-32 -215,-5 -245,22 -274,49 -303,77 -311,84 -293,70 -264,43 -235,15 -205,-12 -176,-39 -147,-67 -121,-88 -137,-73 -166,-46 -195,-19 -225,8 -254,36 -283,63 -308,86 -302,83 -273,56 -244,29 -215,2 -185,-26 -156,-53 -127,-80 -116,-88 -146,-60 -175,-33 -205,-5 -234,22 -263,49 -292,77 -306,89 -282,70 -253,42 -224,15 -195,-12 -165,-39 -136,-67 -111,-87 -126,-74 -155,-46 -185,-19 -214,8 -243,36 -272,63 -303,91 -292,83 -262,56 -233,29 -204,1 -175,-26 -145,-53 -116,-80 -108,-86 -135,-60 -165,-33 -194,-5 -223,22 -252,49 -282,76 -301,94 -272,70 -242,42 -213,15 -184,-12 -155,-40 -125,-67 -108,-81 -115,-74 -145,-46 -174,-19 -203,8 -232,35 -262,63 -291,90 -298,97 -281,83 -252,56 -222,29 -193,1 -164,-26 -135,-53 -108,-75 -125,-60 -154,-33 -183,-6 -212,22 -242,49 -271,76 -295,99 -290,97 -261,69 -232,42 -202,15 -173,-12 -144,-40 -115,-67 -108,-70 -134,-47 -163,-19 -192,8 -222,35 -251,63 -280,90 -292,101 -270,83 -241,56 -212,28 -182,1 -153,-26 -124,-53 -108,-65 -114,-60 -143,-33 -172,-6 -201,22 -231,49 -260,76 -289,103 -279,97 -250,69 -221,42 -191,15 -162,-13 -133,-40 -109,-60 -123,-47 -152,-19 -181,8 -211,35 -240,62 -269,90 -286,105 -259,83 -230,56 -201,28 -171,1 -142,-26 -113,-54 -109,-55 -132,-33 -161,-6 -191,21 -220,49 -249,76 -278,103 -283,108 -268,96 -239,69 -210,42 -181,15 -151,-13 -122,-40 -109,-50 -112,-47 -141,-20 -171,8 -200,35 -229,62 -258,90 -280,110 -276,108 -248,83 -219,55 -190,28 -161,1 -131,-26 -109,-45 -121,-33 -151,-6 -180,21 -209,49 -238,76 -268,103 -276,111 -258,96 -228,69 -199,42 -170,14 -141,-13 -111,-40 -109,-40 -131,-20 -160,8 -189,35 -218,62 -248,89 -273,113 -267,110 -238,83 -208,55 -179,28 -150,1 -121,-27 -110,-34 -112,-32 -140,-6 -169,21 -198,48 -228,76 -257,103 -269,115 -247,96 -218,69 -188,42 -159,14 -130,-13 -110,-29 -120,-20 -149,7 -178,35 -208,62 -237,89 -266,116 -256,110 -227,82 -198,55 -168,28 -139,1 -111,-24 -129,-6 -158,21 -188,48 -217,76 -246,103 -262,118 -236,96 -207,69 -177,41 -148,14 -119,-13 -111,-18 -138,7 -167,35 -197,62 -226,89 -255,116 -258,119 -245,110 -216,82 -187,55 -157,28 -128,0 -112,-12 -118,-6 -147,21 -177,48 -206,75 -235,103 -254,120 -225,96 -196,69 -167,41 -137,14 -113,-7 -127,7 -157,34 -186,62 -215,89 -244,116 -250,121 -234,109 -205,82 -176,55 -147,28 -117,0 -113,-1 -137,21 -166,48 -195,75 -224,103 -246,122 -214,96 -185,68 -156,41 -127,14 -114,4 -117,7 -146,34 -175,62 -204,89 -234,116 -241,123 -224,109 -194,82 -165,55 -136,27 -114,10 -126,21 -155,48 -184,75 -214,102 -236,123 -204,96 -174,68 -145,41 -115,15 -135,34 -164,61 -194,89 -223,116 -231,124 -213,109 -184,82 -154,55 -125,27 -115,21 -144,48 -174,75 -203,102 -226,124 -193,95 -164,68 -134,41 -117,27 -124,34 -153,61 -183,89 -212,116 -220,124 -202,109 -173,82 -143,54 -118,34 -133,48 -163,75 -192,102 -214,123 -182,95 -153,68 -123,41 -120,40 -143,61 -172,88 -201,116 -208,122 -191,109 -162,82 -133,54 -123,48 -152,75 -181,102 -200,120 -171,95 -142,68 -127,56 -132,61 -161,88 -192,117 -180,109 -151,81 -130,62 -134,68 -141,75 -170,102 -182,113 -175,109 -160,95 -137,74 -140,77 -150,86 -159,97 -160,97 -160,97 -159,97 -140,77 -142,79 -140,77" /><polyline class="right-eye" stroke="red" points="131,-10 134,-9 131,-10 148,-5 156,-3 164,-6 180,-14 193,-25 199,-41 198,-59 190,-74 178,-87 194,-79 213,-81 232,-83 250,-85 269,-87 288,-88 307,-90 325,-91 344,-92 343,-72 342,-52 338,-32 336,-13 335,7 332,27 326,46 317,64 305,80 291,94 274,104 255,109 235,111 215,109 196,102 179,94 163,81 151,66 141,48 134,30 132,10 131,-10 136,7 142,25 147,42 153,60 158,77 175,87 191,97 207,107 203,102 174,74 146,45 135,34 133,23 132,11 147,27 176,55 204,83 231,111 250,110 234,93 205,65 177,37 149,9 131,-9 131,-10 144,0 158,11 171,21 185,31 198,41 212,52 230,43 241,28 251,11 262,-6 275,-20 289,-35 303,-49 317,-63 330,-78 344,-92 344,-92 325,-91 338,-79 343,-73 342,-55 336,-60 307,-90 289,-88 307,-70 335,-42 339,-38 337,-20 334,-24 305,-52 277,-80 270,-87 252,-85 276,-62 304,-33 332,-5 336,-1 334,17 331,13 303,-15 274,-43 246,-72 234,-83 216,-81 245,-53 273,-25 301,3 331,33 326,47 300,22 271,-7 243,-35 215,-63 198,-80 188,-81 178,-87 189,-76 197,-62 214,-45 242,-17 270,12 298,40 319,61 311,73 297,58 269,30 240,2 212,-27 199,-40 193,-26 211,-8 239,20 267,48 296,77 302,83 292,93 266,67 238,38 209,10 183,-16 170,-9 180,0 208,28 236,57 265,85 281,101 266,107 263,103 235,75 207,47 178,18 157,-3 131,-10 121,-27 122,-27 121,-25 126,-25 120,-19 130,-24 119,-13 133,-22 119,-8 129,-16 137,-21 119,-3 121,-2 140,-19 130,-9 119,2 144,-18 122,5 119,7 131,-3 148,-17 141,-10 120,12 123,11 153,-17 132,4 120,16 142,-3 159,-17 152,-10 124,18 120,21 134,11 166,-19 143,4 121,26 125,25 153,-4 174,-22 163,-11 135,17 122,30 123,32 144,10 173,-18 183,-28 184,-29 194,-43 203,-57 213,-71 196,-77 179,-82 161,-86 167,-87 164,-83 173,-88 166,-81 180,-89 169,-78 186,-90 174,-79 171,-76 184,-86 191,-91 174,-73 177,-74 197,-91 185,-79 176,-70 195,-86 203,-92 179,-68 186,-73 208,-92 196,-80 181,-65 206,-87 214,-93 187,-66 183,-62 197,-73 220,-93 207,-80 185,-59 188,-59 216,-87 225,-94 198,-66 186,-55 208,-74 231,-95 217,-81 187,-51 199,-60 227,-88 237,-95 209,-67 189,-47 218,-74 242,-96 228,-81 200,-53 188,-41 210,-60 238,-89 248,-96 246,-94 219,-67 191,-39 187,-35 183,-29 201,-46 229,-75 254,-97 239,-82 211,-54 182,-25 154,3 126,31 123,34 136,24 164,-4 192,-32 220,-61 249,-89 259,-97 230,-68 202,-40 174,-11 145,17 124,38 155,10 183,-19 212,-47 240,-75 265,-98 250,-82 221,-54 193,-26 165,2 137,31 125,42 146,24 175,-5 203,-33 231,-61 259,-90 271,-98 241,-68 213,-40 184,-12 156,16 127,46 138,37 166,9 194,-19 222,-47 251,-76 276,-99 260,-83 232,-55 204,-26 176,2 147,30 128,49 157,23 185,-5 214,-34 242,-62 270,-90 282,-99 252,-69 223,-41 195,-12 167,16 139,44 130,53 148,37 177,9 205,-20 233,-48 261,-76 288,-100 271,-83 243,-55 215,-27 186,1 158,30 131,56 140,51 168,23 196,-6 224,-34 253,-62 281,-91 293,-100 291,-98 263,-70 234,-41 206,-13 178,15 149,44 133,60 159,36 187,8 216,-20 244,-48 272,-77 299,-101 282,-84 254,-56 225,-27 197,1 169,29 141,57 135,63 150,50 179,22 207,-6 235,-35 264,-63 292,-91 305,-101 302,-98 273,-70 245,-42 217,-14 188,15 160,43 136,67 142,64 170,36 198,8 226,-21 255,-49 283,-77 310,-102 293,-84 265,-56 236,-28 208,0 180,29 151,57 138,70 161,50 189,21 218,-7 246,-35 274,-63 303,-92 316,-102 312,-99 284,-71 256,-42 228,-14 199,14 171,43 143,71 140,73 152,64 181,35 209,7 237,-21 266,-50 294,-78 322,-103 304,-85 275,-57 247,-28 219,0 190,28 162,56 142,76 146,76 172,49 200,21 229,-7 257,-36 285,-64 313,-92 327,-103 323,-99 295,-71 267,-43 238,-15 210,14 182,42 153,70 145,79 163,63 191,35 220,7 248,-22 276,-50 305,-78 332,-104 314,-86 286,-57 258,-29 230,-1 201,28 173,56 147,82 154,77 183,49 211,20 239,-8 268,-36 296,-64 324,-93 338,-104 334,-100 306,-72 277,-43 249,-15 221,13 193,41 164,70 149,85 174,63 202,34 231,6 259,-22 287,-51 315,-79 343,-104 325,-86 297,-58 269,-30 240,-1 212,27 184,55 155,84 151,88 165,76 194,48 222,20 250,-8 278,-37 307,-65 335,-93 349,-105 345,-100 316,-72 288,-44 260,-16 232,13 203,41 175,69 154,90 157,89 185,62 213,34 241,5 270,-23 298,-51 326,-79 354,-105 336,-87 308,-58 279,-30 251,-2 223,27 195,55 166,83 157,93 176,76 204,48 233,19 261,-9 289,-37 317,-66 346,-94 356,-101 327,-73 299,-44 271,-16 242,12 214,40 186,69 159,95 167,90 196,61 224,33 252,5 280,-23 309,-52 337,-80 356,-96 347,-87 318,-59 290,-31 262,-2 234,26 205,54 177,83 162,98 187,75 215,47 243,19 272,-9 300,-38 328,-66 356,-91 338,-73 310,-45 281,-17 253,12 225,40 197,68 168,96 165,100 178,89 206,61 235,33 263,4 291,-24 319,-52 348,-80 355,-86 329,-59 301,-31 273,-3 244,25 216,54 188,82 168,102 198,75 226,47 254,18 282,-10 311,-38 339,-67 355,-80 349,-74 321,-46 292,-17 264,11 236,39 207,68 179,96 171,104 189,89 217,60 245,32 274,4 302,-24 330,-53 355,-75 340,-60 312,-32 283,-3 255,25 227,53 199,82 174,106 180,103 208,74 237,46 265,18 293,-11 322,-39 350,-67 355,-70 331,-46 303,-18 275,11 246,39 218,67 190,95 177,108 200,88 228,60 256,32 284,3 313,-25 341,-53 355,-64 351,-60 323,-32 294,-4 266,24 238,53 209,81 180,110 191,102 219,74 247,45 276,17 304,-11 332,-39 355,-59 342,-47 314,-18 286,10 257,38 229,67 201,95 184,112 210,88 239,59 267,31 295,3 324,-25 352,-54 354,-54 333,-33 305,-4 277,24 248,52 220,80 192,109 187,113 202,102 230,73 258,45 287,17 315,-12 343,-40 354,-48 352,-46 325,-19 296,9 268,38 240,66 211,94 191,115 221,87 249,59 278,31 306,2 334,-26 353,-42 344,-33 316,-5 288,23 259,52 231,80 203,108 194,116 212,101 241,73 269,44 297,16 326,-12 351,-35 335,-19 307,9 279,37 251,66 222,94 198,118 204,115 232,87 260,58 289,30 317,2 345,-27 350,-29 327,-5 298,23 270,51 242,79 213,108 202,119 223,100 252,72 280,44 308,16 336,-13 350,-23 346,-20 318,8 290,37 261,65 233,93 206,120 214,114 243,86 271,58 299,30 328,1 349,-18 337,-6 309,22 281,51 253,79 224,107 210,121 234,100 262,72 291,43 319,15 349,-12 329,8 300,36 272,64 244,93 215,122 225,114 254,86 282,57 310,29 338,1 349,-7 320,22 292,50 263,78 235,107 219,123 245,99 273,71 301,43 330,15 348,-1 339,7 311,36 283,64 255,92 226,121 223,123 236,113 264,85 293,57 321,28 348,4 331,21 302,50 274,78 246,106 228,124 256,99 284,71 312,42 340,14 347,10 322,35 294,63 265,92 237,120 233,124 247,113 275,84 303,56 332,28 347,15 341,21 313,49 285,77 257,106 238,124 266,98 295,70 323,42 346,21 333,35 304,63 276,91 248,119 244,124 258,112 286,84 314,56 342,27 345,28 324,48 296,77 267,105 250,123 277,98 305,70 334,41 343,34 315,62 287,91 259,119 256,122 268,112 297,83 325,55 341,42 335,48 306,76 278,105 262,121 288,97 316,69 337,50 326,62 298,90 270,118 279,111 307,83 336,55 333,60 317,76 289,104 278,115 299,97 328,67 324,74 309,90 289,110 296,103 305,96 304,96 296,103 298,101 296,103" /><polyline  stroke="white" points="-289,-84 -289,-81 -289,-84 -287,-66 -291,-50 -306,-41 -314,-42 -321,-48 -329,-62 -327,-71 -322,-77 -315,-84 -307,-84 -289,-84 -303,-75 -316,-67 -330,-58 -330,-58 -323,-71 -315,-84 -315,-48 -315,-43 -301,-43 -301,-60 -301,-84 -289,-84 -287,-72 -286,-61 -286,-61 -286,-61 -289,-84 -306,-93 -303,-93 -303,-93 -300,-93 -313,-93 -300,-93 -293,-91 -320,-91 -321,-89 -287,-87 -309,-87 -327,-87 -297,-85 -282,-83 -325,-83 -332,-83 -313,-81 -279,-79 -301,-79 -336,-79 -329,-77 -289,-77 -277,-75 -317,-75 -339,-75 -305,-73 -275,-71 -293,-71 -333,-71 -340,-71 -321,-69 -281,-69 -274,-67 -309,-67 -341,-67 -337,-65 -297,-65 -273,-63 -285,-63 -325,-63 -342,-63 -313,-61 -273,-59 -301,-59 -342,-59 -329,-57 -289,-57 -275,-55 -317,-55 -341,-55 -305,-53 -276,-51 -293,-51 -333,-51 -340,-51 -321,-49 -281,-49 -278,-47 -309,-47 -338,-47 -297,-45 -281,-43 -285,-43 -325,-43 -335,-43 -313,-41 -285,-39 -301,-39 -331,-39 -290,-35 -317,-35 -325,-35 -320,-33 -305,-33 -294,-33 -304,-31 -305,-31 -304,-31 -305,-31 -304,-31" /><polyline  stroke="white" points="165,-74 166,-71 165,-74 172,-58 175,-50 174,-42 162,-29 145,-29 134,-41 135,-58 148,-69 165,-74 154,-65 143,-55 132,-46 132,-46 139,-57 147,-69 147,-48 147,-29 161,-29 161,-60 161,-73 165,-74 171,-60 176,-47 176,-47 176,-47 165,-74 153,-78 158,-78 158,-78 161,-78 149,-78 161,-78 168,-76 147,-76 142,-76 159,-74 175,-72 171,-72 135,-72 143,-70 179,-68 155,-68 130,-68 167,-66 182,-64 179,-64 139,-64 127,-64 151,-62 185,-60 163,-60 124,-60 135,-58 175,-58 186,-56 147,-56 123,-56 159,-54 188,-52 171,-52 131,-52 121,-52 143,-50 183,-50 188,-48 155,-48 121,-48 127,-46 167,-46 188,-44 179,-44 139,-44 121,-44 151,-42 186,-40 163,-40 122,-40 135,-38 175,-38 184,-36 147,-36 123,-36 159,-34 182,-32 171,-32 131,-32 126,-32 143,-30 179,-28 155,-28 130,-28 167,-26 175,-24 139,-24 134,-24 151,-22 168,-20 163,-20 142,-20 155,-18 157,-18 155,-18" /><polyline class="left-outline"  points="-115,-84 -114,-82 -116,-61 -118,-41 -119,-21 -121,0 -123,20 -131,42 -139,63 -153,83 -171,99 -187,107 -204,114 -229,118 -257,112 -274,103 -291,93 -304,78 -316,63 -323,43 -330,23 -334,-1 -338,-25 -335,-38 -328,-47 -334,-53 -334,-71 -328,-80 -320,-88 -311,-91 -291,-85 -281,-67 -283,-52 -297,-37 -313,-36 -328,-47 -328,-47 -333,-25 -328,-52 -331,-24 -324,-49 -329,-23 -320,-46 -326,-22 -318,-43 -322,-20 -315,-41 -317,-18 -313,-41 -313,-18 -310,-41 -309,-18 -308,-41 -304,-19 -305,-41 -300,-19 -303,-41 -295,-20 -300,-41 -291,-21 -299,-42 -287,-22 -297,-44 -284,-25 -295,-45 -280,-28 -294,-47 -276,-30 -292,-48 -273,-33 -291,-50 -270,-37 -289,-51 -268,-41 -288,-53 -266,-45 -287,-55 -265,-49 -287,-57 -265,-54 -286,-59 -264,-58 -285,-62 -264,-63 -285,-64 -264,-67 -286,-66 -264,-71 -287,-67 -265,-76 -287,-69 -267,-80 -288,-71 -269,-84 -289,-72 -270,-88 -290,-74 -273,-92 -291,-76 -276,-95 -292,-78 -280,-97 -293,-80 -285,-98 -296,-81 -290,-98 -298,-82 -294,-98 -301,-83 -299,-99 -304,-84 -303,-99 -307,-85 -308,-99 -310,-86 -312,-99 -313,-85 -317,-100 -317,-84 -321,-100 -319,-83 -326,-100 -321,-80 -331,-100 -323,-79 -335,-100 -324,-77 -340,-100 -325,-76 -346,-100 -326,-75 -351,-100 -327,-74 -356,-98 -328,-73 -358,-94 -329,-72 -359,-90 -329,-71 -359,-85 -329,-69 -359,-79 -329,-67 -358,-74 -329,-66 -358,-70 -329,-64 -357,-65 -329,-61 -357,-61 -329,-58 -356,-56 -329,-54 -356,-52 -328,-49 -355,-47 -329,-45 -355,-43 -330,-41 -354,-38 -331,-36 -354,-34 -331,-32 -353,-29 -332,-27 -353,-25 -332,-23 -353,-21 -332,-19 -352,-16 -331,-15 -352,-12 -331,-11 -351,-7 -330,-7 -351,-3 -329,-3 -350,2 -329,1 -350,6 -328,5 -349,10 -328,9 -349,15 -327,13 -348,19 -327,17 -348,24 -326,21 -347,28 -325,25 -346,32 -323,28 -344,36 -322,32 -343,41 -321,36 -341,45 -319,40 -340,49 -318,43 -338,53 -317,46 -337,57 -316,50 -335,62 -314,54 -334,66 -313,58 -332,70 -312,61 -329,73 -309,64 -327,77 -307,67 -324,81 -304,70 -322,85 -302,73 -319,88 -300,75 -317,92 -298,78 -314,96 -295,80 -311,99 -293,83 -308,102 -291,86 -304,104 -288,89 -300,107 -285,91 -297,109 -282,93 -293,112 -279,94 -289,115 -276,96 -286,117 -273,98 -282,119 -269,99 -278,121 -266,101 -273,122 -263,103 -269,124 -259,105 -265,126 -256,106 -261,127 -253,108 -257,129 -249,108 -253,130 -245,109 -249,132 -242,110 -244,133 -239,111 -240,133 -235,111 -235,133 -232,112 -231,133 -228,113 -226,133 -225,112 -222,133 -221,112 -217,132 -218,111 -213,132 -214,111 -209,132 -211,110 -204,131 -207,110 -200,130 -203,109 -196,128 -200,107 -191,127 -196,106 -187,126 -193,104 -183,124 -190,103 -179,123 -187,101 -175,121 -183,100 -171,120 -180,98 -167,117 -177,97 -163,114 -173,95 -160,112 -171,93 -156,109 -168,90 -153,106 -166,88 -149,104 -163,86 -146,101 -160,83 -143,97 -158,81 -140,94 -155,78 -138,90 -153,75 -135,87 -151,72 -132,83 -149,69 -130,79 -147,66 -127,76 -144,63 -125,72 -143,60 -122,68 -141,56 -121,64 -140,52 -119,60 -139,49 -117,56 -138,45 -115,52 -136,42 -113,48 -135,38 -112,44 -134,35 -111,39 -132,31 -110,35 -131,27 -109,31 -130,23 -108,26 -128,19 -108,22 -128,15 -107,17 -127,11 -106,13 -127,7 -105,9 -127,3 -104,4 -126,-1 -103,0 -126,-5 -103,-4 -125,-9 -102,-9 -125,-14 -101,-13 -125,-18 -101,-18 -124,-22 -101,-22 -124,-26 -100,-27 -123,-31 -100,-31 -123,-35 -100,-35 -123,-39 -100,-40 -122,-43 -99,-44 -122,-47 -99,-49 -122,-51 -99,-53 -121,-55 -99,-58 -121,-59 -98,-62 -120,-63 -99,-66 -120,-67 -101,-71 -120,-71 -103,-75 -119,-75 -106,-79 -119,-79 -109,-83 -109,-83 -118,-84 -115,-84 -118,-84 -335,-93 -336,-90 -335,-93 -336,-88 -336,-88 -336,-98 -323,-99 -303,-95 -282,-93 -262,-92 -242,-90 -221,-88 -201,-87 -180,-85 -160,-83 -140,-82 -119,-80 -99,-78 -83,-82 -65,-85 -68,-81 -69,-86 -72,-80 -73,-88 -76,-79 -78,-89 -80,-78 -82,-91 -84,-77 -86,-92 -89,-76 -91,-92 -93,-75 -95,-93 -98,-74 -100,-93 -102,-73 -104,-94 -107,-74 -108,-94 -111,-74 -112,-94 -116,-74 -117,-95 -120,-75 -121,-95 -124,-75 -125,-96 -129,-76 -129,-96 -133,-76 -134,-97 -138,-76 -138,-97 -142,-77 -143,-97 -147,-77 -147,-98 -151,-77 -151,-98 -155,-78 -156,-99 -160,-78 -160,-99 -164,-79 -165,-100 -169,-79 -169,-100 -173,-79 -173,-100 -178,-80 -178,-101 -182,-80 -182,-101 -186,-80 -187,-102 -191,-81 -191,-102 -195,-81 -196,-103 -200,-82 -200,-103 -204,-82 -204,-104 -209,-82 -209,-104 -213,-83 -213,-104 -217,-83 -218,-105 -222,-83 -222,-105 -226,-84 -227,-106 -231,-84 -231,-106 -235,-84 -235,-107 -240,-85 -240,-107 -244,-85 -244,-108 -248,-86 -249,-108 -253,-86 -253,-108 -257,-86 -258,-109 -262,-87 -262,-109 -266,-87 -266,-109 -270,-87 -271,-110 -275,-88 -275,-110 -279,-88 -280,-110 -284,-89 -284,-110 -288,-89 -288,-111 -292,-89 -293,-111 -297,-90 -297,-111 -301,-90 -302,-111 -305,-91 -306,-112 -309,-91 -311,-112 -313,-92 -315,-112 -317,-93 -320,-113 -321,-94 -324,-113 -324,-94 -329,-113 -328,-94 -333,-113 -332,-93 -338,-114 -338,-114 -336,-88 -335,-93 -337,-81 -341,-79 -347,-64 -365,-65 -382,-77 -382,-77 -399,-90 -400,-97 -397,-88 -395,-98 -393,-85 -391,-100 -389,-82 -387,-104 -385,-79 -384,-106 -381,-76 -381,-107 -376,-72 -378,-108 -371,-69 -375,-110 -366,-66 -371,-111 -362,-65 -368,-113 -357,-64 -364,-114 -353,-64 -360,-115 -349,-64 -356,-115 -345,-68 -351,-114 -342,-75 -347,-114 -339,-81 -342,-114 -336,-88 -337,-91 -336,-88" /><polyline class="right-outline"  points="125,-84 123,-82 125,-84 125,-84 108,-71 105,-66 106,-48 107,-30 108,-11 112,7 115,26 119,44 130,66 141,87 154,100 167,113 189,125 208,130 227,134 243,132 259,131 275,124 291,118 305,108 319,99 329,83 340,68 345,52 351,35 357,19 358,0 360,-20 361,-39 363,-59 365,-78 366,-98 349,-96 349,-96 344,-100 357,-100 344,-96 364,-97 343,-91 366,-93 343,-87 366,-88 343,-84 365,-84 343,-80 365,-79 342,-77 365,-75 342,-73 364,-71 342,-69 364,-66 341,-65 363,-62 341,-61 363,-57 341,-57 363,-53 341,-52 362,-48 340,-48 362,-44 340,-43 362,-40 340,-39 361,-35 339,-35 361,-31 339,-30 360,-26 339,-26 360,-22 338,-21 360,-17 338,-17 359,-13 338,-13 359,-9 337,-9 358,-4 337,-5 358,0 337,-1 358,5 336,4 357,9 335,7 357,14 334,11 356,18 333,15 355,22 332,19 354,27 331,23 352,31 330,27 351,35 329,31 350,39 328,34 348,43 327,38 347,48 326,42 345,52 325,46 344,56 324,50 342,60 322,53 341,65 320,57 339,69 318,60 337,72 316,63 334,76 314,66 332,80 312,69 329,83 311,72 327,87 309,75 324,91 306,78 322,95 303,80 319,98 301,83 316,101 298,85 312,104 295,87 308,106 293,89 305,109 290,91 301,111 287,94 298,114 284,96 294,116 281,97 290,119 277,99 286,120 274,100 282,122 270,102 278,123 267,103 273,125 264,105 269,127 260,106 265,128 257,108 261,130 253,109 257,131 250,111 252,131 246,111 248,132 243,111 243,132 239,111 239,133 236,111 235,133 233,111 230,134 229,112 226,134 225,112 221,133 222,111 217,132 218,110 213,131 215,109 208,130 211,109 204,129 208,108 200,128 204,107 195,127 201,106 191,126 197,104 187,124 194,103 183,122 191,101 179,120 188,99 175,118 185,98 171,116 182,96 167,113 179,94 164,110 176,91 161,107 174,89 158,104 171,86 154,101 168,84 151,98 166,82 148,95 163,79 145,91 161,76 142,88 159,73 139,85 156,70 137,81 154,67 135,77 152,64 133,73 150,61 131,69 149,57 129,65 147,54 127,61 146,50 125,57 145,46 123,53 144,43 121,49 142,39 119,45 141,35 118,41 140,32 117,36 138,28 116,32 137,24 116,27 136,20 115,23 135,16 114,19 134,12 113,14 134,8 112,10 133,5 111,6 133,2 111,1 132,-2 110,-3 132,-6 109,-8 131,-11 108,-12 133,-15 108,-17 134,-19 108,-21 136,-24 107,-25 137,-28 107,-30 139,-32 107,-34 137,-36 107,-39 135,-40 106,-43 133,-44 106,-48 133,-47 106,-52 133,-49 106,-57 133,-52 105,-62 134,-54 106,-66 134,-55 108,-70 134,-57 111,-73 134,-59 115,-76 136,-60 118,-79 137,-62 122,-82 138,-63 138,-63 125,-84 128,-80 146,-80 163,-80 180,-80 191,-68 196,-44 193,-34 183,-19 171,-11 148,-9 133,-15 131,-10 139,-32 133,-9 141,-31 137,-8 144,-30 141,-6 147,-29 145,-5 149,-27 150,-4 152,-26 154,-4 154,-27 158,-5 157,-27 163,-5 159,-28 167,-6 162,-28 171,-6 164,-29 175,-8 166,-29 179,-10 168,-30 183,-13 169,-32 186,-15 171,-34 189,-19 172,-35 192,-22 173,-37 194,-26 175,-38 196,-30 176,-40 198,-34 176,-42 199,-38 177,-44 200,-42 177,-46 200,-47 177,-49 199,-51 177,-51 198,-56 177,-53 197,-60 177,-55 197,-64 175,-56 196,-69 174,-58 194,-73 173,-60 191,-76 172,-61 188,-79 171,-63 185,-83 169,-65 181,-84 168,-67 176,-85 166,-69 171,-85 163,-70 166,-85 160,-70 161,-85 158,-71 157,-85 154,-72 152,-86 151,-72 148,-86 148,-71 143,-86 145,-70 139,-86 143,-68 134,-86 141,-66 130,-85 140,-64 125,-84 127,-82 125,-84 343,-94 344,-97 343,-94 344,-99 324,-99 304,-95 283,-93 263,-92 242,-90 222,-88 202,-87 181,-85 161,-83 141,-81 120,-80 100,-78 84,-82 84,-82 67,-82 68,-85 71,-81 72,-87 75,-80 77,-89 79,-79 81,-90 83,-78 85,-91 88,-76 90,-92 92,-75 94,-92 97,-74 98,-93 101,-73 103,-93 106,-74 107,-94 110,-74 111,-94 115,-74 116,-95 119,-75 120,-95 123,-75 124,-95 128,-75 128,-96 132,-76 133,-96 137,-76 137,-97 141,-77 141,-97 146,-77 146,-98 150,-77 150,-98 154,-78 155,-99 159,-78 159,-99 163,-78 164,-99 168,-79 168,-100 172,-79 172,-100 177,-79 177,-101 181,-80 181,-101 185,-80 186,-102 190,-81 190,-102 194,-81 194,-102 199,-81 199,-103 203,-82 203,-103 208,-82 208,-104 212,-82 212,-104 216,-83 217,-105 221,-83 221,-105 225,-84 225,-106 230,-84 230,-106 234,-84 234,-106 238,-85 239,-107 243,-85 243,-107 247,-85 248,-108 252,-86 252,-108 256,-86 256,-109 260,-86 261,-109 265,-87 265,-109 269,-87 270,-110 274,-88 274,-110 278,-88 279,-110 283,-88 283,-110 287,-89 287,-111 291,-89 292,-111 296,-89 296,-111 300,-90 301,-111 305,-90 305,-112 309,-91 309,-112 313,-92 314,-112 317,-93 318,-112 321,-93 323,-113 325,-94 327,-113 329,-94 332,-113 333,-94 336,-113 336,-94 341,-114 340,-94 341,-99 344,-99 351,-89 360,-68 370,-71 384,-83 399,-95 399,-99 400,-91 397,-99 396,-88 393,-100 392,-84 389,-103 388,-81 386,-105 383,-78 384,-106 378,-74 381,-107 374,-70 378,-109 369,-66 374,-110 364,-64 371,-112 359,-63 367,-113 356,-70 363,-114 353,-76 359,-115 350,-83 354,-115 347,-89 350,-114 343,-93 345,-114 345,-114 340,-94 341,-97 340,-94" /><polyline   points="115,-126 118,-126 115,-126 132,-128 150,-130 167,-132 184,-134 167,-132 184,-134 167,-132 150,-130 167,-132 150,-130 132,-128 150,-130 132,-128 115,-126 132,-128 115,-126 118,-126 115,-126" /><polyline   points="-111,-126 -114,-126 -111,-126 -128,-128 -144,-130 -161,-132 -178,-134 -161,-132 -178,-134 -161,-132 -144,-130 -161,-132 -144,-130 -128,-128 -144,-130 -128,-128 -111,-126 -128,-128 -111,-126 -114,-126 -111,-126" /></svg>