<svg viewBox="-425 -150 850 300" fill="none" stroke="black" stroke-width="4"><polyline class="left-eye" stroke="red" points="-282,-85 -279,-85 -282,-85 -262,-85 -243,-84 -223,-84 -204,-84 -184,-84 -165,-83 -145,-83 -126,-83 -124,-64 -124,-44 -126,-25 -128,-6 -133,13 -137,32 -143,50 -153,68 -164,83 -180,95 -196,105 -215,111 -234,113 -253,111 -272,106 -289,98 -304,85 -316,70 -326,53 -334,36 -338,17 -340,-3 -342,-22 -325,-14 -306,-9 -291,-19 -278,-33 -273,-50 -275,-69 -283,-86 -282,-85 -273,-69 -265,-53 -256,-38 -247,-22 -239,-6 -230,10 -221,26 -236,34 -251,42 -265,52 -277,65 -288,77 -300,90 -300,90 -309,73 -319,57 -328,40 -337,24 -315,46 -287,74 -259,102 -250,111 -235,112 -220,112 -224,108 -253,80 -281,51 -309,23 -338,-5 -340,-8 -342,-22 -314,-11 -303,0 -275,28 -247,57 -218,85 -198,106 -189,100 -180,95 -184,90 -212,62 -241,34 -269,5 -292,-18 -285,-25 -278,-33 -263,-18 -235,11 -206,39 -178,67 -163,82 -157,74 -151,65 -172,44 -200,16 -229,-12 -257,-41 -273,-57 -275,-72 -283,-86 -282,-85 -266,-79 -249,-74 -233,-68 -216,-62 -200,-57 -183,-51 -167,-46 -153,-58 -140,-71 -126,-83 -125,-67 -123,-51 -142,-70 -155,-83 -170,-84 -185,-84 -177,-76 -148,-47 -126,-25 -128,-12 -130,0 -154,-25 -183,-53 -211,-81 -214,-84 -229,-84 -243,-85 -217,-58 -189,-30 -160,-2 -135,24 -138,35 -141,46 -166,21 -195,-7 -223,-35 -251,-63 -272,-85 -282,-85 -302,-95 -299,-95 -302,-92 -293,-95 -299,-89 -286,-95 -296,-85 -280,-95 -293,-82 -286,-86 -274,-95 -290,-79 -268,-95 -284,-79 -288,-74 -274,-85 -262,-95 -264,-92 -286,-70 -282,-71 -255,-95 -272,-78 -284,-65 -262,-85 -249,-94 -252,-92 -280,-63 -283,-60 -270,-70 -243,-94 -260,-77 -283,-55 -278,-56 -250,-84 -237,-94 -240,-91 -268,-63 -283,-48 -258,-70 -230,-94 -248,-77 -276,-48 -286,-38 -291,-31 -302,-21 -313,-11 -325,0 -336,-11 -346,-25 -355,-39 -351,-37 -354,-33 -346,-35 -353,-28 -342,-33 -353,-22 -342,-30 -338,-31 -352,-17 -334,-28 -340,-22 -351,-11 -331,-25 -350,-6 -339,-14 -327,-23 -329,-21 -350,0 -347,0 -322,-22 -337,-7 -349,5 -327,-14 -316,-21 -345,8 -348,11 -335,1 -310,-21 -325,-6 -348,17 -343,15 -315,-13 -301,-23 -305,-20 -333,8 -347,22 -347,25 -323,1 -295,-27 -266,-55 -238,-84 -227,-94 -228,-90 -256,-62 -285,-34 -313,-6 -341,23 -346,31 -331,16 -303,-13 -274,-41 -246,-69 -221,-94 -236,-76 -264,-48 -293,-19 -321,9 -345,36 -339,30 -311,2 -283,-26 -254,-55 -226,-83 -215,-94 -216,-90 -244,-62 -273,-33 -301,-5 -329,23 -343,40 -319,16 -291,-12 -263,-40 -234,-68 -209,-94 -224,-75 -252,-47 -281,-19 -309,9 -337,38 -341,45 -327,31 -299,3 -271,-26 -242,-54 -214,-82 -202,-94 -204,-89 -232,-61 -261,-33 -289,-4 -317,24 -339,49 -335,45 -307,17 -279,-11 -251,-40 -222,-68 -196,-94 -212,-75 -241,-46 -269,-18 -297,10 -325,38 -337,53 -315,31 -287,3 -259,-25 -230,-53 -202,-82 -190,-94 -192,-89 -220,-60 -249,-32 -277,-4 -305,25 -334,53 -335,57 -323,46 -295,18 -267,-11 -239,-39 -210,-67 -184,-94 -200,-74 -229,-46 -257,-18 -285,11 -313,39 -333,61 -303,32 -275,4 -247,-24 -219,-53 -190,-81 -178,-94 -180,-88 -208,-60 -237,-31 -265,-3 -293,25 -322,53 -330,65 -312,47 -283,18 -255,-10 -227,-38 -198,-67 -171,-94 -188,-74 -217,-45 -245,-17 -273,11 -301,40 -328,69 -320,61 -291,33 -263,4 -235,-24 -207,-52 -178,-80 -165,-94 -168,-87 -197,-59 -225,-31 -253,-2 -281,26 -310,54 -326,73 -300,47 -271,19 -243,-9 -215,-38 -186,-66 -159,-93 -176,-73 -205,-45 -233,-16 -261,12 -290,40 -318,69 -323,77 -308,62 -279,33 -251,5 -223,-23 -195,-52 -166,-80 -153,-93 -156,-87 -185,-58 -213,-30 -241,-2 -269,26 -298,55 -321,81 -316,76 -288,48 -259,20 -231,-9 -203,-37 -175,-65 -147,-93 -164,-72 -193,-44 -221,-16 -249,13 -278,41 -306,69 -318,84 -296,62 -268,34 -239,6 -211,-23 -183,-51 -154,-79 -140,-93 -144,-86 -173,-58 -201,-30 -229,-1 -257,27 -286,55 -314,84 -315,88 -304,77 -276,48 -247,20 -219,-8 -191,-36 -163,-65 -134,-93 -153,-72 -181,-43 -209,-15 -237,13 -266,42 -294,70 -312,91 -284,63 -256,35 -227,6 -199,-22 -171,-50 -142,-79 -128,-93 -132,-85 -161,-57 -189,-29 -217,-1 -246,28 -274,56 -302,84 -309,94 -292,77 -264,49 -235,21 -207,-8 -179,-36 -151,-64 -122,-93 -141,-71 -169,-43 -197,-14 -225,14 -254,42 -282,70 -306,98 -300,92 -272,64 -244,35 -215,7 -187,-21 -159,-50 -131,-78 -115,-93 -116,-92 -114,-93 -116,-92 -116,-90 -120,-85 -149,-57 -177,-28 -205,0 -234,28 -262,57 -290,85 -304,99 -280,78 -252,50 -224,21 -195,-7 -167,-35 -139,-63 -115,-84 -129,-70 -157,-42 -185,-14 -213,14 -242,43 -270,71 -298,99 -301,102 -288,92 -260,64 -232,36 -203,8 -175,-21 -147,-49 -119,-77 -115,-78 -137,-56 -165,-28 -193,1 -222,29 -250,57 -278,86 -297,104 -268,79 -240,50 -212,22 -183,-6 -155,-35 -127,-63 -114,-72 -117,-70 -145,-41 -173,-13 -202,15 -230,43 -258,72 -286,100 -294,107 -276,93 -248,65 -220,36 -191,8 -163,-20 -135,-48 -114,-66 -125,-55 -153,-27 -181,1 -210,30 -238,58 -266,86 -290,110 -285,108 -256,79 -228,51 -200,23 -171,-6 -143,-34 -113,-60 -133,-41 -161,-13 -190,16 -218,44 -246,72 -274,101 -286,112 -264,94 -236,65 -208,37 -180,9 -151,-19 -123,-48 -113,-54 -141,-26 -169,2 -198,30 -226,58 -254,87 -281,114 -273,108 -244,80 -216,52 -188,23 -159,-5 -131,-33 -113,-48 -121,-40 -149,-12 -178,16 -206,45 -234,73 -263,101 -277,115 -252,94 -224,66 -196,38 -168,9 -139,-19 -114,-41 -129,-26 -158,3 -186,31 -214,59 -242,87 -272,117 -261,109 -232,80 -204,52 -176,24 -147,-4 -119,-33 -114,-35 -137,-11 -166,17 -194,45 -222,74 -251,102 -267,118 -241,95 -212,67 -184,38 -156,10 -127,-18 -115,-28 -117,-25 -146,3 -174,31 -202,60 -230,88 -259,116 -262,119 -249,109 -220,81 -192,53 -164,25 -136,-4 -116,-20 -125,-11 -154,18 -182,46 -210,74 -239,102 -256,120 -229,96 -200,67 -172,39 -144,11 -117,-13 -134,4 -162,32 -190,60 -219,89 -247,117 -251,121 -237,110 -208,82 -180,53 -152,25 -124,-3 -118,-6 -142,18 -170,47 -198,75 -227,103 -246,122 -217,96 -188,68 -160,40 -132,11 -119,2 -122,4 -150,33 -178,61 -207,89 -235,118 -240,123 -225,111 -197,82 -168,54 -140,26 -121,10 -130,19 -158,47 -186,75 -215,104 -234,123 -205,97 -176,69 -148,40 -122,18 -138,33 -166,62 -195,90 -223,118 -228,123 -213,111 -185,83 -156,55 -128,26 -124,26 -146,48 -175,76 -203,104 -221,123 -193,97 -164,69 -136,41 -127,35 -154,62 -183,91 -211,119 -214,122 -201,112 -173,84 -144,55 -130,44 -134,48 -163,77 -191,105 -205,119 -201,118 -181,98 -153,70 -131,49 -134,55 -142,63 -171,91 -196,116 -189,113 -161,84 -137,61 -140,67 -151,77 -179,106 -183,110 -173,103 -169,99 -144,74 -150,82 -157,90 -155,88 -157,90" /><polyline class="right-eye" stroke="red" points="131,-12 129,-14 131,-12 122,-19 140,-13 160,-13 178,-20 192,-32 197,-40 196,-50 193,-70 187,-88 194,-84 203,-84 222,-84 240,-84 258,-84 277,-84 295,-84 313,-84 332,-84 350,-84 348,-64 347,-44 345,-24 343,-5 340,15 335,34 327,52 318,70 305,85 290,98 272,106 253,110 233,112 213,111 194,104 177,94 163,81 152,64 143,46 137,27 133,8 131,-12 137,6 143,24 148,42 154,60 160,78 169,87 172,90 169,87 160,78 152,60 144,43 137,25 147,36 176,64 204,93 223,111 237,111 251,110 238,98 210,69 182,41 153,13 131,-9 131,-12 122,-19 131,-12 148,-7 165,-2 182,4 199,9 216,14 233,19 251,25 263,11 275,-3 288,-16 300,-30 313,-43 325,-57 338,-70 350,-84 349,-70 348,-57 321,-84 306,-84 291,-84 316,-59 346,-30 344,-16 343,-3 338,-8 310,-36 282,-64 262,-84 247,-84 233,-84 247,-70 275,-41 304,-13 332,15 338,22 335,33 331,44 326,38 298,10 269,-18 241,-46 213,-75 203,-84 190,-84 187,-88 188,-86 195,-63 206,-52 235,-23 263,5 291,33 322,64 315,72 309,81 285,56 257,28 229,0 200,-28 194,-34 186,-28 179,-21 194,-5 222,23 251,51 279,80 295,95 285,100 275,105 273,103 245,74 216,46 188,18 160,-10 157,-13 141,-13 126,-17 131,-12 117,-31 117,-35 119,-34 117,-32 122,-32 118,-27 126,-29 120,-23 130,-27 120,-17 134,-25 121,-11 132,-19 139,-23 122,-6 144,-22 134,-12 122,0 144,-18 150,-21 126,3 123,6 136,-4 157,-22 146,-11 124,11 128,10 156,-18 161,-23 167,-25 138,4 124,17 125,20 148,-3 172,-28 179,-33 190,-45 201,-57 212,-69 199,-79 185,-87 170,-95 169,-94 175,-94 172,-91 182,-94 175,-87 188,-94 178,-84 194,-94 179,-79 187,-83 200,-94 197,-90 181,-75 207,-94 188,-76 183,-70 199,-83 213,-94 209,-90 184,-65 190,-68 219,-94 200,-75 185,-60 211,-82 226,-94 221,-89 192,-61 186,-54 202,-68 232,-94 212,-74 186,-48 194,-53 222,-81 238,-94 233,-88 204,-60 185,-41 173,-28 161,-16 149,-3 137,10 125,22 129,18 158,-10 186,-39 214,-67 245,-94 224,-74 196,-45 168,-17 140,11 126,25 150,4 178,-24 206,-52 234,-81 251,-94 244,-88 216,-59 188,-31 160,-3 131,26 127,29 141,19 170,-10 198,-38 226,-66 257,-94 236,-73 208,-45 180,-17 151,12 129,34 133,33 162,5 190,-23 218,-52 246,-80 263,-94 256,-87 228,-59 200,-30 172,-2 143,26 130,39 153,19 182,-9 210,-37 238,-66 270,-94 248,-72 220,-44 192,-16 163,12 135,41 132,44 145,34 173,5 202,-23 230,-51 258,-79 276,-94 268,-86 240,-58 212,-30 184,-1 155,27 134,49 137,48 165,20 194,-8 222,-37 250,-65 282,-94 260,-72 232,-44 204,-15 175,13 147,41 135,53 157,34 185,6 214,-22 242,-50 270,-79 289,-94 280,-86 252,-57 224,-29 196,-1 167,27 137,57 149,49 177,21 206,-8 234,-36 262,-64 295,-94 272,-71 244,-43 216,-15 187,14 159,42 139,62 169,35 197,7 226,-22 254,-50 282,-78 301,-94 292,-85 264,-57 236,-28 207,0 179,28 151,56 141,66 161,50 189,21 218,-7 246,-35 274,-64 308,-94 284,-71 256,-42 228,-14 199,14 171,43 143,70 153,64 181,36 209,7 238,-21 266,-49 294,-77 314,-94 304,-84 276,-56 248,-28 219,0 191,29 163,57 146,74 173,50 201,22 229,-6 258,-35 286,-63 314,-91 320,-94 296,-70 268,-42 240,-13 211,15 183,43 155,72 148,78 165,65 193,36 221,8 250,-20 278,-49 306,-77 327,-94 316,-84 288,-55 260,-27 231,1 203,29 175,58 151,82 157,79 185,51 213,23 241,-6 270,-34 298,-62 326,-91 333,-94 308,-69 280,-41 251,-13 223,16 195,44 167,72 154,85 177,65 205,37 233,9 262,-20 290,-48 318,-76 339,-94 328,-83 300,-55 272,-27 243,2 215,30 187,58 157,88 169,80 197,51 225,23 253,-5 282,-33 310,-62 338,-90 345,-94 320,-69 292,-40 263,-12 235,16 207,45 179,73 160,92 189,66 217,38 245,9 274,-19 302,-47 330,-76 352,-94 340,-82 312,-54 284,-26 255,2 227,31 199,59 170,87 163,95 180,80 209,52 237,24 265,-4 294,-33 322,-61 350,-89 358,-94 332,-68 304,-40 275,-11 247,17 219,45 191,73 166,98 172,95 201,67 229,38 257,10 285,-18 314,-47 342,-75 361,-91 352,-82 324,-54 296,-25 267,3 239,31 211,60 182,88 170,101 192,81 221,53 249,24 277,-4 306,-32 334,-60 360,-84 344,-67 316,-39 287,-11 259,18 231,46 203,74 173,103 184,95 213,67 241,39 269,11 297,-18 326,-46 354,-74 360,-77 336,-53 307,-25 279,4 251,32 223,60 194,89 177,106 204,82 233,53 261,25 289,-3 318,-31 346,-60 359,-70 356,-67 328,-38 299,-10 271,18 243,46 214,75 186,103 180,109 196,96 225,68 253,40 281,11 309,-17 338,-45 359,-64 348,-52 319,-24 291,4 263,33 235,61 206,89 185,111 216,82 245,54 273,26 301,-3 330,-31 359,-57 340,-38 311,-9 283,19 255,47 226,75 198,104 189,113 208,97 236,68 265,40 293,12 321,-16 350,-45 358,-50 331,-23 303,5 275,33 247,62 218,90 193,115 200,111 228,83 257,55 285,26 313,-2 341,-30 358,-43 352,-37 323,-9 295,19 267,48 238,76 210,104 197,117 220,97 248,69 277,41 305,13 333,-16 357,-36 343,-23 315,6 287,34 259,62 230,90 202,118 212,112 240,84 269,55 297,27 325,-1 353,-30 356,-29 335,-8 307,20 279,48 250,77 222,105 207,120 232,98 260,70 289,41 317,13 345,-15 355,-22 327,6 299,35 270,63 242,91 212,121 224,113 252,84 281,56 309,28 337,-1 355,-15 347,-8 319,21 291,49 262,77 234,106 218,121 244,99 272,70 301,42 329,14 354,-8 339,7 311,35 282,63 254,92 224,122 236,113 264,85 292,57 321,28 349,0 353,-1 331,21 303,50 274,78 246,106 230,122 256,99 284,71 313,43 341,14 352,7 323,36 294,64 266,92 237,122 248,114 276,86 304,57 333,29 351,14 343,22 315,50 286,79 258,107 244,121 268,100 296,72 325,43 349,22 335,36 306,65 278,93 251,120 260,114 288,86 316,58 345,30 346,31 326,51 298,79 270,108 258,120 280,101 308,72 337,44 344,40 318,65 290,94 265,119 272,115 300,87 328,59 342,45 340,50 310,80 282,108 273,117 292,101 320,73 338,55 335,62 330,66 302,94 282,114 288,112 312,87 330,69 324,78 322,81 294,108 310,96 311,95 310,95 310,96" /><polyline  stroke="white" points="-304,-85 -303,-82 -304,-85 -296,-67 -293,-58 -295,-48 -307,-34 -317,-32 -326,-34 -340,-48 -338,-67 -323,-79 -304,-85 -317,-74 -329,-62 -342,-51 -342,-51 -338,-67 -325,-78 -325,-52 -325,-34 -309,-33 -309,-64 -309,-84 -304,-85 -298,-69 -292,-54 -292,-54 -292,-54 -304,-85 -320,-88 -312,-88 -312,-88 -309,-88 -322,-88 -330,-86 -298,-84 -325,-84 -333,-84 -313,-82 -293,-80 -301,-80 -339,-80 -329,-78 -289,-76 -317,-76 -344,-76 -305,-74 -286,-72 -293,-72 -333,-72 -347,-72 -321,-70 -284,-68 -309,-68 -350,-68 -337,-66 -297,-66 -282,-64 -285,-64 -325,-64 -351,-64 -313,-62 -281,-60 -301,-60 -341,-60 -352,-60 -329,-58 -289,-58 -280,-56 -317,-56 -353,-56 -345,-54 -305,-54 -280,-52 -293,-52 -333,-52 -353,-52 -321,-50 -281,-48 -309,-48 -349,-48 -352,-48 -337,-46 -297,-46 -283,-44 -325,-44 -352,-44 -313,-42 -285,-40 -301,-40 -341,-40 -349,-40 -329,-38 -287,-36 -317,-36 -346,-36 -305,-34 -291,-32 -333,-32 -342,-32 -321,-30 -295,-28 -309,-28 -337,-28 -302,-24 -325,-24 -329,-24 -317,-22 -314,-22 -313,-22 -317,-22" /><polyline  stroke="white" points="161,-83 163,-81 161,-83 172,-69 179,-53 171,-37 155,-30 146,-30 139,-35 127,-49 131,-66 144,-78 161,-83 150,-72 138,-60 127,-49 127,-49 134,-62 140,-75 140,-52 140,-34 153,-30 153,-64 153,-81 161,-83 170,-68 179,-53 172,-43 166,-34 166,-77 161,-83 152,-88 158,-88 158,-88 161,-88 148,-88 161,-88 168,-86 140,-86 155,-84 175,-82 167,-82 133,-82 139,-80 180,-78 151,-78 128,-78 163,-76 183,-74 175,-74 135,-74 124,-74 147,-72 186,-70 159,-70 121,-70 131,-68 171,-68 188,-66 183,-66 143,-66 119,-66 155,-64 190,-62 167,-62 127,-62 118,-62 139,-60 179,-60 191,-58 151,-58 116,-58 123,-56 163,-56 191,-54 175,-54 135,-54 116,-54 147,-52 187,-52 191,-50 159,-50 119,-50 116,-50 131,-48 171,-48 189,-46 183,-46 143,-46 117,-46 155,-44 187,-42 167,-42 127,-42 118,-42 139,-40 179,-40 185,-38 151,-38 121,-38 163,-36 184,-34 175,-34 135,-34 123,-34 147,-32 180,-30 159,-30 127,-30 171,-28 175,-26 143,-26 133,-26 155,-24 168,-22 165,-22 141,-22 156,-20 157,-20 159,-20 154,-20 156,-20 154,-20 156,-20" /><polyline class="left-outline"  points="-319,-92 -319,-90 -319,-92 -319,-95 -319,-90 -294,-89 -284,-82 -276,-64 -278,-42 -286,-29 -304,-17 -325,-17 -347,-22 -343,7 -337,28 -331,48 -319,68 -306,87 -291,97 -275,107 -259,111 -243,115 -227,114 -210,113 -196,107 -181,101 -169,89 -156,77 -146,58 -136,39 -132,20 -127,1 -123,-18 -122,-37 -120,-55 -119,-74 -118,-92 -123,-92 -104,-89 -123,-90 -103,-85 -123,-88 -103,-80 -123,-84 -103,-77 -124,-79 -104,-73 -124,-75 -104,-69 -124,-70 -104,-65 -125,-66 -104,-61 -125,-62 -104,-57 -125,-57 -104,-53 -126,-53 -105,-49 -126,-48 -105,-45 -126,-44 -105,-40 -127,-40 -105,-36 -127,-36 -105,-32 -127,-31 -105,-27 -127,-27 -106,-23 -128,-23 -106,-18 -128,-19 -106,-14 -129,-15 -108,-9 -130,-11 -109,-5 -131,-7 -110,-1 -132,-3 -111,4 -133,1 -112,8 -134,5 -113,12 -134,10 -114,17 -135,14 -115,21 -136,18 -116,25 -137,22 -117,30 -138,26 -118,34 -139,30 -119,38 -140,34 -120,43 -141,37 -121,47 -143,41 -122,51 -144,45 -124,55 -146,48 -126,59 -148,51 -128,63 -150,55 -130,67 -151,58 -132,71 -153,61 -135,75 -155,64 -137,79 -157,68 -139,82 -158,71 -141,86 -160,74 -144,90 -163,77 -147,93 -166,79 -150,96 -168,82 -153,99 -171,84 -157,103 -173,86 -160,106 -176,89 -163,108 -178,91 -167,110 -181,94 -171,113 -184,96 -175,115 -188,98 -179,117 -191,99 -183,119 -194,101 -187,121 -197,102 -191,123 -201,104 -195,126 -204,105 -199,127 -207,106 -203,128 -211,108 -207,129 -214,108 -212,130 -218,109 -216,131 -221,109 -220,132 -225,109 -225,133 -228,109 -229,133 -232,109 -234,132 -235,110 -238,132 -239,110 -243,132 -243,110 -247,131 -247,109 -251,131 -250,108 -256,131 -254,107 -260,130 -257,107 -265,129 -261,106 -269,128 -264,105 -273,126 -268,104 -277,125 -271,103 -281,123 -275,102 -286,122 -278,100 -290,120 -281,98 -293,118 -284,96 -297,115 -287,94 -301,113 -289,93 -305,110 -292,91 -308,108 -295,89 -312,105 -298,87 -315,102 -301,85 -318,99 -304,82 -321,95 -306,79 -323,92 -308,76 -326,88 -310,73 -329,85 -312,70 -332,81 -314,67 -335,78 -316,64 -337,74 -318,60 -340,70 -320,57 -341,66 -322,54 -343,62 -324,50 -345,58 -326,47 -347,54 -328,44 -349,50 -329,40 -350,46 -330,36 -352,42 -331,32 -354,38 -332,29 -355,34 -333,25 -356,29 -334,21 -357,25 -335,17 -357,20 -336,13 -358,16 -338,9 -359,12 -339,5 -360,7 -339,1 -361,3 -340,-2 -361,-1 -341,-6 -362,-6 -341,-9 -363,-10 -342,-11 -364,-15 -342,-14 -365,-20 -342,-15 -366,-25 -342,-16 -366,-30 -342,-17 -364,-34 -342,-18 -359,-36 -339,-17 -355,-37 -336,-16 -350,-38 -335,-15 -346,-40 -334,-15 -342,-41 -333,-15 -337,-42 -332,-14 -333,-41 -331,-14 -329,-37 -330,-14 -325,-35 -326,-12 -322,-34 -322,-12 -319,-34 -317,-12 -316,-33 -313,-12 -314,-34 -308,-12 -311,-34 -304,-12 -309,-35 -300,-14 -307,-36 -296,-17 -305,-37 -292,-19 -303,-38 -288,-21 -302,-40 -285,-24 -301,-41 -281,-27 -299,-43 -279,-31 -297,-45 -277,-34 -296,-46 -274,-38 -295,-48 -273,-42 -295,-50 -273,-47 -295,-53 -272,-51 -294,-55 -272,-56 -294,-57 -272,-60 -294,-59 -272,-65 -294,-61 -273,-69 -295,-63 -275,-73 -296,-65 -277,-77 -297,-67 -279,-81 -298,-68 -281,-86 -299,-70 -284,-89 -301,-72 -287,-92 -302,-74 -291,-94 -304,-75 -296,-94 -306,-76 -301,-94 -308,-77 -305,-94 -311,-78 -310,-94 -314,-79 -314,-95 -317,-80 -319,-95 -319,-90 -341,-89 -363,-89 -362,-71 -362,-53 -361,-35 -361,-35 -335,-43 -366,-34 -335,-44 -366,-38 -337,-46 -366,-43 -338,-48 -366,-47 -338,-50 -366,-52 -338,-53 -366,-56 -338,-55 -366,-60 -338,-57 -366,-65 -338,-59 -366,-69 -338,-61 -366,-74 -338,-63 -366,-79 -338,-65 -366,-83 -337,-66 -366,-89 -337,-68 -364,-92 -336,-69 -357,-92 -334,-70 -352,-93 -333,-71 -346,-93 -332,-72 -341,-94 -330,-74 -337,-94 -328,-75 -332,-94 -326,-77 -327,-94 -323,-79 -323,-95 -320,-79 -320,-79 -319,-95 -319,-92 -319,-95 -315,-84 -315,-84 -316,-89 -297,-89 -278,-89 -258,-89 -239,-89 -220,-89 -201,-89 -182,-89 -163,-89 -144,-89 -142,-109 -144,-114 -149,-116 -154,-113 -172,-116 -172,-116 -175,-114 -176,-119 -174,-113 -172,-120 -172,-112 -167,-119 -168,-110 -163,-118 -165,-108 -159,-117 -162,-106 -154,-117 -161,-106 -149,-116 -161,-106 -161,-101 -182,-104 -204,-108 -225,-111 -225,-116 -231,-117 -235,-115 -256,-119 -250,-121 -250,-114 -245,-120 -247,-111 -240,-119 -244,-108 -236,-118 -243,-107 -231,-117 -243,-107 -243,-102 -258,-103 -274,-103 -291,-108 -307,-112 -307,-117 -312,-119 -317,-116 -339,-122 -342,-120 -343,-125 -341,-119 -339,-126 -340,-118 -335,-125 -338,-116 -330,-124 -335,-112 -326,-123 -331,-109 -322,-121 -329,-107 -317,-120 -329,-106 -312,-119 -328,-106 -328,-106 -307,-117 -328,-106 -347,-106 -366,-107 -388,-113 -410,-118 -420,-118 -412,-119 -418,-114 -410,-118 -416,-110 -408,-118 -413,-105 -404,-117 -410,-102 -400,-116 -406,-100 -396,-115 -403,-97 -392,-114 -399,-94 -388,-113 -395,-91 -385,-112 -392,-89 -381,-111 -388,-87 -378,-110 -384,-85 -374,-109 -379,-84 -371,-108 -375,-82 -368,-107 -371,-81 -364,-107 -367,-79 -361,-107 -362,-78 -357,-107 -358,-79 -354,-107 -353,-79 -350,-106 -349,-80 -347,-106 -344,-81 -344,-106 -340,-81 -341,-106 -336,-82 -337,-106 -331,-82 -333,-106 -327,-83 -329,-106 -323,-84 -324,-108 -319,-84 -320,-105 -307,-112 -291,-108 -274,-103 -258,-103 -243,-102 -225,-111 -204,-108 -182,-104 -161,-101 -144,-109 -126,-106 -108,-102 -90,-98 -82,-90 -81,-93 -83,-87 -83,-95 -87,-85 -86,-99 -91,-83 -90,-103 -95,-82 -94,-104 -100,-80 -99,-105 -105,-78 -103,-106 -109,-80 -107,-107 -113,-81 -111,-108 -117,-83 -116,-109 -121,-84 -120,-110 -125,-84 -125,-110 -129,-84 -129,-111 -132,-84 -133,-112 -136,-84 -138,-113 -140,-84 -142,-114 -144,-84 -147,-113 -148,-84 -151,-111 -152,-84 -155,-108 -157,-84 -160,-107 -161,-84 -164,-106 -166,-84 -169,-107 -170,-84 -173,-108 -175,-84 -176,-108 -179,-84 -180,-109 -183,-84 -184,-109 -188,-84 -188,-110 -192,-84 -192,-111 -197,-84 -197,-112 -201,-84 -201,-112 -205,-84 -206,-113 -209,-84 -210,-114 -212,-84 -214,-115 -216,-84 -219,-115 -220,-84 -223,-116 -224,-84 -228,-115 -228,-84 -232,-113 -232,-84 -236,-111 -237,-84 -241,-108 -241,-84 -245,-107 -245,-84 -250,-107 -250,-84 -254,-107 -254,-84 -257,-107 -259,-84 -261,-108 -263,-84 -265,-108 -268,-84 -269,-108 -272,-84 -273,-108 -277,-84 -277,-109 -281,-84 -281,-110 -286,-84 -285,-111 -289,-84 -289,-112 -293,-84 -294,-114 -296,-84 -298,-115 -300,-84 -303,-116 -303,-84 -307,-116 -307,-84 -312,-115 -311,-84 -316,-112 -315,-84 -320,-110 -320,-110 -319,-84 -319,-87 -319,-84" /><polyline class="right-outline"  points="150,-93 150,-91 150,-93 150,-96 150,-91 175,-89 190,-73 194,-54 188,-35 172,-20 156,-16 126,-18 130,6 135,31 142,46 150,61 158,77 171,89 184,101 200,108 215,114 233,116 251,113 268,111 282,104 297,97 315,79 325,63 334,46 339,25 344,3 349,-18 350,-38 352,-57 353,-77 356,-92 356,-92 351,-92 370,-88 350,-88 369,-84 349,-84 369,-80 348,-79 369,-76 348,-75 369,-71 348,-70 369,-67 347,-66 369,-62 347,-62 368,-58 347,-57 368,-54 346,-53 368,-49 346,-48 368,-45 346,-44 368,-40 346,-40 368,-36 345,-35 368,-32 345,-31 367,-27 345,-27 367,-23 345,-23 367,-18 344,-19 367,-14 344,-15 366,-10 343,-11 364,-5 342,-7 363,-1 341,-3 362,3 341,1 361,8 340,5 360,12 339,9 359,16 338,14 358,21 337,18 357,25 336,22 356,29 335,26 355,34 334,30 354,38 333,34 353,42 332,37 352,47 331,41 351,51 330,45 349,55 328,48 347,59 326,52 345,63 324,55 343,67 322,58 341,71 320,61 338,75 318,64 336,78 316,67 334,82 314,71 332,86 312,74 329,90 310,77 326,93 307,80 323,96 305,82 319,99 302,84 316,102 300,87 313,105 298,89 309,108 295,92 306,111 292,94 303,114 288,95 299,116 285,97 295,118 282,99 291,120 279,100 286,121 276,102 282,123 273,103 278,124 270,105 274,126 266,106 270,128 262,107 266,129 259,107 261,130 255,108 257,130 251,108 252,131 248,109 248,131 244,109 244,131 240,110 239,131 237,110 235,131 233,111 230,131 229,111 226,131 226,110 221,131 222,110 217,131 219,109 212,131 215,109 208,129 212,107 204,128 208,106 200,126 205,104 196,124 202,103 192,123 199,102 187,121 196,101 183,119 192,99 179,118 189,98 175,115 185,96 172,113 183,93 168,110 180,91 165,107 178,88 161,104 175,86 158,101 173,84 154,99 170,81 151,96 167,79 148,92 165,76 146,88 162,74 144,85 160,70 141,81 158,67 139,77 157,63 136,73 155,60 134,70 153,57 132,66 151,53 129,62 150,50 127,58 148,46 125,54 146,43 124,50 144,39 122,46 143,36 121,42 141,32 120,37 139,29 118,33 139,25 117,29 138,21 116,25 137,17 115,20 136,13 114,16 135,9 113,11 135,5 113,7 134,1 112,3 133,-2 111,-2 133,-5 110,-6 132,-8 110,-11 132,-10 109,-15 131,-11 108,-20 131,-13 107,-26 131,-15 109,-30 132,-15 113,-32 134,-15 117,-34 136,-14 122,-35 137,-14 126,-37 138,-14 130,-38 139,-14 134,-39 140,-13 139,-38 141,-13 143,-36 145,-12 148,-34 149,-11 151,-34 154,-10 154,-33 158,-11 156,-34 163,-13 159,-35 167,-14 161,-35 171,-15 163,-36 175,-17 165,-37 179,-20 166,-39 182,-23 168,-41 185,-26 169,-42 188,-29 171,-44 192,-32 172,-45 193,-36 174,-47 195,-40 174,-49 196,-45 174,-52 197,-49 175,-54 198,-53 175,-56 198,-58 175,-58 197,-62 175,-60 196,-66 175,-62 196,-71 174,-64 195,-75 173,-66 192,-79 172,-67 189,-82 170,-69 186,-86 169,-71 183,-89 168,-73 181,-93 166,-74 176,-94 164,-76 171,-94 162,-76 167,-94 160,-77 162,-95 157,-78 158,-94 154,-79 153,-95 153,-90 135,-91 110,-89 111,-70 111,-51 112,-32 112,-32 136,-40 107,-30 135,-41 107,-35 134,-43 107,-39 133,-45 107,-43 131,-48 107,-48 131,-51 107,-52 131,-54 107,-57 131,-57 107,-61 131,-59 107,-65 131,-61 107,-70 131,-63 107,-74 131,-65 107,-79 132,-67 107,-84 133,-68 107,-89 134,-69 110,-92 135,-70 115,-93 136,-71 121,-94 138,-72 126,-94 139,-74 130,-95 140,-75 135,-95 142,-77 140,-95 145,-78 144,-95 148,-79 149,-96 151,-80 151,-80 153,-95 153,-92 153,-95 320,-84 320,-84 320,-89 324,-88 328,-106 324,-109 343,-125 342,-120 341,-125 340,-118 337,-126 339,-117 333,-124 336,-114 328,-123 333,-111 324,-122 330,-108 319,-121 329,-107 315,-119 328,-106 310,-118 307,-112 291,-108 274,-103 258,-103 243,-102 243,-107 239,-110 255,-122 252,-115 247,-120 249,-112 243,-119 245,-109 238,-119 244,-108 234,-118 243,-107 228,-117 225,-111 204,-108 182,-104 161,-101 161,-106 157,-108 157,-108 176,-119 175,-114 174,-119 173,-113 170,-120 170,-111 165,-119 167,-109 161,-118 163,-107 156,-117 161,-106 152,-116 161,-106 147,-115 147,-115 161,-106 160,-101 144,-109 126,-106 108,-102 90,-98 87,-95 87,-90 83,-87 83,-95 87,-85 87,-100 91,-83 90,-103 96,-81 95,-104 101,-79 99,-105 105,-78 103,-106 109,-80 108,-107 113,-81 112,-108 118,-83 116,-109 122,-84 121,-110 126,-84 125,-111 129,-84 129,-111 133,-84 134,-112 136,-84 138,-113 140,-84 143,-114 144,-84 147,-113 149,-84 152,-110 153,-84 156,-108 157,-84 160,-106 162,-84 165,-106 166,-84 169,-107 171,-84 173,-108 175,-84 177,-108 179,-84 180,-109 184,-84 184,-110 188,-84 188,-110 193,-84 193,-111 197,-84 197,-112 202,-84 202,-112 206,-84 206,-113 209,-84 211,-114 212,-84 215,-115 216,-84 219,-115 220,-84 224,-116 224,-84 228,-115 229,-84 233,-113 233,-84 237,-110 237,-84 241,-108 242,-84 246,-107 246,-84 250,-107 250,-84 254,-107 255,-84 258,-107 259,-84 261,-108 264,-84 265,-108 268,-84 269,-108 273,-84 273,-108 277,-84 277,-109 282,-84 281,-110 286,-84 286,-111 290,-84 290,-112 293,-84 294,-114 297,-84 299,-115 300,-84 303,-116 304,-84 308,-116 308,-84 312,-115 312,-84 316,-112 316,-84 320,-105 327,-101 347,-101 367,-102 388,-108 409,-113 417,-119 414,-119 420,-118 412,-119 418,-114 410,-118 416,-110 408,-118 414,-105 404,-117 410,-103 400,-116 407,-100 396,-115 403,-97 392,-114 400,-95 389,-113 396,-92 385,-112 392,-89 382,-111 388,-87 378,-110 384,-86 375,-109 380,-84 372,-108 376,-83 368,-108 372,-81 365,-107 367,-80 361,-107 363,-78 358,-107 358,-79 354,-107 354,-79 351,-106 350,-80 348,-106 345,-81 344,-106 341,-81 341,-106 336,-82 338,-106 332,-82 334,-106 328,-83 329,-106 324,-84 325,-107 320,-84 321,-110 321,-110 316,-84 317,-87 316,-84" /><polyline   points="-196,-132 -193,-132 -196,-132 -178,-132 -159,-132 -141,-132 -123,-132 -141,-132 -123,-132 -141,-132 -159,-132 -141,-132 -159,-132 -178,-132 -159,-132 -178,-132 -196,-132 -178,-132 -196,-132 -193,-132 -196,-132" /><polyline   points="192,-132 189,-132 192,-132 174,-132 156,-132 137,-132 119,-132 137,-132 119,-132 137,-132 156,-132 137,-132 156,-132 174,-132 156,-132 174,-132 192,-132 174,-132 192,-132 189,-132 192,-132" /></svg>