<svg viewBox="-425 -150 850 300" fill="none" stroke="black" stroke-width="4"><polyline class="left-eye" stroke="red" points="-281,-84 -278,-85 -281,-84 -264,-89 -246,-90 -229,-91 -211,-92 -193,-92 -175,-92 -157,-92 -140,-90 -122,-89 -121,-69 -119,-49 -121,-30 -123,-10 -127,10 -131,29 -136,48 -145,66 -156,82 -171,96 -188,106 -206,114 -226,117 -245,115 -265,111 -283,104 -298,91 -311,76 -321,59 -330,41 -334,22 -336,2 -338,-18 -320,-10 -302,-5 -286,-16 -273,-30 -269,-48 -271,-68 -281,-84 -267,-71 -252,-57 -238,-44 -224,-31 -210,-17 -206,-8 -206,1 -212,20 -224,34 -243,41 -261,47 -273,62 -285,78 -296,94 -279,101 -262,108 -245,115 -248,113 -277,85 -306,58 -332,34 -334,19 -336,4 -331,8 -302,36 -272,63 -243,90 -215,116 -205,113 -194,110 -209,95 -239,68 -268,41 -297,13 -324,-11 -308,-7 -300,-5 -294,-10 -263,18 -234,45 -205,73 -176,99 -161,87 -171,78 -200,50 -230,23 -259,-4 -279,-23 -270,-41 -254,-27 -225,1 -196,28 -167,55 -149,72 -144,63 -139,54 -162,33 -191,6 -221,-22 -250,-49 -272,-69 -281,-84 -261,-85 -241,-85 -221,-86 -201,-86 -182,-87 -162,-88 -142,-88 -122,-89 -121,-75 -120,-61 -140,-79 -153,-92 -168,-92 -182,-92 -174,-84 -144,-57 -120,-34 -122,-22 -123,-10 -149,-34 -178,-62 -207,-89 -211,-92 -224,-91 -238,-91 -212,-66 -183,-39 -153,-12 -127,12 -130,23 -133,34 -158,10 -187,-17 -216,-44 -246,-71 -264,-89 -281,-84 -298,-91 -296,-91 -298,-88 -289,-92 -295,-85 -280,-94 -285,-90 -292,-82 -271,-98 -289,-78 -282,-82 -264,-99 -273,-90 -286,-75 -258,-99 -280,-75 -284,-71 -271,-82 -251,-100 -261,-90 -282,-67 -278,-68 -251,-97 -245,-100 -268,-75 -281,-62 -259,-82 -238,-101 -249,-89 -276,-60 -279,-56 -266,-67 -239,-97 -232,-101 -256,-75 -279,-51 -274,-53 -247,-82 -226,-101 -237,-89 -264,-60 -279,-44 -254,-67 -227,-96 -219,-101 -244,-74 -272,-45 -283,-33 -287,-27 -298,-16 -309,-6 -320,5 -332,-6 -342,-21 -351,-35 -349,-34 -351,-32 -345,-32 -350,-27 -340,-30 -349,-21 -336,-28 -348,-15 -337,-24 -332,-26 -347,-10 -345,-9 -329,-23 -335,-17 -346,-4 -326,-20 -343,-2 -346,2 -333,-9 -321,-18 -345,7 -340,6 -316,-18 -331,-2 -345,13 -321,-9 -310,-17 -338,13 -344,19 -328,6 -304,-17 -319,-1 -343,25 -336,21 -309,-9 -300,-19 -294,-21 -299,-16 -326,13 -342,31 -317,6 -289,-23 -262,-52 -235,-82 -213,-102 -225,-89 -252,-60 -279,-30 -307,-1 -334,28 -342,36 -324,21 -297,-8 -270,-38 -242,-67 -215,-96 -207,-102 -233,-74 -260,-45 -287,-16 -314,14 -340,41 -332,36 -305,6 -277,-23 -250,-52 -223,-82 -201,-102 -213,-89 -240,-60 -267,-30 -295,-1 -322,28 -338,46 -312,21 -285,-8 -258,-38 -230,-67 -203,-96 -195,-102 -221,-74 -248,-45 -275,-16 -302,14 -330,43 -337,50 -320,36 -293,6 -265,-23 -238,-52 -211,-81 -188,-102 -201,-89 -228,-59 -256,-30 -283,-1 -310,28 -334,55 -328,50 -300,21 -273,-8 -246,-37 -218,-67 -191,-96 -182,-102 -209,-74 -236,-45 -263,-15 -291,14 -318,43 -332,59 -308,36 -281,7 -253,-23 -226,-52 -199,-81 -176,-102 -189,-88 -216,-59 -244,-30 -271,-1 -298,29 -325,58 -330,63 -316,51 -288,21 -261,-8 -234,-37 -207,-66 -179,-96 -170,-102 -197,-74 -224,-44 -251,-15 -279,14 -306,43 -328,67 -323,65 -296,36 -269,7 -241,-22 -214,-52 -187,-81 -164,-102 -177,-88 -204,-59 -232,-30 -259,0 -286,29 -314,58 -325,71 -304,51 -276,22 -249,-8 -222,-37 -195,-66 -167,-95 -158,-102 -185,-73 -212,-44 -239,-15 -267,14 -294,44 -323,75 -311,66 -284,36 -257,7 -230,-22 -202,-51 -175,-81 -153,-102 -165,-88 -192,-59 -220,-29 -247,0 -274,29 -302,58 -321,79 -292,51 -264,22 -237,-7 -210,-37 -183,-66 -155,-95 -147,-101 -173,-73 -200,-44 -227,-15 -255,15 -282,44 -309,73 -318,83 -299,66 -272,36 -245,7 -218,-22 -190,-51 -163,-81 -141,-101 -153,-88 -181,-59 -208,-29 -235,0 -262,29 -290,58 -315,86 -307,80 -280,51 -253,22 -225,-7 -198,-37 -171,-66 -143,-95 -136,-100 -161,-73 -188,-44 -215,-15 -243,15 -270,44 -297,73 -313,90 -287,66 -260,37 -233,7 -206,-22 -178,-51 -151,-80 -130,-100 -141,-88 -169,-58 -196,-29 -223,0 -250,29 -278,59 -305,88 -310,93 -295,81 -268,51 -241,22 -213,-7 -186,-36 -159,-66 -131,-95 -124,-99 -149,-73 -176,-44 -204,-14 -231,15 -258,44 -285,73 -307,97 -303,95 -276,66 -248,37 -221,8 -194,-22 -166,-51 -139,-80 -119,-99 -129,-87 -157,-58 -184,-29 -211,0 -238,30 -266,59 -293,88 -304,100 -283,81 -256,52 -229,22 -201,-7 -174,-36 -147,-65 -120,-95 -113,-98 -137,-73 -164,-43 -192,-14 -219,15 -246,44 -273,74 -301,103 -291,96 -264,66 -236,37 -209,8 -182,-21 -154,-51 -127,-80 -111,-94 -117,-87 -145,-58 -172,-29 -199,1 -227,30 -254,59 -281,88 -297,106 -271,81 -244,52 -217,23 -189,-7 -162,-36 -135,-65 -112,-87 -125,-72 -152,-43 -180,-14 -207,15 -234,45 -261,74 -289,103 -294,108 -279,96 -252,67 -224,37 -197,8 -170,-21 -143,-50 -115,-80 -111,-81 -133,-58 -160,-28 -187,1 -215,30 -242,59 -269,89 -290,111 -259,81 -232,52 -205,23 -178,-7 -150,-36 -123,-65 -111,-75 -113,-72 -140,-43 -168,-14 -195,15 -222,45 -250,74 -277,103 -287,114 -267,96 -240,67 -212,37 -185,8 -158,-21 -131,-50 -110,-69 -121,-58 -148,-28 -175,1 -203,30 -230,59 -257,89 -282,116 -275,111 -247,81 -220,52 -193,23 -166,-6 -138,-36 -110,-63 -128,-43 -156,-14 -183,16 -210,45 -238,74 -265,103 -278,117 -255,96 -228,67 -201,38 -173,8 -146,-21 -119,-50 -109,-57 -136,-28 -163,1 -191,30 -218,60 -245,89 -273,119 -263,111 -235,82 -208,52 -181,23 -154,-6 -126,-35 -109,-51 -117,-43 -144,-13 -171,16 -198,45 -226,74 -253,104 -269,121 -243,96 -216,67 -189,38 -161,9 -134,-21 -109,-44 -124,-28 -151,1 -179,31 -206,60 -233,89 -261,118 -264,122 -251,111 -224,82 -196,53 -169,23 -142,-6 -114,-35 -110,-37 -132,-13 -159,16 -186,45 -214,75 -241,104 -259,123 -231,97 -204,67 -177,38 -149,9 -122,-20 -110,-30 -112,-28 -140,2 -167,31 -194,60 -221,89 -249,119 -254,124 -239,111 -212,82 -184,53 -157,24 -130,-6 -111,-23 -120,-13 -147,16 -174,46 -202,75 -229,104 -249,125 -219,97 -192,68 -165,38 -137,9 -112,-15 -128,2 -155,31 -182,60 -209,90 -237,119 -243,126 -227,111 -200,82 -172,53 -145,24 -118,-6 -113,-7 -135,16 -163,46 -190,75 -217,104 -238,127 -207,97 -180,68 -153,38 -125,9 -114,0 -143,31 -170,60 -198,90 -225,119 -232,127 -215,112 -188,82 -160,53 -133,24 -116,9 -123,17 -151,46 -178,75 -205,104 -226,127 -195,97 -168,68 -141,39 -117,17 -131,31 -158,61 -186,90 -213,119 -220,127 -203,112 -176,83 -148,53 -121,24 -119,25 -139,46 -166,75 -193,105 -213,126 -183,97 -156,68 -129,39 -120,30 -122,34 -146,61 -174,90 -201,119 -206,125 -191,112 -164,83 -137,54 -123,39 -125,44 -127,46 -154,76 -181,105 -197,122 -171,98 -144,68 -126,49 -128,54 -134,61 -162,90 -188,118 -182,115 -179,112 -152,83 -131,61 -134,68 -142,76 -169,105 -175,111 -166,105 -160,98 -138,74 -145,84 -152,93 -153,94 -152,93 -153,94" /><polyline class="right-eye" stroke="red" points="134,-21 137,-20 134,-21 150,-13 167,-9 183,-17 196,-28 202,-44 203,-62 196,-78 186,-92 205,-92 223,-92 242,-91 261,-90 280,-89 298,-86 317,-83 336,-82 354,-78 352,-59 351,-39 349,-20 347,0 344,19 339,38 332,56 323,73 310,88 296,101 278,110 259,114 240,116 220,115 202,110 185,100 170,88 158,72 149,55 143,37 138,18 136,-2 134,-21 140,-5 146,12 152,28 158,45 164,61 170,78 176,94 176,94 167,79 159,65 151,51 142,36 147,41 177,67 207,94 231,116 245,115 259,114 241,98 212,71 182,44 152,17 136,3 134,-21 150,-10 166,2 182,13 198,25 214,36 230,47 245,36 252,30 254,21 258,3 263,-15 267,-23 275,-28 291,-38 306,-48 322,-58 338,-68 354,-78 354,-78 336,-81 317,-83 345,-59 352,-52 351,-39 350,-26 340,-36 310,-62 281,-89 264,-90 248,-91 275,-66 305,-39 335,-12 347,-1 345,11 343,23 330,11 300,-16 271,-42 241,-69 215,-92 186,-92 192,-87 186,-92 192,-87 193,-84 206,-73 236,-46 266,-19 295,8 325,34 337,45 325,34 295,8 266,-19 236,-46 206,-73 193,-84 201,-67 204,-58 203,-48 231,-23 261,4 291,31 320,58 327,64 322,73 316,81 286,54 256,28 226,1 195,-27 187,-21 178,-15 192,-3 221,24 251,51 281,78 302,96 293,102 284,108 276,101 246,74 217,47 187,21 157,-6 149,-14 134,-21 121,-27 121,-31 122,-31 121,-29 124,-29 121,-26 132,-31 123,-21 137,-30 124,-16 129,-18 141,-28 125,-10 145,-26 132,-11 125,-4 141,-18 149,-24 126,2 134,-3 153,-22 144,-11 127,8 153,-18 158,-20 136,4 127,14 146,-3 163,-19 156,-11 128,20 139,12 167,-20 172,-22 148,4 129,25 130,28 132,26 158,-3 176,-24 183,-29 196,-43 209,-58 216,-65 217,-74 203,-86 185,-94 166,-99 173,-100 169,-96 180,-101 172,-92 186,-102 178,-93 175,-89 193,-102 178,-86 199,-102 190,-93 181,-83 205,-102 184,-80 193,-85 210,-102 202,-93 187,-75 216,-102 195,-78 189,-71 205,-85 222,-101 214,-93 191,-67 197,-70 228,-101 207,-78 192,-62 217,-85 234,-101 226,-93 199,-63 194,-57 209,-70 240,-101 219,-78 193,-49 202,-55 228,-85 245,-101 238,-93 211,-63 190,-39 178,-26 166,-12 155,2 143,16 131,30 141,19 168,-11 194,-40 221,-70 251,-100 231,-78 204,-48 177,-18 150,12 131,33 160,4 187,-26 214,-55 240,-85 257,-100 250,-92 223,-63 197,-33 170,-3 143,26 133,38 153,19 180,-11 206,-40 233,-70 262,-99 243,-78 216,-48 189,-18 162,12 134,43 145,34 172,4 199,-26 226,-55 252,-85 268,-99 262,-92 235,-63 209,-33 182,-3 155,26 136,48 165,19 192,-11 218,-40 245,-70 274,-99 255,-78 228,-48 201,-18 174,12 148,41 138,53 157,34 184,4 211,-26 238,-55 264,-85 280,-98 274,-92 247,-63 221,-33 194,-3 167,26 140,57 150,49 177,19 204,-11 230,-40 257,-70 285,-98 267,-78 240,-48 213,-18 186,12 160,41 141,62 144,62 169,34 196,4 223,-26 250,-55 276,-85 291,-97 286,-92 259,-63 233,-33 206,-3 179,26 152,56 143,66 162,49 189,19 215,-11 242,-40 269,-70 296,-96 279,-78 252,-48 225,-18 198,12 172,41 145,71 155,64 181,34 208,4 235,-26 262,-55 288,-85 301,-95 298,-92 271,-63 245,-33 218,-3 191,26 164,56 148,75 174,49 201,19 227,-11 254,-40 281,-70 306,-94 291,-78 264,-48 237,-18 210,12 184,41 157,71 150,78 167,64 193,34 220,4 247,-26 274,-55 300,-85 311,-93 283,-63 257,-33 230,-3 203,27 176,56 153,82 159,79 186,49 213,19 239,-11 266,-40 293,-70 317,-93 303,-78 276,-48 249,-18 222,12 196,41 169,71 155,86 179,64 205,34 232,4 259,-25 286,-55 312,-85 322,-93 295,-63 269,-33 242,-3 215,27 188,56 161,86 158,90 171,79 198,49 225,19 251,-11 278,-40 305,-70 328,-92 315,-77 288,-48 261,-18 234,12 208,41 181,71 161,93 191,64 217,34 244,4 271,-25 298,-55 324,-85 334,-92 307,-63 280,-33 254,-3 227,27 200,56 173,86 164,96 183,79 210,49 237,19 263,-11 290,-40 317,-70 339,-91 327,-77 300,-48 273,-18 246,12 220,41 193,71 167,99 176,93 202,64 229,34 256,4 283,-25 310,-55 336,-85 345,-91 319,-63 292,-33 266,-3 239,27 212,56 185,86 171,102 195,79 222,49 249,19 275,-11 302,-40 329,-70 350,-90 339,-77 312,-48 285,-18 258,12 232,41 205,71 178,101 174,105 188,93 214,64 241,34 268,4 295,-25 322,-55 348,-85 354,-88 331,-63 304,-33 278,-3 251,27 224,56 197,86 178,108 207,79 234,49 261,19 287,-11 314,-40 341,-70 359,-86 351,-77 324,-48 297,-18 270,12 244,41 217,71 190,101 181,111 200,94 226,64 253,34 280,4 307,-25 334,-55 363,-84 343,-63 316,-33 290,-3 263,27 236,56 209,86 185,113 192,108 219,79 246,49 273,19 299,-11 326,-40 353,-70 364,-79 362,-76 336,-48 309,-18 282,12 256,42 229,71 202,101 189,115 212,94 238,64 265,34 292,4 319,-25 345,-55 363,-71 355,-63 328,-33 302,-3 275,27 248,56 221,86 193,117 204,108 231,79 258,49 285,19 311,-11 338,-40 363,-64 348,-48 321,-18 294,12 267,42 241,71 214,101 197,119 224,94 250,64 277,34 304,4 331,-25 357,-55 362,-57 340,-33 314,-3 287,27 260,56 233,86 207,116 202,121 216,108 243,79 270,49 297,19 323,-10 350,-40 362,-50 360,-48 333,-18 306,12 279,42 253,71 226,101 207,122 236,94 262,64 289,34 316,4 343,-25 361,-43 352,-33 326,-3 299,27 272,56 245,86 219,116 212,124 228,108 255,79 282,49 309,19 335,-10 361,-36 345,-18 318,12 291,42 265,71 238,101 216,125 248,94 274,64 301,34 328,4 355,-25 360,-28 338,-3 311,27 284,56 257,86 231,116 222,125 240,108 267,79 294,49 321,19 347,-10 359,-21 357,-18 330,12 303,42 277,71 250,101 228,126 233,123 260,94 286,64 313,34 340,4 359,-13 350,-3 323,27 296,56 269,86 243,116 234,126 252,108 279,79 306,49 332,19 358,-6 342,12 315,42 289,71 262,101 240,126 245,123 272,94 298,64 325,34 352,4 357,2 335,27 308,56 281,86 254,116 246,125 264,109 291,79 318,49 344,19 356,10 354,12 327,42 301,71 274,101 253,125 258,122 284,94 310,64 337,34 355,18 347,27 320,57 293,86 266,116 259,124 276,109 303,79 330,49 353,27 339,42 313,71 286,101 266,123 296,94 322,64 349,34 351,32 350,37 332,57 305,86 278,116 273,122 288,109 315,79 342,49 348,42 346,47 325,71 298,101 281,120 308,94 334,64 344,53 342,59 317,86 290,117 295,114 300,109 327,79 338,66 333,75 310,101 302,110 314,100 315,99 314,99 314,100" /><polyline  stroke="white" points="-301,-83 -300,-80 -301,-83 -293,-65 -290,-56 -292,-46 -304,-32 -314,-30 -323,-32 -337,-46 -335,-65 -320,-77 -301,-83 -314,-72 -326,-60 -339,-49 -339,-49 -335,-65 -322,-76 -322,-48 -322,-32 -306,-31 -306,-60 -306,-82 -301,-83 -295,-67 -289,-52 -289,-52 -289,-52 -301,-83 -317,-86 -309,-86 -309,-86 -306,-86 -319,-86 -327,-84 -295,-82 -321,-82 -330,-82 -309,-80 -290,-78 -297,-78 -336,-78 -325,-76 -286,-74 -313,-74 -341,-74 -301,-72 -283,-70 -289,-70 -329,-70 -344,-70 -317,-68 -281,-66 -305,-66 -347,-66 -333,-64 -293,-64 -279,-62 -321,-62 -348,-62 -309,-60 -278,-58 -297,-58 -337,-58 -349,-58 -325,-56 -285,-56 -277,-54 -313,-54 -350,-54 -341,-52 -301,-52 -277,-50 -289,-50 -329,-50 -350,-50 -317,-48 -278,-46 -305,-46 -345,-46 -349,-46 -333,-44 -293,-44 -280,-42 -321,-42 -349,-42 -309,-40 -282,-38 -297,-38 -337,-38 -346,-38 -325,-36 -284,-34 -313,-34 -343,-34 -338,-32 -301,-32 -288,-30 -329,-30 -339,-30 -317,-28 -292,-26 -305,-26 -334,-26 -299,-22 -321,-22 -326,-22 -314,-20 -311,-20 -310,-20 -314,-20" /><polyline  stroke="white" points="168,-85 170,-83 168,-85 179,-71 186,-55 178,-39 162,-32 153,-32 146,-37 134,-51 138,-68 151,-80 168,-85 157,-74 145,-62 134,-51 134,-51 141,-64 147,-77 147,-48 147,-36 160,-32 160,-60 160,-83 168,-85 177,-70 186,-55 179,-45 173,-36 173,-72 173,-79 168,-85 159,-90 165,-90 165,-90 168,-90 155,-90 168,-90 175,-88 147,-88 159,-86 182,-84 171,-84 140,-84 143,-82 187,-80 155,-80 135,-80 167,-78 190,-76 179,-76 139,-76 131,-76 151,-74 193,-72 163,-72 128,-72 135,-70 175,-70 195,-68 187,-68 147,-68 126,-68 159,-66 197,-64 171,-64 131,-64 125,-64 143,-62 183,-62 198,-60 155,-60 123,-60 127,-58 167,-58 198,-56 179,-56 139,-56 123,-56 151,-54 191,-54 198,-52 163,-52 123,-52 135,-50 175,-50 196,-48 187,-48 147,-48 124,-48 159,-46 194,-44 171,-44 131,-44 125,-44 143,-42 183,-42 192,-40 155,-40 128,-40 167,-38 191,-36 179,-36 139,-36 130,-36 151,-34 187,-32 163,-32 134,-32 175,-30 182,-28 147,-28 140,-28 159,-26 175,-24 171,-24 148,-24 163,-22 164,-22 166,-22 161,-22 163,-22 161,-22 163,-22" /><polyline class="left-outline"  points="-349,-85 -349,-85 -346,-81 -361,-83 -359,-65 -358,-47 -348,-33 -338,-19 -357,-29 -354,-10 -352,8 -349,27 -342,43 -336,58 -329,74 -317,89 -305,104 -285,118 -269,123 -253,128 -232,128 -210,128 -195,123 -179,118 -157,102 -145,87 -134,71 -126,55 -119,38 -114,17 -109,-4 -107,-26 -105,-48 -103,-70 -102,-92 -114,-93 -118,-96 -96,-97 -119,-93 -97,-92 -119,-91 -97,-88 -119,-88 -97,-83 -120,-83 -98,-79 -120,-79 -98,-75 -120,-74 -98,-70 -121,-70 -99,-66 -121,-65 -99,-61 -122,-61 -100,-57 -122,-57 -100,-52 -122,-52 -100,-48 -123,-48 -101,-44 -123,-43 -101,-39 -124,-39 -101,-35 -124,-34 -102,-30 -124,-30 -102,-26 -125,-26 -103,-21 -125,-22 -103,-17 -125,-17 -103,-13 -126,-13 -104,-8 -126,-9 -104,-4 -127,-5 -105,1 -127,-1 -106,5 -127,3 -107,9 -128,7 -108,14 -130,11 -109,18 -131,15 -110,22 -132,19 -111,27 -133,23 -112,31 -134,26 -113,35 -135,30 -114,40 -136,34 -116,44 -137,38 -118,48 -138,42 -119,52 -140,46 -121,56 -142,49 -123,60 -144,52 -125,64 -145,56 -127,68 -147,59 -129,72 -149,62 -131,76 -151,66 -134,80 -153,69 -136,83 -155,72 -139,87 -158,75 -142,90 -160,78 -144,94 -162,81 -147,97 -165,84 -150,101 -167,87 -153,104 -169,90 -156,107 -172,92 -159,110 -175,94 -163,113 -178,95 -167,115 -181,97 -170,118 -184,99 -174,120 -187,101 -178,123 -190,103 -182,124 -193,105 -186,126 -196,107 -190,127 -199,107 -195,128 -203,108 -199,130 -206,109 -203,131 -210,109 -207,132 -213,110 -212,133 -217,110 -216,133 -221,111 -221,133 -224,111 -225,133 -228,112 -229,133 -232,113 -234,133 -236,113 -238,133 -239,112 -243,133 -243,112 -247,133 -247,111 -252,133 -250,110 -256,133 -254,110 -260,131 -257,109 -265,130 -261,109 -269,129 -264,108 -273,127 -268,106 -277,126 -271,104 -282,124 -274,103 -286,123 -277,101 -290,121 -280,100 -293,118 -283,98 -297,116 -286,97 -301,113 -289,95 -304,111 -291,92 -308,108 -294,89 -311,105 -296,86 -314,101 -299,84 -316,98 -301,81 -319,94 -303,78 -322,91 -306,76 -325,87 -308,73 -328,84 -311,70 -330,80 -313,67 -333,77 -315,63 -335,73 -317,60 -337,69 -319,57 -338,64 -320,53 -340,60 -322,50 -342,56 -324,46 -344,52 -325,43 -345,48 -326,39 -347,44 -327,35 -349,40 -328,31 -350,36 -329,27 -352,32 -330,23 -354,27 -331,19 -355,23 -332,15 -355,19 -333,11 -356,14 -334,7 -357,10 -335,4 -357,5 -336,0 -358,1 -336,-3 -359,-3 -337,-7 -360,-8 -338,-11 -360,-12 -339,-15 -361,-17 -338,-19 -361,-21 -336,-23 -362,-25 -335,-27 -362,-30 -334,-31 -362,-34 -333,-35 -362,-39 -332,-39 -363,-43 -334,-43 -363,-48 -336,-47 -363,-52 -336,-50 -363,-57 -336,-53 -364,-62 -336,-55 -364,-66 -336,-57 -364,-71 -336,-59 -364,-77 -335,-60 -365,-82 -334,-61 -362,-85 -333,-62 -355,-85 -332,-64 -332,-64 -349,-85 -346,-81 -324,-82 -303,-83 -292,-86 -282,-79 -273,-64 -273,-49 -282,-25 -295,-14 -312,-10 -338,-19 -339,-14 -332,-41 -337,-13 -328,-37 -333,-12 -325,-33 -330,-11 -323,-31 -325,-10 -320,-30 -321,-8 -317,-30 -317,-7 -314,-30 -313,-6 -312,-29 -308,-6 -310,-29 -304,-7 -308,-30 -300,-8 -306,-31 -296,-9 -304,-32 -291,-11 -302,-33 -288,-14 -300,-34 -284,-16 -298,-35 -281,-19 -296,-36 -278,-22 -295,-38 -276,-27 -294,-40 -274,-31 -293,-42 -272,-35 -292,-44 -271,-39 -291,-46 -269,-43 -290,-48 -268,-47 -290,-51 -268,-52 -290,-53 -268,-56 -291,-55 -268,-61 -291,-57 -269,-65 -292,-59 -271,-69 -292,-61 -273,-73 -292,-63 -275,-77 -293,-65 -277,-81 -295,-66 -280,-84 -296,-67 -284,-86 -298,-69 -288,-89 -300,-70 -292,-90 -302,-72 -298,-89 -304,-74 -303,-88 -307,-74 -307,-87 -310,-75 -312,-87 -314,-75 -316,-87 -317,-75 -321,-87 -321,-74 -325,-86 -324,-73 -330,-86 -326,-71 -334,-86 -328,-69 -339,-86 -330,-67 -344,-85 -331,-65 -349,-85 -347,-83 -349,-85 -343,-76 -344,-79 -343,-76 -342,-74 -344,-79 -354,-66 -364,-54 -391,-59 -391,-59 -409,-66 -408,-70 -406,-64 -403,-74 -402,-61 -401,-76 -397,-59 -398,-78 -392,-56 -394,-81 -388,-54 -391,-83 -383,-53 -388,-86 -378,-52 -385,-87 -373,-51 -382,-89 -368,-50 -379,-90 -364,-50 -375,-92 -360,-52 -371,-93 -356,-56 -368,-95 -353,-60 -364,-96 -350,-64 -359,-97 -347,-68 -355,-97 -343,-72 -350,-98 -340,-75 -346,-98 -336,-76 -341,-99 -332,-77 -337,-100 -329,-78 -332,-100 -325,-79 -328,-101 -321,-80 -323,-101 -318,-81 -319,-102 -314,-82 -315,-102 -309,-83 -310,-103 -305,-83 -306,-104 -301,-83 -301,-104 -296,-84 -297,-105 -292,-84 -293,-105 -288,-84 -288,-106 -284,-85 -284,-106 -279,-85 -279,-107 -275,-85 -275,-108 -271,-86 -270,-108 -266,-86 -266,-109 -262,-86 -262,-109 -258,-87 -257,-110 -253,-87 -253,-110 -249,-87 -248,-111 -245,-88 -244,-111 -241,-88 -239,-111 -236,-88 -235,-111 -232,-88 -231,-111 -228,-89 -226,-111 -223,-89 -222,-111 -219,-89 -217,-111 -215,-89 -213,-111 -210,-89 -208,-111 -206,-89 -204,-111 -202,-89 -199,-111 -197,-89 -195,-111 -193,-89 -191,-111 -189,-89 -186,-111 -184,-88 -182,-111 -180,-88 -177,-111 -176,-88 -173,-111 -171,-88 -168,-111 -167,-88 -164,-111 -163,-88 -159,-110 -158,-88 -155,-110 -154,-88 -151,-109 -150,-88 -146,-109 -145,-88 -142,-108 -141,-87 -137,-108 -137,-87 -133,-107 -132,-87 -129,-107 -128,-87 -124,-106 -124,-86 -120,-106 -119,-86 -115,-105 -115,-86 -111,-105 -111,-85 -106,-104 -106,-85 -102,-104 -102,-85 -98,-103 -98,-84 -93,-103 -94,-84 -89,-102 -89,-84 -84,-101 -85,-84 -80,-99 -81,-85 -76,-97 -76,-85 -73,-95 -72,-85 -70,-93 -67,-85 -68,-88 -67,-85" /><polyline class="right-outline"  points="135,-96 136,-93 135,-96 137,-91 160,-91 183,-91 198,-74 202,-57 197,-40 184,-24 162,-16 136,-23 133,-19 143,-42 135,-18 145,-40 140,-17 147,-39 144,-16 150,-37 148,-15 153,-35 152,-13 156,-34 157,-12 158,-35 161,-11 161,-35 166,-12 163,-35 170,-13 166,-36 174,-15 168,-36 178,-16 171,-36 182,-18 172,-38 186,-20 174,-39 190,-23 175,-41 193,-26 177,-43 195,-30 179,-44 198,-33 180,-46 201,-37 182,-48 202,-41 182,-50 203,-45 182,-52 205,-49 182,-54 206,-54 182,-57 206,-58 182,-59 205,-63 182,-61 205,-67 183,-63 204,-71 182,-65 202,-75 181,-66 200,-79 180,-68 197,-83 179,-70 194,-86 178,-72 191,-89 176,-74 188,-93 174,-75 184,-95 172,-76 179,-95 170,-78 174,-95 168,-79 170,-95 165,-79 165,-95 162,-80 161,-95 159,-80 156,-95 156,-80 152,-95 152,-79 147,-95 149,-78 143,-95 147,-76 138,-96 145,-74 134,-95 144,-73 128,-96 143,-71 121,-98 142,-70 116,-98 141,-69 111,-96 140,-68 109,-92 139,-68 108,-88 138,-66 108,-82 138,-65 108,-77 138,-63 108,-72 138,-61 109,-67 138,-59 109,-63 137,-57 109,-58 137,-54 110,-54 138,-50 110,-49 140,-46 110,-45 142,-42 111,-40 141,-38 111,-36 139,-34 111,-31 137,-29 112,-27 136,-25 112,-22 134,-20 112,-18 134,-16 113,-14 134,-12 113,-9 135,-8 113,-5 136,-5 114,0 136,-2 115,4 137,2 116,8 138,6 117,13 138,10 119,17 139,14 120,21 140,18 121,25 141,22 122,30 142,26 123,34 144,30 124,38 145,34 126,43 147,37 127,47 148,41 128,51 150,44 129,56 151,48 131,60 153,52 133,63 154,55 136,67 156,59 138,71 158,62 140,75 161,65 143,79 163,68 145,82 165,71 147,86 167,74 150,90 170,77 152,94 172,80 155,97 174,84 158,101 176,86 161,104 178,89 164,107 181,91 167,110 184,94 171,113 186,96 174,116 189,98 178,118 192,100 182,120 194,102 186,122 197,104 190,123 201,105 194,125 204,106 198,127 207,107 202,128 211,108 206,130 214,109 211,132 218,110 215,133 221,111 219,133 225,112 224,133 229,112 228,133 233,112 233,134 236,112 237,134 240,112 242,134 243,112 246,134 247,112 251,135 251,112 255,134 254,112 259,133 258,112 264,133 262,111 268,132 265,109 272,131 269,108 277,130 272,107 281,129 275,106 285,128 278,104 289,126 281,103 293,124 285,102 297,122 288,101 301,120 291,99 305,118 294,98 309,115 297,95 312,112 299,93 315,109 302,90 318,105 304,88 321,102 306,85 325,99 309,83 328,96 311,80 331,93 314,77 334,89 317,74 336,86 319,71 338,82 321,67 340,78 323,64 343,74 325,61 345,70 326,58 347,66 328,55 349,62 330,51 351,58 331,47 353,54 332,44 355,50 334,40 356,46 335,36 357,42 336,32 358,37 337,28 359,33 339,24 361,29 340,21 362,24 341,17 363,20 342,13 364,16 344,9 365,11 345,5 366,7 346,1 367,3 346,-3 368,-1 346,-7 369,-6 347,-11 369,-10 347,-15 370,-15 347,-19 370,-19 348,-24 371,-24 348,-28 371,-28 349,-32 371,-32 349,-37 372,-37 349,-41 372,-41 350,-45 372,-46 350,-50 373,-50 351,-54 373,-55 351,-59 373,-59 351,-63 374,-63 352,-68 374,-68 352,-72 374,-72 353,-76 375,-77 375,-79 375,-79 360,-81 363,-81 360,-81 354,-75 355,-78 354,-75 353,-73 355,-78 365,-54 392,-59 409,-70 410,-66 407,-72 405,-63 403,-75 401,-60 401,-77 396,-57 398,-79 391,-54 395,-81 386,-54 392,-84 381,-53 389,-86 376,-52 386,-87 371,-51 382,-89 366,-50 378,-91 362,-51 374,-92 359,-56 371,-94 357,-62 367,-95 354,-69 362,-96 351,-73 358,-97 347,-74 353,-98 343,-75 349,-98 340,-76 344,-99 337,-77 340,-99 333,-78 335,-100 329,-78 331,-100 325,-79 327,-101 321,-80 322,-102 317,-81 318,-102 313,-82 313,-103 308,-83 309,-103 304,-83 305,-104 300,-83 300,-104 295,-84 296,-105 291,-84 291,-106 287,-84 287,-106 282,-85 282,-107 278,-85 278,-107 274,-85 274,-108 269,-86 269,-108 265,-86 265,-109 261,-86 260,-109 256,-87 256,-110 252,-87 252,-111 248,-87 247,-111 244,-88 243,-111 239,-88 238,-111 235,-88 234,-111 231,-89 229,-111 227,-89 225,-111 222,-89 220,-111 218,-89 216,-111 214,-89 212,-111 209,-89 207,-111 205,-89 203,-111 201,-89 198,-111 196,-89 194,-111 192,-89 189,-111 187,-88 185,-111 183,-88 180,-111 179,-88 176,-111 174,-88 172,-111 170,-88 167,-111 166,-88 163,-110 162,-88 158,-110 157,-88 154,-109 153,-88 149,-109 149,-88 145,-108 144,-88 141,-108 140,-87 136,-107 136,-87 132,-107 131,-87 127,-106 127,-86 123,-106 122,-86 118,-105 118,-86 114,-105 114,-86 110,-104 110,-85 105,-104 105,-85 101,-103 101,-85 96,-103 97,-84 92,-102 92,-84 88,-102 88,-84 83,-100 84,-85 79,-98 79,-85 76,-96 75,-85 73,-94 70,-85 69,-92 69,-92 66,-86 67,-89 66,-86" /><polyline   points="-221,-132 -218,-132 -221,-132 -201,-134 -182,-135 -162,-134 -142,-133 -123,-132 -103,-131 -123,-132 -103,-131 -123,-132 -142,-133 -123,-132 -142,-133 -162,-134 -142,-133 -162,-134 -182,-135 -162,-134 -182,-135 -201,-134 -182,-135 -201,-134 -221,-132 -201,-134 -221,-132 -218,-132 -221,-132" /><polyline   points="236,-132 233,-132 236,-132 216,-134 197,-135 177,-134 157,-133 138,-132 118,-131 138,-132 118,-131 138,-132 157,-133 138,-132 157,-133 177,-134 157,-133 177,-134 197,-135 177,-134 197,-135 216,-134 197,-135 216,-134 236,-132 216,-134 236,-132 233,-132 236,-132" /></svg>