<svg viewBox="-425 -150 850 300" fill="none" stroke="black" stroke-width="4"><polyline class="left-eye" stroke="red" points="-283,-84 -280,-85 -283,-84 -266,-89 -248,-90 -231,-91 -213,-92 -195,-92 -177,-92 -159,-92 -142,-90 -124,-89 -123,-69 -121,-49 -123,-30 -125,-10 -129,10 -133,29 -138,48 -147,66 -158,82 -173,96 -190,106 -208,114 -228,117 -247,115 -267,111 -285,104 -300,91 -313,76 -323,59 -332,41 -336,22 -338,2 -340,-18 -322,-10 -304,-5 -288,-16 -275,-30 -271,-48 -273,-68 -283,-84 -269,-71 -254,-57 -240,-44 -226,-31 -212,-17 -208,-8 -208,1 -214,20 -226,34 -245,41 -263,47 -275,62 -287,78 -298,94 -281,101 -264,108 -247,115 -250,113 -279,85 -308,58 -334,34 -336,19 -338,4 -333,8 -304,36 -274,63 -245,90 -217,116 -207,113 -196,110 -211,95 -241,68 -270,41 -299,13 -326,-11 -310,-7 -302,-5 -296,-10 -265,18 -236,45 -207,73 -178,99 -163,87 -173,78 -202,50 -232,23 -261,-4 -281,-23 -272,-41 -256,-27 -227,1 -198,28 -169,55 -151,72 -146,63 -141,54 -164,33 -193,6 -223,-22 -252,-49 -274,-69 -283,-84 -263,-85 -243,-85 -223,-86 -203,-86 -184,-87 -164,-88 -144,-88 -124,-89 -123,-75 -122,-61 -142,-79 -155,-92 -170,-92 -184,-92 -176,-84 -146,-57 -122,-34 -124,-22 -125,-10 -151,-34 -180,-62 -209,-89 -213,-92 -226,-91 -240,-91 -214,-66 -185,-39 -155,-12 -129,12 -132,23 -135,34 -160,10 -189,-17 -218,-44 -248,-71 -266,-89 -283,-84 -300,-91 -298,-91 -300,-88 -291,-92 -297,-85 -282,-94 -287,-90 -294,-82 -273,-98 -291,-78 -284,-82 -266,-99 -275,-90 -288,-75 -260,-99 -282,-75 -286,-71 -273,-82 -253,-100 -263,-90 -284,-67 -280,-68 -253,-97 -247,-100 -270,-75 -283,-62 -261,-82 -240,-101 -251,-89 -278,-60 -281,-56 -268,-67 -241,-97 -234,-101 -258,-75 -281,-51 -276,-53 -249,-82 -228,-101 -239,-89 -266,-60 -281,-44 -256,-67 -229,-96 -221,-101 -246,-74 -274,-45 -285,-33 -289,-27 -300,-16 -311,-6 -322,5 -334,-6 -344,-21 -353,-35 -351,-34 -353,-32 -347,-32 -352,-27 -342,-30 -351,-21 -338,-28 -350,-15 -339,-24 -334,-26 -349,-10 -347,-9 -331,-23 -337,-17 -348,-4 -328,-20 -345,-2 -348,2 -335,-9 -323,-18 -347,7 -342,6 -318,-18 -333,-2 -347,13 -323,-9 -312,-17 -340,13 -346,19 -330,6 -306,-17 -321,-1 -345,25 -338,21 -311,-9 -302,-19 -296,-21 -301,-16 -328,13 -344,31 -319,6 -291,-23 -264,-52 -237,-82 -215,-102 -227,-89 -254,-60 -281,-30 -309,-1 -336,28 -344,36 -326,21 -299,-8 -272,-38 -244,-67 -217,-96 -209,-102 -235,-74 -262,-45 -289,-16 -316,14 -342,41 -334,36 -307,6 -279,-23 -252,-52 -225,-82 -203,-102 -215,-89 -242,-60 -269,-30 -297,-1 -324,28 -340,46 -314,21 -287,-8 -260,-38 -232,-67 -205,-96 -197,-102 -223,-74 -250,-45 -277,-16 -304,14 -332,43 -339,50 -322,36 -295,6 -267,-23 -240,-52 -213,-81 -190,-102 -203,-89 -230,-59 -258,-30 -285,-1 -312,28 -336,55 -330,50 -302,21 -275,-8 -248,-37 -220,-67 -193,-96 -184,-102 -211,-74 -238,-45 -265,-15 -293,14 -320,43 -334,59 -310,36 -283,7 -255,-23 -228,-52 -201,-81 -178,-102 -191,-88 -218,-59 -246,-30 -273,-1 -300,29 -327,58 -332,63 -318,51 -290,21 -263,-8 -236,-37 -209,-66 -181,-96 -172,-102 -199,-74 -226,-44 -253,-15 -281,14 -308,43 -330,67 -325,65 -298,36 -271,7 -243,-22 -216,-52 -189,-81 -166,-102 -179,-88 -206,-59 -234,-30 -261,0 -288,29 -316,58 -327,71 -306,51 -278,22 -251,-8 -224,-37 -197,-66 -169,-95 -160,-102 -187,-73 -214,-44 -241,-15 -269,14 -296,44 -325,75 -313,66 -286,36 -259,7 -232,-22 -204,-51 -177,-81 -155,-102 -167,-88 -194,-59 -222,-29 -249,0 -276,29 -304,58 -323,79 -294,51 -266,22 -239,-7 -212,-37 -185,-66 -157,-95 -149,-101 -175,-73 -202,-44 -229,-15 -257,15 -284,44 -311,73 -320,83 -301,66 -274,36 -247,7 -220,-22 -192,-51 -165,-81 -143,-101 -155,-88 -183,-59 -210,-29 -237,0 -264,29 -292,58 -317,86 -309,80 -282,51 -255,22 -227,-7 -200,-37 -173,-66 -145,-95 -138,-100 -163,-73 -190,-44 -217,-15 -245,15 -272,44 -299,73 -315,90 -289,66 -262,37 -235,7 -208,-22 -180,-51 -153,-80 -132,-100 -143,-88 -171,-58 -198,-29 -225,0 -252,29 -280,59 -307,88 -312,93 -297,81 -270,51 -243,22 -215,-7 -188,-36 -161,-66 -133,-95 -126,-99 -151,-73 -178,-44 -206,-14 -233,15 -260,44 -287,73 -309,97 -305,95 -278,66 -250,37 -223,8 -196,-22 -168,-51 -141,-80 -121,-99 -131,-87 -159,-58 -186,-29 -213,0 -240,30 -268,59 -295,88 -306,100 -285,81 -258,52 -231,22 -203,-7 -176,-36 -149,-65 -122,-95 -115,-98 -139,-73 -166,-43 -194,-14 -221,15 -248,44 -275,74 -303,103 -293,96 -266,66 -238,37 -211,8 -184,-21 -156,-51 -129,-80 -113,-94 -119,-87 -147,-58 -174,-29 -201,1 -229,30 -256,59 -283,88 -299,106 -273,81 -246,52 -219,23 -191,-7 -164,-36 -137,-65 -114,-87 -127,-72 -154,-43 -182,-14 -209,15 -236,45 -263,74 -291,103 -296,108 -281,96 -254,67 -226,37 -199,8 -172,-21 -145,-50 -117,-80 -113,-81 -135,-58 -162,-28 -189,1 -217,30 -244,59 -271,89 -292,111 -261,81 -234,52 -207,23 -180,-7 -152,-36 -125,-65 -113,-75 -115,-72 -142,-43 -170,-14 -197,15 -224,45 -252,74 -279,103 -289,114 -269,96 -242,67 -214,37 -187,8 -160,-21 -133,-50 -112,-69 -123,-58 -150,-28 -177,1 -205,30 -232,59 -259,89 -284,116 -277,111 -249,81 -222,52 -195,23 -168,-6 -140,-36 -112,-63 -130,-43 -158,-14 -185,16 -212,45 -240,74 -267,103 -280,117 -257,96 -230,67 -203,38 -175,8 -148,-21 -121,-50 -111,-57 -138,-28 -165,1 -193,30 -220,60 -247,89 -275,119 -265,111 -237,82 -210,52 -183,23 -156,-6 -128,-35 -111,-51 -119,-43 -146,-13 -173,16 -200,45 -228,74 -255,104 -271,121 -245,96 -218,67 -191,38 -163,9 -136,-21 -111,-44 -126,-28 -153,1 -181,31 -208,60 -235,89 -263,118 -266,122 -253,111 -226,82 -198,53 -171,23 -144,-6 -116,-35 -112,-37 -134,-13 -161,16 -188,45 -216,75 -243,104 -261,123 -233,97 -206,67 -179,38 -151,9 -124,-20 -112,-30 -114,-28 -142,2 -169,31 -196,60 -223,89 -251,119 -256,124 -241,111 -214,82 -186,53 -159,24 -132,-6 -113,-23 -122,-13 -149,16 -176,46 -204,75 -231,104 -251,125 -221,97 -194,68 -167,38 -139,9 -114,-15 -130,2 -157,31 -184,60 -211,90 -239,119 -245,126 -229,111 -202,82 -174,53 -147,24 -120,-6 -115,-7 -137,16 -165,46 -192,75 -219,104 -240,127 -209,97 -182,68 -155,38 -127,9 -116,0 -145,31 -172,60 -200,90 -227,119 -234,127 -217,112 -190,82 -162,53 -135,24 -118,9 -125,17 -153,46 -180,75 -207,104 -228,127 -197,97 -170,68 -143,39 -119,17 -133,31 -160,61 -188,90 -215,119 -222,127 -205,112 -178,83 -150,53 -123,24 -121,25 -141,46 -168,75 -195,105 -215,126 -185,97 -158,68 -131,39 -122,30 -124,34 -148,61 -176,90 -203,119 -208,125 -193,112 -166,83 -139,54 -125,39 -127,44 -129,46 -156,76 -183,105 -199,122 -173,98 -146,68 -128,49 -130,54 -136,61 -164,90 -190,118 -184,115 -181,112 -154,83 -133,61 -136,68 -144,76 -171,105 -177,111 -168,105 -162,98 -140,74 -147,84 -154,93 -155,94 -154,93 -155,94" /><polyline class="right-eye" stroke="red" points="132,-21 135,-20 132,-21 148,-13 165,-9 181,-17 194,-28 200,-44 201,-62 194,-78 184,-92 203,-92 221,-92 240,-91 259,-90 278,-89 296,-86 315,-83 334,-82 352,-78 350,-59 349,-39 347,-20 345,0 342,19 337,38 330,56 321,73 308,88 294,101 276,110 257,114 238,116 218,115 200,110 183,100 168,88 156,72 147,55 141,37 136,18 134,-2 132,-21 138,-5 144,12 150,28 156,45 162,61 168,78 174,94 174,94 165,79 157,65 149,51 140,36 145,41 175,67 205,94 229,116 243,115 257,114 239,98 210,71 180,44 150,17 134,3 132,-21 148,-10 164,2 180,13 196,25 212,36 228,47 243,36 250,30 252,21 256,3 261,-15 265,-23 273,-28 289,-38 304,-48 320,-58 336,-68 352,-78 352,-78 334,-81 315,-83 343,-59 350,-52 349,-39 348,-26 338,-36 308,-62 279,-89 262,-90 246,-91 273,-66 303,-39 333,-12 345,-1 343,11 341,23 328,11 298,-16 269,-42 239,-69 213,-92 184,-92 190,-87 184,-92 190,-87 191,-84 204,-73 234,-46 264,-19 293,8 323,34 335,45 323,34 293,8 264,-19 234,-46 204,-73 191,-84 199,-67 202,-58 201,-48 229,-23 259,4 289,31 318,58 325,64 320,73 314,81 284,54 254,28 224,1 193,-27 185,-21 176,-15 190,-3 219,24 249,51 279,78 300,96 291,102 282,108 274,101 244,74 215,47 185,21 155,-6 147,-14 132,-21 119,-27 119,-31 120,-31 119,-29 122,-29 119,-26 130,-31 121,-21 135,-30 122,-16 127,-18 139,-28 123,-10 143,-26 130,-11 123,-4 139,-18 147,-24 124,2 132,-3 151,-22 142,-11 125,8 151,-18 156,-20 134,4 125,14 144,-3 161,-19 154,-11 126,20 137,12 165,-20 170,-22 146,4 127,25 128,28 130,26 156,-3 174,-24 181,-29 194,-43 207,-58 214,-65 215,-74 201,-86 183,-94 164,-99 171,-100 167,-96 178,-101 170,-92 184,-102 176,-93 173,-89 191,-102 176,-86 197,-102 188,-93 179,-83 203,-102 182,-80 191,-85 208,-102 200,-93 185,-75 214,-102 193,-78 187,-71 203,-85 220,-101 212,-93 189,-67 195,-70 226,-101 205,-78 190,-62 215,-85 232,-101 224,-93 197,-63 192,-57 207,-70 238,-101 217,-78 191,-49 200,-55 226,-85 243,-101 236,-93 209,-63 188,-39 176,-26 164,-12 153,2 141,16 129,30 139,19 166,-11 192,-40 219,-70 249,-100 229,-78 202,-48 175,-18 148,12 129,33 158,4 185,-26 212,-55 238,-85 255,-100 248,-92 221,-63 195,-33 168,-3 141,26 131,38 151,19 178,-11 204,-40 231,-70 260,-99 241,-78 214,-48 187,-18 160,12 132,43 143,34 170,4 197,-26 224,-55 250,-85 266,-99 260,-92 233,-63 207,-33 180,-3 153,26 134,48 163,19 190,-11 216,-40 243,-70 272,-99 253,-78 226,-48 199,-18 172,12 146,41 136,53 155,34 182,4 209,-26 236,-55 262,-85 278,-98 272,-92 245,-63 219,-33 192,-3 165,26 138,57 148,49 175,19 202,-11 228,-40 255,-70 283,-98 265,-78 238,-48 211,-18 184,12 158,41 139,62 142,62 167,34 194,4 221,-26 248,-55 274,-85 289,-97 284,-92 257,-63 231,-33 204,-3 177,26 150,56 141,66 160,49 187,19 213,-11 240,-40 267,-70 294,-96 277,-78 250,-48 223,-18 196,12 170,41 143,71 153,64 179,34 206,4 233,-26 260,-55 286,-85 299,-95 296,-92 269,-63 243,-33 216,-3 189,26 162,56 146,75 172,49 199,19 225,-11 252,-40 279,-70 304,-94 289,-78 262,-48 235,-18 208,12 182,41 155,71 148,78 165,64 191,34 218,4 245,-26 272,-55 298,-85 309,-93 281,-63 255,-33 228,-3 201,27 174,56 151,82 157,79 184,49 211,19 237,-11 264,-40 291,-70 315,-93 301,-78 274,-48 247,-18 220,12 194,41 167,71 153,86 177,64 203,34 230,4 257,-25 284,-55 310,-85 320,-93 293,-63 267,-33 240,-3 213,27 186,56 159,86 156,90 169,79 196,49 223,19 249,-11 276,-40 303,-70 326,-92 313,-77 286,-48 259,-18 232,12 206,41 179,71 159,93 189,64 215,34 242,4 269,-25 296,-55 322,-85 332,-92 305,-63 278,-33 252,-3 225,27 198,56 171,86 162,96 181,79 208,49 235,19 261,-11 288,-40 315,-70 337,-91 325,-77 298,-48 271,-18 244,12 218,41 191,71 165,99 174,93 200,64 227,34 254,4 281,-25 308,-55 334,-85 343,-91 317,-63 290,-33 264,-3 237,27 210,56 183,86 169,102 193,79 220,49 247,19 273,-11 300,-40 327,-70 348,-90 337,-77 310,-48 283,-18 256,12 230,41 203,71 176,101 172,105 186,93 212,64 239,34 266,4 293,-25 320,-55 346,-85 352,-88 329,-63 302,-33 276,-3 249,27 222,56 195,86 176,108 205,79 232,49 259,19 285,-11 312,-40 339,-70 357,-86 349,-77 322,-48 295,-18 268,12 242,41 215,71 188,101 179,111 198,94 224,64 251,34 278,4 305,-25 332,-55 361,-84 341,-63 314,-33 288,-3 261,27 234,56 207,86 183,113 190,108 217,79 244,49 271,19 297,-11 324,-40 351,-70 362,-79 360,-76 334,-48 307,-18 280,12 254,42 227,71 200,101 187,115 210,94 236,64 263,34 290,4 317,-25 343,-55 361,-71 353,-63 326,-33 300,-3 273,27 246,56 219,86 191,117 202,108 229,79 256,49 283,19 309,-11 336,-40 361,-64 346,-48 319,-18 292,12 265,42 239,71 212,101 195,119 222,94 248,64 275,34 302,4 329,-25 355,-55 360,-57 338,-33 312,-3 285,27 258,56 231,86 205,116 200,121 214,108 241,79 268,49 295,19 321,-10 348,-40 360,-50 358,-48 331,-18 304,12 277,42 251,71 224,101 205,122 234,94 260,64 287,34 314,4 341,-25 359,-43 350,-33 324,-3 297,27 270,56 243,86 217,116 210,124 226,108 253,79 280,49 307,19 333,-10 359,-36 343,-18 316,12 289,42 263,71 236,101 214,125 246,94 272,64 299,34 326,4 353,-25 358,-28 336,-3 309,27 282,56 255,86 229,116 220,125 238,108 265,79 292,49 319,19 345,-10 357,-21 355,-18 328,12 301,42 275,71 248,101 226,126 231,123 258,94 284,64 311,34 338,4 357,-13 348,-3 321,27 294,56 267,86 241,116 232,126 250,108 277,79 304,49 330,19 356,-6 340,12 313,42 287,71 260,101 238,126 243,123 270,94 296,64 323,34 350,4 355,2 333,27 306,56 279,86 252,116 244,125 262,109 289,79 316,49 342,19 354,10 352,12 325,42 299,71 272,101 251,125 256,122 282,94 308,64 335,34 353,18 345,27 318,57 291,86 264,116 257,124 274,109 301,79 328,49 351,27 337,42 311,71 284,101 264,123 294,94 320,64 347,34 349,32 348,37 330,57 303,86 276,116 271,122 286,109 313,79 340,49 346,42 344,47 323,71 296,101 279,120 306,94 332,64 342,53 340,59 315,86 288,117 293,114 298,109 325,79 336,66 331,75 308,101 300,110 312,100 313,99 312,99 312,100" /><polyline  stroke="white" points="-303,-83 -302,-80 -303,-83 -295,-65 -292,-56 -294,-46 -306,-32 -316,-30 -325,-32 -339,-46 -337,-65 -322,-77 -303,-83 -316,-72 -328,-60 -341,-49 -341,-49 -337,-65 -324,-76 -324,-48 -324,-32 -308,-31 -308,-60 -308,-82 -303,-83 -297,-67 -291,-52 -291,-52 -291,-52 -303,-83 -319,-86 -311,-86 -311,-86 -308,-86 -321,-86 -329,-84 -297,-82 -323,-82 -332,-82 -311,-80 -292,-78 -299,-78 -338,-78 -327,-76 -288,-74 -315,-74 -343,-74 -303,-72 -285,-70 -291,-70 -331,-70 -346,-70 -319,-68 -283,-66 -307,-66 -349,-66 -335,-64 -295,-64 -281,-62 -323,-62 -350,-62 -311,-60 -280,-58 -299,-58 -339,-58 -351,-58 -327,-56 -287,-56 -279,-54 -315,-54 -352,-54 -343,-52 -303,-52 -279,-50 -291,-50 -331,-50 -352,-50 -319,-48 -280,-46 -307,-46 -347,-46 -351,-46 -335,-44 -295,-44 -282,-42 -323,-42 -351,-42 -311,-40 -284,-38 -299,-38 -339,-38 -348,-38 -327,-36 -286,-34 -315,-34 -345,-34 -340,-32 -303,-32 -290,-30 -331,-30 -341,-30 -319,-28 -294,-26 -307,-26 -336,-26 -301,-22 -323,-22 -328,-22 -316,-20 -313,-20 -312,-20 -316,-20" /><polyline  stroke="white" points="166,-85 168,-83 166,-85 177,-71 184,-55 176,-39 160,-32 151,-32 144,-37 132,-51 136,-68 149,-80 166,-85 155,-74 143,-62 132,-51 132,-51 139,-64 145,-77 145,-48 145,-36 158,-32 158,-60 158,-83 166,-85 175,-70 184,-55 177,-45 171,-36 171,-72 171,-79 166,-85 157,-90 163,-90 163,-90 166,-90 153,-90 166,-90 173,-88 145,-88 157,-86 180,-84 169,-84 138,-84 141,-82 185,-80 153,-80 133,-80 165,-78 188,-76 177,-76 137,-76 129,-76 149,-74 191,-72 161,-72 126,-72 133,-70 173,-70 193,-68 185,-68 145,-68 124,-68 157,-66 195,-64 169,-64 129,-64 123,-64 141,-62 181,-62 196,-60 153,-60 121,-60 125,-58 165,-58 196,-56 177,-56 137,-56 121,-56 149,-54 189,-54 196,-52 161,-52 121,-52 133,-50 173,-50 194,-48 185,-48 145,-48 122,-48 157,-46 192,-44 169,-44 129,-44 123,-44 141,-42 181,-42 190,-40 153,-40 126,-40 165,-38 189,-36 177,-36 137,-36 128,-36 149,-34 185,-32 161,-32 132,-32 173,-30 180,-28 145,-28 138,-28 157,-26 173,-24 169,-24 146,-24 161,-22 162,-22 164,-22 159,-22 161,-22 159,-22 161,-22" /><polyline class="left-outline"  points="-351,-85 -351,-85 -348,-81 -363,-83 -361,-65 -360,-47 -350,-33 -340,-19 -359,-29 -356,-10 -354,8 -351,27 -344,43 -338,58 -331,74 -319,89 -307,104 -287,118 -271,123 -255,128 -234,128 -212,128 -197,123 -181,118 -159,102 -147,87 -136,71 -128,55 -121,38 -116,17 -111,-4 -109,-26 -107,-48 -105,-70 -104,-92 -116,-93 -120,-96 -98,-97 -121,-93 -99,-92 -121,-91 -99,-88 -121,-88 -99,-83 -122,-83 -100,-79 -122,-79 -100,-75 -122,-74 -100,-70 -123,-70 -101,-66 -123,-65 -101,-61 -124,-61 -102,-57 -124,-57 -102,-52 -124,-52 -102,-48 -125,-48 -103,-44 -125,-43 -103,-39 -126,-39 -103,-35 -126,-34 -104,-30 -126,-30 -104,-26 -127,-26 -105,-21 -127,-22 -105,-17 -127,-17 -105,-13 -128,-13 -106,-8 -128,-9 -106,-4 -129,-5 -107,1 -129,-1 -108,5 -129,3 -109,9 -130,7 -110,14 -132,11 -111,18 -133,15 -112,22 -134,19 -113,27 -135,23 -114,31 -136,26 -115,35 -137,30 -116,40 -138,34 -118,44 -139,38 -120,48 -140,42 -121,52 -142,46 -123,56 -144,49 -125,60 -146,52 -127,64 -147,56 -129,68 -149,59 -131,72 -151,62 -133,76 -153,66 -136,80 -155,69 -138,83 -157,72 -141,87 -160,75 -144,90 -162,78 -146,94 -164,81 -149,97 -167,84 -152,101 -169,87 -155,104 -171,90 -158,107 -174,92 -161,110 -177,94 -165,113 -180,95 -169,115 -183,97 -172,118 -186,99 -176,120 -189,101 -180,123 -192,103 -184,124 -195,105 -188,126 -198,107 -192,127 -201,107 -197,128 -205,108 -201,130 -208,109 -205,131 -212,109 -209,132 -215,110 -214,133 -219,110 -218,133 -223,111 -223,133 -226,111 -227,133 -230,112 -231,133 -234,113 -236,133 -238,113 -240,133 -241,112 -245,133 -245,112 -249,133 -249,111 -254,133 -252,110 -258,133 -256,110 -262,131 -259,109 -267,130 -263,109 -271,129 -266,108 -275,127 -270,106 -279,126 -273,104 -284,124 -276,103 -288,123 -279,101 -292,121 -282,100 -295,118 -285,98 -299,116 -288,97 -303,113 -291,95 -306,111 -293,92 -310,108 -296,89 -313,105 -298,86 -316,101 -301,84 -318,98 -303,81 -321,94 -305,78 -324,91 -308,76 -327,87 -310,73 -330,84 -313,70 -332,80 -315,67 -335,77 -317,63 -337,73 -319,60 -339,69 -321,57 -340,64 -322,53 -342,60 -324,50 -344,56 -326,46 -346,52 -327,43 -347,48 -328,39 -349,44 -329,35 -351,40 -330,31 -352,36 -331,27 -354,32 -332,23 -356,27 -333,19 -357,23 -334,15 -357,19 -335,11 -358,14 -336,7 -359,10 -337,4 -359,5 -338,0 -360,1 -338,-3 -361,-3 -339,-7 -362,-8 -340,-11 -362,-12 -341,-15 -363,-17 -340,-19 -363,-21 -338,-23 -364,-25 -337,-27 -364,-30 -336,-31 -364,-34 -335,-35 -364,-39 -334,-39 -365,-43 -336,-43 -365,-48 -338,-47 -365,-52 -338,-50 -365,-57 -338,-53 -366,-62 -338,-55 -366,-66 -338,-57 -366,-71 -338,-59 -366,-77 -337,-60 -367,-82 -336,-61 -364,-85 -335,-62 -357,-85 -334,-64 -334,-64 -351,-85 -348,-81 -326,-82 -305,-83 -294,-86 -284,-79 -275,-64 -275,-49 -284,-25 -297,-14 -314,-10 -340,-19 -341,-14 -334,-41 -339,-13 -330,-37 -335,-12 -327,-33 -332,-11 -325,-31 -327,-10 -322,-30 -323,-8 -319,-30 -319,-7 -316,-30 -315,-6 -314,-29 -310,-6 -312,-29 -306,-7 -310,-30 -302,-8 -308,-31 -298,-9 -306,-32 -293,-11 -304,-33 -290,-14 -302,-34 -286,-16 -300,-35 -283,-19 -298,-36 -280,-22 -297,-38 -278,-27 -296,-40 -276,-31 -295,-42 -274,-35 -294,-44 -273,-39 -293,-46 -271,-43 -292,-48 -270,-47 -292,-51 -270,-52 -292,-53 -270,-56 -293,-55 -270,-61 -293,-57 -271,-65 -294,-59 -273,-69 -294,-61 -275,-73 -294,-63 -277,-77 -295,-65 -279,-81 -297,-66 -282,-84 -298,-67 -286,-86 -300,-69 -290,-89 -302,-70 -294,-90 -304,-72 -300,-89 -306,-74 -305,-88 -309,-74 -309,-87 -312,-75 -314,-87 -316,-75 -318,-87 -319,-75 -323,-87 -323,-74 -327,-86 -326,-73 -332,-86 -328,-71 -336,-86 -330,-69 -341,-86 -332,-67 -346,-85 -333,-65 -351,-85 -350,-84 -343,-77 -344,-82 -363,-74 -382,-75 -399,-83 -399,-83 -420,-104 -416,-106 -419,-102 -413,-105 -419,-97 -410,-104 -416,-93 -407,-103 -413,-90 -403,-101 -410,-87 -399,-101 -407,-84 -396,-100 -403,-81 -392,-99 -400,-78 -389,-99 -396,-76 -386,-98 -392,-74 -383,-98 -388,-72 -380,-97 -383,-71 -377,-97 -379,-70 -374,-97 -375,-70 -371,-96 -370,-69 -368,-96 -366,-69 -365,-96 -361,-70 -362,-97 -357,-71 -359,-97 -353,-72 -355,-98 -349,-74 -351,-99 -344,-76 -347,-100 -340,-77 -343,-100 -336,-78 -339,-101 -332,-79 -334,-101 -328,-80 -330,-102 -324,-81 -325,-102 -320,-81 -321,-103 -316,-81 -316,-103 -312,-82 -312,-104 -308,-82 -308,-104 -303,-82 -303,-105 -299,-83 -299,-105 -294,-83 -294,-106 -290,-84 -290,-106 -286,-84 -286,-107 -281,-84 -281,-107 -277,-85 -277,-108 -272,-85 -272,-108 -268,-85 -268,-109 -264,-86 -264,-109 -259,-86 -259,-110 -255,-87 -255,-110 -251,-87 -250,-111 -246,-87 -246,-111 -242,-88 -241,-111 -238,-88 -237,-111 -234,-88 -232,-111 -230,-89 -228,-111 -225,-89 -224,-111 -221,-89 -219,-111 -217,-89 -215,-111 -212,-89 -210,-111 -208,-89 -206,-111 -204,-89 -201,-111 -199,-89 -197,-111 -195,-89 -192,-111 -190,-89 -188,-111 -186,-88 -184,-111 -182,-88 -179,-111 -177,-88 -175,-111 -173,-88 -170,-111 -169,-88 -166,-111 -165,-88 -161,-110 -160,-88 -157,-110 -156,-88 -153,-109 -152,-88 -148,-109 -147,-88 -144,-108 -143,-87 -139,-108 -139,-87 -135,-107 -134,-87 -130,-107 -130,-87 -126,-106 -126,-86 -122,-106 -121,-86 -117,-105 -117,-86 -113,-105 -112,-85 -108,-104 -108,-85 -104,-104 -104,-85 -99,-103 -100,-84 -95,-103 -95,-84 -91,-102 -91,-84 -86,-101 -87,-84 -82,-99 -83,-85 -78,-96 -78,-85 -74,-94 -74,-85 -72,-93 -69,-85 -70,-88 -69,-85" /><polyline class="right-outline"  points="133,-96 134,-93 133,-96 135,-91 158,-91 181,-91 196,-74 200,-57 195,-40 182,-24 160,-16 134,-23 131,-19 141,-42 133,-18 143,-40 138,-17 145,-39 142,-16 148,-37 146,-15 151,-35 150,-13 154,-34 155,-12 156,-35 159,-11 159,-35 164,-12 161,-35 168,-13 164,-36 172,-15 166,-36 176,-16 169,-36 180,-18 170,-38 184,-20 172,-39 188,-23 173,-41 191,-26 175,-43 193,-30 177,-44 196,-33 178,-46 199,-37 180,-48 200,-41 180,-50 201,-45 180,-52 203,-49 180,-54 204,-54 180,-57 204,-58 180,-59 203,-63 180,-61 203,-67 181,-63 202,-71 180,-65 200,-75 179,-66 198,-79 178,-68 195,-83 177,-70 192,-86 176,-72 189,-89 174,-74 186,-93 172,-75 182,-95 170,-76 177,-95 168,-78 172,-95 166,-79 168,-95 163,-79 163,-95 160,-80 159,-95 157,-80 154,-95 154,-80 150,-95 150,-79 145,-95 147,-78 141,-95 145,-76 136,-96 143,-74 132,-95 142,-73 126,-96 141,-71 119,-98 140,-70 114,-98 139,-69 109,-96 138,-68 107,-92 137,-68 106,-88 136,-66 106,-82 136,-65 106,-77 136,-63 106,-72 136,-61 107,-67 136,-59 107,-63 135,-57 107,-58 135,-54 108,-54 136,-50 108,-49 138,-46 108,-45 140,-42 109,-40 139,-38 109,-36 137,-34 109,-31 135,-29 110,-27 134,-25 110,-22 132,-20 110,-18 132,-16 111,-14 132,-12 111,-9 133,-8 111,-5 134,-5 112,0 134,-2 113,4 135,2 114,8 136,6 115,13 136,10 117,17 137,14 118,21 138,18 119,25 139,22 120,30 140,26 121,34 142,30 122,38 143,34 124,43 145,37 125,47 146,41 126,51 148,44 127,56 149,48 129,60 151,52 131,63 152,55 134,67 154,59 136,71 156,62 138,75 159,65 141,79 161,68 143,82 163,71 145,86 165,74 148,90 168,77 150,94 170,80 153,97 172,84 156,101 174,86 159,104 176,89 162,107 179,91 165,110 182,94 169,113 184,96 172,116 187,98 176,118 190,100 180,120 192,102 184,122 195,104 188,123 199,105 192,125 202,106 196,127 205,107 200,128 209,108 204,130 212,109 209,132 216,110 213,133 219,111 217,133 223,112 222,133 227,112 226,133 231,112 231,134 234,112 235,134 238,112 240,134 241,112 244,134 245,112 249,135 249,112 253,134 252,112 257,133 256,112 262,133 260,111 266,132 263,109 270,131 267,108 275,130 270,107 279,129 273,106 283,128 276,104 287,126 279,103 291,124 283,102 295,122 286,101 299,120 289,99 303,118 292,98 307,115 295,95 310,112 297,93 313,109 300,90 316,105 302,88 319,102 304,85 323,99 307,83 326,96 309,80 329,93 312,77 332,89 315,74 334,86 317,71 336,82 319,67 338,78 321,64 341,74 323,61 343,70 324,58 345,66 326,55 347,62 328,51 349,58 329,47 351,54 330,44 353,50 332,40 354,46 333,36 355,42 334,32 356,37 335,28 357,33 337,24 359,29 338,21 360,24 339,17 361,20 340,13 362,16 342,9 363,11 343,5 364,7 344,1 365,3 344,-3 366,-1 344,-7 367,-6 345,-11 367,-10 345,-15 368,-15 345,-19 368,-19 346,-24 369,-24 346,-28 369,-28 347,-32 369,-32 347,-37 370,-37 347,-41 370,-41 348,-45 370,-46 348,-50 371,-50 349,-54 371,-55 349,-59 371,-59 349,-63 372,-63 350,-68 372,-68 350,-72 372,-72 351,-76 373,-77 373,-79 373,-79 358,-81 361,-81 358,-81 343,-76 343,-76 364,-69 384,-70 402,-79 420,-95 416,-101 416,-101 417,-106 420,-101 414,-105 419,-96 411,-104 416,-92 407,-102 413,-89 403,-101 410,-86 399,-100 406,-83 396,-100 403,-80 392,-99 399,-77 389,-99 395,-75 385,-98 391,-73 382,-98 387,-71 379,-97 382,-70 377,-97 378,-70 374,-96 374,-69 371,-96 369,-69 368,-95 365,-69 365,-96 360,-70 362,-97 356,-72 358,-98 352,-73 355,-98 348,-75 351,-99 343,-76 346,-100 339,-77 342,-101 335,-78 338,-101 332,-79 333,-102 328,-80 329,-102 323,-81 324,-103 319,-81 320,-103 315,-81 316,-104 311,-82 311,-104 307,-82 307,-105 302,-83 302,-105 298,-83 298,-106 293,-83 293,-106 289,-84 289,-107 285,-84 285,-107 280,-85 280,-108 276,-85 276,-108 271,-85 271,-109 267,-86 267,-109 263,-86 262,-110 258,-86 258,-110 254,-87 254,-111 250,-87 249,-111 246,-88 245,-111 241,-88 240,-111 237,-88 236,-111 233,-89 231,-111 229,-89 227,-111 224,-89 223,-111 220,-89 218,-111 216,-89 214,-111 211,-89 209,-111 207,-89 205,-111 203,-89 200,-111 198,-89 196,-111 194,-89 191,-111 189,-88 187,-111 185,-88 183,-111 181,-88 178,-111 176,-88 174,-111 172,-88 169,-111 168,-88 165,-110 164,-88 160,-110 159,-88 156,-109 155,-88 152,-109 151,-88 147,-108 147,-88 143,-108 142,-87 139,-107 138,-87 134,-107 134,-87 130,-107 129,-86 126,-106 125,-86 121,-106 121,-86 117,-105 116,-86 113,-105 112,-85 108,-104 108,-85 104,-104 104,-85 100,-103 100,-84 95,-103 96,-84 91,-102 92,-84 87,-101 87,-84 83,-99 83,-84 79,-96 79,-85 75,-94 74,-85 72,-93 70,-85 70,-91 70,-91 68,-86 69,-89 68,-86" /><polyline   points="-223,-132 -220,-132 -223,-132 -203,-134 -184,-135 -164,-134 -144,-133 -125,-132 -105,-131 -125,-132 -105,-131 -125,-132 -144,-133 -125,-132 -144,-133 -164,-134 -144,-133 -164,-134 -184,-135 -164,-134 -184,-135 -203,-134 -184,-135 -203,-134 -223,-132 -203,-134 -223,-132 -220,-132 -223,-132" /><polyline   points="234,-132 231,-132 234,-132 214,-134 195,-135 175,-134 155,-133 136,-132 116,-131 136,-132 116,-131 136,-132 155,-133 136,-132 155,-133 175,-134 155,-133 175,-134 195,-135 175,-134 195,-135 214,-134 195,-135 214,-134 234,-132 214,-134 234,-132 231,-132 234,-132" /></svg>