<svg viewBox="-425 -150 850 300" fill="none" stroke="black" stroke-width="4"><polyline class="left-eye" stroke="red" points="-333,-26 -330,-25 -333,-26 -316,-20 -298,-22 -282,-30 -270,-45 -266,-62 -270,-80 -281,-95 -262,-90 -242,-89 -222,-89 -202,-89 -182,-87 -163,-84 -143,-81 -123,-78 -123,-58 -124,-39 -125,-19 -123,1 -125,20 -129,40 -136,58 -147,74 -160,89 -175,102 -193,111 -212,116 -231,117 -251,114 -269,107 -286,97 -300,84 -313,68 -323,52 -329,33 -332,13 -333,-6 -333,-26 -328,-8 -324,9 -319,27 -314,44 -310,62 -305,79 -281,101 -252,113 -259,106 -287,77 -315,49 -329,34 -331,22 -332,10 -313,30 -285,59 -257,88 -229,117 -210,116 -228,98 -256,69 -283,41 -311,12 -333,-11 -333,-26 -316,-15 -299,-4 -283,6 -266,17 -249,28 -232,39 -222,24 -212,9 -201,-5 -188,-17 -175,-29 -162,-41 -149,-54 -136,-66 -123,-78 -123,-68 -123,-58 -146,-82 -158,-83 -169,-85 -150,-66 -124,-38 -125,-19 -152,-47 -180,-76 -192,-88 -202,-89 -212,-89 -210,-86 -182,-58 -154,-29 -126,0 -123,3 -125,22 -128,18 -156,-10 -184,-39 -211,-68 -232,-89 -242,-89 -252,-90 -241,-78 -213,-49 -185,-21 -158,8 -129,38 -134,53 -159,27 -187,-2 -215,-31 -243,-60 -271,-89 -273,-92 -281,-95 -266,-64 -245,-41 -217,-13 -189,16 -161,45 -141,66 -150,77 -163,63 -191,35 -219,6 -246,-23 -270,-47 -277,-34 -248,-4 -220,24 -193,53 -165,82 -159,88 -169,98 -194,72 -222,43 -250,14 -278,-15 -288,-26 -303,-20 -280,4 -252,32 -224,61 -196,90 -181,105 -195,111 -198,108 -226,80 -254,51 -281,22 -309,-7 -324,-22 -333,-26 -338,-37 -339,-37 -335,-35 -339,-31 -331,-34 -340,-26 -327,-32 -340,-20 -324,-31 -338,-17 -341,-14 -328,-24 -320,-29 -341,-9 -337,-10 -316,-28 -328,-17 -341,-4 -318,-24 -312,-27 -337,-3 -341,1 -327,-10 -307,-27 -317,-17 -341,6 -336,3 -307,-24 -300,-28 -326,-4 -340,10 -316,-11 -293,-30 -306,-18 -335,10 -340,15 -340,18 -325,3 -296,-25 -288,-33 -283,-35 -272,-49 -261,-62 -251,-75 -265,-84 -281,-90 -298,-96 -292,-96 -295,-94 -287,-97 -292,-91 -281,-97 -289,-89 -275,-98 -286,-87 -270,-98 -284,-84 -273,-93 -265,-98 -282,-82 -260,-98 -272,-86 -279,-79 -262,-93 -255,-97 -277,-76 -271,-79 -250,-97 -261,-86 -276,-72 -251,-93 -244,-97 -270,-73 -274,-68 -260,-80 -239,-97 -250,-87 -273,-64 -269,-66 -240,-94 -234,-97 -259,-73 -273,-59 -249,-80 -229,-97 -239,-87 -268,-59 -273,-54 -258,-66 -230,-94 -224,-97 -248,-73 -276,-47 -267,-53 -239,-80 -219,-97 -229,-87 -257,-60 -286,-32 -315,-4 -340,20 -334,17 -305,-11 -276,-39 -248,-67 -219,-94 -214,-97 -238,-74 -266,-46 -295,-18 -324,10 -339,24 -314,3 -285,-25 -256,-53 -228,-81 -208,-97 -218,-88 -247,-60 -275,-32 -304,-4 -333,23 -338,28 -323,16 -294,-11 -265,-39 -237,-67 -203,-97 -227,-74 -256,-46 -284,-18 -313,9 -337,33 -332,30 -303,2 -274,-25 -246,-53 -217,-81 -198,-97 -207,-88 -236,-60 -265,-33 -293,-5 -322,23 -337,37 -312,16 -283,-12 -255,-40 -226,-67 -193,-96 -216,-74 -245,-47 -274,-19 -302,9 -331,37 -336,41 -321,30 -292,2 -264,-26 -235,-54 -206,-81 -189,-96 -196,-88 -225,-61 -254,-33 -283,-5 -311,23 -335,45 -330,43 -301,16 -273,-12 -244,-40 -215,-68 -184,-95 -205,-75 -234,-47 -263,-19 -292,9 -320,36 -333,49 -310,29 -282,2 -253,-26 -224,-54 -195,-82 -179,-95 -185,-89 -214,-61 -243,-33 -272,-5 -301,22 -329,50 -332,53 -319,43 -291,15 -262,-12 -233,-40 -204,-68 -175,-94 -194,-75 -223,-47 -252,-19 -281,8 -310,36 -330,56 -300,29 -271,1 -242,-27 -213,-54 -185,-82 -170,-94 -175,-89 -203,-61 -232,-34 -261,-6 -290,22 -319,50 -329,60 -309,43 -280,15 -251,-13 -222,-41 -194,-68 -165,-93 -184,-75 -212,-48 -241,-20 -270,8 -299,36 -327,63 -318,57 -289,29 -260,1 -231,-27 -203,-55 -174,-82 -161,-92 -164,-89 -193,-62 -221,-34 -250,-6 -279,22 -308,49 -325,66 -298,42 -269,15 -240,-13 -212,-41 -183,-69 -156,-92 -173,-76 -202,-48 -230,-20 -259,8 -288,35 -317,63 -323,70 -307,56 -278,28 -249,1 -221,-27 -192,-55 -163,-83 -152,-91 -182,-62 -211,-34 -239,-6 -268,21 -297,49 -321,73 -316,70 -287,42 -258,14 -230,-13 -201,-41 -172,-69 -147,-90 -162,-76 -191,-48 -220,-21 -248,7 -277,35 -306,63 -319,76 -296,56 -267,28 -239,0 -210,-28 -181,-55 -152,-83 -143,-89 -171,-62 -200,-35 -229,-7 -257,21 -286,49 -317,79 -305,70 -276,42 -248,14 -219,-14 -190,-42 -161,-69 -138,-89 -151,-76 -180,-49 -209,-21 -238,7 -266,35 -295,63 -315,82 -285,55 -256,28 -228,0 -199,-28 -170,-56 -141,-83 -134,-88 -160,-63 -189,-35 -218,-7 -247,21 -275,48 -304,76 -313,85 -294,69 -265,41 -237,14 -208,-14 -179,-42 -150,-70 -130,-87 -141,-77 -169,-49 -198,-21 -227,7 -256,34 -284,62 -310,87 -303,83 -274,55 -246,27 -217,0 -188,-28 -159,-56 -131,-84 -125,-87 -149,-63 -178,-35 -207,-7 -236,20 -265,48 -293,76 -308,90 -283,69 -255,41 -226,13 -197,-15 -168,-42 -140,-70 -121,-86 -130,-77 -158,-49 -187,-22 -216,6 -245,34 -274,62 -302,90 -305,92 -292,83 -264,55 -235,27 -206,-1 -177,-29 -149,-56 -116,-85 -139,-63 -167,-36 -196,-8 -225,20 -254,48 -283,76 -303,95 -273,69 -244,41 -215,13 -186,-15 -158,-43 -129,-70 -115,-81 -119,-77 -148,-50 -176,-22 -205,6 -234,34 -263,61 -292,89 -300,98 -282,82 -253,54 -224,27 -195,-1 -167,-29 -138,-57 -115,-76 -128,-64 -157,-36 -185,-8 -214,20 -243,47 -272,75 -298,100 -291,96 -262,68 -233,40 -204,13 -176,-15 -147,-43 -118,-71 -115,-71 -137,-50 -166,-22 -194,6 -223,33 -252,61 -281,89 -295,102 -271,82 -242,54 -213,26 -185,-1 -156,-29 -127,-57 -115,-66 -117,-64 -146,-36 -175,-8 -203,19 -232,47 -261,75 -292,104 -280,96 -251,68 -222,40 -194,12 -165,-16 -136,-43 -115,-61 -126,-50 -155,-23 -184,5 -212,33 -241,61 -270,89 -289,106 -260,82 -231,54 -203,26 -174,-2 -145,-30 -115,-56 -135,-37 -164,-9 -193,19 -221,47 -250,75 -279,102 -285,109 -269,95 -240,67 -212,40 -183,12 -154,-16 -125,-44 -114,-52 -144,-23 -173,5 -202,33 -230,60 -259,88 -282,111 -278,109 -249,81 -221,53 -192,26 -163,-2 -134,-30 -115,-46 -124,-37 -153,-9 -182,19 -211,46 -239,74 -268,102 -279,113 -258,95 -230,67 -201,39 -172,12 -143,-16 -115,-41 -133,-23 -162,5 -191,32 -220,60 -248,88 -276,114 -267,109 -239,81 -210,53 -181,25 -152,-2 -123,-30 -116,-35 -142,-10 -171,18 -200,46 -229,74 -257,102 -272,116 -248,95 -219,67 -190,39 -161,11 -132,-17 -116,-30 -123,-24 -151,4 -180,32 -209,60 -238,88 -266,115 -269,118 -256,108 -228,81 -199,53 -170,25 -141,-3 -116,-25 -132,-10 -160,18 -189,46 -218,73 -247,101 -265,119 -237,94 -208,66 -179,39 -150,11 -122,-17 -116,-20 -141,4 -169,32 -198,59 -227,87 -256,115 -261,121 -246,108 -217,80 -188,52 -159,25 -131,-3 -116,-15 -121,-10 -149,18 -178,45 -207,73 -236,101 -257,122 -226,94 -197,66 -168,38 -140,11 -115,-10 -130,4 -158,31 -187,59 -216,87 -245,115 -253,123 -235,108 -206,80 -177,52 -149,24 -120,-4 -115,-6 -139,17 -167,45 -196,73 -225,101 -249,124 -244,121 -215,94 -186,66 -158,38 -129,10 -115,-1 -119,3 -148,31 -176,59 -205,87 -234,114 -245,125 -224,107 -195,79 -167,52 -138,24 -115,4 -128,17 -157,45 -185,72 -214,100 -240,125 -233,121 -204,93 -176,65 -147,38 -118,10 -115,10 -137,31 -166,58 -194,86 -223,114 -235,126 -213,107 -185,79 -156,51 -127,24 -116,15 -146,44 -175,72 -203,100 -230,126 -222,121 -194,93 -165,65 -136,37 -116,20 -126,30 -155,58 -184,86 -212,114 -225,126 -203,107 -174,79 -145,51 -117,27 -135,44 -164,72 -193,100 -219,125 -212,120 -183,93 -154,65 -125,37 -119,33 -144,58 -173,86 -202,113 -213,125 -192,106 -163,78 -134,51 -120,40 -124,44 -153,71 -182,99 -207,124 -201,120 -172,92 -143,64 -124,48 -133,57 -162,85 -191,113 -200,121 -181,106 -152,78 -127,56 -142,71 -171,99 -191,118 -161,92 -132,64 -129,61 -133,67 -151,85 -182,114 -175,110 -170,106 -141,78 -137,74 -141,79 -151,89 -160,99 -160,98 -161,99 -161,99 -160,98 -141,79 -143,81 -141,79" /><polyline class="right-eye" stroke="red" points="131,-25 134,-24 131,-25 149,-18 168,-19 185,-27 196,-42 197,-60 190,-78 176,-91 193,-85 211,-87 229,-88 247,-88 265,-89 284,-89 302,-87 320,-86 338,-85 338,-65 338,-45 338,-25 337,-6 336,14 332,34 326,52 316,70 303,84 290,99 272,108 253,113 234,115 214,112 195,107 178,97 162,85 149,70 139,53 133,34 130,15 130,-5 131,-25 135,-8 139,10 144,27 148,44 152,62 156,79 169,87 182,95 195,103 209,111 201,104 173,76 145,47 133,36 132,24 130,12 146,29 175,57 203,85 232,115 252,113 233,95 205,67 176,38 148,10 130,-8 131,-25 146,-16 160,-7 175,2 190,11 204,20 219,29 233,38 241,22 248,5 256,-12 270,-24 283,-36 297,-48 311,-61 324,-73 338,-85 338,-75 338,-65 316,-86 305,-87 294,-88 310,-72 338,-44 338,-34 338,-24 308,-54 280,-82 272,-90 253,-88 278,-63 307,-35 335,-7 337,-4 336,14 333,12 305,-16 277,-45 248,-73 234,-88 214,-87 218,-83 247,-54 275,-26 303,2 333,32 328,47 301,21 273,-7 245,-36 217,-64 195,-86 178,-90 188,-80 176,-91 188,-80 197,-64 215,-45 243,-17 271,11 300,40 321,61 313,74 298,58 270,30 241,2 213,-27 196,-43 189,-30 212,-8 240,20 268,49 296,77 304,84 294,95 266,67 238,39 210,11 182,-18 177,-22 161,-18 180,1 208,29 236,58 265,86 283,104 268,110 263,105 235,76 206,48 178,20 150,-9 137,-22 131,-25 123,-39 123,-38 125,-38 123,-36 129,-36 122,-30 132,-35 122,-24 124,-24 136,-33 121,-19 139,-32 125,-17 121,-13 135,-25 143,-30 120,-7 126,-11 147,-29 136,-18 120,-2 146,-25 151,-28 127,-4 120,3 137,-11 156,-27 147,-18 121,8 128,3 160,-27 138,-4 121,13 148,-12 167,-28 157,-19 129,9 121,18 139,2 167,-26 174,-30 149,-5 121,22 122,25 130,16 159,-12 180,-34 182,-34 192,-48 202,-61 211,-74 195,-83 177,-86 159,-90 165,-91 162,-88 171,-92 165,-86 178,-93 168,-83 184,-94 171,-81 180,-87 189,-94 174,-79 195,-95 181,-81 176,-76 190,-88 201,-95 179,-74 206,-96 191,-81 181,-71 201,-88 212,-96 183,-68 192,-74 217,-97 202,-82 185,-65 212,-89 223,-97 193,-68 187,-61 203,-75 228,-97 213,-82 187,-57 195,-61 223,-89 233,-97 204,-68 188,-52 214,-75 239,-98 224,-83 196,-54 187,-46 205,-62 234,-90 244,-98 215,-69 187,-40 183,-37 171,-24 159,-12 147,1 134,14 122,27 140,9 168,-19 197,-48 225,-76 250,-98 235,-83 206,-55 178,-27 150,2 122,29 131,23 160,-5 188,-34 216,-62 244,-90 255,-98 226,-69 198,-41 169,-13 141,16 123,34 151,8 179,-20 207,-48 236,-76 260,-99 245,-84 217,-55 189,-27 161,1 132,30 124,38 142,22 170,-6 199,-34 227,-63 255,-91 266,-99 237,-70 208,-41 180,-13 152,15 125,42 133,36 162,8 190,-20 218,-49 246,-77 271,-99 256,-84 228,-56 200,-28 171,1 143,29 126,46 153,22 181,-6 209,-35 238,-63 266,-91 276,-99 274,-97 248,-70 219,-42 191,-14 163,15 134,43 127,50 144,36 172,7 201,-21 229,-49 257,-77 282,-99 267,-85 239,-56 211,-28 182,0 154,29 128,54 135,50 164,21 192,-7 220,-35 249,-64 277,-92 287,-99 285,-97 258,-71 230,-42 202,-14 173,14 145,42 130,58 155,35 183,7 212,-21 240,-50 268,-78 292,-99 278,-85 250,-57 221,-29 193,0 165,28 136,56 131,61 146,49 175,21 203,-7 231,-36 259,-64 288,-92 297,-99 269,-71 241,-43 213,-15 184,14 156,42 133,65 138,63 166,35 194,6 222,-22 251,-50 279,-78 301,-98 289,-86 260,-57 232,-29 204,-1 176,28 147,56 135,68 157,49 185,20 214,-8 242,-36 270,-65 298,-93 306,-97 280,-72 252,-43 223,-15 195,13 167,41 137,71 148,63 177,34 205,6 233,-22 261,-51 290,-79 310,-97 300,-86 271,-58 243,-30 215,-1 186,27 158,55 139,74 168,48 196,20 224,-8 253,-37 281,-65 309,-93 315,-97 291,-72 263,-44 234,-16 206,13 178,41 149,69 141,77 159,62 187,34 216,5 244,-23 272,-51 301,-79 320,-96 310,-87 282,-58 254,-30 225,-2 197,27 169,55 143,80 150,76 179,48 207,19 235,-9 264,-37 292,-66 320,-94 325,-96 302,-73 273,-44 245,-16 217,12 188,40 160,69 146,83 170,62 198,33 227,5 255,-23 283,-52 311,-80 330,-96 321,-87 293,-59 265,-31 236,-2 208,26 180,54 151,83 148,86 161,75 190,47 218,19 246,-9 274,-38 303,-66 335,-96 312,-73 284,-45 256,-17 228,12 199,40 171,68 150,89 181,61 209,33 237,4 266,-24 294,-52 322,-80 340,-95 332,-88 304,-59 275,-31 247,-3 219,26 191,54 162,82 153,91 172,75 200,47 229,18 257,-10 285,-38 313,-67 345,-95 323,-74 295,-45 267,-17 238,11 210,39 182,68 156,94 163,89 192,61 220,32 248,4 276,-24 305,-53 333,-81 348,-93 343,-88 314,-60 286,-32 258,-3 230,25 201,53 173,82 158,96 183,74 211,46 239,18 268,-10 296,-39 324,-67 348,-88 334,-74 306,-46 277,-18 249,11 221,39 193,67 164,95 161,99 174,88 202,60 231,32 259,3 287,-25 316,-53 344,-81 348,-83 325,-60 297,-32 269,-4 240,25 212,53 184,81 164,101 194,74 222,46 250,17 279,-11 307,-39 335,-68 348,-78 345,-75 317,-46 288,-18 260,10 232,38 203,67 175,95 167,103 185,88 213,60 241,31 270,3 298,-25 326,-54 348,-73 336,-61 308,-33 280,-4 251,24 223,52 195,81 170,105 176,102 204,73 233,45 261,17 289,-11 318,-40 346,-68 348,-68 327,-47 299,-19 271,10 243,38 214,66 186,94 173,107 196,87 224,59 252,31 281,2 309,-26 337,-54 348,-63 319,-33 290,-5 262,24 234,52 206,80 176,109 187,101 215,73 244,45 272,16 300,-12 328,-40 348,-57 338,-47 310,-19 282,9 253,37 225,66 197,94 179,111 207,87 235,59 263,30 291,2 320,-26 348,-52 329,-34 301,-5 273,23 245,51 216,80 188,108 183,113 198,101 226,72 254,44 283,16 311,-12 339,-41 348,-47 321,-20 292,9 264,37 236,65 208,93 186,115 217,86 246,58 274,30 302,1 331,-27 348,-42 340,-34 312,-6 284,23 255,51 227,79 199,107 190,116 209,100 237,72 265,44 293,15 322,-13 349,-37 332,-20 303,8 275,36 247,65 218,93 194,118 200,114 228,86 256,58 285,29 313,1 341,-27 349,-32 323,-6 295,22 266,50 238,79 210,107 197,119 219,100 248,71 276,43 304,15 333,-13 349,-27 342,-21 314,8 286,36 258,64 229,92 201,121 211,114 239,85 267,57 296,29 324,0 349,-22 334,-7 305,22 277,50 249,78 220,106 205,122 230,99 259,71 287,43 315,14 343,-14 348,-16 325,7 297,35 268,64 240,92 212,120 209,123 222,113 250,85 278,57 306,28 335,0 348,-11 344,-7 316,21 288,49 260,78 231,106 214,124 241,99 269,70 298,42 326,14 348,-5 336,7 307,35 279,63 251,91 223,120 218,125 232,113 261,84 289,56 317,28 347,0 327,21 299,49 270,77 242,105 222,125 252,98 280,70 308,42 337,13 347,6 318,34 290,63 262,91 233,119 227,125 243,112 271,84 300,56 328,27 346,11 338,20 309,48 281,77 253,105 232,126 263,98 291,69 319,41 346,17 329,34 301,62 272,90 244,119 237,126 254,112 282,83 311,55 339,27 345,23 320,48 292,76 264,104 242,126 274,97 302,69 330,41 344,30 340,33 312,62 283,90 255,118 249,125 265,111 293,83 321,55 342,36 331,47 303,76 275,104 255,124 284,97 313,68 340,44 322,61 294,89 266,118 261,123 276,111 304,82 332,54 336,52 314,75 285,103 269,120 295,96 323,68 335,57 332,62 305,89 277,117 286,110 315,82 327,69 323,76 296,103 287,112 295,105 304,98 303,98 295,105 297,103 295,105" /><polyline  stroke="white" points="-285,-80 -285,-77 -285,-80 -283,-62 -287,-46 -302,-37 -310,-38 -317,-44 -325,-58 -323,-67 -318,-73 -311,-80 -303,-80 -285,-80 -299,-71 -312,-63 -326,-54 -326,-54 -319,-67 -311,-80 -311,-46 -311,-39 -297,-39 -297,-58 -297,-80 -285,-80 -283,-68 -282,-57 -282,-57 -282,-57 -285,-80 -302,-89 -299,-89 -299,-89 -296,-89 -309,-89 -296,-89 -289,-87 -294,-87 -316,-87 -283,-83 -310,-83 -323,-83 -298,-81 -278,-79 -286,-79 -328,-79 -314,-77 -275,-75 -302,-75 -332,-75 -330,-73 -290,-73 -273,-71 -278,-71 -318,-71 -335,-71 -306,-69 -271,-67 -294,-67 -336,-67 -322,-65 -282,-65 -270,-63 -310,-63 -337,-63 -298,-61 -269,-59 -286,-59 -326,-59 -338,-59 -314,-57 -274,-57 -269,-55 -302,-55 -338,-55 -330,-53 -290,-53 -271,-51 -278,-51 -318,-51 -337,-51 -306,-49 -272,-47 -294,-47 -336,-47 -322,-45 -282,-45 -274,-43 -310,-43 -334,-43 -298,-41 -277,-39 -286,-39 -326,-39 -331,-39 -314,-37 -281,-35 -302,-35 -327,-35 -290,-33 -286,-31 -321,-31 -316,-29 -306,-29 -290,-29 -300,-27 -301,-27 -300,-27 -301,-27 -300,-27" /><polyline  stroke="white" points="169,-81 170,-78 169,-81 176,-65 179,-57 178,-49 166,-36 149,-36 138,-48 139,-65 152,-76 169,-81 158,-72 147,-62 136,-53 136,-53 143,-64 151,-76 151,-46 151,-36 165,-36 165,-58 165,-80 169,-81 175,-67 180,-54 180,-54 180,-54 169,-81 157,-85 162,-85 162,-85 165,-85 153,-85 165,-85 172,-83 146,-83 158,-81 179,-79 170,-79 139,-79 142,-77 183,-75 154,-75 134,-75 166,-73 186,-71 178,-71 138,-71 131,-71 150,-69 189,-67 162,-67 128,-67 134,-65 174,-65 190,-63 186,-63 146,-63 127,-63 158,-61 192,-59 170,-59 130,-59 125,-59 142,-57 182,-57 192,-55 154,-55 125,-55 166,-53 192,-51 178,-51 138,-51 125,-51 150,-49 190,-47 162,-47 126,-47 134,-45 174,-45 188,-43 146,-43 127,-43 158,-41 186,-39 170,-39 130,-39 142,-37 182,-37 183,-35 154,-35 134,-35 166,-33 179,-31 138,-31 150,-29 172,-27 162,-27 146,-27 159,-25 161,-25 159,-25" /><polyline class="left-outline"  points="-109,-124 -112,-125 -109,-124 -126,-129 -144,-133 -163,-135 -181,-135 -163,-135 -181,-135 -163,-135 -144,-133 -163,-135 -144,-133 -126,-129 -144,-133 -126,-129 -109,-124 -126,-129 -109,-124 -112,-125 -109,-124" /><polyline class="right-outline"  points="183,-135 180,-135 183,-135 165,-135 146,-133 128,-129 111,-124 128,-129 111,-124 128,-129 146,-133 128,-129 146,-133 165,-135 146,-133 165,-135 183,-135 165,-135 183,-135 180,-135 183,-135" /><polyline   points="-375,-84 -375,-87 -375,-84 -375,-82 -375,-87 -349,-88 -334,-83 -319,-77 -310,-83 -295,-81 -295,-76 -274,-80 -274,-80 -295,-76 -269,-81 -293,-73 -267,-77 -291,-71 -265,-73 -289,-68 -264,-69 -287,-66 -264,-64 -286,-63 -263,-60 -287,-60 -263,-55 -287,-58 -264,-51 -287,-55 -265,-46 -287,-53 -266,-42 -288,-50 -268,-38 -289,-49 -271,-35 -291,-48 -273,-31 -292,-46 -276,-28 -294,-45 -280,-25 -295,-44 -284,-23 -297,-43 -288,-21 -298,-42 -292,-19 -300,-40 -296,-18 -302,-40 -300,-17 -305,-40 -305,-17 -307,-40 -309,-18 -310,-40 -314,-19 -313,-42 -318,-20 -315,-43 -322,-22 -317,-44 -327,-23 -319,-47 -319,-47 -329,-24 -333,-26 -324,-48 -329,-58 -324,-72 -345,-79 -350,-83 -319,-72 -350,-81 -320,-71 -350,-76 -320,-69 -350,-72 -321,-68 -350,-68 -322,-64 -350,-64 -324,-59 -350,-60 -323,-55 -350,-55 -321,-50 -350,-51 -320,-46 -350,-47 -321,-42 -350,-42 -323,-38 -350,-38 -325,-34 -350,-33 -327,-30 -350,-29 -328,-26 -350,-25 -329,-21 -350,-20 -329,-17 -350,-16 -329,-13 -350,-12 -328,-9 -350,-7 -328,-5 -350,-3 -328,-2 -350,2 -328,2 -349,6 -328,6 -348,10 -327,10 -348,15 -327,14 -347,19 -327,18 -347,24 -326,22 -346,28 -325,26 -345,32 -324,30 -345,37 -323,33 -344,41 -322,37 -344,46 -321,40 -342,50 -320,44 -340,54 -319,48 -338,58 -318,51 -336,62 -316,54 -334,66 -314,57 -332,70 -312,60 -330,74 -310,63 -328,78 -308,66 -326,81 -306,69 -323,85 -303,72 -319,88 -301,75 -316,91 -299,78 -313,94 -296,80 -310,97 -293,83 -307,100 -290,85 -303,103 -287,87 -300,107 -284,89 -297,109 -281,92 -293,112 -278,94 -290,114 -275,96 -286,117 -272,98 -282,119 -269,101 -278,122 -266,103 -275,124 -263,105 -271,126 -259,106 -267,128 -256,107 -262,129 -253,108 -258,130 -250,109 -254,131 -247,111 -249,132 -243,112 -245,134 -240,112 -241,135 -236,112 -236,135 -233,112 -232,135 -229,112 -227,135 -225,112 -223,134 -222,112 -219,134 -218,112 -214,134 -215,112 -210,133 -211,111 -205,133 -208,110 -201,132 -204,109 -196,132 -200,108 -192,130 -197,107 -188,128 -193,106 -184,127 -190,105 -180,125 -186,104 -176,123 -183,103 -172,121 -179,102 -168,119 -176,99 -164,117 -174,97 -160,116 -171,95 -156,113 -168,93 -152,110 -166,91 -149,107 -163,89 -146,104 -160,87 -143,101 -158,85 -139,98 -155,82 -136,95 -153,79 -134,91 -151,76 -132,87 -149,73 -130,83 -148,69 -128,79 -146,66 -126,75 -144,63 -124,71 -142,60 -122,67 -140,56 -120,63 -138,53 -118,59 -136,49 -116,55 -135,45 -114,51 -134,42 -112,47 -133,38 -110,43 -132,35 -109,39 -131,31 -108,35 -129,28 -108,30 -128,24 -107,26 -128,20 -106,21 -128,16 -105,17 -128,13 -105,13 -128,9 -104,8 -128,5 -104,4 -128,1 -104,-1 -128,-3 -105,-5 -128,-8 -105,-10 -128,-12 -105,-14 -128,-16 -105,-19 -128,-20 -105,-23 -128,-25 -105,-27 -128,-29 -105,-32 -128,-34 -105,-36 -128,-38 -105,-41 -128,-43 -105,-45 -128,-47 -106,-50 -128,-52 -106,-54 -128,-56 -106,-58 -128,-60 -106,-62 -128,-65 -106,-65 -128,-69 -106,-67 -106,-67 -128,-74 -129,-79 -105,-73 -82,-71 -79,-67 -85,-65 -78,-74 -88,-66 -77,-84 -86,-70 -107,-74 -127,-79 -148,-80 -168,-82 -188,-83 -209,-84 -229,-86 -250,-87 -270,-88 -295,-81 -310,-83 -319,-77 -334,-83 -349,-88 -375,-87 -375,-87 -375,-82 -376,-103 -372,-82 -370,-104 -368,-82 -366,-104 -364,-82 -361,-104 -360,-83 -357,-104 -357,-83 -352,-105 -352,-83 -348,-105 -348,-82 -344,-105 -343,-81 -340,-106 -339,-79 -336,-106 -335,-78 -331,-106 -331,-76 -327,-106 -327,-75 -323,-106 -323,-74 -318,-105 -318,-74 -314,-105 -314,-76 -311,-105 -309,-77 -308,-105 -305,-77 -305,-105 -300,-76 -301,-105 -296,-76 -296,-105 -292,-76 -292,-104 -288,-78 -287,-104 -284,-79 -283,-104 -280,-80 -278,-104 -276,-82 -274,-104 -271,-83 -270,-104 -267,-83 -265,-104 -262,-83 -261,-103 -258,-83 -257,-103 -254,-82 -252,-103 -250,-82 -248,-103 -246,-82 -243,-103 -242,-82 -239,-103 -238,-81 -235,-102 -233,-81 -230,-102 -229,-81 -226,-102 -225,-80 -221,-102 -220,-80 -217,-102 -216,-80 -212,-102 -211,-79 -208,-102 -207,-79 -204,-101 -202,-79 -199,-101 -198,-79 -195,-101 -194,-78 -190,-101 -189,-78 -186,-101 -185,-78 -181,-101 -181,-77 -177,-100 -176,-77 -172,-100 -172,-77 -168,-100 -168,-76 -164,-100 -163,-76 -159,-99 -159,-76 -155,-98 -155,-76 -150,-98 -151,-75 -146,-97 -147,-75 -142,-97 -143,-75 -137,-96 -138,-74 -133,-95 -134,-74 -129,-95 -129,-74 -124,-94 -125,-73 -120,-93 -121,-72 -115,-93 -117,-71 -111,-92 -114,-70 -107,-92 -110,-69 -102,-91 -106,-68 -98,-90 -103,-68 -93,-90 -99,-67 -89,-89 -95,-67 -84,-88 -91,-66 -80,-88 -89,-66 -89,-66 -77,-84 -79,-82 -77,-84" /><polyline   points="111,-70 110,-73 111,-70 111,-68 110,-73 139,-69 151,-79 167,-77 167,-72 188,-77 188,-77 167,-72 193,-78 169,-69 195,-74 171,-66 196,-69 173,-64 198,-65 175,-61 198,-61 175,-58 199,-56 175,-56 199,-52 175,-54 198,-47 175,-51 197,-43 175,-49 196,-39 175,-47 194,-35 173,-45 192,-31 172,-44 190,-28 170,-43 187,-25 169,-42 183,-22 167,-40 180,-19 166,-39 176,-18 165,-38 172,-16 163,-37 167,-15 161,-36 163,-14 158,-36 159,-13 156,-36 155,-13 153,-36 150,-15 151,-37 146,-16 148,-38 142,-17 146,-40 138,-19 143,-42 134,-20 141,-45 141,-45 132,-21 133,-24 128,-25 136,-46 134,-49 135,-62 116,-65 116,-65 111,-68 140,-64 111,-66 140,-61 111,-62 139,-58 111,-58 139,-54 111,-54 139,-50 111,-50 141,-45 111,-46 140,-41 111,-41 138,-37 111,-37 136,-33 111,-33 135,-29 111,-28 133,-24 110,-24 132,-20 110,-20 132,-15 110,-15 132,-11 110,-11 132,-7 110,-6 132,-3 110,-2 132,0 110,2 132,4 110,7 132,8 110,11 132,12 110,16 132,16 110,20 132,20 111,25 132,24 112,29 133,27 113,33 134,31 114,38 136,34 115,42 137,38 116,46 138,41 117,51 139,45 118,55 140,48 120,59 141,52 122,63 143,55 124,67 145,58 126,71 147,61 128,75 149,64 131,79 151,67 133,83 153,70 135,86 155,73 138,89 158,76 142,93 160,79 145,96 162,83 148,99 164,85 151,102 167,87 154,105 170,90 158,108 173,92 161,111 176,94 164,114 179,97 168,117 182,99 172,118 185,100 176,120 188,102 180,122 191,103 184,124 195,105 188,126 198,106 192,127 201,108 196,129 205,109 200,131 209,109 205,132 212,110 209,133 216,111 213,134 219,112 218,134 222,113 222,135 226,113 227,135 229,113 231,136 233,113 236,136 236,113 240,135 240,113 244,134 243,113 249,133 247,112 253,133 250,111 258,132 253,110 262,131 257,109 266,129 260,107 270,127 263,106 274,125 267,105 278,123 270,103 282,121 273,101 286,119 276,99 290,117 279,96 294,115 282,94 298,113 285,92 301,110 288,89 304,107 291,87 308,104 294,85 311,101 297,82 314,98 300,80 318,95 303,78 321,92 306,76 324,89 308,73 327,86 311,70 330,82 312,67 332,78 314,64 334,74 316,61 336,71 318,58 339,67 319,55 341,63 321,52 343,59 323,49 345,55 325,45 346,51 326,41 347,46 327,38 348,42 328,34 349,38 328,30 349,33 329,27 350,29 330,23 351,24 331,19 352,20 332,15 353,16 333,11 354,11 333,7 355,7 333,3 355,3 333,-1 355,-2 333,-5 355,-6 333,-9 355,-11 333,-13 355,-15 333,-18 355,-20 333,-22 355,-24 332,-26 355,-29 332,-31 355,-33 332,-35 355,-37 332,-40 355,-42 332,-44 355,-46 332,-48 355,-51 332,-53 355,-55 332,-57 355,-60 332,-62 355,-64 332,-66 355,-69 332,-71 355,-73 332,-75 355,-77 332,-80 355,-81 355,-81 332,-84 332,-89 351,-88 371,-88 372,-99 372,-99 377,-104 374,-83 373,-104 371,-83 368,-104 367,-83 364,-104 362,-83 360,-104 358,-83 356,-104 353,-83 351,-104 349,-83 347,-104 345,-84 342,-104 340,-84 338,-104 336,-84 334,-104 331,-84 329,-104 327,-84 325,-104 322,-84 321,-104 318,-84 317,-104 314,-83 312,-104 310,-83 308,-104 306,-83 303,-104 301,-83 299,-104 297,-83 294,-104 292,-83 290,-104 288,-83 285,-104 284,-83 281,-104 279,-82 277,-104 275,-82 272,-104 270,-82 268,-104 266,-82 263,-104 261,-82 259,-104 257,-82 254,-104 252,-82 250,-104 248,-81 245,-104 244,-81 241,-104 239,-81 237,-104 235,-81 232,-104 231,-81 228,-104 226,-81 223,-104 222,-81 219,-104 218,-81 214,-103 214,-80 210,-103 210,-80 206,-102 206,-80 201,-102 202,-80 197,-101 198,-80 192,-101 193,-80 188,-100 189,-79 184,-100 184,-77 180,-99 180,-76 175,-99 176,-74 171,-98 172,-73 166,-98 168,-72 162,-98 164,-72 158,-97 160,-73 153,-97 155,-73 149,-96 151,-73 145,-96 147,-70 141,-95 142,-66 137,-95 138,-65 133,-94 134,-65 129,-94 130,-66 124,-94 125,-66 120,-93 121,-67 116,-93 116,-67 112,-92 113,-68 107,-92 109,-68 103,-92 105,-68 99,-91 102,-67 94,-91 99,-67 90,-91 96,-67 85,-91 93,-67 81,-89 89,-71 84,-66 80,-70 86,-66 79,-76 89,-66 79,-84 91,-67 91,-67 81,-89 82,-86 81,-89" /></svg>