<svg viewBox="-425 -150 850 300" fill="none" stroke="black" stroke-width="4"><polyline class="left-eye" stroke="red" points="-282,-90 -279,-90 -282,-90 -262,-90 -243,-89 -223,-89 -204,-89 -184,-89 -165,-88 -145,-88 -126,-88 -124,-69 -124,-49 -126,-30 -128,-11 -133,8 -137,27 -143,45 -153,63 -164,78 -180,90 -196,100 -215,106 -234,108 -253,106 -272,101 -289,93 -304,80 -316,65 -326,48 -334,31 -338,12 -340,-8 -342,-27 -325,-19 -306,-14 -291,-24 -278,-38 -273,-55 -275,-74 -283,-91 -282,-90 -273,-74 -265,-58 -256,-43 -247,-27 -239,-11 -230,5 -221,21 -236,29 -251,37 -265,47 -277,60 -288,72 -300,85 -300,85 -309,68 -319,52 -328,35 -337,19 -315,41 -287,69 -259,97 -250,106 -235,107 -220,107 -224,103 -253,75 -281,46 -309,18 -338,-10 -340,-13 -342,-27 -314,-16 -303,-5 -275,23 -247,52 -218,80 -198,101 -189,95 -180,90 -184,85 -212,57 -241,29 -269,0 -292,-23 -285,-30 -278,-38 -263,-23 -235,6 -206,34 -178,62 -163,77 -157,69 -151,60 -172,39 -200,11 -229,-17 -257,-46 -273,-62 -275,-77 -283,-91 -282,-90 -266,-84 -249,-79 -233,-73 -216,-67 -200,-62 -183,-56 -167,-51 -153,-63 -140,-76 -126,-88 -125,-72 -123,-56 -142,-75 -155,-88 -170,-89 -185,-89 -177,-81 -148,-52 -126,-30 -128,-17 -130,-5 -154,-30 -183,-58 -211,-86 -214,-89 -229,-89 -243,-90 -217,-63 -189,-35 -160,-7 -135,19 -138,30 -141,41 -166,16 -195,-12 -223,-40 -251,-68 -272,-90 -282,-90 -302,-100 -299,-100 -302,-97 -293,-100 -299,-94 -286,-100 -296,-90 -280,-100 -293,-87 -286,-91 -274,-100 -290,-84 -268,-100 -284,-84 -288,-79 -274,-90 -262,-100 -264,-97 -286,-75 -282,-76 -255,-100 -272,-83 -284,-70 -262,-90 -249,-99 -252,-97 -280,-68 -283,-65 -270,-75 -243,-99 -260,-82 -283,-60 -278,-61 -250,-89 -237,-99 -240,-96 -268,-68 -283,-53 -258,-75 -230,-99 -248,-82 -276,-53 -286,-43 -291,-36 -302,-26 -313,-16 -325,-5 -336,-16 -346,-30 -355,-44 -351,-42 -354,-38 -346,-40 -353,-33 -342,-38 -353,-27 -342,-35 -338,-36 -352,-22 -334,-33 -340,-27 -351,-16 -331,-30 -350,-11 -339,-19 -327,-28 -329,-26 -350,-5 -347,-5 -322,-27 -337,-12 -349,0 -327,-19 -316,-26 -345,3 -348,6 -335,-4 -310,-26 -325,-11 -348,12 -343,10 -315,-18 -301,-28 -305,-25 -333,3 -347,17 -347,20 -323,-4 -295,-32 -266,-60 -238,-89 -227,-99 -228,-95 -256,-67 -285,-39 -313,-11 -341,18 -346,26 -331,11 -303,-18 -274,-46 -246,-74 -221,-99 -236,-81 -264,-53 -293,-24 -321,4 -345,31 -339,25 -311,-3 -283,-31 -254,-60 -226,-88 -215,-99 -216,-95 -244,-67 -273,-38 -301,-10 -329,18 -343,35 -319,11 -291,-17 -263,-45 -234,-73 -209,-99 -224,-80 -252,-52 -281,-24 -309,4 -337,33 -341,40 -327,26 -299,-2 -271,-31 -242,-59 -214,-87 -202,-99 -204,-94 -232,-66 -261,-38 -289,-9 -317,19 -339,44 -335,40 -307,12 -279,-16 -251,-45 -222,-73 -196,-99 -212,-80 -241,-51 -269,-23 -297,5 -325,33 -337,48 -315,26 -287,-2 -259,-30 -230,-58 -202,-87 -190,-99 -192,-94 -220,-65 -249,-37 -277,-9 -305,20 -334,48 -335,52 -323,41 -295,13 -267,-16 -239,-44 -210,-72 -184,-99 -200,-79 -229,-51 -257,-23 -285,6 -313,34 -333,56 -303,27 -275,-1 -247,-29 -219,-58 -190,-86 -178,-99 -180,-93 -208,-65 -237,-36 -265,-8 -293,20 -322,48 -330,60 -312,42 -283,13 -255,-15 -227,-43 -198,-72 -171,-99 -188,-79 -217,-50 -245,-22 -273,6 -301,35 -328,64 -320,56 -291,28 -263,-1 -235,-29 -207,-57 -178,-85 -165,-99 -168,-92 -197,-64 -225,-36 -253,-7 -281,21 -310,49 -326,68 -300,42 -271,14 -243,-14 -215,-43 -186,-71 -159,-98 -176,-78 -205,-50 -233,-21 -261,7 -290,35 -318,64 -323,72 -308,57 -279,28 -251,0 -223,-28 -195,-57 -166,-85 -153,-98 -156,-92 -185,-63 -213,-35 -241,-7 -269,21 -298,50 -321,76 -316,71 -288,43 -259,15 -231,-14 -203,-42 -175,-70 -147,-98 -164,-77 -193,-49 -221,-21 -249,8 -278,36 -306,64 -318,79 -296,57 -268,29 -239,1 -211,-28 -183,-56 -154,-84 -140,-98 -144,-91 -173,-63 -201,-35 -229,-6 -257,22 -286,50 -314,79 -315,83 -304,72 -276,43 -247,15 -219,-13 -191,-41 -163,-70 -134,-98 -153,-77 -181,-48 -209,-20 -237,8 -266,37 -294,65 -312,86 -284,58 -256,30 -227,1 -199,-27 -171,-55 -142,-84 -128,-98 -132,-90 -161,-62 -189,-34 -217,-6 -246,23 -274,51 -302,79 -309,89 -292,72 -264,44 -235,16 -207,-13 -179,-41 -151,-69 -122,-98 -141,-76 -169,-48 -197,-19 -225,9 -254,37 -282,65 -306,93 -300,87 -272,59 -244,30 -215,2 -187,-26 -159,-55 -131,-83 -115,-98 -116,-97 -114,-98 -116,-97 -116,-95 -120,-90 -149,-62 -177,-33 -205,-5 -234,23 -262,52 -290,80 -304,94 -280,73 -252,45 -224,16 -195,-12 -167,-40 -139,-68 -115,-89 -129,-75 -157,-47 -185,-19 -213,9 -242,38 -270,66 -298,94 -301,97 -288,87 -260,59 -232,31 -203,3 -175,-26 -147,-54 -119,-82 -115,-83 -137,-61 -165,-33 -193,-4 -222,24 -250,52 -278,81 -297,99 -268,74 -240,45 -212,17 -183,-11 -155,-40 -127,-68 -114,-77 -117,-75 -145,-46 -173,-18 -202,10 -230,38 -258,67 -286,95 -294,102 -276,88 -248,60 -220,31 -191,3 -163,-25 -135,-53 -114,-71 -125,-60 -153,-32 -181,-4 -210,25 -238,53 -266,81 -290,105 -285,103 -256,74 -228,46 -200,18 -171,-11 -143,-39 -113,-65 -133,-46 -161,-18 -190,11 -218,39 -246,67 -274,96 -286,107 -264,89 -236,60 -208,32 -180,4 -151,-24 -123,-53 -113,-59 -141,-31 -169,-3 -198,25 -226,53 -254,82 -281,109 -273,103 -244,75 -216,47 -188,18 -159,-10 -131,-38 -113,-53 -121,-45 -149,-17 -178,11 -206,40 -234,68 -263,96 -277,110 -252,89 -224,61 -196,33 -168,4 -139,-24 -114,-46 -129,-31 -158,-2 -186,26 -214,54 -242,82 -272,112 -261,104 -232,75 -204,47 -176,19 -147,-9 -119,-38 -114,-40 -137,-16 -166,12 -194,40 -222,69 -251,97 -267,113 -241,90 -212,62 -184,33 -156,5 -127,-23 -115,-33 -117,-30 -146,-2 -174,26 -202,55 -230,83 -259,111 -262,114 -249,104 -220,76 -192,48 -164,20 -136,-9 -116,-25 -125,-16 -154,13 -182,41 -210,69 -239,97 -256,115 -229,91 -200,62 -172,34 -144,6 -117,-18 -134,-1 -162,27 -190,55 -219,84 -247,112 -251,116 -237,105 -208,77 -180,48 -152,20 -124,-8 -118,-11 -142,13 -170,42 -198,70 -227,98 -246,117 -217,91 -188,63 -160,35 -132,6 -119,-3 -122,-1 -150,28 -178,56 -207,84 -235,113 -240,118 -225,106 -197,77 -168,49 -140,21 -121,5 -130,14 -158,42 -186,70 -215,99 -234,118 -205,92 -176,64 -148,35 -122,13 -138,28 -166,57 -195,85 -223,113 -228,118 -213,106 -185,78 -156,50 -128,21 -124,21 -146,43 -175,71 -203,99 -221,118 -193,92 -164,64 -136,36 -127,30 -154,57 -183,86 -211,114 -214,117 -201,107 -173,79 -144,50 -130,39 -134,43 -163,72 -191,100 -205,114 -201,113 -181,93 -153,65 -131,44 -134,50 -142,58 -171,86 -196,111 -189,108 -161,79 -137,56 -140,62 -151,72 -179,101 -183,105 -173,98 -169,94 -144,69 -150,77 -157,85 -155,83 -157,85" /><polyline class="right-eye" stroke="red" points="131,-17 129,-19 131,-17 122,-24 140,-18 160,-18 178,-25 192,-37 197,-45 196,-55 193,-75 187,-93 194,-89 203,-89 222,-89 240,-89 258,-89 277,-89 295,-89 313,-89 332,-89 350,-89 348,-69 347,-49 345,-29 343,-10 340,10 335,29 327,47 318,65 305,80 290,93 272,101 253,105 233,107 213,106 194,99 177,89 163,76 152,59 143,41 137,22 133,3 131,-17 137,1 143,19 148,37 154,55 160,73 169,82 172,85 169,82 160,73 152,55 144,38 137,20 147,31 176,59 204,88 223,106 237,106 251,105 238,93 210,64 182,36 153,8 131,-14 131,-17 122,-24 131,-17 148,-12 165,-7 182,-1 199,4 216,9 233,14 251,20 263,6 275,-8 288,-21 300,-35 313,-48 325,-62 338,-75 350,-89 349,-75 348,-62 321,-89 306,-89 291,-89 316,-64 346,-35 344,-21 343,-8 338,-13 310,-41 282,-69 262,-89 247,-89 233,-89 247,-75 275,-46 304,-18 332,10 338,17 335,28 331,39 326,33 298,5 269,-23 241,-51 213,-80 203,-89 190,-89 187,-93 188,-91 195,-68 206,-57 235,-28 263,0 291,28 322,59 315,67 309,76 285,51 257,23 229,-5 200,-33 194,-39 186,-33 179,-26 194,-10 222,18 251,46 279,75 295,90 285,95 275,100 273,98 245,69 216,41 188,13 160,-15 157,-18 141,-18 126,-22 131,-17 117,-36 117,-40 119,-39 117,-37 122,-37 118,-32 126,-34 120,-28 130,-32 120,-22 134,-30 121,-16 132,-24 139,-28 122,-11 144,-27 134,-17 122,-5 144,-23 150,-26 126,-2 123,1 136,-9 157,-27 146,-16 124,6 128,5 156,-23 161,-28 167,-30 138,-1 124,12 125,15 148,-8 172,-33 179,-38 190,-50 201,-62 212,-74 199,-84 185,-92 170,-100 169,-99 175,-99 172,-96 182,-99 175,-92 188,-99 178,-89 194,-99 179,-84 187,-88 200,-99 197,-95 181,-80 207,-99 188,-81 183,-75 199,-88 213,-99 209,-95 184,-70 190,-73 219,-99 200,-80 185,-65 211,-87 226,-99 221,-94 192,-66 186,-59 202,-73 232,-99 212,-79 186,-53 194,-58 222,-86 238,-99 233,-93 204,-65 185,-46 173,-33 161,-21 149,-8 137,5 125,17 129,13 158,-15 186,-44 214,-72 245,-99 224,-79 196,-50 168,-22 140,6 126,20 150,-1 178,-29 206,-57 234,-86 251,-99 244,-93 216,-64 188,-36 160,-8 131,21 127,24 141,14 170,-15 198,-43 226,-71 257,-99 236,-78 208,-50 180,-22 151,7 129,29 133,28 162,0 190,-28 218,-57 246,-85 263,-99 256,-92 228,-64 200,-35 172,-7 143,21 130,34 153,14 182,-14 210,-42 238,-71 270,-99 248,-77 220,-49 192,-21 163,7 135,36 132,39 145,29 173,0 202,-28 230,-56 258,-84 276,-99 268,-91 240,-63 212,-35 184,-6 155,22 134,44 137,43 165,15 194,-13 222,-42 250,-70 282,-99 260,-77 232,-49 204,-20 175,8 147,36 135,48 157,29 185,1 214,-27 242,-55 270,-84 289,-99 280,-91 252,-62 224,-34 196,-6 167,22 137,52 149,44 177,16 206,-13 234,-41 262,-69 295,-99 272,-76 244,-48 216,-20 187,9 159,37 139,57 169,30 197,2 226,-27 254,-55 282,-83 301,-99 292,-90 264,-62 236,-33 207,-5 179,23 151,51 141,61 161,45 189,16 218,-12 246,-40 274,-69 308,-99 284,-76 256,-47 228,-19 199,9 171,38 143,65 153,59 181,31 209,2 238,-26 266,-54 294,-82 314,-99 304,-89 276,-61 248,-33 219,-5 191,24 163,52 146,69 173,45 201,17 229,-11 258,-40 286,-68 314,-96 320,-99 296,-75 268,-47 240,-18 211,10 183,38 155,67 148,73 165,60 193,31 221,3 250,-25 278,-54 306,-82 327,-99 316,-89 288,-60 260,-32 231,-4 203,24 175,53 151,77 157,74 185,46 213,18 241,-11 270,-39 298,-67 326,-96 333,-99 308,-74 280,-46 251,-18 223,11 195,39 167,67 154,80 177,60 205,32 233,4 262,-25 290,-53 318,-81 339,-99 328,-88 300,-60 272,-32 243,-3 215,25 187,53 157,83 169,75 197,46 225,18 253,-10 282,-38 310,-67 338,-95 345,-99 320,-74 292,-45 263,-17 235,11 207,40 179,68 160,87 189,61 217,33 245,4 274,-24 302,-52 330,-81 352,-99 340,-87 312,-59 284,-31 255,-3 227,26 199,54 170,82 163,90 180,75 209,47 237,19 265,-9 294,-38 322,-66 350,-94 358,-99 332,-73 304,-45 275,-16 247,12 219,40 191,68 166,93 172,90 201,62 229,33 257,5 285,-23 314,-52 342,-80 361,-96 352,-87 324,-59 296,-30 267,-2 239,26 211,55 182,83 170,96 192,76 221,48 249,19 277,-9 306,-37 334,-65 360,-89 344,-72 316,-44 287,-16 259,13 231,41 203,69 173,98 184,90 213,62 241,34 269,6 297,-23 326,-51 354,-79 360,-82 336,-58 307,-30 279,-1 251,27 223,55 194,84 177,101 204,77 233,48 261,20 289,-8 318,-36 346,-65 359,-75 356,-72 328,-43 299,-15 271,13 243,41 214,70 186,98 180,104 196,91 225,63 253,35 281,6 309,-22 338,-50 359,-69 348,-57 319,-29 291,-1 263,28 235,56 206,84 185,106 216,77 245,49 273,21 301,-8 330,-36 359,-62 340,-43 311,-14 283,14 255,42 226,70 198,99 189,108 208,92 236,63 265,35 293,7 321,-21 350,-50 358,-55 331,-28 303,0 275,28 247,57 218,85 193,110 200,106 228,78 257,50 285,21 313,-7 341,-35 358,-48 352,-42 323,-14 295,14 267,43 238,71 210,99 197,112 220,92 248,64 277,36 305,8 333,-21 357,-41 343,-28 315,1 287,29 259,57 230,85 202,113 212,107 240,79 269,50 297,22 325,-6 353,-35 356,-34 335,-13 307,15 279,43 250,72 222,100 207,115 232,93 260,65 289,36 317,8 345,-20 355,-27 327,1 299,30 270,58 242,86 212,116 224,108 252,79 281,51 309,23 337,-6 355,-20 347,-13 319,16 291,44 262,72 234,101 218,116 244,94 272,65 301,37 329,9 354,-13 339,2 311,30 282,58 254,87 224,117 236,108 264,80 292,52 321,23 349,-5 353,-6 331,16 303,45 274,73 246,101 230,117 256,94 284,66 313,38 341,9 352,2 323,31 294,59 266,87 237,117 248,109 276,81 304,52 333,24 351,9 343,17 315,45 286,74 258,102 244,116 268,95 296,67 325,38 349,17 335,31 306,60 278,88 251,115 260,109 288,81 316,53 345,25 346,26 326,46 298,74 270,103 258,115 280,96 308,67 337,39 344,35 318,60 290,89 265,114 272,110 300,82 328,54 342,40 340,45 310,75 282,103 273,112 292,96 320,68 338,50 335,57 330,61 302,89 282,109 288,107 312,82 330,64 324,73 322,76 294,103 310,91 311,90 310,90 310,91" /><polyline  stroke="white" points="-304,-90 -303,-87 -304,-90 -296,-72 -293,-63 -295,-53 -307,-39 -317,-37 -326,-39 -340,-53 -338,-72 -323,-84 -304,-90 -317,-79 -329,-67 -342,-56 -342,-56 -338,-72 -325,-83 -325,-57 -325,-39 -309,-38 -309,-69 -309,-89 -304,-90 -298,-74 -292,-59 -292,-59 -292,-59 -304,-90 -320,-93 -312,-93 -312,-93 -309,-93 -322,-93 -330,-91 -298,-89 -325,-89 -333,-89 -313,-87 -293,-85 -301,-85 -339,-85 -329,-83 -289,-81 -317,-81 -344,-81 -305,-79 -286,-77 -293,-77 -333,-77 -347,-77 -321,-75 -284,-73 -309,-73 -350,-73 -337,-71 -297,-71 -282,-69 -285,-69 -325,-69 -351,-69 -313,-67 -281,-65 -301,-65 -341,-65 -352,-65 -329,-63 -289,-63 -280,-61 -317,-61 -353,-61 -345,-59 -305,-59 -280,-57 -293,-57 -333,-57 -353,-57 -321,-55 -281,-53 -309,-53 -349,-53 -352,-53 -337,-51 -297,-51 -283,-49 -325,-49 -352,-49 -313,-47 -285,-45 -301,-45 -341,-45 -349,-45 -329,-43 -287,-41 -317,-41 -346,-41 -305,-39 -291,-37 -333,-37 -342,-37 -321,-35 -295,-33 -309,-33 -337,-33 -302,-29 -325,-29 -329,-29 -317,-27 -314,-27 -313,-27 -317,-27" /><polyline  stroke="white" points="161,-88 163,-86 161,-88 172,-74 179,-58 171,-42 155,-35 146,-35 139,-40 127,-54 131,-71 144,-83 161,-88 150,-77 138,-65 127,-54 127,-54 134,-67 140,-80 140,-57 140,-39 153,-35 153,-69 153,-86 161,-88 170,-73 179,-58 172,-48 166,-39 166,-82 161,-88 152,-93 158,-93 158,-93 161,-93 148,-93 161,-93 168,-91 140,-91 155,-89 175,-87 167,-87 133,-87 139,-85 180,-83 151,-83 128,-83 163,-81 183,-79 175,-79 135,-79 124,-79 147,-77 186,-75 159,-75 121,-75 131,-73 171,-73 188,-71 183,-71 143,-71 119,-71 155,-69 190,-67 167,-67 127,-67 118,-67 139,-65 179,-65 191,-63 151,-63 116,-63 123,-61 163,-61 191,-59 175,-59 135,-59 116,-59 147,-57 187,-57 191,-55 159,-55 119,-55 116,-55 131,-53 171,-53 189,-51 183,-51 143,-51 117,-51 155,-49 187,-47 167,-47 127,-47 118,-47 139,-45 179,-45 185,-43 151,-43 121,-43 163,-41 184,-39 175,-39 135,-39 123,-39 147,-37 180,-35 159,-35 127,-35 171,-33 175,-31 143,-31 133,-31 155,-29 168,-27 165,-27 141,-27 156,-25 157,-25 159,-25 154,-25 156,-25 154,-25 156,-25" /><polyline class="left-outline"  points="-319,-97 -319,-95 -319,-97 -319,-100 -319,-95 -294,-94 -284,-87 -276,-69 -278,-47 -286,-34 -304,-22 -325,-22 -347,-27 -343,2 -337,23 -331,43 -319,63 -306,82 -291,92 -275,102 -259,106 -243,110 -227,109 -210,108 -196,102 -181,96 -169,84 -156,72 -146,53 -136,34 -132,15 -127,-4 -123,-23 -122,-42 -120,-60 -119,-79 -118,-97 -123,-97 -104,-94 -123,-95 -103,-90 -123,-93 -103,-85 -123,-89 -103,-82 -124,-84 -104,-78 -124,-80 -104,-74 -124,-75 -104,-70 -125,-71 -104,-66 -125,-67 -104,-62 -125,-62 -104,-58 -126,-58 -105,-54 -126,-53 -105,-50 -126,-49 -105,-45 -127,-45 -105,-41 -127,-41 -105,-37 -127,-36 -105,-32 -127,-32 -106,-28 -128,-28 -106,-23 -128,-24 -106,-19 -129,-20 -108,-14 -130,-16 -109,-10 -131,-12 -110,-6 -132,-8 -111,-1 -133,-4 -112,3 -134,0 -113,7 -134,5 -114,12 -135,9 -115,16 -136,13 -116,20 -137,17 -117,25 -138,21 -118,29 -139,25 -119,33 -140,29 -120,38 -141,32 -121,42 -143,36 -122,46 -144,40 -124,50 -146,43 -126,54 -148,46 -128,58 -150,50 -130,62 -151,53 -132,66 -153,56 -135,70 -155,59 -137,74 -157,63 -139,77 -158,66 -141,81 -160,69 -144,85 -163,72 -147,88 -166,74 -150,91 -168,77 -153,94 -171,79 -157,98 -173,81 -160,101 -176,84 -163,103 -178,86 -167,105 -181,89 -171,108 -184,91 -175,110 -188,93 -179,112 -191,94 -183,114 -194,96 -187,116 -197,97 -191,118 -201,99 -195,121 -204,100 -199,122 -207,101 -203,123 -211,103 -207,124 -214,103 -212,125 -218,104 -216,126 -221,104 -220,127 -225,104 -225,128 -228,104 -229,128 -232,104 -234,127 -235,105 -238,127 -239,105 -243,127 -243,105 -247,126 -247,104 -251,126 -250,103 -256,126 -254,102 -260,125 -257,102 -265,124 -261,101 -269,123 -264,100 -273,121 -268,99 -277,120 -271,98 -281,118 -275,97 -286,117 -278,95 -290,115 -281,93 -293,113 -284,91 -297,110 -287,89 -301,108 -289,88 -305,105 -292,86 -308,103 -295,84 -312,100 -298,82 -315,97 -301,80 -318,94 -304,77 -321,90 -306,74 -323,87 -308,71 -326,83 -310,68 -329,80 -312,65 -332,76 -314,62 -335,73 -316,59 -337,69 -318,55 -340,65 -320,52 -341,61 -322,49 -343,57 -324,45 -345,53 -326,42 -347,49 -328,39 -349,45 -329,35 -350,41 -330,31 -352,37 -331,27 -354,33 -332,24 -355,29 -333,20 -356,24 -334,16 -357,20 -335,12 -357,15 -336,8 -358,11 -338,4 -359,7 -339,0 -360,2 -339,-4 -361,-2 -340,-7 -361,-6 -341,-11 -362,-11 -341,-14 -363,-15 -342,-16 -364,-20 -342,-19 -365,-25 -342,-20 -366,-30 -342,-21 -366,-35 -342,-22 -364,-39 -342,-23 -359,-41 -339,-22 -355,-42 -336,-21 -350,-43 -335,-20 -346,-45 -334,-20 -342,-46 -333,-20 -337,-47 -332,-19 -333,-46 -331,-19 -329,-42 -330,-19 -325,-40 -326,-17 -322,-39 -322,-17 -319,-39 -317,-17 -316,-38 -313,-17 -314,-39 -308,-17 -311,-39 -304,-17 -309,-40 -300,-19 -307,-41 -296,-22 -305,-42 -292,-24 -303,-43 -288,-26 -302,-45 -285,-29 -301,-46 -281,-32 -299,-48 -279,-36 -297,-50 -277,-39 -296,-51 -274,-43 -295,-53 -273,-47 -295,-55 -273,-52 -295,-58 -272,-56 -294,-60 -272,-61 -294,-62 -272,-65 -294,-64 -272,-70 -294,-66 -273,-74 -295,-68 -275,-78 -296,-70 -277,-82 -297,-72 -279,-86 -298,-73 -281,-91 -299,-75 -284,-94 -301,-77 -287,-97 -302,-79 -291,-99 -304,-80 -296,-99 -306,-81 -301,-99 -308,-82 -305,-99 -311,-83 -310,-99 -314,-84 -314,-100 -317,-85 -319,-100 -319,-95 -341,-94 -363,-94 -362,-76 -362,-58 -361,-40 -361,-40 -335,-48 -366,-39 -335,-49 -366,-43 -337,-51 -366,-48 -338,-53 -366,-52 -338,-55 -366,-57 -338,-58 -366,-61 -338,-60 -366,-65 -338,-62 -366,-70 -338,-64 -366,-74 -338,-66 -366,-79 -338,-68 -366,-84 -338,-70 -366,-88 -337,-71 -366,-94 -337,-73 -364,-97 -336,-74 -357,-97 -334,-75 -352,-98 -333,-76 -346,-98 -332,-77 -341,-99 -330,-79 -337,-99 -328,-80 -332,-99 -326,-82 -327,-99 -323,-84 -323,-100 -320,-84 -320,-84 -319,-100 -319,-97 -319,-100 -321,-89 -321,-89 -321,-94 -301,-94 -281,-94 -261,-94 -241,-94 -221,-94 -201,-94 -181,-94 -161,-94 -141,-94 -121,-94 -103,-88 -88,-94 -86,-98 -81,-98 -85,-91 -85,-102 -89,-89 -88,-107 -94,-87 -93,-109 -98,-85 -97,-110 -102,-84 -101,-111 -106,-84 -106,-111 -110,-85 -110,-111 -114,-87 -115,-111 -118,-88 -119,-111 -122,-89 -123,-111 -127,-89 -128,-111 -131,-89 -132,-111 -135,-89 -137,-111 -139,-89 -141,-111 -143,-89 -146,-111 -148,-89 -150,-111 -152,-89 -155,-111 -157,-89 -159,-111 -161,-89 -163,-111 -166,-89 -168,-111 -170,-89 -172,-111 -174,-89 -177,-111 -179,-89 -181,-111 -183,-89 -186,-111 -188,-89 -190,-111 -192,-89 -195,-111 -197,-89 -199,-111 -201,-89 -203,-111 -206,-89 -208,-110 -210,-89 -212,-110 -214,-89 -217,-110 -219,-88 -221,-110 -223,-88 -226,-110 -228,-88 -230,-110 -232,-88 -235,-110 -237,-88 -239,-110 -241,-88 -243,-110 -246,-88 -248,-110 -250,-88 -252,-110 -254,-88 -257,-110 -259,-88 -261,-110 -263,-88 -266,-110 -268,-88 -270,-110 -272,-88 -275,-110 -277,-88 -279,-110 -281,-88 -283,-110 -286,-88 -288,-110 -290,-88 -292,-110 -294,-88 -297,-110 -299,-88 -301,-110 -303,-88 -306,-110 -308,-88 -310,-110 -312,-88 -315,-110 -317,-89 -319,-110 -319,-110 -321,-89 -321,-94 -342,-93 -363,-93 -384,-92 -384,-92 -383,-87 -385,-99 -381,-87 -381,-108 -376,-87 -377,-110 -372,-87 -372,-110 -368,-87 -368,-110 -364,-87 -364,-110 -360,-87 -359,-110 -356,-87 -355,-110 -352,-87 -350,-110 -348,-87 -346,-110 -343,-87 -341,-110 -339,-87 -337,-110 -334,-87 -332,-110 -330,-87 -328,-110 -326,-88 -323,-110 -321,-89 -321,-92 -321,-89" /><polyline class="right-outline"  points="150,-98 150,-96 150,-98 150,-101 150,-96 175,-94 190,-78 194,-59 188,-40 172,-25 156,-21 126,-23 130,1 135,26 142,41 150,56 158,72 171,84 184,96 200,103 215,109 233,111 251,108 268,106 282,99 297,92 315,74 325,58 334,41 339,20 344,-2 349,-23 350,-43 352,-62 353,-82 356,-97 356,-97 351,-97 370,-93 350,-93 369,-89 349,-89 369,-85 348,-84 369,-81 348,-80 369,-76 348,-75 369,-72 347,-71 369,-67 347,-67 368,-63 347,-62 368,-59 346,-58 368,-54 346,-53 368,-50 346,-49 368,-45 346,-45 368,-41 345,-40 368,-37 345,-36 367,-32 345,-32 367,-28 345,-28 367,-23 344,-24 367,-19 344,-20 366,-15 343,-16 364,-10 342,-12 363,-6 341,-8 362,-2 341,-4 361,3 340,0 360,7 339,4 359,11 338,9 358,16 337,13 357,20 336,17 356,24 335,21 355,29 334,25 354,33 333,29 353,37 332,32 352,42 331,36 351,46 330,40 349,50 328,43 347,54 326,47 345,58 324,50 343,62 322,53 341,66 320,56 338,70 318,59 336,73 316,62 334,77 314,66 332,81 312,69 329,85 310,72 326,88 307,75 323,91 305,77 319,94 302,79 316,97 300,82 313,100 298,84 309,103 295,87 306,106 292,89 303,109 288,90 299,111 285,92 295,113 282,94 291,115 279,95 286,116 276,97 282,118 273,98 278,119 270,100 274,121 266,101 270,123 262,102 266,124 259,102 261,125 255,103 257,125 251,103 252,126 248,104 248,126 244,104 244,126 240,105 239,126 237,105 235,126 233,106 230,126 229,106 226,126 226,105 221,126 222,105 217,126 219,104 212,126 215,104 208,124 212,102 204,123 208,101 200,121 205,99 196,119 202,98 192,118 199,97 187,116 196,96 183,114 192,94 179,113 189,93 175,110 185,91 172,108 183,88 168,105 180,86 165,102 178,83 161,99 175,81 158,96 173,79 154,94 170,76 151,91 167,74 148,87 165,71 146,83 162,69 144,80 160,65 141,76 158,62 139,72 157,58 136,68 155,55 134,65 153,52 132,61 151,48 129,57 150,45 127,53 148,41 125,49 146,38 124,45 144,34 122,41 143,31 121,37 141,27 120,32 139,24 118,28 139,20 117,24 138,16 116,20 137,12 115,15 136,8 114,11 135,4 113,6 135,0 113,2 134,-4 112,-2 133,-7 111,-7 133,-10 110,-11 132,-13 110,-16 132,-15 109,-20 131,-16 108,-25 131,-18 107,-31 131,-20 109,-35 132,-20 113,-37 134,-20 117,-39 136,-19 122,-40 137,-19 126,-42 138,-19 130,-43 139,-19 134,-44 140,-18 139,-43 141,-18 143,-41 145,-17 148,-39 149,-16 151,-39 154,-15 154,-38 158,-16 156,-39 163,-18 159,-40 167,-19 161,-40 171,-20 163,-41 175,-22 165,-42 179,-25 166,-44 182,-28 168,-46 185,-31 169,-47 188,-34 171,-49 192,-37 172,-50 193,-41 174,-52 195,-45 174,-54 196,-50 174,-57 197,-54 175,-59 198,-58 175,-61 198,-63 175,-63 197,-67 175,-65 196,-71 175,-67 196,-76 174,-69 195,-80 173,-71 192,-84 172,-72 189,-87 170,-74 186,-91 169,-76 183,-94 168,-78 181,-98 166,-79 176,-99 164,-81 171,-99 162,-81 167,-99 160,-82 162,-100 157,-83 158,-99 154,-84 153,-100 153,-95 135,-96 110,-94 111,-75 111,-56 112,-37 112,-37 136,-45 107,-35 135,-46 107,-40 134,-48 107,-44 133,-50 107,-48 131,-53 107,-53 131,-56 107,-57 131,-59 107,-62 131,-62 107,-66 131,-64 107,-70 131,-66 107,-75 131,-68 107,-79 131,-70 107,-84 132,-72 107,-89 133,-73 107,-94 134,-74 110,-97 135,-75 115,-98 136,-76 121,-99 138,-77 126,-99 139,-79 130,-100 140,-80 135,-100 142,-82 140,-100 145,-83 144,-100 148,-84 149,-101 151,-85 151,-85 153,-100 153,-97 153,-100 319,-89 319,-92 319,-89 319,-94 299,-94 279,-94 260,-94 240,-94 220,-94 200,-94 180,-94 160,-94 141,-94 121,-94 103,-88 82,-95 83,-92 81,-98 86,-90 86,-104 91,-88 90,-108 95,-87 94,-110 100,-85 98,-111 104,-84 103,-111 108,-84 107,-111 111,-86 112,-111 115,-87 116,-111 119,-89 121,-111 124,-89 125,-111 128,-89 130,-111 132,-89 134,-111 136,-89 138,-111 141,-89 143,-111 145,-89 147,-111 149,-89 152,-111 154,-89 156,-111 158,-89 161,-111 163,-89 165,-111 167,-89 170,-111 172,-89 174,-111 176,-89 178,-111 181,-89 183,-111 185,-89 187,-111 189,-89 192,-111 194,-89 196,-111 198,-89 201,-111 203,-89 205,-111 207,-89 210,-110 212,-89 214,-110 216,-88 218,-110 221,-88 223,-110 225,-88 227,-110 229,-88 232,-110 234,-88 236,-110 238,-88 241,-110 243,-88 245,-110 247,-88 250,-110 252,-88 254,-110 256,-88 258,-110 261,-88 263,-110 265,-88 267,-110 269,-88 272,-110 274,-88 276,-110 278,-88 281,-110 283,-88 285,-110 287,-88 290,-110 292,-88 294,-110 296,-88 298,-110 301,-88 303,-110 305,-88 307,-110 309,-88 312,-110 314,-88 316,-110 318,-88 320,-105 340,-105 359,-105 379,-105 384,-94 385,-99 381,-87 382,-105 376,-87 379,-110 372,-87 374,-110 369,-87 370,-110 365,-87 365,-110 361,-87 361,-110 357,-87 356,-110 354,-87 352,-110 349,-87 347,-110 345,-88 343,-110 341,-87 338,-110 336,-88 334,-110 332,-88 330,-110 327,-88 325,-110 323,-88 321,-110 321,-110 318,-88 318,-91 318,-88" /><polyline   points="-196,-127 -193,-127 -196,-127 -178,-127 -159,-127 -141,-127 -123,-127 -141,-127 -123,-127 -141,-127 -159,-127 -141,-127 -159,-127 -178,-127 -159,-127 -178,-127 -196,-127 -178,-127 -196,-127 -193,-127 -196,-127" /><polyline   points="192,-127 189,-127 192,-127 174,-127 156,-127 137,-127 119,-127 137,-127 119,-127 137,-127 156,-127 137,-127 156,-127 174,-127 156,-127 174,-127 192,-127 174,-127 192,-127 189,-127 192,-127" /></svg>