<svg viewBox="-425 -150 850 300" fill="none" stroke="black" stroke-width="4"><polyline class="left-eye" stroke="red" points="-332,-21 -329,-20 -332,-21 -314,-16 -295,-19 -279,-29 -269,-45 -265,-64 -269,-82 -281,-97 -264,-99 -246,-100 -228,-100 -210,-99 -193,-98 -175,-95 -158,-91 -141,-85 -124,-80 -122,-60 -121,-41 -121,-21 -123,-1 -125,18 -131,37 -138,55 -146,74 -156,90 -172,102 -189,111 -208,118 -228,120 -247,117 -266,110 -283,101 -298,88 -310,73 -321,56 -328,38 -331,18 -332,-1 -332,-21 -327,-4 -323,13 -318,30 -314,47 -309,64 -305,81 -303,83 -291,95 -277,102 -264,109 -250,116 -274,91 -303,63 -328,38 -329,26 -331,15 -301,45 -273,73 -245,101 -226,120 -208,118 -215,111 -243,83 -271,54 -300,26 -328,-2 -332,-6 -332,-21 -317,-13 -301,-5 -286,3 -270,11 -255,20 -240,28 -224,36 -220,18 -215,1 -210,-17 -207,-25 -199,-30 -184,-40 -169,-50 -154,-60 -139,-70 -124,-80 -123,-69 -122,-58 -138,-74 -153,-89 -167,-92 -180,-96 -168,-83 -139,-55 -121,-37 -121,-17 -141,-37 -169,-65 -197,-93 -203,-99 -214,-99 -224,-100 -199,-75 -171,-46 -142,-18 -124,1 -126,19 -144,1 -172,-28 -201,-56 -229,-84 -244,-100 -264,-99 -259,-94 -230,-66 -202,-37 -174,-9 -146,19 -130,35 -136,49 -147,38 -175,9 -204,-19 -232,-47 -260,-75 -272,-87 -265,-60 -262,-57 -234,-29 -205,0 -177,28 -149,56 -142,63 -148,77 -150,75 -179,46 -207,18 -235,-10 -263,-38 -269,-44 -276,-31 -265,-20 -237,8 -208,37 -180,65 -156,89 -167,98 -182,84 -210,55 -238,27 -267,-1 -288,-22 -302,-17 -296,-11 -268,17 -240,46 -212,74 -183,102 -179,106 -193,113 -213,92 -241,64 -270,36 -298,7 -323,-17 -332,-21 -338,-34 -337,-33 -339,-32 -333,-32 -339,-26 -330,-30 -340,-20 -326,-29 -331,-23 -340,-15 -323,-27 -341,-9 -330,-17 -319,-26 -341,-4 -315,-25 -329,-10 -341,1 -320,-17 -310,-24 -338,4 -341,6 -328,-3 -305,-24 -318,-11 -340,11 -337,11 -309,-18 -298,-26 -300,-24 -327,3 -340,16 -317,-4 -294,-27 -290,-29 -308,-11 -336,17 -340,21 -340,24 -326,10 -298,-18 -282,-35 -283,-33 -274,-45 -265,-57 -255,-69 -246,-81 -261,-92 -280,-95 -298,-98 -294,-99 -297,-97 -286,-102 -294,-94 -278,-105 -292,-91 -288,-93 -272,-106 -278,-100 -288,-90 -266,-107 -286,-87 -277,-93 -260,-107 -267,-101 -283,-85 -255,-107 -276,-87 -281,-82 -266,-94 -250,-108 -256,-101 -278,-79 -275,-80 -245,-108 -265,-87 -277,-75 -255,-94 -239,-108 -245,-102 -275,-72 -264,-81 -234,-108 -254,-88 -274,-68 -244,-95 -229,-108 -235,-102 -263,-74 -274,-63 -253,-81 -224,-108 -243,-88 -273,-58 -262,-67 -234,-95 -219,-108 -224,-103 -252,-74 -274,-53 -271,-53 -242,-82 -214,-108 -233,-89 -261,-60 -276,-45 -251,-68 -223,-96 -209,-108 -213,-103 -241,-75 -270,-47 -284,-32 -295,-21 -306,-9 -317,3 -328,14 -339,26 -316,3 -288,-25 -260,-54 -232,-82 -204,-107 -222,-89 -250,-61 -278,-33 -307,-4 -335,24 -339,28 -325,17 -297,-12 -269,-40 -240,-68 -212,-96 -199,-107 -202,-104 -231,-75 -259,-47 -287,-19 -315,10 -338,32 -334,31 -306,2 -277,-26 -249,-54 -221,-83 -194,-107 -211,-90 -239,-61 -268,-33 -296,-5 -324,23 -337,37 -314,16 -286,-12 -258,-40 -229,-69 -201,-97 -189,-106 -191,-104 -220,-76 -248,-48 -276,-19 -305,9 -333,37 -336,41 -323,30 -295,2 -266,-26 -238,-55 -210,-83 -185,-106 -200,-90 -228,-62 -257,-34 -285,-5 -313,23 -336,45 -332,44 -304,16 -275,-13 -247,-41 -219,-69 -190,-97 -180,-105 -209,-76 -237,-48 -265,-20 -294,9 -322,37 -334,49 -312,30 -284,1 -256,-27 -227,-55 -199,-84 -176,-104 -189,-91 -218,-62 -246,-34 -274,-6 -302,22 -331,51 -333,53 -321,43 -293,15 -264,-13 -236,-41 -208,-70 -180,-98 -171,-104 -198,-77 -226,-49 -255,-20 -283,8 -311,36 -332,57 -329,56 -301,29 -273,1 -245,-27 -217,-56 -188,-84 -167,-103 -179,-91 -207,-63 -235,-35 -263,-6 -292,22 -320,50 -330,60 -310,43 -282,15 -254,-14 -225,-42 -197,-70 -169,-98 -162,-102 -187,-77 -216,-49 -244,-21 -272,8 -300,36 -328,64 -319,57 -291,29 -262,0 -234,-28 -206,-56 -177,-85 -158,-101 -168,-92 -196,-63 -224,-35 -253,-7 -281,21 -309,50 -326,67 -299,42 -271,14 -243,-14 -214,-42 -186,-71 -154,-100 -176,-78 -205,-50 -233,-21 -261,7 -290,35 -318,64 -325,70 -308,56 -280,28 -252,0 -223,-28 -195,-57 -167,-85 -151,-99 -157,-92 -185,-64 -213,-36 -242,-7 -270,21 -298,49 -323,74 -317,70 -289,42 -260,14 -232,-15 -204,-43 -175,-71 -147,-97 -166,-78 -194,-50 -222,-22 -250,7 -279,35 -307,63 -321,77 -297,56 -269,28 -241,-1 -212,-29 -184,-57 -156,-86 -143,-96 -146,-93 -174,-64 -203,-36 -231,-8 -259,20 -287,49 -316,77 -318,80 -306,70 -278,41 -249,13 -221,-15 -193,-43 -165,-72 -139,-94 -155,-79 -183,-51 -211,-22 -240,6 -268,34 -296,63 -316,83 -286,55 -258,27 -230,-1 -202,-29 -173,-58 -145,-86 -135,-93 -164,-65 -192,-37 -220,-8 -248,20 -277,48 -305,76 -314,86 -295,69 -267,41 -239,13 -210,-16 -182,-44 -154,-72 -131,-92 -144,-79 -172,-51 -201,-23 -229,6 -257,34 -285,62 -312,89 -304,83 -276,55 -247,27 -219,-2 -191,-30 -163,-58 -134,-87 -128,-91 -153,-65 -181,-37 -209,-9 -238,19 -266,48 -294,76 -309,91 -284,69 -256,40 -228,12 -200,-16 -171,-44 -143,-73 -123,-90 -133,-80 -161,-52 -190,-23 -218,5 -246,33 -275,62 -303,90 -307,94 -293,83 -265,54 -237,26 -208,-2 -180,-30 -152,-59 -119,-89 -142,-66 -170,-38 -198,-9 -227,19 -255,47 -283,75 -304,96 -274,68 -245,40 -217,12 -189,-17 -160,-45 -132,-73 -115,-88 -122,-80 -151,-52 -179,-24 -207,5 -236,33 -264,61 -292,89 -302,99 -282,82 -254,54 -226,26 -197,-3 -169,-31 -141,-59 -114,-83 -131,-66 -159,-38 -188,-10 -216,18 -244,47 -273,75 -299,102 -291,96 -263,68 -234,39 -206,11 -178,-17 -150,-45 -121,-74 -114,-79 -140,-53 -168,-24 -196,4 -225,32 -253,61 -281,89 -296,104 -271,82 -243,53 -215,25 -187,-3 -158,-31 -130,-60 -113,-74 -120,-67 -149,-39 -177,-10 -205,18 -233,46 -262,74 -290,103 -293,106 -280,96 -252,67 -224,39 -195,11 -167,-18 -139,-46 -113,-69 -129,-53 -157,-25 -186,4 -214,32 -242,60 -270,88 -290,108 -261,81 -232,53 -204,25 -176,-4 -148,-32 -119,-60 -113,-64 -138,-39 -166,-11 -194,17 -223,46 -251,74 -279,102 -287,110 -269,95 -241,67 -213,38 -185,10 -156,-18 -128,-46 -112,-59 -118,-54 -146,-25 -175,3 -203,31 -231,60 -260,88 -284,112 -278,109 -250,81 -222,52 -193,24 -165,-4 -137,-32 -112,-55 -127,-40 -155,-11 -184,17 -212,45 -240,73 -268,102 -281,115 -259,95 -230,66 -202,38 -174,10 -145,-19 -117,-47 -112,-50 -136,-26 -164,3 -192,31 -221,59 -249,87 -278,116 -267,108 -239,80 -211,52 -182,24 -154,-5 -126,-33 -112,-44 -116,-40 -144,-12 -173,16 -201,45 -229,73 -258,101 -274,118 -248,94 -219,66 -191,37 -163,9 -135,-19 -112,-39 -125,-26 -153,2 -181,30 -210,59 -238,87 -266,115 -271,120 -257,108 -228,80 -200,51 -172,23 -143,-5 -115,-33 -112,-34 -134,-12 -162,16 -190,44 -218,72 -247,101 -267,121 -263,120 -237,94 -209,65 -180,37 -152,9 -124,-20 -112,-29 -114,-27 -142,1 -171,30 -199,58 -227,86 -255,115 -264,123 -246,107 -217,79 -189,51 -161,23 -133,-6 -112,-24 -123,-13 -151,15 -179,44 -208,72 -236,100 -260,124 -254,121 -226,93 -198,65 -170,36 -141,8 -112,-18 -132,1 -160,29 -188,58 -216,86 -245,114 -256,125 -235,107 -207,79 -178,50 -150,22 -122,-6 -113,-12 -140,15 -169,43 -197,71 -225,100 -252,126 -244,121 -215,93 -187,64 -159,36 -130,8 -113,-7 -121,0 -149,29 -177,57 -206,85 -234,114 -247,127 -224,106 -196,78 -168,50 -139,22 -114,-1 -129,14 -158,43 -186,71 -214,99 -243,128 -233,120 -205,92 -176,64 -148,35 -120,7 -115,5 -138,28 -166,57 -195,85 -223,113 -238,128 -213,106 -185,78 -157,49 -128,21 -115,10 -119,14 -147,42 -175,70 -203,99 -233,129 -222,120 -194,92 -165,63 -137,35 -116,16 -127,28 -156,56 -184,84 -212,113 -229,129 -202,105 -174,77 -146,49 -117,22 -136,42 -164,70 -193,98 -221,127 -223,129 -211,119 -183,91 -155,63 -126,34 -118,29 -145,56 -173,84 -201,112 -217,128 -192,105 -163,77 -135,48 -121,37 -125,41 -154,69 -182,98 -211,127 -200,119 -172,91 -144,62 -123,44 -134,55 -162,83 -191,112 -205,126 -181,104 -153,76 -125,49 -127,54 -143,69 -171,97 -197,124 -190,118 -161,90 -133,62 -130,58 -132,63 -152,83 -180,111 -189,121 -170,104 -142,76 -134,68 -136,72 -160,97 -180,116 -175,114 -150,90 -138,77 -141,82 -153,97 -149,93 -158,101 -167,109 -141,83 -141,82 -141,83 -141,82" /><polyline class="right-eye" stroke="red" points="126,-27 129,-26 126,-27 142,-19 159,-17 176,-22 189,-33 195,-49 196,-67 189,-83 178,-97 197,-99 216,-99 235,-100 254,-99 272,-98 291,-96 309,-90 326,-82 344,-76 343,-56 341,-36 339,-17 337,3 335,23 331,42 323,60 313,78 299,91 282,102 265,112 246,117 226,120 207,117 188,110 172,99 158,85 147,69 138,51 133,32 128,13 126,-7 126,-27 131,-8 137,11 143,30 148,48 154,67 159,86 182,106 210,118 181,88 153,59 135,40 132,26 128,13 155,41 183,69 211,98 232,120 249,117 241,108 213,79 185,51 157,22 130,-7 126,-11 126,-27 140,-15 153,-3 167,10 181,22 195,34 208,46 226,38 244,29 247,10 250,-10 251,-20 259,-25 276,-35 293,-46 310,-56 327,-66 344,-76 343,-56 323,-77 311,-90 297,-93 284,-97 293,-87 321,-58 341,-37 339,-18 319,-40 291,-68 261,-99 251,-100 241,-100 261,-78 289,-50 317,-21 337,0 336,19 315,-2 287,-31 259,-60 231,-89 221,-100 201,-99 229,-70 257,-41 285,-12 313,16 332,36 327,52 311,35 283,6 255,-22 227,-51 200,-80 183,-97 190,-80 196,-63 198,-61 225,-33 253,-4 281,25 309,54 320,66 312,79 307,72 279,44 251,15 223,-14 194,-44 187,-30 193,-24 221,5 249,34 277,62 302,88 290,97 275,81 247,52 219,23 191,-5 176,-22 160,-17 189,13 217,42 245,71 273,100 278,105 264,112 243,90 215,61 187,32 159,3 137,-20 126,-27 120,-38 122,-37 120,-35 123,-36 120,-33 127,-35 119,-27 131,-33 119,-22 123,-23 134,-32 119,-17 138,-30 123,-16 119,-11 133,-23 141,-28 119,-6 124,-9 145,-27 134,-16 119,-2 144,-23 149,-26 125,-3 120,3 135,-10 153,-25 145,-17 120,7 126,4 158,-24 136,-3 121,12 146,-10 164,-25 156,-17 127,11 121,17 137,4 171,-27 147,-3 122,21 122,23 128,17 157,-10 175,-28 183,-33 193,-50 203,-67 214,-83 198,-92 179,-95 161,-98 169,-101 164,-95 177,-103 166,-93 184,-105 177,-99 169,-91 190,-106 173,-89 178,-92 196,-106 188,-99 175,-86 202,-107 178,-84 189,-92 207,-107 199,-99 180,-81 212,-107 190,-85 182,-78 200,-92 218,-107 210,-99 184,-75 191,-79 223,-107 201,-86 186,-71 211,-93 229,-107 221,-100 192,-72 187,-68 202,-79 234,-108 212,-86 188,-63 193,-65 222,-93 239,-108 231,-100 203,-72 189,-59 213,-79 244,-107 222,-86 194,-59 189,-54 204,-66 232,-93 249,-107 242,-100 213,-73 188,-48 195,-52 223,-80 254,-107 233,-87 204,-59 187,-42 183,-36 186,-38 214,-66 243,-94 260,-107 253,-101 224,-73 196,-45 167,-17 138,10 123,25 148,3 177,-24 205,-52 234,-80 265,-107 244,-87 215,-59 187,-31 158,-4 129,24 124,29 139,17 168,-11 196,-38 225,-66 254,-94 270,-107 264,-101 235,-73 206,-45 178,-18 149,10 125,33 130,31 159,3 187,-25 216,-52 245,-80 274,-106 255,-87 226,-59 197,-32 169,-4 140,24 126,38 150,17 178,-11 207,-39 236,-67 265,-94 279,-105 275,-101 246,-74 217,-46 188,-18 160,10 131,38 127,42 141,31 170,3 198,-25 227,-53 256,-81 283,-105 266,-88 237,-60 208,-32 179,-4 151,24 128,46 132,44 161,17 189,-11 218,-39 247,-67 276,-95 288,-104 286,-102 257,-74 228,-46 199,-18 170,10 142,37 129,50 152,30 180,2 209,-25 238,-53 267,-81 293,-103 277,-88 248,-60 219,-32 190,-5 161,23 133,51 130,53 143,44 171,16 200,-12 229,-39 258,-67 286,-95 297,-103 295,-101 268,-74 239,-46 210,-19 181,9 152,37 132,57 162,30 191,2 220,-26 249,-53 277,-81 302,-102 287,-88 259,-60 230,-33 201,-5 172,23 144,51 133,61 153,44 182,16 211,-12 240,-40 268,-67 297,-95 305,-101 278,-74 250,-47 221,-19 192,9 163,37 135,64 144,57 173,30 202,2 231,-26 260,-54 288,-82 309,-99 298,-89 269,-61 241,-33 212,-5 183,23 154,50 136,68 164,43 193,16 222,-12 251,-40 279,-68 308,-96 313,-98 289,-75 260,-47 232,-19 203,9 174,36 145,64 138,71 155,57 184,29 213,2 242,-26 270,-54 299,-82 317,-96 309,-89 280,-61 251,-33 223,-5 194,22 165,50 140,74 146,71 175,43 204,15 233,-13 261,-40 290,-68 320,-95 300,-75 271,-47 242,-20 214,8 185,36 156,64 142,78 166,57 195,29 224,1 252,-27 281,-54 310,-82 324,-93 320,-89 291,-61 262,-34 234,-6 205,22 176,50 147,78 144,81 157,71 186,43 215,15 243,-13 272,-41 301,-68 327,-91 311,-75 282,-48 253,-20 225,8 196,36 167,64 146,84 149,83 177,56 206,29 234,1 263,-27 292,-55 321,-82 331,-90 329,-87 302,-62 273,-34 244,-6 216,22 187,49 158,77 148,87 168,70 197,42 225,15 254,-13 283,-41 312,-69 334,-88 322,-76 293,-48 264,-20 235,8 207,35 178,63 150,90 159,84 188,56 216,28 245,1 274,-27 303,-55 332,-83 338,-86 313,-62 284,-34 255,-6 226,21 198,49 169,77 153,93 179,70 208,42 236,14 265,-13 294,-41 323,-69 342,-85 333,-76 304,-48 275,-20 246,7 217,35 189,63 160,91 155,95 170,84 199,56 227,28 256,0 285,-27 314,-55 346,-84 324,-62 295,-35 266,-7 237,21 208,49 180,77 158,98 161,97 190,70 218,42 247,14 276,-14 305,-42 333,-69 350,-83 343,-76 315,-49 286,-21 257,7 228,35 199,63 171,90 160,101 181,83 209,56 238,28 267,0 296,-28 324,-56 352,-80 334,-63 306,-35 277,-7 248,21 219,49 190,76 163,103 172,97 200,69 229,42 258,14 287,-14 315,-42 344,-70 352,-75 325,-49 297,-21 268,7 239,34 210,62 182,90 165,106 191,83 220,55 249,27 278,0 306,-28 335,-56 352,-69 345,-63 316,-35 288,-7 259,20 230,48 201,76 173,104 168,108 182,97 211,69 240,41 269,13 298,-14 326,-42 352,-64 336,-49 307,-21 279,6 250,34 221,62 192,90 171,110 202,83 231,55 260,27 289,-1 317,-28 346,-56 352,-59 327,-35 298,-8 270,20 241,48 212,76 183,103 174,112 193,96 222,69 251,41 280,13 308,-15 337,-42 351,-54 347,-49 318,-22 289,6 261,34 232,62 203,89 177,114 184,110 213,82 242,55 271,27 299,-1 328,-29 351,-49 338,-36 309,-8 280,20 252,48 223,75 194,103 180,117 204,96 233,68 262,41 290,13 319,-15 348,-43 351,-43 329,-22 300,6 272,34 243,61 214,89 184,118 195,110 224,82 253,54 281,27 310,-1 339,-29 350,-38 320,-8 291,20 263,47 234,75 205,103 187,120 215,96 244,68 272,40 301,12 330,-15 350,-32 340,-22 311,5 282,33 254,61 225,89 196,117 191,121 206,110 235,82 263,54 292,26 321,-2 349,-26 331,-9 302,19 273,47 245,75 216,103 195,123 226,96 254,68 283,40 312,12 341,-16 349,-21 322,5 293,33 264,61 236,89 207,116 198,124 217,109 246,81 274,54 303,26 332,-2 348,-15 342,-9 313,19 284,47 255,74 227,102 203,125 208,123 237,95 265,67 294,40 323,12 347,-9 333,5 304,33 275,60 246,88 218,116 207,126 228,109 256,81 285,53 314,26 343,-2 346,-3 324,19 295,46 266,74 237,102 211,127 219,123 247,95 276,67 305,39 334,12 345,3 315,32 286,60 257,88 228,116 216,128 238,109 267,81 296,53 325,25 345,8 335,18 306,46 277,74 248,102 221,128 229,122 258,95 287,67 316,39 344,14 326,32 297,60 268,88 239,115 226,128 249,108 278,81 307,53 336,25 344,19 317,46 288,74 259,101 231,128 240,122 269,94 298,66 327,39 344,25 336,32 308,59 279,87 250,115 237,127 260,108 289,80 318,52 342,31 327,45 299,73 270,101 244,126 251,122 280,94 309,66 337,38 340,38 318,59 290,87 261,115 251,125 271,108 300,80 328,52 339,45 310,73 281,101 259,122 291,94 319,66 335,53 329,59 301,87 272,114 268,118 273,116 282,107 310,80 331,62 320,73 292,100 280,112 286,108 301,93 328,68 324,74 311,86 293,104 302,97 308,92 309,91 302,97 304,95 302,97" /><polyline  stroke="white" points="-332,-54 -331,-57 -332,-54 -323,-71 -307,-80 -290,-74 -280,-58 -288,-40 -295,-34 -304,-32 -321,-39 -332,-54 -315,-55 -297,-56 -280,-57 -287,-46 -293,-35 -293,-62 -293,-76 -306,-80 -306,-50 -306,-31 -319,-37 -319,-74 -325,-64 -332,-54 -338,-44 -325,-59 -313,-74 -300,-90 -300,-90 -297,-90 -311,-90 -318,-88 -286,-86 -322,-86 -307,-84 -281,-82 -295,-82 -328,-82 -323,-80 -283,-80 -277,-78 -311,-78 -332,-78 -299,-76 -274,-74 -287,-74 -327,-74 -336,-74 -315,-72 -271,-70 -303,-70 -339,-70 -331,-68 -291,-68 -270,-66 -279,-66 -319,-66 -340,-66 -307,-64 -268,-62 -295,-62 -335,-62 -341,-62 -323,-60 -283,-60 -268,-58 -271,-58 -311,-58 -342,-58 -339,-55 -299,-55 -267,-53 -287,-53 -327,-53 -342,-53 -315,-51 -275,-51 -268,-49 -303,-49 -342,-49 -331,-47 -291,-47 -270,-45 -279,-45 -319,-45 -341,-45 -307,-43 -272,-41 -295,-41 -335,-41 -339,-41 -323,-39 -283,-39 -274,-37 -311,-37 -336,-37 -299,-35 -277,-33 -287,-33 -327,-33 -333,-33 -315,-31 -281,-29 -303,-29 -329,-29 -291,-27 -287,-25 -319,-25 -323,-25 -318,-23 -307,-23 -290,-23 -301,-21 -302,-21 -301,-21 -302,-21 -301,-21" /><polyline  stroke="white" points="130,-54 131,-57 130,-54 137,-71 152,-80 161,-80 169,-75 178,-60 172,-43 158,-34 149,-35 141,-40 130,-54 146,-55 163,-57 179,-58 179,-58 171,-69 163,-80 163,-50 163,-35 146,-36 146,-77 138,-66 130,-54 122,-53 134,-65 147,-77 160,-90 160,-90 163,-90 149,-90 142,-88 149,-88 174,-86 161,-86 138,-86 173,-84 179,-82 145,-82 133,-82 157,-80 183,-78 169,-78 128,-78 141,-76 181,-76 186,-74 153,-74 125,-74 165,-72 188,-70 177,-70 137,-70 122,-70 149,-68 190,-66 161,-66 121,-66 133,-64 173,-64 191,-62 185,-62 145,-62 119,-62 157,-60 191,-58 169,-58 129,-58 119,-58 141,-55 181,-55 192,-53 153,-53 119,-53 125,-51 165,-51 190,-49 177,-49 137,-49 119,-49 149,-47 188,-45 161,-45 120,-45 133,-43 173,-43 187,-41 145,-41 123,-41 157,-39 185,-37 169,-37 129,-37 125,-37 141,-35 181,-33 153,-33 129,-33 165,-31 177,-29 134,-29 149,-27 170,-25 161,-25 142,-25 155,-23 158,-23 155,-23" /><polyline class="left-outline"  points="-358,-47 -358,-50 -358,-47 -358,-52 -344,-59 -330,-66 -320,-81 -309,-86 -298,-83 -296,-79 -278,-90 -278,-90 -296,-79 -274,-93 -293,-78 -272,-89 -290,-76 -269,-85 -288,-74 -266,-82 -286,-71 -264,-78 -284,-69 -261,-74 -282,-66 -260,-70 -281,-64 -259,-65 -281,-62 -259,-61 -281,-59 -259,-57 -281,-56 -258,-52 -281,-53 -259,-48 -280,-51 -260,-43 -282,-49 -262,-39 -283,-47 -263,-35 -284,-45 -265,-31 -286,-44 -268,-28 -287,-42 -272,-25 -289,-40 -275,-22 -290,-38 -278,-19 -292,-37 -282,-16 -294,-36 -286,-14 -296,-36 -290,-13 -298,-35 -294,-12 -300,-35 -299,-11 -303,-34 -303,-11 -306,-33 -307,-10 -308,-33 -311,-11 -311,-35 -316,-13 -313,-36 -320,-14 -316,-38 -324,-16 -319,-40 -328,-18 -321,-41 -332,-20 -324,-43 -324,-43 -334,-20 -338,-22 -329,-43 -332,-55 -358,-47 -328,-61 -357,-46 -327,-57 -357,-45 -326,-53 -357,-44 -325,-49 -357,-42 -324,-44 -357,-40 -325,-40 -356,-36 -327,-36 -356,-32 -329,-31 -356,-28 -331,-27 -355,-24 -333,-23 -355,-19 -333,-18 -354,-15 -333,-14 -354,-11 -332,-10 -353,-6 -332,-6 -353,-2 -331,-2 -353,2 -331,2 -352,7 -330,6 -351,11 -330,10 -350,15 -329,14 -349,20 -328,18 -348,24 -327,22 -348,29 -326,26 -347,33 -325,29 -346,37 -323,33 -345,42 -322,37 -344,46 -321,41 -343,50 -320,44 -341,54 -319,48 -339,59 -318,52 -338,63 -316,55 -336,67 -315,59 -335,71 -314,62 -332,75 -312,65 -330,79 -309,68 -328,82 -307,71 -325,86 -305,74 -323,90 -303,77 -320,93 -301,80 -317,96 -299,83 -314,99 -297,86 -310,102 -293,88 -307,105 -290,90 -304,108 -287,93 -300,111 -284,95 -297,114 -282,97 -294,117 -279,99 -290,120 -276,101 -286,122 -273,103 -282,124 -270,106 -278,126 -267,108 -274,128 -263,110 -271,130 -260,111 -267,132 -256,111 -263,134 -253,112 -258,136 -250,113 -254,137 -247,114 -250,138 -243,115 -245,139 -240,116 -241,140 -237,117 -237,140 -233,118 -232,141 -230,119 -228,142 -226,118 -223,141 -223,118 -219,139 -220,117 -215,138 -216,116 -210,137 -213,116 -206,136 -209,115 -202,135 -206,114 -198,133 -203,113 -193,132 -199,111 -189,131 -196,109 -185,130 -193,107 -181,128 -190,106 -177,125 -187,104 -173,123 -183,102 -170,120 -180,100 -166,118 -177,98 -162,115 -174,96 -159,113 -171,94 -155,110 -168,92 -151,107 -166,89 -148,104 -163,86 -145,101 -161,83 -142,98 -159,80 -139,95 -157,77 -136,91 -155,75 -133,88 -152,72 -131,84 -150,69 -129,80 -148,66 -126,76 -145,63 -124,72 -143,60 -122,68 -142,57 -121,64 -141,53 -120,60 -140,49 -118,56 -138,46 -117,51 -137,42 -116,47 -136,38 -114,43 -135,35 -113,39 -134,31 -112,34 -133,27 -111,30 -131,23 -110,26 -130,19 -109,21 -129,15 -108,17 -129,11 -108,12 -128,6 -107,8 -128,2 -107,4 -127,-2 -106,-1 -127,-6 -105,-5 -126,-10 -105,-10 -126,-14 -104,-14 -126,-18 -103,-18 -125,-23 -103,-23 -125,-27 -102,-27 -124,-31 -102,-32 -124,-35 -102,-36 -123,-40 -102,-41 -123,-44 -102,-45 -122,-48 -101,-49 -123,-52 -101,-54 -123,-56 -101,-57 -124,-61 -101,-60 -124,-65 -101,-61 -124,-70 -101,-63 -101,-63 -125,-75 -101,-64 -86,-64 -71,-64 -66,-71 -66,-64 -69,-73 -71,-64 -72,-74 -75,-64 -75,-76 -80,-64 -79,-78 -85,-64 -82,-80 -89,-64 -86,-81 -94,-64 -90,-83 -99,-64 -94,-85 -94,-85 -103,-65 -101,-70 -117,-77 -134,-84 -156,-91 -179,-98 -200,-101 -221,-103 -239,-102 -258,-101 -276,-99 -298,-83 -306,-85 -320,-81 -330,-66 -344,-59 -358,-52 -371,-53 -390,-63 -406,-77 -422,-91 -422,-91 -421,-86 -424,-97 -420,-85 -419,-95 -418,-84 -415,-94 -417,-82 -411,-93 -415,-81 -407,-92 -412,-78 -403,-90 -409,-75 -399,-89 -406,-71 -395,-88 -403,-68 -392,-87 -399,-65 -388,-86 -396,-62 -385,-85 -392,-59 -382,-84 -389,-56 -379,-83 -385,-54 -377,-82 -381,-53 -374,-83 -377,-51 -372,-84 -372,-49 -369,-85 -368,-48 -367,-86 -364,-48 -365,-86 -359,-47 -363,-87 -355,-48 -361,-88 -351,-50 -359,-89 -347,-52 -357,-90 -343,-54 -355,-91 -339,-56 -352,-92 -335,-58 -349,-93 -331,-60 -345,-95 -328,-63 -341,-97 -325,-67 -337,-98 -322,-71 -333,-100 -319,-75 -329,-102 -315,-78 -325,-104 -311,-79 -321,-105 -307,-80 -317,-107 -303,-80 -312,-108 -298,-79 -308,-109 -295,-80 -304,-110 -292,-82 -299,-111 -289,-84 -295,-112 -286,-87 -291,-113 -282,-89 -286,-114 -279,-92 -282,-115 -275,-94 -278,-116 -271,-95 -273,-117 -267,-95 -269,-118 -262,-95 -265,-119 -258,-96 -260,-119 -254,-96 -256,-119 -251,-96 -251,-119 -247,-96 -247,-119 -243,-97 -242,-119 -239,-97 -238,-119 -235,-97 -233,-119 -231,-97 -229,-119 -227,-98 -224,-119 -223,-98 -220,-119 -218,-98 -215,-119 -214,-97 -211,-119 -210,-97 -207,-119 -206,-96 -202,-119 -202,-96 -198,-119 -198,-95 -193,-119 -194,-95 -189,-118 -190,-94 -185,-117 -186,-94 -180,-116 -182,-93 -176,-114 -178,-93 -172,-113 -174,-91 -167,-112 -170,-90 -163,-111 -166,-89 -159,-110 -162,-88 -154,-109 -159,-87 -150,-107 -155,-86 -146,-106 -151,-84 -142,-105 -147,-83 -137,-104 -144,-82 -133,-103 -140,-81 -129,-102 -135,-80 -125,-100 -131,-78 -121,-98 -127,-77 -117,-96 -123,-75 -113,-94 -119,-72 -109,-93 -115,-70 -105,-91 -111,-68 -101,-89 -107,-67 -98,-87 -103,-65 -102,-68 -103,-65" /><polyline class="right-outline"  points="360,-47 358,-49 360,-47 360,-47 341,-60 341,-60 337,-68 361,-47 336,-63 360,-47 336,-58 360,-47 336,-53 360,-46 336,-49 359,-44 336,-44 359,-41 336,-40 359,-36 336,-36 358,-32 336,-31 358,-27 335,-27 357,-23 335,-23 357,-19 335,-19 356,-14 335,-14 355,-10 335,-10 355,-5 334,-6 354,-1 333,-2 354,3 332,2 353,8 331,6 352,12 330,10 352,17 330,14 351,21 329,18 350,25 328,23 349,30 327,27 348,34 326,31 347,38 325,35 346,43 324,39 344,47 323,42 343,51 322,46 342,55 321,49 340,60 319,53 339,64 318,57 338,68 317,60 336,72 315,63 334,76 312,66 331,80 310,69 329,84 308,72 327,87 306,75 324,91 303,77 321,94 301,80 318,98 299,83 315,101 297,86 312,104 294,89 309,107 292,92 305,110 289,94 302,112 286,96 298,115 283,98 294,117 280,100 291,120 277,102 287,122 274,104 283,125 270,105 279,127 267,107 276,129 264,109 271,131 261,111 267,132 257,113 263,133 254,114 258,134 251,115 254,136 247,116 250,137 244,116 246,138 241,117 241,139 237,118 237,141 234,118 232,141 230,119 228,141 227,118 224,141 224,117 219,140 220,116 215,139 217,115 211,138 214,114 206,137 211,113 202,136 208,113 198,134 204,112 194,132 201,111 190,130 197,110 186,128 193,108 182,125 190,106 178,123 187,103 174,121 184,101 170,119 181,99 167,117 178,97 163,114 175,95 159,112 172,92 156,109 169,90 152,106 166,88 149,103 163,86 146,99 161,83 143,96 159,80 140,93 157,77 137,90 155,74 134,86 153,71 132,82 151,68 130,78 149,65 128,74 146,62 126,70 145,59 124,67 144,55 122,63 142,52 120,58 141,48 119,54 140,44 118,50 139,41 117,45 138,37 116,41 137,33 115,37 135,29 114,32 134,25 113,28 133,21 112,24 132,17 111,19 131,13 110,15 130,9 109,11 130,5 108,6 129,1 108,2 129,-2 107,-2 128,-6 107,-7 128,-9 107,-11 127,-14 106,-16 127,-18 106,-20 127,-22 106,-24 130,-27 106,-29 132,-31 105,-33 134,-35 105,-38 136,-39 110,-42 108,-67 108,-67 103,-66 134,-68 103,-64 133,-61 104,-59 132,-57 104,-56 134,-52 104,-51 135,-48 104,-47 137,-44 105,-42 105,-42 136,-39 136,-39 126,-20 138,-41 130,-19 140,-39 135,-17 143,-38 139,-15 145,-36 143,-13 148,-35 147,-12 151,-34 152,-10 153,-33 156,-11 156,-34 160,-11 158,-35 165,-12 161,-35 169,-13 163,-36 174,-13 166,-36 177,-16 168,-37 181,-18 170,-38 184,-21 171,-40 188,-24 173,-41 191,-27 174,-43 195,-30 175,-45 197,-34 177,-47 198,-38 178,-49 199,-42 179,-51 201,-47 179,-53 202,-51 179,-55 202,-56 179,-58 201,-60 179,-60 201,-64 179,-63 200,-69 178,-65 200,-73 177,-68 197,-77 175,-70 195,-81 173,-72 193,-85 171,-74 191,-89 169,-77 188,-92 166,-78 184,-95 184,-95 164,-79 160,-84 170,-89 183,-100 201,-101 219,-102 237,-103 256,-100 275,-97 294,-95 317,-87 339,-79 339,-72 350,-62 362,-52 375,-55 392,-65 408,-81 423,-97 424,-93 419,-96 420,-90 415,-94 417,-87 411,-93 414,-83 406,-91 411,-80 402,-90 408,-76 398,-89 405,-73 394,-87 402,-69 391,-86 399,-66 387,-85 395,-62 384,-84 392,-59 382,-83 388,-57 379,-82 384,-55 377,-82 380,-52 375,-82 375,-50 373,-83 371,-49 371,-84 366,-48 369,-85 362,-48 367,-85 358,-50 365,-86 354,-53 362,-87 350,-56 360,-88 347,-59 357,-89 343,-62 354,-90 340,-65 351,-91 337,-70 347,-93 335,-75 344,-94 331,-77 339,-96 327,-78 335,-98 323,-79 331,-100 320,-80 327,-101 317,-82 323,-103 313,-83 319,-105 310,-84 315,-106 306,-85 311,-108 302,-87 306,-110 298,-88 302,-111 294,-89 298,-112 290,-90 293,-112 286,-91 289,-113 282,-91 285,-114 278,-92 280,-115 274,-93 276,-115 270,-93 271,-116 266,-94 267,-117 262,-94 263,-118 258,-95 258,-118 254,-96 254,-119 250,-96 249,-119 246,-97 245,-119 242,-97 241,-119 237,-98 236,-119 233,-98 232,-119 229,-98 227,-119 225,-97 223,-119 221,-97 218,-119 217,-97 214,-119 213,-97 209,-119 209,-96 205,-119 205,-96 200,-119 202,-96 196,-119 198,-96 191,-119 195,-95 187,-118 190,-95 183,-117 186,-95 179,-115 182,-93 174,-114 178,-90 170,-113 175,-87 166,-112 172,-85 161,-111 168,-82 157,-109 165,-80 153,-108 161,-79 149,-107 157,-80 144,-106 152,-80 140,-105 148,-79 137,-104 144,-77 134,-103 140,-74 130,-102 137,-71 125,-100 133,-68 121,-99 129,-68 117,-98 124,-67 113,-97 120,-67 109,-94 115,-67 105,-92 111,-67 101,-90 106,-66 98,-88 98,-88 102,-66 100,-71 75,-70 75,-70 74,-66 71,-70 77,-66 75,-74 81,-66 79,-77 84,-66 83,-79 88,-66 87,-81 93,-66 91,-84 97,-66 94,-86 102,-66 101,-69 102,-66" /><polyline   points="-181,-141 -178,-141 -181,-141 -161,-140 -142,-136 -124,-130 -106,-121 -124,-130 -106,-121 -124,-130 -142,-136 -124,-130 -142,-136 -161,-140 -142,-136 -161,-140 -181,-141 -161,-140 -181,-141 -178,-141 -181,-141" /><polyline   points="109,-119 112,-120 109,-119 127,-128 145,-134 164,-138 184,-139 164,-138 184,-139 164,-138 145,-134 164,-138 145,-134 127,-128 145,-134 127,-128 109,-119 127,-128 109,-119 112,-120 109,-119" /></svg>