<svg viewBox="-425 -150 850 300" fill="none" stroke="black" stroke-width="4"><polyline class="left-eye" stroke="red" points="-280,-82 -277,-82 -280,-82 -260,-83 -241,-83 -221,-84 -201,-85 -182,-86 -162,-88 -143,-88 -123,-88 -123,-89 -122,-69 -120,-49 -122,-30 -124,-10 -128,10 -132,29 -137,48 -146,66 -157,82 -172,96 -189,106 -207,114 -227,117 -246,115 -266,111 -284,104 -299,91 -312,76 -322,59 -331,41 -335,22 -337,2 -339,-18 -322,-10 -303,-5 -288,-15 -275,-29 -270,-46 -272,-65 -280,-82 -270,-67 -261,-52 -251,-38 -241,-23 -232,-8 -222,7 -212,22 -226,36 -245,41 -265,46 -273,50 -278,59 -287,77 -297,94 -280,101 -264,108 -247,115 -253,110 -281,82 -310,54 -333,32 -335,17 -337,2 -334,4 -305,32 -277,60 -248,88 -218,116 -207,113 -196,110 -214,93 -243,65 -272,37 -300,10 -320,-9 -306,-6 -299,-6 -294,-11 -267,15 -238,43 -209,71 -179,100 -163,89 -176,76 -204,48 -233,21 -262,-7 -279,-24 -272,-32 -270,-42 -257,-29 -228,-2 -200,26 -171,54 -151,73 -146,64 -141,56 -166,32 -195,4 -223,-24 -252,-52 -276,-74 -280,-82 -263,-77 -245,-71 -228,-66 -211,-61 -194,-56 -176,-50 -168,-48 -160,-50 -147,-62 -134,-75 -123,-89 -122,-75 -121,-60 -142,-80 -150,-88 -163,-87 -177,-87 -146,-58 -121,-33 -123,-21 -124,-9 -151,-35 -180,-63 -203,-85 -216,-85 -230,-84 -214,-69 -185,-41 -156,-13 -129,13 -131,24 -134,35 -161,9 -190,-19 -219,-46 -247,-74 -256,-83 -280,-82 -299,-91 -296,-91 -299,-88 -290,-91 -296,-85 -283,-91 -293,-81 -289,-82 -277,-92 -279,-89 -290,-78 -271,-92 -287,-75 -277,-82 -264,-92 -267,-89 -285,-70 -258,-92 -275,-74 -283,-66 -265,-82 -252,-92 -255,-89 -281,-61 -273,-67 -245,-92 -263,-74 -280,-56 -253,-81 -239,-93 -243,-88 -271,-59 -280,-50 -261,-67 -232,-93 -251,-74 -280,-43 -269,-52 -241,-81 -226,-94 -231,-88 -259,-59 -284,-33 -288,-27 -299,-16 -310,-6 -321,4 -333,-7 -343,-21 -352,-35 -351,-34 -352,-33 -346,-32 -351,-28 -342,-30 -350,-22 -338,-28 -349,-17 -334,-26 -342,-17 -348,-11 -331,-23 -348,-5 -340,-10 -327,-20 -330,-17 -347,0 -323,-19 -338,-2 -346,6 -328,-9 -317,-18 -346,12 -336,5 -312,-17 -326,-2 -345,17 -317,-9 -305,-17 -334,13 -345,23 -324,6 -301,-18 -296,-21 -315,-1 -344,29 -343,30 -343,31 -332,20 -305,-9 -277,-37 -249,-66 -222,-94 -239,-73 -267,-44 -295,-16 -322,13 -342,37 -313,6 -285,-23 -257,-52 -229,-80 -216,-94 -219,-87 -247,-59 -275,-30 -303,-1 -330,28 -341,42 -320,21 -293,-8 -265,-37 -237,-66 -209,-95 -227,-73 -255,-44 -283,-15 -311,14 -339,46 -328,35 -301,6 -273,-22 -245,-51 -217,-80 -203,-95 -207,-87 -235,-58 -263,-29 -291,-1 -318,28 -337,51 -309,21 -281,-8 -253,-37 -225,-65 -196,-95 -215,-72 -243,-44 -271,-15 -299,14 -326,43 -335,55 -316,36 -289,7 -261,-22 -233,-51 -205,-79 -190,-96 -195,-87 -223,-58 -251,-29 -279,0 -307,29 -333,59 -324,50 -297,21 -269,-7 -241,-36 -213,-65 -185,-94 -183,-96 -203,-72 -231,-43 -259,-14 -287,14 -314,43 -331,63 -305,36 -277,7 -249,-22 -221,-50 -193,-79 -177,-96 -183,-86 -211,-57 -239,-29 -267,0 -295,29 -322,58 -328,67 -312,51 -285,22 -257,-7 -229,-36 -201,-64 -174,-93 -170,-97 -191,-72 -219,-43 -247,-14 -275,15 -303,44 -326,71 -320,65 -293,36 -265,8 -237,-21 -209,-50 -181,-79 -164,-97 -172,-86 -199,-57 -227,-28 -255,1 -283,29 -310,58 -324,75 -301,51 -273,22 -245,-7 -217,-35 -189,-64 -162,-93 -157,-97 -179,-71 -207,-42 -235,-14 -263,15 -291,44 -318,73 -322,79 -308,66 -281,37 -253,8 -225,-21 -197,-49 -169,-78 -151,-97 -160,-85 -187,-57 -215,-28 -243,1 -271,30 -298,59 -319,83 -316,80 -289,51 -261,23 -233,-6 -205,-35 -177,-64 -150,-92 -145,-97 -167,-71 -195,-42 -223,-13 -251,16 -279,44 -306,73 -316,86 -296,66 -269,37 -241,8 -213,-20 -185,-49 -158,-78 -139,-98 -148,-85 -175,-56 -203,-27 -231,1 -259,30 -287,59 -314,90 -304,81 -277,52 -249,23 -221,-6 -193,-35 -165,-63 -138,-92 -132,-98 -156,-70 -183,-42 -211,-13 -239,16 -267,45 -294,73 -311,93 -285,66 -257,38 -229,9 -201,-20 -173,-49 -146,-77 -126,-98 -136,-85 -163,-56 -191,-27 -219,2 -247,31 -275,59 -302,88 -308,97 -292,81 -265,52 -237,23 -209,-5 -181,-34 -154,-63 -126,-92 -120,-98 -144,-70 -171,-41 -199,-12 -227,16 -255,45 -283,74 -305,100 -300,96 -273,67 -245,38 -217,9 -189,-20 -161,-48 -134,-77 -113,-98 -124,-84 -152,-55 -179,-27 -207,2 -235,31 -263,60 -290,88 -301,103 -281,81 -253,53 -225,24 -197,-5 -169,-34 -142,-62 -112,-93 -132,-70 -159,-41 -187,-12 -215,17 -243,46 -271,74 -298,106 -288,96 -261,67 -233,38 -205,10 -177,-19 -150,-48 -122,-77 -113,-86 -140,-55 -167,-26 -195,3 -223,31 -251,60 -279,89 -294,108 -269,82 -241,53 -213,24 -185,-5 -157,-33 -130,-62 -112,-80 -120,-69 -148,-40 -175,-12 -203,17 -231,46 -259,75 -286,103 -291,111 -277,96 -249,68 -221,39 -193,10 -165,-19 -138,-47 -112,-74 -128,-55 -155,-26 -183,3 -211,32 -239,61 -267,89 -287,114 -284,111 -257,82 -229,53 -201,25 -173,-4 -146,-33 -118,-62 -111,-68 -136,-40 -163,-11 -191,18 -219,46 -247,75 -275,104 -283,116 -265,97 -237,68 -209,39 -181,10 -153,-18 -126,-47 -111,-62 -116,-54 -144,-25 -171,3 -199,32 -227,61 -255,90 -278,117 -273,111 -245,83 -217,54 -189,25 -161,-4 -134,-32 -110,-56 -124,-40 -151,-11 -179,18 -207,47 -235,76 -263,104 -274,119 -253,97 -225,68 -197,40 -169,11 -142,-18 -114,-47 -110,-50 -132,-25 -159,4 -187,33 -215,61 -243,90 -269,121 -261,112 -233,83 -205,54 -177,25 -149,-3 -122,-32 -110,-44 -140,-10 -167,18 -195,47 -223,76 -251,105 -265,122 -241,98 -213,69 -185,40 -157,11 -130,-17 -111,-37 -120,-25 -147,4 -175,33 -203,62 -231,91 -259,119 -259,123 -249,112 -221,83 -193,55 -165,26 -138,-3 -111,-30 -128,-10 -155,19 -183,48 -211,76 -239,105 -254,124 -229,98 -201,69 -173,40 -145,12 -118,-17 -112,-23 -135,5 -163,33 -191,62 -219,91 -247,120 -249,125 -237,113 -209,84 -181,55 -153,26 -126,-2 -113,-16 -116,-10 -143,19 -171,48 -199,77 -227,106 -244,126 -217,98 -189,70 -161,41 -133,12 -114,-8 -124,5 -151,34 -179,63 -207,91 -235,120 -238,127 -225,113 -197,84 -169,55 -141,27 -115,-1 -131,20 -159,48 -187,77 -215,106 -232,127 -205,99 -177,70 -149,41 -122,13 -117,7 -139,34 -167,63 -195,92 -223,121 -226,127 -213,113 -185,85 -157,56 -129,27 -118,15 -147,49 -175,78 -203,106 -220,127 -193,99 -165,70 -137,42 -120,23 -127,35 -155,63 -183,92 -211,121 -213,126 -201,114 -173,85 -145,56 -122,32 -135,49 -163,78 -191,107 -205,124 -181,100 -153,71 -125,41 -143,64 -171,93 -196,121 -189,114 -161,85 -133,57 -128,51 -130,57 -151,78 -179,107 -191,119 -184,116 -169,100 -141,71 -133,63 -136,69 -159,93 -178,113 -169,106 -149,86 -140,76 -147,85 -154,94 -152,92 -154,94" /><polyline class="right-eye" stroke="red" points="134,-8 132,-10 134,-8 125,-15 141,-9 159,-8 175,-13 190,-23 196,-29 199,-37 202,-54 199,-71 191,-87 208,-85 226,-84 244,-83 263,-83 281,-82 299,-82 317,-81 335,-81 353,-80 351,-60 350,-40 348,-20 346,-1 343,19 338,38 330,56 321,74 308,89 293,102 275,110 256,114 236,116 216,115 197,108 180,98 166,85 155,68 146,50 140,31 136,12 134,-8 141,9 148,26 155,43 161,60 168,77 175,94 175,94 172,91 163,82 155,64 147,47 140,29 150,40 179,68 207,97 226,115 240,115 254,114 241,102 213,73 185,45 156,17 134,-5 134,-8 125,-15 134,-8 152,-5 171,-1 189,2 208,6 226,9 244,13 262,14 275,1 288,-13 301,-26 314,-40 327,-53 340,-67 353,-80 352,-66 351,-53 325,-78 323,-81 308,-81 292,-82 319,-55 349,-26 347,-12 346,1 341,-4 313,-32 285,-60 262,-83 247,-83 232,-84 250,-66 278,-37 307,-9 335,19 341,26 338,37 334,48 329,42 301,14 272,-14 244,-42 216,-71 202,-85 191,-87 203,-54 209,-48 238,-19 266,9 294,37 325,68 318,76 312,85 288,60 260,32 232,4 203,-24 197,-31 189,-24 182,-17 197,-1 225,27 254,55 282,84 298,99 288,104 278,109 276,107 248,78 219,50 191,22 163,-6 160,-9 144,-9 129,-13 134,-8 120,-27 120,-31 122,-30 120,-28 125,-27 121,-23 129,-25 123,-18 133,-22 123,-13 132,-18 137,-21 124,-7 142,-19 134,-11 125,-1 148,-18 125,4 136,-3 153,-17 146,-10 126,10 161,-18 138,5 127,15 148,-2 164,-19 170,-22 158,-9 127,21 128,24 139,12 168,-16 176,-24 182,-29 195,-41 207,-54 216,-68 204,-80 188,-88 172,-96 178,-96 172,-90 184,-96 175,-87 190,-95 185,-90 179,-84 196,-95 182,-81 187,-82 202,-95 197,-89 185,-77 208,-95 187,-73 199,-82 214,-94 209,-89 189,-69 220,-94 200,-74 191,-64 210,-81 226,-94 221,-88 192,-60 202,-67 233,-94 212,-73 193,-54 222,-80 239,-93 233,-87 204,-59 192,-47 214,-66 245,-93 224,-73 196,-45 188,-37 176,-24 164,-11 152,1 140,14 128,26 150,5 178,-23 206,-51 234,-80 251,-93 244,-87 216,-58 188,-30 160,-2 131,27 129,29 141,20 170,-9 198,-37 226,-65 257,-93 236,-72 208,-44 180,-16 151,13 131,34 161,6 190,-22 218,-51 246,-79 263,-92 256,-86 228,-58 200,-29 172,-1 143,27 132,38 153,20 182,-8 210,-36 238,-65 269,-92 248,-72 220,-43 192,-15 163,13 133,43 145,35 173,6 202,-22 230,-50 258,-78 275,-92 268,-85 240,-57 212,-29 184,0 155,28 135,48 138,48 165,21 194,-7 222,-36 250,-64 281,-92 260,-71 232,-43 204,-14 175,14 147,42 137,53 157,35 185,7 214,-21 242,-50 270,-78 287,-91 280,-85 252,-56 224,-28 195,0 167,28 139,57 149,50 177,22 206,-7 234,-35 262,-63 293,-91 272,-70 244,-42 216,-14 187,15 159,43 140,61 169,36 197,8 226,-21 254,-49 282,-77 299,-91 292,-84 264,-56 236,-27 207,1 179,29 151,57 142,66 161,50 189,22 217,-6 246,-34 274,-63 305,-91 284,-70 256,-41 228,-13 199,15 171,44 144,70 153,65 181,37 209,8 238,-20 266,-48 294,-77 312,-91 304,-83 276,-55 248,-27 219,1 191,30 163,58 147,74 173,51 201,23 229,-5 258,-34 286,-62 318,-91 296,-69 268,-41 239,-12 211,16 183,44 155,72 149,78 165,66 193,37 221,9 250,-19 278,-48 306,-76 324,-91 316,-83 288,-55 260,-26 231,2 203,30 175,59 152,82 157,80 185,52 213,23 241,-5 270,-33 298,-61 330,-91 308,-68 280,-40 251,-12 223,17 195,45 167,73 154,86 177,66 205,38 233,10 261,-19 290,-47 318,-75 336,-90 328,-82 300,-54 272,-26 243,3 215,31 187,59 157,89 168,81 197,52 225,24 253,-4 282,-32 310,-61 343,-90 320,-68 292,-39 263,-11 235,17 207,45 179,74 160,92 189,67 217,39 245,10 273,-18 302,-46 330,-75 349,-90 340,-82 312,-53 284,-25 255,3 227,32 199,60 170,88 163,96 180,81 209,53 237,25 265,-4 294,-32 322,-60 355,-90 332,-67 304,-39 275,-10 247,18 219,46 190,74 166,99 172,96 201,67 229,39 257,11 285,-17 314,-46 342,-74 361,-90 352,-81 324,-53 295,-24 267,4 239,32 211,61 182,89 169,102 192,82 221,54 249,25 277,-3 306,-31 334,-59 364,-86 344,-66 316,-38 287,-10 259,18 231,47 202,75 173,105 184,96 212,68 241,40 269,12 297,-17 326,-45 354,-73 363,-80 336,-52 307,-24 279,5 251,33 223,61 194,89 176,107 204,83 233,54 261,26 289,-2 317,-31 346,-59 363,-73 356,-66 328,-37 299,-9 271,19 243,47 214,76 186,104 180,110 196,97 224,69 253,40 281,12 309,-16 338,-44 362,-66 348,-51 319,-23 291,5 263,34 235,62 206,90 183,113 188,111 216,83 245,55 273,27 301,-2 329,-30 358,-58 362,-59 339,-37 311,-9 283,20 255,48 226,76 198,105 188,115 208,98 236,69 265,41 293,13 321,-15 350,-44 362,-53 331,-22 303,6 275,34 246,62 218,91 192,117 200,112 228,84 257,56 285,27 313,-1 341,-29 361,-46 351,-36 323,-8 295,20 267,49 238,77 210,105 196,119 220,98 248,70 277,42 305,13 333,-15 361,-39 343,-22 315,7 287,35 258,63 230,91 200,121 212,113 240,84 268,56 297,28 325,0 353,-29 360,-32 335,-7 307,21 279,49 250,78 222,106 205,122 232,99 260,71 289,42 317,14 345,-14 359,-25 355,-21 327,7 299,35 270,64 242,92 214,120 210,124 224,113 252,85 280,57 309,29 337,0 358,-18 347,-7 319,22 290,50 262,78 234,106 216,125 244,100 272,71 301,43 329,15 358,-11 339,8 311,36 282,64 254,93 226,121 221,125 236,114 264,86 292,57 321,29 349,1 357,-4 331,22 302,51 274,79 246,107 227,126 256,100 284,72 312,44 341,15 356,3 351,8 323,37 294,65 266,93 238,122 233,126 248,115 276,86 304,58 333,30 355,11 343,23 314,51 286,79 258,108 240,126 268,101 296,73 324,44 354,18 334,37 306,66 278,94 250,122 247,125 260,115 288,87 316,59 345,30 352,26 326,52 298,80 270,108 254,124 280,101 308,73 336,45 349,35 346,38 318,66 290,95 261,124 272,116 300,88 328,59 347,44 338,52 310,81 282,109 268,123 292,102 320,74 345,49 343,54 330,67 302,95 276,121 284,117 312,88 341,59 337,66 322,81 294,110 285,118 291,116 304,103 333,73 327,82 314,96 297,112 313,100 314,99 313,99 313,100" /><polyline  stroke="white" points="-302,-83 -301,-80 -302,-83 -294,-65 -291,-56 -293,-46 -305,-32 -315,-30 -324,-32 -338,-46 -336,-65 -321,-77 -302,-83 -315,-72 -327,-60 -340,-49 -340,-49 -336,-65 -323,-76 -323,-48 -323,-32 -307,-31 -307,-60 -307,-82 -302,-83 -296,-67 -290,-52 -290,-52 -290,-52 -302,-83 -318,-86 -310,-86 -310,-86 -307,-86 -320,-86 -328,-84 -296,-82 -322,-82 -331,-82 -310,-80 -291,-78 -298,-78 -337,-78 -326,-76 -287,-74 -314,-74 -342,-74 -302,-72 -284,-70 -290,-70 -330,-70 -345,-70 -318,-68 -282,-66 -306,-66 -348,-66 -334,-64 -294,-64 -280,-62 -322,-62 -349,-62 -310,-60 -279,-58 -298,-58 -338,-58 -350,-58 -326,-56 -286,-56 -278,-54 -314,-54 -351,-54 -342,-52 -302,-52 -278,-50 -290,-50 -330,-50 -351,-50 -318,-48 -279,-46 -306,-46 -346,-46 -350,-46 -334,-44 -294,-44 -281,-42 -322,-42 -350,-42 -310,-40 -283,-38 -298,-38 -338,-38 -347,-38 -326,-36 -285,-34 -314,-34 -344,-34 -339,-32 -302,-32 -289,-30 -330,-30 -340,-30 -318,-28 -293,-26 -306,-26 -335,-26 -300,-22 -322,-22 -327,-22 -315,-20 -312,-20 -311,-20 -315,-20" /><polyline  stroke="white" points="167,-85 169,-83 167,-85 178,-71 185,-55 177,-39 161,-32 152,-32 145,-37 133,-51 137,-68 150,-80 167,-85 156,-74 144,-62 133,-51 133,-51 140,-64 146,-77 146,-48 146,-36 159,-32 159,-60 159,-83 167,-85 176,-70 185,-55 178,-45 172,-36 172,-72 172,-79 167,-85 158,-90 164,-90 164,-90 167,-90 154,-90 167,-90 174,-88 146,-88 158,-86 181,-84 170,-84 139,-84 142,-82 186,-80 154,-80 134,-80 166,-78 189,-76 178,-76 138,-76 130,-76 150,-74 192,-72 162,-72 127,-72 134,-70 174,-70 194,-68 186,-68 146,-68 125,-68 158,-66 196,-64 170,-64 130,-64 124,-64 142,-62 182,-62 197,-60 154,-60 122,-60 126,-58 166,-58 197,-56 178,-56 138,-56 122,-56 150,-54 190,-54 197,-52 162,-52 122,-52 134,-50 174,-50 195,-48 186,-48 146,-48 123,-48 158,-46 193,-44 170,-44 130,-44 124,-44 142,-42 182,-42 191,-40 154,-40 127,-40 166,-38 190,-36 178,-36 138,-36 129,-36 150,-34 186,-32 162,-32 133,-32 174,-30 181,-28 146,-28 139,-28 158,-26 174,-24 170,-24 147,-24 162,-22 163,-22 165,-22 160,-22 162,-22 160,-22 162,-22" /><polyline class="left-outline"  points="-350,-85 -350,-85 -347,-81 -362,-83 -360,-65 -359,-47 -349,-33 -339,-19 -358,-29 -355,-10 -353,8 -350,27 -343,43 -337,58 -330,74 -318,89 -306,104 -286,118 -270,123 -254,128 -233,128 -211,128 -196,123 -180,118 -158,102 -146,87 -135,71 -127,55 -120,38 -115,17 -110,-4 -108,-26 -106,-48 -104,-70 -103,-92 -115,-93 -119,-96 -97,-97 -120,-93 -98,-92 -120,-91 -98,-88 -120,-88 -98,-83 -121,-83 -99,-79 -121,-79 -99,-75 -121,-74 -99,-70 -122,-70 -100,-66 -122,-65 -100,-61 -123,-61 -101,-57 -123,-57 -101,-52 -123,-52 -101,-48 -124,-48 -102,-44 -124,-43 -102,-39 -125,-39 -102,-35 -125,-34 -103,-30 -125,-30 -103,-26 -126,-26 -104,-21 -126,-22 -104,-17 -126,-17 -104,-13 -127,-13 -105,-8 -127,-9 -105,-4 -128,-5 -106,1 -128,-1 -107,5 -128,3 -108,9 -129,7 -109,14 -131,11 -110,18 -132,15 -111,22 -133,19 -112,27 -134,23 -113,31 -135,26 -114,35 -136,30 -115,40 -137,34 -117,44 -138,38 -119,48 -139,42 -120,52 -141,46 -122,56 -143,49 -124,60 -145,52 -126,64 -146,56 -128,68 -148,59 -130,72 -150,62 -132,76 -152,66 -135,80 -154,69 -137,83 -156,72 -140,87 -159,75 -143,90 -161,78 -145,94 -163,81 -148,97 -166,84 -151,101 -168,87 -154,104 -170,90 -157,107 -173,92 -160,110 -176,94 -164,113 -179,95 -168,115 -182,97 -171,118 -185,99 -175,120 -188,101 -179,123 -191,103 -183,124 -194,105 -187,126 -197,107 -191,127 -200,107 -196,128 -204,108 -200,130 -207,109 -204,131 -211,109 -208,132 -214,110 -213,133 -218,110 -217,133 -222,111 -222,133 -225,111 -226,133 -229,112 -230,133 -233,113 -235,133 -237,113 -239,133 -240,112 -244,133 -244,112 -248,133 -248,111 -253,133 -251,110 -257,133 -255,110 -261,131 -258,109 -266,130 -262,109 -270,129 -265,108 -274,127 -269,106 -278,126 -272,104 -283,124 -275,103 -287,123 -278,101 -291,121 -281,100 -294,118 -284,98 -298,116 -287,97 -302,113 -290,95 -305,111 -292,92 -309,108 -295,89 -312,105 -297,86 -315,101 -300,84 -317,98 -302,81 -320,94 -304,78 -323,91 -307,76 -326,87 -309,73 -329,84 -312,70 -331,80 -314,67 -334,77 -316,63 -336,73 -318,60 -338,69 -320,57 -339,64 -321,53 -341,60 -323,50 -343,56 -325,46 -345,52 -326,43 -346,48 -327,39 -348,44 -328,35 -350,40 -329,31 -351,36 -330,27 -353,32 -331,23 -355,27 -332,19 -356,23 -333,15 -356,19 -334,11 -357,14 -335,7 -358,10 -336,4 -358,5 -337,0 -359,1 -337,-3 -360,-3 -338,-7 -361,-8 -339,-11 -361,-12 -340,-15 -362,-17 -339,-19 -362,-21 -337,-23 -363,-25 -336,-27 -363,-30 -335,-31 -363,-34 -334,-35 -363,-39 -333,-39 -364,-43 -335,-43 -364,-48 -337,-47 -364,-52 -337,-50 -364,-57 -337,-53 -365,-62 -337,-55 -365,-66 -337,-57 -365,-71 -337,-59 -365,-77 -336,-60 -366,-82 -335,-61 -363,-85 -334,-62 -356,-85 -333,-64 -333,-64 -350,-85 -347,-81 -325,-82 -304,-83 -293,-86 -283,-79 -274,-64 -274,-49 -283,-25 -296,-14 -313,-10 -339,-19 -340,-14 -333,-41 -338,-13 -329,-37 -334,-12 -326,-33 -331,-11 -324,-31 -326,-10 -321,-30 -322,-8 -318,-30 -318,-7 -315,-30 -314,-6 -313,-29 -309,-6 -311,-29 -305,-7 -309,-30 -301,-8 -307,-31 -297,-9 -305,-32 -292,-11 -303,-33 -289,-14 -301,-34 -285,-16 -299,-35 -282,-19 -297,-36 -279,-22 -296,-38 -277,-27 -295,-40 -275,-31 -294,-42 -273,-35 -293,-44 -272,-39 -292,-46 -270,-43 -291,-48 -269,-47 -291,-51 -269,-52 -291,-53 -269,-56 -292,-55 -269,-61 -292,-57 -270,-65 -293,-59 -272,-69 -293,-61 -274,-73 -293,-63 -276,-77 -294,-65 -278,-81 -296,-66 -281,-84 -297,-67 -285,-86 -299,-69 -289,-89 -301,-70 -293,-90 -303,-72 -299,-89 -305,-74 -304,-88 -308,-74 -308,-87 -311,-75 -313,-87 -315,-75 -317,-87 -318,-75 -322,-87 -322,-74 -326,-86 -325,-73 -331,-86 -327,-71 -335,-86 -329,-69 -340,-86 -331,-67 -345,-85 -332,-65 -350,-85 -348,-83 -350,-85 -338,-76 -338,-76 -338,-81 -318,-81 -298,-82 -279,-83 -259,-84 -239,-85 -219,-86 -199,-87 -179,-88 -159,-89 -156,-108 -158,-114 -163,-114 -168,-111 -190,-117 -186,-117 -185,-114 -181,-116 -181,-111 -177,-116 -178,-108 -173,-115 -175,-106 -168,-115 -174,-106 -163,-114 -173,-105 -173,-100 -188,-101 -203,-102 -224,-107 -225,-112 -230,-113 -235,-111 -262,-117 -255,-118 -260,-115 -253,-117 -256,-113 -251,-117 -252,-110 -247,-116 -249,-108 -243,-115 -246,-105 -239,-114 -244,-104 -235,-114 -243,-103 -230,-113 -242,-103 -241,-98 -260,-98 -278,-98 -305,-104 -306,-109 -311,-110 -315,-107 -335,-112 -335,-112 -339,-112 -336,-115 -338,-110 -333,-114 -334,-108 -329,-114 -331,-105 -325,-113 -327,-103 -320,-112 -324,-101 -316,-111 -324,-100 -311,-110 -323,-100 -323,-100 -306,-109 -304,-103 -322,-95 -345,-94 -369,-93 -392,-92 -417,-94 -413,-97 -414,-91 -409,-97 -410,-88 -405,-97 -406,-86 -401,-97 -402,-83 -396,-97 -398,-80 -392,-97 -394,-78 -388,-97 -390,-76 -384,-98 -386,-75 -380,-98 -381,-74 -376,-98 -377,-72 -373,-98 -373,-71 -369,-98 -368,-69 -366,-98 -364,-68 -362,-98 -359,-69 -358,-98 -355,-70 -355,-99 -351,-72 -351,-99 -346,-73 -347,-99 -342,-74 -343,-94 -322,-95 -305,-104 -278,-98 -260,-98 -241,-98 -224,-107 -203,-102 -188,-101 -173,-100 -157,-109 -138,-106 -119,-104 -99,-102 -76,-101 -78,-104 -75,-98 -80,-104 -81,-95 -85,-105 -85,-93 -89,-105 -89,-91 -93,-106 -93,-89 -97,-106 -97,-86 -101,-107 -102,-86 -105,-107 -106,-86 -109,-108 -111,-86 -113,-108 -115,-85 -117,-109 -119,-85 -121,-109 -124,-85 -125,-110 -128,-85 -130,-110 -133,-85 -134,-111 -137,-85 -138,-111 -141,-84 -143,-112 -144,-84 -147,-112 -148,-84 -152,-113 -152,-84 -156,-113 -156,-84 -161,-112 -161,-84 -165,-109 -165,-84 -169,-107 -169,-83 -174,-106 -174,-83 -178,-105 -178,-83 -182,-106 -183,-83 -186,-106 -187,-83 -189,-106 -192,-82 -193,-107 -196,-82 -197,-107 -200,-82 -202,-107 -205,-82 -206,-108 -209,-82 -210,-109 -212,-82 -215,-110 -216,-82 -219,-111 -220,-81 -224,-111 -224,-81 -228,-110 -228,-81 -233,-108 -233,-81 -237,-105 -237,-81 -241,-103 -241,-81 -246,-103 -245,-80 -250,-103 -250,-80 -254,-103 -254,-80 -257,-103 -259,-80 -261,-103 -263,-80 -265,-103 -267,-80 -269,-103 -272,-79 -274,-103 -276,-79 -278,-103 -281,-79 -282,-104 -285,-79 -287,-105 -289,-79 -291,-106 -293,-79 -295,-107 -296,-78 -300,-108 -300,-78 -304,-108 -305,-78 -309,-107 -309,-78 -313,-105 -313,-78 -317,-103 -316,-78 -322,-101 -320,-78 -326,-100 -324,-77 -330,-99 -329,-77 -335,-99 -333,-76 -339,-99 -338,-76 -343,-99 -343,-99 -342,-74 -342,-77 -342,-74" /><polyline class="right-outline"  points="359,-81 362,-81 359,-81 359,-81 374,-79 369,-79 367,-60 366,-41 364,-22 363,-3 358,15 353,33 349,51 339,68 329,86 316,99 303,113 282,123 267,127 252,130 232,129 212,128 194,120 177,113 158,96 146,76 133,56 128,36 123,16 117,-4 115,-33 134,-23 124,-39 114,-55 112,-70 110,-85 115,-94 131,-88 136,-91 159,-91 182,-91 197,-74 201,-57 196,-40 183,-24 161,-16 135,-23 135,-23 132,-19 142,-42 134,-18 144,-40 139,-17 146,-39 143,-16 149,-37 147,-15 152,-35 151,-13 155,-34 156,-12 157,-35 160,-11 160,-35 165,-12 162,-35 169,-13 165,-36 173,-15 167,-36 177,-16 170,-36 181,-18 171,-38 185,-20 173,-39 189,-23 174,-41 192,-26 176,-43 194,-30 178,-44 197,-33 179,-46 200,-37 181,-48 201,-41 181,-50 202,-45 181,-52 204,-49 181,-54 205,-54 181,-57 205,-58 181,-59 204,-63 181,-61 204,-67 182,-63 203,-71 181,-65 201,-75 180,-66 199,-79 179,-68 196,-83 178,-70 193,-86 177,-72 190,-89 175,-74 187,-93 173,-75 183,-95 171,-76 178,-95 169,-78 173,-95 167,-79 169,-95 164,-79 164,-95 161,-80 160,-95 158,-80 155,-95 155,-80 151,-95 151,-79 146,-95 148,-78 142,-95 146,-76 137,-96 144,-74 133,-95 143,-73 127,-96 142,-71 120,-98 141,-70 115,-98 140,-69 110,-96 139,-68 108,-92 138,-68 107,-88 137,-66 107,-82 137,-65 107,-77 137,-63 107,-72 137,-61 108,-67 137,-59 108,-63 136,-57 108,-58 136,-55 109,-54 137,-50 109,-49 139,-46 109,-45 141,-42 110,-40 140,-38 110,-36 138,-34 110,-31 136,-29 111,-27 135,-25 111,-22 133,-20 111,-18 133,-16 112,-14 133,-12 112,-9 134,-8 112,-5 135,-5 113,0 135,-2 114,4 136,2 115,8 137,6 116,13 137,10 118,17 138,14 119,21 139,18 120,25 140,22 121,30 141,26 122,34 143,30 123,38 144,34 125,43 146,37 126,47 147,41 127,51 149,44 128,56 150,48 130,60 152,52 132,63 153,55 135,67 155,59 137,71 157,62 139,75 160,65 142,79 162,68 144,82 164,71 146,86 166,74 149,90 169,77 151,94 171,80 154,97 173,84 157,101 175,86 160,104 177,89 163,107 180,91 166,110 183,94 170,113 185,96 173,116 188,98 177,118 191,100 181,120 193,102 185,122 196,104 189,123 200,105 193,125 203,106 197,127 206,107 201,128 210,108 205,130 213,109 210,132 217,110 214,133 220,111 218,133 224,112 223,133 228,112 227,133 232,112 232,134 235,112 236,134 239,112 241,134 242,112 245,134 246,112 250,135 250,112 254,134 253,112 258,133 257,112 263,133 261,111 267,132 264,109 271,131 268,108 276,130 271,107 280,129 274,106 284,128 277,104 288,126 280,103 292,124 284,102 296,122 287,101 300,120 290,99 304,118 293,98 308,115 296,95 311,112 298,93 314,109 301,90 317,105 303,88 320,102 305,85 324,99 308,83 327,96 310,80 330,93 313,77 333,89 316,74 335,86 318,71 337,82 320,67 339,78 322,64 342,74 324,61 344,70 325,58 346,66 327,55 348,62 329,51 350,58 330,47 352,54 331,44 354,50 333,40 355,46 334,36 356,42 335,32 357,37 336,28 358,33 338,24 360,29 339,21 361,24 340,17 362,20 341,13 363,16 343,9 364,11 344,5 365,7 345,1 366,3 345,-3 367,-1 345,-7 368,-6 346,-11 368,-10 346,-15 369,-15 346,-19 369,-19 347,-24 370,-24 347,-28 370,-28 348,-32 370,-32 348,-37 371,-37 348,-41 371,-41 349,-45 371,-46 349,-50 372,-50 350,-54 372,-55 350,-59 372,-59 350,-63 373,-63 351,-68 373,-68 351,-72 373,-72 352,-76 374,-77 374,-79 374,-79 359,-81 362,-81 359,-81 340,-75 337,-76 340,-75 336,-76 336,-76 337,-81 324,-82 327,-95 319,-102 333,-111 333,-111 336,-115 339,-112 334,-115 336,-109 331,-114 332,-107 327,-113 329,-104 323,-112 325,-101 318,-111 324,-100 314,-110 323,-100 308,-109 305,-104 278,-98 260,-98 241,-98 242,-103 238,-105 253,-115 255,-118 262,-117 254,-117 258,-114 252,-117 254,-111 249,-117 251,-109 245,-116 247,-106 241,-115 244,-104 237,-114 243,-103 232,-113 242,-103 227,-112 224,-107 203,-102 188,-101 173,-100 173,-105 169,-108 169,-108 190,-117 187,-115 184,-117 183,-112 179,-116 179,-110 175,-116 176,-107 170,-115 174,-106 166,-115 174,-105 161,-114 161,-114 173,-105 171,-101 157,-109 138,-106 119,-104 100,-102 81,-100 81,-100 75,-98 80,-104 79,-96 83,-105 83,-94 87,-105 87,-92 91,-106 91,-90 95,-106 96,-87 99,-107 100,-86 104,-107 104,-86 108,-108 109,-86 112,-108 113,-86 116,-108 118,-85 120,-109 122,-85 124,-109 127,-85 128,-110 131,-85 132,-111 135,-85 137,-111 139,-85 141,-112 143,-84 146,-112 146,-84 150,-113 150,-84 155,-113 155,-84 159,-112 159,-84 163,-110 163,-84 168,-108 168,-83 172,-106 172,-83 176,-105 177,-83 181,-106 181,-83 185,-106 186,-83 188,-106 190,-83 192,-106 194,-82 196,-107 199,-82 200,-107 203,-82 204,-108 207,-82 209,-108 211,-82 213,-109 214,-82 218,-110 218,-81 222,-111 223,-81 227,-111 227,-81 231,-108 231,-81 235,-106 235,-81 240,-104 239,-81 244,-103 244,-80 248,-103 248,-80 253,-103 253,-80 256,-103 257,-80 260,-103 261,-80 264,-103 266,-80 268,-103 270,-79 272,-103 275,-79 276,-103 279,-79 281,-104 284,-79 285,-104 288,-79 289,-105 291,-79 294,-106 295,-78 298,-107 299,-78 303,-108 303,-78 307,-108 307,-78 312,-106 311,-78 316,-103 315,-78 320,-101 319,-78 324,-100 323,-77 329,-99 327,-77 333,-99 332,-77 337,-99 336,-76 340,-94 359,-95 378,-95 397,-96 397,-96 415,-96 417,-94 412,-97 412,-90 408,-97 408,-87 403,-97 404,-85 399,-97 401,-82 395,-97 397,-79 390,-97 393,-77 386,-97 388,-76 382,-98 384,-74 379,-98 380,-73 375,-98 375,-72 372,-98 371,-70 368,-98 367,-69 364,-98 362,-68 361,-98 358,-70 357,-98 353,-71 353,-99 349,-72 349,-99 345,-73 345,-99 340,-75 341,-99 341,-99 336,-76 337,-79 336,-76" /><polyline   points="-190,-129 -187,-129 -190,-129 -172,-130 -155,-131 -137,-133 -120,-134 -137,-133 -120,-134 -137,-133 -155,-131 -137,-133 -155,-131 -172,-130 -155,-131 -172,-130 -190,-129 -172,-130 -190,-129 -187,-129 -190,-129" /><polyline   points="192,-129 189,-129 192,-129 175,-130 157,-131 140,-133 122,-134 140,-133 122,-134 140,-133 157,-131 140,-133 157,-131 175,-130 157,-131 175,-130 192,-129 175,-130 192,-129 189,-129 192,-129" /></svg>