<svg viewBox="-425 -150 850 300" fill="none" stroke="black" stroke-width="4"><polyline class="left-eye" stroke="red" points="-285,-84 -282,-85 -285,-84 -268,-89 -250,-90 -233,-91 -215,-92 -197,-92 -179,-92 -161,-92 -144,-90 -126,-89 -125,-69 -123,-49 -125,-30 -127,-10 -131,10 -135,29 -140,48 -149,66 -160,82 -175,96 -192,106 -210,114 -230,117 -249,115 -269,111 -287,104 -302,91 -315,76 -325,59 -334,41 -338,22 -340,2 -342,-18 -324,-10 -306,-5 -290,-16 -277,-30 -273,-48 -275,-68 -285,-84 -271,-71 -256,-57 -242,-44 -228,-31 -214,-17 -210,-8 -210,1 -216,20 -228,34 -247,41 -265,47 -277,62 -289,78 -300,94 -283,101 -266,108 -249,115 -252,113 -281,85 -310,58 -336,34 -338,19 -340,4 -335,8 -306,36 -276,63 -247,90 -219,116 -209,113 -198,110 -213,95 -243,68 -272,41 -301,13 -328,-11 -312,-7 -304,-5 -298,-10 -267,18 -238,45 -209,73 -180,99 -165,87 -175,78 -204,50 -234,23 -263,-4 -283,-23 -274,-41 -258,-27 -229,1 -200,28 -171,55 -153,72 -148,63 -143,54 -166,33 -195,6 -225,-22 -254,-49 -276,-69 -285,-84 -265,-85 -245,-85 -225,-86 -205,-86 -186,-87 -166,-88 -146,-88 -126,-89 -125,-75 -124,-61 -144,-79 -157,-92 -172,-92 -186,-92 -178,-84 -148,-57 -124,-34 -126,-22 -127,-10 -153,-34 -182,-62 -211,-89 -215,-92 -228,-91 -242,-91 -216,-66 -187,-39 -157,-12 -131,12 -134,23 -137,34 -162,10 -191,-17 -220,-44 -250,-71 -268,-89 -285,-84 -302,-91 -300,-91 -302,-88 -293,-92 -299,-85 -284,-94 -289,-90 -296,-82 -275,-98 -293,-78 -286,-82 -268,-99 -277,-90 -290,-75 -262,-99 -284,-75 -288,-71 -275,-82 -255,-100 -265,-90 -286,-67 -282,-68 -255,-97 -249,-100 -272,-75 -285,-62 -263,-82 -242,-101 -253,-89 -280,-60 -283,-56 -270,-67 -243,-97 -236,-101 -260,-75 -283,-51 -278,-53 -251,-82 -230,-101 -241,-89 -268,-60 -283,-44 -258,-67 -231,-96 -223,-101 -248,-74 -276,-45 -287,-33 -291,-27 -302,-16 -313,-6 -324,5 -336,-6 -346,-21 -355,-35 -353,-34 -355,-32 -349,-32 -354,-27 -344,-30 -353,-21 -340,-28 -352,-15 -341,-24 -336,-26 -351,-10 -349,-9 -333,-23 -339,-17 -350,-4 -330,-20 -347,-2 -350,2 -337,-9 -325,-18 -349,7 -344,6 -320,-18 -335,-2 -349,13 -325,-9 -314,-17 -342,13 -348,19 -332,6 -308,-17 -323,-1 -347,25 -340,21 -313,-9 -304,-19 -298,-21 -303,-16 -330,13 -346,31 -321,6 -293,-23 -266,-52 -239,-82 -217,-102 -229,-89 -256,-60 -283,-30 -311,-1 -338,28 -346,36 -328,21 -301,-8 -274,-38 -246,-67 -219,-96 -211,-102 -237,-74 -264,-45 -291,-16 -318,14 -344,41 -336,36 -309,6 -281,-23 -254,-52 -227,-82 -205,-102 -217,-89 -244,-60 -271,-30 -299,-1 -326,28 -342,46 -316,21 -289,-8 -262,-38 -234,-67 -207,-96 -199,-102 -225,-74 -252,-45 -279,-16 -306,14 -334,43 -341,50 -324,36 -297,6 -269,-23 -242,-52 -215,-81 -192,-102 -205,-89 -232,-59 -260,-30 -287,-1 -314,28 -338,55 -332,50 -304,21 -277,-8 -250,-37 -222,-67 -195,-96 -186,-102 -213,-74 -240,-45 -267,-15 -295,14 -322,43 -336,59 -312,36 -285,7 -257,-23 -230,-52 -203,-81 -180,-102 -193,-88 -220,-59 -248,-30 -275,-1 -302,29 -329,58 -334,63 -320,51 -292,21 -265,-8 -238,-37 -211,-66 -183,-96 -174,-102 -201,-74 -228,-44 -255,-15 -283,14 -310,43 -332,67 -327,65 -300,36 -273,7 -245,-22 -218,-52 -191,-81 -168,-102 -181,-88 -208,-59 -236,-30 -263,0 -290,29 -318,58 -329,71 -308,51 -280,22 -253,-8 -226,-37 -199,-66 -171,-95 -162,-102 -189,-73 -216,-44 -243,-15 -271,14 -298,44 -327,75 -315,66 -288,36 -261,7 -234,-22 -206,-51 -179,-81 -157,-102 -169,-88 -196,-59 -224,-29 -251,0 -278,29 -306,58 -325,79 -296,51 -268,22 -241,-7 -214,-37 -187,-66 -159,-95 -151,-101 -177,-73 -204,-44 -231,-15 -259,15 -286,44 -313,73 -322,83 -303,66 -276,36 -249,7 -222,-22 -194,-51 -167,-81 -145,-101 -157,-88 -185,-59 -212,-29 -239,0 -266,29 -294,58 -319,86 -311,80 -284,51 -257,22 -229,-7 -202,-37 -175,-66 -147,-95 -140,-100 -165,-73 -192,-44 -219,-15 -247,15 -274,44 -301,73 -317,90 -291,66 -264,37 -237,7 -210,-22 -182,-51 -155,-80 -134,-100 -145,-88 -173,-58 -200,-29 -227,0 -254,29 -282,59 -309,88 -314,93 -299,81 -272,51 -245,22 -217,-7 -190,-36 -163,-66 -135,-95 -128,-99 -153,-73 -180,-44 -208,-14 -235,15 -262,44 -289,73 -311,97 -307,95 -280,66 -252,37 -225,8 -198,-22 -170,-51 -143,-80 -123,-99 -133,-87 -161,-58 -188,-29 -215,0 -242,30 -270,59 -297,88 -308,100 -287,81 -260,52 -233,22 -205,-7 -178,-36 -151,-65 -124,-95 -117,-98 -141,-73 -168,-43 -196,-14 -223,15 -250,44 -277,74 -305,103 -295,96 -268,66 -240,37 -213,8 -186,-21 -158,-51 -131,-80 -115,-94 -121,-87 -149,-58 -176,-29 -203,1 -231,30 -258,59 -285,88 -301,106 -275,81 -248,52 -221,23 -193,-7 -166,-36 -139,-65 -116,-87 -129,-72 -156,-43 -184,-14 -211,15 -238,45 -265,74 -293,103 -298,108 -283,96 -256,67 -228,37 -201,8 -174,-21 -147,-50 -119,-80 -115,-81 -137,-58 -164,-28 -191,1 -219,30 -246,59 -273,89 -294,111 -263,81 -236,52 -209,23 -182,-7 -154,-36 -127,-65 -115,-75 -117,-72 -144,-43 -172,-14 -199,15 -226,45 -254,74 -281,103 -291,114 -271,96 -244,67 -216,37 -189,8 -162,-21 -135,-50 -114,-69 -125,-58 -152,-28 -179,1 -207,30 -234,59 -261,89 -286,116 -279,111 -251,81 -224,52 -197,23 -170,-6 -142,-36 -114,-63 -132,-43 -160,-14 -187,16 -214,45 -242,74 -269,103 -282,117 -259,96 -232,67 -205,38 -177,8 -150,-21 -123,-50 -113,-57 -140,-28 -167,1 -195,30 -222,60 -249,89 -277,119 -267,111 -239,82 -212,52 -185,23 -158,-6 -130,-35 -113,-51 -121,-43 -148,-13 -175,16 -202,45 -230,74 -257,104 -273,121 -247,96 -220,67 -193,38 -165,9 -138,-21 -113,-44 -128,-28 -155,1 -183,31 -210,60 -237,89 -265,118 -268,122 -255,111 -228,82 -200,53 -173,23 -146,-6 -118,-35 -114,-37 -136,-13 -163,16 -190,45 -218,75 -245,104 -263,123 -235,97 -208,67 -181,38 -153,9 -126,-20 -114,-30 -116,-28 -144,2 -171,31 -198,60 -225,89 -253,119 -258,124 -243,111 -216,82 -188,53 -161,24 -134,-6 -115,-23 -124,-13 -151,16 -178,46 -206,75 -233,104 -253,125 -223,97 -196,68 -169,38 -141,9 -116,-15 -132,2 -159,31 -186,60 -213,90 -241,119 -247,126 -231,111 -204,82 -176,53 -149,24 -122,-6 -117,-7 -139,16 -167,46 -194,75 -221,104 -242,127 -211,97 -184,68 -157,38 -129,9 -118,0 -147,31 -174,60 -202,90 -229,119 -236,127 -219,112 -192,82 -164,53 -137,24 -120,9 -127,17 -155,46 -182,75 -209,104 -230,127 -199,97 -172,68 -145,39 -121,17 -135,31 -162,61 -190,90 -217,119 -224,127 -207,112 -180,83 -152,53 -125,24 -123,25 -143,46 -170,75 -197,105 -217,126 -187,97 -160,68 -133,39 -124,30 -126,34 -150,61 -178,90 -205,119 -210,125 -195,112 -168,83 -141,54 -127,39 -129,44 -131,46 -158,76 -185,105 -201,122 -175,98 -148,68 -130,49 -132,54 -138,61 -166,90 -192,118 -186,115 -183,112 -156,83 -135,61 -138,68 -146,76 -173,105 -179,111 -170,105 -164,98 -142,74 -149,84 -156,93 -157,94 -156,93 -157,94" /><polyline class="right-eye" stroke="red" points="130,-21 133,-20 130,-21 146,-13 163,-9 179,-17 192,-28 198,-44 199,-62 192,-78 182,-92 201,-92 219,-92 238,-91 257,-90 276,-89 294,-86 313,-83 332,-82 350,-78 348,-59 347,-39 345,-20 343,0 340,19 335,38 328,56 319,73 306,88 292,101 274,110 255,114 236,116 216,115 198,110 181,100 166,88 154,72 145,55 139,37 134,18 132,-2 130,-21 136,-5 142,12 148,28 154,45 160,61 166,78 172,94 172,94 163,79 155,65 147,51 138,36 143,41 173,67 203,94 227,116 241,115 255,114 237,98 208,71 178,44 148,17 132,3 130,-21 146,-10 162,2 178,13 194,25 210,36 226,47 241,36 248,30 250,21 254,3 259,-15 263,-23 271,-28 287,-38 302,-48 318,-58 334,-68 350,-78 350,-78 332,-81 313,-83 341,-59 348,-52 347,-39 346,-26 336,-36 306,-62 277,-89 260,-90 244,-91 271,-66 301,-39 331,-12 343,-1 341,11 339,23 326,11 296,-16 267,-42 237,-69 211,-92 182,-92 188,-87 182,-92 188,-87 189,-84 202,-73 232,-46 262,-19 291,8 321,34 333,45 321,34 291,8 262,-19 232,-46 202,-73 189,-84 197,-67 200,-58 199,-48 227,-23 257,4 287,31 316,58 323,64 318,73 312,81 282,54 252,28 222,1 191,-27 183,-21 174,-15 188,-3 217,24 247,51 277,78 298,96 289,102 280,108 272,101 242,74 213,47 183,21 153,-6 145,-14 130,-21 117,-27 117,-31 118,-31 117,-29 120,-29 117,-26 128,-31 119,-21 133,-30 120,-16 125,-18 137,-28 121,-10 141,-26 128,-11 121,-4 137,-18 145,-24 122,2 130,-3 149,-22 140,-11 123,8 149,-18 154,-20 132,4 123,14 142,-3 159,-19 152,-11 124,20 135,12 163,-20 168,-22 144,4 125,25 126,28 128,26 154,-3 172,-24 179,-29 192,-43 205,-58 212,-65 213,-74 199,-86 181,-94 162,-99 169,-100 165,-96 176,-101 168,-92 182,-102 174,-93 171,-89 189,-102 174,-86 195,-102 186,-93 177,-83 201,-102 180,-80 189,-85 206,-102 198,-93 183,-75 212,-102 191,-78 185,-71 201,-85 218,-101 210,-93 187,-67 193,-70 224,-101 203,-78 188,-62 213,-85 230,-101 222,-93 195,-63 190,-57 205,-70 236,-101 215,-78 189,-49 198,-55 224,-85 241,-101 234,-93 207,-63 186,-39 174,-26 162,-12 151,2 139,16 127,30 137,19 164,-11 190,-40 217,-70 247,-100 227,-78 200,-48 173,-18 146,12 127,33 156,4 183,-26 210,-55 236,-85 253,-100 246,-92 219,-63 193,-33 166,-3 139,26 129,38 149,19 176,-11 202,-40 229,-70 258,-99 239,-78 212,-48 185,-18 158,12 130,43 141,34 168,4 195,-26 222,-55 248,-85 264,-99 258,-92 231,-63 205,-33 178,-3 151,26 132,48 161,19 188,-11 214,-40 241,-70 270,-99 251,-78 224,-48 197,-18 170,12 144,41 134,53 153,34 180,4 207,-26 234,-55 260,-85 276,-98 270,-92 243,-63 217,-33 190,-3 163,26 136,57 146,49 173,19 200,-11 226,-40 253,-70 281,-98 263,-78 236,-48 209,-18 182,12 156,41 137,62 140,62 165,34 192,4 219,-26 246,-55 272,-85 287,-97 282,-92 255,-63 229,-33 202,-3 175,26 148,56 139,66 158,49 185,19 211,-11 238,-40 265,-70 292,-96 275,-78 248,-48 221,-18 194,12 168,41 141,71 151,64 177,34 204,4 231,-26 258,-55 284,-85 297,-95 294,-92 267,-63 241,-33 214,-3 187,26 160,56 144,75 170,49 197,19 223,-11 250,-40 277,-70 302,-94 287,-78 260,-48 233,-18 206,12 180,41 153,71 146,78 163,64 189,34 216,4 243,-26 270,-55 296,-85 307,-93 279,-63 253,-33 226,-3 199,27 172,56 149,82 155,79 182,49 209,19 235,-11 262,-40 289,-70 313,-93 299,-78 272,-48 245,-18 218,12 192,41 165,71 151,86 175,64 201,34 228,4 255,-25 282,-55 308,-85 318,-93 291,-63 265,-33 238,-3 211,27 184,56 157,86 154,90 167,79 194,49 221,19 247,-11 274,-40 301,-70 324,-92 311,-77 284,-48 257,-18 230,12 204,41 177,71 157,93 187,64 213,34 240,4 267,-25 294,-55 320,-85 330,-92 303,-63 276,-33 250,-3 223,27 196,56 169,86 160,96 179,79 206,49 233,19 259,-11 286,-40 313,-70 335,-91 323,-77 296,-48 269,-18 242,12 216,41 189,71 163,99 172,93 198,64 225,34 252,4 279,-25 306,-55 332,-85 341,-91 315,-63 288,-33 262,-3 235,27 208,56 181,86 167,102 191,79 218,49 245,19 271,-11 298,-40 325,-70 346,-90 335,-77 308,-48 281,-18 254,12 228,41 201,71 174,101 170,105 184,93 210,64 237,34 264,4 291,-25 318,-55 344,-85 350,-88 327,-63 300,-33 274,-3 247,27 220,56 193,86 174,108 203,79 230,49 257,19 283,-11 310,-40 337,-70 355,-86 347,-77 320,-48 293,-18 266,12 240,41 213,71 186,101 177,111 196,94 222,64 249,34 276,4 303,-25 330,-55 359,-84 339,-63 312,-33 286,-3 259,27 232,56 205,86 181,113 188,108 215,79 242,49 269,19 295,-11 322,-40 349,-70 360,-79 358,-76 332,-48 305,-18 278,12 252,42 225,71 198,101 185,115 208,94 234,64 261,34 288,4 315,-25 341,-55 359,-71 351,-63 324,-33 298,-3 271,27 244,56 217,86 189,117 200,108 227,79 254,49 281,19 307,-11 334,-40 359,-64 344,-48 317,-18 290,12 263,42 237,71 210,101 193,119 220,94 246,64 273,34 300,4 327,-25 353,-55 358,-57 336,-33 310,-3 283,27 256,56 229,86 203,116 198,121 212,108 239,79 266,49 293,19 319,-10 346,-40 358,-50 356,-48 329,-18 302,12 275,42 249,71 222,101 203,122 232,94 258,64 285,34 312,4 339,-25 357,-43 348,-33 322,-3 295,27 268,56 241,86 215,116 208,124 224,108 251,79 278,49 305,19 331,-10 357,-36 341,-18 314,12 287,42 261,71 234,101 212,125 244,94 270,64 297,34 324,4 351,-25 356,-28 334,-3 307,27 280,56 253,86 227,116 218,125 236,108 263,79 290,49 317,19 343,-10 355,-21 353,-18 326,12 299,42 273,71 246,101 224,126 229,123 256,94 282,64 309,34 336,4 355,-13 346,-3 319,27 292,56 265,86 239,116 230,126 248,108 275,79 302,49 328,19 354,-6 338,12 311,42 285,71 258,101 236,126 241,123 268,94 294,64 321,34 348,4 353,2 331,27 304,56 277,86 250,116 242,125 260,109 287,79 314,49 340,19 352,10 350,12 323,42 297,71 270,101 249,125 254,122 280,94 306,64 333,34 351,18 343,27 316,57 289,86 262,116 255,124 272,109 299,79 326,49 349,27 335,42 309,71 282,101 262,123 292,94 318,64 345,34 347,32 346,37 328,57 301,86 274,116 269,122 284,109 311,79 338,49 344,42 342,47 321,71 294,101 277,120 304,94 330,64 340,53 338,59 313,86 286,117 291,114 296,109 323,79 334,66 329,75 306,101 298,110 310,100 311,99 310,99 310,100" /><polyline  stroke="white" points="-305,-83 -304,-80 -305,-83 -297,-65 -294,-56 -296,-46 -308,-32 -318,-30 -327,-32 -341,-46 -339,-65 -324,-77 -305,-83 -318,-72 -330,-60 -343,-49 -343,-49 -339,-65 -326,-76 -326,-48 -326,-32 -310,-31 -310,-60 -310,-82 -305,-83 -299,-67 -293,-52 -293,-52 -293,-52 -305,-83 -321,-86 -313,-86 -313,-86 -310,-86 -323,-86 -331,-84 -299,-82 -325,-82 -334,-82 -313,-80 -294,-78 -301,-78 -340,-78 -329,-76 -290,-74 -317,-74 -345,-74 -305,-72 -287,-70 -293,-70 -333,-70 -348,-70 -321,-68 -285,-66 -309,-66 -351,-66 -337,-64 -297,-64 -283,-62 -325,-62 -352,-62 -313,-60 -282,-58 -301,-58 -341,-58 -353,-58 -329,-56 -289,-56 -281,-54 -317,-54 -354,-54 -345,-52 -305,-52 -281,-50 -293,-50 -333,-50 -354,-50 -321,-48 -282,-46 -309,-46 -349,-46 -353,-46 -337,-44 -297,-44 -284,-42 -325,-42 -353,-42 -313,-40 -286,-38 -301,-38 -341,-38 -350,-38 -329,-36 -288,-34 -317,-34 -347,-34 -342,-32 -305,-32 -292,-30 -333,-30 -343,-30 -321,-28 -296,-26 -309,-26 -338,-26 -303,-22 -325,-22 -330,-22 -318,-20 -315,-20 -314,-20 -318,-20" /><polyline  stroke="white" points="164,-85 166,-83 164,-85 175,-71 182,-55 174,-39 158,-32 149,-32 142,-37 130,-51 134,-68 147,-80 164,-85 153,-74 141,-62 130,-51 130,-51 137,-64 143,-77 143,-48 143,-36 156,-32 156,-60 156,-83 164,-85 173,-70 182,-55 175,-45 169,-36 169,-72 169,-79 164,-85 155,-90 161,-90 161,-90 164,-90 151,-90 164,-90 171,-88 143,-88 155,-86 178,-84 167,-84 136,-84 139,-82 183,-80 151,-80 131,-80 163,-78 186,-76 175,-76 135,-76 127,-76 147,-74 189,-72 159,-72 124,-72 131,-70 171,-70 191,-68 183,-68 143,-68 122,-68 155,-66 193,-64 167,-64 127,-64 121,-64 139,-62 179,-62 194,-60 151,-60 119,-60 123,-58 163,-58 194,-56 175,-56 135,-56 119,-56 147,-54 187,-54 194,-52 159,-52 119,-52 131,-50 171,-50 192,-48 183,-48 143,-48 120,-48 155,-46 190,-44 167,-44 127,-44 121,-44 139,-42 179,-42 188,-40 151,-40 124,-40 163,-38 187,-36 175,-36 135,-36 126,-36 147,-34 183,-32 159,-32 130,-32 171,-30 178,-28 143,-28 136,-28 155,-26 171,-24 167,-24 144,-24 159,-22 160,-22 162,-22 157,-22 159,-22 157,-22 159,-22" /><polyline class="left-outline"  points="-353,-85 -353,-85 -350,-81 -365,-83 -363,-65 -362,-47 -352,-33 -342,-19 -361,-29 -358,-10 -356,8 -353,27 -346,43 -340,58 -333,74 -321,89 -309,104 -289,118 -273,123 -257,128 -236,128 -214,128 -199,123 -183,118 -161,102 -149,87 -138,71 -130,55 -123,38 -118,17 -113,-4 -111,-26 -109,-48 -107,-70 -106,-92 -118,-93 -122,-96 -100,-97 -123,-93 -101,-92 -123,-91 -101,-88 -123,-88 -101,-83 -124,-83 -102,-79 -124,-79 -102,-75 -124,-74 -102,-70 -125,-70 -103,-66 -125,-65 -103,-61 -126,-61 -104,-57 -126,-57 -104,-52 -126,-52 -104,-48 -127,-48 -105,-44 -127,-43 -105,-39 -128,-39 -105,-35 -128,-34 -106,-30 -128,-30 -106,-26 -129,-26 -107,-21 -129,-22 -107,-17 -129,-17 -107,-13 -130,-13 -108,-8 -130,-9 -108,-4 -131,-5 -109,1 -131,-1 -110,5 -131,3 -111,9 -132,7 -112,14 -134,11 -113,18 -135,15 -114,22 -136,19 -115,27 -137,23 -116,31 -138,26 -117,35 -139,30 -118,40 -140,34 -120,44 -141,38 -122,48 -142,42 -123,52 -144,46 -125,56 -146,49 -127,60 -148,52 -129,64 -149,56 -131,68 -151,59 -133,72 -153,62 -135,76 -155,66 -138,80 -157,69 -140,83 -159,72 -143,87 -162,75 -146,90 -164,78 -148,94 -166,81 -151,97 -169,84 -154,101 -171,87 -157,104 -173,90 -160,107 -176,92 -163,110 -179,94 -167,113 -182,95 -171,115 -185,97 -174,118 -188,99 -178,120 -191,101 -182,123 -194,103 -186,124 -197,105 -190,126 -200,107 -194,127 -203,107 -199,128 -207,108 -203,130 -210,109 -207,131 -214,109 -211,132 -217,110 -216,133 -221,110 -220,133 -225,111 -225,133 -228,111 -229,133 -232,112 -233,133 -236,113 -238,133 -240,113 -242,133 -243,112 -247,133 -247,112 -251,133 -251,111 -256,133 -254,110 -260,133 -258,110 -264,131 -261,109 -269,130 -265,109 -273,129 -268,108 -277,127 -272,106 -281,126 -275,104 -286,124 -278,103 -290,123 -281,101 -294,121 -284,100 -297,118 -287,98 -301,116 -290,97 -305,113 -293,95 -308,111 -295,92 -312,108 -298,89 -315,105 -300,86 -318,101 -303,84 -320,98 -305,81 -323,94 -307,78 -326,91 -310,76 -329,87 -312,73 -332,84 -315,70 -334,80 -317,67 -337,77 -319,63 -339,73 -321,60 -341,69 -323,57 -342,64 -324,53 -344,60 -326,50 -346,56 -328,46 -348,52 -329,43 -349,48 -330,39 -351,44 -331,35 -353,40 -332,31 -354,36 -333,27 -356,32 -334,23 -358,27 -335,19 -359,23 -336,15 -359,19 -337,11 -360,14 -338,7 -361,10 -339,4 -361,5 -340,0 -362,1 -340,-3 -363,-3 -341,-7 -364,-8 -342,-11 -364,-12 -343,-15 -365,-17 -342,-19 -365,-21 -340,-23 -366,-25 -339,-27 -366,-30 -338,-31 -366,-34 -337,-35 -366,-39 -336,-39 -367,-43 -338,-43 -367,-48 -340,-47 -367,-52 -340,-50 -367,-57 -340,-53 -368,-62 -340,-55 -368,-66 -340,-57 -368,-71 -340,-59 -368,-77 -339,-60 -369,-82 -338,-61 -366,-85 -337,-62 -359,-85 -336,-64 -336,-64 -353,-85 -350,-81 -328,-82 -307,-83 -296,-86 -286,-79 -277,-64 -277,-49 -286,-25 -299,-14 -316,-10 -342,-19 -343,-14 -336,-41 -341,-13 -332,-37 -337,-12 -329,-33 -334,-11 -327,-31 -329,-10 -324,-30 -325,-8 -321,-30 -321,-7 -318,-30 -317,-6 -316,-29 -312,-6 -314,-29 -308,-7 -312,-30 -304,-8 -310,-31 -300,-9 -308,-32 -295,-11 -306,-33 -292,-14 -304,-34 -288,-16 -302,-35 -285,-19 -300,-36 -282,-22 -299,-38 -280,-27 -298,-40 -278,-31 -297,-42 -276,-35 -296,-44 -275,-39 -295,-46 -273,-43 -294,-48 -272,-47 -294,-51 -272,-52 -294,-53 -272,-56 -295,-55 -272,-61 -295,-57 -273,-65 -296,-59 -275,-69 -296,-61 -277,-73 -296,-63 -279,-77 -297,-65 -281,-81 -299,-66 -284,-84 -300,-67 -288,-86 -302,-69 -292,-89 -304,-70 -296,-90 -306,-72 -302,-89 -308,-74 -307,-88 -311,-74 -311,-87 -314,-75 -316,-87 -318,-75 -320,-87 -321,-75 -325,-87 -325,-74 -329,-86 -328,-73 -334,-86 -330,-71 -338,-86 -332,-69 -343,-86 -334,-67 -348,-85 -335,-65 -353,-85 -352,-84 -345,-77 -346,-82 -367,-75 -387,-67 -390,-62 -388,-33 -382,-10 -386,-11 -382,-15 -389,-15 -383,-19 -391,-19 -383,-24 -394,-23 -383,-28 -396,-27 -383,-32 -398,-31 -383,-37 -400,-35 -384,-41 -401,-39 -384,-45 -403,-43 -384,-49 -404,-48 -384,-53 -406,-52 -385,-55 -407,-56 -385,-57 -409,-61 -385,-59 -410,-66 -385,-61 -411,-71 -385,-62 -410,-75 -385,-64 -409,-80 -383,-65 -406,-83 -382,-65 -402,-85 -380,-65 -397,-86 -379,-66 -393,-88 -377,-66 -388,-89 -376,-67 -384,-90 -373,-67 -380,-92 -370,-68 -376,-93 -367,-69 -371,-95 -363,-71 -367,-96 -359,-72 -363,-97 -355,-73 -358,-97 -351,-75 -354,-98 -347,-76 -350,-98 -343,-76 -345,-99 -339,-77 -341,-99 -335,-79 -336,-100 -331,-80 -332,-101 -327,-81 -327,-101 -322,-81 -323,-102 -318,-81 -319,-102 -314,-82 -314,-103 -310,-82 -310,-103 -305,-82 -305,-104 -301,-83 -301,-105 -296,-83 -297,-105 -292,-84 -292,-106 -288,-84 -288,-106 -283,-84 -283,-107 -279,-85 -279,-107 -274,-85 -275,-108 -270,-85 -270,-109 -266,-86 -266,-109 -261,-86 -261,-110 -257,-87 -257,-110 -253,-87 -252,-111 -249,-87 -248,-111 -244,-88 -244,-111 -240,-88 -239,-111 -236,-88 -235,-111 -232,-89 -230,-111 -228,-89 -226,-111 -223,-89 -221,-111 -219,-89 -217,-111 -215,-89 -212,-111 -210,-89 -208,-111 -206,-89 -204,-111 -201,-89 -199,-111 -197,-89 -195,-111 -193,-89 -190,-111 -188,-88 -186,-111 -184,-88 -181,-111 -180,-88 -177,-111 -175,-88 -172,-111 -171,-88 -168,-111 -167,-88 -164,-110 -163,-88 -159,-110 -158,-88 -155,-109 -154,-88 -150,-109 -150,-88 -146,-108 -146,-88 -142,-108 -141,-87 -137,-107 -137,-87 -133,-107 -133,-87 -129,-106 -128,-86 -124,-106 -124,-86 -120,-105 -120,-86 -116,-105 -115,-85 -111,-104 -111,-85 -107,-104 -107,-85 -103,-103 -103,-85 -98,-103 -99,-84 -94,-102 -95,-84 -90,-101 -90,-84 -86,-100 -86,-84 -82,-97 -82,-85 -78,-95 -78,-85 -75,-94 -73,-85 -72,-92 -69,-86 -70,-89 -69,-86" /><polyline class="right-outline"  points="131,-96 132,-93 131,-96 133,-91 156,-91 179,-91 194,-74 198,-57 193,-40 180,-24 158,-16 132,-23 129,-19 139,-42 131,-18 141,-40 136,-17 143,-39 140,-16 146,-37 144,-15 149,-35 148,-13 152,-34 153,-12 154,-35 157,-11 157,-35 162,-12 159,-35 166,-13 162,-36 170,-15 164,-36 174,-16 167,-36 178,-18 168,-38 182,-20 170,-39 186,-23 171,-41 189,-26 173,-43 191,-30 175,-44 194,-33 176,-46 197,-37 178,-48 198,-41 178,-50 199,-45 178,-52 201,-49 178,-54 202,-54 178,-57 202,-58 178,-59 201,-63 178,-61 201,-67 179,-63 200,-71 178,-65 198,-75 177,-66 196,-79 176,-68 193,-83 175,-70 190,-86 174,-72 187,-89 172,-74 184,-93 170,-75 180,-95 168,-76 175,-95 166,-78 170,-95 164,-79 166,-95 161,-79 161,-95 158,-80 157,-95 155,-80 152,-95 152,-80 148,-95 148,-79 143,-95 145,-78 139,-95 143,-76 134,-96 141,-74 130,-95 140,-73 124,-96 139,-71 117,-98 138,-70 112,-98 137,-69 107,-96 136,-68 105,-92 135,-68 104,-88 134,-66 104,-82 134,-65 104,-77 134,-63 104,-72 134,-61 105,-67 134,-59 105,-63 133,-57 105,-58 133,-54 106,-54 134,-50 106,-49 136,-46 106,-45 138,-42 107,-40 137,-38 107,-36 135,-34 107,-31 133,-29 108,-27 132,-25 108,-22 130,-20 108,-18 130,-16 109,-14 130,-12 109,-9 131,-8 109,-5 132,-5 110,0 132,-2 111,4 133,2 112,8 134,6 113,13 134,10 115,17 135,14 116,21 136,18 117,25 137,22 118,30 138,26 119,34 140,30 120,38 141,34 122,43 143,37 123,47 144,41 124,51 146,44 125,56 147,48 127,60 149,52 129,63 150,55 132,67 152,59 134,71 154,62 136,75 157,65 139,79 159,68 141,82 161,71 143,86 163,74 146,90 166,77 148,94 168,80 151,97 170,84 154,101 172,86 157,104 174,89 160,107 177,91 163,110 180,94 167,113 182,96 170,116 185,98 174,118 188,100 178,120 190,102 182,122 193,104 186,123 197,105 190,125 200,106 194,127 203,107 198,128 207,108 202,130 210,109 207,132 214,110 211,133 217,111 215,133 221,112 220,133 225,112 224,133 229,112 229,134 232,112 233,134 236,112 238,134 239,112 242,134 243,112 247,135 247,112 251,134 250,112 255,133 254,112 260,133 258,111 264,132 261,109 268,131 265,108 273,130 268,107 277,129 271,106 281,128 274,104 285,126 277,103 289,124 281,102 293,122 284,101 297,120 287,99 301,118 290,98 305,115 293,95 308,112 295,93 311,109 298,90 314,105 300,88 317,102 302,85 321,99 305,83 324,96 307,80 327,93 310,77 330,89 313,74 332,86 315,71 334,82 317,67 336,78 319,64 339,74 321,61 341,70 322,58 343,66 324,55 345,62 326,51 347,58 327,47 349,54 328,44 351,50 330,40 352,46 331,36 353,42 332,32 354,37 333,28 355,33 335,24 357,29 336,21 358,24 337,17 359,20 338,13 360,16 340,9 361,11 341,5 362,7 342,1 363,3 342,-3 364,-1 342,-7 365,-6 343,-11 365,-10 343,-15 366,-15 343,-19 366,-19 344,-24 367,-24 344,-28 367,-28 345,-32 367,-32 345,-37 368,-37 345,-41 368,-41 346,-45 368,-46 346,-50 369,-50 347,-54 369,-55 347,-59 369,-59 347,-63 370,-63 348,-68 370,-68 348,-72 370,-72 349,-76 371,-77 371,-79 371,-79 356,-81 359,-81 356,-81 345,-76 345,-76 365,-70 385,-64 384,-40 382,-17 385,-9 382,-12 387,-13 382,-17 390,-17 383,-21 392,-21 383,-26 395,-25 383,-30 397,-29 383,-34 399,-33 384,-39 401,-37 384,-43 402,-41 384,-47 404,-45 384,-51 405,-50 384,-54 406,-54 385,-56 408,-58 385,-58 409,-63 385,-60 411,-68 385,-61 411,-73 385,-63 410,-77 384,-64 409,-82 383,-65 404,-84 381,-65 399,-86 380,-66 395,-87 378,-66 391,-88 377,-67 386,-90 375,-67 382,-91 372,-68 378,-92 369,-69 374,-94 365,-70 369,-95 361,-71 365,-96 357,-72 361,-97 353,-74 356,-97 349,-75 352,-98 345,-76 347,-99 341,-77 343,-99 337,-78 338,-100 333,-79 334,-100 329,-80 330,-101 324,-81 325,-101 320,-81 321,-102 316,-81 316,-103 312,-82 312,-103 308,-82 308,-104 303,-83 303,-104 299,-83 299,-105 294,-83 294,-105 290,-84 290,-106 285,-84 286,-107 281,-85 281,-107 277,-85 277,-108 272,-85 272,-108 268,-86 268,-109 264,-86 264,-109 259,-86 259,-110 255,-87 255,-111 251,-87 250,-111 247,-88 246,-111 242,-88 241,-111 238,-88 237,-111 234,-89 232,-111 230,-89 228,-111 226,-89 224,-111 221,-89 219,-111 217,-89 215,-111 213,-89 210,-111 208,-89 206,-111 204,-89 201,-111 199,-89 197,-111 195,-89 192,-111 190,-88 188,-111 186,-88 184,-111 182,-88 179,-111 178,-88 175,-111 173,-88 170,-111 169,-88 166,-110 165,-88 161,-110 160,-88 157,-109 156,-88 153,-109 152,-88 148,-108 148,-88 144,-108 143,-87 140,-107 139,-87 135,-107 135,-87 131,-107 131,-86 127,-106 126,-86 122,-106 122,-86 118,-105 118,-86 114,-105 113,-85 109,-104 109,-85 105,-104 105,-85 101,-103 101,-84 96,-103 97,-84 92,-102 93,-84 88,-101 88,-84 84,-99 84,-84 80,-96 80,-85 76,-94 75,-85 74,-93 71,-85 71,-91 71,-91 69,-86 70,-89 69,-86" /><polyline   points="-225,-132 -222,-132 -225,-132 -205,-134 -186,-135 -166,-134 -146,-133 -127,-132 -107,-131 -127,-132 -107,-131 -127,-132 -146,-133 -127,-132 -146,-133 -166,-134 -146,-133 -166,-134 -186,-135 -166,-134 -186,-135 -205,-134 -186,-135 -205,-134 -225,-132 -205,-134 -225,-132 -222,-132 -225,-132" /><polyline   points="232,-132 229,-132 232,-132 212,-134 193,-135 173,-134 153,-133 134,-132 114,-131 134,-132 114,-131 134,-132 153,-133 134,-132 153,-133 173,-134 153,-133 173,-134 193,-135 173,-134 193,-135 212,-134 193,-135 212,-134 232,-132 212,-134 232,-132 229,-132 232,-132" /></svg>