<svg viewBox="-425 -150 850 300" fill="none" stroke="black" stroke-width="4"><polyline class="left-eye" stroke="red" points="-284,-82 -281,-82 -284,-82 -264,-83 -245,-83 -225,-84 -205,-85 -186,-86 -166,-88 -147,-88 -127,-88 -127,-89 -126,-69 -124,-49 -126,-30 -128,-10 -132,10 -136,29 -141,48 -150,66 -161,82 -176,96 -193,106 -211,114 -231,117 -250,115 -270,111 -288,104 -303,91 -316,76 -326,59 -335,41 -339,22 -341,2 -343,-18 -326,-10 -307,-5 -292,-15 -279,-29 -274,-46 -276,-65 -284,-82 -274,-67 -265,-52 -255,-38 -245,-23 -236,-8 -226,7 -216,22 -230,36 -249,41 -269,46 -277,50 -282,59 -291,77 -301,94 -284,101 -268,108 -251,115 -257,110 -285,82 -314,54 -337,32 -339,17 -341,2 -338,4 -309,32 -281,60 -252,88 -222,116 -211,113 -200,110 -218,93 -247,65 -276,37 -304,10 -324,-9 -310,-6 -303,-6 -298,-11 -271,15 -242,43 -213,71 -183,100 -167,89 -180,76 -208,48 -237,21 -266,-7 -283,-24 -276,-32 -274,-42 -261,-29 -232,-2 -204,26 -175,54 -155,73 -150,64 -145,56 -170,32 -199,4 -227,-24 -256,-52 -280,-74 -284,-82 -267,-77 -249,-71 -232,-66 -215,-61 -198,-56 -180,-50 -172,-48 -164,-50 -151,-62 -138,-75 -127,-89 -126,-75 -125,-60 -146,-80 -154,-88 -167,-87 -181,-87 -150,-58 -125,-33 -127,-21 -128,-9 -155,-35 -184,-63 -207,-85 -220,-85 -234,-84 -218,-69 -189,-41 -160,-13 -133,13 -135,24 -138,35 -165,9 -194,-19 -223,-46 -251,-74 -260,-83 -284,-82 -303,-91 -300,-91 -303,-88 -294,-91 -300,-85 -287,-91 -297,-81 -293,-82 -281,-92 -283,-89 -294,-78 -275,-92 -291,-75 -281,-82 -268,-92 -271,-89 -289,-70 -262,-92 -279,-74 -287,-66 -269,-82 -256,-92 -259,-89 -285,-61 -277,-67 -249,-92 -267,-74 -284,-56 -257,-81 -243,-93 -247,-88 -275,-59 -284,-50 -265,-67 -236,-93 -255,-74 -284,-43 -273,-52 -245,-81 -230,-94 -235,-88 -263,-59 -288,-33 -292,-27 -303,-16 -314,-6 -325,4 -337,-7 -347,-21 -356,-35 -355,-34 -356,-33 -350,-32 -355,-28 -346,-30 -354,-22 -342,-28 -353,-17 -338,-26 -346,-17 -352,-11 -335,-23 -352,-5 -344,-10 -331,-20 -334,-17 -351,0 -327,-19 -342,-2 -350,6 -332,-9 -321,-18 -350,12 -340,5 -316,-17 -330,-2 -349,17 -321,-9 -309,-17 -338,13 -349,23 -328,6 -305,-18 -300,-21 -319,-1 -348,29 -347,30 -347,31 -336,20 -309,-9 -281,-37 -253,-66 -226,-94 -243,-73 -271,-44 -299,-16 -326,13 -346,37 -317,6 -289,-23 -261,-52 -233,-80 -220,-94 -223,-87 -251,-59 -279,-30 -307,-1 -334,28 -345,42 -324,21 -297,-8 -269,-37 -241,-66 -213,-95 -231,-73 -259,-44 -287,-15 -315,14 -343,46 -332,35 -305,6 -277,-22 -249,-51 -221,-80 -207,-95 -211,-87 -239,-58 -267,-29 -295,-1 -322,28 -341,51 -313,21 -285,-8 -257,-37 -229,-65 -200,-95 -219,-72 -247,-44 -275,-15 -303,14 -330,43 -339,55 -320,36 -293,7 -265,-22 -237,-51 -209,-79 -194,-96 -199,-87 -227,-58 -255,-29 -283,0 -311,29 -337,59 -328,50 -301,21 -273,-7 -245,-36 -217,-65 -189,-94 -187,-96 -207,-72 -235,-43 -263,-14 -291,14 -318,43 -335,63 -309,36 -281,7 -253,-22 -225,-50 -197,-79 -181,-96 -187,-86 -215,-57 -243,-29 -271,0 -299,29 -326,58 -332,67 -316,51 -289,22 -261,-7 -233,-36 -205,-64 -178,-93 -174,-97 -195,-72 -223,-43 -251,-14 -279,15 -307,44 -330,71 -324,65 -297,36 -269,8 -241,-21 -213,-50 -185,-79 -168,-97 -176,-86 -203,-57 -231,-28 -259,1 -287,29 -314,58 -328,75 -305,51 -277,22 -249,-7 -221,-35 -193,-64 -166,-93 -161,-97 -183,-71 -211,-42 -239,-14 -267,15 -295,44 -322,73 -326,79 -312,66 -285,37 -257,8 -229,-21 -201,-49 -173,-78 -155,-97 -164,-85 -191,-57 -219,-28 -247,1 -275,30 -302,59 -323,83 -320,80 -293,51 -265,23 -237,-6 -209,-35 -181,-64 -154,-92 -149,-97 -171,-71 -199,-42 -227,-13 -255,16 -283,44 -310,73 -320,86 -300,66 -273,37 -245,8 -217,-20 -189,-49 -162,-78 -143,-98 -152,-85 -179,-56 -207,-27 -235,1 -263,30 -291,59 -318,90 -308,81 -281,52 -253,23 -225,-6 -197,-35 -169,-63 -142,-92 -136,-98 -160,-70 -187,-42 -215,-13 -243,16 -271,45 -298,73 -315,93 -289,66 -261,38 -233,9 -205,-20 -177,-49 -150,-77 -130,-98 -140,-85 -167,-56 -195,-27 -223,2 -251,31 -279,59 -306,88 -312,97 -296,81 -269,52 -241,23 -213,-5 -185,-34 -158,-63 -130,-92 -124,-98 -148,-70 -175,-41 -203,-12 -231,16 -259,45 -287,74 -309,100 -304,96 -277,67 -249,38 -221,9 -193,-20 -165,-48 -138,-77 -117,-98 -128,-84 -156,-55 -183,-27 -211,2 -239,31 -267,60 -294,88 -305,103 -285,81 -257,53 -229,24 -201,-5 -173,-34 -146,-62 -116,-93 -136,-70 -163,-41 -191,-12 -219,17 -247,46 -275,74 -302,106 -292,96 -265,67 -237,38 -209,10 -181,-19 -154,-48 -126,-77 -117,-86 -144,-55 -171,-26 -199,3 -227,31 -255,60 -283,89 -298,108 -273,82 -245,53 -217,24 -189,-5 -161,-33 -134,-62 -116,-80 -124,-69 -152,-40 -179,-12 -207,17 -235,46 -263,75 -290,103 -295,111 -281,96 -253,68 -225,39 -197,10 -169,-19 -142,-47 -116,-74 -132,-55 -159,-26 -187,3 -215,32 -243,61 -271,89 -291,114 -288,111 -261,82 -233,53 -205,25 -177,-4 -150,-33 -122,-62 -115,-68 -140,-40 -167,-11 -195,18 -223,46 -251,75 -279,104 -287,116 -269,97 -241,68 -213,39 -185,10 -157,-18 -130,-47 -115,-62 -120,-54 -148,-25 -175,3 -203,32 -231,61 -259,90 -282,117 -277,111 -249,83 -221,54 -193,25 -165,-4 -138,-32 -114,-56 -128,-40 -155,-11 -183,18 -211,47 -239,76 -267,104 -278,119 -257,97 -229,68 -201,40 -173,11 -146,-18 -118,-47 -114,-50 -136,-25 -163,4 -191,33 -219,61 -247,90 -273,121 -265,112 -237,83 -209,54 -181,25 -153,-3 -126,-32 -114,-44 -144,-10 -171,18 -199,47 -227,76 -255,105 -269,122 -245,98 -217,69 -189,40 -161,11 -134,-17 -115,-37 -124,-25 -151,4 -179,33 -207,62 -235,91 -263,119 -263,123 -253,112 -225,83 -197,55 -169,26 -142,-3 -115,-30 -132,-10 -159,19 -187,48 -215,76 -243,105 -258,124 -233,98 -205,69 -177,40 -149,12 -122,-17 -116,-23 -139,5 -167,33 -195,62 -223,91 -251,120 -253,125 -241,113 -213,84 -185,55 -157,26 -130,-2 -117,-16 -120,-10 -147,19 -175,48 -203,77 -231,106 -248,126 -221,98 -193,70 -165,41 -137,12 -118,-8 -128,5 -155,34 -183,63 -211,91 -239,120 -242,127 -229,113 -201,84 -173,55 -145,27 -119,-1 -135,20 -163,48 -191,77 -219,106 -236,127 -209,99 -181,70 -153,41 -126,13 -121,7 -143,34 -171,63 -199,92 -227,121 -230,127 -217,113 -189,85 -161,56 -133,27 -122,15 -151,49 -179,78 -207,106 -224,127 -197,99 -169,70 -141,42 -124,23 -131,35 -159,63 -187,92 -215,121 -217,126 -205,114 -177,85 -149,56 -126,32 -139,49 -167,78 -195,107 -209,124 -185,100 -157,71 -129,41 -147,64 -175,93 -200,121 -193,114 -165,85 -137,57 -132,51 -134,57 -155,78 -183,107 -195,119 -188,116 -173,100 -145,71 -137,63 -140,69 -163,93 -182,113 -173,106 -153,86 -144,76 -151,85 -158,94 -156,92 -158,94" /><polyline class="right-eye" stroke="red" points="130,-8 128,-10 130,-8 121,-15 137,-9 155,-8 171,-13 186,-23 192,-29 195,-37 198,-54 195,-71 187,-87 204,-85 222,-84 240,-83 259,-83 277,-82 295,-82 313,-81 331,-81 349,-80 347,-60 346,-40 344,-20 342,-1 339,19 334,38 326,56 317,74 304,89 289,102 271,110 252,114 232,116 212,115 193,108 176,98 162,85 151,68 142,50 136,31 132,12 130,-8 137,9 144,26 151,43 157,60 164,77 171,94 171,94 168,91 159,82 151,64 143,47 136,29 146,40 175,68 203,97 222,115 236,115 250,114 237,102 209,73 181,45 152,17 130,-5 130,-8 121,-15 130,-8 148,-5 167,-1 185,2 204,6 222,9 240,13 258,14 271,1 284,-13 297,-26 310,-40 323,-53 336,-67 349,-80 348,-66 347,-53 321,-78 319,-81 304,-81 288,-82 315,-55 345,-26 343,-12 342,1 337,-4 309,-32 281,-60 258,-83 243,-83 228,-84 246,-66 274,-37 303,-9 331,19 337,26 334,37 330,48 325,42 297,14 268,-14 240,-42 212,-71 198,-85 187,-87 199,-54 205,-48 234,-19 262,9 290,37 321,68 314,76 308,85 284,60 256,32 228,4 199,-24 193,-31 185,-24 178,-17 193,-1 221,27 250,55 278,84 294,99 284,104 274,109 272,107 244,78 215,50 187,22 159,-6 156,-9 140,-9 125,-13 130,-8 116,-27 116,-31 118,-30 116,-28 121,-27 117,-23 125,-25 119,-18 129,-22 119,-13 128,-18 133,-21 120,-7 138,-19 130,-11 121,-1 144,-18 121,4 132,-3 149,-17 142,-10 122,10 157,-18 134,5 123,15 144,-2 160,-19 166,-22 154,-9 123,21 124,24 135,12 164,-16 172,-24 178,-29 191,-41 203,-54 212,-68 200,-80 184,-88 168,-96 174,-96 168,-90 180,-96 171,-87 186,-95 181,-90 175,-84 192,-95 178,-81 183,-82 198,-95 193,-89 181,-77 204,-95 183,-73 195,-82 210,-94 205,-89 185,-69 216,-94 196,-74 187,-64 206,-81 222,-94 217,-88 188,-60 198,-67 229,-94 208,-73 189,-54 218,-80 235,-93 229,-87 200,-59 188,-47 210,-66 241,-93 220,-73 192,-45 184,-37 172,-24 160,-11 148,1 136,14 124,26 146,5 174,-23 202,-51 230,-80 247,-93 240,-87 212,-58 184,-30 156,-2 127,27 125,29 137,20 166,-9 194,-37 222,-65 253,-93 232,-72 204,-44 176,-16 147,13 127,34 157,6 186,-22 214,-51 242,-79 259,-92 252,-86 224,-58 196,-29 168,-1 139,27 128,38 149,20 178,-8 206,-36 234,-65 265,-92 244,-72 216,-43 188,-15 159,13 129,43 141,35 169,6 198,-22 226,-50 254,-78 271,-92 264,-85 236,-57 208,-29 180,0 151,28 131,48 134,48 161,21 190,-7 218,-36 246,-64 277,-92 256,-71 228,-43 200,-14 171,14 143,42 133,53 153,35 181,7 210,-21 238,-50 266,-78 283,-91 276,-85 248,-56 220,-28 191,0 163,28 135,57 145,50 173,22 202,-7 230,-35 258,-63 289,-91 268,-70 240,-42 212,-14 183,15 155,43 136,61 165,36 193,8 222,-21 250,-49 278,-77 295,-91 288,-84 260,-56 232,-27 203,1 175,29 147,57 138,66 157,50 185,22 213,-6 242,-34 270,-63 301,-91 280,-70 252,-41 224,-13 195,15 167,44 140,70 149,65 177,37 205,8 234,-20 262,-48 290,-77 308,-91 300,-83 272,-55 244,-27 215,1 187,30 159,58 143,74 169,51 197,23 225,-5 254,-34 282,-62 314,-91 292,-69 264,-41 235,-12 207,16 179,44 151,72 145,78 161,66 189,37 217,9 246,-19 274,-48 302,-76 320,-91 312,-83 284,-55 256,-26 227,2 199,30 171,59 148,82 153,80 181,52 209,23 237,-5 266,-33 294,-61 326,-91 304,-68 276,-40 247,-12 219,17 191,45 163,73 150,86 173,66 201,38 229,10 257,-19 286,-47 314,-75 332,-90 324,-82 296,-54 268,-26 239,3 211,31 183,59 153,89 164,81 193,52 221,24 249,-4 278,-32 306,-61 339,-90 316,-68 288,-39 259,-11 231,17 203,45 175,74 156,92 185,67 213,39 241,10 269,-18 298,-46 326,-75 345,-90 336,-82 308,-53 280,-25 251,3 223,32 195,60 166,88 159,96 176,81 205,53 233,25 261,-4 290,-32 318,-60 351,-90 328,-67 300,-39 271,-10 243,18 215,46 186,74 162,99 168,96 197,67 225,39 253,11 281,-17 310,-46 338,-74 357,-90 348,-81 320,-53 291,-24 263,4 235,32 207,61 178,89 165,102 188,82 217,54 245,25 273,-3 302,-31 330,-59 360,-86 340,-66 312,-38 283,-10 255,18 227,47 198,75 169,105 180,96 208,68 237,40 265,12 293,-17 322,-45 350,-73 359,-80 332,-52 303,-24 275,5 247,33 219,61 190,89 172,107 200,83 229,54 257,26 285,-2 313,-31 342,-59 359,-73 352,-66 324,-37 295,-9 267,19 239,47 210,76 182,104 176,110 192,97 220,69 249,40 277,12 305,-16 334,-44 358,-66 344,-51 315,-23 287,5 259,34 231,62 202,90 179,113 184,111 212,83 241,55 269,27 297,-2 325,-30 354,-58 358,-59 335,-37 307,-9 279,20 251,48 222,76 194,105 184,115 204,98 232,69 261,41 289,13 317,-15 346,-44 358,-53 327,-22 299,6 271,34 242,62 214,91 188,117 196,112 224,84 253,56 281,27 309,-1 337,-29 357,-46 347,-36 319,-8 291,20 263,49 234,77 206,105 192,119 216,98 244,70 273,42 301,13 329,-15 357,-39 339,-22 311,7 283,35 254,63 226,91 196,121 208,113 236,84 264,56 293,28 321,0 349,-29 356,-32 331,-7 303,21 275,49 246,78 218,106 201,122 228,99 256,71 285,42 313,14 341,-14 355,-25 351,-21 323,7 295,35 266,64 238,92 210,120 206,124 220,113 248,85 276,57 305,29 333,0 354,-18 343,-7 315,22 286,50 258,78 230,106 212,125 240,100 268,71 297,43 325,15 354,-11 335,8 307,36 278,64 250,93 222,121 217,125 232,114 260,86 288,57 317,29 345,1 353,-4 327,22 298,51 270,79 242,107 223,126 252,100 280,72 308,44 337,15 352,3 347,8 319,37 290,65 262,93 234,122 229,126 244,115 272,86 300,58 329,30 351,11 339,23 310,51 282,79 254,108 236,126 264,101 292,73 320,44 350,18 330,37 302,66 274,94 246,122 243,125 256,115 284,87 312,59 341,30 348,26 322,52 294,80 266,108 250,124 276,101 304,73 332,45 345,35 342,38 314,66 286,95 257,124 268,116 296,88 324,59 343,44 334,52 306,81 278,109 264,123 288,102 316,74 341,49 339,54 326,67 298,95 272,121 280,117 308,88 337,59 333,66 318,81 290,110 281,118 287,116 300,103 329,73 323,82 310,96 293,112 309,100 310,99 309,99 309,100" /><polyline  stroke="white" points="-306,-83 -305,-80 -306,-83 -298,-65 -295,-56 -297,-46 -309,-32 -319,-30 -328,-32 -342,-46 -340,-65 -325,-77 -306,-83 -319,-72 -331,-60 -344,-49 -344,-49 -340,-65 -327,-76 -327,-48 -327,-32 -311,-31 -311,-60 -311,-82 -306,-83 -300,-67 -294,-52 -294,-52 -294,-52 -306,-83 -322,-86 -314,-86 -314,-86 -311,-86 -324,-86 -332,-84 -300,-82 -326,-82 -335,-82 -314,-80 -295,-78 -302,-78 -341,-78 -330,-76 -291,-74 -318,-74 -346,-74 -306,-72 -288,-70 -294,-70 -334,-70 -349,-70 -322,-68 -286,-66 -310,-66 -352,-66 -338,-64 -298,-64 -284,-62 -326,-62 -353,-62 -314,-60 -283,-58 -302,-58 -342,-58 -354,-58 -330,-56 -290,-56 -282,-54 -318,-54 -355,-54 -346,-52 -306,-52 -282,-50 -294,-50 -334,-50 -355,-50 -322,-48 -283,-46 -310,-46 -350,-46 -354,-46 -338,-44 -298,-44 -285,-42 -326,-42 -354,-42 -314,-40 -287,-38 -302,-38 -342,-38 -351,-38 -330,-36 -289,-34 -318,-34 -348,-34 -343,-32 -306,-32 -293,-30 -334,-30 -344,-30 -322,-28 -297,-26 -310,-26 -339,-26 -304,-22 -326,-22 -331,-22 -319,-20 -316,-20 -315,-20 -319,-20" /><polyline  stroke="white" points="163,-85 165,-83 163,-85 174,-71 181,-55 173,-39 157,-32 148,-32 141,-37 129,-51 133,-68 146,-80 163,-85 152,-74 140,-62 129,-51 129,-51 136,-64 142,-77 142,-48 142,-36 155,-32 155,-60 155,-83 163,-85 172,-70 181,-55 174,-45 168,-36 168,-72 168,-79 163,-85 154,-90 160,-90 160,-90 163,-90 150,-90 163,-90 170,-88 142,-88 154,-86 177,-84 166,-84 135,-84 138,-82 182,-80 150,-80 130,-80 162,-78 185,-76 174,-76 134,-76 126,-76 146,-74 188,-72 158,-72 123,-72 130,-70 170,-70 190,-68 182,-68 142,-68 121,-68 154,-66 192,-64 166,-64 126,-64 120,-64 138,-62 178,-62 193,-60 150,-60 118,-60 122,-58 162,-58 193,-56 174,-56 134,-56 118,-56 146,-54 186,-54 193,-52 158,-52 118,-52 130,-50 170,-50 191,-48 182,-48 142,-48 119,-48 154,-46 189,-44 166,-44 126,-44 120,-44 138,-42 178,-42 187,-40 150,-40 123,-40 162,-38 186,-36 174,-36 134,-36 125,-36 146,-34 182,-32 158,-32 129,-32 170,-30 177,-28 142,-28 135,-28 154,-26 170,-24 166,-24 143,-24 158,-22 159,-22 161,-22 156,-22 158,-22 156,-22 158,-22" /><polyline class="left-outline"  points="-354,-85 -354,-85 -351,-81 -366,-83 -364,-65 -363,-47 -353,-33 -343,-19 -362,-29 -359,-10 -357,8 -354,27 -347,43 -341,58 -334,74 -322,89 -310,104 -290,118 -274,123 -258,128 -237,128 -215,128 -200,123 -184,118 -162,102 -150,87 -139,71 -131,55 -124,38 -119,17 -114,-4 -112,-26 -110,-48 -108,-70 -107,-92 -119,-93 -123,-96 -101,-97 -124,-93 -102,-92 -124,-91 -102,-88 -124,-88 -102,-83 -125,-83 -103,-79 -125,-79 -103,-75 -125,-74 -103,-70 -126,-70 -104,-66 -126,-65 -104,-61 -127,-61 -105,-57 -127,-57 -105,-52 -127,-52 -105,-48 -128,-48 -106,-44 -128,-43 -106,-39 -129,-39 -106,-35 -129,-34 -107,-30 -129,-30 -107,-26 -130,-26 -108,-21 -130,-22 -108,-17 -130,-17 -108,-13 -131,-13 -109,-8 -131,-9 -109,-4 -132,-5 -110,1 -132,-1 -111,5 -132,3 -112,9 -133,7 -113,14 -135,11 -114,18 -136,15 -115,22 -137,19 -116,27 -138,23 -117,31 -139,26 -118,35 -140,30 -119,40 -141,34 -121,44 -142,38 -123,48 -143,42 -124,52 -145,46 -126,56 -147,49 -128,60 -149,52 -130,64 -150,56 -132,68 -152,59 -134,72 -154,62 -136,76 -156,66 -139,80 -158,69 -141,83 -160,72 -144,87 -163,75 -147,90 -165,78 -149,94 -167,81 -152,97 -170,84 -155,101 -172,87 -158,104 -174,90 -161,107 -177,92 -164,110 -180,94 -168,113 -183,95 -172,115 -186,97 -175,118 -189,99 -179,120 -192,101 -183,123 -195,103 -187,124 -198,105 -191,126 -201,107 -195,127 -204,107 -200,128 -208,108 -204,130 -211,109 -208,131 -215,109 -212,132 -218,110 -217,133 -222,110 -221,133 -226,111 -226,133 -229,111 -230,133 -233,112 -234,133 -237,113 -239,133 -241,113 -243,133 -244,112 -248,133 -248,112 -252,133 -252,111 -257,133 -255,110 -261,133 -259,110 -265,131 -262,109 -270,130 -266,109 -274,129 -269,108 -278,127 -273,106 -282,126 -276,104 -287,124 -279,103 -291,123 -282,101 -295,121 -285,100 -298,118 -288,98 -302,116 -291,97 -306,113 -294,95 -309,111 -296,92 -313,108 -299,89 -316,105 -301,86 -319,101 -304,84 -321,98 -306,81 -324,94 -308,78 -327,91 -311,76 -330,87 -313,73 -333,84 -316,70 -335,80 -318,67 -338,77 -320,63 -340,73 -322,60 -342,69 -324,57 -343,64 -325,53 -345,60 -327,50 -347,56 -329,46 -349,52 -330,43 -350,48 -331,39 -352,44 -332,35 -354,40 -333,31 -355,36 -334,27 -357,32 -335,23 -359,27 -336,19 -360,23 -337,15 -360,19 -338,11 -361,14 -339,7 -362,10 -340,4 -362,5 -341,0 -363,1 -341,-3 -364,-3 -342,-7 -365,-8 -343,-11 -365,-12 -344,-15 -366,-17 -343,-19 -366,-21 -341,-23 -367,-25 -340,-27 -367,-30 -339,-31 -367,-34 -338,-35 -367,-39 -337,-39 -368,-43 -339,-43 -368,-48 -341,-47 -368,-52 -341,-50 -368,-57 -341,-53 -369,-62 -341,-55 -369,-66 -341,-57 -369,-71 -341,-59 -369,-77 -340,-60 -370,-82 -339,-61 -367,-85 -338,-62 -360,-85 -337,-64 -337,-64 -354,-85 -351,-81 -329,-82 -308,-83 -297,-86 -287,-79 -278,-64 -278,-49 -287,-25 -300,-14 -317,-10 -343,-19 -344,-14 -337,-41 -342,-13 -333,-37 -338,-12 -330,-33 -335,-11 -328,-31 -330,-10 -325,-30 -326,-8 -322,-30 -322,-7 -319,-30 -318,-6 -317,-29 -313,-6 -315,-29 -309,-7 -313,-30 -305,-8 -311,-31 -301,-9 -309,-32 -296,-11 -307,-33 -293,-14 -305,-34 -289,-16 -303,-35 -286,-19 -301,-36 -283,-22 -300,-38 -281,-27 -299,-40 -279,-31 -298,-42 -277,-35 -297,-44 -276,-39 -296,-46 -274,-43 -295,-48 -273,-47 -295,-51 -273,-52 -295,-53 -273,-56 -296,-55 -273,-61 -296,-57 -274,-65 -297,-59 -276,-69 -297,-61 -278,-73 -297,-63 -280,-77 -298,-65 -282,-81 -300,-66 -285,-84 -301,-67 -289,-86 -303,-69 -293,-89 -305,-70 -297,-90 -307,-72 -303,-89 -309,-74 -308,-88 -312,-74 -312,-87 -315,-75 -317,-87 -319,-75 -321,-87 -322,-75 -326,-87 -326,-74 -330,-86 -329,-73 -335,-86 -331,-71 -339,-86 -333,-69 -344,-86 -335,-67 -349,-85 -336,-65 -354,-85 -352,-83 -354,-85 -343,-76 -344,-79 -343,-76 -344,-81 -324,-82 -303,-83 -283,-84 -263,-85 -243,-85 -223,-86 -203,-87 -183,-88 -163,-89 -143,-89 -123,-90 -102,-91 -80,-101 -80,-101 -82,-104 -79,-98 -84,-104 -84,-96 -88,-105 -88,-94 -92,-105 -92,-92 -96,-106 -96,-89 -100,-106 -100,-87 -104,-107 -105,-86 -109,-107 -109,-86 -113,-108 -113,-86 -117,-108 -118,-85 -121,-108 -122,-85 -125,-107 -127,-85 -130,-107 -131,-85 -134,-107 -135,-85 -138,-107 -140,-84 -143,-107 -144,-84 -147,-107 -149,-84 -152,-106 -153,-84 -156,-106 -157,-84 -161,-106 -162,-83 -165,-106 -166,-83 -170,-106 -171,-83 -174,-105 -175,-83 -178,-105 -180,-83 -183,-105 -184,-82 -187,-105 -189,-82 -192,-105 -193,-82 -196,-105 -197,-82 -201,-104 -202,-82 -205,-104 -206,-81 -210,-104 -211,-81 -214,-104 -215,-81 -218,-104 -220,-81 -223,-104 -224,-80 -227,-103 -229,-80 -232,-103 -233,-80 -236,-103 -237,-80 -241,-103 -242,-80 -245,-103 -246,-79 -249,-102 -251,-79 -254,-102 -255,-79 -258,-102 -260,-79 -263,-102 -264,-79 -267,-102 -268,-78 -272,-102 -273,-78 -276,-101 -277,-78 -281,-101 -282,-78 -285,-101 -286,-78 -289,-101 -291,-77 -294,-101 -295,-77 -298,-100 -300,-77 -303,-100 -304,-77 -307,-100 -308,-77 -312,-100 -313,-76 -316,-100 -317,-76 -321,-100 -322,-76 -325,-99 -326,-76 -329,-99 -331,-76 -334,-99 -335,-75 -338,-99 -340,-76 -343,-99 -343,-99 -344,-76 -344,-81 -367,-79 -390,-77 -392,-69 -392,-47 -387,-17 -393,-19 -387,-21 -394,-22 -387,-26 -396,-26 -387,-31 -399,-30 -387,-35 -401,-34 -387,-39 -403,-38 -387,-44 -405,-42 -387,-48 -407,-47 -387,-52 -407,-51 -387,-56 -408,-55 -387,-60 -409,-60 -387,-62 -410,-64 -387,-65 -411,-69 -387,-66 -412,-73 -387,-68 -412,-78 -387,-69 -412,-83 -387,-70 -411,-88 -387,-72 -410,-93 -386,-73 -407,-96 -385,-73 -402,-96 -384,-73 -397,-97 -382,-73 -392,-97 -381,-73 -387,-97 -379,-73 -383,-97 -377,-74 -378,-97 -374,-74 -374,-97 -370,-74 -369,-98 -366,-74 -365,-98 -362,-74 -361,-98 -357,-75 -356,-98 -353,-75 -352,-98 -348,-75 -347,-99 -344,-76 -344,-79 -344,-76" /><polyline class="right-outline"  points="355,-81 358,-81 355,-81 355,-81 370,-79 365,-79 363,-60 362,-41 360,-22 359,-3 354,15 349,33 345,51 335,68 325,86 312,99 299,113 278,123 263,127 248,130 228,129 208,128 190,120 173,113 154,96 142,76 129,56 124,36 119,16 113,-4 111,-33 130,-23 120,-39 110,-55 108,-70 106,-85 111,-94 127,-88 132,-91 155,-91 178,-91 193,-74 197,-57 192,-40 179,-24 157,-16 131,-23 131,-23 128,-19 138,-42 130,-18 140,-40 135,-17 142,-39 139,-16 145,-37 143,-15 148,-35 147,-13 151,-34 152,-12 153,-35 156,-11 156,-35 161,-12 158,-35 165,-13 161,-36 169,-15 163,-36 173,-16 166,-36 177,-18 167,-38 181,-20 169,-39 185,-23 170,-41 188,-26 172,-43 190,-30 174,-44 193,-33 175,-46 196,-37 177,-48 197,-41 177,-50 198,-45 177,-52 200,-49 177,-54 201,-54 177,-57 201,-58 177,-59 200,-63 177,-61 200,-67 178,-63 199,-71 177,-65 197,-75 176,-66 195,-79 175,-68 192,-83 174,-70 189,-86 173,-72 186,-89 171,-74 183,-93 169,-75 179,-95 167,-76 174,-95 165,-78 169,-95 163,-79 165,-95 160,-79 160,-95 157,-80 156,-95 154,-80 151,-95 151,-80 147,-95 147,-79 142,-95 144,-78 138,-95 142,-76 133,-96 140,-74 129,-95 139,-73 123,-96 138,-71 116,-98 137,-70 111,-98 136,-69 106,-96 135,-68 104,-92 134,-68 103,-88 133,-66 103,-82 133,-65 103,-77 133,-63 103,-72 133,-61 104,-67 133,-59 104,-63 132,-57 104,-58 132,-55 105,-54 133,-50 105,-49 135,-46 105,-45 137,-42 106,-40 136,-38 106,-36 134,-34 106,-31 132,-29 107,-27 131,-25 107,-22 129,-20 107,-18 129,-16 108,-14 129,-12 108,-9 130,-8 108,-5 131,-5 109,0 131,-2 110,4 132,2 111,8 133,6 112,13 133,10 114,17 134,14 115,21 135,18 116,25 136,22 117,30 137,26 118,34 139,30 119,38 140,34 121,43 142,37 122,47 143,41 123,51 145,44 124,56 146,48 126,60 148,52 128,63 149,55 131,67 151,59 133,71 153,62 135,75 156,65 138,79 158,68 140,82 160,71 142,86 162,74 145,90 165,77 147,94 167,80 150,97 169,84 153,101 171,86 156,104 173,89 159,107 176,91 162,110 179,94 166,113 181,96 169,116 184,98 173,118 187,100 177,120 189,102 181,122 192,104 185,123 196,105 189,125 199,106 193,127 202,107 197,128 206,108 201,130 209,109 206,132 213,110 210,133 216,111 214,133 220,112 219,133 224,112 223,133 228,112 228,134 231,112 232,134 235,112 237,134 238,112 241,134 242,112 246,135 246,112 250,134 249,112 254,133 253,112 259,133 257,111 263,132 260,109 267,131 264,108 272,130 267,107 276,129 270,106 280,128 273,104 284,126 276,103 288,124 280,102 292,122 283,101 296,120 286,99 300,118 289,98 304,115 292,95 307,112 294,93 310,109 297,90 313,105 299,88 316,102 301,85 320,99 304,83 323,96 306,80 326,93 309,77 329,89 312,74 331,86 314,71 333,82 316,67 335,78 318,64 338,74 320,61 340,70 321,58 342,66 323,55 344,62 325,51 346,58 326,47 348,54 327,44 350,50 329,40 351,46 330,36 352,42 331,32 353,37 332,28 354,33 334,24 356,29 335,21 357,24 336,17 358,20 337,13 359,16 339,9 360,11 340,5 361,7 341,1 362,3 341,-3 363,-1 341,-7 364,-6 342,-11 364,-10 342,-15 365,-15 342,-19 365,-19 343,-24 366,-24 343,-28 366,-28 344,-32 366,-32 344,-37 367,-37 344,-41 367,-41 345,-45 367,-46 345,-50 368,-50 346,-54 368,-55 346,-59 368,-59 346,-63 369,-63 347,-68 369,-68 347,-72 369,-72 348,-76 370,-77 370,-79 370,-79 355,-81 358,-81 355,-81 343,-76 344,-79 343,-76 344,-81 324,-82 303,-83 283,-84 263,-85 243,-85 223,-86 203,-87 183,-88 163,-89 143,-89 123,-90 102,-91 80,-101 80,-101 79,-98 82,-104 81,-97 86,-104 86,-95 89,-105 90,-93 94,-105 94,-90 98,-106 98,-88 102,-106 102,-87 106,-107 107,-86 111,-107 111,-86 115,-108 116,-85 119,-108 120,-85 123,-108 125,-85 127,-107 129,-85 132,-107 133,-85 136,-107 138,-84 141,-107 142,-84 145,-107 146,-84 150,-106 151,-84 154,-106 155,-84 158,-106 160,-83 163,-106 164,-83 167,-106 169,-83 172,-106 173,-83 176,-105 177,-83 181,-105 182,-82 185,-105 186,-82 190,-105 191,-82 194,-105 195,-82 198,-105 200,-82 203,-104 204,-81 207,-104 209,-81 212,-104 213,-81 216,-104 217,-81 221,-104 222,-81 225,-103 226,-80 230,-103 231,-80 234,-103 235,-80 238,-103 240,-80 243,-103 244,-80 247,-103 249,-79 252,-102 253,-79 256,-102 257,-79 261,-102 262,-79 265,-102 266,-79 270,-102 271,-78 274,-101 275,-78 278,-101 280,-78 283,-101 284,-78 287,-101 288,-78 292,-101 293,-77 296,-101 297,-77 301,-100 302,-77 305,-100 306,-77 309,-100 311,-77 314,-100 315,-76 318,-100 320,-76 323,-100 324,-76 327,-99 328,-76 332,-99 333,-75 336,-99 337,-76 341,-99 342,-76 344,-94 365,-93 386,-93 406,-93 408,-73 401,-45 401,-45 392,-17 387,-19 394,-21 387,-24 395,-24 387,-28 397,-28 387,-33 400,-32 387,-37 402,-36 387,-41 404,-40 387,-46 406,-44 387,-50 407,-49 387,-54 408,-53 387,-58 409,-57 387,-61 410,-62 387,-64 411,-66 387,-66 412,-71 387,-67 412,-76 387,-68 412,-81 387,-70 411,-85 387,-71 411,-90 387,-72 410,-96 386,-73 404,-96 384,-73 399,-96 383,-73 394,-97 382,-73 390,-97 380,-73 385,-97 378,-73 381,-97 375,-74 376,-97 372,-74 372,-98 368,-74 367,-98 364,-74 363,-98 360,-74 358,-98 355,-75 354,-98 351,-75 349,-98 346,-76 345,-99 345,-99 342,-76 342,-79 342,-76" /><polyline   points="-194,-129 -191,-129 -194,-129 -176,-130 -159,-131 -141,-133 -124,-134 -141,-133 -124,-134 -141,-133 -159,-131 -141,-133 -159,-131 -176,-130 -159,-131 -176,-130 -194,-129 -176,-130 -194,-129 -191,-129 -194,-129" /><polyline   points="188,-129 185,-129 188,-129 171,-130 153,-131 136,-133 118,-134 136,-133 118,-134 136,-133 153,-131 136,-133 153,-131 171,-130 153,-131 171,-130 188,-129 171,-130 188,-129 185,-129 188,-129" /></svg>