<svg viewBox="-425 -150 850 300" fill="none" stroke="black" stroke-width="4"><polyline class="left-eye" stroke="red" points="-340,-28 -337,-27 -340,-28 -322,-21 -303,-22 -285,-29 -273,-45 -270,-64 -275,-82 -288,-97 -270,-92 -251,-90 -232,-89 -212,-88 -193,-86 -174,-84 -155,-82 -136,-80 -117,-78 -118,-59 -118,-40 -120,-21 -123,-2 -125,17 -128,36 -134,54 -144,71 -157,85 -170,98 -187,108 -204,116 -223,119 -242,117 -261,112 -278,105 -294,93 -307,80 -318,64 -327,47 -334,29 -338,10 -340,-9 -340,-28 -334,-10 -329,8 -323,26 -318,44 -312,62 -307,80 -283,100 -256,113 -264,105 -291,75 -319,46 -333,31 -336,17 -338,4 -316,28 -289,57 -262,86 -234,115 -232,118 -213,117 -232,97 -259,67 -287,38 -314,9 -340,-19 -340,-28 -324,-16 -309,-4 -293,8 -277,20 -262,32 -246,44 -232,30 -218,16 -203,3 -189,-11 -174,-24 -160,-38 -146,-51 -131,-65 -117,-78 -117,-68 -118,-57 -139,-80 -150,-82 -161,-83 -148,-69 -121,-40 -118,-37 -120,-18 -123,-21 -151,-50 -178,-80 -183,-85 -194,-86 -205,-87 -180,-61 -153,-32 -126,-2 -123,1 -125,20 -128,16 -156,-13 -183,-42 -210,-71 -226,-89 -237,-89 -247,-90 -240,-82 -213,-53 -185,-23 -158,6 -131,35 -128,38 -134,53 -160,24 -188,-5 -215,-34 -242,-63 -268,-91 -287,-96 -277,-86 -288,-97 -277,-86 -272,-74 -245,-45 -217,-15 -190,14 -163,43 -141,66 -150,78 -165,62 -193,33 -220,3 -247,-26 -271,-52 -278,-37 -250,-7 -222,22 -195,51 -168,80 -160,89 -171,99 -197,70 -225,41 -252,11 -279,-18 -288,-28 -303,-22 -282,1 -254,30 -227,59 -200,89 -183,107 -197,113 -202,107 -230,78 -257,49 -284,19 -311,-10 -322,-21 -340,-28 -345,-37 -344,-37 -345,-36 -342,-36 -346,-33 -338,-35 -346,-27 -334,-33 -340,-29 -347,-22 -331,-32 -347,-17 -339,-22 -327,-30 -347,-12 -323,-29 -338,-15 -347,-7 -328,-22 -319,-28 -346,-3 -337,-8 -314,-27 -327,-15 -346,2 -317,-22 -309,-27 -336,-2 -345,7 -326,-9 -303,-28 -316,-15 -345,11 -336,5 -306,-22 -296,-30 -326,-2 -344,16 -344,18 -316,-9 -290,-32 -284,-36 -275,-49 -265,-63 -256,-76 -270,-86 -287,-92 -304,-99 -301,-99 -303,-98 -296,-99 -300,-96 -290,-99 -297,-93 -285,-99 -294,-91 -280,-99 -283,-97 -291,-89 -275,-99 -289,-86 -282,-90 -270,-99 -286,-83 -265,-98 -281,-83 -284,-81 -271,-90 -260,-98 -282,-77 -255,-97 -270,-83 -280,-74 -260,-90 -250,-97 -279,-70 -269,-77 -245,-97 -259,-83 -278,-66 -249,-90 -240,-96 -269,-70 -277,-62 -259,-77 -235,-96 -249,-83 -277,-57 -268,-63 -239,-90 -230,-96 -258,-70 -278,-51 -248,-77 -225,-95 -238,-84 -267,-56 -280,-45 -283,-39 -257,-63 -228,-90 -221,-95 -247,-70 -276,-43 -306,-15 -335,12 -344,20 -325,5 -296,-22 -266,-50 -237,-77 -216,-94 -227,-84 -256,-56 -286,-29 -315,-2 -342,24 -334,18 -305,-9 -276,-36 -246,-63 -217,-91 -211,-94 -236,-70 -265,-43 -295,-16 -324,12 -341,28 -314,5 -285,-22 -255,-50 -226,-77 -206,-94 -216,-84 -245,-57 -275,-29 -304,-2 -333,25 -340,32 -323,18 -294,-9 -265,-36 -235,-63 -206,-91 -201,-93 -225,-70 -255,-43 -284,-16 -313,12 -339,36 -332,32 -303,5 -274,-23 -245,-50 -215,-77 -196,-93 -205,-84 -235,-57 -264,-29 -293,-2 -322,25 -338,40 -312,18 -283,-9 -254,-36 -225,-64 -191,-92 -215,-70 -244,-43 -273,-16 -302,11 -332,39 -337,44 -322,32 -292,5 -263,-23 -234,-50 -205,-77 -186,-92 -195,-84 -224,-57 -253,-30 -282,-2 -312,25 -335,47 -331,45 -302,18 -272,-9 -243,-36 -214,-64 -181,-92 -204,-71 -233,-43 -262,-16 -292,11 -321,39 -334,51 -311,32 -282,4 -252,-23 -223,-50 -194,-77 -177,-91 -184,-84 -213,-57 -242,-30 -272,-2 -301,25 -332,54 -320,45 -291,18 -262,-9 -232,-37 -203,-64 -172,-91 -193,-71 -222,-43 -252,-16 -281,11 -310,38 -330,57 -300,32 -271,4 -241,-23 -212,-50 -183,-78 -167,-90 -173,-84 -202,-57 -231,-30 -261,-3 -290,25 -319,52 -329,61 -309,45 -280,18 -251,-9 -221,-37 -192,-64 -162,-90 -182,-71 -211,-44 -241,-16 -270,11 -299,38 -327,64 -318,59 -289,31 -260,4 -231,-23 -201,-50 -172,-78 -157,-89 -162,-85 -191,-57 -221,-30 -250,-3 -279,25 -308,52 -326,68 -298,45 -269,18 -240,-10 -211,-37 -181,-64 -152,-89 -171,-71 -201,-44 -230,-16 -259,11 -288,38 -318,65 -324,71 -308,59 -278,31 -249,4 -220,-23 -191,-51 -161,-78 -147,-88 -151,-85 -181,-57 -210,-30 -239,-3 -268,24 -298,52 -321,74 -317,72 -288,45 -258,18 -229,-10 -200,-37 -171,-64 -143,-88 -161,-71 -190,-44 -219,-17 -248,11 -278,38 -307,65 -319,77 -297,58 -268,31 -238,4 -209,-23 -180,-51 -151,-78 -138,-88 -141,-85 -170,-58 -199,-30 -228,-3 -258,24 -287,52 -317,80 -306,72 -277,45 -248,17 -218,-10 -189,-37 -160,-64 -133,-87 -150,-71 -179,-44 -208,-17 -238,11 -267,38 -296,65 -315,83 -286,58 -257,31 -228,4 -198,-24 -169,-51 -140,-78 -128,-87 -159,-58 -188,-30 -217,-3 -247,24 -276,51 -305,79 -313,86 -295,72 -266,45 -237,17 -207,-10 -178,-37 -149,-65 -123,-86 -139,-71 -168,-44 -197,-17 -227,10 -256,38 -285,65 -310,88 -304,85 -275,58 -246,31 -217,4 -187,-24 -158,-51 -129,-78 -118,-86 -148,-58 -177,-31 -207,-3 -236,24 -265,51 -294,79 -308,91 -284,72 -255,44 -226,17 -197,-10 -167,-37 -138,-65 -113,-85 -128,-72 -157,-44 -187,-17 -216,10 -245,38 -274,65 -305,93 -294,85 -264,58 -235,31 -206,3 -177,-24 -147,-51 -118,-78 -110,-84 -137,-58 -167,-31 -196,-3 -225,24 -254,51 -284,78 -303,96 -274,72 -244,44 -215,17 -186,-10 -157,-38 -127,-65 -110,-79 -117,-72 -147,-44 -176,-17 -205,10 -234,37 -264,65 -293,92 -300,99 -283,85 -254,58 -224,31 -195,3 -166,-24 -137,-51 -110,-73 -127,-58 -156,-31 -185,-4 -214,24 -244,51 -273,78 -297,101 -292,99 -263,71 -234,44 -204,17 -175,-10 -146,-38 -117,-65 -110,-68 -136,-45 -165,-17 -194,10 -224,37 -253,65 -282,92 -294,103 -272,85 -243,58 -214,30 -184,3 -155,-24 -126,-51 -110,-63 -116,-58 -145,-31 -174,-4 -203,24 -233,51 -262,78 -291,105 -281,99 -252,71 -223,44 -193,17 -164,-11 -135,-38 -111,-58 -125,-45 -154,-17 -183,10 -213,37 -242,64 -271,92 -288,107 -261,85 -232,58 -203,30 -173,3 -144,-24 -115,-52 -111,-53 -134,-31 -163,-4 -193,23 -222,51 -251,78 -280,105 -285,110 -270,98 -241,71 -212,44 -183,17 -153,-11 -124,-38 -111,-48 -114,-45 -143,-18 -173,10 -202,37 -231,64 -260,92 -282,112 -278,110 -250,85 -221,57 -192,30 -163,3 -133,-24 -111,-43 -123,-31 -153,-4 -182,23 -211,51 -240,78 -270,105 -278,113 -260,98 -230,71 -201,44 -172,16 -143,-11 -113,-38 -111,-38 -133,-18 -162,10 -191,37 -220,64 -250,91 -275,115 -269,112 -240,85 -210,57 -181,30 -152,3 -123,-25 -112,-32 -114,-30 -142,-4 -171,23 -200,50 -230,78 -259,105 -271,117 -249,98 -220,71 -190,44 -161,16 -132,-11 -112,-27 -122,-18 -151,9 -180,37 -210,64 -239,91 -268,118 -258,112 -229,84 -200,57 -170,30 -141,3 -113,-22 -131,-4 -160,23 -190,50 -219,78 -248,105 -264,120 -238,98 -209,71 -179,43 -150,16 -121,-11 -113,-16 -140,9 -169,37 -199,64 -228,91 -257,118 -260,121 -247,112 -218,84 -189,57 -159,30 -130,2 -114,-10 -120,-4 -149,23 -179,50 -208,77 -237,105 -256,122 -227,98 -198,71 -169,43 -139,16 -115,-5 -129,9 -159,36 -188,64 -217,91 -246,118 -252,123 -236,111 -207,84 -178,57 -149,30 -119,2 -115,1 -139,23 -168,50 -197,77 -226,105 -248,124 -216,98 -187,70 -158,43 -129,16 -116,6 -119,9 -148,36 -177,64 -206,91 -236,118 -243,125 -226,111 -196,84 -167,57 -138,29 -116,12 -128,23 -157,50 -186,77 -216,104 -238,125 -206,98 -176,70 -147,43 -117,17 -137,36 -166,63 -196,91 -225,118 -233,126 -215,111 -186,84 -156,57 -127,29 -117,23 -146,50 -176,77 -205,104 -228,126 -195,97 -166,70 -136,43 -119,29 -126,36 -155,63 -185,91 -214,118 -222,126 -204,111 -175,84 -145,56 -120,36 -135,50 -165,77 -194,104 -216,125 -184,97 -155,70 -125,43 -122,42 -145,63 -174,90 -203,118 -210,124 -193,111 -164,84 -135,56 -125,50 -154,77 -183,104 -202,122 -173,97 -144,70 -129,58 -134,63 -163,90 -194,119 -182,111 -153,83 -132,64 -136,70 -143,77 -172,104 -184,115 -177,111 -162,97 -139,76 -142,79 -152,88 -161,99 -162,99 -162,99 -161,99 -142,79 -144,81 -142,79" /><polyline class="right-eye" stroke="red" points="129,-8 132,-7 129,-8 146,-3 154,-1 162,-4 178,-12 191,-23 197,-39 196,-57 188,-72 176,-85 192,-77 211,-79 230,-81 248,-83 267,-85 286,-86 305,-88 323,-89 342,-90 341,-70 340,-50 336,-30 334,-11 333,9 330,29 324,48 315,66 303,82 289,96 272,106 253,111 233,113 213,111 194,104 177,96 161,83 149,68 139,50 132,32 130,12 129,-8 134,9 140,27 145,44 151,62 156,79 173,89 189,99 205,109 201,104 172,76 144,47 133,36 131,25 130,13 145,29 174,57 202,85 229,113 248,112 232,95 203,67 175,39 147,11 129,-7 129,-8 142,2 156,13 169,23 183,33 196,43 210,54 228,45 239,30 249,13 260,-4 273,-18 287,-33 301,-47 315,-61 328,-76 342,-90 342,-90 323,-89 336,-77 341,-71 340,-53 334,-58 305,-88 287,-86 305,-68 333,-40 337,-36 335,-18 332,-22 303,-50 275,-78 268,-85 250,-83 274,-60 302,-31 330,-3 334,1 332,19 329,15 301,-13 272,-41 244,-70 232,-81 214,-79 243,-51 271,-23 299,5 329,35 324,49 298,24 269,-5 241,-33 213,-61 196,-78 186,-79 176,-85 187,-74 195,-60 212,-43 240,-15 268,14 296,42 317,63 309,75 295,60 267,32 238,4 210,-25 197,-38 191,-24 209,-6 237,22 265,50 294,79 300,85 290,95 264,69 236,40 207,12 181,-14 168,-7 178,2 206,30 234,59 263,87 279,103 264,109 261,105 233,77 205,49 176,20 155,-1 129,-8 119,-25 120,-25 119,-23 124,-23 118,-17 128,-22 117,-11 131,-20 117,-6 127,-14 135,-19 117,-1 119,0 138,-17 128,-7 117,4 142,-16 120,7 117,9 129,-1 146,-15 139,-8 118,14 121,13 151,-15 130,6 118,18 140,-1 157,-15 150,-8 122,20 118,23 132,13 164,-17 141,6 119,28 123,27 151,-2 172,-20 161,-9 133,19 120,32 121,34 142,12 171,-16 181,-26 182,-27 192,-41 201,-55 211,-69 194,-75 177,-80 159,-84 165,-85 162,-81 171,-86 164,-79 178,-87 167,-76 184,-88 172,-77 169,-74 182,-84 189,-89 172,-71 175,-72 195,-89 183,-77 174,-68 193,-84 201,-90 177,-66 184,-71 206,-90 194,-78 179,-63 204,-85 212,-91 185,-64 181,-60 195,-71 218,-91 205,-78 183,-57 186,-57 214,-85 223,-92 196,-64 184,-53 206,-72 229,-93 215,-79 185,-49 197,-58 225,-86 235,-93 207,-65 187,-45 216,-72 240,-94 226,-79 198,-51 186,-39 208,-58 236,-87 246,-94 244,-92 217,-65 189,-37 185,-33 181,-27 199,-44 227,-73 252,-95 237,-80 209,-52 180,-23 152,5 124,33 121,36 134,26 162,-2 190,-30 218,-59 247,-87 257,-95 228,-66 200,-38 172,-9 143,19 122,40 153,12 181,-17 210,-45 238,-73 263,-96 248,-80 219,-52 191,-24 163,4 135,33 123,44 144,26 173,-3 201,-31 229,-59 257,-88 269,-96 239,-66 211,-38 182,-10 154,18 125,48 136,39 164,11 192,-17 220,-45 249,-74 274,-97 258,-81 230,-53 202,-24 174,4 145,32 126,51 155,25 183,-3 212,-32 240,-60 268,-88 280,-97 250,-67 221,-39 193,-10 165,18 137,46 128,55 146,39 175,11 203,-18 231,-46 259,-74 286,-98 269,-81 241,-53 213,-25 184,3 156,32 129,58 138,53 166,25 194,-4 222,-32 251,-60 279,-89 291,-98 289,-96 261,-68 232,-39 204,-11 176,17 147,46 131,62 157,38 185,10 214,-18 242,-46 270,-75 297,-99 280,-82 252,-54 223,-25 195,3 167,31 139,59 133,65 148,52 177,24 205,-4 233,-33 262,-61 290,-89 303,-99 300,-96 271,-68 243,-40 215,-12 186,17 158,45 134,69 140,66 168,38 196,10 224,-19 253,-47 281,-75 308,-100 291,-82 263,-54 234,-26 206,2 178,31 149,59 136,72 159,52 187,23 216,-5 244,-33 272,-61 301,-90 314,-100 310,-97 282,-69 254,-40 226,-12 197,16 169,45 141,73 138,75 150,66 179,37 207,9 235,-19 264,-48 292,-76 320,-101 302,-83 273,-55 245,-26 217,2 188,30 160,58 140,78 144,78 170,51 198,23 227,-5 255,-34 283,-62 311,-90 325,-101 321,-97 293,-69 265,-41 236,-13 208,16 180,44 151,72 143,81 161,65 189,37 218,9 246,-20 274,-48 303,-76 330,-102 312,-84 284,-55 256,-27 228,1 199,30 171,58 145,84 152,79 181,51 209,22 237,-6 266,-34 294,-62 322,-91 336,-102 332,-98 304,-70 275,-41 247,-13 219,15 191,43 162,72 147,87 172,65 200,36 229,8 257,-20 285,-49 313,-77 341,-102 323,-84 295,-56 267,-28 238,1 210,29 182,57 153,86 149,90 163,78 192,50 220,22 248,-6 276,-35 305,-63 333,-91 347,-103 343,-98 314,-70 286,-42 258,-14 230,15 201,43 173,71 152,92 155,91 183,64 211,36 239,7 268,-21 296,-49 324,-77 352,-103 334,-85 306,-56 277,-28 249,0 221,29 193,57 164,85 155,95 174,78 202,50 231,21 259,-7 287,-35 315,-64 344,-92 354,-99 325,-71 297,-42 269,-14 240,14 212,42 184,71 157,97 165,92 194,63 222,35 250,7 278,-21 307,-50 335,-78 354,-94 345,-85 316,-57 288,-29 260,0 232,28 203,56 175,85 160,100 185,77 213,49 241,21 270,-7 298,-36 326,-64 354,-89 336,-71 308,-43 279,-15 251,14 223,42 195,70 166,98 163,102 176,91 204,63 233,35 261,6 289,-22 317,-50 346,-78 353,-84 327,-57 299,-29 271,-1 242,27 214,56 186,84 166,104 196,77 224,49 252,20 280,-8 309,-36 337,-65 353,-78 347,-72 319,-44 290,-15 262,13 234,41 205,70 177,98 169,106 187,91 215,62 243,34 272,6 300,-22 328,-51 353,-73 338,-58 310,-30 281,-1 253,27 225,55 197,84 172,108 178,105 206,76 235,48 263,20 291,-9 320,-37 348,-65 353,-68 329,-44 301,-16 273,13 244,41 216,69 188,97 175,110 198,90 226,62 254,34 282,5 311,-23 339,-51 353,-62 349,-58 321,-30 292,-2 264,26 236,55 207,83 178,112 189,104 217,76 245,47 274,19 302,-9 330,-37 353,-57 340,-45 312,-16 284,12 255,40 227,69 199,97 182,114 208,90 237,61 265,33 293,5 322,-23 350,-52 352,-52 331,-31 303,-2 275,26 246,54 218,82 190,111 185,115 200,104 228,75 256,47 285,19 313,-10 341,-38 352,-46 350,-44 323,-17 294,11 266,40 238,68 209,96 189,117 219,89 247,61 276,33 304,4 332,-24 351,-40 342,-31 314,-3 286,25 257,54 229,82 201,110 192,118 210,103 239,75 267,46 295,18 324,-10 349,-33 333,-17 305,11 277,39 249,68 220,96 196,120 202,117 230,89 258,60 287,32 315,4 343,-25 348,-27 325,-3 296,25 268,53 240,81 211,110 200,121 221,102 250,74 278,46 306,18 334,-11 348,-21 344,-18 316,10 288,39 259,67 231,95 204,122 212,116 241,88 269,60 297,32 326,3 347,-16 335,-4 307,24 279,53 251,81 222,109 208,123 232,102 260,74 289,45 317,17 347,-10 327,10 298,38 270,66 242,95 213,124 223,116 252,88 280,59 308,31 336,3 347,-5 318,24 290,52 261,80 233,109 217,125 243,101 271,73 299,45 328,17 346,1 337,9 309,38 281,66 253,94 224,123 221,125 234,115 262,87 291,59 319,30 346,6 329,23 300,52 272,80 244,108 226,126 254,101 282,73 310,44 338,16 345,12 320,37 292,65 263,94 235,122 231,126 245,115 273,86 301,58 330,30 345,17 339,23 311,51 283,79 255,108 236,126 264,100 293,72 321,44 344,23 331,37 302,65 274,93 246,121 242,126 256,114 284,86 312,58 340,29 343,30 322,50 294,79 265,107 248,125 275,100 303,72 332,43 341,36 313,64 285,93 257,121 254,124 266,114 295,85 323,57 339,44 333,50 304,78 276,107 260,123 286,99 314,71 335,52 324,64 296,92 268,120 277,113 305,85 334,57 331,62 315,78 287,106 276,117 297,99 326,69 322,76 307,92 287,112 294,105 303,98 302,98 294,105 296,103 294,105" /><polyline  stroke="white" points="-291,-82 -291,-79 -291,-82 -289,-64 -293,-48 -308,-39 -316,-40 -323,-46 -331,-60 -329,-69 -324,-75 -317,-82 -309,-82 -291,-82 -305,-73 -318,-65 -332,-56 -332,-56 -325,-69 -317,-82 -317,-46 -317,-41 -303,-41 -303,-58 -303,-82 -291,-82 -289,-70 -288,-59 -288,-59 -288,-59 -291,-82 -308,-91 -305,-91 -305,-91 -302,-91 -315,-91 -302,-91 -295,-89 -322,-89 -323,-87 -289,-85 -311,-85 -329,-85 -299,-83 -284,-81 -327,-81 -334,-81 -315,-79 -281,-77 -303,-77 -338,-77 -331,-75 -291,-75 -279,-73 -319,-73 -341,-73 -307,-71 -277,-69 -295,-69 -335,-69 -342,-69 -323,-67 -283,-67 -276,-65 -311,-65 -343,-65 -339,-63 -299,-63 -275,-61 -287,-61 -327,-61 -344,-61 -315,-59 -275,-57 -303,-57 -344,-57 -331,-55 -291,-55 -277,-53 -319,-53 -343,-53 -307,-51 -278,-49 -295,-49 -335,-49 -342,-49 -323,-47 -283,-47 -280,-45 -311,-45 -340,-45 -299,-43 -283,-41 -287,-41 -327,-41 -337,-41 -315,-39 -287,-37 -303,-37 -333,-37 -292,-33 -319,-33 -327,-33 -322,-31 -307,-31 -296,-31 -306,-29 -307,-29 -306,-29 -307,-29 -306,-29" /><polyline  stroke="white" points="163,-72 164,-69 163,-72 170,-56 173,-48 172,-40 160,-27 143,-27 132,-39 133,-56 146,-67 163,-72 152,-63 141,-53 130,-44 130,-44 137,-55 145,-67 145,-46 145,-27 159,-27 159,-58 159,-71 163,-72 169,-58 174,-45 174,-45 174,-45 163,-72 151,-76 156,-76 156,-76 159,-76 147,-76 159,-76 166,-74 145,-74 140,-74 157,-72 173,-70 169,-70 133,-70 141,-68 177,-66 153,-66 128,-66 165,-64 180,-62 177,-62 137,-62 125,-62 149,-60 183,-58 161,-58 122,-58 133,-56 173,-56 184,-54 145,-54 121,-54 157,-52 186,-50 169,-50 129,-50 119,-50 141,-48 181,-48 186,-46 153,-46 119,-46 125,-44 165,-44 186,-42 177,-42 137,-42 119,-42 149,-40 184,-38 161,-38 120,-38 133,-36 173,-36 182,-34 145,-34 121,-34 157,-32 180,-30 169,-30 129,-30 124,-30 141,-28 177,-26 153,-26 128,-26 165,-24 173,-22 137,-22 132,-22 149,-20 166,-18 161,-18 140,-18 153,-16 155,-16 153,-16" /><polyline class="left-outline"  points="-117,-82 -116,-80 -118,-59 -120,-39 -121,-19 -123,2 -125,22 -133,44 -141,65 -155,85 -173,101 -189,109 -206,116 -231,120 -259,114 -276,105 -293,95 -306,80 -318,65 -325,45 -332,25 -336,1 -340,-23 -337,-36 -330,-45 -336,-51 -336,-69 -330,-78 -322,-86 -313,-89 -293,-83 -283,-65 -285,-50 -299,-35 -315,-34 -330,-45 -330,-45 -335,-23 -330,-50 -333,-22 -326,-47 -331,-21 -322,-44 -328,-20 -320,-41 -324,-18 -317,-39 -319,-16 -315,-39 -315,-16 -312,-39 -311,-16 -310,-39 -306,-17 -307,-39 -302,-17 -305,-39 -297,-18 -302,-39 -293,-19 -301,-40 -289,-20 -299,-42 -286,-23 -297,-43 -282,-26 -296,-45 -278,-28 -294,-46 -275,-31 -293,-48 -272,-35 -291,-49 -270,-39 -290,-51 -268,-43 -289,-53 -267,-47 -289,-55 -267,-52 -288,-57 -266,-56 -287,-60 -266,-61 -287,-62 -266,-65 -288,-64 -266,-69 -289,-65 -267,-74 -289,-67 -269,-78 -290,-69 -271,-82 -291,-70 -272,-86 -292,-72 -275,-90 -293,-74 -278,-93 -294,-76 -282,-95 -295,-78 -287,-96 -298,-79 -292,-96 -300,-80 -296,-96 -303,-81 -301,-97 -306,-82 -305,-97 -309,-83 -310,-97 -312,-84 -314,-97 -315,-83 -319,-98 -319,-82 -323,-98 -321,-81 -328,-98 -323,-78 -333,-98 -325,-77 -337,-98 -326,-75 -342,-98 -327,-74 -348,-98 -328,-73 -353,-98 -329,-72 -358,-96 -330,-71 -360,-92 -331,-70 -361,-88 -331,-69 -361,-83 -331,-67 -361,-77 -331,-65 -360,-72 -331,-64 -360,-68 -331,-62 -359,-63 -331,-59 -359,-59 -331,-56 -358,-54 -331,-52 -358,-50 -330,-47 -357,-45 -331,-43 -357,-41 -332,-39 -356,-36 -333,-34 -356,-32 -333,-30 -355,-27 -334,-25 -355,-23 -334,-21 -355,-19 -334,-17 -354,-14 -333,-13 -354,-10 -333,-9 -353,-5 -332,-5 -353,-1 -331,-1 -352,4 -331,3 -352,8 -330,7 -351,12 -330,11 -351,17 -329,15 -350,21 -329,19 -350,26 -328,23 -349,30 -327,27 -348,34 -325,30 -346,38 -324,34 -345,43 -323,38 -343,47 -321,42 -342,51 -320,45 -340,55 -319,48 -339,59 -318,52 -337,64 -316,56 -336,68 -315,60 -334,72 -314,63 -331,75 -311,66 -329,79 -309,69 -326,83 -306,72 -324,87 -304,75 -321,90 -302,77 -319,94 -300,80 -316,98 -297,82 -313,101 -295,85 -310,104 -293,88 -306,106 -290,91 -302,109 -287,93 -299,111 -284,95 -295,114 -281,96 -291,117 -278,98 -288,119 -275,100 -284,121 -271,101 -280,123 -268,103 -275,124 -265,105 -271,126 -261,107 -267,128 -258,108 -263,129 -255,110 -259,131 -251,110 -255,132 -247,111 -251,134 -244,112 -246,135 -241,113 -242,135 -237,113 -237,135 -234,114 -233,135 -230,115 -228,135 -227,114 -224,135 -223,114 -219,134 -220,113 -215,134 -216,113 -211,134 -213,112 -206,133 -209,112 -202,132 -205,111 -198,130 -202,109 -193,129 -198,108 -189,128 -195,106 -185,126 -192,105 -181,125 -189,103 -177,123 -185,102 -173,122 -182,100 -169,119 -179,99 -165,116 -175,97 -162,114 -173,95 -158,111 -170,92 -155,108 -168,90 -151,106 -165,88 -148,103 -162,85 -145,99 -160,83 -142,96 -157,80 -140,92 -155,77 -137,89 -153,74 -134,85 -151,71 -132,81 -149,68 -129,78 -146,65 -127,74 -145,62 -124,70 -143,58 -123,66 -142,54 -121,62 -141,51 -119,58 -140,47 -117,54 -138,44 -115,50 -137,40 -114,46 -136,37 -113,41 -134,33 -112,37 -133,29 -111,33 -132,25 -110,28 -130,21 -110,24 -130,17 -109,19 -129,13 -108,15 -129,9 -107,11 -129,5 -106,6 -128,1 -105,2 -128,-3 -105,-2 -127,-7 -104,-7 -127,-12 -103,-11 -127,-16 -103,-16 -126,-20 -103,-20 -126,-24 -102,-25 -125,-29 -102,-29 -125,-33 -102,-33 -125,-37 -102,-38 -124,-41 -101,-42 -124,-45 -101,-47 -124,-49 -101,-51 -123,-53 -101,-56 -123,-57 -100,-60 -122,-61 -101,-64 -122,-65 -103,-69 -122,-69 -105,-73 -121,-73 -108,-77 -121,-77 -111,-81 -111,-81 -120,-82 -117,-82 -120,-82 -337,-91 -337,-94 -337,-91 -337,-91 -337,-96 -325,-97 -305,-93 -284,-91 -264,-90 -243,-88 -223,-86 -203,-85 -182,-83 -162,-81 -142,-79 -121,-78 -101,-76 -85,-81 -67,-83 -70,-79 -71,-84 -74,-78 -75,-86 -78,-77 -80,-88 -82,-76 -84,-89 -86,-75 -89,-90 -91,-74 -93,-90 -95,-73 -97,-91 -100,-72 -102,-91 -104,-71 -106,-92 -109,-72 -110,-92 -113,-72 -114,-92 -118,-72 -118,-93 -122,-73 -122,-93 -126,-73 -127,-94 -131,-74 -131,-94 -135,-74 -136,-95 -140,-74 -140,-95 -144,-75 -144,-95 -149,-75 -149,-96 -153,-75 -153,-96 -157,-76 -158,-97 -162,-76 -162,-97 -166,-77 -167,-98 -171,-77 -171,-98 -175,-77 -175,-98 -180,-78 -180,-99 -184,-78 -184,-99 -188,-78 -189,-100 -193,-79 -193,-100 -197,-79 -197,-101 -202,-80 -202,-101 -206,-80 -206,-102 -211,-80 -211,-102 -215,-81 -215,-102 -219,-81 -220,-103 -224,-81 -224,-103 -228,-82 -228,-104 -233,-82 -233,-104 -237,-82 -237,-105 -242,-83 -242,-105 -246,-83 -246,-106 -250,-84 -251,-106 -255,-84 -255,-106 -259,-84 -259,-107 -263,-85 -264,-107 -268,-85 -268,-107 -272,-85 -273,-108 -277,-86 -277,-108 -281,-86 -282,-108 -285,-86 -286,-108 -290,-87 -290,-109 -294,-87 -295,-109 -299,-88 -299,-109 -303,-88 -303,-110 -307,-89 -308,-110 -312,-89 -312,-110 -316,-90 -316,-110 -320,-91 -321,-111 -324,-92 -325,-111 -328,-92 -330,-111 -333,-91 -334,-111 -334,-111 -337,-91 -337,-96 -350,-95 -375,-100 -390,-117 -390,-117 -405,-135 -402,-135 -404,-132 -399,-133 -402,-127 -395,-131 -401,-123 -392,-128 -398,-119 -388,-126 -396,-116 -385,-124 -393,-112 -382,-122 -390,-109 -379,-120 -387,-106 -376,-119 -384,-102 -372,-118 -380,-99 -369,-117 -377,-96 -366,-117 -373,-94 -363,-116 -368,-93 -360,-115 -364,-93 -357,-115 -359,-92 -354,-114 -355,-91 -350,-113 -351,-91 -346,-112 -346,-91 -343,-112 -342,-91 -338,-112 -337,-91 -337,-94 -337,-91" /><polyline class="right-outline"  points="123,-82 121,-80 123,-82 123,-82 106,-69 103,-64 104,-46 105,-28 106,-9 110,9 113,28 117,46 128,68 139,89 152,102 165,115 187,127 206,132 225,136 241,134 257,133 273,126 289,120 303,110 317,101 327,85 338,70 343,54 349,37 355,21 356,2 358,-18 359,-37 361,-57 363,-76 364,-96 347,-94 347,-94 342,-98 355,-98 342,-94 362,-95 341,-89 364,-91 341,-85 364,-86 341,-82 363,-82 341,-78 363,-77 340,-75 363,-73 340,-71 362,-69 340,-67 362,-64 339,-63 361,-60 339,-59 361,-55 339,-55 361,-51 339,-50 360,-46 338,-46 360,-42 338,-41 360,-38 338,-37 359,-33 337,-33 359,-29 337,-28 358,-24 337,-24 358,-20 336,-19 358,-15 336,-15 357,-11 336,-11 357,-7 335,-7 356,-2 335,-3 356,2 335,1 356,7 334,6 355,11 333,9 355,16 332,13 354,20 331,17 353,24 330,21 352,29 329,25 350,33 328,29 349,37 327,33 348,41 326,36 346,45 325,40 345,50 324,44 343,54 323,48 342,58 322,52 340,62 320,55 339,67 318,59 337,71 316,62 335,74 314,65 332,78 312,68 330,82 310,71 327,85 309,74 325,89 307,77 322,93 304,80 320,97 301,82 317,100 299,85 314,103 296,87 310,106 293,89 306,108 291,91 303,111 288,93 299,113 285,96 296,116 282,98 292,118 279,99 288,121 275,101 284,122 272,102 280,124 268,104 276,125 265,105 271,127 262,107 267,129 258,108 263,130 255,110 259,132 251,111 255,133 248,113 250,133 244,113 246,134 241,113 241,134 237,113 237,135 234,113 233,135 231,113 228,136 227,114 224,136 223,114 219,135 220,113 215,134 216,112 211,133 213,111 206,132 209,111 202,131 206,110 198,130 202,109 193,129 199,108 189,128 195,106 185,126 192,105 181,124 189,103 177,122 186,101 173,120 183,100 169,118 180,98 165,115 177,96 162,112 174,93 159,109 172,91 156,106 169,88 152,103 166,86 149,100 164,84 146,97 161,81 143,93 159,78 140,90 157,75 137,87 154,72 135,83 152,69 133,79 150,66 131,75 148,63 129,71 147,59 127,67 145,56 125,63 144,52 123,59 143,48 121,55 142,45 119,51 140,41 117,47 139,37 116,43 138,34 115,38 136,30 114,34 135,26 114,29 134,22 113,25 133,18 112,21 132,14 111,16 132,10 110,12 131,7 109,8 131,4 109,3 130,0 108,-1 130,-4 107,-6 129,-9 106,-10 131,-13 106,-15 132,-17 106,-19 134,-22 105,-23 135,-26 105,-28 137,-30 105,-32 135,-34 105,-37 133,-38 104,-41 131,-42 104,-46 131,-45 104,-50 131,-47 104,-55 131,-50 103,-60 132,-52 104,-64 132,-53 106,-68 132,-55 109,-71 132,-57 113,-74 134,-58 116,-77 135,-60 120,-80 136,-61 136,-61 123,-82 126,-78 144,-78 161,-78 178,-78 189,-66 194,-42 191,-32 181,-17 169,-9 146,-7 131,-13 129,-8 137,-30 131,-7 139,-29 135,-6 142,-28 139,-4 145,-27 143,-3 147,-25 148,-2 150,-24 152,-2 152,-25 156,-3 155,-25 161,-3 157,-26 165,-4 160,-26 169,-4 162,-27 173,-6 164,-27 177,-8 166,-28 181,-11 167,-30 184,-13 169,-32 187,-17 170,-33 190,-20 171,-35 192,-24 173,-36 194,-28 174,-38 196,-32 174,-40 197,-36 175,-42 198,-40 175,-44 198,-45 175,-47 197,-49 175,-49 196,-54 175,-51 195,-58 175,-53 195,-62 173,-54 194,-67 172,-56 192,-71 171,-58 189,-74 170,-59 186,-77 169,-61 183,-81 167,-63 179,-82 166,-65 174,-83 164,-67 169,-83 161,-68 164,-83 158,-68 159,-83 156,-69 155,-83 152,-70 150,-84 149,-70 146,-84 146,-69 141,-84 143,-68 137,-84 141,-66 132,-84 139,-64 128,-83 138,-62 123,-82 125,-80 123,-82 339,-91 339,-94 339,-91 339,-96 327,-97 307,-93 286,-91 266,-90 245,-88 225,-86 205,-85 184,-83 164,-81 144,-79 123,-78 103,-76 87,-81 87,-81 70,-80 74,-85 77,-78 79,-86 81,-77 83,-88 85,-76 87,-90 90,-75 92,-90 94,-74 96,-90 98,-72 101,-91 103,-72 105,-91 107,-71 109,-92 112,-72 113,-92 116,-72 117,-92 121,-73 121,-93 125,-73 125,-93 129,-73 130,-94 134,-74 134,-94 138,-74 139,-95 143,-74 143,-95 147,-75 148,-95 152,-75 152,-96 156,-76 156,-96 160,-76 161,-97 165,-76 165,-97 169,-77 170,-98 174,-77 174,-98 178,-77 178,-99 183,-78 183,-99 187,-78 187,-99 191,-78 192,-100 196,-79 196,-100 200,-79 201,-101 205,-80 205,-101 209,-80 209,-102 214,-80 214,-102 218,-81 218,-103 222,-81 223,-103 227,-81 227,-103 231,-82 232,-104 236,-82 236,-104 240,-83 240,-105 245,-83 245,-105 249,-83 249,-106 253,-84 254,-106 258,-84 258,-107 262,-84 263,-107 267,-85 267,-107 271,-85 271,-108 275,-85 276,-108 280,-86 280,-108 284,-86 285,-108 288,-87 289,-109 293,-87 293,-109 297,-87 298,-109 302,-88 302,-109 306,-88 306,-110 311,-89 311,-110 315,-90 315,-110 319,-90 319,-110 323,-91 324,-111 327,-92 328,-111 332,-92 333,-111 336,-91 337,-111 340,-91 341,-107 361,-111 382,-115 397,-124 397,-124 404,-135 406,-133 401,-133 405,-129 399,-132 403,-124 395,-129 401,-120 391,-127 399,-116 388,-125 396,-113 385,-123 392,-110 382,-121 389,-106 379,-119 386,-103 375,-118 383,-100 372,-117 380,-96 369,-117 376,-94 366,-116 371,-94 363,-115 367,-93 360,-115 363,-92 357,-114 358,-91 353,-113 354,-91 349,-113 349,-91 346,-112 345,-91 341,-112 341,-112 340,-91 340,-94 340,-91" /><polyline   points="113,-124 116,-124 113,-124 130,-126 148,-128 165,-130 182,-132 165,-130 182,-132 165,-130 148,-128 165,-130 148,-128 130,-126 148,-128 130,-126 113,-124 130,-126 113,-124 116,-124 113,-124" /><polyline   points="-113,-124 -116,-124 -113,-124 -130,-126 -146,-128 -163,-130 -180,-132 -163,-130 -180,-132 -163,-130 -146,-128 -163,-130 -146,-128 -130,-126 -146,-128 -130,-126 -113,-124 -130,-126 -113,-124 -116,-124 -113,-124" /></svg>