<svg viewBox="-425 -150 850 300" fill="none" stroke="black" stroke-width="4"><polyline class="left-eye" stroke="red" points="-285,-82 -282,-82 -285,-82 -265,-83 -246,-83 -226,-84 -206,-85 -187,-86 -167,-88 -148,-88 -128,-88 -128,-89 -127,-69 -125,-49 -127,-30 -129,-10 -133,10 -137,29 -142,48 -151,66 -162,82 -177,96 -194,106 -212,114 -232,117 -251,115 -271,111 -289,104 -304,91 -317,76 -327,59 -336,41 -340,22 -342,2 -344,-18 -327,-10 -308,-5 -293,-15 -280,-29 -275,-46 -277,-65 -285,-82 -275,-67 -266,-52 -256,-38 -246,-23 -237,-8 -227,7 -217,22 -231,36 -250,41 -270,46 -278,50 -283,59 -292,77 -302,94 -285,101 -269,108 -252,115 -258,110 -286,82 -315,54 -338,32 -340,17 -342,2 -339,4 -310,32 -282,60 -253,88 -223,116 -212,113 -201,110 -219,93 -248,65 -277,37 -305,10 -325,-9 -311,-6 -304,-6 -299,-11 -272,15 -243,43 -214,71 -184,100 -168,89 -181,76 -209,48 -238,21 -267,-7 -284,-24 -277,-32 -275,-42 -262,-29 -233,-2 -205,26 -176,54 -156,73 -151,64 -146,56 -171,32 -200,4 -228,-24 -257,-52 -281,-74 -285,-82 -268,-77 -250,-71 -233,-66 -216,-61 -199,-56 -181,-50 -173,-48 -165,-50 -152,-62 -139,-75 -128,-89 -127,-75 -126,-60 -147,-80 -155,-88 -168,-87 -182,-87 -151,-58 -126,-33 -128,-21 -129,-9 -156,-35 -185,-63 -208,-85 -221,-85 -235,-84 -219,-69 -190,-41 -161,-13 -134,13 -136,24 -139,35 -166,9 -195,-19 -224,-46 -252,-74 -261,-83 -285,-82 -304,-91 -301,-91 -304,-88 -295,-91 -301,-85 -288,-91 -298,-81 -294,-82 -282,-92 -284,-89 -295,-78 -276,-92 -292,-75 -282,-82 -269,-92 -272,-89 -290,-70 -263,-92 -280,-74 -288,-66 -270,-82 -257,-92 -260,-89 -286,-61 -278,-67 -250,-92 -268,-74 -285,-56 -258,-81 -244,-93 -248,-88 -276,-59 -285,-50 -266,-67 -237,-93 -256,-74 -285,-43 -274,-52 -246,-81 -231,-94 -236,-88 -264,-59 -289,-33 -293,-27 -304,-16 -315,-6 -326,4 -338,-7 -348,-21 -357,-35 -356,-34 -357,-33 -351,-32 -356,-28 -347,-30 -355,-22 -343,-28 -354,-17 -339,-26 -347,-17 -353,-11 -336,-23 -353,-5 -345,-10 -332,-20 -335,-17 -352,0 -328,-19 -343,-2 -351,6 -333,-9 -322,-18 -351,12 -341,5 -317,-17 -331,-2 -350,17 -322,-9 -310,-17 -339,13 -350,23 -329,6 -306,-18 -301,-21 -320,-1 -349,29 -348,30 -348,31 -337,20 -310,-9 -282,-37 -254,-66 -227,-94 -244,-73 -272,-44 -300,-16 -327,13 -347,37 -318,6 -290,-23 -262,-52 -234,-80 -221,-94 -224,-87 -252,-59 -280,-30 -308,-1 -335,28 -346,42 -325,21 -298,-8 -270,-37 -242,-66 -214,-95 -232,-73 -260,-44 -288,-15 -316,14 -344,46 -333,35 -306,6 -278,-22 -250,-51 -222,-80 -208,-95 -212,-87 -240,-58 -268,-29 -296,-1 -323,28 -342,51 -314,21 -286,-8 -258,-37 -230,-65 -201,-95 -220,-72 -248,-44 -276,-15 -304,14 -331,43 -340,55 -321,36 -294,7 -266,-22 -238,-51 -210,-79 -195,-96 -200,-87 -228,-58 -256,-29 -284,0 -312,29 -338,59 -329,50 -302,21 -274,-7 -246,-36 -218,-65 -190,-94 -188,-96 -208,-72 -236,-43 -264,-14 -292,14 -319,43 -336,63 -310,36 -282,7 -254,-22 -226,-50 -198,-79 -182,-96 -188,-86 -216,-57 -244,-29 -272,0 -300,29 -327,58 -333,67 -317,51 -290,22 -262,-7 -234,-36 -206,-64 -179,-93 -175,-97 -196,-72 -224,-43 -252,-14 -280,15 -308,44 -331,71 -325,65 -298,36 -270,8 -242,-21 -214,-50 -186,-79 -169,-97 -177,-86 -204,-57 -232,-28 -260,1 -288,29 -315,58 -329,75 -306,51 -278,22 -250,-7 -222,-35 -194,-64 -167,-93 -162,-97 -184,-71 -212,-42 -240,-14 -268,15 -296,44 -323,73 -327,79 -313,66 -286,37 -258,8 -230,-21 -202,-49 -174,-78 -156,-97 -165,-85 -192,-57 -220,-28 -248,1 -276,30 -303,59 -324,83 -321,80 -294,51 -266,23 -238,-6 -210,-35 -182,-64 -155,-92 -150,-97 -172,-71 -200,-42 -228,-13 -256,16 -284,44 -311,73 -321,86 -301,66 -274,37 -246,8 -218,-20 -190,-49 -163,-78 -144,-98 -153,-85 -180,-56 -208,-27 -236,1 -264,30 -292,59 -319,90 -309,81 -282,52 -254,23 -226,-6 -198,-35 -170,-63 -143,-92 -137,-98 -161,-70 -188,-42 -216,-13 -244,16 -272,45 -299,73 -316,93 -290,66 -262,38 -234,9 -206,-20 -178,-49 -151,-77 -131,-98 -141,-85 -168,-56 -196,-27 -224,2 -252,31 -280,59 -307,88 -313,97 -297,81 -270,52 -242,23 -214,-5 -186,-34 -159,-63 -131,-92 -125,-98 -149,-70 -176,-41 -204,-12 -232,16 -260,45 -288,74 -310,100 -305,96 -278,67 -250,38 -222,9 -194,-20 -166,-48 -139,-77 -118,-98 -129,-84 -157,-55 -184,-27 -212,2 -240,31 -268,60 -295,88 -306,103 -286,81 -258,53 -230,24 -202,-5 -174,-34 -147,-62 -117,-93 -137,-70 -164,-41 -192,-12 -220,17 -248,46 -276,74 -303,106 -293,96 -266,67 -238,38 -210,10 -182,-19 -155,-48 -127,-77 -118,-86 -145,-55 -172,-26 -200,3 -228,31 -256,60 -284,89 -299,108 -274,82 -246,53 -218,24 -190,-5 -162,-33 -135,-62 -117,-80 -125,-69 -153,-40 -180,-12 -208,17 -236,46 -264,75 -291,103 -296,111 -282,96 -254,68 -226,39 -198,10 -170,-19 -143,-47 -117,-74 -133,-55 -160,-26 -188,3 -216,32 -244,61 -272,89 -292,114 -289,111 -262,82 -234,53 -206,25 -178,-4 -151,-33 -123,-62 -116,-68 -141,-40 -168,-11 -196,18 -224,46 -252,75 -280,104 -288,116 -270,97 -242,68 -214,39 -186,10 -158,-18 -131,-47 -116,-62 -121,-54 -149,-25 -176,3 -204,32 -232,61 -260,90 -283,117 -278,111 -250,83 -222,54 -194,25 -166,-4 -139,-32 -115,-56 -129,-40 -156,-11 -184,18 -212,47 -240,76 -268,104 -279,119 -258,97 -230,68 -202,40 -174,11 -147,-18 -119,-47 -115,-50 -137,-25 -164,4 -192,33 -220,61 -248,90 -274,121 -266,112 -238,83 -210,54 -182,25 -154,-3 -127,-32 -115,-44 -145,-10 -172,18 -200,47 -228,76 -256,105 -270,122 -246,98 -218,69 -190,40 -162,11 -135,-17 -116,-37 -125,-25 -152,4 -180,33 -208,62 -236,91 -264,119 -264,123 -254,112 -226,83 -198,55 -170,26 -143,-3 -116,-30 -133,-10 -160,19 -188,48 -216,76 -244,105 -259,124 -234,98 -206,69 -178,40 -150,12 -123,-17 -117,-23 -140,5 -168,33 -196,62 -224,91 -252,120 -254,125 -242,113 -214,84 -186,55 -158,26 -131,-2 -118,-16 -121,-10 -148,19 -176,48 -204,77 -232,106 -249,126 -222,98 -194,70 -166,41 -138,12 -119,-8 -129,5 -156,34 -184,63 -212,91 -240,120 -243,127 -230,113 -202,84 -174,55 -146,27 -120,-1 -136,20 -164,48 -192,77 -220,106 -237,127 -210,99 -182,70 -154,41 -127,13 -122,7 -144,34 -172,63 -200,92 -228,121 -231,127 -218,113 -190,85 -162,56 -134,27 -123,15 -152,49 -180,78 -208,106 -225,127 -198,99 -170,70 -142,42 -125,23 -132,35 -160,63 -188,92 -216,121 -218,126 -206,114 -178,85 -150,56 -127,32 -140,49 -168,78 -196,107 -210,124 -186,100 -158,71 -130,41 -148,64 -176,93 -201,121 -194,114 -166,85 -138,57 -133,51 -135,57 -156,78 -184,107 -196,119 -189,116 -174,100 -146,71 -138,63 -141,69 -164,93 -183,113 -174,106 -154,86 -145,76 -152,85 -159,94 -157,92 -159,94" /><polyline class="right-eye" stroke="red" points="129,-8 127,-10 129,-8 120,-15 136,-9 154,-8 170,-13 185,-23 191,-29 194,-37 197,-54 194,-71 186,-87 203,-85 221,-84 239,-83 258,-83 276,-82 294,-82 312,-81 330,-81 348,-80 346,-60 345,-40 343,-20 341,-1 338,19 333,38 325,56 316,74 303,89 288,102 270,110 251,114 231,116 211,115 192,108 175,98 161,85 150,68 141,50 135,31 131,12 129,-8 136,9 143,26 150,43 156,60 163,77 170,94 170,94 167,91 158,82 150,64 142,47 135,29 145,40 174,68 202,97 221,115 235,115 249,114 236,102 208,73 180,45 151,17 129,-5 129,-8 120,-15 129,-8 147,-5 166,-1 184,2 203,6 221,9 239,13 257,14 270,1 283,-13 296,-26 309,-40 322,-53 335,-67 348,-80 347,-66 346,-53 320,-78 318,-81 303,-81 287,-82 314,-55 344,-26 342,-12 341,1 336,-4 308,-32 280,-60 257,-83 242,-83 227,-84 245,-66 273,-37 302,-9 330,19 336,26 333,37 329,48 324,42 296,14 267,-14 239,-42 211,-71 197,-85 186,-87 198,-54 204,-48 233,-19 261,9 289,37 320,68 313,76 307,85 283,60 255,32 227,4 198,-24 192,-31 184,-24 177,-17 192,-1 220,27 249,55 277,84 293,99 283,104 273,109 271,107 243,78 214,50 186,22 158,-6 155,-9 139,-9 124,-13 129,-8 115,-27 115,-31 117,-30 115,-28 120,-27 116,-23 124,-25 118,-18 128,-22 118,-13 127,-18 132,-21 119,-7 137,-19 129,-11 120,-1 143,-18 120,4 131,-3 148,-17 141,-10 121,10 156,-18 133,5 122,15 143,-2 159,-19 165,-22 153,-9 122,21 123,24 134,12 163,-16 171,-24 177,-29 190,-41 202,-54 211,-68 199,-80 183,-88 167,-96 173,-96 167,-90 179,-96 170,-87 185,-95 180,-90 174,-84 191,-95 177,-81 182,-82 197,-95 192,-89 180,-77 203,-95 182,-73 194,-82 209,-94 204,-89 184,-69 215,-94 195,-74 186,-64 205,-81 221,-94 216,-88 187,-60 197,-67 228,-94 207,-73 188,-54 217,-80 234,-93 228,-87 199,-59 187,-47 209,-66 240,-93 219,-73 191,-45 183,-37 171,-24 159,-11 147,1 135,14 123,26 145,5 173,-23 201,-51 229,-80 246,-93 239,-87 211,-58 183,-30 155,-2 126,27 124,29 136,20 165,-9 193,-37 221,-65 252,-93 231,-72 203,-44 175,-16 146,13 126,34 156,6 185,-22 213,-51 241,-79 258,-92 251,-86 223,-58 195,-29 167,-1 138,27 127,38 148,20 177,-8 205,-36 233,-65 264,-92 243,-72 215,-43 187,-15 158,13 128,43 140,35 168,6 197,-22 225,-50 253,-78 270,-92 263,-85 235,-57 207,-29 179,0 150,28 130,48 133,48 160,21 189,-7 217,-36 245,-64 276,-92 255,-71 227,-43 199,-14 170,14 142,42 132,53 152,35 180,7 209,-21 237,-50 265,-78 282,-91 275,-85 247,-56 219,-28 190,0 162,28 134,57 144,50 172,22 201,-7 229,-35 257,-63 288,-91 267,-70 239,-42 211,-14 182,15 154,43 135,61 164,36 192,8 221,-21 249,-49 277,-77 294,-91 287,-84 259,-56 231,-27 202,1 174,29 146,57 137,66 156,50 184,22 212,-6 241,-34 269,-63 300,-91 279,-70 251,-41 223,-13 194,15 166,44 139,70 148,65 176,37 204,8 233,-20 261,-48 289,-77 307,-91 299,-83 271,-55 243,-27 214,1 186,30 158,58 142,74 168,51 196,23 224,-5 253,-34 281,-62 313,-91 291,-69 263,-41 234,-12 206,16 178,44 150,72 144,78 160,66 188,37 216,9 245,-19 273,-48 301,-76 319,-91 311,-83 283,-55 255,-26 226,2 198,30 170,59 147,82 152,80 180,52 208,23 236,-5 265,-33 293,-61 325,-91 303,-68 275,-40 246,-12 218,17 190,45 162,73 149,86 172,66 200,38 228,10 256,-19 285,-47 313,-75 331,-90 323,-82 295,-54 267,-26 238,3 210,31 182,59 152,89 163,81 192,52 220,24 248,-4 277,-32 305,-61 338,-90 315,-68 287,-39 258,-11 230,17 202,45 174,74 155,92 184,67 212,39 240,10 268,-18 297,-46 325,-75 344,-90 335,-82 307,-53 279,-25 250,3 222,32 194,60 165,88 158,96 175,81 204,53 232,25 260,-4 289,-32 317,-60 350,-90 327,-67 299,-39 270,-10 242,18 214,46 185,74 161,99 167,96 196,67 224,39 252,11 280,-17 309,-46 337,-74 356,-90 347,-81 319,-53 290,-24 262,4 234,32 206,61 177,89 164,102 187,82 216,54 244,25 272,-3 301,-31 329,-59 359,-86 339,-66 311,-38 282,-10 254,18 226,47 197,75 168,105 179,96 207,68 236,40 264,12 292,-17 321,-45 349,-73 358,-80 331,-52 302,-24 274,5 246,33 218,61 189,89 171,107 199,83 228,54 256,26 284,-2 312,-31 341,-59 358,-73 351,-66 323,-37 294,-9 266,19 238,47 209,76 181,104 175,110 191,97 219,69 248,40 276,12 304,-16 333,-44 357,-66 343,-51 314,-23 286,5 258,34 230,62 201,90 178,113 183,111 211,83 240,55 268,27 296,-2 324,-30 353,-58 357,-59 334,-37 306,-9 278,20 250,48 221,76 193,105 183,115 203,98 231,69 260,41 288,13 316,-15 345,-44 357,-53 326,-22 298,6 270,34 241,62 213,91 187,117 195,112 223,84 252,56 280,27 308,-1 336,-29 356,-46 346,-36 318,-8 290,20 262,49 233,77 205,105 191,119 215,98 243,70 272,42 300,13 328,-15 356,-39 338,-22 310,7 282,35 253,63 225,91 195,121 207,113 235,84 263,56 292,28 320,0 348,-29 355,-32 330,-7 302,21 274,49 245,78 217,106 200,122 227,99 255,71 284,42 312,14 340,-14 354,-25 350,-21 322,7 294,35 265,64 237,92 209,120 205,124 219,113 247,85 275,57 304,29 332,0 353,-18 342,-7 314,22 285,50 257,78 229,106 211,125 239,100 267,71 296,43 324,15 353,-11 334,8 306,36 277,64 249,93 221,121 216,125 231,114 259,86 287,57 316,29 344,1 352,-4 326,22 297,51 269,79 241,107 222,126 251,100 279,72 307,44 336,15 351,3 346,8 318,37 289,65 261,93 233,122 228,126 243,115 271,86 299,58 328,30 350,11 338,23 309,51 281,79 253,108 235,126 263,101 291,73 319,44 349,18 329,37 301,66 273,94 245,122 242,125 255,115 283,87 311,59 340,30 347,26 321,52 293,80 265,108 249,124 275,101 303,73 331,45 344,35 341,38 313,66 285,95 256,124 267,116 295,88 323,59 342,44 333,52 305,81 277,109 263,123 287,102 315,74 340,49 338,54 325,67 297,95 271,121 279,117 307,88 336,59 332,66 317,81 289,110 280,118 286,116 299,103 328,73 322,82 309,96 292,112 308,100 309,99 308,99 308,100" /><polyline  stroke="white" points="-307,-83 -306,-80 -307,-83 -299,-65 -296,-56 -298,-46 -310,-32 -320,-30 -329,-32 -343,-46 -341,-65 -326,-77 -307,-83 -320,-72 -332,-60 -345,-49 -345,-49 -341,-65 -328,-76 -328,-48 -328,-32 -312,-31 -312,-60 -312,-82 -307,-83 -301,-67 -295,-52 -295,-52 -295,-52 -307,-83 -323,-86 -315,-86 -315,-86 -312,-86 -325,-86 -333,-84 -301,-82 -327,-82 -336,-82 -315,-80 -296,-78 -303,-78 -342,-78 -331,-76 -292,-74 -319,-74 -347,-74 -307,-72 -289,-70 -295,-70 -335,-70 -350,-70 -323,-68 -287,-66 -311,-66 -353,-66 -339,-64 -299,-64 -285,-62 -327,-62 -354,-62 -315,-60 -284,-58 -303,-58 -343,-58 -355,-58 -331,-56 -291,-56 -283,-54 -319,-54 -356,-54 -347,-52 -307,-52 -283,-50 -295,-50 -335,-50 -356,-50 -323,-48 -284,-46 -311,-46 -351,-46 -355,-46 -339,-44 -299,-44 -286,-42 -327,-42 -355,-42 -315,-40 -288,-38 -303,-38 -343,-38 -352,-38 -331,-36 -290,-34 -319,-34 -349,-34 -344,-32 -307,-32 -294,-30 -335,-30 -345,-30 -323,-28 -298,-26 -311,-26 -340,-26 -305,-22 -327,-22 -332,-22 -320,-20 -317,-20 -316,-20 -320,-20" /><polyline  stroke="white" points="162,-85 164,-83 162,-85 173,-71 180,-55 172,-39 156,-32 147,-32 140,-37 128,-51 132,-68 145,-80 162,-85 151,-74 139,-62 128,-51 128,-51 135,-64 141,-77 141,-48 141,-36 154,-32 154,-60 154,-83 162,-85 171,-70 180,-55 173,-45 167,-36 167,-72 167,-79 162,-85 153,-90 159,-90 159,-90 162,-90 149,-90 162,-90 169,-88 141,-88 153,-86 176,-84 165,-84 134,-84 137,-82 181,-80 149,-80 129,-80 161,-78 184,-76 173,-76 133,-76 125,-76 145,-74 187,-72 157,-72 122,-72 129,-70 169,-70 189,-68 181,-68 141,-68 120,-68 153,-66 191,-64 165,-64 125,-64 119,-64 137,-62 177,-62 192,-60 149,-60 117,-60 121,-58 161,-58 192,-56 173,-56 133,-56 117,-56 145,-54 185,-54 192,-52 157,-52 117,-52 129,-50 169,-50 190,-48 181,-48 141,-48 118,-48 153,-46 188,-44 165,-44 125,-44 119,-44 137,-42 177,-42 186,-40 149,-40 122,-40 161,-38 185,-36 173,-36 133,-36 124,-36 145,-34 181,-32 157,-32 128,-32 169,-30 176,-28 141,-28 134,-28 153,-26 169,-24 165,-24 142,-24 157,-22 158,-22 160,-22 155,-22 157,-22 155,-22 157,-22" /><polyline class="left-outline"  points="-355,-85 -355,-85 -352,-81 -367,-83 -365,-65 -364,-47 -354,-33 -344,-19 -363,-29 -360,-10 -358,8 -355,27 -348,43 -342,58 -335,74 -323,89 -311,104 -291,118 -275,123 -259,128 -238,128 -216,128 -201,123 -185,118 -163,102 -151,87 -140,71 -132,55 -125,38 -120,17 -115,-4 -113,-26 -111,-48 -109,-70 -108,-92 -120,-93 -124,-96 -102,-97 -125,-93 -103,-92 -125,-91 -103,-88 -125,-88 -103,-83 -126,-83 -104,-79 -126,-79 -104,-75 -126,-74 -104,-70 -127,-70 -105,-66 -127,-65 -105,-61 -128,-61 -106,-57 -128,-57 -106,-52 -128,-52 -106,-48 -129,-48 -107,-44 -129,-43 -107,-39 -130,-39 -107,-35 -130,-34 -108,-30 -130,-30 -108,-26 -131,-26 -109,-21 -131,-22 -109,-17 -131,-17 -109,-13 -132,-13 -110,-8 -132,-9 -110,-4 -133,-5 -111,1 -133,-1 -112,5 -133,3 -113,9 -134,7 -114,14 -136,11 -115,18 -137,15 -116,22 -138,19 -117,27 -139,23 -118,31 -140,26 -119,35 -141,30 -120,40 -142,34 -122,44 -143,38 -124,48 -144,42 -125,52 -146,46 -127,56 -148,49 -129,60 -150,52 -131,64 -151,56 -133,68 -153,59 -135,72 -155,62 -137,76 -157,66 -140,80 -159,69 -142,83 -161,72 -145,87 -164,75 -148,90 -166,78 -150,94 -168,81 -153,97 -171,84 -156,101 -173,87 -159,104 -175,90 -162,107 -178,92 -165,110 -181,94 -169,113 -184,95 -173,115 -187,97 -176,118 -190,99 -180,120 -193,101 -184,123 -196,103 -188,124 -199,105 -192,126 -202,107 -196,127 -205,107 -201,128 -209,108 -205,130 -212,109 -209,131 -216,109 -213,132 -219,110 -218,133 -223,110 -222,133 -227,111 -227,133 -230,111 -231,133 -234,112 -235,133 -238,113 -240,133 -242,113 -244,133 -245,112 -249,133 -249,112 -253,133 -253,111 -258,133 -256,110 -262,133 -260,110 -266,131 -263,109 -271,130 -267,109 -275,129 -270,108 -279,127 -274,106 -283,126 -277,104 -288,124 -280,103 -292,123 -283,101 -296,121 -286,100 -299,118 -289,98 -303,116 -292,97 -307,113 -295,95 -310,111 -297,92 -314,108 -300,89 -317,105 -302,86 -320,101 -305,84 -322,98 -307,81 -325,94 -309,78 -328,91 -312,76 -331,87 -314,73 -334,84 -317,70 -336,80 -319,67 -339,77 -321,63 -341,73 -323,60 -343,69 -325,57 -344,64 -326,53 -346,60 -328,50 -348,56 -330,46 -350,52 -331,43 -351,48 -332,39 -353,44 -333,35 -355,40 -334,31 -356,36 -335,27 -358,32 -336,23 -360,27 -337,19 -361,23 -338,15 -361,19 -339,11 -362,14 -340,7 -363,10 -341,4 -363,5 -342,0 -364,1 -342,-3 -365,-3 -343,-7 -366,-8 -344,-11 -366,-12 -345,-15 -367,-17 -344,-19 -367,-21 -342,-23 -368,-25 -341,-27 -368,-30 -340,-31 -368,-34 -339,-35 -368,-39 -338,-39 -369,-43 -340,-43 -369,-48 -342,-47 -369,-52 -342,-50 -369,-57 -342,-53 -370,-62 -342,-55 -370,-66 -342,-57 -370,-71 -342,-59 -370,-77 -341,-60 -371,-82 -340,-61 -368,-85 -339,-62 -361,-85 -338,-64 -338,-64 -355,-85 -352,-81 -330,-82 -309,-83 -298,-86 -288,-79 -279,-64 -279,-49 -288,-25 -301,-14 -318,-10 -344,-19 -345,-14 -338,-41 -343,-13 -334,-37 -339,-12 -331,-33 -336,-11 -329,-31 -331,-10 -326,-30 -327,-8 -323,-30 -323,-7 -320,-30 -319,-6 -318,-29 -314,-6 -316,-29 -310,-7 -314,-30 -306,-8 -312,-31 -302,-9 -310,-32 -297,-11 -308,-33 -294,-14 -306,-34 -290,-16 -304,-35 -287,-19 -302,-36 -284,-22 -301,-38 -282,-27 -300,-40 -280,-31 -299,-42 -278,-35 -298,-44 -277,-39 -297,-46 -275,-43 -296,-48 -274,-47 -296,-51 -274,-52 -296,-53 -274,-56 -297,-55 -274,-61 -297,-57 -275,-65 -298,-59 -277,-69 -298,-61 -279,-73 -298,-63 -281,-77 -299,-65 -283,-81 -301,-66 -286,-84 -302,-67 -290,-86 -304,-69 -294,-89 -306,-70 -298,-90 -308,-72 -304,-89 -310,-74 -309,-88 -313,-74 -313,-87 -316,-75 -318,-87 -320,-75 -322,-87 -323,-75 -327,-87 -327,-74 -331,-86 -330,-73 -336,-86 -332,-71 -340,-86 -334,-69 -345,-86 -336,-67 -350,-85 -337,-65 -355,-85 -353,-83 -355,-85 -344,-74 -344,-74 -344,-79 -336,-82 -316,-83 -297,-84 -278,-84 -258,-85 -239,-86 -220,-87 -200,-87 -181,-88 -162,-89 -142,-90 -123,-90 -104,-91 -88,-100 -88,-100 -83,-104 -82,-97 -87,-104 -86,-95 -90,-105 -90,-93 -94,-105 -94,-91 -98,-106 -98,-88 -103,-106 -103,-87 -107,-107 -107,-86 -111,-107 -112,-86 -115,-108 -116,-86 -120,-108 -120,-85 -124,-107 -125,-85 -128,-107 -129,-85 -132,-107 -134,-85 -137,-107 -138,-85 -141,-107 -142,-85 -145,-106 -147,-84 -150,-106 -151,-84 -154,-106 -156,-84 -159,-106 -160,-84 -163,-106 -165,-84 -168,-105 -169,-84 -172,-105 -173,-83 -177,-105 -178,-83 -181,-105 -182,-83 -185,-105 -187,-83 -190,-104 -191,-83 -194,-104 -196,-83 -199,-104 -200,-82 -203,-104 -204,-82 -208,-104 -209,-82 -212,-103 -213,-82 -217,-103 -218,-82 -221,-103 -222,-81 -225,-103 -227,-81 -230,-102 -231,-81 -234,-102 -236,-81 -239,-102 -240,-81 -243,-102 -244,-81 -248,-102 -249,-80 -252,-101 -253,-80 -256,-101 -258,-80 -261,-101 -262,-80 -265,-101 -267,-80 -270,-101 -271,-80 -274,-100 -276,-79 -279,-100 -280,-79 -283,-100 -284,-79 -288,-100 -289,-79 -292,-100 -293,-79 -296,-99 -298,-79 -301,-99 -302,-78 -305,-99 -307,-78 -310,-99 -311,-78 -314,-98 -315,-78 -319,-98 -319,-78 -323,-98 -323,-78 -328,-98 -328,-77 -332,-98 -332,-77 -336,-97 -336,-77 -341,-97 -340,-75 -345,-97 -345,-97 -344,-74 -344,-79 -369,-66 -386,-71 -407,-90 -407,-90 -419,-106 -417,-111 -418,-104 -412,-108 -416,-100 -408,-106 -414,-96 -404,-104 -412,-91 -401,-102 -410,-87 -397,-101 -407,-84 -393,-100 -404,-81 -390,-99 -401,-78 -387,-98 -397,-74 -385,-97 -394,-71 -382,-96 -390,-68 -380,-96 -386,-66 -378,-95 -382,-65 -375,-96 -378,-64 -372,-96 -373,-62 -370,-96 -369,-62 -367,-96 -365,-63 -364,-96 -360,-65 -361,-96 -356,-67 -358,-96 -352,-70 -354,-97 -348,-72 -350,-97 -344,-74 -345,-77 -344,-74" /><polyline class="right-outline"  points="354,-81 357,-81 354,-81 354,-81 369,-79 364,-79 362,-60 361,-41 359,-22 358,-3 353,15 348,33 344,51 334,68 324,86 311,99 298,113 277,123 262,127 247,130 227,129 207,128 189,120 172,113 153,96 141,76 128,56 123,36 118,16 112,-4 110,-33 129,-23 119,-39 109,-55 107,-70 105,-85 110,-94 126,-88 131,-91 154,-91 177,-91 192,-74 196,-57 191,-40 178,-24 156,-16 130,-23 130,-23 127,-19 137,-42 129,-18 139,-40 134,-17 141,-39 138,-16 144,-37 142,-15 147,-35 146,-13 150,-34 151,-12 152,-35 155,-11 155,-35 160,-12 157,-35 164,-13 160,-36 168,-15 162,-36 172,-16 165,-36 176,-18 166,-38 180,-20 168,-39 184,-23 169,-41 187,-26 171,-43 189,-30 173,-44 192,-33 174,-46 195,-37 176,-48 196,-41 176,-50 197,-45 176,-52 199,-49 176,-54 200,-54 176,-57 200,-58 176,-59 199,-63 176,-61 199,-67 177,-63 198,-71 176,-65 196,-75 175,-66 194,-79 174,-68 191,-83 173,-70 188,-86 172,-72 185,-89 170,-74 182,-93 168,-75 178,-95 166,-76 173,-95 164,-78 168,-95 162,-79 164,-95 159,-79 159,-95 156,-80 155,-95 153,-80 150,-95 150,-80 146,-95 146,-79 141,-95 143,-78 137,-95 141,-76 132,-96 139,-74 128,-95 138,-73 122,-96 137,-71 115,-98 136,-70 110,-98 135,-69 105,-96 134,-68 103,-92 133,-68 102,-88 132,-66 102,-82 132,-65 102,-77 132,-63 102,-72 132,-61 103,-67 132,-59 103,-63 131,-57 103,-58 131,-55 104,-54 132,-50 104,-49 134,-46 104,-45 136,-42 105,-40 135,-38 105,-36 133,-34 105,-31 131,-29 106,-27 130,-25 106,-22 128,-20 106,-18 128,-16 107,-14 128,-12 107,-9 129,-8 107,-5 130,-5 108,0 130,-2 109,4 131,2 110,8 132,6 111,13 132,10 113,17 133,14 114,21 134,18 115,25 135,22 116,30 136,26 117,34 138,30 118,38 139,34 120,43 141,37 121,47 142,41 122,51 144,44 123,56 145,48 125,60 147,52 127,63 148,55 130,67 150,59 132,71 152,62 134,75 155,65 137,79 157,68 139,82 159,71 141,86 161,74 144,90 164,77 146,94 166,80 149,97 168,84 152,101 170,86 155,104 172,89 158,107 175,91 161,110 178,94 165,113 180,96 168,116 183,98 172,118 186,100 176,120 188,102 180,122 191,104 184,123 195,105 188,125 198,106 192,127 201,107 196,128 205,108 200,130 208,109 205,132 212,110 209,133 215,111 213,133 219,112 218,133 223,112 222,133 227,112 227,134 230,112 231,134 234,112 236,134 237,112 240,134 241,112 245,135 245,112 249,134 248,112 253,133 252,112 258,133 256,111 262,132 259,109 266,131 263,108 271,130 266,107 275,129 269,106 279,128 272,104 283,126 275,103 287,124 279,102 291,122 282,101 295,120 285,99 299,118 288,98 303,115 291,95 306,112 293,93 309,109 296,90 312,105 298,88 315,102 300,85 319,99 303,83 322,96 305,80 325,93 308,77 328,89 311,74 330,86 313,71 332,82 315,67 334,78 317,64 337,74 319,61 339,70 320,58 341,66 322,55 343,62 324,51 345,58 325,47 347,54 326,44 349,50 328,40 350,46 329,36 351,42 330,32 352,37 331,28 353,33 333,24 355,29 334,21 356,24 335,17 357,20 336,13 358,16 338,9 359,11 339,5 360,7 340,1 361,3 340,-3 362,-1 340,-7 363,-6 341,-11 363,-10 341,-15 364,-15 341,-19 364,-19 342,-24 365,-24 342,-28 365,-28 343,-32 365,-32 343,-37 366,-37 343,-41 366,-41 344,-45 366,-46 344,-50 367,-50 345,-54 367,-55 345,-59 367,-59 345,-63 368,-63 346,-68 368,-68 346,-72 368,-72 347,-76 369,-77 369,-79 369,-79 354,-81 357,-81 354,-81 347,-73 348,-76 347,-73 348,-78 338,-82 318,-83 299,-84 280,-84 260,-85 241,-86 222,-87 202,-87 183,-88 164,-89 144,-90 125,-90 106,-91 83,-101 82,-98 85,-104 85,-97 90,-105 89,-94 93,-105 93,-92 97,-105 98,-90 102,-106 102,-88 106,-106 106,-86 110,-107 111,-86 114,-107 115,-86 119,-108 119,-86 123,-108 124,-85 127,-107 128,-85 131,-107 133,-85 136,-107 137,-85 140,-107 141,-85 144,-107 146,-85 149,-106 150,-84 153,-106 155,-84 158,-106 159,-84 162,-106 163,-84 167,-106 168,-84 171,-105 172,-84 175,-105 177,-83 180,-105 181,-83 184,-105 186,-83 189,-105 190,-83 193,-104 195,-83 198,-104 199,-82 202,-104 203,-82 207,-104 208,-82 211,-103 212,-82 215,-103 217,-82 220,-103 221,-82 224,-103 226,-81 229,-103 230,-81 233,-102 235,-81 238,-102 239,-81 242,-102 243,-81 247,-102 248,-81 251,-102 252,-80 255,-101 257,-80 260,-101 261,-80 264,-101 266,-80 269,-101 270,-80 273,-101 274,-80 278,-100 279,-79 282,-100 283,-79 286,-100 288,-79 291,-100 292,-79 295,-99 297,-79 300,-99 301,-79 304,-99 306,-78 309,-99 310,-78 313,-99 314,-78 318,-98 319,-78 322,-98 323,-78 326,-98 327,-78 331,-98 331,-77 335,-98 335,-77 340,-97 339,-76 344,-97 343,-74 349,-97 347,-73 352,-92 367,-91 382,-91 406,-98 406,-98 419,-111 420,-105 415,-109 419,-101 412,-106 417,-97 408,-104 415,-93 404,-102 413,-88 400,-101 410,-85 397,-100 407,-82 393,-99 404,-79 390,-98 400,-75 387,-97 397,-72 385,-97 393,-69 383,-96 389,-67 380,-95 385,-65 378,-96 381,-64 375,-96 377,-63 372,-96 372,-62 370,-96 368,-63 367,-96 363,-65 364,-96 359,-67 361,-96 355,-69 357,-97 351,-71 353,-97 353,-97 347,-73 348,-76 347,-73" /><polyline   points="-195,-129 -192,-129 -195,-129 -177,-130 -160,-131 -142,-133 -125,-134 -142,-133 -125,-134 -142,-133 -160,-131 -142,-133 -160,-131 -177,-130 -160,-131 -177,-130 -195,-129 -177,-130 -195,-129 -192,-129 -195,-129" /><polyline   points="187,-129 184,-129 187,-129 170,-130 152,-131 135,-133 117,-134 135,-133 117,-134 135,-133 152,-131 135,-133 152,-131 170,-130 152,-131 170,-130 187,-129 170,-130 187,-129 184,-129 187,-129" /></svg>