<svg viewBox="-425 -150 850 300" fill="none" stroke="black" stroke-width="4"><polyline class="left-eye" stroke="red" points="-333,-24 -330,-23 -333,-24 -315,-18 -297,-20 -281,-30 -270,-45 -269,-64 -274,-82 -287,-96 -270,-90 -251,-89 -232,-87 -213,-87 -195,-86 -176,-84 -158,-81 -139,-77 -121,-73 -119,-53 -118,-34 -120,-14 -123,5 -125,24 -130,44 -137,62 -148,78 -162,92 -176,105 -194,113 -213,118 -232,119 -252,115 -270,109 -286,98 -301,85 -313,70 -323,53 -329,35 -332,15 -333,-4 -333,-24 -328,-6 -324,11 -319,29 -314,46 -310,64 -305,81 -282,102 -254,115 -262,106 -290,77 -317,48 -329,34 -331,22 -332,10 -315,29 -288,58 -260,88 -233,117 -231,119 -212,118 -231,99 -258,69 -285,40 -313,11 -333,-11 -333,-24 -319,-12 -305,0 -291,11 -277,23 -262,35 -248,47 -232,38 -224,34 -221,25 -217,7 -213,-11 -200,-24 -184,-33 -168,-43 -153,-53 -137,-63 -121,-73 -120,-61 -119,-50 -121,-53 -145,-78 -157,-81 -169,-83 -151,-64 -124,-34 -119,-29 -121,-11 -126,-16 -153,-45 -180,-74 -191,-86 -201,-86 -211,-87 -182,-56 -155,-27 -128,2 -123,7 -125,26 -130,21 -157,-8 -184,-38 -212,-67 -230,-87 -241,-88 -251,-89 -241,-78 -214,-49 -187,-19 -159,10 -132,39 -129,42 -135,57 -161,28 -189,-1 -216,-30 -243,-59 -272,-90 -286,-95 -275,-84 -287,-96 -275,-84 -269,-66 -245,-41 -218,-12 -191,17 -164,47 -142,69 -151,81 -166,65 -193,36 -220,7 -247,-23 -270,-47 -277,-34 -250,-4 -222,25 -195,54 -168,83 -161,91 -171,101 -197,73 -224,43 -252,14 -279,-15 -288,-25 -302,-19 -281,3 -254,33 -227,62 -199,91 -183,108 -197,114 -201,109 -229,80 -256,51 -283,22 -311,-8 -321,-19 -333,-24 -338,-35 -339,-34 -336,-34 -339,-31 -332,-32 -339,-26 -329,-31 -340,-20 -338,-20 -325,-29 -328,-27 -341,-15 -321,-28 -337,-13 -341,-9 -327,-20 -317,-26 -341,-4 -336,-6 -313,-25 -326,-13 -341,0 -316,-20 -308,-25 -335,0 -341,5 -325,-7 -302,-26 -315,-13 -340,10 -335,7 -305,-20 -295,-28 -297,-26 -325,0 -340,15 -340,17 -315,-7 -289,-30 -283,-34 -273,-47 -263,-59 -252,-72 -267,-84 -285,-90 -303,-97 -300,-97 -302,-96 -295,-97 -299,-94 -289,-98 -296,-91 -283,-98 -293,-89 -278,-98 -282,-95 -290,-87 -273,-98 -288,-84 -281,-88 -268,-97 -271,-95 -285,-81 -263,-97 -280,-81 -283,-79 -270,-88 -258,-97 -260,-95 -281,-75 -253,-97 -269,-81 -279,-72 -259,-88 -248,-96 -278,-68 -268,-75 -243,-96 -258,-81 -277,-64 -248,-88 -238,-96 -268,-68 -276,-60 -258,-75 -233,-95 -248,-81 -276,-55 -267,-61 -238,-88 -228,-95 -257,-68 -277,-49 -247,-75 -223,-95 -237,-82 -266,-54 -279,-43 -282,-37 -256,-61 -227,-88 -217,-95 -246,-68 -275,-41 -305,-14 -334,14 -340,20 -324,7 -295,-20 -265,-48 -236,-75 -212,-95 -226,-82 -255,-54 -285,-27 -314,0 -339,24 -333,20 -304,-7 -275,-34 -245,-61 -216,-89 -207,-95 -235,-68 -264,-41 -294,-14 -323,14 -339,28 -313,7 -284,-20 -254,-48 -225,-75 -202,-95 -215,-82 -244,-55 -274,-27 -303,0 -332,27 -338,32 -322,20 -293,-7 -264,-34 -234,-61 -205,-89 -196,-95 -224,-68 -254,-41 -283,-14 -312,14 -337,37 -331,34 -302,7 -273,-21 -244,-48 -214,-75 -192,-94 -204,-82 -234,-55 -263,-27 -292,0 -321,27 -336,41 -311,20 -282,-7 -253,-34 -224,-62 -194,-89 -187,-93 -214,-68 -243,-41 -272,-14 -301,13 -331,41 -335,45 -321,34 -291,7 -262,-21 -233,-48 -204,-75 -182,-93 -194,-82 -223,-55 -252,-28 -281,0 -311,27 -334,49 -330,47 -301,20 -271,-7 -242,-34 -213,-62 -184,-89 -177,-92 -203,-69 -232,-41 -261,-14 -291,13 -320,41 -333,53 -310,34 -281,6 -251,-21 -222,-48 -193,-75 -173,-92 -183,-82 -212,-55 -241,-28 -271,0 -300,27 -329,54 -331,56 -319,47 -290,20 -261,-7 -231,-35 -202,-62 -173,-89 -168,-91 -192,-69 -221,-41 -251,-14 -280,13 -309,40 -330,60 -299,34 -270,6 -240,-21 -211,-48 -182,-76 -163,-90 -172,-82 -201,-55 -230,-28 -260,-1 -289,27 -318,54 -328,63 -308,47 -279,20 -250,-7 -220,-35 -191,-62 -159,-90 -181,-69 -210,-42 -240,-14 -269,13 -298,40 -326,66 -317,61 -288,33 -259,6 -230,-21 -200,-48 -171,-76 -155,-89 -161,-83 -190,-55 -220,-28 -249,-1 -278,27 -307,54 -325,70 -297,47 -268,20 -239,-8 -210,-35 -180,-62 -151,-88 -170,-69 -200,-42 -229,-14 -258,13 -287,40 -317,67 -323,73 -307,61 -277,33 -248,6 -219,-21 -190,-49 -160,-76 -146,-87 -150,-83 -180,-55 -209,-28 -238,-1 -267,26 -297,54 -320,76 -316,74 -287,47 -257,20 -228,-8 -199,-35 -170,-62 -142,-86 -160,-69 -189,-42 -218,-15 -247,13 -277,40 -306,67 -318,79 -296,60 -267,33 -237,6 -208,-21 -179,-49 -150,-76 -138,-85 -169,-56 -198,-28 -227,-1 -257,26 -286,54 -316,82 -305,74 -276,47 -247,19 -217,-8 -188,-35 -159,-62 -133,-84 -149,-69 -178,-42 -207,-15 -237,13 -266,40 -295,67 -314,85 -285,60 -256,33 -227,6 -197,-22 -168,-49 -139,-76 -129,-83 -158,-56 -187,-28 -216,-1 -246,26 -275,53 -304,81 -312,88 -294,74 -265,47 -236,19 -206,-8 -177,-35 -148,-63 -124,-82 -138,-69 -167,-42 -196,-15 -226,12 -255,40 -284,67 -309,90 -303,87 -274,60 -245,33 -216,6 -186,-22 -157,-49 -128,-76 -120,-81 -147,-56 -176,-29 -206,-1 -235,26 -264,53 -293,81 -307,93 -283,74 -254,46 -225,19 -196,-8 -166,-35 -137,-63 -116,-80 -127,-70 -156,-42 -186,-15 -215,12 -244,40 -273,67 -304,95 -293,87 -263,60 -234,33 -205,5 -176,-22 -146,-49 -117,-76 -113,-77 -136,-56 -166,-29 -195,-1 -224,26 -253,53 -283,80 -302,98 -273,74 -243,46 -214,19 -185,-8 -156,-36 -126,-63 -113,-73 -116,-70 -146,-42 -175,-15 -204,12 -233,39 -263,67 -292,94 -299,101 -282,87 -253,60 -223,33 -194,5 -165,-22 -136,-49 -112,-68 -126,-56 -155,-29 -184,-2 -213,26 -243,53 -272,80 -296,103 -291,101 -262,73 -233,46 -203,19 -174,-8 -145,-36 -116,-63 -112,-64 -135,-43 -164,-15 -193,12 -223,39 -252,67 -281,94 -293,105 -271,87 -242,60 -213,32 -183,5 -154,-22 -125,-49 -111,-59 -115,-56 -144,-29 -173,-2 -202,26 -232,53 -261,80 -290,107 -280,101 -251,73 -222,46 -192,19 -163,-9 -134,-36 -111,-55 -124,-43 -153,-15 -182,12 -212,39 -241,66 -270,94 -287,109 -260,87 -231,60 -202,32 -172,5 -143,-22 -114,-50 -110,-50 -133,-29 -162,-2 -192,25 -221,53 -250,80 -279,107 -284,112 -269,100 -240,73 -211,46 -182,19 -152,-9 -123,-36 -110,-46 -113,-43 -142,-16 -172,12 -201,39 -230,66 -259,94 -281,114 -277,112 -249,87 -220,59 -191,32 -162,5 -132,-22 -110,-41 -122,-29 -152,-2 -181,25 -210,53 -239,80 -269,107 -277,115 -259,100 -229,73 -200,46 -171,18 -142,-9 -112,-36 -110,-36 -132,-16 -161,12 -190,39 -219,66 -249,93 -274,117 -268,114 -239,87 -209,59 -180,32 -151,5 -122,-23 -111,-30 -113,-28 -141,-2 -170,25 -199,52 -229,80 -258,107 -270,119 -248,100 -219,73 -189,46 -160,18 -131,-9 -111,-25 -121,-16 -150,11 -179,39 -209,66 -238,93 -267,120 -257,114 -228,86 -199,59 -169,32 -140,5 -112,-20 -130,-2 -159,25 -189,52 -218,80 -247,107 -263,122 -237,100 -208,73 -178,45 -149,18 -120,-9 -112,-14 -139,11 -168,39 -198,66 -227,93 -256,120 -259,123 -246,114 -217,86 -188,59 -158,32 -129,4 -113,-8 -119,-2 -148,25 -178,52 -207,79 -236,107 -255,124 -226,100 -197,73 -168,45 -138,18 -114,-3 -128,11 -158,38 -187,66 -216,93 -245,120 -251,125 -235,113 -206,86 -177,59 -148,32 -118,4 -114,3 -138,25 -167,52 -196,79 -225,107 -247,126 -215,100 -186,72 -157,45 -128,18 -115,8 -118,11 -147,38 -176,66 -205,93 -235,120 -242,127 -225,113 -195,86 -166,59 -137,31 -115,14 -127,25 -156,52 -185,79 -215,106 -237,127 -205,100 -175,72 -146,45 -116,19 -136,38 -165,65 -195,93 -224,120 -232,128 -214,113 -185,86 -155,59 -126,31 -116,25 -145,52 -175,79 -204,106 -227,128 -222,126 -194,99 -165,72 -135,45 -118,31 -125,38 -154,65 -184,93 -213,120 -221,128 -203,113 -174,86 -144,58 -119,38 -134,52 -164,79 -193,106 -215,127 -183,99 -154,72 -124,45 -121,44 -144,65 -173,92 -202,120 -209,126 -192,113 -163,86 -134,58 -124,52 -153,79 -182,106 -201,124 -172,99 -143,72 -128,60 -133,65 -162,92 -193,121 -181,113 -152,85 -131,66 -135,72 -142,79 -171,106 -183,117 -176,113 -161,99 -138,78 -141,81 -151,91 -160,101 -161,101 -161,101 -160,101 -141,81 -143,83 -141,81" /><polyline class="right-eye" stroke="red" points="130,-6 133,-5 130,-6 147,-1 156,1 164,-3 180,-10 192,-23 198,-39 197,-57 188,-72 177,-86 194,-80 212,-82 231,-84 250,-84 268,-86 287,-87 306,-85 325,-86 343,-89 342,-70 341,-51 338,-32 336,-13 335,6 332,25 328,44 320,61 310,77 297,91 282,104 265,111 246,114 227,115 208,111 190,104 173,95 159,83 148,67 139,50 133,32 131,13 130,-6 135,11 141,29 146,46 152,64 157,81 174,91 190,101 206,111 202,106 173,78 145,49 134,38 132,27 131,15 146,31 175,59 203,87 231,115 249,114 233,97 204,69 176,41 148,12 130,-5 130,-6 143,4 157,15 170,25 184,35 197,45 211,56 227,46 242,36 245,17 248,-2 249,-11 255,-18 269,-30 284,-42 299,-53 314,-65 328,-77 343,-89 343,-89 326,-86 337,-75 342,-70 341,-51 336,-57 307,-85 297,-86 286,-87 306,-67 334,-38 338,-35 336,-17 333,-20 305,-48 276,-76 267,-86 249,-84 275,-58 303,-30 332,-2 335,2 333,20 330,17 302,-11 274,-40 245,-68 229,-84 212,-82 216,-78 244,-50 272,-21 300,7 330,36 325,51 299,25 271,-3 242,-31 214,-60 194,-80 185,-81 177,-86 196,-58 213,-41 241,-13 269,15 298,44 318,64 311,76 296,62 268,34 240,5 211,-23 198,-36 192,-22 210,-4 238,24 267,52 295,80 301,87 291,97 265,70 237,42 209,14 182,-13 170,-5 179,4 207,32 235,61 264,89 280,105 266,110 262,107 234,79 206,51 178,22 156,1 130,-6 120,-23 124,-22 119,-17 128,-20 118,-11 132,-19 127,-14 118,-5 135,-17 118,0 128,-7 138,-16 136,-13 118,5 142,-14 129,0 118,10 138,-8 146,-13 119,15 130,6 151,-12 139,-1 119,19 121,20 149,-8 156,-13 131,13 119,24 140,6 163,-14 150,-2 120,29 132,20 160,-9 172,-18 141,12 121,33 122,35 151,5 178,-21 183,-26 193,-40 203,-55 213,-70 196,-77 177,-81 159,-85 162,-86 160,-84 169,-87 163,-81 175,-88 165,-78 181,-89 168,-76 171,-77 187,-90 181,-84 170,-73 193,-91 173,-71 182,-77 199,-91 192,-84 175,-68 205,-92 183,-70 178,-65 193,-78 211,-93 203,-85 180,-62 184,-64 216,-94 194,-71 182,-59 204,-78 222,-94 213,-85 184,-56 195,-64 228,-95 205,-71 185,-52 214,-79 234,-95 224,-86 196,-58 186,-48 206,-65 234,-93 239,-96 216,-72 187,-44 197,-51 225,-79 245,-96 235,-86 207,-58 187,-38 217,-65 245,-94 250,-96 226,-72 198,-44 185,-31 182,-26 208,-51 236,-80 256,-97 246,-87 218,-59 189,-30 161,-2 133,26 122,37 142,19 171,-9 199,-37 227,-66 256,-94 261,-97 237,-73 209,-45 181,-16 152,12 123,41 134,33 162,5 190,-24 219,-52 247,-80 267,-97 257,-87 228,-59 200,-31 172,-3 144,26 124,45 127,45 153,19 182,-10 210,-38 238,-66 266,-95 272,-98 248,-73 220,-45 191,-17 163,11 135,40 125,49 145,32 173,4 201,-24 229,-52 258,-81 278,-98 267,-88 239,-60 211,-31 183,-3 154,25 127,53 136,46 164,18 192,-10 221,-39 249,-67 277,-95 283,-98 259,-74 230,-46 202,-17 174,11 146,39 129,56 155,32 184,4 212,-25 240,-53 269,-81 288,-98 278,-88 250,-60 222,-32 193,-4 165,25 137,53 130,60 147,46 175,18 203,-11 231,-39 260,-67 288,-96 294,-99 270,-74 241,-46 213,-18 185,10 156,39 132,63 138,60 166,31 194,3 223,-25 251,-53 279,-82 298,-98 289,-89 261,-61 233,-32 204,-4 176,24 148,53 133,67 157,45 186,17 214,-11 242,-40 271,-68 303,-98 280,-75 252,-47 224,-18 195,10 167,38 139,66 135,70 149,59 177,31 205,3 234,-26 262,-54 290,-82 308,-97 300,-89 272,-61 243,-33 215,-5 187,24 158,52 137,74 168,45 197,17 225,-12 253,-40 281,-68 313,-97 291,-76 263,-47 235,-19 206,9 178,38 150,66 139,77 160,59 188,30 216,2 244,-26 273,-54 301,-83 318,-97 311,-90 282,-62 254,-33 226,-5 198,23 169,52 141,80 151,73 179,44 207,16 236,-12 264,-41 292,-69 323,-97 302,-76 274,-48 245,-19 217,9 189,37 161,65 143,83 170,58 199,30 227,2 255,-27 283,-55 312,-83 329,-98 322,-90 293,-62 265,-34 237,-6 208,23 180,51 152,79 145,86 162,72 190,44 218,16 246,-13 275,-41 303,-69 336,-100 313,-77 284,-48 256,-20 228,8 200,37 171,65 147,89 153,86 181,58 209,29 238,1 266,-27 294,-55 323,-84 342,-101 332,-91 304,-63 276,-34 247,-6 219,22 191,51 163,79 150,91 172,72 201,43 229,15 257,-13 286,-42 314,-70 342,-98 348,-101 324,-77 295,-49 267,-20 239,8 210,36 182,64 153,94 164,85 192,57 220,29 249,1 277,-28 305,-56 333,-84 353,-101 343,-91 315,-63 287,-35 258,-7 230,22 202,50 173,78 155,96 183,71 211,43 240,15 268,-14 296,-42 325,-70 353,-99 355,-98 334,-78 306,-49 278,-21 250,7 221,36 193,64 165,92 158,99 174,85 203,57 231,28 259,0 288,-28 316,-56 344,-85 355,-93 326,-64 297,-35 269,-7 241,21 213,49 184,78 161,101 166,99 194,71 222,42 251,14 279,-14 307,-43 335,-71 355,-87 345,-78 317,-50 289,-21 260,7 232,35 204,63 175,92 163,104 185,84 214,56 242,28 270,0 298,-29 327,-57 354,-82 336,-64 308,-36 280,-8 252,21 223,49 195,77 166,106 177,98 205,70 233,42 261,14 290,-15 318,-43 346,-71 354,-77 328,-50 299,-22 271,6 243,35 215,63 186,91 169,108 196,84 224,56 253,27 281,-1 309,-29 337,-57 354,-71 347,-65 319,-36 291,-8 262,20 234,48 206,77 178,105 173,110 187,98 216,70 244,41 272,13 300,-15 329,-44 354,-66 339,-51 310,-22 282,6 254,34 225,62 197,91 176,112 207,83 235,55 263,27 292,-1 320,-30 348,-58 354,-61 330,-37 302,-9 273,20 245,48 217,76 188,105 179,114 198,97 226,69 255,41 283,12 311,-16 340,-44 354,-55 349,-51 321,-23 293,5 264,34 236,62 208,90 182,116 189,111 218,83 246,55 274,26 303,-2 331,-30 353,-50 341,-37 312,-9 284,19 256,47 227,76 199,104 186,117 209,97 237,69 266,40 294,12 322,-16 350,-45 353,-45 332,-23 304,5 275,33 247,61 219,90 190,119 200,111 228,82 257,54 285,26 313,-2 342,-31 352,-38 323,-10 295,19 267,47 238,75 210,104 193,120 220,96 248,68 276,40 305,11 333,-17 351,-32 343,-24 314,4 286,33 258,61 230,89 201,117 197,122 211,110 239,82 268,54 296,25 324,-3 349,-25 334,-10 306,18 277,46 249,75 221,103 201,123 231,96 259,68 287,39 315,11 344,-17 349,-20 325,4 297,32 269,60 240,89 212,117 205,124 222,110 250,81 278,53 307,25 335,-3 348,-14 345,-11 316,18 288,46 260,74 232,103 209,125 213,123 241,95 270,67 298,39 326,10 348,-9 336,3 308,32 279,60 251,88 223,116 213,126 233,109 261,81 289,53 317,24 348,-3 327,17 299,45 271,74 242,102 218,127 224,123 252,95 280,67 309,38 337,10 347,2 345,5 319,31 290,59 262,88 234,116 222,127 243,109 272,80 300,52 328,24 347,8 338,17 310,45 281,73 253,102 227,128 235,123 263,94 291,66 320,38 346,14 329,31 301,59 273,87 244,115 232,128 254,108 283,80 311,52 339,23 346,19 321,44 292,73 264,101 237,128 246,122 274,94 302,66 330,37 345,25 340,30 312,58 284,87 255,115 242,128 265,108 293,79 322,51 344,32 331,44 303,72 275,100 249,127 256,122 285,93 313,65 342,38 323,58 294,86 266,114 255,126 276,107 304,79 332,51 340,46 314,72 286,100 261,125 267,121 295,93 324,65 336,54 333,57 305,86 277,114 269,122 287,107 315,78 335,59 332,64 325,71 296,99 277,119 306,92 327,71 323,78 316,85 288,114 295,107 304,100 303,100 295,107 297,105 295,107" /><polyline  stroke="white" points="-290,-80 -290,-77 -290,-80 -288,-62 -292,-46 -307,-37 -315,-38 -322,-44 -330,-58 -328,-67 -323,-73 -316,-80 -308,-80 -290,-80 -304,-71 -317,-63 -331,-54 -331,-54 -324,-67 -316,-80 -316,-44 -316,-39 -302,-39 -302,-56 -302,-80 -290,-80 -288,-68 -287,-57 -287,-57 -287,-57 -290,-80 -307,-89 -304,-89 -304,-89 -301,-89 -314,-89 -301,-89 -294,-87 -321,-87 -322,-85 -288,-83 -310,-83 -328,-83 -298,-81 -283,-79 -326,-79 -333,-79 -314,-77 -280,-75 -302,-75 -337,-75 -330,-73 -290,-73 -278,-71 -318,-71 -340,-71 -306,-69 -276,-67 -294,-67 -334,-67 -341,-67 -322,-65 -282,-65 -275,-63 -310,-63 -342,-63 -338,-61 -298,-61 -274,-59 -286,-59 -326,-59 -343,-59 -314,-57 -274,-55 -302,-55 -343,-55 -330,-53 -290,-53 -276,-51 -318,-51 -342,-51 -306,-49 -277,-47 -294,-47 -334,-47 -341,-47 -322,-45 -282,-45 -279,-43 -310,-43 -339,-43 -298,-41 -282,-39 -286,-39 -326,-39 -336,-39 -314,-37 -286,-35 -302,-35 -332,-35 -291,-31 -318,-31 -326,-31 -321,-29 -306,-29 -295,-29 -305,-27 -306,-27 -305,-27 -306,-27 -305,-27" /><polyline  stroke="white" points="164,-70 165,-67 164,-70 171,-54 174,-46 173,-38 161,-25 144,-25 133,-37 134,-54 147,-65 164,-70 153,-61 142,-51 131,-42 131,-42 138,-53 146,-65 146,-44 146,-25 160,-25 160,-56 160,-69 164,-70 170,-56 175,-43 175,-43 175,-43 164,-70 152,-74 157,-74 157,-74 160,-74 148,-74 160,-74 167,-72 146,-72 141,-72 158,-70 174,-68 170,-68 134,-68 142,-66 178,-64 154,-64 129,-64 166,-62 181,-60 178,-60 138,-60 126,-60 150,-58 184,-56 162,-56 123,-56 134,-54 174,-54 185,-52 146,-52 122,-52 158,-50 187,-48 170,-48 130,-48 120,-48 142,-46 182,-46 187,-44 154,-44 120,-44 126,-42 166,-42 187,-40 178,-40 138,-40 120,-40 150,-38 185,-36 162,-36 121,-36 134,-34 174,-34 183,-32 146,-32 122,-32 158,-30 181,-28 170,-28 130,-28 125,-28 142,-26 178,-24 154,-24 129,-24 166,-22 174,-20 138,-20 133,-20 150,-18 167,-16 162,-16 141,-16 154,-14 156,-14 154,-14" /><polyline class="left-outline"  points="-116,-80 -115,-78 -117,-57 -119,-37 -120,-17 -122,4 -124,24 -132,46 -140,67 -154,87 -172,103 -188,111 -205,118 -230,122 -258,116 -275,107 -292,97 -305,82 -317,67 -324,47 -331,27 -335,3 -339,-21 -336,-34 -329,-43 -335,-49 -335,-67 -329,-76 -321,-84 -312,-87 -292,-81 -282,-63 -284,-48 -298,-33 -314,-32 -329,-43 -329,-43 -334,-21 -329,-48 -332,-20 -325,-45 -330,-19 -321,-42 -327,-18 -319,-39 -323,-16 -316,-37 -318,-14 -314,-37 -314,-14 -311,-37 -310,-14 -309,-37 -305,-15 -306,-37 -301,-15 -304,-37 -296,-16 -301,-37 -292,-17 -300,-38 -288,-18 -298,-40 -285,-21 -296,-41 -281,-24 -295,-43 -277,-26 -293,-44 -274,-29 -292,-46 -271,-33 -290,-47 -269,-37 -289,-49 -267,-41 -288,-51 -266,-45 -288,-53 -266,-50 -287,-55 -265,-54 -286,-58 -265,-59 -286,-60 -265,-63 -287,-62 -265,-67 -288,-63 -266,-72 -288,-65 -268,-76 -289,-67 -270,-80 -290,-68 -271,-84 -291,-70 -274,-88 -292,-72 -277,-91 -293,-74 -281,-93 -294,-76 -286,-94 -297,-77 -291,-94 -299,-78 -295,-94 -302,-79 -300,-95 -305,-80 -304,-95 -308,-81 -309,-95 -311,-82 -313,-95 -314,-81 -318,-96 -318,-80 -322,-96 -320,-79 -327,-96 -322,-76 -332,-96 -324,-75 -336,-96 -325,-73 -341,-96 -326,-72 -347,-96 -327,-71 -352,-96 -328,-70 -357,-94 -329,-69 -359,-90 -330,-68 -360,-86 -330,-67 -360,-81 -330,-65 -360,-75 -330,-63 -359,-70 -330,-62 -359,-66 -330,-60 -358,-61 -330,-57 -358,-57 -330,-54 -357,-52 -330,-50 -357,-48 -329,-45 -356,-43 -330,-41 -356,-39 -331,-37 -355,-34 -332,-32 -355,-30 -332,-28 -354,-25 -333,-23 -354,-21 -333,-19 -354,-17 -333,-15 -353,-12 -332,-11 -353,-8 -332,-7 -352,-3 -331,-3 -352,1 -330,1 -351,6 -330,5 -351,10 -329,9 -350,14 -329,13 -350,19 -328,17 -349,23 -328,21 -349,28 -327,25 -348,32 -326,29 -347,36 -324,32 -345,40 -323,36 -344,45 -322,40 -342,49 -320,44 -341,53 -319,47 -339,57 -318,50 -338,61 -317,54 -336,66 -315,58 -335,70 -314,62 -333,74 -313,65 -330,77 -310,68 -328,81 -308,71 -325,85 -305,74 -323,89 -303,77 -320,92 -301,79 -318,96 -299,82 -315,100 -296,84 -312,103 -294,87 -309,106 -292,90 -305,108 -289,93 -301,111 -286,95 -298,113 -283,97 -294,116 -280,98 -290,119 -277,100 -287,121 -274,102 -283,123 -270,103 -279,125 -267,105 -274,126 -264,107 -270,128 -260,109 -266,130 -257,110 -262,131 -254,112 -258,133 -250,112 -254,134 -246,113 -250,136 -243,114 -245,137 -240,115 -241,137 -236,115 -236,137 -233,116 -232,137 -229,117 -227,137 -226,116 -223,137 -222,116 -218,136 -219,115 -214,136 -215,115 -210,136 -212,114 -205,135 -208,114 -201,134 -204,113 -197,132 -201,111 -192,131 -197,110 -188,130 -194,108 -184,128 -191,107 -180,127 -188,105 -176,125 -184,104 -172,124 -181,102 -168,121 -178,101 -164,118 -174,99 -161,116 -172,97 -157,113 -169,94 -154,110 -167,92 -150,108 -164,90 -147,105 -161,87 -144,101 -159,85 -141,98 -156,82 -139,94 -154,79 -136,91 -152,76 -133,87 -150,73 -131,83 -148,70 -128,80 -145,67 -126,76 -144,64 -123,72 -142,60 -122,68 -141,56 -120,64 -140,53 -118,60 -139,49 -116,56 -137,46 -114,52 -136,42 -113,48 -135,39 -112,43 -133,35 -111,39 -132,31 -110,35 -131,27 -109,30 -129,23 -109,26 -129,19 -108,21 -128,15 -107,17 -128,11 -106,13 -128,7 -105,8 -127,3 -104,4 -127,-1 -104,0 -126,-5 -103,-5 -126,-10 -102,-9 -126,-14 -102,-14 -125,-18 -102,-18 -125,-22 -101,-23 -124,-27 -101,-27 -124,-31 -101,-31 -124,-35 -101,-36 -123,-39 -100,-40 -123,-43 -100,-45 -123,-47 -100,-49 -122,-51 -100,-54 -122,-55 -99,-58 -121,-59 -100,-62 -121,-63 -102,-67 -121,-67 -104,-71 -120,-71 -107,-75 -120,-75 -110,-79 -110,-79 -119,-80 -116,-80 -119,-80 -404,-107 -403,-110 -404,-107 -402,-112 -384,-99 -367,-87 -352,-88 -340,-94 -320,-93 -301,-92 -281,-91 -261,-90 -242,-89 -222,-88 -202,-87 -184,-84 -166,-81 -148,-77 -130,-74 -112,-71 -94,-68 -94,-68 -70,-62 -75,-60 -71,-63 -78,-60 -74,-66 -79,-60 -76,-68 -81,-61 -79,-70 -85,-61 -81,-73 -88,-62 -84,-75 -91,-62 -86,-78 -94,-63 -89,-80 -97,-64 -92,-82 -100,-64 -95,-83 -104,-65 -99,-84 -107,-65 -102,-85 -110,-66 -105,-86 -113,-66 -108,-87 -116,-67 -112,-89 -119,-67 -115,-90 -123,-68 -118,-91 -126,-69 -121,-92 -129,-69 -125,-93 -133,-70 -128,-95 -136,-70 -131,-96 -138,-71 -135,-97 -141,-71 -138,-98 -144,-72 -141,-99 -147,-72 -144,-100 -150,-73 -148,-102 -153,-73 -151,-103 -157,-74 -154,-104 -154,-104 -160,-74 -159,-90 -158,-105 -158,-105 -163,-107 -165,-105 -169,-109 -166,-108 -167,-103 -163,-107 -164,-98 -164,-98 -163,-107 -158,-105 -160,-90 -160,-90 -163,-75 -162,-102 -166,-76 -165,-98 -170,-76 -169,-99 -173,-77 -172,-99 -177,-77 -175,-100 -180,-78 -178,-100 -183,-78 -181,-101 -187,-79 -184,-101 -190,-80 -187,-102 -194,-80 -190,-104 -196,-81 -193,-105 -199,-81 -197,-106 -202,-82 -200,-108 -205,-82 -203,-109 -208,-82 -206,-110 -211,-82 -210,-112 -214,-82 -213,-113 -217,-83 -217,-114 -220,-83 -220,-99 -220,-116 -220,-116 -225,-118 -228,-116 -232,-119 -229,-113 -229,-119 -225,-106 -225,-118 -220,-116 -221,-99 -221,-99 -223,-83 -224,-111 -226,-83 -227,-106 -229,-83 -231,-106 -232,-83 -234,-107 -235,-84 -237,-107 -239,-84 -240,-107 -242,-84 -243,-107 -246,-84 -246,-107 -249,-84 -249,-108 -253,-84 -252,-108 -256,-85 -256,-108 -259,-85 -259,-109 -263,-85 -262,-109 -266,-85 -265,-110 -270,-85 -269,-111 -273,-85 -272,-111 -277,-86 -275,-112 -280,-86 -279,-113 -283,-86 -282,-113 -285,-86 -286,-114 -288,-86 -289,-115 -291,-86 -293,-115 -295,-87 -296,-116 -298,-87 -299,-117 -301,-87 -303,-117 -304,-87 -305,-103 -306,-118 -306,-118 -312,-119 -314,-117 -320,-121 -317,-120 -317,-116 -313,-119 -313,-112 -312,-119 -311,-110 -311,-110 -312,-119 -306,-118 -307,-103 -307,-103 -308,-87 -310,-114 -311,-87 -313,-110 -314,-88 -317,-110 -318,-88 -320,-110 -321,-88 -323,-110 -324,-88 -327,-110 -328,-88 -330,-110 -331,-88 -333,-110 -334,-89 -337,-111 -338,-89 -340,-111 -341,-88 -343,-111 -345,-87 -346,-111 -348,-85 -349,-111 -352,-84 -352,-111 -355,-83 -355,-111 -358,-83 -357,-111 -362,-82 -360,-111 -365,-82 -363,-112 -369,-83 -365,-112 -372,-85 -367,-113 -375,-87 -370,-113 -378,-89 -372,-114 -381,-91 -375,-114 -384,-93 -378,-114 -387,-96 -381,-115 -390,-98 -384,-116 -393,-100 -388,-116 -396,-102 -391,-117 -399,-104 -395,-117 -401,-106 -398,-118 -404,-107 -402,-112 -414,-118 -414,-118 -416,-116 -410,-120 -413,-114 -407,-119 -410,-112 -405,-119 -407,-110 -402,-118 -404,-107 -403,-110 -404,-107" /><polyline class="right-outline"  points="124,-80 122,-78 124,-80 124,-80 107,-67 104,-62 105,-44 106,-26 107,-7 111,11 114,30 118,48 129,70 140,91 153,104 166,117 188,129 207,134 226,138 242,136 258,135 274,128 290,122 304,112 318,103 328,87 339,72 344,56 350,39 356,23 357,4 359,-16 360,-35 362,-55 364,-74 365,-94 348,-92 348,-92 343,-96 356,-96 343,-92 363,-93 342,-87 365,-89 342,-83 365,-84 342,-80 364,-80 342,-76 364,-75 341,-73 364,-71 341,-69 363,-67 341,-65 363,-62 340,-61 362,-58 340,-57 362,-53 340,-53 362,-49 340,-48 361,-44 339,-44 361,-40 339,-39 361,-36 339,-35 360,-31 338,-31 360,-27 338,-26 359,-22 338,-22 359,-18 337,-17 359,-13 337,-13 358,-9 337,-9 358,-5 336,-5 357,0 336,-1 357,4 336,3 357,9 335,8 356,13 334,11 356,18 333,15 355,22 332,19 354,26 331,23 353,31 330,27 351,35 329,31 350,39 328,35 349,43 327,38 347,47 326,42 346,52 325,46 344,56 324,50 343,60 323,54 341,64 321,57 340,69 319,61 338,73 317,64 336,76 315,67 333,80 313,70 331,84 311,73 328,87 310,76 326,91 308,79 323,95 305,82 321,99 302,84 318,102 300,87 315,105 297,89 311,108 294,91 307,110 292,93 304,113 289,95 300,115 286,98 297,118 283,100 293,120 280,101 289,123 276,103 285,124 273,104 281,126 269,106 277,127 266,107 272,129 263,109 268,131 259,110 264,132 256,112 260,134 252,113 256,135 249,115 251,135 245,115 247,136 242,115 242,136 238,115 238,137 235,115 234,137 232,115 229,138 228,116 225,138 224,116 220,137 221,115 216,136 217,114 212,135 214,113 207,134 210,113 203,133 207,112 199,132 203,111 194,131 200,110 190,130 196,108 186,128 193,107 182,126 190,105 178,124 187,103 174,122 184,102 170,120 181,100 166,117 178,98 163,114 175,95 160,111 173,93 157,108 170,90 153,105 167,88 150,102 165,86 147,99 162,83 144,95 160,80 141,92 158,77 138,89 155,74 136,85 153,71 134,81 151,68 132,77 149,65 130,73 148,61 128,69 146,58 126,65 145,54 124,61 144,50 122,57 143,47 120,53 141,43 118,49 140,39 117,45 139,36 116,40 137,32 115,36 136,28 115,31 135,24 114,27 134,20 113,23 133,16 112,18 133,12 111,14 132,9 110,10 132,6 110,5 131,2 109,1 131,-2 108,-4 130,-7 107,-8 132,-11 107,-13 133,-15 107,-17 135,-20 106,-21 136,-24 106,-26 138,-28 106,-30 136,-32 106,-35 134,-36 105,-39 132,-40 105,-44 132,-43 105,-48 132,-45 105,-53 132,-48 104,-58 133,-50 105,-62 133,-51 107,-66 133,-53 110,-69 133,-55 114,-72 135,-56 117,-75 136,-58 121,-78 137,-59 137,-59 124,-80 127,-76 145,-76 162,-76 179,-76 190,-64 195,-40 192,-30 182,-15 170,-7 147,-5 132,-11 130,-6 138,-28 132,-5 140,-27 136,-4 143,-26 140,-2 146,-25 144,-1 148,-23 149,0 151,-22 153,0 153,-23 157,-1 156,-23 162,-1 158,-24 166,-2 161,-24 170,-2 163,-25 174,-4 165,-25 178,-6 167,-26 182,-9 168,-28 185,-11 170,-30 188,-15 171,-31 191,-18 172,-33 193,-22 174,-34 195,-26 175,-36 197,-30 175,-38 198,-34 176,-40 199,-38 176,-42 199,-43 176,-45 198,-47 176,-47 197,-52 176,-49 196,-56 176,-51 196,-60 174,-52 195,-65 173,-54 193,-69 172,-56 190,-72 171,-57 187,-75 170,-59 184,-79 168,-61 180,-80 167,-63 175,-81 165,-65 170,-81 162,-66 165,-81 159,-66 160,-81 157,-67 156,-81 153,-68 151,-82 150,-68 147,-82 147,-67 142,-82 144,-66 138,-82 142,-64 133,-82 140,-62 129,-81 139,-60 124,-80 126,-78 124,-80 404,-107 403,-110 404,-107 402,-112 384,-99 367,-87 352,-88 340,-94 320,-93 301,-92 281,-91 261,-90 242,-89 222,-88 202,-87 184,-84 166,-81 148,-77 130,-74 112,-71 94,-68 94,-68 75,-60 71,-63 78,-60 74,-66 79,-60 76,-68 82,-61 79,-71 85,-61 81,-73 88,-62 84,-76 92,-63 87,-78 95,-63 90,-80 98,-64 93,-82 101,-64 96,-83 104,-65 99,-84 107,-65 103,-85 110,-66 106,-87 113,-66 109,-88 117,-67 112,-89 120,-67 116,-90 123,-68 119,-91 127,-69 122,-92 130,-69 125,-94 133,-70 129,-95 136,-70 132,-96 139,-71 135,-97 142,-71 138,-98 145,-72 142,-99 148,-72 145,-101 151,-73 148,-102 154,-73 152,-103 157,-74 155,-104 161,-74 158,-105 164,-75 162,-102 166,-106 170,-110 167,-108 167,-108 167,-104 163,-107 164,-99 164,-99 163,-107 162,-102 167,-76 166,-98 170,-76 169,-99 174,-77 173,-99 177,-77 176,-100 181,-78 178,-100 184,-79 181,-101 187,-79 184,-102 191,-80 188,-103 194,-80 191,-104 197,-81 194,-105 200,-81 197,-107 202,-82 201,-108 205,-82 204,-109 208,-82 207,-111 211,-82 211,-112 215,-82 214,-113 217,-83 217,-115 220,-83 221,-116 223,-83 224,-111 228,-117 233,-121 229,-114 229,-120 226,-108 226,-108 226,-118 224,-111 226,-83 228,-106 230,-83 231,-106 233,-83 235,-107 236,-84 238,-107 240,-84 240,-107 243,-84 243,-107 246,-84 246,-107 250,-84 250,-108 253,-84 253,-108 257,-85 256,-108 260,-85 260,-109 264,-85 263,-110 267,-85 266,-110 271,-85 269,-111 274,-85 273,-112 277,-86 276,-112 280,-86 280,-113 283,-86 283,-114 286,-86 286,-114 289,-86 290,-115 292,-86 293,-116 295,-87 297,-116 299,-87 300,-117 302,-87 304,-118 305,-87 307,-118 308,-87 310,-114 314,-120 321,-121 317,-117 317,-120 314,-113 312,-119 312,-111 312,-111 312,-119 310,-114 311,-87 314,-110 315,-88 317,-110 318,-88 321,-110 322,-88 324,-110 325,-88 327,-110 329,-88 331,-110 332,-88 334,-110 335,-89 338,-111 338,-89 341,-111 342,-88 344,-111 345,-87 347,-111 349,-85 350,-111 352,-84 353,-111 356,-83 355,-111 359,-83 358,-111 363,-82 361,-112 366,-82 363,-112 370,-83 366,-112 373,-86 368,-113 376,-88 370,-113 379,-90 373,-114 382,-92 376,-114 385,-94 379,-115 387,-96 382,-115 390,-98 385,-116 393,-100 388,-116 396,-102 392,-117 399,-104 395,-117 402,-106 400,-110 414,-118 414,-118 411,-120 416,-116 410,-120 413,-114 408,-119 410,-112 405,-119 408,-110 402,-119 405,-108 399,-118 399,-118 402,-106 401,-109 402,-106" /><polyline   points="-111,-116 -114,-117 -111,-116 -127,-124 -143,-129 -160,-133 -178,-136 -195,-138 -178,-136 -195,-138 -178,-136 -160,-133 -178,-136 -160,-133 -143,-129 -160,-133 -143,-129 -127,-124 -143,-129 -127,-124 -111,-116 -127,-124 -111,-116 -114,-117 -111,-116" /><polyline   points="112,-116 115,-117 112,-116 128,-124 144,-129 161,-133 179,-136 196,-138 179,-136 196,-138 179,-136 161,-133 179,-136 161,-133 144,-129 161,-133 144,-129 128,-124 144,-129 128,-124 112,-116 128,-124 112,-116 115,-117 112,-116" /></svg>