<svg viewBox="-425 -150 850 300" fill="none" stroke="black" stroke-width="4"><polyline class="left-eye" stroke="red" points="-283,-90 -280,-90 -283,-90 -263,-90 -244,-89 -224,-89 -205,-89 -185,-89 -166,-88 -146,-88 -127,-88 -125,-69 -125,-49 -127,-30 -129,-11 -134,8 -138,27 -144,45 -154,63 -165,78 -181,90 -197,100 -216,106 -235,108 -254,106 -273,101 -290,93 -305,80 -317,65 -327,48 -335,31 -339,12 -341,-8 -343,-27 -326,-19 -307,-14 -292,-24 -279,-38 -274,-55 -276,-74 -284,-91 -283,-90 -274,-74 -266,-58 -257,-43 -248,-27 -240,-11 -231,5 -222,21 -237,29 -252,37 -266,47 -278,60 -289,72 -301,85 -301,85 -310,68 -320,52 -329,35 -338,19 -316,41 -288,69 -260,97 -251,106 -236,107 -221,107 -225,103 -254,75 -282,46 -310,18 -339,-10 -341,-13 -343,-27 -315,-16 -304,-5 -276,23 -248,52 -219,80 -199,101 -190,95 -181,90 -185,85 -213,57 -242,29 -270,0 -293,-23 -286,-30 -279,-38 -264,-23 -236,6 -207,34 -179,62 -164,77 -158,69 -152,60 -173,39 -201,11 -230,-17 -258,-46 -274,-62 -276,-77 -284,-91 -283,-90 -267,-84 -250,-79 -234,-73 -217,-67 -201,-62 -184,-56 -168,-51 -154,-63 -141,-76 -127,-88 -126,-72 -124,-56 -143,-75 -156,-88 -171,-89 -186,-89 -178,-81 -149,-52 -127,-30 -129,-17 -131,-5 -155,-30 -184,-58 -212,-86 -215,-89 -230,-89 -244,-90 -218,-63 -190,-35 -161,-7 -136,19 -139,30 -142,41 -167,16 -196,-12 -224,-40 -252,-68 -273,-90 -283,-90 -303,-100 -300,-100 -303,-97 -294,-100 -300,-94 -287,-100 -297,-90 -281,-100 -294,-87 -287,-91 -275,-100 -291,-84 -269,-100 -285,-84 -289,-79 -275,-90 -263,-100 -265,-97 -287,-75 -283,-76 -256,-100 -273,-83 -285,-70 -263,-90 -250,-99 -253,-97 -281,-68 -284,-65 -271,-75 -244,-99 -261,-82 -284,-60 -279,-61 -251,-89 -238,-99 -241,-96 -269,-68 -284,-53 -259,-75 -231,-99 -249,-82 -277,-53 -287,-43 -292,-36 -303,-26 -314,-16 -326,-5 -337,-16 -347,-30 -356,-44 -352,-42 -355,-38 -347,-40 -354,-33 -343,-38 -354,-27 -343,-35 -339,-36 -353,-22 -335,-33 -341,-27 -352,-16 -332,-30 -351,-11 -340,-19 -328,-28 -330,-26 -351,-5 -348,-5 -323,-27 -338,-12 -350,0 -328,-19 -317,-26 -346,3 -349,6 -336,-4 -311,-26 -326,-11 -349,12 -344,10 -316,-18 -302,-28 -306,-25 -334,3 -348,17 -348,20 -324,-4 -296,-32 -267,-60 -239,-89 -228,-99 -229,-95 -257,-67 -286,-39 -314,-11 -342,18 -347,26 -332,11 -304,-18 -275,-46 -247,-74 -222,-99 -237,-81 -265,-53 -294,-24 -322,4 -346,31 -340,25 -312,-3 -284,-31 -255,-60 -227,-88 -216,-99 -217,-95 -245,-67 -274,-38 -302,-10 -330,18 -344,35 -320,11 -292,-17 -264,-45 -235,-73 -210,-99 -225,-80 -253,-52 -282,-24 -310,4 -338,33 -342,40 -328,26 -300,-2 -272,-31 -243,-59 -215,-87 -203,-99 -205,-94 -233,-66 -262,-38 -290,-9 -318,19 -340,44 -336,40 -308,12 -280,-16 -252,-45 -223,-73 -197,-99 -213,-80 -242,-51 -270,-23 -298,5 -326,33 -338,48 -316,26 -288,-2 -260,-30 -231,-58 -203,-87 -191,-99 -193,-94 -221,-65 -250,-37 -278,-9 -306,20 -335,48 -336,52 -324,41 -296,13 -268,-16 -240,-44 -211,-72 -185,-99 -201,-79 -230,-51 -258,-23 -286,6 -314,34 -334,56 -304,27 -276,-1 -248,-29 -220,-58 -191,-86 -179,-99 -181,-93 -209,-65 -238,-36 -266,-8 -294,20 -323,48 -331,60 -313,42 -284,13 -256,-15 -228,-43 -199,-72 -172,-99 -189,-79 -218,-50 -246,-22 -274,6 -302,35 -329,64 -321,56 -292,28 -264,-1 -236,-29 -208,-57 -179,-85 -166,-99 -169,-92 -198,-64 -226,-36 -254,-7 -282,21 -311,49 -327,68 -301,42 -272,14 -244,-14 -216,-43 -187,-71 -160,-98 -177,-78 -206,-50 -234,-21 -262,7 -291,35 -319,64 -324,72 -309,57 -280,28 -252,0 -224,-28 -196,-57 -167,-85 -154,-98 -157,-92 -186,-63 -214,-35 -242,-7 -270,21 -299,50 -322,76 -317,71 -289,43 -260,15 -232,-14 -204,-42 -176,-70 -148,-98 -165,-77 -194,-49 -222,-21 -250,8 -279,36 -307,64 -319,79 -297,57 -269,29 -240,1 -212,-28 -184,-56 -155,-84 -141,-98 -145,-91 -174,-63 -202,-35 -230,-6 -258,22 -287,50 -315,79 -316,83 -305,72 -277,43 -248,15 -220,-13 -192,-41 -164,-70 -135,-98 -154,-77 -182,-48 -210,-20 -238,8 -267,37 -295,65 -313,86 -285,58 -257,30 -228,1 -200,-27 -172,-55 -143,-84 -129,-98 -133,-90 -162,-62 -190,-34 -218,-6 -247,23 -275,51 -303,79 -310,89 -293,72 -265,44 -236,16 -208,-13 -180,-41 -152,-69 -123,-98 -142,-76 -170,-48 -198,-19 -226,9 -255,37 -283,65 -307,93 -301,87 -273,59 -245,30 -216,2 -188,-26 -160,-55 -132,-83 -116,-98 -117,-97 -115,-98 -117,-97 -117,-95 -121,-90 -150,-62 -178,-33 -206,-5 -235,23 -263,52 -291,80 -305,94 -281,73 -253,45 -225,16 -196,-12 -168,-40 -140,-68 -116,-89 -130,-75 -158,-47 -186,-19 -214,9 -243,38 -271,66 -299,94 -302,97 -289,87 -261,59 -233,31 -204,3 -176,-26 -148,-54 -120,-82 -116,-83 -138,-61 -166,-33 -194,-4 -223,24 -251,52 -279,81 -298,99 -269,74 -241,45 -213,17 -184,-11 -156,-40 -128,-68 -115,-77 -118,-75 -146,-46 -174,-18 -203,10 -231,38 -259,67 -287,95 -295,102 -277,88 -249,60 -221,31 -192,3 -164,-25 -136,-53 -115,-71 -126,-60 -154,-32 -182,-4 -211,25 -239,53 -267,81 -291,105 -286,103 -257,74 -229,46 -201,18 -172,-11 -144,-39 -114,-65 -134,-46 -162,-18 -191,11 -219,39 -247,67 -275,96 -287,107 -265,89 -237,60 -209,32 -181,4 -152,-24 -124,-53 -114,-59 -142,-31 -170,-3 -199,25 -227,53 -255,82 -282,109 -274,103 -245,75 -217,47 -189,18 -160,-10 -132,-38 -114,-53 -122,-45 -150,-17 -179,11 -207,40 -235,68 -264,96 -278,110 -253,89 -225,61 -197,33 -169,4 -140,-24 -115,-46 -130,-31 -159,-2 -187,26 -215,54 -243,82 -273,112 -262,104 -233,75 -205,47 -177,19 -148,-9 -120,-38 -115,-40 -138,-16 -167,12 -195,40 -223,69 -252,97 -268,113 -242,90 -213,62 -185,33 -157,5 -128,-23 -116,-33 -118,-30 -147,-2 -175,26 -203,55 -231,83 -260,111 -263,114 -250,104 -221,76 -193,48 -165,20 -137,-9 -117,-25 -126,-16 -155,13 -183,41 -211,69 -240,97 -257,115 -230,91 -201,62 -173,34 -145,6 -118,-18 -135,-1 -163,27 -191,55 -220,84 -248,112 -252,116 -238,105 -209,77 -181,48 -153,20 -125,-8 -119,-11 -143,13 -171,42 -199,70 -228,98 -247,117 -218,91 -189,63 -161,35 -133,6 -120,-3 -123,-1 -151,28 -179,56 -208,84 -236,113 -241,118 -226,106 -198,77 -169,49 -141,21 -122,5 -131,14 -159,42 -187,70 -216,99 -235,118 -206,92 -177,64 -149,35 -123,13 -139,28 -167,57 -196,85 -224,113 -229,118 -214,106 -186,78 -157,50 -129,21 -125,21 -147,43 -176,71 -204,99 -222,118 -194,92 -165,64 -137,36 -128,30 -155,57 -184,86 -212,114 -215,117 -202,107 -174,79 -145,50 -131,39 -135,43 -164,72 -192,100 -206,114 -202,113 -182,93 -154,65 -132,44 -135,50 -143,58 -172,86 -197,111 -190,108 -162,79 -138,56 -141,62 -152,72 -180,101 -184,105 -174,98 -170,94 -145,69 -151,77 -158,85 -156,83 -158,85" /><polyline class="right-eye" stroke="red" points="130,-17 128,-19 130,-17 121,-24 139,-18 159,-18 177,-25 191,-37 196,-45 195,-55 192,-75 186,-93 193,-89 202,-89 221,-89 239,-89 257,-89 276,-89 294,-89 312,-89 331,-89 349,-89 347,-69 346,-49 344,-29 342,-10 339,10 334,29 326,47 317,65 304,80 289,93 271,101 252,105 232,107 212,106 193,99 176,89 162,76 151,59 142,41 136,22 132,3 130,-17 136,1 142,19 147,37 153,55 159,73 168,82 171,85 168,82 159,73 151,55 143,38 136,20 146,31 175,59 203,88 222,106 236,106 250,105 237,93 209,64 181,36 152,8 130,-14 130,-17 121,-24 130,-17 147,-12 164,-7 181,-1 198,4 215,9 232,14 250,20 262,6 274,-8 287,-21 299,-35 312,-48 324,-62 337,-75 349,-89 348,-75 347,-62 320,-89 305,-89 290,-89 315,-64 345,-35 343,-21 342,-8 337,-13 309,-41 281,-69 261,-89 246,-89 232,-89 246,-75 274,-46 303,-18 331,10 337,17 334,28 330,39 325,33 297,5 268,-23 240,-51 212,-80 202,-89 189,-89 186,-93 187,-91 194,-68 205,-57 234,-28 262,0 290,28 321,59 314,67 308,76 284,51 256,23 228,-5 199,-33 193,-39 185,-33 178,-26 193,-10 221,18 250,46 278,75 294,90 284,95 274,100 272,98 244,69 215,41 187,13 159,-15 156,-18 140,-18 125,-22 130,-17 116,-36 116,-40 118,-39 116,-37 121,-37 117,-32 125,-34 119,-28 129,-32 119,-22 133,-30 120,-16 131,-24 138,-28 121,-11 143,-27 133,-17 121,-5 143,-23 149,-26 125,-2 122,1 135,-9 156,-27 145,-16 123,6 127,5 155,-23 160,-28 166,-30 137,-1 123,12 124,15 147,-8 171,-33 178,-38 189,-50 200,-62 211,-74 198,-84 184,-92 169,-100 168,-99 174,-99 171,-96 181,-99 174,-92 187,-99 177,-89 193,-99 178,-84 186,-88 199,-99 196,-95 180,-80 206,-99 187,-81 182,-75 198,-88 212,-99 208,-95 183,-70 189,-73 218,-99 199,-80 184,-65 210,-87 225,-99 220,-94 191,-66 185,-59 201,-73 231,-99 211,-79 185,-53 193,-58 221,-86 237,-99 232,-93 203,-65 184,-46 172,-33 160,-21 148,-8 136,5 124,17 128,13 157,-15 185,-44 213,-72 244,-99 223,-79 195,-50 167,-22 139,6 125,20 149,-1 177,-29 205,-57 233,-86 250,-99 243,-93 215,-64 187,-36 159,-8 130,21 126,24 140,14 169,-15 197,-43 225,-71 256,-99 235,-78 207,-50 179,-22 150,7 128,29 132,28 161,0 189,-28 217,-57 245,-85 262,-99 255,-92 227,-64 199,-35 171,-7 142,21 129,34 152,14 181,-14 209,-42 237,-71 269,-99 247,-77 219,-49 191,-21 162,7 134,36 131,39 144,29 172,0 201,-28 229,-56 257,-84 275,-99 267,-91 239,-63 211,-35 183,-6 154,22 133,44 136,43 164,15 193,-13 221,-42 249,-70 281,-99 259,-77 231,-49 203,-20 174,8 146,36 134,48 156,29 184,1 213,-27 241,-55 269,-84 288,-99 279,-91 251,-62 223,-34 195,-6 166,22 136,52 148,44 176,16 205,-13 233,-41 261,-69 294,-99 271,-76 243,-48 215,-20 186,9 158,37 138,57 168,30 196,2 225,-27 253,-55 281,-83 300,-99 291,-90 263,-62 235,-33 206,-5 178,23 150,51 140,61 160,45 188,16 217,-12 245,-40 273,-69 307,-99 283,-76 255,-47 227,-19 198,9 170,38 142,65 152,59 180,31 208,2 237,-26 265,-54 293,-82 313,-99 303,-89 275,-61 247,-33 218,-5 190,24 162,52 145,69 172,45 200,17 228,-11 257,-40 285,-68 313,-96 319,-99 295,-75 267,-47 239,-18 210,10 182,38 154,67 147,73 164,60 192,31 220,3 249,-25 277,-54 305,-82 326,-99 315,-89 287,-60 259,-32 230,-4 202,24 174,53 150,77 156,74 184,46 212,18 240,-11 269,-39 297,-67 325,-96 332,-99 307,-74 279,-46 250,-18 222,11 194,39 166,67 153,80 176,60 204,32 232,4 261,-25 289,-53 317,-81 338,-99 327,-88 299,-60 271,-32 242,-3 214,25 186,53 156,83 168,75 196,46 224,18 252,-10 281,-38 309,-67 337,-95 344,-99 319,-74 291,-45 262,-17 234,11 206,40 178,68 159,87 188,61 216,33 244,4 273,-24 301,-52 329,-81 351,-99 339,-87 311,-59 283,-31 254,-3 226,26 198,54 169,82 162,90 179,75 208,47 236,19 264,-9 293,-38 321,-66 349,-94 357,-99 331,-73 303,-45 274,-16 246,12 218,40 190,68 165,93 171,90 200,62 228,33 256,5 284,-23 313,-52 341,-80 360,-96 351,-87 323,-59 295,-30 266,-2 238,26 210,55 181,83 169,96 191,76 220,48 248,19 276,-9 305,-37 333,-65 359,-89 343,-72 315,-44 286,-16 258,13 230,41 202,69 172,98 183,90 212,62 240,34 268,6 296,-23 325,-51 353,-79 359,-82 335,-58 306,-30 278,-1 250,27 222,55 193,84 176,101 203,77 232,48 260,20 288,-8 317,-36 345,-65 358,-75 355,-72 327,-43 298,-15 270,13 242,41 213,70 185,98 179,104 195,91 224,63 252,35 280,6 308,-22 337,-50 358,-69 347,-57 318,-29 290,-1 262,28 234,56 205,84 184,106 215,77 244,49 272,21 300,-8 329,-36 358,-62 339,-43 310,-14 282,14 254,42 225,70 197,99 188,108 207,92 235,63 264,35 292,7 320,-21 349,-50 357,-55 330,-28 302,0 274,28 246,57 217,85 192,110 199,106 227,78 256,50 284,21 312,-7 340,-35 357,-48 351,-42 322,-14 294,14 266,43 237,71 209,99 196,112 219,92 247,64 276,36 304,8 332,-21 356,-41 342,-28 314,1 286,29 258,57 229,85 201,113 211,107 239,79 268,50 296,22 324,-6 352,-35 355,-34 334,-13 306,15 278,43 249,72 221,100 206,115 231,93 259,65 288,36 316,8 344,-20 354,-27 326,1 298,30 269,58 241,86 211,116 223,108 251,79 280,51 308,23 336,-6 354,-20 346,-13 318,16 290,44 261,72 233,101 217,116 243,94 271,65 300,37 328,9 353,-13 338,2 310,30 281,58 253,87 223,117 235,108 263,80 291,52 320,23 348,-5 352,-6 330,16 302,45 273,73 245,101 229,117 255,94 283,66 312,38 340,9 351,2 322,31 293,59 265,87 236,117 247,109 275,81 303,52 332,24 350,9 342,17 314,45 285,74 257,102 243,116 267,95 295,67 324,38 348,17 334,31 305,60 277,88 250,115 259,109 287,81 315,53 344,25 345,26 325,46 297,74 269,103 257,115 279,96 307,67 336,39 343,35 317,60 289,89 264,114 271,110 299,82 327,54 341,40 339,45 309,75 281,103 272,112 291,96 319,68 337,50 334,57 329,61 301,89 281,109 287,107 311,82 329,64 323,73 321,76 293,103 309,91 310,90 309,90 309,91" /><polyline  stroke="white" points="-305,-90 -304,-87 -305,-90 -297,-72 -294,-63 -296,-53 -308,-39 -318,-37 -327,-39 -341,-53 -339,-72 -324,-84 -305,-90 -318,-79 -330,-67 -343,-56 -343,-56 -339,-72 -326,-83 -326,-57 -326,-39 -310,-38 -310,-69 -310,-89 -305,-90 -299,-74 -293,-59 -293,-59 -293,-59 -305,-90 -321,-93 -313,-93 -313,-93 -310,-93 -323,-93 -331,-91 -299,-89 -326,-89 -334,-89 -314,-87 -294,-85 -302,-85 -340,-85 -330,-83 -290,-81 -318,-81 -345,-81 -306,-79 -287,-77 -294,-77 -334,-77 -348,-77 -322,-75 -285,-73 -310,-73 -351,-73 -338,-71 -298,-71 -283,-69 -286,-69 -326,-69 -352,-69 -314,-67 -282,-65 -302,-65 -342,-65 -353,-65 -330,-63 -290,-63 -281,-61 -318,-61 -354,-61 -346,-59 -306,-59 -281,-57 -294,-57 -334,-57 -354,-57 -322,-55 -282,-53 -310,-53 -350,-53 -353,-53 -338,-51 -298,-51 -284,-49 -326,-49 -353,-49 -314,-47 -286,-45 -302,-45 -342,-45 -350,-45 -330,-43 -288,-41 -318,-41 -347,-41 -306,-39 -292,-37 -334,-37 -343,-37 -322,-35 -296,-33 -310,-33 -338,-33 -303,-29 -326,-29 -330,-29 -318,-27 -315,-27 -314,-27 -318,-27" /><polyline  stroke="white" points="160,-88 162,-86 160,-88 171,-74 178,-58 170,-42 154,-35 145,-35 138,-40 126,-54 130,-71 143,-83 160,-88 149,-77 137,-65 126,-54 126,-54 133,-67 139,-80 139,-57 139,-39 152,-35 152,-69 152,-86 160,-88 169,-73 178,-58 171,-48 165,-39 165,-82 160,-88 151,-93 157,-93 157,-93 160,-93 147,-93 160,-93 167,-91 139,-91 154,-89 174,-87 166,-87 132,-87 138,-85 179,-83 150,-83 127,-83 162,-81 182,-79 174,-79 134,-79 123,-79 146,-77 185,-75 158,-75 120,-75 130,-73 170,-73 187,-71 182,-71 142,-71 118,-71 154,-69 189,-67 166,-67 126,-67 117,-67 138,-65 178,-65 190,-63 150,-63 115,-63 122,-61 162,-61 190,-59 174,-59 134,-59 115,-59 146,-57 186,-57 190,-55 158,-55 118,-55 115,-55 130,-53 170,-53 188,-51 182,-51 142,-51 116,-51 154,-49 186,-47 166,-47 126,-47 117,-47 138,-45 178,-45 184,-43 150,-43 120,-43 162,-41 183,-39 174,-39 134,-39 122,-39 146,-37 179,-35 158,-35 126,-35 170,-33 174,-31 142,-31 132,-31 154,-29 167,-27 164,-27 140,-27 155,-25 156,-25 158,-25 153,-25 155,-25 153,-25 155,-25" /><polyline class="left-outline"  points="-320,-97 -320,-95 -320,-97 -320,-100 -320,-95 -295,-94 -285,-87 -277,-69 -279,-47 -287,-34 -305,-22 -326,-22 -348,-27 -344,2 -338,23 -332,43 -320,63 -307,82 -292,92 -276,102 -260,106 -244,110 -228,109 -211,108 -197,102 -182,96 -170,84 -157,72 -147,53 -137,34 -133,15 -128,-4 -124,-23 -123,-42 -121,-60 -120,-79 -119,-97 -124,-97 -105,-94 -124,-95 -104,-90 -124,-93 -104,-85 -124,-89 -104,-82 -125,-84 -105,-78 -125,-80 -105,-74 -125,-75 -105,-70 -126,-71 -105,-66 -126,-67 -105,-62 -126,-62 -105,-58 -127,-58 -106,-54 -127,-53 -106,-50 -127,-49 -106,-45 -128,-45 -106,-41 -128,-41 -106,-37 -128,-36 -106,-32 -128,-32 -107,-28 -129,-28 -107,-23 -129,-24 -107,-19 -130,-20 -109,-14 -131,-16 -110,-10 -132,-12 -111,-6 -133,-8 -112,-1 -134,-4 -113,3 -135,0 -114,7 -135,5 -115,12 -136,9 -116,16 -137,13 -117,20 -138,17 -118,25 -139,21 -119,29 -140,25 -120,33 -141,29 -121,38 -142,32 -122,42 -144,36 -123,46 -145,40 -125,50 -147,43 -127,54 -149,46 -129,58 -151,50 -131,62 -152,53 -133,66 -154,56 -136,70 -156,59 -138,74 -158,63 -140,77 -159,66 -142,81 -161,69 -145,85 -164,72 -148,88 -167,74 -151,91 -169,77 -154,94 -172,79 -158,98 -174,81 -161,101 -177,84 -164,103 -179,86 -168,105 -182,89 -172,108 -185,91 -176,110 -189,93 -180,112 -192,94 -184,114 -195,96 -188,116 -198,97 -192,118 -202,99 -196,121 -205,100 -200,122 -208,101 -204,123 -212,103 -208,124 -215,103 -213,125 -219,104 -217,126 -222,104 -221,127 -226,104 -226,128 -229,104 -230,128 -233,104 -235,127 -236,105 -239,127 -240,105 -244,127 -244,105 -248,126 -248,104 -252,126 -251,103 -257,126 -255,102 -261,125 -258,102 -266,124 -262,101 -270,123 -265,100 -274,121 -269,99 -278,120 -272,98 -282,118 -276,97 -287,117 -279,95 -291,115 -282,93 -294,113 -285,91 -298,110 -288,89 -302,108 -290,88 -306,105 -293,86 -309,103 -296,84 -313,100 -299,82 -316,97 -302,80 -319,94 -305,77 -322,90 -307,74 -324,87 -309,71 -327,83 -311,68 -330,80 -313,65 -333,76 -315,62 -336,73 -317,59 -338,69 -319,55 -341,65 -321,52 -342,61 -323,49 -344,57 -325,45 -346,53 -327,42 -348,49 -329,39 -350,45 -330,35 -351,41 -331,31 -353,37 -332,27 -355,33 -333,24 -356,29 -334,20 -357,24 -335,16 -358,20 -336,12 -358,15 -337,8 -359,11 -339,4 -360,7 -340,0 -361,2 -340,-4 -362,-2 -341,-7 -362,-6 -342,-11 -363,-11 -342,-14 -364,-15 -343,-16 -365,-20 -343,-19 -366,-25 -343,-20 -367,-30 -343,-21 -367,-35 -343,-22 -365,-39 -343,-23 -360,-41 -340,-22 -356,-42 -337,-21 -351,-43 -336,-20 -347,-45 -335,-20 -343,-46 -334,-20 -338,-47 -333,-19 -334,-46 -332,-19 -330,-42 -331,-19 -326,-40 -327,-17 -323,-39 -323,-17 -320,-39 -318,-17 -317,-38 -314,-17 -315,-39 -309,-17 -312,-39 -305,-17 -310,-40 -301,-19 -308,-41 -297,-22 -306,-42 -293,-24 -304,-43 -289,-26 -303,-45 -286,-29 -302,-46 -282,-32 -300,-48 -280,-36 -298,-50 -278,-39 -297,-51 -275,-43 -296,-53 -274,-47 -296,-55 -274,-52 -296,-58 -273,-56 -295,-60 -273,-61 -295,-62 -273,-65 -295,-64 -273,-70 -295,-66 -274,-74 -296,-68 -276,-78 -297,-70 -278,-82 -298,-72 -280,-86 -299,-73 -282,-91 -300,-75 -285,-94 -302,-77 -288,-97 -303,-79 -292,-99 -305,-80 -297,-99 -307,-81 -302,-99 -309,-82 -306,-99 -312,-83 -311,-99 -315,-84 -315,-100 -318,-85 -320,-100 -320,-95 -342,-94 -364,-94 -363,-76 -363,-58 -362,-40 -362,-40 -336,-48 -367,-39 -336,-49 -367,-43 -338,-51 -367,-48 -339,-53 -367,-52 -339,-55 -367,-57 -339,-58 -367,-61 -339,-60 -367,-65 -339,-62 -367,-70 -339,-64 -367,-74 -339,-66 -367,-79 -339,-68 -367,-84 -339,-70 -367,-88 -338,-71 -367,-94 -338,-73 -365,-97 -337,-74 -358,-97 -335,-75 -353,-98 -334,-76 -347,-98 -333,-77 -342,-99 -331,-79 -338,-99 -329,-80 -333,-99 -327,-82 -328,-99 -324,-84 -324,-100 -321,-84 -321,-84 -320,-100 -320,-97 -320,-100 -320,-89 -320,-92 -320,-89 -320,-94 -300,-94 -280,-94 -261,-94 -241,-94 -221,-94 -201,-94 -181,-94 -161,-94 -142,-94 -122,-94 -104,-88 -83,-95 -82,-98 -84,-92 -84,-100 -88,-90 -87,-104 -92,-88 -91,-108 -96,-87 -95,-110 -100,-85 -99,-111 -104,-83 -103,-111 -108,-84 -108,-111 -112,-86 -112,-111 -116,-87 -117,-111 -120,-88 -121,-111 -124,-89 -125,-111 -128,-89 -130,-111 -132,-89 -134,-111 -136,-89 -138,-111 -140,-89 -143,-111 -145,-89 -147,-111 -149,-89 -151,-111 -153,-89 -156,-111 -158,-89 -160,-111 -162,-89 -164,-111 -166,-89 -169,-111 -171,-89 -173,-111 -175,-89 -178,-111 -180,-89 -182,-111 -184,-89 -186,-111 -189,-89 -191,-111 -193,-89 -195,-111 -197,-89 -200,-111 -202,-89 -204,-111 -206,-89 -209,-110 -211,-89 -213,-110 -215,-89 -218,-110 -220,-89 -222,-110 -224,-89 -226,-110 -229,-89 -231,-110 -233,-89 -235,-110 -237,-89 -240,-110 -242,-89 -244,-110 -246,-89 -249,-110 -251,-89 -253,-110 -255,-89 -258,-110 -260,-89 -262,-110 -264,-89 -266,-110 -269,-89 -271,-110 -273,-89 -275,-110 -277,-89 -280,-110 -282,-89 -284,-110 -286,-88 -289,-110 -291,-88 -293,-110 -295,-88 -298,-110 -300,-88 -302,-110 -304,-88 -306,-110 -309,-88 -311,-110 -313,-88 -315,-110 -317,-89 -320,-110 -320,-110 -322,-89 -342,-88 -361,-88 -381,-88 -384,-71 -386,-55 -389,-38 -393,-41 -388,-43 -395,-45 -387,-47 -396,-49 -387,-52 -398,-53 -386,-56 -400,-57 -385,-61 -401,-62 -385,-65 -402,-66 -384,-69 -402,-71 -383,-73 -403,-75 -383,-76 -403,-80 -382,-79 -404,-84 -382,-81 -404,-89 -382,-82 -405,-94 -382,-84 -406,-100 -381,-85 -405,-105 -381,-86 -401,-107 -381,-88 -396,-108 -379,-88 -391,-109 -378,-88 -387,-109 -376,-88 -382,-110 -374,-88 -378,-110 -372,-88 -373,-110 -369,-88 -369,-110 -366,-88 -364,-110 -362,-88 -360,-110 -357,-88 -355,-110 -353,-88 -351,-110 -349,-88 -346,-110 -344,-88 -342,-110 -340,-88 -338,-110 -335,-88 -333,-110 -331,-89 -329,-110 -326,-89 -324,-110 -322,-89 -322,-92 -322,-89" /><polyline class="right-outline"  points="149,-98 149,-96 149,-98 149,-101 149,-96 174,-94 189,-78 193,-59 187,-40 171,-25 155,-21 125,-23 129,1 134,26 141,41 149,56 157,72 170,84 183,96 199,103 214,109 232,111 250,108 267,106 281,99 296,92 314,74 324,58 333,41 338,20 343,-2 348,-23 349,-43 351,-62 352,-82 355,-97 355,-97 350,-97 369,-93 349,-93 368,-89 348,-89 368,-85 347,-84 368,-81 347,-80 368,-76 347,-75 368,-72 346,-71 368,-67 346,-67 367,-63 346,-62 367,-59 345,-58 367,-54 345,-53 367,-50 345,-49 367,-45 345,-45 367,-41 344,-40 367,-37 344,-36 366,-32 344,-32 366,-28 344,-28 366,-23 343,-24 366,-19 343,-20 365,-15 342,-16 363,-10 341,-12 362,-6 340,-8 361,-2 340,-4 360,3 339,0 359,7 338,4 358,11 337,9 357,16 336,13 356,20 335,17 355,24 334,21 354,29 333,25 353,33 332,29 352,37 331,32 351,42 330,36 350,46 329,40 348,50 327,43 346,54 325,47 344,58 323,50 342,62 321,53 340,66 319,56 337,70 317,59 335,73 315,62 333,77 313,66 331,81 311,69 328,85 309,72 325,88 306,75 322,91 304,77 318,94 301,79 315,97 299,82 312,100 297,84 308,103 294,87 305,106 291,89 302,109 287,90 298,111 284,92 294,113 281,94 290,115 278,95 285,116 275,97 281,118 272,98 277,119 269,100 273,121 265,101 269,123 261,102 265,124 258,102 260,125 254,103 256,125 250,103 251,126 247,104 247,126 243,104 243,126 239,105 238,126 236,105 234,126 232,106 229,126 228,106 225,126 225,105 220,126 221,105 216,126 218,104 211,126 214,104 207,124 211,102 203,123 207,101 199,121 204,99 195,119 201,98 191,118 198,97 186,116 195,96 182,114 191,94 178,113 188,93 174,110 184,91 171,108 182,88 167,105 179,86 164,102 177,83 160,99 174,81 157,96 172,79 153,94 169,76 150,91 166,74 147,87 164,71 145,83 161,69 143,80 159,65 140,76 157,62 138,72 156,58 135,68 154,55 133,65 152,52 131,61 150,48 128,57 149,45 126,53 147,41 124,49 145,38 123,45 143,34 121,41 142,31 120,37 140,27 119,32 138,24 117,28 138,20 116,24 137,16 115,20 136,12 114,15 135,8 113,11 134,4 112,6 134,0 112,2 133,-4 111,-2 132,-7 110,-7 132,-10 109,-11 131,-13 109,-16 131,-15 108,-20 130,-16 107,-25 130,-18 106,-31 130,-20 108,-35 131,-20 112,-37 133,-20 116,-39 135,-19 121,-40 136,-19 125,-42 137,-19 129,-43 138,-19 133,-44 139,-18 138,-43 140,-18 142,-41 144,-17 147,-39 148,-16 150,-39 153,-15 153,-38 157,-16 155,-39 162,-18 158,-40 166,-19 160,-40 170,-20 162,-41 174,-22 164,-42 178,-25 165,-44 181,-28 167,-46 184,-31 168,-47 187,-34 170,-49 191,-37 171,-50 192,-41 173,-52 194,-45 173,-54 195,-50 173,-57 196,-54 174,-59 197,-58 174,-61 197,-63 174,-63 196,-67 174,-65 195,-71 174,-67 195,-76 173,-69 194,-80 172,-71 191,-84 171,-72 188,-87 169,-74 185,-91 168,-76 182,-94 167,-78 180,-98 165,-79 175,-99 163,-81 170,-99 161,-81 166,-99 159,-82 161,-100 156,-83 157,-99 153,-84 152,-100 152,-95 134,-96 109,-94 110,-75 110,-56 111,-37 111,-37 135,-45 106,-35 134,-46 106,-40 133,-48 106,-44 132,-50 106,-48 130,-53 106,-53 130,-56 106,-57 130,-59 106,-62 130,-62 106,-66 130,-64 106,-70 130,-66 106,-75 130,-68 106,-79 130,-70 106,-84 131,-72 106,-89 132,-73 106,-94 133,-74 109,-97 134,-75 114,-98 135,-76 120,-99 137,-77 125,-99 138,-79 129,-100 139,-80 134,-100 141,-82 139,-100 144,-83 143,-100 147,-84 148,-101 150,-85 150,-85 152,-100 152,-97 152,-100 148,-89 148,-89 148,-94 169,-94 190,-94 210,-94 231,-94 252,-94 273,-93 294,-93 315,-93 335,-93 356,-93 377,-93 385,-92 388,-76 391,-61 391,-61 393,-39 389,-41 395,-43 389,-45 396,-47 388,-50 398,-51 387,-54 400,-55 387,-58 402,-60 386,-63 402,-64 385,-67 403,-68 385,-71 403,-73 384,-74 404,-77 384,-77 405,-82 383,-80 405,-87 383,-81 406,-92 383,-83 406,-97 383,-84 407,-103 382,-86 405,-107 382,-87 400,-108 381,-88 395,-108 379,-88 390,-109 378,-88 385,-110 376,-88 381,-110 374,-88 376,-110 372,-88 372,-110 368,-88 367,-110 365,-88 363,-110 361,-88 359,-110 356,-88 354,-110 352,-88 350,-110 347,-88 345,-110 343,-88 341,-110 338,-88 336,-110 334,-88 332,-110 330,-88 327,-110 325,-88 323,-110 321,-88 319,-110 316,-88 314,-110 312,-88 310,-110 307,-88 305,-110 303,-88 301,-110 298,-88 296,-110 294,-88 292,-110 290,-88 287,-110 285,-88 283,-110 281,-89 279,-110 276,-89 274,-110 272,-89 270,-110 267,-89 265,-110 263,-89 261,-110 258,-89 256,-110 254,-89 252,-110 250,-89 247,-110 245,-89 243,-110 241,-89 239,-110 236,-89 234,-110 232,-89 230,-110 227,-89 225,-110 223,-89 221,-110 218,-89 216,-110 214,-89 212,-110 210,-89 207,-111 205,-89 203,-111 201,-89 199,-111 196,-89 194,-111 192,-89 190,-111 187,-89 185,-111 183,-89 181,-111 178,-89 176,-111 174,-89 172,-111 170,-89 168,-111 165,-89 163,-111 161,-89 159,-111 157,-89 155,-111 152,-89 150,-111 150,-111 148,-89 148,-94 123,-94 105,-88 84,-95 84,-95 85,-92 83,-98 87,-91 86,-102 91,-89 90,-106 95,-88 94,-109 99,-86 98,-110 104,-84 102,-111 108,-84 107,-111 111,-85 111,-111 115,-86 115,-111 119,-88 120,-111 123,-89 124,-111 127,-89 128,-111 131,-89 133,-111 135,-89 137,-111 140,-89 142,-111 144,-89 146,-111 148,-89 148,-92 148,-89" /><polyline   points="-197,-127 -194,-127 -197,-127 -179,-127 -160,-127 -142,-127 -124,-127 -142,-127 -124,-127 -142,-127 -160,-127 -142,-127 -160,-127 -179,-127 -160,-127 -179,-127 -197,-127 -179,-127 -197,-127 -194,-127 -197,-127" /><polyline   points="191,-127 188,-127 191,-127 173,-127 155,-127 136,-127 118,-127 136,-127 118,-127 136,-127 155,-127 136,-127 155,-127 173,-127 155,-127 173,-127 191,-127 173,-127 191,-127 188,-127 191,-127" /></svg>