<svg viewBox="-425 -150 850 300" fill="none" stroke="black" stroke-width="4"><polyline class="left-eye" stroke="red" points="-334,-27 -334,-24 -334,-27 -333,-7 -330,13 -324,32 -317,50 -309,69 -298,85 -283,98 -266,110 -249,118 -229,120 -209,118 -190,112 -175,98 -160,85 -147,71 -137,53 -131,34 -125,15 -121,-4 -119,-24 -117,-44 -116,-64 -134,-70 -152,-75 -170,-81 -188,-86 -207,-90 -226,-93 -245,-96 -263,-98 -281,-103 -270,-86 -265,-68 -267,-48 -279,-32 -296,-24 -315,-21 -334,-27 -328,-8 -322,10 -316,29 -310,48 -304,66 -298,85 -298,85 -307,67 -315,49 -324,32 -312,44 -284,72 -255,100 -234,121 -222,119 -210,118 -222,106 -250,78 -278,50 -307,21 -333,-5 -334,-27 -318,-19 -303,-10 -287,-2 -271,6 -256,14 -240,23 -224,31 -215,15 -206,-1 -202,-9 -194,-14 -178,-24 -163,-34 -147,-44 -132,-54 -116,-64 -117,-51 -118,-39 -146,-66 -156,-77 -169,-80 -182,-84 -195,-88 -179,-72 -151,-44 -123,-16 -120,-13 -122,-1 -124,10 -128,7 -156,-22 -185,-50 -213,-78 -228,-93 -244,-96 -260,-98 -246,-84 -218,-56 -190,-28 -162,1 -133,29 -131,32 -134,42 -137,53 -167,23 -195,-5 -223,-34 -252,-62 -267,-77 -265,-63 -267,-50 -257,-40 -229,-11 -200,17 -172,45 -147,71 -160,85 -178,68 -206,39 -234,11 -262,-17 -278,-33 -296,-24 -268,5 -239,33 -211,62 -183,90 -175,98 -189,111 -216,84 -245,56 -273,27 -301,-1 -323,-23 -334,-27 -342,-39 -340,-39 -342,-36 -338,-38 -342,-33 -334,-35 -342,-27 -329,-33 -332,-31 -342,-21 -325,-32 -342,-15 -330,-24 -320,-30 -341,-9 -338,-9 -315,-29 -328,-16 -341,-3 -318,-23 -309,-29 -336,-2 -340,2 -326,-8 -301,-30 -316,-15 -339,8 -334,6 -306,-22 -297,-31 -292,-33 -296,-29 -324,-1 -338,13 -337,16 -314,-8 -285,-36 -280,-41 -270,-54 -261,-67 -251,-80 -263,-91 -278,-100 -294,-107 -287,-107 -291,-103 -280,-108 -288,-100 -274,-108 -279,-103 -285,-96 -268,-107 -283,-92 -277,-95 -263,-106 -267,-102 -280,-89 -257,-106 -275,-88 -278,-84 -265,-95 -251,-105 -255,-101 -276,-80 -273,-80 -246,-104 -263,-87 -275,-75 -253,-94 -240,-103 -243,-101 -271,-73 -274,-70 -261,-79 -235,-102 -251,-86 -273,-65 -269,-65 -241,-93 -230,-102 -259,-72 -273,-58 -249,-79 -224,-101 -239,-86 -267,-57 -275,-50 -279,-43 -257,-64 -229,-93 -219,-100 -247,-71 -276,-43 -304,-15 -332,14 -337,18 -322,7 -294,-22 -266,-50 -237,-78 -213,-99 -227,-85 -256,-57 -284,-29 -312,0 -335,23 -330,21 -302,-7 -274,-35 -245,-64 -217,-92 -208,-98 -235,-71 -264,-42 -292,-14 -320,14 -334,28 -310,7 -282,-21 -254,-49 -225,-78 -202,-97 -215,-84 -244,-56 -272,-28 -300,0 -328,29 -332,32 -318,22 -290,-7 -262,-35 -234,-63 -205,-91 -197,-96 -223,-70 -252,-42 -280,-13 -308,15 -330,37 -327,36 -298,8 -270,-20 -242,-49 -213,-77 -192,-95 -203,-84 -232,-56 -260,-27 -288,1 -316,29 -329,41 -306,22 -278,-6 -250,-34 -222,-62 -193,-91 -187,-94 -212,-69 -240,-41 -268,-13 -296,15 -325,44 -327,46 -315,37 -286,9 -258,-20 -230,-48 -201,-76 -182,-93 -191,-83 -220,-55 -248,-27 -276,2 -305,30 -325,50 -294,23 -266,-5 -238,-34 -210,-62 -177,-91 -200,-69 -228,-40 -256,-12 -284,16 -313,44 -323,55 -303,37 -274,9 -246,-19 -218,-47 -190,-76 -172,-90 -179,-83 -208,-54 -236,-26 -264,2 -293,31 -322,60 -311,52 -283,24 -254,-5 -226,-33 -198,-61 -167,-88 -188,-68 -216,-40 -244,-12 -272,17 -301,45 -320,64 -291,38 -262,10 -234,-18 -206,-47 -178,-75 -163,-87 -168,-82 -196,-54 -224,-25 -252,3 -281,31 -309,59 -318,69 -299,53 -271,24 -242,-4 -214,-32 -186,-61 -158,-86 -176,-68 -204,-39 -232,-11 -261,17 -289,46 -316,73 -307,67 -279,39 -250,10 -222,-18 -194,-46 -166,-74 -153,-84 -156,-81 -184,-53 -212,-25 -240,4 -269,32 -297,60 -314,77 -287,53 -259,25 -230,-3 -202,-32 -174,-60 -148,-83 -164,-67 -192,-39 -220,-10 -249,18 -277,46 -305,75 -311,81 -295,68 -267,39 -239,11 -210,-17 -182,-45 -154,-74 -143,-81 -145,-79 -172,-52 -200,-24 -228,4 -257,32 -285,61 -308,84 -303,82 -275,54 -247,26 -218,-3 -190,-31 -162,-59 -138,-80 -152,-66 -180,-38 -208,-10 -237,19 -265,47 -293,75 -306,88 -283,68 -255,40 -227,12 -198,-17 -170,-45 -142,-73 -133,-79 -160,-52 -188,-23 -217,5 -245,33 -273,61 -303,91 -291,83 -263,54 -235,26 -206,-2 -178,-30 -150,-59 -128,-77 -140,-66 -168,-37 -196,-9 -225,19 -253,48 -281,76 -300,94 -271,69 -243,41 -215,12 -186,-16 -158,-44 -130,-73 -124,-75 -148,-51 -176,-23 -205,5 -233,34 -261,62 -289,90 -296,97 -279,83 -251,55 -223,27 -195,-1 -166,-30 -138,-58 -119,-74 -128,-65 -156,-37 -184,-8 -213,20 -241,48 -269,76 -293,100 -288,98 -259,70 -231,41 -203,13 -174,-15 -146,-44 -114,-72 -136,-51 -164,-22 -193,6 -221,34 -249,63 -277,91 -289,103 -267,84 -239,56 -211,27 -183,-1 -154,-29 -126,-57 -109,-71 -116,-64 -144,-36 -173,-8 -201,21 -229,49 -257,77 -286,106 -276,98 -247,70 -219,42 -191,14 -162,-15 -134,-43 -108,-66 -124,-50 -152,-22 -181,7 -209,35 -237,63 -266,92 -282,108 -255,85 -227,56 -199,28 -171,0 -142,-29 -114,-57 -108,-60 -132,-35 -161,-7 -189,21 -217,49 -245,78 -274,106 -279,111 -264,99 -235,71 -207,43 -179,14 -151,-14 -122,-42 -108,-53 -112,-49 -140,-21 -169,7 -197,36 -225,64 -254,92 -275,114 -244,85 -215,57 -187,29 -159,0 -130,-28 -109,-46 -120,-35 -149,-7 -177,22 -205,50 -233,78 -262,107 -271,116 -252,100 -223,71 -195,43 -167,15 -139,-13 -110,-39 -128,-20 -157,8 -185,36 -213,65 -242,93 -268,119 -260,114 -232,86 -203,58 -175,29 -147,1 -118,-27 -111,-32 -137,-6 -165,22 -193,51 -222,79 -250,107 -263,121 -240,100 -211,72 -183,44 -155,15 -127,-13 -111,-25 -117,-20 -145,9 -173,37 -201,65 -230,93 -259,123 -248,115 -220,87 -191,58 -163,30 -135,2 -112,-18 -125,-5 -153,23 -181,51 -210,80 -238,108 -255,125 -228,101 -200,73 -171,44 -143,16 -115,-12 -112,-12 -133,9 -161,38 -189,66 -218,94 -246,122 -250,126 -236,115 -208,87 -179,59 -151,31 -123,2 -113,-5 -141,24 -169,52 -198,80 -226,109 -245,128 -216,102 -188,73 -159,45 -131,17 -114,3 -121,10 -149,38 -178,66 -206,95 -234,123 -239,128 -224,116 -196,88 -167,60 -139,31 -116,11 -129,24 -157,53 -186,81 -214,109 -234,129 -204,102 -176,74 -147,46 -118,20 -137,39 -166,67 -194,95 -222,124 -227,129 -212,117 -184,88 -156,60 -127,32 -120,28 -145,53 -174,82 -202,110 -220,128 -192,103 -164,75 -135,46 -122,33 -124,38 -154,68 -182,96 -210,124 -213,127 -200,117 -172,89 -144,61 -126,43 -127,48 -134,54 -162,82 -190,110 -205,125 -180,104 -152,75 -130,57 -142,68 -170,97 -196,123 -191,121 -188,118 -160,90 -132,62 -135,68 -150,83 -178,111 -184,117 -155,91 -145,81 -146,83 -155,91 -153,89 -155,91" /><polyline class="right-eye" stroke="red" points="144,67 143,64 144,67 137,52 132,35 127,19 125,2 124,-15 140,-5 159,-2 177,-7 189,-21 195,-39 194,-58 186,-74 168,-80 185,-86 203,-91 221,-94 239,-97 257,-100 276,-101 294,-102 312,-101 330,-97 347,-90 345,-70 344,-50 343,-31 340,-11 337,9 333,28 326,47 319,65 308,82 294,96 278,108 261,117 242,124 223,120 203,116 184,110 169,98 157,82 144,67 154,78 164,89 174,101 172,101 172,101 172,101 144,67 160,55 175,43 191,31 206,19 222,7 238,-5 253,-18 269,-30 285,-42 300,-54 316,-66 331,-78 347,-90 347,-90 333,-94 320,-98 306,-102 312,-96 341,-68 345,-64 344,-51 343,-38 336,-45 307,-73 278,-101 265,-100 252,-99 273,-78 302,-50 331,-23 341,-13 339,-1 337,11 326,0 297,-28 268,-55 239,-83 227,-95 215,-93 202,-91 205,-88 234,-61 263,-33 292,-5 320,23 331,33 328,43 324,54 315,45 286,18 258,-10 229,-38 200,-66 181,-84 177,-83 186,-74 168,-80 186,-74 194,-59 195,-43 224,-15 252,13 281,40 310,68 315,72 308,80 302,88 276,63 247,35 218,7 189,-21 176,-6 185,2 213,30 242,58 271,86 287,101 279,107 271,113 266,108 237,81 208,53 179,25 150,-3 124,-15 124,0 145,20 174,48 203,75 232,103 251,121 235,121 220,120 198,98 169,70 140,43 131,34 144,67 139,70 148,54 157,38 166,22 175,6 184,-10 193,-26 202,-42 210,-58 219,-74 204,-76 188,-78 172,-79 156,-81 156,-81 161,-83 156,-77 167,-86 172,-88 160,-76 181,-91 165,-74 175,-81 190,-94 185,-88 170,-73 199,-96 175,-72 187,-81 207,-98 197,-88 180,-70 207,-95 214,-100 189,-73 183,-67 199,-81 221,-101 209,-88 186,-64 191,-66 219,-95 229,-102 201,-73 188,-60 211,-80 236,-103 221,-87 193,-58 189,-54 203,-66 231,-94 243,-104 241,-101 213,-73 190,-49 195,-51 223,-80 250,-105 233,-87 205,-58 190,-42 215,-65 243,-94 257,-106 253,-101 225,-72 197,-43 187,-34 186,-29 207,-51 235,-79 264,-106 245,-86 217,-58 189,-29 183,-23 177,-14 164,-7 150,0 137,8 126,-7 120,-24 123,-24 119,-21 126,-22 118,-13 130,-18 118,-7 123,-9 133,-16 118,0 137,-14 125,-1 119,5 135,-8 142,-12 120,11 127,6 146,-10 137,-1 121,16 151,-9 129,14 122,22 139,7 157,-8 149,0 123,27 131,21 163,-9 141,14 124,32 151,7 167,-9 172,-11 161,0 133,29 126,37 126,39 143,22 171,-7 199,-36 227,-65 255,-93 267,-106 255,-93 227,-65 199,-36 171,-7 143,22 127,42 153,15 181,-14 209,-43 237,-72 264,-101 270,-106 247,-79 219,-50 191,-21 163,7 135,36 129,47 145,29 173,0 201,-28 229,-57 257,-86 277,-107 266,-93 239,-64 211,-36 183,-7 155,22 130,51 137,44 165,15 193,-14 221,-43 249,-71 276,-100 283,-107 259,-78 231,-50 203,-21 175,8 147,37 132,56 157,30 185,1 213,-28 241,-57 268,-86 290,-108 278,-93 251,-64 223,-35 195,-6 167,22 139,51 134,60 149,44 177,15 205,-13 233,-42 261,-71 288,-100 296,-108 297,-105 270,-78 243,-49 215,-21 187,8 159,37 136,64 142,59 169,30 197,1 225,-28 253,-56 280,-85 302,-107 290,-92 263,-63 235,-35 207,-6 179,23 151,52 138,68 161,45 189,16 217,-13 245,-42 273,-71 300,-99 308,-107 282,-78 255,-49 227,-20 199,9 171,37 144,66 141,72 153,59 181,30 209,2 237,-27 265,-56 292,-85 313,-106 302,-92 275,-63 247,-34 219,-5 191,23 163,52 143,76 146,74 173,45 201,16 229,-13 257,-41 284,-70 312,-99 319,-106 294,-77 267,-48 239,-20 211,9 183,38 155,67 146,80 165,60 193,31 221,2 249,-27 277,-56 304,-84 324,-105 314,-91 286,-63 259,-34 231,-5 203,24 175,52 149,83 157,74 185,45 213,17 241,-12 269,-41 296,-70 324,-98 329,-104 306,-77 279,-48 251,-19 223,10 195,38 167,67 152,87 177,60 205,31 233,2 261,-26 288,-55 316,-84 334,-102 326,-91 298,-62 271,-33 243,-5 215,24 187,53 159,82 155,90 169,75 197,46 225,17 253,-12 281,-41 308,-69 338,-100 318,-76 291,-48 263,-19 235,10 207,39 179,67 158,93 162,89 189,60 217,32 245,3 273,-26 300,-55 328,-83 343,-98 338,-91 310,-62 283,-33 255,-4 227,25 199,53 171,82 160,97 181,75 209,46 237,17 265,-11 293,-40 320,-69 347,-97 330,-76 302,-47 275,-18 247,10 219,39 191,68 163,100 173,90 201,61 229,32 257,3 285,-26 312,-54 340,-83 351,-94 350,-90 322,-61 295,-33 267,-4 239,25 211,54 183,82 166,103 193,75 221,47 249,18 277,-11 304,-40 332,-68 353,-90 342,-76 314,-47 287,-18 259,11 231,40 203,68 175,97 170,106 185,90 213,61 241,32 269,4 297,-25 324,-54 353,-83 334,-61 306,-32 279,-3 251,25 223,54 195,83 173,109 177,105 205,76 233,47 261,18 289,-10 316,-39 344,-68 352,-76 326,-46 299,-18 271,11 243,40 215,69 187,98 176,112 197,90 225,62 253,33 281,4 308,-25 336,-53 351,-69 346,-61 318,-32 291,-3 263,26 235,55 207,83 180,115 189,105 217,76 245,47 273,19 301,-10 328,-39 351,-62 338,-46 311,-17 283,12 255,40 227,69 199,98 184,117 209,91 237,62 265,33 293,5 320,-24 348,-53 350,-55 330,-31 303,-3 275,26 247,55 219,84 191,113 189,118 201,105 229,77 257,48 285,19 313,-10 340,-38 350,-48 322,-17 295,12 267,41 239,70 211,98 193,120 221,91 249,62 277,34 305,5 332,-24 350,-42 342,-31 315,-2 287,27 259,55 231,84 203,113 198,121 213,106 241,77 269,48 297,20 324,-9 349,-35 334,-16 307,12 279,41 251,70 223,99 203,122 233,92 261,63 289,34 317,5 344,-23 349,-28 326,-2 299,27 271,56 243,85 215,113 208,124 225,106 253,77 281,49 309,20 336,-9 348,-21 345,-15 319,13 291,42 263,70 235,99 213,125 217,121 245,92 273,63 301,35 329,6 347,-13 338,-1 311,27 283,56 255,85 227,114 218,126 237,107 265,78 293,49 321,20 346,-6 331,13 303,42 275,71 247,100 223,128 229,121 257,93 285,64 313,35 340,6 345,1 323,28 295,57 267,85 239,114 228,129 249,107 277,78 305,50 333,21 344,9 315,42 287,71 259,100 234,130 241,122 269,93 297,64 325,35 342,17 335,28 307,57 279,86 251,115 240,130 261,108 289,79 317,50 340,26 327,43 299,72 271,100 246,129 253,122 281,93 309,65 338,35 319,57 291,86 263,115 254,128 273,108 301,79 329,50 335,44 332,50 311,72 283,101 259,126 265,123 293,94 321,65 330,55 328,61 303,87 275,115 271,119 279,115 285,108 313,80 324,68 320,76 295,101 288,108 297,101 307,92 297,101 299,99 297,101" /><polyline  stroke="white" points="-308,-40 -311,-41 -308,-40 -325,-47 -332,-64 -325,-81 -308,-88 -291,-81 -284,-64 -291,-47 -308,-40 -320,-52 -332,-64 -332,-64 -325,-81 -308,-88 -308,-52 -308,-40 -296,-52 -284,-64 -284,-64 -291,-81 -308,-88 -308,-52 -308,-40 -308,-29 -308,-46 -308,-64 -308,-81 -308,-98 -307,-98 -307,-98 -296,-96 -319,-96 -324,-94 -288,-91 -312,-91 -327,-91 -300,-89 -282,-87 -288,-87 -328,-87 -333,-87 -316,-85 -279,-82 -304,-82 -336,-82 -332,-80 -292,-80 -276,-78 -280,-78 -320,-78 -339,-78 -308,-76 -275,-74 -296,-74 -336,-74 -340,-74 -324,-71 -284,-71 -274,-69 -312,-69 -341,-69 -300,-67 -273,-65 -288,-65 -328,-65 -342,-65 -316,-62 -274,-60 -304,-60 -341,-60 -332,-58 -292,-58 -275,-56 -280,-56 -320,-56 -340,-56 -308,-54 -276,-51 -296,-51 -336,-51 -340,-51 -324,-49 -284,-49 -278,-47 -312,-47 -337,-47 -300,-45 -281,-42 -288,-42 -328,-42 -334,-42 -316,-40 -285,-38 -304,-38 -330,-38 -292,-36 -292,-34 -320,-34 -324,-34 -319,-31 -308,-31 -296,-31 -307,-29 -308,-29 -307,-29 -308,-29" /><polyline  stroke="white" points="157,-16 154,-17 157,-16 140,-23 133,-40 140,-57 157,-64 174,-57 181,-40 174,-23 157,-16 145,-28 133,-40 133,-40 140,-57 157,-64 157,-52 157,-16 169,-28 181,-40 181,-40 174,-57 157,-64 157,-52 157,-16 157,-5 157,-22 157,-40 157,-57 157,-74 158,-74 158,-74 169,-72 146,-72 141,-70 156,-70 177,-67 168,-67 138,-67 140,-65 183,-63 152,-63 132,-63 164,-61 186,-58 176,-58 136,-58 129,-58 148,-56 189,-54 160,-54 126,-54 132,-52 172,-52 190,-50 184,-50 144,-50 125,-50 156,-47 191,-45 168,-45 128,-45 124,-45 140,-43 180,-43 192,-41 152,-41 123,-41 164,-38 191,-36 176,-36 136,-36 124,-36 148,-34 190,-32 160,-32 125,-32 132,-30 172,-30 189,-27 184,-27 144,-27 125,-27 156,-25 187,-23 168,-23 128,-23 140,-21 180,-21 184,-18 152,-18 131,-18 164,-16 180,-14 176,-14 135,-14 148,-12 173,-10 160,-10 141,-10 146,-7 169,-7 158,-5 157,-5 158,-5 157,-5" /><polyline class="left-outline"  points="-307,-99 -307,-99 -325,-97 -343,-94 -344,-91 -359,-88 -358,-68 -356,-49 -354,-29 -352,-10 -350,10 -344,33 -338,56 -329,73 -320,90 -304,105 -288,120 -271,129 -255,139 -237,140 -219,141 -196,135 -177,124 -158,113 -147,102 -135,90 -128,74 -120,59 -112,43 -109,26 -105,9 -102,-8 -100,-27 -97,-46 -95,-65 -105,-67 -114,-63 -114,-63 -118,-65 -113,-68 -119,-61 -105,-67 -119,-59 -98,-65 -120,-56 -96,-61 -120,-53 -96,-56 -120,-50 -97,-51 -121,-47 -97,-47 -121,-44 -98,-43 -121,-40 -98,-38 -122,-37 -99,-34 -122,-33 -99,-29 -123,-30 -100,-25 -123,-26 -100,-20 -124,-21 -101,-16 -124,-17 -101,-12 -125,-13 -102,-7 -125,-8 -103,-3 -125,-4 -104,1 -126,0 -105,6 -126,4 -106,10 -127,8 -107,15 -128,12 -107,19 -129,16 -108,23 -130,20 -109,28 -131,24 -110,32 -133,28 -111,36 -134,32 -112,41 -135,36 -113,45 -136,39 -115,49 -137,43 -117,53 -138,47 -119,57 -139,50 -121,61 -140,54 -123,65 -142,58 -125,69 -145,61 -127,73 -147,64 -129,77 -149,67 -131,81 -151,70 -133,85 -154,73 -135,89 -156,76 -138,92 -158,79 -141,96 -160,82 -144,99 -162,85 -147,102 -164,88 -150,105 -167,90 -153,108 -170,93 -156,112 -173,95 -160,114 -176,97 -164,116 -179,99 -168,119 -182,101 -172,121 -185,103 -175,123 -188,105 -179,125 -192,107 -183,128 -195,109 -187,130 -198,111 -191,132 -201,113 -195,134 -205,114 -199,136 -208,115 -203,137 -211,116 -207,138 -214,117 -212,139 -218,118 -216,140 -221,118 -221,141 -225,119 -225,141 -228,119 -229,140 -231,119 -234,140 -234,118 -238,140 -238,118 -243,139 -241,118 -247,139 -244,118 -252,139 -248,117 -256,138 -251,116 -260,136 -254,114 -264,133 -257,112 -268,131 -260,110 -272,129 -262,108 -276,127 -265,107 -279,125 -268,105 -283,122 -272,103 -287,120 -275,100 -291,117 -278,98 -294,114 -281,96 -297,111 -284,93 -300,108 -287,90 -304,105 -289,87 -307,102 -292,85 -310,99 -294,82 -313,96 -297,79 -317,93 -299,76 -320,90 -302,74 -322,86 -304,71 -324,82 -307,68 -326,78 -309,65 -329,74 -310,62 -331,70 -311,58 -333,66 -313,55 -335,63 -314,51 -337,59 -316,48 -339,55 -317,44 -340,50 -318,40 -341,46 -320,37 -342,42 -321,33 -343,37 -323,29 -344,33 -324,25 -345,29 -325,21 -347,24 -326,17 -348,20 -326,13 -349,16 -327,9 -350,11 -328,5 -351,7 -329,1 -351,3 -329,-3 -351,-2 -330,-7 -352,-6 -330,-10 -352,-11 -331,-14 -353,-15 -332,-17 -353,-20 -332,-22 -353,-24 -332,-26 -354,-28 -331,-31 -354,-33 -329,-35 -355,-37 -328,-39 -355,-42 -326,-43 -356,-46 -324,-48 -356,-51 -326,-52 -356,-55 -328,-56 -357,-60 -330,-60 -357,-64 -330,-62 -358,-69 -330,-64 -358,-73 -329,-66 -359,-78 -329,-68 -359,-84 -328,-69 -357,-88 -328,-71 -352,-89 -328,-73 -347,-91 -327,-75 -343,-93 -326,-77 -339,-95 -325,-78 -334,-95 -323,-80 -329,-96 -321,-82 -325,-97 -318,-84 -320,-97 -315,-86 -316,-98 -312,-87 -311,-99 -308,-86 -308,-86 -307,-99 -280,-102 -271,-95 -261,-73 -261,-55 -268,-37 -285,-22 -308,-16 -333,-25 -324,-48 -331,-24 -322,-46 -327,-23 -319,-44 -323,-21 -316,-43 -319,-20 -313,-41 -314,-18 -311,-40 -310,-17 -308,-41 -306,-17 -306,-41 -302,-18 -303,-42 -297,-19 -301,-42 -293,-20 -299,-42 -289,-21 -297,-43 -285,-23 -295,-43 -281,-25 -292,-44 -278,-28 -291,-46 -275,-31 -290,-48 -271,-34 -289,-50 -269,-37 -287,-51 -266,-41 -286,-53 -265,-45 -285,-55 -263,-49 -284,-57 -262,-53 -284,-59 -261,-57 -284,-61 -261,-62 -284,-64 -261,-66 -284,-66 -261,-71 -284,-68 -262,-75 -284,-70 -264,-79 -284,-72 -266,-83 -285,-74 -268,-87 -287,-75 -270,-91 -288,-77 -272,-95 -289,-78 -275,-98 -290,-80 -279,-101 -292,-81 -283,-102 -294,-83 -288,-101 -296,-84 -293,-101 -299,-85 -298,-100 -302,-85 -303,-99 -305,-86 -307,-99 -307,-96 -307,-101 -326,-96 -343,-87 -360,-77 -372,-73 -388,-78 -406,-91 -416,-113 -416,-113 -418,-110 -414,-115 -417,-108 -410,-113 -416,-105 -407,-111 -414,-101 -403,-109 -412,-96 -400,-107 -410,-92 -397,-105 -408,-88 -394,-103 -405,-85 -391,-102 -402,-82 -388,-101 -398,-79 -385,-101 -395,-77 -383,-100 -391,-74 -381,-100 -387,-72 -379,-100 -383,-71 -377,-100 -379,-70 -375,-100 -374,-69 -373,-100 -370,-69 -370,-99 -365,-70 -368,-99 -361,-72 -365,-99 -357,-73 -362,-100 -353,-75 -359,-102 -349,-77 -356,-103 -345,-80 -353,-105 -341,-82 -349,-107 -337,-84 -345,-109 -334,-86 -341,-110 -330,-88 -337,-112 -327,-90 -332,-113 -323,-91 -328,-114 -320,-92 -324,-114 -316,-93 -319,-115 -313,-93 -315,-116 -309,-94 -310,-117 -305,-95 -306,-118 -302,-96 -302,-119 -298,-96 -297,-118 -294,-97 -293,-118 -290,-97 -288,-118 -286,-97 -284,-118 -282,-96 -279,-118 -278,-96 -275,-117 -274,-96 -271,-117 -270,-95 -266,-117 -266,-95 -262,-117 -261,-94 -257,-117 -257,-94 -253,-116 -253,-94 -248,-116 -249,-93 -244,-116 -244,-93 -240,-115 -240,-93 -235,-114 -236,-92 -231,-113 -232,-92 -226,-113 -228,-91 -222,-112 -224,-90 -218,-111 -219,-90 -213,-110 -215,-89 -209,-109 -211,-88 -205,-108 -207,-87 -200,-108 -202,-86 -196,-107 -198,-85 -191,-106 -194,-84 -187,-105 -190,-83 -183,-104 -186,-82 -178,-104 -182,-81 -174,-103 -178,-80 -170,-102 -174,-79 -165,-100 -170,-78 -161,-99 -166,-77 -157,-97 -162,-75 -153,-96 -158,-74 -149,-95 -154,-72 -144,-93 -150,-71 -140,-92 -145,-70 -136,-90 -141,-68 -132,-89 -137,-67 -128,-87 -133,-65 -123,-86 -129,-64 -119,-85 -125,-62 -115,-83 -121,-61 -111,-82 -117,-60 -117,-60 -106,-81 -108,-76 -97,-72 -82,-59 -67,-45 -73,-45 -69,-49 -76,-46 -71,-53 -79,-47 -74,-57 -83,-48 -77,-61 -87,-49 -80,-64 -91,-51 -84,-67 -94,-52 -87,-70 -98,-53 -91,-73 -102,-55 -94,-76 -105,-56 -98,-78 -109,-57 -102,-79 -113,-58 -106,-81 -107,-78 -106,-81" /><polyline class="right-outline"  points="117,-69 119,-67 117,-69 121,-65 144,-73 167,-80 178,-77 192,-61 198,-43 191,-19 176,-5 157,1 131,-7 131,-7 129,-3 136,-28 131,-2 140,-25 135,-1 143,-23 140,0 146,-21 144,2 149,-20 148,3 152,-18 152,4 154,-18 156,5 157,-19 161,4 159,-19 165,3 161,-20 169,2 164,-20 173,1 166,-21 178,-1 168,-21 181,-3 170,-22 184,-6 171,-24 188,-9 172,-26 191,-12 173,-28 194,-16 175,-30 196,-20 176,-32 197,-24 177,-34 198,-28 178,-36 200,-33 178,-38 201,-37 178,-40 202,-41 178,-42 202,-46 177,-44 201,-50 177,-47 199,-54 177,-49 198,-59 177,-51 197,-63 176,-53 194,-66 174,-55 191,-70 173,-56 188,-73 171,-57 185,-76 170,-59 182,-80 168,-60 178,-82 167,-61 174,-84 165,-63 170,-85 163,-64 165,-84 160,-65 161,-83 158,-65 156,-82 155,-65 152,-80 152,-65 147,-79 149,-64 143,-78 146,-63 139,-77 143,-62 134,-75 140,-59 130,-74 139,-57 126,-72 137,-54 122,-70 136,-53 117,-69 135,-51 112,-68 134,-50 107,-67 133,-48 101,-65 133,-47 100,-61 132,-46 100,-56 132,-43 101,-51 133,-41 102,-46 134,-38 102,-41 134,-35 103,-37 135,-33 103,-32 136,-30 104,-28 136,-26 104,-23 135,-22 105,-19 133,-18 106,-14 132,-13 106,-10 131,-9 107,-6 130,-4 107,-1 130,0 108,3 131,4 109,8 131,8 109,12 132,11 110,16 133,14 110,21 133,18 112,25 134,22 113,29 135,26 114,34 136,30 116,38 137,33 117,42 139,37 119,46 140,41 120,50 142,44 121,55 143,48 123,59 145,52 124,63 146,55 126,67 148,58 128,71 149,62 130,75 151,65 133,79 152,69 135,83 155,71 137,86 158,74 140,90 160,77 143,93 163,79 146,97 165,82 149,100 168,85 151,103 170,87 155,107 173,90 158,109 175,93 162,112 178,95 165,115 181,98 169,117 183,100 172,120 187,102 176,123 190,104 180,125 194,106 184,127 197,108 188,129 200,109 192,131 203,111 196,132 206,112 200,134 209,114 204,136 212,116 208,138 215,117 212,139 219,117 217,139 223,117 221,139 227,117 226,139 230,118 230,139 233,118 235,140 236,118 239,140 239,118 244,140 243,118 248,140 246,118 253,140 250,118 257,139 253,117 261,137 256,115 265,135 259,113 269,134 262,112 273,132 265,110 277,129 267,109 281,127 271,107 284,124 274,105 288,122 277,102 292,119 280,100 295,116 283,97 299,114 286,94 303,111 288,92 306,109 291,89 309,105 294,87 312,102 297,85 315,99 299,82 318,96 302,80 322,93 304,77 324,89 306,73 327,85 308,70 329,81 310,67 331,77 312,64 333,73 314,60 335,69 315,57 337,66 317,54 339,62 319,51 341,58 321,47 343,54 323,44 345,50 324,40 346,45 325,36 347,41 326,32 348,37 327,28 349,32 327,24 350,28 328,21 351,24 329,17 352,19 330,12 353,15 331,8 354,11 332,4 355,6 333,0 356,2 334,-4 356,-3 335,-8 357,-7 335,-12 357,-11 335,-16 357,-16 336,-20 358,-20 336,-25 358,-25 336,-29 358,-29 337,-33 359,-34 337,-38 359,-38 337,-42 360,-42 338,-46 360,-47 338,-51 360,-51 338,-55 361,-56 339,-58 361,-60 339,-63 361,-65 339,-67 362,-69 339,-70 362,-74 340,-74 363,-78 340,-77 363,-83 340,-81 361,-87 341,-86 355,-90 355,-90 341,-90 344,-90 341,-90 310,-95 310,-95 310,-100 328,-96 345,-87 362,-77 374,-73 390,-78 408,-91 408,-91 416,-115 419,-108 412,-113 417,-104 408,-110 416,-100 405,-108 414,-96 401,-106 412,-91 398,-105 410,-87 395,-103 406,-84 392,-101 403,-81 389,-101 399,-79 387,-101 395,-76 384,-100 391,-73 382,-100 387,-72 380,-100 383,-71 378,-100 379,-69 376,-100 374,-69 373,-100 370,-69 371,-99 366,-71 368,-99 361,-72 366,-100 357,-74 363,-101 353,-76 360,-102 349,-78 357,-104 345,-81 353,-106 342,-83 349,-107 338,-85 345,-109 334,-87 341,-111 331,-89 337,-112 328,-90 333,-113 324,-92 328,-114 320,-92 324,-115 317,-93 320,-116 313,-94 315,-116 310,-95 311,-117 306,-96 306,-118 302,-96 302,-118 298,-96 298,-118 294,-97 293,-118 290,-97 289,-118 286,-96 284,-118 282,-96 280,-118 278,-96 275,-117 274,-95 271,-117 270,-95 266,-117 266,-95 262,-117 262,-94 258,-117 257,-94 253,-116 253,-94 249,-116 249,-93 244,-116 245,-93 240,-115 241,-92 235,-114 236,-92 231,-113 232,-92 227,-112 228,-91 222,-111 224,-90 218,-111 220,-89 214,-110 215,-88 209,-109 211,-87 205,-108 207,-86 201,-107 203,-86 196,-106 198,-85 192,-106 194,-84 187,-105 190,-83 183,-104 186,-82 179,-103 182,-81 174,-102 178,-80 170,-101 174,-79 166,-100 170,-77 162,-98 166,-76 157,-97 162,-75 153,-96 158,-73 149,-94 154,-72 145,-93 150,-70 141,-91 146,-69 136,-90 142,-68 132,-88 137,-66 128,-87 133,-65 124,-86 129,-63 119,-84 125,-62 115,-83 117,-78 99,-72 80,-56 73,-44 69,-45 75,-45 71,-49 78,-46 73,-53 81,-47 75,-57 84,-48 78,-61 88,-49 81,-63 92,-51 85,-66 96,-52 88,-69 99,-53 92,-72 103,-54 95,-75 106,-55 99,-77 110,-57 103,-79 114,-58 107,-80 117,-59 111,-82 121,-61 121,-61 115,-83 116,-80 115,-83" /><polyline   points="-181,-140 -178,-140 -181,-140 -161,-139 -142,-135 -124,-129 -106,-120 -124,-129 -106,-120 -124,-129 -142,-135 -124,-129 -142,-135 -161,-139 -142,-135 -161,-139 -181,-140 -161,-139 -181,-140 -178,-140 -181,-140" /><polyline   points="109,-118 112,-119 109,-118 127,-127 145,-133 164,-137 184,-138 164,-137 184,-138 164,-137 145,-133 164,-137 145,-133 127,-127 145,-133 127,-127 109,-118 127,-127 109,-118 112,-119 109,-118" /></svg>