<svg viewBox="-425 -150 850 300" fill="none" stroke="black" stroke-width="4"><polyline class="left-eye" stroke="red" points="-335,-27 -335,-24 -335,-27 -334,-7 -331,13 -325,32 -318,50 -310,69 -299,85 -284,98 -267,110 -250,118 -230,120 -210,118 -191,112 -176,98 -161,85 -148,71 -138,53 -132,34 -126,15 -122,-4 -120,-24 -118,-44 -117,-64 -135,-70 -153,-75 -171,-81 -189,-86 -208,-90 -227,-93 -246,-96 -264,-98 -282,-103 -271,-86 -266,-68 -268,-48 -280,-32 -297,-24 -316,-21 -335,-27 -329,-8 -323,10 -317,29 -311,48 -305,66 -299,85 -299,85 -308,67 -316,49 -325,32 -313,44 -285,72 -256,100 -235,121 -223,119 -211,118 -223,106 -251,78 -279,50 -308,21 -334,-5 -335,-27 -319,-19 -304,-10 -288,-2 -272,6 -257,14 -241,23 -225,31 -216,15 -207,-1 -203,-9 -195,-14 -179,-24 -164,-34 -148,-44 -133,-54 -117,-64 -118,-51 -119,-39 -147,-66 -157,-77 -170,-80 -183,-84 -196,-88 -180,-72 -152,-44 -124,-16 -121,-13 -123,-1 -125,10 -129,7 -157,-22 -186,-50 -214,-78 -229,-93 -245,-96 -261,-98 -247,-84 -219,-56 -191,-28 -163,1 -134,29 -132,32 -135,42 -138,53 -168,23 -196,-5 -224,-34 -253,-62 -268,-77 -266,-63 -268,-50 -258,-40 -230,-11 -201,17 -173,45 -148,71 -161,85 -179,68 -207,39 -235,11 -263,-17 -279,-33 -297,-24 -269,5 -240,33 -212,62 -184,90 -176,98 -190,111 -217,84 -246,56 -274,27 -302,-1 -324,-23 -335,-27 -343,-39 -341,-39 -343,-36 -339,-38 -343,-33 -335,-35 -343,-27 -330,-33 -333,-31 -343,-21 -326,-32 -343,-15 -331,-24 -321,-30 -342,-9 -339,-9 -316,-29 -329,-16 -342,-3 -319,-23 -310,-29 -337,-2 -341,2 -327,-8 -302,-30 -317,-15 -340,8 -335,6 -307,-22 -298,-31 -293,-33 -297,-29 -325,-1 -339,13 -338,16 -315,-8 -286,-36 -281,-41 -271,-54 -262,-67 -252,-80 -264,-91 -279,-100 -295,-107 -288,-107 -292,-103 -281,-108 -289,-100 -275,-108 -280,-103 -286,-96 -269,-107 -284,-92 -278,-95 -264,-106 -268,-102 -281,-89 -258,-106 -276,-88 -279,-84 -266,-95 -252,-105 -256,-101 -277,-80 -274,-80 -247,-104 -264,-87 -276,-75 -254,-94 -241,-103 -244,-101 -272,-73 -275,-70 -262,-79 -236,-102 -252,-86 -274,-65 -270,-65 -242,-93 -231,-102 -260,-72 -274,-58 -250,-79 -225,-101 -240,-86 -268,-57 -276,-50 -280,-43 -258,-64 -230,-93 -220,-100 -248,-71 -277,-43 -305,-15 -333,14 -338,18 -323,7 -295,-22 -267,-50 -238,-78 -214,-99 -228,-85 -257,-57 -285,-29 -313,0 -336,23 -331,21 -303,-7 -275,-35 -246,-64 -218,-92 -209,-98 -236,-71 -265,-42 -293,-14 -321,14 -335,28 -311,7 -283,-21 -255,-49 -226,-78 -203,-97 -216,-84 -245,-56 -273,-28 -301,0 -329,29 -333,32 -319,22 -291,-7 -263,-35 -235,-63 -206,-91 -198,-96 -224,-70 -253,-42 -281,-13 -309,15 -331,37 -328,36 -299,8 -271,-20 -243,-49 -214,-77 -193,-95 -204,-84 -233,-56 -261,-27 -289,1 -317,29 -330,41 -307,22 -279,-6 -251,-34 -223,-62 -194,-91 -188,-94 -213,-69 -241,-41 -269,-13 -297,15 -326,44 -328,46 -316,37 -287,9 -259,-20 -231,-48 -202,-76 -183,-93 -192,-83 -221,-55 -249,-27 -277,2 -306,30 -326,50 -295,23 -267,-5 -239,-34 -211,-62 -178,-91 -201,-69 -229,-40 -257,-12 -285,16 -314,44 -324,55 -304,37 -275,9 -247,-19 -219,-47 -191,-76 -173,-90 -180,-83 -209,-54 -237,-26 -265,2 -294,31 -323,60 -312,52 -284,24 -255,-5 -227,-33 -199,-61 -168,-88 -189,-68 -217,-40 -245,-12 -273,17 -302,45 -321,64 -292,38 -263,10 -235,-18 -207,-47 -179,-75 -164,-87 -169,-82 -197,-54 -225,-25 -253,3 -282,31 -310,59 -319,69 -300,53 -272,24 -243,-4 -215,-32 -187,-61 -159,-86 -177,-68 -205,-39 -233,-11 -262,17 -290,46 -317,73 -308,67 -280,39 -251,10 -223,-18 -195,-46 -167,-74 -154,-84 -157,-81 -185,-53 -213,-25 -241,4 -270,32 -298,60 -315,77 -288,53 -260,25 -231,-3 -203,-32 -175,-60 -149,-83 -165,-67 -193,-39 -221,-10 -250,18 -278,46 -306,75 -312,81 -296,68 -268,39 -240,11 -211,-17 -183,-45 -155,-74 -144,-81 -146,-79 -173,-52 -201,-24 -229,4 -258,32 -286,61 -309,84 -304,82 -276,54 -248,26 -219,-3 -191,-31 -163,-59 -139,-80 -153,-66 -181,-38 -209,-10 -238,19 -266,47 -294,75 -307,88 -284,68 -256,40 -228,12 -199,-17 -171,-45 -143,-73 -134,-79 -161,-52 -189,-23 -218,5 -246,33 -274,61 -304,91 -292,83 -264,54 -236,26 -207,-2 -179,-30 -151,-59 -129,-77 -141,-66 -169,-37 -197,-9 -226,19 -254,48 -282,76 -301,94 -272,69 -244,41 -216,12 -187,-16 -159,-44 -131,-73 -125,-75 -149,-51 -177,-23 -206,5 -234,34 -262,62 -290,90 -297,97 -280,83 -252,55 -224,27 -196,-1 -167,-30 -139,-58 -120,-74 -129,-65 -157,-37 -185,-8 -214,20 -242,48 -270,76 -294,100 -289,98 -260,70 -232,41 -204,13 -175,-15 -147,-44 -115,-72 -137,-51 -165,-22 -194,6 -222,34 -250,63 -278,91 -290,103 -268,84 -240,56 -212,27 -184,-1 -155,-29 -127,-57 -110,-71 -117,-64 -145,-36 -174,-8 -202,21 -230,49 -258,77 -287,106 -277,98 -248,70 -220,42 -192,14 -163,-15 -135,-43 -109,-66 -125,-50 -153,-22 -182,7 -210,35 -238,63 -267,92 -283,108 -256,85 -228,56 -200,28 -172,0 -143,-29 -115,-57 -109,-60 -133,-35 -162,-7 -190,21 -218,49 -246,78 -275,106 -280,111 -265,99 -236,71 -208,43 -180,14 -152,-14 -123,-42 -109,-53 -113,-49 -141,-21 -170,7 -198,36 -226,64 -255,92 -276,114 -245,85 -216,57 -188,29 -160,0 -131,-28 -110,-46 -121,-35 -150,-7 -178,22 -206,50 -234,78 -263,107 -272,116 -253,100 -224,71 -196,43 -168,15 -140,-13 -111,-39 -129,-20 -158,8 -186,36 -214,65 -243,93 -269,119 -261,114 -233,86 -204,58 -176,29 -148,1 -119,-27 -112,-32 -138,-6 -166,22 -194,51 -223,79 -251,107 -264,121 -241,100 -212,72 -184,44 -156,15 -128,-13 -112,-25 -118,-20 -146,9 -174,37 -202,65 -231,93 -260,123 -249,115 -221,87 -192,58 -164,30 -136,2 -113,-18 -126,-5 -154,23 -182,51 -211,80 -239,108 -256,125 -229,101 -201,73 -172,44 -144,16 -116,-12 -113,-12 -134,9 -162,38 -190,66 -219,94 -247,122 -251,126 -237,115 -209,87 -180,59 -152,31 -124,2 -114,-5 -142,24 -170,52 -199,80 -227,109 -246,128 -217,102 -189,73 -160,45 -132,17 -115,3 -122,10 -150,38 -179,66 -207,95 -235,123 -240,128 -225,116 -197,88 -168,60 -140,31 -117,11 -130,24 -158,53 -187,81 -215,109 -235,129 -205,102 -177,74 -148,46 -119,20 -138,39 -167,67 -195,95 -223,124 -228,129 -213,117 -185,88 -157,60 -128,32 -121,28 -146,53 -175,82 -203,110 -221,128 -193,103 -165,75 -136,46 -123,33 -125,38 -155,68 -183,96 -211,124 -214,127 -201,117 -173,89 -145,61 -127,43 -128,48 -135,54 -163,82 -191,110 -206,125 -181,104 -153,75 -131,57 -143,68 -171,97 -197,123 -192,121 -189,118 -161,90 -133,62 -136,68 -151,83 -179,111 -185,117 -156,91 -146,81 -147,83 -156,91 -154,89 -156,91" /><polyline class="right-eye" stroke="red" points="143,67 142,64 143,67 136,52 131,35 126,19 124,2 123,-15 139,-5 158,-2 176,-7 188,-21 194,-39 193,-58 185,-74 167,-80 184,-86 202,-91 220,-94 238,-97 256,-100 275,-101 293,-102 311,-101 329,-97 346,-90 344,-70 343,-50 342,-31 339,-11 336,9 332,28 325,47 318,65 307,82 293,96 277,108 260,117 241,124 222,120 202,116 183,110 168,98 156,82 143,67 153,78 163,89 173,101 171,101 171,101 171,101 143,67 159,55 174,43 190,31 205,19 221,7 237,-5 252,-18 268,-30 284,-42 299,-54 315,-66 330,-78 346,-90 346,-90 332,-94 319,-98 305,-102 311,-96 340,-68 344,-64 343,-51 342,-38 335,-45 306,-73 277,-101 264,-100 251,-99 272,-78 301,-50 330,-23 340,-13 338,-1 336,11 325,0 296,-28 267,-55 238,-83 226,-95 214,-93 201,-91 204,-88 233,-61 262,-33 291,-5 319,23 330,33 327,43 323,54 314,45 285,18 257,-10 228,-38 199,-66 180,-84 176,-83 185,-74 167,-80 185,-74 193,-59 194,-43 223,-15 251,13 280,40 309,68 314,72 307,80 301,88 275,63 246,35 217,7 188,-21 175,-6 184,2 212,30 241,58 270,86 286,101 278,107 270,113 265,108 236,81 207,53 178,25 149,-3 123,-15 123,0 144,20 173,48 202,75 231,103 250,121 234,121 219,120 197,98 168,70 139,43 130,34 143,67 138,70 147,54 156,38 165,22 174,6 183,-10 192,-26 201,-42 209,-58 218,-74 203,-76 187,-78 171,-79 155,-81 155,-81 160,-83 155,-77 166,-86 171,-88 159,-76 180,-91 164,-74 174,-81 189,-94 184,-88 169,-73 198,-96 174,-72 186,-81 206,-98 196,-88 179,-70 206,-95 213,-100 188,-73 182,-67 198,-81 220,-101 208,-88 185,-64 190,-66 218,-95 228,-102 200,-73 187,-60 210,-80 235,-103 220,-87 192,-58 188,-54 202,-66 230,-94 242,-104 240,-101 212,-73 189,-49 194,-51 222,-80 249,-105 232,-87 204,-58 189,-42 214,-65 242,-94 256,-106 252,-101 224,-72 196,-43 186,-34 185,-29 206,-51 234,-79 263,-106 244,-86 216,-58 188,-29 182,-23 176,-14 163,-7 149,0 136,8 125,-7 119,-24 122,-24 118,-21 125,-22 117,-13 129,-18 117,-7 122,-9 132,-16 117,0 136,-14 124,-1 118,5 134,-8 141,-12 119,11 126,6 145,-10 136,-1 120,16 150,-9 128,14 121,22 138,7 156,-8 148,0 122,27 130,21 162,-9 140,14 123,32 150,7 166,-9 171,-11 160,0 132,29 125,37 125,39 142,22 170,-7 198,-36 226,-65 254,-93 266,-106 254,-93 226,-65 198,-36 170,-7 142,22 126,42 152,15 180,-14 208,-43 236,-72 263,-101 269,-106 246,-79 218,-50 190,-21 162,7 134,36 128,47 144,29 172,0 200,-28 228,-57 256,-86 276,-107 265,-93 238,-64 210,-36 182,-7 154,22 129,51 136,44 164,15 192,-14 220,-43 248,-71 275,-100 282,-107 258,-78 230,-50 202,-21 174,8 146,37 131,56 156,30 184,1 212,-28 240,-57 267,-86 289,-108 277,-93 250,-64 222,-35 194,-6 166,22 138,51 133,60 148,44 176,15 204,-13 232,-42 260,-71 287,-100 295,-108 296,-105 269,-78 242,-49 214,-21 186,8 158,37 135,64 141,59 168,30 196,1 224,-28 252,-56 279,-85 301,-107 289,-92 262,-63 234,-35 206,-6 178,23 150,52 137,68 160,45 188,16 216,-13 244,-42 272,-71 299,-99 307,-107 281,-78 254,-49 226,-20 198,9 170,37 143,66 140,72 152,59 180,30 208,2 236,-27 264,-56 291,-85 312,-106 301,-92 274,-63 246,-34 218,-5 190,23 162,52 142,76 145,74 172,45 200,16 228,-13 256,-41 283,-70 311,-99 318,-106 293,-77 266,-48 238,-20 210,9 182,38 154,67 145,80 164,60 192,31 220,2 248,-27 276,-56 303,-84 323,-105 313,-91 285,-63 258,-34 230,-5 202,24 174,52 148,83 156,74 184,45 212,17 240,-12 268,-41 295,-70 323,-98 328,-104 305,-77 278,-48 250,-19 222,10 194,38 166,67 151,87 176,60 204,31 232,2 260,-26 287,-55 315,-84 333,-102 325,-91 297,-62 270,-33 242,-5 214,24 186,53 158,82 154,90 168,75 196,46 224,17 252,-12 280,-41 307,-69 337,-100 317,-76 290,-48 262,-19 234,10 206,39 178,67 157,93 161,89 188,60 216,32 244,3 272,-26 299,-55 327,-83 342,-98 337,-91 309,-62 282,-33 254,-4 226,25 198,53 170,82 159,97 180,75 208,46 236,17 264,-11 292,-40 319,-69 346,-97 329,-76 301,-47 274,-18 246,10 218,39 190,68 162,100 172,90 200,61 228,32 256,3 284,-26 311,-54 339,-83 350,-94 349,-90 321,-61 294,-33 266,-4 238,25 210,54 182,82 165,103 192,75 220,47 248,18 276,-11 303,-40 331,-68 352,-90 341,-76 313,-47 286,-18 258,11 230,40 202,68 174,97 169,106 184,90 212,61 240,32 268,4 296,-25 323,-54 352,-83 333,-61 305,-32 278,-3 250,25 222,54 194,83 172,109 176,105 204,76 232,47 260,18 288,-10 315,-39 343,-68 351,-76 325,-46 298,-18 270,11 242,40 214,69 186,98 175,112 196,90 224,62 252,33 280,4 307,-25 335,-53 350,-69 345,-61 317,-32 290,-3 262,26 234,55 206,83 179,115 188,105 216,76 244,47 272,19 300,-10 327,-39 350,-62 337,-46 310,-17 282,12 254,40 226,69 198,98 183,117 208,91 236,62 264,33 292,5 319,-24 347,-53 349,-55 329,-31 302,-3 274,26 246,55 218,84 190,113 188,118 200,105 228,77 256,48 284,19 312,-10 339,-38 349,-48 321,-17 294,12 266,41 238,70 210,98 192,120 220,91 248,62 276,34 304,5 331,-24 349,-42 341,-31 314,-2 286,27 258,55 230,84 202,113 197,121 212,106 240,77 268,48 296,20 323,-9 348,-35 333,-16 306,12 278,41 250,70 222,99 202,122 232,92 260,63 288,34 316,5 343,-23 348,-28 325,-2 298,27 270,56 242,85 214,113 207,124 224,106 252,77 280,49 308,20 335,-9 347,-21 344,-15 318,13 290,42 262,70 234,99 212,125 216,121 244,92 272,63 300,35 328,6 346,-13 337,-1 310,27 282,56 254,85 226,114 217,126 236,107 264,78 292,49 320,20 345,-6 330,13 302,42 274,71 246,100 222,128 228,121 256,93 284,64 312,35 339,6 344,1 322,28 294,57 266,85 238,114 227,129 248,107 276,78 304,50 332,21 343,9 314,42 286,71 258,100 233,130 240,122 268,93 296,64 324,35 341,17 334,28 306,57 278,86 250,115 239,130 260,108 288,79 316,50 339,26 326,43 298,72 270,100 245,129 252,122 280,93 308,65 337,35 318,57 290,86 262,115 253,128 272,108 300,79 328,50 334,44 331,50 310,72 282,101 258,126 264,123 292,94 320,65 329,55 327,61 302,87 274,115 270,119 278,115 284,108 312,80 323,68 319,76 294,101 287,108 296,101 306,92 296,101 298,99 296,101" /><polyline  stroke="white" points="-309,-40 -312,-41 -309,-40 -326,-47 -333,-64 -326,-81 -309,-88 -292,-81 -285,-64 -292,-47 -309,-40 -321,-52 -333,-64 -333,-64 -326,-81 -309,-88 -309,-52 -309,-40 -297,-52 -285,-64 -285,-64 -292,-81 -309,-88 -309,-52 -309,-40 -309,-29 -309,-46 -309,-64 -309,-81 -309,-98 -308,-98 -308,-98 -297,-96 -320,-96 -325,-94 -289,-91 -313,-91 -328,-91 -301,-89 -283,-87 -289,-87 -329,-87 -334,-87 -317,-85 -280,-82 -305,-82 -337,-82 -333,-80 -293,-80 -277,-78 -281,-78 -321,-78 -340,-78 -309,-76 -276,-74 -297,-74 -337,-74 -341,-74 -325,-71 -285,-71 -275,-69 -313,-69 -342,-69 -301,-67 -274,-65 -289,-65 -329,-65 -343,-65 -317,-62 -275,-60 -305,-60 -342,-60 -333,-58 -293,-58 -276,-56 -281,-56 -321,-56 -341,-56 -309,-54 -277,-51 -297,-51 -337,-51 -341,-51 -325,-49 -285,-49 -279,-47 -313,-47 -338,-47 -301,-45 -282,-42 -289,-42 -329,-42 -335,-42 -317,-40 -286,-38 -305,-38 -331,-38 -293,-36 -293,-34 -321,-34 -325,-34 -320,-31 -309,-31 -297,-31 -308,-29 -309,-29 -308,-29 -309,-29" /><polyline  stroke="white" points="156,-16 153,-17 156,-16 139,-23 132,-40 139,-57 156,-64 173,-57 180,-40 173,-23 156,-16 144,-28 132,-40 132,-40 139,-57 156,-64 156,-52 156,-16 168,-28 180,-40 180,-40 173,-57 156,-64 156,-52 156,-16 156,-5 156,-22 156,-40 156,-57 156,-74 157,-74 157,-74 168,-72 145,-72 140,-70 155,-70 176,-67 167,-67 137,-67 139,-65 182,-63 151,-63 131,-63 163,-61 185,-58 175,-58 135,-58 128,-58 147,-56 188,-54 159,-54 125,-54 131,-52 171,-52 189,-50 183,-50 143,-50 124,-50 155,-47 190,-45 167,-45 127,-45 123,-45 139,-43 179,-43 191,-41 151,-41 122,-41 163,-38 190,-36 175,-36 135,-36 123,-36 147,-34 189,-32 159,-32 124,-32 131,-30 171,-30 188,-27 183,-27 143,-27 124,-27 155,-25 186,-23 167,-23 127,-23 139,-21 179,-21 183,-18 151,-18 130,-18 163,-16 179,-14 175,-14 134,-14 147,-12 172,-10 159,-10 140,-10 145,-7 168,-7 157,-5 156,-5 157,-5 156,-5" /><polyline class="left-outline"  points="-308,-99 -308,-99 -326,-97 -344,-94 -345,-91 -360,-88 -359,-68 -357,-49 -355,-29 -353,-10 -351,10 -345,33 -339,56 -330,73 -321,90 -305,105 -289,120 -272,129 -256,139 -238,140 -220,141 -197,135 -178,124 -159,113 -148,102 -136,90 -129,74 -121,59 -113,43 -110,26 -106,9 -103,-8 -101,-27 -98,-46 -96,-65 -106,-67 -115,-63 -115,-63 -119,-65 -114,-68 -120,-61 -106,-67 -120,-59 -99,-65 -121,-56 -97,-61 -121,-53 -97,-56 -121,-50 -98,-51 -122,-47 -98,-47 -122,-44 -99,-43 -122,-40 -99,-38 -123,-37 -100,-34 -123,-33 -100,-29 -124,-30 -101,-25 -124,-26 -101,-20 -125,-21 -102,-16 -125,-17 -102,-12 -126,-13 -103,-7 -126,-8 -104,-3 -126,-4 -105,1 -127,0 -106,6 -127,4 -107,10 -128,8 -108,15 -129,12 -108,19 -130,16 -109,23 -131,20 -110,28 -132,24 -111,32 -134,28 -112,36 -135,32 -113,41 -136,36 -114,45 -137,39 -116,49 -138,43 -118,53 -139,47 -120,57 -140,50 -122,61 -141,54 -124,65 -143,58 -126,69 -146,61 -128,73 -148,64 -130,77 -150,67 -132,81 -152,70 -134,85 -155,73 -136,89 -157,76 -139,92 -159,79 -142,96 -161,82 -145,99 -163,85 -148,102 -165,88 -151,105 -168,90 -154,108 -171,93 -157,112 -174,95 -161,114 -177,97 -165,116 -180,99 -169,119 -183,101 -173,121 -186,103 -176,123 -189,105 -180,125 -193,107 -184,128 -196,109 -188,130 -199,111 -192,132 -202,113 -196,134 -206,114 -200,136 -209,115 -204,137 -212,116 -208,138 -215,117 -213,139 -219,118 -217,140 -222,118 -222,141 -226,119 -226,141 -229,119 -230,140 -232,119 -235,140 -235,118 -239,140 -239,118 -244,139 -242,118 -248,139 -245,118 -253,139 -249,117 -257,138 -252,116 -261,136 -255,114 -265,133 -258,112 -269,131 -261,110 -273,129 -263,108 -277,127 -266,107 -280,125 -269,105 -284,122 -273,103 -288,120 -276,100 -292,117 -279,98 -295,114 -282,96 -298,111 -285,93 -301,108 -288,90 -305,105 -290,87 -308,102 -293,85 -311,99 -295,82 -314,96 -298,79 -318,93 -300,76 -321,90 -303,74 -323,86 -305,71 -325,82 -308,68 -327,78 -310,65 -330,74 -311,62 -332,70 -312,58 -334,66 -314,55 -336,63 -315,51 -338,59 -317,48 -340,55 -318,44 -341,50 -319,40 -342,46 -321,37 -343,42 -322,33 -344,37 -324,29 -345,33 -325,25 -346,29 -326,21 -348,24 -327,17 -349,20 -327,13 -350,16 -328,9 -351,11 -329,5 -352,7 -330,1 -352,3 -330,-3 -352,-2 -331,-7 -353,-6 -331,-10 -353,-11 -332,-14 -354,-15 -333,-17 -354,-20 -333,-22 -354,-24 -333,-26 -355,-28 -332,-31 -355,-33 -330,-35 -356,-37 -329,-39 -356,-42 -327,-43 -357,-46 -325,-48 -357,-51 -327,-52 -357,-55 -329,-56 -358,-60 -331,-60 -358,-64 -331,-62 -359,-69 -331,-64 -359,-73 -330,-66 -360,-78 -330,-68 -360,-84 -329,-69 -358,-88 -329,-71 -353,-89 -329,-73 -348,-91 -328,-75 -344,-93 -327,-77 -340,-95 -326,-78 -335,-95 -324,-80 -330,-96 -322,-82 -326,-97 -319,-84 -321,-97 -316,-86 -317,-98 -313,-87 -312,-99 -309,-86 -309,-86 -308,-99 -281,-102 -272,-95 -262,-73 -262,-55 -269,-37 -286,-22 -309,-16 -334,-25 -325,-48 -332,-24 -323,-46 -328,-23 -320,-44 -324,-21 -317,-43 -320,-20 -314,-41 -315,-18 -312,-40 -311,-17 -309,-41 -307,-17 -307,-41 -303,-18 -304,-42 -298,-19 -302,-42 -294,-20 -300,-42 -290,-21 -298,-43 -286,-23 -296,-43 -282,-25 -293,-44 -279,-28 -292,-46 -276,-31 -291,-48 -272,-34 -290,-50 -270,-37 -288,-51 -267,-41 -287,-53 -266,-45 -286,-55 -264,-49 -285,-57 -263,-53 -285,-59 -262,-57 -285,-61 -262,-62 -285,-64 -262,-66 -285,-66 -262,-71 -285,-68 -263,-75 -285,-70 -265,-79 -285,-72 -267,-83 -286,-74 -269,-87 -288,-75 -271,-91 -289,-77 -273,-95 -290,-78 -276,-98 -291,-80 -280,-101 -293,-81 -284,-102 -295,-83 -289,-101 -297,-84 -294,-101 -300,-85 -299,-100 -303,-85 -304,-99 -306,-86 -308,-99 -309,-96 -310,-101 -329,-95 -348,-89 -366,-78 -383,-67 -404,-64 -404,-64 -404,-60 -404,-67 -401,-61 -401,-70 -396,-61 -399,-72 -391,-61 -396,-75 -387,-62 -393,-78 -382,-62 -390,-80 -378,-64 -387,-83 -374,-67 -384,-86 -370,-69 -381,-89 -367,-71 -377,-92 -363,-74 -373,-94 -359,-76 -369,-96 -356,-78 -366,-98 -353,-80 -362,-100 -350,-82 -358,-102 -347,-84 -354,-104 -343,-86 -350,-106 -339,-87 -346,-108 -336,-88 -342,-110 -332,-89 -338,-112 -329,-90 -333,-113 -325,-91 -329,-114 -321,-92 -325,-114 -318,-93 -320,-115 -314,-94 -316,-116 -311,-95 -311,-117 -307,-96 -307,-118 -303,-96 -303,-119 -299,-96 -298,-118 -296,-96 -294,-118 -292,-95 -289,-118 -288,-95 -285,-118 -283,-95 -280,-118 -279,-95 -276,-117 -275,-95 -272,-117 -270,-95 -267,-117 -266,-95 -263,-117 -262,-95 -258,-117 -258,-94 -254,-116 -254,-94 -249,-116 -250,-93 -245,-116 -246,-92 -241,-115 -242,-92 -236,-114 -238,-91 -232,-113 -233,-90 -227,-113 -229,-90 -223,-112 -225,-89 -219,-111 -220,-88 -214,-110 -216,-88 -210,-109 -212,-87 -206,-108 -207,-86 -201,-108 -203,-86 -197,-107 -199,-85 -192,-106 -194,-84 -188,-105 -190,-84 -184,-104 -186,-83 -179,-104 -183,-82 -175,-103 -179,-81 -171,-102 -175,-79 -166,-100 -171,-78 -162,-99 -167,-77 -158,-97 -163,-75 -154,-96 -159,-74 -150,-95 -155,-72 -145,-93 -151,-71 -141,-92 -146,-70 -137,-90 -142,-68 -133,-89 -138,-67 -129,-87 -134,-65 -124,-86 -130,-64 -120,-85 -125,-62 -116,-84 -121,-61 -111,-83 -118,-60 -118,-60 -107,-81 -109,-76 -98,-72 -83,-59 -68,-45 -74,-45 -70,-49 -76,-46 -72,-53 -80,-47 -75,-58 -84,-48 -78,-61 -88,-50 -81,-64 -92,-51 -85,-67 -96,-52 -88,-70 -99,-53 -92,-73 -103,-55 -95,-76 -106,-56 -99,-77 -110,-57 -103,-79 -114,-58 -107,-81 -108,-78 -107,-81" /><polyline class="right-outline"  points="116,-69 118,-67 116,-69 120,-65 143,-73 166,-80 177,-77 191,-61 197,-43 190,-19 175,-5 156,1 130,-7 130,-7 128,-3 135,-28 130,-2 139,-25 134,-1 142,-23 139,0 145,-21 143,2 148,-20 147,3 151,-18 151,4 153,-18 155,5 156,-19 160,4 158,-19 164,3 160,-20 168,2 163,-20 172,1 165,-21 177,-1 167,-21 180,-3 169,-22 183,-6 170,-24 187,-9 171,-26 190,-12 172,-28 193,-16 174,-30 195,-20 175,-32 196,-24 176,-34 197,-28 177,-36 199,-33 177,-38 200,-37 177,-40 201,-41 177,-42 201,-46 176,-44 200,-50 176,-47 198,-54 176,-49 197,-59 176,-51 196,-63 175,-53 193,-66 173,-55 190,-70 172,-56 187,-73 170,-57 184,-76 169,-59 181,-80 167,-60 177,-82 166,-61 173,-84 164,-63 169,-85 162,-64 164,-84 159,-65 160,-83 157,-65 155,-82 154,-65 151,-80 151,-65 146,-79 148,-64 142,-78 145,-63 138,-77 142,-62 133,-75 139,-59 129,-74 138,-57 125,-72 136,-54 121,-70 135,-53 116,-69 134,-51 111,-68 133,-50 106,-67 132,-48 100,-65 132,-47 99,-61 131,-46 99,-56 131,-43 100,-51 132,-41 101,-46 133,-38 101,-41 133,-35 102,-37 134,-33 102,-32 135,-30 103,-28 135,-26 103,-23 134,-22 104,-19 132,-18 105,-14 131,-13 105,-10 130,-9 106,-6 129,-4 106,-1 129,0 107,3 130,4 108,8 130,8 108,12 131,11 109,16 132,14 109,21 132,18 111,25 133,22 112,29 134,26 113,34 135,30 115,38 136,33 116,42 138,37 118,46 139,41 119,50 141,44 120,55 142,48 122,59 144,52 123,63 145,55 125,67 147,58 127,71 148,62 129,75 150,65 132,79 151,69 134,83 154,71 136,86 157,74 139,90 159,77 142,93 162,79 145,97 164,82 148,100 167,85 150,103 169,87 154,107 172,90 157,109 174,93 161,112 177,95 164,115 180,98 168,117 182,100 171,120 186,102 175,123 189,104 179,125 193,106 183,127 196,108 187,129 199,109 191,131 202,111 195,132 205,112 199,134 208,114 203,136 211,116 207,138 214,117 211,139 218,117 216,139 222,117 220,139 226,117 225,139 229,118 229,139 232,118 234,140 235,118 238,140 238,118 243,140 242,118 247,140 245,118 252,140 249,118 256,139 252,117 260,137 255,115 264,135 258,113 268,134 261,112 272,132 264,110 276,129 266,109 280,127 270,107 283,124 273,105 287,122 276,102 291,119 279,100 294,116 282,97 298,114 285,94 302,111 287,92 305,109 290,89 308,105 293,87 311,102 296,85 314,99 298,82 317,96 301,80 321,93 303,77 323,89 305,73 326,85 307,70 328,81 309,67 330,77 311,64 332,73 313,60 334,69 314,57 336,66 316,54 338,62 318,51 340,58 320,47 342,54 322,44 344,50 323,40 345,45 324,36 346,41 325,32 347,37 326,28 348,32 326,24 349,28 327,21 350,24 328,17 351,19 329,12 352,15 330,8 353,11 331,4 354,6 332,0 355,2 333,-4 355,-3 334,-8 356,-7 334,-12 356,-11 334,-16 356,-16 335,-20 357,-20 335,-25 357,-25 335,-29 357,-29 336,-33 358,-34 336,-38 358,-38 336,-42 359,-42 337,-46 359,-47 337,-51 359,-51 337,-55 360,-56 338,-58 360,-60 338,-63 360,-65 338,-67 361,-69 338,-70 361,-74 339,-74 362,-78 339,-77 362,-83 339,-81 360,-87 340,-86 354,-90 354,-90 340,-90 343,-86 344,-85 344,-85 346,-90 364,-78 382,-67 382,-67 404,-66 402,-60 402,-68 397,-60 399,-70 392,-61 396,-73 388,-61 393,-76 383,-62 390,-79 379,-63 387,-82 375,-65 384,-85 371,-68 381,-88 367,-70 378,-90 364,-73 374,-93 360,-75 370,-95 357,-77 366,-97 353,-79 362,-99 350,-81 359,-101 347,-83 355,-103 344,-85 351,-105 340,-87 347,-107 337,-88 343,-109 333,-89 339,-111 329,-90 334,-112 326,-91 330,-113 322,-92 326,-114 319,-93 321,-115 315,-94 317,-116 311,-95 313,-116 308,-96 308,-117 304,-96 304,-118 300,-96 299,-118 296,-96 295,-118 293,-95 290,-118 289,-95 286,-118 284,-95 282,-118 280,-95 277,-117 276,-95 273,-117 271,-95 268,-117 267,-95 264,-117 263,-95 259,-117 259,-95 255,-117 255,-94 250,-116 251,-93 246,-116 247,-93 242,-115 243,-92 237,-115 239,-91 233,-114 234,-91 229,-113 230,-90 224,-112 226,-89 220,-111 221,-89 215,-111 217,-88 211,-110 213,-87 207,-109 208,-87 202,-108 204,-86 198,-107 200,-85 194,-106 195,-85 189,-106 191,-84 185,-105 187,-84 180,-104 183,-83 176,-103 180,-81 172,-102 176,-80 167,-101 172,-79 163,-100 168,-77 159,-98 164,-76 155,-97 160,-75 151,-95 156,-73 146,-94 152,-72 142,-92 147,-70 138,-91 143,-69 134,-90 139,-67 130,-88 135,-66 125,-87 131,-65 121,-85 127,-63 117,-84 122,-62 113,-82 119,-60 109,-81 115,-59 105,-80 111,-58 101,-78 108,-57 97,-77 104,-55 93,-75 100,-54 89,-72 97,-53 86,-69 94,-52 82,-66 90,-51 79,-64 86,-49 76,-61 82,-48 73,-57 78,-47 71,-53 75,-45 69,-49 72,-44 67,-45 67,-45 71,-44 68,-45 71,-44" /><polyline   points="-182,-140 -179,-140 -182,-140 -162,-139 -143,-135 -125,-129 -107,-120 -125,-129 -107,-120 -125,-129 -143,-135 -125,-129 -143,-135 -162,-139 -143,-135 -162,-139 -182,-140 -162,-139 -182,-140 -179,-140 -182,-140" /><polyline   points="108,-118 111,-119 108,-118 126,-127 144,-133 163,-137 183,-138 163,-137 183,-138 163,-137 144,-133 163,-137 144,-133 126,-127 144,-133 126,-127 108,-118 126,-127 108,-118 111,-119 108,-118" /></svg>