<svg viewBox="-425 -150 850 300" fill="none" stroke="black" stroke-width="4"><polyline class="left-eye" stroke="red" points="-335,-22 -337,-24 -335,-22 -337,-24 -321,-17 -304,-16 -287,-22 -274,-32 -267,-48 -267,-65 -273,-81 -285,-94 -266,-97 -246,-99 -226,-100 -207,-99 -187,-97 -167,-94 -148,-88 -129,-83 -110,-78 -112,-58 -116,-39 -118,-19 -121,0 -124,20 -130,39 -137,57 -145,75 -157,91 -172,103 -190,112 -209,118 -228,120 -248,117 -267,111 -284,102 -299,89 -310,73 -318,55 -325,36 -331,17 -333,-2 -335,-22 -329,-5 -322,12 -316,29 -310,46 -304,63 -297,80 -291,97 -278,103 -265,110 -252,116 -261,107 -289,79 -318,50 -322,46 -326,32 -331,18 -316,32 -288,60 -260,89 -232,117 -229,120 -210,118 -230,99 -258,70 -287,42 -315,14 -334,-5 -335,-22 -319,-14 -303,-5 -287,3 -271,11 -255,20 -239,28 -223,37 -219,18 -215,-1 -210,-20 -194,-30 -177,-39 -160,-49 -143,-59 -127,-68 -110,-78 -110,-78 -123,-81 -137,-85 -126,-74 -112,-60 -115,-43 -127,-55 -155,-84 -164,-93 -176,-95 -189,-97 -185,-94 -157,-65 -128,-37 -117,-26 -120,-9 -130,-19 -158,-47 -186,-75 -211,-99 -221,-100 -231,-100 -216,-85 -188,-57 -160,-29 -131,0 -122,8 -125,26 -133,18 -161,-10 -189,-39 -217,-67 -246,-95 -249,-99 -267,-96 -247,-77 -219,-48 -191,-20 -162,8 -134,36 -131,40 -136,54 -164,27 -192,-2 -220,-30 -249,-58 -277,-87 -283,-93 -270,-77 -266,-56 -250,-40 -222,-12 -193,17 -165,45 -142,68 -149,81 -167,63 -195,35 -223,7 -251,-22 -269,-39 -277,-28 -253,-3 -224,25 -196,53 -168,82 -158,92 -168,101 -198,72 -226,43 -254,15 -282,-13 -290,-20 -305,-15 -284,5 -256,34 -227,62 -199,90 -181,108 -195,114 -200,108 -229,80 -257,52 -285,24 -314,-5 -329,-20 -337,-24 -335,-22 -342,-35 -341,-35 -342,-33 -337,-33 -343,-28 -333,-32 -343,-22 -330,-31 -340,-20 -344,-17 -330,-27 -326,-29 -343,-12 -339,-13 -323,-27 -329,-21 -343,-7 -319,-26 -338,-7 -343,-2 -328,-14 -315,-25 -319,-21 -342,2 -337,0 -310,-24 -327,-7 -341,7 -318,-14 -305,-24 -308,-22 -336,7 -341,11 -326,0 -299,-25 -317,-8 -340,16 -335,13 -307,-15 -292,-27 -297,-22 -325,6 -340,20 -339,22 -315,-1 -287,-29 -282,-33 -271,-46 -269,-63 -274,-79 -286,-91 -302,-94 -294,-97 -299,-91 -286,-100 -297,-89 -287,-97 -279,-102 -294,-87 -272,-103 -286,-90 -290,-85 -276,-97 -266,-105 -288,-82 -260,-106 -275,-90 -285,-80 -265,-98 -254,-106 -283,-77 -274,-84 -248,-107 -264,-91 -280,-75 -254,-98 -242,-108 -244,-105 -273,-77 -279,-71 -263,-84 -237,-108 -253,-91 -277,-68 -272,-70 -243,-99 -232,-108 -262,-78 -276,-64 -252,-85 -226,-108 -242,-92 -271,-64 -275,-59 -261,-71 -233,-99 -221,-108 -251,-78 -275,-55 -270,-57 -241,-85 -216,-108 -232,-93 -260,-64 -275,-49 -250,-71 -222,-100 -211,-108 -240,-79 -269,-50 -276,-43 -279,-38 -259,-58 -231,-86 -206,-108 -221,-93 -249,-65 -277,-37 -306,-8 -334,20 -338,25 -324,13 -296,-15 -268,-44 -239,-72 -211,-100 -201,-107 -230,-79 -258,-51 -286,-23 -314,6 -337,29 -333,27 -305,-2 -276,-30 -248,-58 -220,-86 -196,-107 -210,-94 -238,-65 -267,-37 -295,-9 -323,20 -336,33 -313,12 -285,-16 -257,-44 -229,-73 -200,-101 -192,-107 -219,-80 -247,-51 -275,-23 -304,5 -332,33 -335,37 -322,26 -294,-2 -266,-30 -237,-59 -209,-87 -187,-106 -199,-94 -228,-66 -256,-38 -284,-9 -312,19 -334,41 -331,40 -303,12 -274,-16 -246,-45 -218,-73 -190,-101 -183,-106 -208,-80 -236,-52 -265,-24 -293,5 -321,33 -333,45 -311,26 -283,-3 -255,-31 -227,-59 -198,-87 -178,-105 -189,-95 -217,-66 -245,-38 -273,-10 -302,18 -332,48 -320,40 -292,11 -264,-17 -235,-45 -207,-74 -179,-102 -174,-104 -197,-81 -226,-53 -254,-24 -282,4 -310,32 -330,52 -301,25 -272,-3 -244,-31 -216,-60 -188,-88 -169,-104 -178,-95 -206,-67 -234,-39 -263,-10 -291,18 -319,46 -329,56 -309,39 -281,11 -253,-18 -225,-46 -196,-74 -165,-103 -186,-81 -215,-53 -243,-25 -271,4 -300,32 -327,59 -318,53 -290,25 -262,-4 -233,-32 -205,-60 -177,-89 -161,-102 -167,-96 -195,-67 -224,-39 -252,-11 -280,17 -308,46 -326,63 -299,38 -270,10 -242,-18 -214,-46 -185,-75 -157,-101 -176,-82 -204,-54 -232,-25 -261,3 -289,31 -317,60 -324,67 -307,52 -279,24 -251,-4 -223,-32 -194,-61 -166,-89 -153,-100 -156,-96 -184,-68 -213,-40 -241,-11 -269,17 -298,45 -323,70 -316,66 -288,38 -260,10 -231,-19 -203,-47 -175,-75 -149,-99 -165,-82 -193,-54 -221,-26 -250,2 -278,31 -306,59 -321,74 -297,52 -268,24 -240,-5 -212,-33 -183,-61 -155,-90 -145,-97 -147,-95 -174,-69 -202,-40 -230,-12 -259,16 -287,45 -315,73 -319,77 -305,66 -277,37 -249,9 -220,-19 -192,-47 -164,-76 -141,-96 -154,-83 -182,-55 -211,-26 -239,2 -267,30 -296,58 -317,80 -314,79 -286,51 -258,23 -229,-5 -201,-34 -173,-62 -144,-90 -137,-95 -163,-69 -191,-41 -219,-12 -248,16 -276,44 -304,72 -315,83 -295,65 -266,37 -238,9 -210,-20 -181,-48 -153,-76 -133,-94 -143,-83 -172,-55 -200,-27 -228,1 -257,30 -285,58 -313,86 -303,79 -275,51 -247,22 -218,-6 -190,-34 -162,-62 -134,-91 -129,-93 -152,-70 -180,-41 -209,-13 -237,15 -265,44 -294,72 -311,89 -284,65 -255,36 -227,8 -199,-20 -171,-48 -142,-77 -125,-91 -133,-84 -161,-56 -189,-27 -217,1 -246,29 -274,57 -302,86 -309,92 -293,79 -264,50 -236,22 -208,-6 -179,-35 -151,-63 -121,-90 -141,-70 -170,-42 -198,-14 -226,15 -254,43 -283,71 -306,95 -301,92 -273,64 -245,36 -216,8 -188,-21 -160,-49 -132,-77 -117,-89 -122,-85 -150,-56 -178,-28 -207,0 -235,29 -263,57 -292,85 -304,97 -282,78 -253,50 -225,21 -197,-7 -169,-35 -140,-63 -113,-88 -131,-71 -159,-42 -187,-14 -215,14 -244,43 -272,71 -301,100 -290,92 -262,64 -234,35 -206,7 -177,-21 -149,-50 -121,-78 -109,-87 -139,-57 -168,-28 -196,0 -224,28 -252,56 -281,85 -299,103 -271,77 -243,49 -214,21 -186,-7 -158,-36 -130,-64 -105,-86 -120,-71 -148,-43 -176,-15 -205,14 -233,42 -261,70 -289,99 -296,105 -280,91 -251,63 -223,35 -195,6 -167,-22 -138,-50 -110,-78 -101,-85 -129,-57 -157,-29 -185,-1 -213,28 -242,56 -270,84 -293,107 -288,105 -260,77 -232,49 -204,20 -175,-8 -147,-36 -119,-64 -100,-80 -109,-72 -137,-43 -166,-15 -194,13 -222,41 -250,70 -279,98 -290,109 -269,91 -241,63 -212,34 -184,6 -156,-22 -127,-51 -101,-74 -118,-58 -146,-30 -174,-1 -203,27 -231,55 -259,84 -287,112 -278,105 -249,76 -221,48 -193,20 -165,-8 -136,-37 -108,-65 -102,-68 -126,-44 -155,-16 -183,13 -211,41 -240,69 -268,97 -284,114 -258,90 -230,62 -202,34 -173,5 -145,-23 -117,-51 -103,-63 -107,-58 -135,-30 -164,-2 -192,27 -220,55 -248,83 -277,111 -281,116 -267,104 -239,76 -210,48 -182,19 -154,-9 -125,-37 -103,-57 -116,-44 -144,-16 -172,12 -201,40 -229,69 -257,97 -278,117 -247,90 -219,61 -191,33 -163,5 -134,-23 -106,-52 -104,-51 -124,-31 -153,-2 -181,26 -209,54 -238,83 -266,111 -274,119 -256,104 -228,75 -200,47 -171,19 -143,-10 -115,-38 -105,-45 -133,-17 -161,12 -190,40 -218,68 -246,96 -271,121 -265,117 -237,89 -208,61 -180,33 -152,4 -123,-24 -106,-39 -114,-31 -142,-3 -170,25 -199,54 -227,82 -255,110 -267,122 -245,103 -217,75 -189,47 -160,18 -132,-10 -107,-32 -122,-17 -151,11 -179,39 -207,68 -236,96 -263,124 -254,117 -226,89 -198,60 -169,32 -141,4 -113,-24 -108,-26 -131,-3 -159,25 -188,53 -216,81 -244,110 -259,125 -235,103 -206,74 -178,46 -150,18 -121,-11 -109,-20 -112,-18 -140,11 -168,39 -196,67 -225,95 -253,124 -255,126 -243,116 -215,88 -187,60 -158,32 -130,3 -110,-14 -120,-4 -149,24 -177,53 -205,81 -234,109 -251,127 -224,102 -195,74 -167,45 -139,17 -111,-8 -129,10 -157,38 -186,67 -214,95 -242,123 -247,128 -233,116 -204,88 -176,59 -148,31 -119,3 -112,-2 -138,24 -166,52 -194,80 -223,109 -243,129 -213,101 -185,73 -156,45 -128,17 -112,4 -118,9 -147,38 -175,66 -203,94 -231,123 -238,129 -222,115 -193,87 -165,59 -137,31 -113,9 -127,23 -155,52 -184,80 -212,108 -233,129 -202,101 -174,73 -146,44 -117,16 -114,15 -136,37 -164,65 -192,94 -221,122 -228,129 -211,115 -183,87 -154,58 -126,30 -115,21 -145,51 -173,79 -201,108 -223,130 -191,100 -163,72 -135,44 -116,28 -125,37 -153,65 -182,93 -210,122 -217,129 -200,114 -172,86 -144,58 -119,35 -134,51 -162,79 -190,107 -211,128 -181,100 -152,72 -124,43 -121,43 -143,64 -171,93 -199,121 -205,127 -189,114 -161,85 -133,57 -123,48 -126,53 -151,78 -180,107 -197,124 -170,99 -142,71 -128,57 -130,62 -160,92 -189,121 -179,113 -150,85 -132,67 -135,72 -141,78 -169,106 -181,118 -175,115 -159,99 -137,77 -140,83 -149,92 -168,111 -156,101 -147,92 -149,94 -156,101 -154,99 -156,101" /><polyline class="right-eye" stroke="red" points="126,-22 123,-24 126,-22 121,-25 138,-18 156,-13 174,-17 189,-28 195,-45 195,-64 189,-81 179,-97 197,-96 216,-96 235,-97 254,-96 273,-95 292,-93 310,-89 329,-84 345,-74 344,-55 342,-35 340,-16 336,3 334,22 330,41 323,58 313,75 299,88 284,100 268,111 250,117 230,119 211,116 193,109 177,99 164,85 153,69 144,52 136,35 131,16 127,-3 126,-22 134,-4 141,13 149,31 156,48 164,66 171,83 179,101 179,101 168,90 165,87 168,90 179,101 197,109 215,117 198,100 170,72 142,44 138,40 134,26 130,12 143,25 171,53 200,82 228,110 237,119 254,116 230,91 201,63 173,35 145,7 126,-12 126,-22 121,-25 126,-22 141,-13 157,-5 172,4 188,13 203,21 218,30 234,39 241,22 248,5 255,-12 268,-24 284,-34 299,-44 314,-54 330,-64 345,-74 344,-55 335,-64 310,-89 298,-91 285,-94 305,-74 333,-46 342,-36 340,-19 331,-27 303,-56 275,-84 263,-96 252,-97 242,-97 245,-94 273,-65 302,-37 330,-9 337,-2 335,16 328,10 300,-19 272,-47 243,-75 222,-97 203,-96 214,-85 242,-57 270,-28 299,0 327,28 332,33 327,48 325,46 297,18 269,-10 240,-38 212,-66 184,-94 179,-97 195,-64 211,-48 239,-20 267,9 295,37 321,62 314,75 294,55 266,27 237,-1 209,-29 195,-43 190,-29 207,-11 236,17 264,46 292,74 303,85 292,94 263,64 234,36 206,8 179,-19 164,-14 176,-2 204,26 233,54 261,83 281,102 269,110 259,101 231,73 203,45 175,16 146,-12 142,-17 124,-24 126,-22 116,-39 117,-39 116,-38 120,-37 115,-32 124,-36 115,-27 128,-35 115,-21 125,-30 131,-33 115,-17 135,-31 126,-23 115,-12 138,-30 116,-7 128,-16 142,-28 137,-23 116,-3 146,-27 129,-10 117,2 138,-17 150,-26 118,6 130,-3 154,-25 139,-10 119,11 149,-17 159,-24 131,4 120,15 140,-3 164,-24 150,-11 120,19 132,11 160,-18 171,-26 141,3 121,23 122,25 151,-4 174,-27 182,-33 191,-47 190,-63 186,-78 177,-92 163,-98 167,-99 164,-96 174,-102 166,-93 182,-104 168,-90 180,-100 188,-105 171,-88 194,-106 181,-93 173,-85 191,-100 200,-107 175,-82 182,-86 205,-107 192,-93 177,-79 202,-101 211,-107 183,-79 179,-75 193,-87 216,-107 203,-94 180,-72 184,-73 212,-101 221,-107 194,-80 182,-68 204,-87 226,-107 213,-94 183,-64 195,-73 223,-102 232,-108 205,-80 184,-60 214,-88 237,-108 224,-95 196,-67 185,-56 206,-74 234,-102 242,-108 215,-81 186,-51 197,-60 225,-88 247,-107 235,-95 207,-67 185,-46 188,-46 216,-74 245,-103 252,-107 226,-82 198,-53 184,-40 182,-35 208,-60 236,-89 257,-107 246,-96 218,-68 189,-39 161,-11 133,17 123,27 142,10 171,-18 199,-47 227,-75 256,-103 262,-107 237,-82 209,-54 181,-25 152,3 124,31 134,24 162,-4 190,-33 219,-61 247,-89 267,-107 257,-96 228,-68 200,-40 172,-12 143,17 125,35 153,10 182,-19 210,-47 238,-75 266,-104 272,-107 248,-83 220,-54 191,-26 163,2 135,31 126,39 145,23 173,-5 201,-33 229,-61 258,-90 276,-106 267,-97 239,-69 211,-40 183,-12 154,16 128,43 136,37 164,9 192,-19 221,-48 249,-76 281,-105 259,-83 230,-55 202,-26 174,2 146,30 129,47 155,23 184,-5 212,-34 240,-62 268,-90 286,-105 278,-97 250,-69 222,-41 193,-13 165,16 137,44 130,50 147,37 175,8 203,-20 231,-48 260,-76 290,-104 269,-84 241,-55 213,-27 185,1 156,30 132,54 138,51 166,22 194,-6 223,-34 251,-62 279,-91 295,-104 289,-98 261,-70 232,-41 204,-13 176,15 148,43 134,57 157,36 186,8 214,-20 242,-49 271,-77 299,-103 280,-84 252,-56 224,-28 195,1 167,29 139,57 135,61 149,50 177,22 205,-6 233,-35 262,-63 290,-91 303,-102 300,-98 272,-70 243,-42 215,-14 187,15 158,43 137,64 168,36 196,7 225,-21 253,-49 281,-77 308,-101 291,-85 263,-56 235,-28 206,0 178,29 150,57 139,68 159,50 188,21 216,-7 244,-35 273,-64 301,-92 312,-100 282,-71 254,-42 226,-14 197,14 169,42 140,71 151,64 179,35 207,7 236,-21 264,-50 292,-78 316,-99 302,-85 274,-57 245,-29 217,0 189,28 160,56 142,75 170,49 199,21 227,-7 255,-36 283,-64 312,-92 320,-98 293,-71 265,-43 237,-15 208,14 180,42 152,70 144,78 161,63 190,35 218,6 246,-22 275,-50 303,-78 324,-97 313,-86 284,-57 256,-29 228,-1 200,28 171,56 146,81 153,77 181,49 209,20 238,-8 266,-36 294,-65 322,-93 328,-96 304,-72 276,-43 247,-15 219,13 191,41 163,70 148,84 172,62 201,34 229,6 257,-22 285,-51 314,-79 332,-94 323,-86 295,-58 267,-30 239,-1 210,27 182,55 154,84 151,87 164,76 192,48 220,20 248,-8 277,-37 305,-65 335,-93 315,-72 286,-44 258,-16 230,13 202,41 173,69 153,90 183,62 211,34 240,5 268,-23 296,-51 325,-79 339,-91 334,-87 306,-58 278,-30 249,-2 221,27 193,55 165,83 155,93 174,76 203,48 231,19 259,-9 287,-37 316,-66 343,-90 326,-73 297,-44 269,-16 241,12 212,40 184,69 157,96 166,90 194,61 222,33 250,5 279,-23 307,-52 335,-80 346,-88 344,-86 317,-59 289,-31 260,-2 232,26 204,54 175,83 160,98 185,75 213,47 242,19 270,-9 298,-38 327,-66 349,-86 336,-73 308,-45 280,-17 251,12 223,40 195,68 167,96 162,101 176,89 205,61 233,33 261,4 290,-24 318,-52 346,-80 352,-84 328,-59 299,-31 271,-3 243,25 214,54 186,82 165,103 196,75 224,47 253,18 281,-10 309,-38 337,-67 355,-82 347,-74 319,-45 291,-17 262,11 234,39 206,68 177,96 168,106 187,89 215,60 244,32 272,4 300,-24 329,-53 357,-78 338,-60 310,-32 282,-3 254,25 225,53 197,82 170,108 178,103 207,74 235,46 263,18 292,-11 320,-39 348,-67 356,-73 330,-46 301,-18 273,11 245,39 217,67 188,95 173,111 198,88 226,60 255,32 283,3 311,-25 339,-53 356,-67 349,-60 321,-32 293,-4 264,24 236,53 208,81 180,109 176,113 189,102 218,74 246,46 274,17 302,-11 331,-39 356,-62 340,-47 312,-18 284,10 256,38 227,67 199,95 179,115 209,88 237,59 265,31 294,3 322,-25 350,-54 355,-56 332,-33 303,-4 275,24 247,52 219,81 190,109 182,117 200,102 228,73 257,45 285,17 313,-12 341,-40 355,-50 351,-47 323,-19 295,10 266,38 238,66 210,94 185,119 191,115 220,87 248,59 276,31 304,2 333,-26 354,-45 343,-33 314,-5 286,23 258,52 229,80 201,108 189,121 211,101 239,73 267,45 296,16 324,-12 354,-39 334,-19 305,9 277,37 249,66 221,94 192,122 202,115 230,87 259,58 287,30 315,2 344,-26 353,-33 325,-5 297,23 268,51 240,79 212,108 196,124 222,101 250,72 278,44 307,16 335,-13 353,-28 345,-20 316,9 288,37 260,65 231,93 203,122 200,125 213,114 241,86 270,58 298,30 326,1 352,-22 336,-6 308,22 279,51 251,79 223,107 204,126 232,100 261,72 289,43 317,15 346,-13 351,-16 327,8 299,36 271,65 242,93 214,121 208,128 224,114 252,86 280,57 309,29 337,1 350,-9 347,-6 318,22 290,50 262,78 234,107 212,129 243,100 272,71 300,43 328,15 349,-3 338,7 310,36 281,64 253,92 225,121 216,129 235,113 263,85 291,57 319,29 347,3 329,21 301,50 273,78 244,106 221,130 226,127 254,99 282,71 311,42 339,14 347,9 320,35 292,64 264,92 236,120 225,131 245,113 274,85 302,56 330,28 346,14 340,21 312,49 283,77 255,106 230,131 237,127 265,99 293,70 321,42 346,20 331,35 303,63 275,91 246,120 235,131 256,112 284,84 313,56 341,28 345,26 322,49 294,77 266,105 241,130 247,126 276,98 304,70 332,41 344,33 314,63 285,91 257,119 247,129 267,112 295,84 324,55 342,39 333,48 305,76 277,105 253,128 286,97 315,69 340,47 325,62 296,90 268,119 262,124 278,111 306,83 334,55 336,56 316,76 288,104 272,120 279,115 297,97 326,69 334,60 331,66 307,90 287,110 296,103 305,96 313,89 310,92 310,92 308,94 322,80 327,73 317,83 295,105 296,103 295,105 296,103" /><polyline  stroke="white" points="-330,-54 -329,-57 -330,-54 -321,-71 -305,-80 -288,-74 -278,-58 -286,-40 -293,-34 -302,-32 -319,-39 -330,-54 -313,-55 -295,-56 -278,-57 -285,-46 -291,-35 -291,-76 -304,-80 -304,-65 -304,-31 -317,-37 -317,-53 -317,-74 -323,-64 -330,-54 -336,-44 -323,-59 -311,-74 -298,-90 -298,-90 -295,-90 -309,-90 -316,-88 -294,-88 -284,-86 -320,-86 -310,-84 -279,-82 -298,-82 -326,-82 -286,-80 -275,-78 -314,-78 -330,-78 -302,-76 -272,-74 -290,-74 -330,-74 -334,-74 -318,-72 -278,-72 -269,-70 -306,-70 -337,-70 -334,-68 -294,-68 -268,-66 -282,-66 -322,-66 -338,-66 -310,-64 -270,-64 -266,-62 -298,-62 -339,-62 -326,-60 -286,-60 -266,-58 -274,-58 -314,-58 -340,-58 -302,-55 -265,-53 -290,-53 -330,-53 -340,-53 -318,-51 -278,-51 -266,-49 -306,-49 -340,-49 -334,-47 -294,-47 -268,-45 -282,-45 -322,-45 -339,-45 -310,-43 -270,-41 -298,-41 -337,-41 -326,-39 -286,-39 -272,-37 -314,-37 -334,-37 -302,-35 -275,-33 -290,-33 -331,-33 -318,-31 -279,-29 -306,-29 -327,-29 -294,-27 -285,-25 -321,-25 -316,-23 -310,-23 -288,-23 -299,-21 -300,-21 -299,-21 -300,-21 -299,-21" /><polyline  stroke="white" points="132,-54 133,-57 132,-54 139,-71 154,-80 163,-80 171,-75 180,-60 174,-43 160,-34 151,-35 143,-40 132,-54 148,-55 165,-57 181,-58 181,-58 173,-69 165,-80 165,-65 165,-35 148,-36 148,-53 148,-77 140,-66 132,-54 124,-53 136,-65 149,-77 162,-90 162,-90 165,-90 151,-90 144,-88 147,-88 176,-86 158,-86 140,-86 170,-84 181,-82 142,-82 135,-82 154,-80 185,-78 166,-78 130,-78 138,-76 178,-76 188,-74 150,-74 127,-74 162,-72 190,-70 174,-70 134,-70 124,-70 146,-68 186,-68 192,-66 158,-66 123,-66 130,-64 170,-64 193,-62 182,-62 142,-62 121,-62 154,-60 193,-58 166,-58 126,-58 121,-58 138,-55 178,-55 194,-53 190,-53 150,-53 121,-53 162,-51 192,-49 174,-49 134,-49 121,-49 146,-47 186,-47 190,-45 158,-45 122,-45 130,-43 170,-43 189,-41 182,-41 142,-41 125,-41 154,-39 187,-37 166,-37 127,-37 138,-35 178,-35 183,-33 150,-33 131,-33 162,-31 179,-29 174,-29 136,-29 146,-27 172,-25 158,-25 144,-25 157,-23 160,-23 157,-23" /><polyline class="left-outline"  points="-358,-65 -359,-68 -358,-65 -360,-69 -343,-71 -325,-72 -320,-79 -307,-85 -302,-83 -301,-78 -281,-91 -281,-91 -301,-78 -277,-93 -299,-77 -274,-90 -296,-76 -271,-87 -292,-74 -268,-83 -289,-73 -266,-80 -287,-70 -263,-76 -285,-68 -262,-72 -284,-65 -261,-67 -283,-63 -260,-63 -282,-60 -260,-59 -282,-57 -259,-55 -282,-55 -260,-50 -283,-52 -261,-46 -283,-50 -263,-42 -284,-48 -264,-37 -284,-46 -265,-33 -285,-44 -267,-29 -287,-42 -271,-26 -289,-41 -274,-23 -290,-39 -278,-21 -292,-38 -281,-18 -294,-36 -284,-15 -296,-35 -289,-13 -299,-35 -293,-13 -301,-35 -298,-12 -304,-34 -302,-11 -307,-34 -306,-11 -309,-34 -311,-11 -312,-35 -315,-12 -315,-37 -320,-14 -318,-39 -324,-16 -320,-40 -328,-18 -322,-42 -322,-42 -332,-19 -337,-19 -333,0 -329,19 -324,39 -316,57 -308,76 -297,88 -285,99 -264,111 -242,122 -227,122 -212,122 -185,111 -169,99 -153,87 -137,63 -131,43 -124,23 -118,3 -116,-15 -114,-34 -113,-53 -111,-71 -115,-74 -94,-62 -115,-72 -94,-60 -116,-67 -94,-58 -116,-62 -94,-57 -117,-58 -94,-53 -117,-54 -94,-49 -118,-49 -95,-44 -118,-45 -96,-40 -119,-40 -96,-35 -119,-36 -97,-31 -120,-32 -98,-27 -120,-27 -99,-22 -120,-23 -99,-18 -121,-19 -100,-13 -121,-14 -101,-9 -122,-10 -101,-5 -122,-6 -102,0 -123,-2 -103,4 -123,2 -103,9 -124,6 -104,13 -126,10 -105,17 -127,14 -105,22 -128,18 -107,26 -129,22 -108,30 -131,26 -109,35 -132,30 -111,39 -133,34 -112,43 -134,38 -114,47 -135,42 -115,51 -136,45 -116,56 -138,49 -118,60 -139,53 -119,64 -140,57 -120,68 -141,61 -123,72 -143,64 -125,76 -145,67 -128,80 -147,70 -130,83 -149,73 -132,87 -151,76 -135,91 -153,79 -137,95 -155,82 -139,99 -158,85 -143,101 -161,87 -146,104 -164,89 -150,107 -167,91 -154,110 -170,93 -157,112 -172,96 -161,115 -175,98 -164,118 -178,100 -168,121 -182,102 -171,123 -185,105 -175,125 -188,107 -179,127 -191,108 -183,129 -194,110 -187,130 -198,111 -192,132 -201,113 -196,134 -204,114 -200,136 -207,116 -204,138 -211,117 -208,140 -214,117 -212,140 -218,117 -217,140 -221,117 -221,140 -224,117 -226,141 -227,117 -230,141 -231,117 -235,140 -234,117 -239,139 -237,117 -243,138 -241,117 -248,138 -244,116 -252,137 -247,114 -256,136 -251,112 -260,134 -254,111 -264,132 -257,109 -268,129 -260,107 -272,127 -263,106 -276,125 -266,104 -280,123 -270,102 -284,120 -273,101 -287,118 -277,99 -291,116 -280,97 -295,114 -283,95 -299,111 -285,92 -302,108 -288,89 -305,105 -291,87 -308,102 -293,84 -312,99 -296,82 -315,96 -298,79 -318,93 -301,77 -320,89 -303,74 -322,85 -305,71 -324,81 -307,67 -326,77 -308,64 -328,73 -310,60 -331,69 -311,57 -333,65 -312,54 -335,61 -314,50 -336,57 -316,47 -338,53 -317,43 -339,48 -319,39 -340,44 -320,35 -341,40 -321,31 -342,35 -322,27 -343,31 -323,23 -345,27 -324,19 -346,23 -325,15 -347,18 -325,11 -348,14 -326,7 -349,10 -327,4 -350,5 -328,0 -351,1 -329,-4 -351,-3 -330,-7 -352,-8 -330,-12 -352,-12 -331,-16 -353,-17 -331,-20 -353,-21 -330,-25 -354,-26 -328,-29 -354,-30 -327,-33 -355,-34 -325,-38 -355,-39 -324,-42 -356,-43 -324,-47 -356,-47 -325,-51 -357,-52 -326,-56 -357,-56 -327,-60 -358,-60 -325,-65 -325,-65 -358,-65 -359,-70 -342,-71 -325,-72 -320,-79 -307,-85 -302,-83 -278,-98 -255,-101 -232,-103 -211,-101 -190,-98 -169,-96 -146,-89 -122,-83 -107,-75 -92,-67 -66,-64 -60,-65 -61,-59 -63,-68 -66,-59 -65,-70 -70,-60 -68,-72 -75,-60 -71,-75 -79,-61 -74,-77 -84,-61 -78,-80 -89,-62 -81,-83 -93,-63 -85,-86 -97,-64 -89,-88 -101,-66 -93,-90 -105,-68 -97,-92 -109,-70 -101,-93 -112,-72 -105,-95 -116,-74 -110,-96 -120,-76 -114,-98 -124,-78 -118,-99 -128,-79 -122,-101 -132,-81 -126,-103 -136,-82 -130,-104 -139,-82 -135,-106 -143,-84 -139,-106 -147,-85 -143,-107 -151,-86 -148,-108 -155,-87 -152,-109 -159,-88 -156,-110 -163,-89 -161,-111 -167,-90 -165,-111 -171,-91 -170,-112 -176,-91 -174,-113 -180,-92 -178,-114 -184,-92 -183,-115 -188,-93 -187,-116 -192,-93 -191,-116 -196,-94 -196,-117 -201,-94 -200,-118 -205,-95 -205,-119 -209,-95 -209,-119 -213,-96 -213,-119 -217,-96 -218,-119 -221,-97 -222,-118 -225,-97 -227,-118 -229,-98 -231,-118 -233,-98 -236,-118 -237,-97 -240,-118 -241,-97 -245,-118 -246,-97 -249,-118 -250,-96 -253,-117 -253,-96 -258,-117 -257,-95 -262,-117 -261,-95 -267,-117 -265,-95 -271,-116 -269,-94 -276,-115 -273,-94 -280,-114 -277,-93 -284,-113 -281,-91 -289,-112 -285,-88 -293,-112 -288,-86 -297,-111 -292,-84 -302,-110 -295,-81 -306,-109 -299,-79 -311,-108 -302,-79 -315,-107 -307,-79 -319,-106 -311,-78 -322,-106 -315,-76 -326,-105 -319,-74 -330,-104 -322,-70 -333,-103 -326,-67 -338,-102 -330,-67 -342,-101 -334,-66 -346,-100 -338,-66 -350,-98 -341,-66 -354,-96 -345,-66 -358,-94 -349,-65 -362,-92 -353,-65 -366,-90 -366,-90 -357,-65 -359,-70 -365,-71 -379,-63 -394,-55 -394,-55 -393,-51 -395,-59 -390,-52 -392,-63 -386,-54 -391,-66 -382,-56 -389,-69 -378,-58 -387,-73 -375,-60 -385,-78 -372,-61 -382,-82 -369,-63 -378,-84 -366,-65 -374,-86 -362,-66 -370,-88 -357,-65 -358,-68 -357,-65" /><polyline class="right-outline"  points="101,-59 101,-59 106,-59 108,-40 111,-20 127,-19 133,-40 133,-40 127,-19 134,-45 131,-17 138,-41 135,-16 141,-38 139,-14 144,-36 143,-12 147,-35 148,-12 150,-35 152,-12 152,-35 157,-12 155,-35 161,-12 158,-35 166,-13 160,-35 170,-14 163,-35 174,-15 164,-37 178,-18 166,-38 181,-21 168,-39 184,-24 170,-41 187,-27 172,-42 191,-30 173,-44 194,-34 173,-46 195,-38 173,-48 196,-42 174,-51 196,-47 174,-53 197,-51 175,-55 198,-55 175,-58 199,-60 176,-60 198,-64 175,-63 196,-68 174,-66 195,-73 172,-69 193,-77 170,-71 192,-81 168,-74 190,-85 165,-76 187,-88 162,-77 182,-93 182,-93 160,-77 157,-83 181,-97 200,-99 218,-101 237,-103 252,-102 268,-101 286,-96 304,-92 322,-87 340,-83 354,-76 368,-69 390,-60 390,-60 396,-64 394,-54 394,-66 389,-55 392,-68 385,-57 391,-70 381,-58 388,-73 377,-60 385,-77 373,-61 382,-81 369,-63 379,-84 365,-64 375,-87 361,-66 371,-89 358,-68 367,-90 354,-70 363,-92 351,-71 359,-93 348,-73 355,-95 355,-95 344,-75 346,-79 340,-83 322,-87 304,-92 286,-96 268,-101 252,-102 237,-103 218,-101 200,-99 181,-97 158,-82 150,-85 142,-82 130,-69 115,-69 99,-68 82,-65 64,-62 64,-58 65,-65 66,-59 67,-68 70,-59 70,-69 75,-60 72,-72 79,-60 76,-74 83,-61 79,-77 87,-61 83,-80 91,-62 87,-83 95,-62 90,-86 100,-63 94,-88 104,-63 98,-90 109,-63 101,-91 114,-64 105,-93 118,-64 109,-94 123,-64 113,-96 127,-64 118,-97 131,-65 122,-99 134,-68 126,-101 138,-71 130,-102 141,-75 133,-104 145,-78 137,-105 149,-79 141,-106 154,-79 145,-107 159,-78 150,-108 162,-79 154,-109 165,-81 159,-110 168,-83 163,-111 172,-85 167,-112 175,-88 172,-113 179,-90 176,-114 183,-92 180,-115 187,-93 184,-116 192,-93 189,-117 195,-94 193,-117 199,-94 198,-117 203,-95 202,-117 207,-95 207,-117 210,-95 211,-117 215,-96 215,-118 219,-96 220,-118 223,-97 224,-118 227,-97 229,-118 231,-97 233,-118 236,-98 238,-118 240,-98 242,-118 244,-98 247,-119 248,-97 251,-119 252,-97 255,-119 256,-97 260,-118 260,-96 264,-117 264,-96 269,-116 268,-96 273,-116 272,-95 277,-115 276,-94 282,-114 280,-93 286,-113 284,-92 290,-112 288,-91 295,-111 292,-90 299,-111 296,-89 304,-110 301,-87 308,-109 305,-86 312,-108 309,-85 317,-107 313,-84 321,-106 317,-83 325,-106 321,-82 330,-104 325,-81 334,-103 328,-80 338,-101 332,-79 342,-99 337,-78 346,-98 340,-77 350,-96 344,-75 361,-66 344,-75 365,-64 344,-72 365,-62 343,-68 365,-60 343,-63 365,-58 342,-59 365,-54 342,-55 365,-50 341,-50 364,-45 341,-46 363,-41 341,-41 363,-36 340,-37 362,-32 340,-33 361,-28 339,-28 361,-23 339,-24 360,-19 338,-20 359,-14 338,-15 359,-10 337,-11 358,-6 337,-7 357,-1 336,-3 357,3 336,1 356,8 335,5 355,12 334,9 355,16 332,13 354,21 331,17 353,25 330,21 351,29 329,25 350,33 327,29 349,38 326,33 347,42 325,37 346,46 324,41 344,50 323,45 343,55 322,48 342,59 320,52 340,63 319,56 339,67 318,60 337,71 316,63 334,75 314,66 332,79 312,69 330,83 311,72 327,86 309,75 325,90 307,78 323,94 305,81 320,98 302,84 317,101 299,86 313,104 296,89 310,106 293,91 306,109 290,93 303,112 287,95 299,114 284,97 296,117 281,99 292,120 278,102 289,123 275,104 285,124 272,106 281,126 268,108 277,128 265,109 272,130 262,111 268,132 259,112 264,134 255,113 260,136 252,115 256,137 249,116 252,139 246,117 248,140 242,118 243,140 239,118 239,140 235,117 234,140 232,117 230,141 229,117 225,140 226,117 221,139 223,117 217,139 219,117 212,138 216,116 208,137 213,115 204,136 209,113 199,134 206,111 196,132 203,110 192,130 200,108 188,128 197,106 184,125 193,105 180,123 190,103 176,121 187,101 172,119 183,99 169,117 180,97 165,114 177,95 161,112 174,92 158,108 171,90 155,105 169,87 152,102 166,85 149,99 164,82 146,96 161,80 142,93 159,77 139,89 156,75 137,86 154,72 135,82 153,68 133,78 151,65 131,74 150,61 129,70 148,58 127,66 147,55 125,62 145,51 123,58 144,48 122,54 142,44 120,49 141,40 119,45 139,36 118,41 138,32 117,36 137,28 116,32 136,24 115,28 136,20 113,24 135,16 112,19 134,12 111,15 133,8 110,11 132,4 109,6 131,0 108,2 130,-3 108,-2 130,-7 107,-7 129,-10 107,-11 128,-15 106,-16 127,-19 106,-20 128,-23 105,-24 129,-28 105,-29 130,-32 104,-33 130,-37 104,-38 131,-41 103,-42 132,-45 103,-46 132,-49 102,-50 132,-54 102,-54 132,-58 101,-59 132,-63 132,-63 101,-63 104,-63 101,-63" /><polyline   points="-179,-141 -176,-141 -179,-141 -159,-140 -140,-136 -122,-130 -104,-121 -122,-130 -104,-121 -122,-130 -140,-136 -122,-130 -140,-136 -159,-140 -140,-136 -159,-140 -179,-141 -159,-140 -179,-141 -176,-141 -179,-141" /><polyline   points="111,-119 114,-120 111,-119 129,-128 147,-134 166,-138 186,-139 166,-138 186,-139 166,-138 147,-134 166,-138 147,-134 129,-128 147,-134 129,-128 111,-119 129,-128 111,-119 114,-120 111,-119" /></svg>